<svg width="32" height="32" viewBox="0 0 32 32" fill="none" xmlns="http://www.w3.org/2000/svg">
<path d="M25 9.45V5C25 4.46957 24.7893 3.96086 24.4142 3.58579C24.0391 3.21071 23.5304 3 23 3H8.99998C8.46955 3 7.96084 3.21071 7.58577 3.58579C7.21069 3.96086 6.99998 4.46957 6.99998 5V9.5C7.00094 9.81032 7.07366 10.1162 7.21244 10.3938C7.35122 10.6713 7.5523 10.913 7.79998 11.1L14.3375 16L7.79998 20.9C7.56596 21.0734 7.37376 21.297 7.23748 21.5544C7.10121 21.8118 7.02432 22.0965 7.01248 22.3875C7.00224 22.4241 6.99802 22.4621 6.99998 22.5V27C6.99998 27.5304 7.21069 28.0391 7.58577 28.4142C7.96084 28.7893 8.46955 29 8.99998 29H23C23.5304 29 24.0391 28.7893 24.4142 28.4142C24.7893 28.0391 25 27.5304 25 27V22.55C25.0019 22.5121 24.9977 22.4741 24.9875 22.4375C24.9756 22.1465 24.8988 21.8618 24.7625 21.6044C24.6262 21.347 24.434 21.1234 24.2 20.95L17.6625 16L24.2 11.05C24.4477 10.863 24.6487 10.6213 24.7875 10.3438C24.9263 10.0662 24.999 9.76032 25 9.45ZM10.325 21.5125L16 17.25L21.6625 21.5375L10.325 21.5125ZM23 9.45L16 14.75L8.99998 9.5V5H23V9.45Z" fill="#344054"/>
</svg>
