<svg width="32" height="32" viewBox="0 0 32 32" fill="none" xmlns="http://www.w3.org/2000/svg">
<path d="M17.0001 9.99997V15.425L21.7001 18.1375C21.889 18.2483 22.0363 18.4181 22.1194 18.6207C22.2024 18.8234 22.2167 19.0477 22.1599 19.2593C22.1031 19.4708 21.9784 19.6578 21.805 19.7916C21.6316 19.9255 21.4191 19.9986 21.2001 20C21.0235 20.0049 20.8494 19.9571 20.7001 19.8625L15.5001 16.8625H15.4751L15.4251 16.8375L15.3876 16.8L15.3501 16.775L15.3126 16.7375L15.2876 16.7125C15.2626 16.7 15.2501 16.675 15.2376 16.6625L15.2126 16.6375L15.1876 16.5875L15.1626 16.55L15.1376 16.5125C15.1298 16.5066 15.1235 16.4991 15.1192 16.4904C15.1149 16.4817 15.1126 16.4722 15.1126 16.4625L15.0876 16.425C15.0876 16.4125 15.0751 16.4 15.0751 16.375C15.0706 16.3699 15.0671 16.364 15.065 16.3575C15.0628 16.3511 15.062 16.3442 15.0626 16.3375L15.0376 16.2875C15.0382 16.2807 15.0374 16.2739 15.0352 16.2674C15.0331 16.261 15.0296 16.255 15.0251 16.25C15.0251 16.225 15.0251 16.2125 15.0126 16.2V16.15C15.0126 16.125 15.0001 16.1125 15.0001 16.1V9.99997C15.0001 9.73475 15.1055 9.4804 15.293 9.29286C15.4805 9.10533 15.7349 8.99997 16.0001 8.99997C16.2653 8.99997 16.5197 9.10533 16.7072 9.29286C16.8947 9.4804 17.0001 9.73475 17.0001 9.99997ZM24.4876 7.51247C22.2337 5.26679 19.1818 4.00586 16.0001 4.00586C12.8184 4.00586 9.76645 5.26679 7.5126 7.51247L6.4751 8.54997L4.6876 6.76247C4.54886 6.62169 4.37151 6.52518 4.17795 6.48513C3.98439 6.44509 3.78331 6.4633 3.6001 6.53747C3.41767 6.61475 3.26154 6.74325 3.15062 6.90742C3.0397 7.07158 2.97873 7.26438 2.9751 7.46247V12.4625C2.9751 12.7277 3.08045 12.982 3.26799 13.1696C3.45553 13.3571 3.70988 13.4625 3.9751 13.4625H8.9751C9.17189 13.4621 9.36421 13.4038 9.52797 13.2946C9.69173 13.1855 9.81966 13.0305 9.89573 12.849C9.9718 12.6675 9.99262 12.4676 9.9556 12.2743C9.91858 12.0811 9.82535 11.903 9.6876 11.7625L7.8876 9.96247L8.9251 8.92497C10.3241 7.52756 12.1059 6.57625 14.0454 6.1913C15.9849 5.80635 17.995 6.00504 19.8216 6.76224C21.6482 7.51944 23.2094 8.80117 24.3077 10.4454C25.406 12.0897 25.9922 14.0226 25.9922 16C25.9922 17.9773 25.406 19.9103 24.3077 21.5545C23.2094 23.1988 21.6482 24.4805 19.8216 25.2377C17.995 25.9949 15.9849 26.1936 14.0454 25.8086C12.1059 25.4237 10.3241 24.4724 8.9251 23.075C8.83312 22.9809 8.72327 22.9061 8.60199 22.855C8.4807 22.804 8.35044 22.7777 8.21885 22.7777C8.08726 22.7777 7.95699 22.804 7.83571 22.855C7.71443 22.9061 7.60457 22.9809 7.5126 23.075C7.32558 23.2624 7.22056 23.5164 7.22056 23.7812C7.22056 24.046 7.32558 24.3 7.5126 24.4875C9.76362 26.7385 12.8167 28.0031 16.0001 28.0031C19.1835 28.0031 22.2366 26.7385 24.4876 24.4875C26.7386 22.2364 28.0032 19.1834 28.0032 16C28.0032 12.8165 26.7386 9.76349 24.4876 7.51247Z" fill="#344054"/>
</svg>
