<svg width="32" height="32" viewBox="0 0 32 32" fill="none" xmlns="http://www.w3.org/2000/svg">
<path d="M29.4376 6.8125L25.1876 2.5625C25.0966 2.46211 24.9862 2.38125 24.8631 2.32483C24.7399 2.2684 24.6066 2.23759 24.4711 2.23425C24.3357 2.23092 24.201 2.25513 24.0753 2.30543C23.9495 2.35572 23.8352 2.43105 23.7394 2.52684C23.6436 2.62263 23.5683 2.73688 23.518 2.86266C23.4677 2.98845 23.4435 3.12314 23.4468 3.25856C23.4502 3.39399 23.481 3.52732 23.5374 3.65048C23.5938 3.77363 23.6747 3.88404 23.7751 3.975L28.0251 8.225C28.2117 8.40882 28.4631 8.51206 28.7251 8.5125C28.9906 8.51137 29.2456 8.40848 29.4376 8.225C29.6246 8.03753 29.7296 7.78354 29.7296 7.51875C29.7296 7.25395 29.6246 6.99996 29.4376 6.8125Z" fill="#344054"/>
<path d="M8.22505 2.56248C8.03758 2.37547 7.78359 2.27045 7.5188 2.27045C7.254 2.27045 7.00001 2.37547 6.81255 2.56248L2.56255 6.81248C2.37553 6.99995 2.27051 7.25394 2.27051 7.51873C2.27051 7.78353 2.37553 8.03752 2.56255 8.22498C2.7545 8.40847 3.0095 8.51136 3.27505 8.51248C3.53703 8.51205 3.78838 8.40881 3.97505 8.22498L8.22505 3.97498C8.41206 3.78752 8.51708 3.53353 8.51708 3.26873C8.51708 3.00394 8.41206 2.74995 8.22505 2.56248Z" fill="#344054"/>
<path d="M28 15.65C27.9896 15.5629 27.9854 15.4752 27.9875 15.3875C27.8368 12.4216 26.5917 9.61686 24.4929 7.51576C22.3941 5.41467 19.5908 4.16646 16.625 4.01251H15.375C12.4113 4.16619 9.60961 5.41264 7.51112 7.51113C5.41263 9.60962 4.16618 12.4113 4.0125 15.375C4.01456 15.4627 4.01038 15.5504 4 15.6375V16.3375C4.01038 16.4246 4.01456 16.5123 4.0125 16.6C4.16018 19.5682 5.40399 22.3759 7.50307 24.4796C9.60216 26.5833 12.4072 27.8333 15.375 27.9875H16.625C19.5887 27.8338 22.3904 26.5874 24.4889 24.4889C26.5874 22.3904 27.8338 19.5887 27.9875 16.625C27.9854 16.5373 27.9896 16.4496 28 16.3625V15.6625V15.65ZM23 17H16C15.7348 17 15.4804 16.8947 15.2929 16.7071C15.1054 16.5196 15 16.2652 15 16V9.00001C15 8.7348 15.1054 8.48044 15.2929 8.29291C15.4804 8.10537 15.7348 8.00001 16 8.00001C16.2652 8.00001 16.5196 8.10537 16.7071 8.29291C16.8946 8.48044 17 8.7348 17 9.00001V15H23C23.2652 15 23.5196 15.1054 23.7071 15.2929C23.8946 15.4804 24 15.7348 24 16C24 16.2652 23.8946 16.5196 23.7071 16.7071C23.5196 16.8947 23.2652 17 23 17Z" fill="#344054"/>
</svg>
