<svg width="32" height="32" viewBox="0 0 32 32" fill="none" xmlns="http://www.w3.org/2000/svg">
<path d="M17.4126 16L26.0001 7.4125C26.2791 7.13281 26.469 6.77675 26.5459 6.38924C26.6228 6.00173 26.5832 5.60012 26.4321 5.23509C26.281 4.87006 26.0252 4.55796 25.6969 4.33815C25.3687 4.11834 24.9827 4.00068 24.5876 4H7.41259C7.01753 4.00068 6.63151 4.11834 6.30325 4.33815C5.97498 4.55796 5.71916 4.87006 5.56807 5.23509C5.41697 5.60012 5.37737 6.00173 5.45426 6.38924C5.53115 6.77675 5.72108 7.13281 6.00009 7.4125L14.5876 16L6.00009 24.5875C5.72108 24.8672 5.53115 25.2233 5.45426 25.6108C5.37737 25.9983 5.41697 26.3999 5.56807 26.7649C5.71916 27.1299 5.97498 27.442 6.30325 27.6619C6.63151 27.8817 7.01753 27.9993 7.41259 28H24.5876C24.9827 27.9993 25.3687 27.8817 25.6969 27.6619C26.0252 27.442 26.281 27.1299 26.4321 26.7649C26.5832 26.3999 26.6228 25.9983 26.5459 25.6108C26.469 25.2233 26.2791 24.8672 26.0001 24.5875L17.4126 16ZM7.41259 6H24.5876L16.0001 14.5875L7.41259 6ZM16.0001 17.4125L19.5876 21H12.4126L16.0001 17.4125Z" fill="#344054"/>
</svg>
