<svg width="32" height="32" viewBox="0 0 32 32" fill="none" xmlns="http://www.w3.org/2000/svg">
<path d="M26 4H23V3C23 2.73478 22.8946 2.48043 22.7071 2.29289C22.5196 2.10536 22.2652 2 22 2C21.7348 2 21.4804 2.10536 21.2929 2.29289C21.1054 2.48043 21 2.73478 21 3V4H11V3C11 2.73478 10.8946 2.48043 10.7071 2.29289C10.5196 2.10536 10.2652 2 10 2C9.73478 2 9.48043 2.10536 9.29289 2.29289C9.10536 2.48043 9 2.73478 9 3V4H6C5.46957 4 4.96086 4.21071 4.58579 4.58579C4.21071 4.96086 4 5.46957 4 6V26C4 26.5304 4.21071 27.0391 4.58579 27.4142C4.96086 27.7893 5.46957 28 6 28H26C26.5304 28 27.0391 27.7893 27.4142 27.4142C27.7893 27.0391 28 26.5304 28 26V6C28 5.46957 27.7893 4.96086 27.4142 4.58579C27.0391 4.21071 26.5304 4 26 4ZM19.7125 21.2875C19.9003 21.4771 20.0056 21.7332 20.0056 22C20.0056 22.2668 19.9003 22.5229 19.7125 22.7125C19.5192 22.8939 19.265 22.9964 19 23C18.7345 22.9989 18.4795 22.896 18.2875 22.7125L16 20.4125L13.7125 22.7125C13.5192 22.8939 13.265 22.9964 13 23C12.7345 22.9989 12.4795 22.896 12.2875 22.7125C12.0997 22.5229 11.9944 22.2668 11.9944 22C11.9944 21.7332 12.0997 21.4771 12.2875 21.2875L14.5875 19L12.2875 16.7125C12.128 16.5182 12.0465 16.2715 12.0589 16.0205C12.0712 15.7694 12.1765 15.5319 12.3542 15.3542C12.5319 15.1765 12.7694 15.0712 13.0205 15.0589C13.2715 15.0465 13.5182 15.128 13.7125 15.2875L16 17.5875L18.2875 15.2875C18.4818 15.128 18.7285 15.0465 18.9795 15.0589C19.2306 15.0712 19.4681 15.1765 19.6458 15.3542C19.8235 15.5319 19.9288 15.7694 19.9411 16.0205C19.9535 16.2715 19.872 16.5182 19.7125 16.7125L17.4125 19L19.7125 21.2875ZM26 10H6V6H9V7C9 7.26522 9.10536 7.51957 9.29289 7.70711C9.48043 7.89464 9.73478 8 10 8C10.2652 8 10.5196 7.89464 10.7071 7.70711C10.8946 7.51957 11 7.26522 11 7V6H21V7C21 7.26522 21.1054 7.51957 21.2929 7.70711C21.4804 7.89464 21.7348 8 22 8C22.2652 8 22.5196 7.89464 22.7071 7.70711C22.8946 7.51957 23 7.26522 23 7V6H26V10Z" fill="#344054"/>
</svg>
