<svg width="32" height="32" viewBox="0 0 32 32" fill="none" xmlns="http://www.w3.org/2000/svg">
<path d="M25 9.45V5C25 4.46957 24.7893 3.96086 24.4142 3.58579C24.0391 3.21071 23.5304 3 23 3H9C8.46957 3 7.96086 3.21071 7.58579 3.58579C7.21071 3.96086 7 4.46957 7 5V9.5C7.00096 9.81032 7.07368 10.1162 7.21246 10.3938C7.35124 10.6713 7.55232 10.913 7.8 11.1L14.3375 16L7.8 20.9C7.55232 21.087 7.35124 21.3287 7.21246 21.6062C7.07368 21.8838 7.00096 22.1897 7 22.5V27C7 27.5304 7.21071 28.0391 7.58579 28.4142C7.96086 28.7893 8.46957 29 9 29H23C23.5304 29 24.0391 28.7893 24.4142 28.4142C24.7893 28.0391 25 27.5304 25 27V22.55C24.999 22.2397 24.9263 21.9338 24.7875 21.6562C24.6488 21.3787 24.4477 21.137 24.2 20.95L17.6625 16L24.2 11.05C24.4477 10.863 24.6488 10.6213 24.7875 10.3438C24.9263 10.0662 24.999 9.76032 25 9.45Z" fill="#344054"/>
</svg>
