<svg width="32" height="32" viewBox="0 0 32 32" fill="none" xmlns="http://www.w3.org/2000/svg">
<path d="M21.9124 7.93752L21.1374 3.63752C21.0524 3.17633 20.8081 2.75968 20.4471 2.46037C20.0861 2.16105 19.6314 1.99811 19.1624 2.00002H12.8374C12.3685 1.99811 11.9138 2.16105 11.5528 2.46037C11.1918 2.75968 10.9474 3.17633 10.8624 3.63752L10.0874 7.93752C8.82147 8.86639 7.79204 10.0803 7.08248 11.481C6.37292 12.8817 6.00317 14.4298 6.00317 16C6.00317 17.5702 6.37292 19.1183 7.08248 20.519C7.79204 21.9197 8.82147 23.1336 10.0874 24.0625L10.8624 28.3625C10.9474 28.8237 11.1918 29.2404 11.5528 29.5397C11.9138 29.839 12.3685 30.0019 12.8374 30H19.1624C19.6314 30.0019 20.0861 29.839 20.4471 29.5397C20.8081 29.2404 21.0524 28.8237 21.1374 28.3625L21.9124 24.0625C23.1784 23.1336 24.2078 21.9197 24.9174 20.519C25.6269 19.1183 25.9967 17.5702 25.9967 16C25.9967 14.4298 25.6269 12.8817 24.9174 11.481C24.2078 10.0803 23.1784 8.86639 21.9124 7.93752ZM12.8374 4.00002H19.1624L19.6499 6.70002C17.3062 5.76632 14.6937 5.76632 12.3499 6.70002L12.8374 4.00002ZM19.1624 28H12.8374L12.3499 25.3C14.6937 26.2337 17.3062 26.2337 19.6499 25.3L19.1624 28ZM20.9999 17H15.9999C15.7347 17 15.4804 16.8947 15.2928 16.7071C15.1053 16.5196 14.9999 16.2652 14.9999 16V11C14.9999 10.7348 15.1053 10.4804 15.2928 10.2929C15.4804 10.1054 15.7347 10 15.9999 10C16.2651 10 16.5195 10.1054 16.707 10.2929C16.8946 10.4804 16.9999 10.7348 16.9999 11V15H20.9999C21.2651 15 21.5195 15.1054 21.707 15.2929C21.8946 15.4804 21.9999 15.7348 21.9999 16C21.9999 16.2652 21.8946 16.5196 21.707 16.7071C21.5195 16.8947 21.2651 17 20.9999 17Z" fill="#344054"/>
</svg>
