<svg width="32" height="32" viewBox="0 0 32 32" fill="none" xmlns="http://www.w3.org/2000/svg">
<path d="M26 4H23V3C23 2.73478 22.8946 2.48043 22.7071 2.29289C22.5196 2.10536 22.2652 2 22 2C21.7348 2 21.4804 2.10536 21.2929 2.29289C21.1054 2.48043 21 2.73478 21 3V4H11V3C11 2.73478 10.8946 2.48043 10.7071 2.29289C10.5196 2.10536 10.2652 2 10 2C9.73478 2 9.48043 2.10536 9.29289 2.29289C9.10536 2.48043 9 2.73478 9 3V4H6C5.46957 4 4.96086 4.21071 4.58579 4.58579C4.21071 4.96086 4 5.46957 4 6V26C4 26.5304 4.21071 27.0391 4.58579 27.4142C4.96086 27.7893 5.46957 28 6 28H26C26.5304 28 27.0391 27.7893 27.4142 27.4142C27.7893 27.0391 28 26.5304 28 26V6C28 5.46957 27.7893 4.96086 27.4142 4.58579C27.0391 4.21071 26.5304 4 26 4ZM13 23.5C12.2041 23.4992 11.4407 23.1848 10.875 22.625C10.688 22.4375 10.583 22.1835 10.583 21.9188C10.583 21.654 10.688 21.4 10.875 21.2125C10.967 21.1184 11.0768 21.0436 11.1981 20.9925C11.3194 20.9415 11.4497 20.9152 11.5813 20.9152C11.7128 20.9152 11.8431 20.9415 11.9644 20.9925C12.0857 21.0436 12.1955 21.1184 12.2875 21.2125C12.4795 21.396 12.7345 21.4989 13 21.5C13.2652 21.5 13.5196 21.3946 13.7071 21.2071C13.8946 21.0196 14 20.7652 14 20.5C14 20.2348 13.8946 19.9804 13.7071 19.7929C13.5196 19.6054 13.2652 19.5 13 19.5H12.6875L12.6375 19.475H12.6L12.5375 19.45H12.525L12.45 19.4H12.425L12.375 19.3625L12.325 19.325L12.3 19.3L12.2625 19.2625C12.197 19.1871 12.1423 19.103 12.1 19.0125C12.0641 18.946 12.0388 18.8743 12.025 18.8C12.0125 18.7875 12.0125 18.775 12.0125 18.75C12.0131 18.7432 12.0123 18.7364 12.0101 18.73C12.008 18.7235 12.0045 18.7176 12 18.7125V18.5V18.4125C12 18.3875 12.0125 18.375 12.0125 18.3625V18.3125C12.0224 18.2978 12.0269 18.2801 12.025 18.2625C12.0375 18.25 12.0375 18.2375 12.0375 18.2125L12.0625 18.175C12.0625 18.15 12.0625 18.1375 12.075 18.125L12.1 18.075V18.0375L12.125 17.9875L12.15 17.95L12.1875 17.9L12.2125 17.875L12.9125 17H11.5C11.2348 17 10.9804 16.8946 10.7929 16.7071C10.6054 16.5196 10.5 16.2652 10.5 16C10.5 15.7348 10.6054 15.4804 10.7929 15.2929C10.9804 15.1054 11.2348 15 11.5 15H15C15.1879 15.0011 15.3717 15.055 15.5304 15.1558C15.689 15.2565 15.8161 15.3999 15.897 15.5695C15.9779 15.7391 16.0094 15.9281 15.9878 16.1148C15.9662 16.3015 15.8925 16.4783 15.775 16.625L14.675 18.0125C15.2076 18.3716 15.6109 18.8922 15.8256 19.4976C16.0402 20.1031 16.0548 20.7614 15.8673 21.3758C15.6798 21.9902 15.3 22.5282 14.7838 22.9106C14.2676 23.293 13.6424 23.4996 13 23.5ZM21 22.5C21 22.7652 20.8946 23.0196 20.7071 23.2071C20.5196 23.3946 20.2652 23.5 20 23.5C19.7348 23.5 19.4804 23.3946 19.2929 23.2071C19.1054 23.0196 19 22.7652 19 22.5V18L18.6 18.3C18.3867 18.4559 18.1209 18.5223 17.8593 18.4849C17.5977 18.4476 17.3611 18.3094 17.2 18.1C17.0409 17.8878 16.9725 17.6211 17.01 17.3586C17.0476 17.096 17.1878 16.8591 17.4 16.7L19.4 15.2C19.5486 15.0886 19.7252 15.0207 19.9102 15.004C20.0952 14.9874 20.2811 15.0225 20.4472 15.1056C20.6133 15.1886 20.753 15.3163 20.8507 15.4743C20.9483 15.6322 21 15.8143 21 16V22.5ZM26 10H6V6H9V7C9 7.26522 9.10536 7.51957 9.29289 7.70711C9.48043 7.89464 9.73478 8 10 8C10.2652 8 10.5196 7.89464 10.7071 7.70711C10.8946 7.51957 11 7.26522 11 7V6H21V7C21 7.26522 21.1054 7.51957 21.2929 7.70711C21.4804 7.89464 21.7348 8 22 8C22.2652 8 22.5196 7.89464 22.7071 7.70711C22.8946 7.51957 23 7.26522 23 7V6H26V10Z" fill="#344054"/>
</svg>
