<svg width="32" height="32" viewBox="0 0 32 32" fill="none" xmlns="http://www.w3.org/2000/svg">
<path d="M7.5 29.75C8.19036 29.75 8.75 29.1904 8.75 28.5C8.75 27.8096 8.19036 27.25 7.5 27.25C6.80964 27.25 6.25 27.8096 6.25 28.5C6.25 29.1904 6.80964 29.75 7.5 29.75Z" fill="#344054"/>
<path d="M11 26.25C11.6904 26.25 12.25 25.6904 12.25 25C12.25 24.3096 11.6904 23.75 11 23.75C10.3096 23.75 9.75 24.3096 9.75 25C9.75 25.6904 10.3096 26.25 11 26.25Z" fill="#344054"/>
<path d="M3.5 25.75C4.19036 25.75 4.75 25.1904 4.75 24.5C4.75 23.8096 4.19036 23.25 3.5 23.25C2.80964 23.25 2.25 23.8096 2.25 24.5C2.25 25.1904 2.80964 25.75 3.5 25.75Z" fill="#344054"/>
<path d="M7 22.25C7.69036 22.25 8.25 21.6904 8.25 21C8.25 20.3096 7.69036 19.75 7 19.75C6.30964 19.75 5.75 20.3096 5.75 21C5.75 21.6904 6.30964 22.25 7 22.25Z" fill="#344054"/>
<path d="M30.9999 5.00001H27.4124C27.2826 4.99955 27.1539 5.02471 27.0338 5.07404C26.9137 5.12338 26.8045 5.19591 26.7124 5.28751L22.9999 9.00001L6.91244 11.675C6.73032 11.7051 6.56009 11.7851 6.42062 11.906C6.28114 12.0269 6.17786 12.1841 6.12221 12.3601C6.06656 12.5361 6.06071 12.7241 6.10532 12.9032C6.14993 13.0824 6.24325 13.2457 6.37494 13.375L18.6249 25.625C18.7543 25.7567 18.9176 25.85 19.0967 25.8946C19.2758 25.9392 19.4638 25.9334 19.6398 25.8777C19.8158 25.8221 19.973 25.7188 20.0939 25.5793C20.2148 25.4399 20.2948 25.2696 20.3249 25.0875L22.9999 9.00001" stroke="#344054" stroke-width="1.5" stroke-linecap="round" stroke-linejoin="round"/>
</svg>
