<svg width="32" height="32" viewBox="0 0 32 32" fill="none" xmlns="http://www.w3.org/2000/svg">
<path d="M13 11.5H19" stroke="#344054" stroke-width="1.5" stroke-linecap="round" stroke-linejoin="round"/>
<path d="M28.7 19.2875L23.2375 6.87502C22.6735 6.31701 21.9121 6.00403 21.1187 6.00403C20.3254 6.00403 19.564 6.31701 19 6.87502V21" stroke="#344054" stroke-width="1.5" stroke-linecap="round" stroke-linejoin="round"/>
<path d="M13 21V6.87502C12.436 6.31701 11.6747 6.00403 10.8813 6.00403C10.0879 6.00403 9.32655 6.31701 8.76255 6.87502L3.30005 19.2875" stroke="#344054" stroke-width="1.5" stroke-linecap="round" stroke-linejoin="round"/>
<path d="M8 26C10.7614 26 13 23.7614 13 21C13 18.2386 10.7614 16 8 16C5.23858 16 3 18.2386 3 21C3 23.7614 5.23858 26 8 26Z" stroke="#344054" stroke-width="1.5" stroke-linecap="round" stroke-linejoin="round"/>
<path d="M24 26C26.7614 26 29 23.7614 29 21C29 18.2386 26.7614 16 24 16C21.2386 16 19 18.2386 19 21C19 23.7614 21.2386 26 24 26Z" stroke="#344054" stroke-width="1.5" stroke-linecap="round" stroke-linejoin="round"/>
</svg>
