<svg width="32" height="32" viewBox="0 0 32 32" fill="none" xmlns="http://www.w3.org/2000/svg">
<path d="M28.0001 15.925C28.0117 17.515 27.7059 19.0913 27.1006 20.5616C26.4953 22.0319 25.6027 23.3666 24.4751 24.4875C19.8626 29.1 12.3126 29.15 7.63756 24.6C5.92242 22.931 4.74549 20.7873 4.25798 18.4443C3.77047 16.1013 3.99465 13.6661 4.90172 11.4515C5.8088 9.2369 7.35732 7.34409 9.34835 6.01628C11.3394 4.68847 13.6819 3.98631 16.0751 4.00001C16.2248 4.00222 16.3722 4.03762 16.5066 4.10365C16.641 4.16968 16.7591 4.2647 16.8523 4.38187C16.9456 4.49904 17.0117 4.63544 17.0459 4.78124C17.0801 4.92703 17.0815 5.0786 17.0501 5.22501C16.9198 5.80576 16.9208 6.40825 17.053 6.98856C17.1851 7.56888 17.4451 8.11239 17.814 8.57946C18.1829 9.04654 18.6513 9.42542 19.1852 9.68847C19.7191 9.95152 20.3049 10.0921 20.9001 10.1C21.1653 10.1 21.4196 10.2054 21.6072 10.3929C21.7947 10.5804 21.9001 10.8348 21.9001 11.1C21.908 11.6951 22.0486 12.281 22.3116 12.8149C22.5747 13.3488 22.9535 13.8172 23.4206 14.1861C23.8877 14.555 24.4312 14.815 25.0115 14.9471C25.5918 15.0793 26.1943 15.0803 26.7751 14.95C26.9215 14.9186 27.073 14.92 27.2188 14.9542C27.3646 14.9884 27.501 15.0545 27.6182 15.1477C27.7354 15.241 27.8304 15.3591 27.8964 15.4935C27.9625 15.6279 27.9979 15.7753 28.0001 15.925V15.925Z" stroke="#344054" stroke-width="1.5" stroke-linecap="round" stroke-linejoin="round"/>
<path d="M19.5 22.75C20.1904 22.75 20.75 22.1904 20.75 21.5C20.75 20.8096 20.1904 20.25 19.5 20.25C18.8096 20.25 18.25 20.8096 18.25 21.5C18.25 22.1904 18.8096 22.75 19.5 22.75Z" fill="#344054"/>
<path d="M11.5 21.75C12.1904 21.75 12.75 21.1904 12.75 20.5C12.75 19.8096 12.1904 19.25 11.5 19.25C10.8096 19.25 10.25 19.8096 10.25 20.5C10.25 21.1904 10.8096 21.75 11.5 21.75Z" fill="#344054"/>
<path d="M10.5 14.75C11.1904 14.75 11.75 14.1904 11.75 13.5C11.75 12.8096 11.1904 12.25 10.5 12.25C9.80964 12.25 9.25 12.8096 9.25 13.5C9.25 14.1904 9.80964 14.75 10.5 14.75Z" fill="#344054"/>
<path d="M17 16.75C17.6904 16.75 18.25 16.1904 18.25 15.5C18.25 14.8096 17.6904 14.25 17 14.25C16.3096 14.25 15.75 14.8096 15.75 15.5C15.75 16.1904 16.3096 16.75 17 16.75Z" fill="#344054"/>
</svg>
