<svg width="32" height="32" viewBox="0 0 32 32" fill="none" xmlns="http://www.w3.org/2000/svg">
<path d="M28 22.1625V9.83747C27.999 9.65944 27.9512 9.48481 27.8612 9.33119C27.7712 9.17757 27.6423 9.05039 27.4875 8.96247L16.4875 2.77497C16.3393 2.6894 16.1711 2.64435 16 2.64435C15.8289 2.64435 15.6607 2.6894 15.5125 2.77497L4.5125 8.96247C4.35769 9.05039 4.22879 9.17757 4.13882 9.33119C4.04884 9.48481 4.00096 9.65944 4 9.83747V22.1625C4.00096 22.3405 4.04884 22.5151 4.13882 22.6688C4.22879 22.8224 4.35769 22.9496 4.5125 23.0375L15.5125 29.225C15.6607 29.3105 15.8289 29.3556 16 29.3556C16.1711 29.3556 16.3393 29.3105 16.4875 29.225L27.4875 23.0375C27.6423 22.9496 27.7712 22.8224 27.8612 22.6688C27.9512 22.5151 27.999 22.3405 28 22.1625V22.1625Z" stroke="#344054" stroke-width="1.5" stroke-linecap="round" stroke-linejoin="round"/>
<path d="M22.125 19.0625V12.5625L10 5.875" stroke="#344054" stroke-width="1.5" stroke-linecap="round" stroke-linejoin="round"/>
<path d="M27.8624 9.32501L16.1125 16L4.13745 9.32501" stroke="#344054" stroke-width="1.5" stroke-linecap="round" stroke-linejoin="round"/>
<path d="M16.1125 16L16 29.35" stroke="#344054" stroke-width="1.5" stroke-linecap="round" stroke-linejoin="round"/>
</svg>
