<svg width="32" height="32" viewBox="0 0 32 32" fill="none" xmlns="http://www.w3.org/2000/svg">
<path d="M29.7124 10.7875L22.2124 3.28751C22.0228 3.09973 21.7668 2.99438 21.4999 2.99438C21.2331 2.99438 20.977 3.09973 20.7874 3.28751L7.79994 16.2875L4.53744 19.5375C3.48652 20.5884 2.89612 22.0138 2.89612 23.5C2.89612 24.9862 3.48652 26.4116 4.53744 27.4625C5.58836 28.5134 7.01371 29.1038 8.49994 29.1038C9.98617 29.1038 11.4115 28.5134 12.4624 27.4625L22.1999 17.7125L26.5374 13.375L29.3124 12.45C29.4747 12.3943 29.6204 12.2987 29.7362 12.172C29.8519 12.0454 29.934 11.8917 29.9749 11.725C30.0112 11.5592 30.0062 11.387 29.9605 11.2236C29.9147 11.0601 29.8295 10.9104 29.7124 10.7875ZM25.6874 11.55C25.5396 11.6017 25.4036 11.6825 25.2874 11.7875L20.8374 16.2375C20.5749 16.4375 18.5999 17.6875 15.4499 16.1C14.0749 15.4125 12.8499 15.15 11.7999 15.1125L21.4999 5.41251L27.1499 11.0625L25.6874 11.55Z" fill="#344054"/>
</svg>
