<svg width="32" height="32" viewBox="0 0 32 32" fill="none" xmlns="http://www.w3.org/2000/svg">
<path d="M20 27H19.95C19.7552 26.9887 19.5677 26.9214 19.4103 26.8061C19.2528 26.6907 19.132 26.5324 19.0625 26.35L11.925 7.60001L7.9125 16.4125C7.83309 16.5879 7.70475 16.7366 7.54288 16.8408C7.38102 16.945 7.19251 17.0003 7 17H3C2.73478 17 2.48043 16.8947 2.29289 16.7071C2.10536 16.5196 2 16.2652 2 16C2 15.7348 2.10536 15.4804 2.29289 15.2929C2.48043 15.1054 2.73478 15 3 15H6.3625L11.0875 4.58751C11.1721 4.4082 11.3068 4.25727 11.4754 4.15299C11.6441 4.04871 11.8393 3.99558 12.0375 4.00001C12.235 4.00732 12.4258 4.07296 12.586 4.18865C12.7462 4.30433 12.8685 4.46487 12.9375 4.65001L20.125 23.5125L24.1 15.55C24.1861 15.3854 24.3153 15.2472 24.4738 15.1504C24.6324 15.0535 24.8142 15.0015 25 15H29C29.2652 15 29.5196 15.1054 29.7071 15.2929C29.8946 15.4804 30 15.7348 30 16C30 16.2652 29.8946 16.5196 29.7071 16.7071C29.5196 16.8947 29.2652 17 29 17H25.6125L20.9 26.45C20.8139 26.6146 20.6847 26.7528 20.5262 26.8497C20.3676 26.9465 20.1858 26.9985 20 27Z" fill="#344054"/>
</svg>
