<svg width="32" height="32" viewBox="0 0 32 32" fill="none" xmlns="http://www.w3.org/2000/svg">
<path d="M29.7125 9.71251C29.5214 9.89733 29.2659 10.0007 29 10.0007C28.7341 10.0007 28.4786 9.89733 28.2875 9.71251L26 7.41251L22.4125 11L26.7125 15.2875C26.9003 15.4771 27.0056 15.7332 27.0056 16C27.0056 16.2669 26.9003 16.5229 26.7125 16.7125C26.5214 16.8973 26.2659 17.0006 26 17.0006C25.7341 17.0006 25.4786 16.8973 25.2875 16.7125L24.5 15.9125L14 26.4125C13.6249 26.7866 13.1173 26.9977 12.5875 27H6.41251L3.71251 29.7125C3.52137 29.8973 3.26589 30.0007 3.00001 30.0007C2.73413 30.0007 2.47865 29.8973 2.28751 29.7125C2.09973 29.5229 1.99438 29.2669 1.99438 29C1.99438 28.7332 2.09973 28.4771 2.28751 28.2875L5.00001 25.5875V19.4125C5.00228 18.8827 5.21338 18.3752 5.58751 18L6.98751 16.6C7.08097 16.5084 7.20663 16.4571 7.33751 16.4571C7.46839 16.4571 7.59405 16.5084 7.68751 16.6L11.2875 20.2125C11.4787 20.3973 11.7341 20.5007 12 20.5007C12.2659 20.5007 12.5214 20.3973 12.7125 20.2125C12.9003 20.0229 13.0056 19.7669 13.0056 19.5C13.0056 19.2332 12.9003 18.9771 12.7125 18.7875L9.10001 15.1875C9.0084 15.094 8.95708 14.9684 8.95708 14.8375C8.95708 14.7066 9.0084 14.581 9.10001 14.4875L11.4875 12.1C11.581 12.0084 11.7066 11.9571 11.8375 11.9571C11.9684 11.9571 12.094 12.0084 12.1875 12.1L15.7875 15.7125C15.9787 15.8973 16.2341 16.0006 16.5 16.0006C16.7659 16.0006 17.0214 15.8973 17.2125 15.7125C17.4003 15.5229 17.5056 15.2669 17.5056 15C17.5056 14.7332 17.4003 14.4771 17.2125 14.2875L13.6 10.6875C13.5084 10.594 13.4571 10.4684 13.4571 10.3375C13.4571 10.2066 13.5084 10.081 13.6 9.98751L16.0875 7.50001L15.325 6.73751C15.1361 6.55137 15.0257 6.29998 15.0164 6.03496C15.0071 5.76995 15.0997 5.51144 15.275 5.31251C15.3675 5.216 15.4781 5.13874 15.6006 5.0852C15.7231 5.03167 15.8549 5.0029 15.9886 5.00058C16.1222 4.99826 16.255 5.02241 16.3792 5.07166C16.5035 5.12091 16.6167 5.19427 16.7125 5.28751L21 9.58751L24.5875 6.00001L22.325 3.73751C22.1361 3.55137 22.0257 3.29998 22.0164 3.03496C22.0071 2.76995 22.0997 2.51144 22.275 2.31251C22.3675 2.216 22.4781 2.13874 22.6006 2.0852C22.7231 2.03166 22.8549 2.0029 22.9886 2.00058C23.1222 1.99826 23.255 2.02241 23.3792 2.07166C23.5035 2.12091 23.6167 2.19427 23.7125 2.28751L29.7125 8.28751C29.9003 8.47711 30.0056 8.73317 30.0056 9.00001C30.0056 9.26686 29.9003 9.52292 29.7125 9.71251Z" fill="#344054"/>
</svg>
