<svg width="32" height="32" viewBox="0 0 32 32" fill="none" xmlns="http://www.w3.org/2000/svg">
<path d="M27.95 24.975L20 11.725V5H21C21.2652 5 21.5195 4.89464 21.7071 4.70711C21.8946 4.51957 22 4.26522 22 4C22 3.73478 21.8946 3.48043 21.7071 3.29289C21.5195 3.10536 21.2652 3 21 3H11C10.7347 3 10.4804 3.10536 10.2929 3.29289C10.1053 3.48043 9.99996 3.73478 9.99996 4C9.99996 4.26522 10.1053 4.51957 10.2929 4.70711C10.4804 4.89464 10.7347 5 11 5H12V11.725L6.97496 20.0875C6.97496 20.1 6.96246 20.1125 6.96246 20.125L4.04996 24.975C3.86899 25.2782 3.77152 25.6239 3.76747 25.977C3.76341 26.3301 3.85291 26.678 4.02688 26.9853C4.20084 27.2926 4.45306 27.5484 4.75791 27.7266C5.06275 27.9048 5.40935 27.9991 5.76246 28H26.2375C26.5906 27.9991 26.9372 27.9048 27.242 27.7266C27.5469 27.5484 27.7991 27.2926 27.973 26.9853C28.147 26.678 28.2365 26.3301 28.2325 25.977C28.2284 25.6239 28.1309 25.2782 27.95 24.975ZM13.7125 12.75C13.8997 12.4408 13.9991 12.0865 14 11.725V5H18V11.725C18.0008 12.0865 18.1002 12.4408 18.2875 12.75L23.1375 20.85C21.5 21.7375 19.2125 21.4875 16.45 20.1C14.6625 19.2125 12.3625 18.4125 10.1625 18.675L13.7125 12.75Z" fill="#344054"/>
</svg>
