<svg width="32" height="32" viewBox="0 0 32 32" fill="none" xmlns="http://www.w3.org/2000/svg">
<path d="M16 17.5C16.8284 17.5 17.5 16.8284 17.5 16C17.5 15.1716 16.8284 14.5 16 14.5C15.1716 14.5 14.5 15.1716 14.5 16C14.5 16.8284 15.1716 17.5 16 17.5Z" fill="#344054"/>
<path d="M23.075 16L26.5375 12.5375C27.4757 11.5993 28.0028 10.3268 28.0028 9C28.0028 7.67318 27.4757 6.40071 26.5375 5.4625C26.0729 4.99795 25.5214 4.62945 24.9145 4.37804C24.3075 4.12662 23.6569 3.99722 23 3.99722C21.6732 3.99722 20.4007 4.5243 19.4625 5.4625L16 8.925L12.5375 5.4625C11.5993 4.5243 10.3268 3.99722 8.99997 3.99722C7.67315 3.99722 6.40068 4.5243 5.46247 5.4625C4.52427 6.40071 3.99719 7.67318 3.99719 9C3.99719 10.3268 4.52427 11.5993 5.46247 12.5375L8.92497 16L5.46247 19.4625C4.52427 20.4007 3.99719 21.6732 3.99719 23C3.99719 23.657 4.12659 24.3075 4.37801 24.9145C4.62942 25.5215 4.99792 26.073 5.46247 26.5375C5.92702 27.0021 6.47853 27.3706 7.08549 27.622C7.69246 27.8734 8.343 28.0028 8.99997 28.0028C10.3268 28.0028 11.5993 27.4757 12.5375 26.5375L16 23.075L19.4625 26.5375C20.4007 27.4757 21.6732 28.0028 23 28.0028C24.3268 28.0028 25.5993 27.4757 26.5375 26.5375C27.4757 25.5993 28.0028 24.3268 28.0028 23C28.0028 21.6732 27.4757 20.4007 26.5375 19.4625L23.075 16ZM16 11.7625L20.2375 16L16 20.2375L11.7625 16L16 11.7625ZM20.875 6.875C21.4386 6.31142 22.2029 5.9948 23 5.9948C23.797 5.9948 24.5614 6.31142 25.125 6.875C25.6886 7.43859 26.0052 8.20297 26.0052 9C26.0052 9.79703 25.6886 10.5614 25.125 11.125L21.6625 14.5875L17.4125 10.3375L20.875 6.875ZM11.125 25.125C10.5614 25.6886 9.797 26.0052 8.99997 26.0052C8.20294 26.0052 7.43856 25.6886 6.87497 25.125C6.31139 24.5614 5.99477 23.797 5.99477 23C5.99477 22.203 6.31139 21.4386 6.87497 20.875L10.3375 17.4125L14.5875 21.6625L11.125 25.125Z" fill="#344054"/>
</svg>
