<svg width="32" height="32" viewBox="0 0 32 32" fill="none" xmlns="http://www.w3.org/2000/svg">
<path d="M27 8H22V7C21.9967 6.20536 21.6796 5.44421 21.1177 4.88232C20.5558 4.32042 19.7946 4.00329 19 4H13C12.2054 4.00329 11.4442 4.32042 10.8823 4.88232C10.3204 5.44421 10.0033 6.20536 10 7V8H5C4.46957 8 3.96086 8.21071 3.58579 8.58579C3.21071 8.96086 3 9.46957 3 10V26C3 26.5304 3.21071 27.0391 3.58579 27.4142C3.96086 27.7893 4.46957 28 5 28H27C27.5304 28 28.0391 27.7893 28.4142 27.4142C28.7893 27.0391 29 26.5304 29 26V10C29 9.46957 28.7893 8.96086 28.4142 8.58579C28.0391 8.21071 27.5304 8 27 8ZM12 7C12 6.73478 12.1054 6.48043 12.2929 6.29289C12.4804 6.10536 12.7348 6 13 6H19C19.2652 6 19.5196 6.10536 19.7071 6.29289C19.8946 6.48043 20 6.73478 20 7V8H12V7ZM19.5 19H17V21.5C17 21.7652 16.8946 22.0196 16.7071 22.2071C16.5196 22.3946 16.2652 22.5 16 22.5C15.7348 22.5 15.4804 22.3946 15.2929 22.2071C15.1054 22.0196 15 21.7652 15 21.5V19H12.5C12.2348 19 11.9804 18.8946 11.7929 18.7071C11.6054 18.5196 11.5 18.2652 11.5 18C11.5 17.7348 11.6054 17.4804 11.7929 17.2929C11.9804 17.1054 12.2348 17 12.5 17H15V14.5C15 14.2348 15.1054 13.9804 15.2929 13.7929C15.4804 13.6054 15.7348 13.5 16 13.5C16.2652 13.5 16.5196 13.6054 16.7071 13.7929C16.8946 13.9804 17 14.2348 17 14.5V17H19.5C19.7652 17 20.0196 17.1054 20.2071 17.2929C20.3946 17.4804 20.5 17.7348 20.5 18C20.5 18.2652 20.3946 18.5196 20.2071 18.7071C20.0196 18.8946 19.7652 19 19.5 19Z" fill="#344054"/>
</svg>
