<svg width="32" height="32" viewBox="0 0 32 32" fill="none" xmlns="http://www.w3.org/2000/svg">
<path d="M25.275 25.1C27.6629 22.673 29.0011 19.4047 29.0011 16C29.0011 12.5953 27.6629 9.32695 25.275 6.89999C25.2525 6.86482 25.2226 6.83496 25.1875 6.81249C25.165 6.77732 25.1351 6.74746 25.1 6.72499C22.673 4.33709 19.4047 2.99881 16 2.99881C12.5952 2.99881 9.32692 4.33709 6.89996 6.72499C6.86479 6.74746 6.83493 6.77732 6.81246 6.81249C6.77729 6.83496 6.74743 6.86482 6.72496 6.89999C4.33706 9.32695 2.99878 12.5953 2.99878 16C2.99878 19.4047 4.33706 22.673 6.72496 25.1L6.81246 25.1875C6.83493 25.2227 6.86479 25.2525 6.89996 25.275C9.32692 27.6629 12.5952 29.0012 16 29.0012C19.4047 29.0012 22.673 27.6629 25.1 25.275C25.1351 25.2525 25.165 25.2227 25.1875 25.1875C25.2226 25.165 25.2525 25.1352 25.275 25.1ZM12 16C12 15.2089 12.2346 14.4355 12.6741 13.7777C13.1136 13.1199 13.7383 12.6072 14.4692 12.3045C15.2001 12.0017 16.0044 11.9225 16.7803 12.0769C17.5562 12.2312 18.269 12.6122 18.8284 13.1716C19.3878 13.731 19.7688 14.4437 19.9231 15.2196C20.0774 15.9956 19.9982 16.7998 19.6955 17.5307C19.3927 18.2616 18.88 18.8863 18.2222 19.3259C17.5644 19.7654 16.7911 20 16 20C14.9401 19.9967 13.9246 19.5742 13.1752 18.8248C12.4257 18.0753 12.0033 17.0598 12 16ZM23.0375 7.54999L19.475 11.1125C18.4605 10.3895 17.2457 10.0009 16 10.0009C14.7542 10.0009 13.5394 10.3895 12.525 11.1125L8.96246 7.54999C10.9376 5.90267 13.428 5.00043 16 5.00043C18.5719 5.00043 21.0623 5.90267 23.0375 7.54999ZM8.96246 24.45L12.525 20.8875C13.5394 21.6105 14.7542 21.9991 16 21.9991C17.2457 21.9991 18.4605 21.6105 19.475 20.8875L23.0375 24.45C21.0623 26.0973 18.5719 26.9996 16 26.9996C13.428 26.9996 10.9376 26.0973 8.96246 24.45Z" fill="#344054"/>
</svg>
