<svg width="32" height="32" viewBox="0 0 32 32" fill="none" xmlns="http://www.w3.org/2000/svg">
<path d="M29.5 11.5C29.5 15.325 27.2875 19.25 22.925 23.175C20.944 24.9559 18.7871 26.5306 16.4875 27.875C16.3381 27.9571 16.1704 28.0001 16 28.0001C15.8296 28.0001 15.6619 27.9571 15.5125 27.875C15.1125 27.65 7.9625 23.5875 4.4375 17.7625C4.3908 17.6868 4.36514 17.6 4.36317 17.5111C4.36121 17.4221 4.383 17.3343 4.42631 17.2566C4.46962 17.1789 4.53287 17.1141 4.60955 17.069C4.68622 17.0239 4.77354 17.0001 4.8625 17H9C9.16619 17.0015 9.33007 16.9611 9.47647 16.8824C9.62287 16.8038 9.74705 16.6894 9.8375 16.55L11 14.8L14.1625 19.55C14.2849 19.7324 14.4632 19.87 14.6707 19.9422C14.8781 20.0143 15.1034 20.0171 15.3125 19.95C15.5306 19.8725 15.7187 19.7281 15.85 19.5375L17.5375 17H19.9625C20.222 17.0041 20.4734 16.9096 20.6659 16.7356C20.8585 16.5616 20.9779 16.3211 21 16.0625C21.0085 15.926 20.989 15.7892 20.9426 15.6606C20.8962 15.532 20.8239 15.4142 20.7302 15.3146C20.6364 15.2151 20.5233 15.1358 20.3977 15.0816C20.2721 15.0275 20.1368 14.9997 20 15H17C16.8338 14.9985 16.6699 15.0389 16.5235 15.1176C16.3771 15.1962 16.253 15.3106 16.1625 15.45L15 17.2L11.8375 12.45C11.7151 12.2676 11.5368 12.13 11.3293 12.0578C11.1219 11.9857 10.8966 11.9829 10.6875 12.05C10.4694 12.1275 10.2813 12.2719 10.15 12.4625L8.4625 15H3.475C3.36894 14.9996 3.26576 14.9654 3.18037 14.9025C3.09499 14.8396 3.03182 14.7512 3 14.65C2.67799 13.6306 2.50948 12.569 2.5 11.5C2.5 9.92588 2.99528 8.39166 3.91568 7.11467C4.83609 5.83768 6.13495 4.88266 7.62829 4.38488C9.12163 3.8871 10.7337 3.8718 12.2363 4.34115C13.7388 4.8105 15.0555 5.74071 16 7C16.9445 5.74071 18.2612 4.8105 19.7637 4.34115C21.2663 3.8718 22.8784 3.8871 24.3717 4.38488C25.865 4.88266 27.1639 5.83768 28.0843 7.11467C29.0047 8.39166 29.5 9.92588 29.5 11.5Z" fill="#344054"/>
</svg>
