<svg width="32" height="32" viewBox="0 0 32 32" fill="none" xmlns="http://www.w3.org/2000/svg">
<path d="M26.7126 5.28751C25.4614 4.04025 23.7667 3.33987 22.0001 3.33987C20.2334 3.33987 18.5387 4.04025 17.2876 5.28751L5.28755 17.2875C4.03772 18.5373 3.33557 20.2325 3.33557 22C3.33557 23.7675 4.03772 25.4627 5.28755 26.7125C6.53739 27.9623 8.23252 28.6645 10.0001 28.6645C11.7676 28.6645 13.4627 27.9623 14.7126 26.7125L26.7126 14.7125C27.9568 13.4597 28.6551 11.7657 28.6551 10C28.6551 8.23434 27.9568 6.54031 26.7126 5.28751ZM25.2876 13.2875L20.0001 18.5875L13.4126 12L18.7126 6.71251C19.1418 6.27637 19.6535 5.92999 20.2179 5.69356C20.7823 5.45712 21.3881 5.33536 22.0001 5.33536C22.612 5.33536 23.2178 5.45712 23.7822 5.69356C24.3466 5.92999 24.8583 6.27637 25.2876 6.71251C25.7207 7.14344 26.0644 7.65572 26.2989 8.21989C26.5334 8.78407 26.6542 9.38903 26.6542 10C26.6542 10.611 26.5334 11.216 26.2989 11.7801C26.0644 12.3443 25.7207 12.8566 25.2876 13.2875ZM23.7751 10.3625C23.8676 10.4561 23.9404 10.5673 23.9893 10.6895C24.0383 10.8117 24.0623 10.9424 24.0599 11.074C24.0576 11.2056 24.029 11.3354 23.9758 11.4558C23.9226 11.5762 23.8458 11.6847 23.7501 11.775L20.7001 14.725C20.6064 14.8175 20.4952 14.8904 20.3731 14.9393C20.2509 14.9882 20.1201 15.0122 19.9885 15.0099C19.8569 15.0076 19.7271 14.9789 19.6068 14.9257C19.4864 14.8725 19.3778 14.7958 19.2876 14.7C19.195 14.6064 19.1222 14.4952 19.0733 14.373C19.0244 14.2508 19.0003 14.1201 19.0027 13.9885C19.005 13.8569 19.0336 13.7271 19.0868 13.6067C19.1401 13.4863 19.2168 13.3778 19.3126 13.2875L22.3626 10.3375C22.5533 10.1538 22.8092 10.0532 23.074 10.0579C23.3388 10.0626 23.5909 10.1721 23.7751 10.3625Z" fill="#344054"/>
</svg>
