<svg width="32" height="32" viewBox="0 0 32 32" fill="none" xmlns="http://www.w3.org/2000/svg">
<path d="M23 12.1V11C22.9967 9.94015 22.5742 8.92465 21.8248 8.17521C21.0754 7.42578 20.0599 7.0033 19 7H17V4H21C21.2652 4 21.5196 4.10536 21.7071 4.29289C21.8946 4.48043 22 4.73478 22 5C22 5.26522 22.1054 5.51957 22.2929 5.70711C22.4804 5.89464 22.7348 6 23 6C23.2652 6 23.5196 5.89464 23.7071 5.70711C23.8946 5.51957 24 5.26522 24 5C23.9967 4.20536 23.6796 3.44421 23.1177 2.88231C22.5558 2.32042 21.7946 2.00329 21 2H13C12.7348 2 12.4804 2.10536 12.2929 2.29289C12.1054 2.48043 12 2.73478 12 3C12 3.26522 12.1054 3.51957 12.2929 3.70711C12.4804 3.89464 12.7348 4 13 4H15V7H13C11.9401 7.0033 10.9246 7.42578 10.1752 8.17521C9.42578 8.92465 9.0033 9.94015 9 11V12.1C7.87171 12.3327 6.85802 12.947 6.1295 13.8394C5.40098 14.7318 5.00211 15.848 5 17V27C5 27.5304 5.21071 28.0391 5.58579 28.4142C5.96086 28.7893 6.46957 29 7 29H25C25.5304 29 26.0391 28.7893 26.4142 28.4142C26.7893 28.0391 27 27.5304 27 27V17C26.9979 15.848 26.599 14.7318 25.8705 13.8394C25.142 12.947 24.1283 12.3327 23 12.1ZM13 9H19C19.5304 9 20.0391 9.21071 20.4142 9.58579C20.7893 9.96086 21 10.4696 21 11V12H11V11C11 10.4696 11.2107 9.96086 11.5858 9.58579C11.9609 9.21071 12.4696 9 13 9Z" fill="#344054"/>
</svg>
