<svg width="32" height="32" viewBox="0 0 32 32" fill="none" xmlns="http://www.w3.org/2000/svg">
<path d="M28 14.0125C28.0016 13.8801 27.977 13.7487 27.9275 13.626C27.8779 13.5032 27.8045 13.3915 27.7115 13.2973C27.6185 13.2031 27.5077 13.1283 27.3855 13.0773C27.2634 13.0263 27.1323 13 27 13H4.99996C4.86758 13 4.73651 13.0263 4.61436 13.0773C4.49222 13.1283 4.38142 13.2031 4.28839 13.2973C4.19537 13.3915 4.12197 13.5032 4.07246 13.626C4.02295 13.7487 3.9983 13.8801 3.99996 14.0125C4.00298 16.2319 4.62145 18.407 5.78661 20.296C6.95176 22.1849 8.61796 23.7138 10.6 24.7125L10.175 27.675C10.1074 28.1077 10.182 28.5507 10.3875 28.9375C10.5574 29.2577 10.8111 29.5257 11.1216 29.7128C11.432 29.9 11.7875 29.9992 12.15 30H19.8C20.2373 30.0048 20.6653 29.8738 21.025 29.625C21.3183 29.4079 21.5474 29.1155 21.6882 28.7789C21.8291 28.4422 21.8763 28.0738 21.825 27.7125L21.4 24.7125C23.382 23.7138 25.0481 22.1849 26.2133 20.296C27.3785 18.407 27.9969 16.2319 28 14.0125ZM12.15 28L12.5125 25.4875C14.7873 26.1707 17.2126 26.1707 19.4875 25.4875L19.85 28H12.15ZM7.49996 11H24.5C24.6326 11 24.7597 10.9473 24.8535 10.8536C24.9473 10.7598 25 10.6326 25 10.5V5C25 4.46957 24.7892 3.96086 24.4142 3.58579C24.0391 3.21071 23.5304 3 23 3H8.99996C8.46952 3 7.96082 3.21071 7.58574 3.58579C7.21067 3.96086 6.99996 4.46957 6.99996 5V10.5C6.99996 10.6326 7.05263 10.7598 7.1464 10.8536C7.24017 10.9473 7.36735 11 7.49996 11ZM11 6H12.9625C13.2219 5.99589 13.4733 6.09037 13.6659 6.26436C13.8584 6.43836 13.9778 6.67892 14 6.9375C14.0085 7.07398 13.989 7.21077 13.9426 7.3394C13.8961 7.46804 13.8238 7.58578 13.7301 7.68537C13.6364 7.78495 13.5232 7.86425 13.3976 7.91837C13.2721 7.97248 13.1367 8.00027 13 8H11.0375C10.778 8.00411 10.5266 7.90963 10.334 7.73564C10.1415 7.56164 10.0221 7.32108 9.99996 7.0625C9.99141 6.92602 10.0109 6.78923 10.0574 6.6606C10.1038 6.53196 10.1761 6.41422 10.2698 6.31463C10.3635 6.21505 10.4767 6.13575 10.6023 6.08163C10.7279 6.02752 10.8632 5.99973 11 6Z" fill="#344054"/>
</svg>
