<svg width="32" height="32" viewBox="0 0 32 32" fill="none" xmlns="http://www.w3.org/2000/svg">
<path d="M22.9125 23.5L25.7125 20.7125C25.872 20.5182 25.9535 20.2715 25.9411 20.0205C25.9288 19.7694 25.8235 19.5319 25.6458 19.3542C25.4681 19.1765 25.2306 19.0712 24.9795 19.0589C24.7285 19.0465 24.4818 19.128 24.2875 19.2875L21.5 22.0875L16.2875 16.875C17.8717 16.5598 19.2817 15.6661 20.2429 14.368C21.2041 13.0699 21.6475 11.4604 21.4868 9.8532C21.3261 8.246 20.5727 6.75621 19.3735 5.67415C18.1743 4.59209 16.6152 3.99527 15 4H9C8.73478 4 8.48043 4.10535 8.29289 4.29289C8.10536 4.48043 8 4.73478 8 5V24C8 24.2652 8.10536 24.5196 8.29289 24.7071C8.48043 24.8946 8.73478 25 9 25C9.26522 25 9.51957 24.8946 9.70711 24.7071C9.89464 24.5196 10 24.2652 10 24V17H13.5875L20.0875 23.5L17.2875 26.2875C17.0997 26.4771 16.9944 26.7332 16.9944 27C16.9944 27.2668 17.0997 27.5229 17.2875 27.7125C17.4786 27.8973 17.7341 28.0006 18 28.0006C18.2659 28.0006 18.5214 27.8973 18.7125 27.7125L21.5 24.9125L24.2875 27.7125C24.4786 27.8973 24.7341 28.0006 25 28.0006C25.2659 28.0006 25.5214 27.8973 25.7125 27.7125C25.9003 27.5229 26.0056 27.2668 26.0056 27C26.0056 26.7332 25.9003 26.4771 25.7125 26.2875L22.9125 23.5ZM10 6H15C16.1935 6 17.3381 6.4741 18.182 7.31802C19.0259 8.16193 19.5 9.30652 19.5 10.5C19.5 11.6935 19.0259 12.8381 18.182 13.682C17.3381 14.5259 16.1935 15 15 15H10V6Z" fill="#344054"/>
</svg>
