<svg width="32" height="32" viewBox="0 0 32 32" fill="none" xmlns="http://www.w3.org/2000/svg">
<path d="M28 8.99999H27.875C27.7735 8.73011 27.6148 8.48538 27.4098 8.28257C27.2048 8.07976 26.9584 7.92366 26.6875 7.82499L16.6875 4.18749C16.2436 4.02499 15.7564 4.02499 15.3125 4.18749L5.3125 7.82499C5.04156 7.92366 4.79516 8.07976 4.59019 8.28257C4.38523 8.48538 4.22653 8.73011 4.125 8.99999H4C2.94015 9.00329 1.92465 9.42577 1.17521 10.1752C0.425783 10.9246 0.00329661 11.9401 0 13L0 16C0.00329661 17.0598 0.425783 18.0753 1.17521 18.8248C1.92465 19.5742 2.94015 19.9967 4 20H4.65C5.475 21.8 7.0625 23.375 9.35 24.65C11.9875 26.1125 14.8 26.775 15.5875 26.9375L16 26.975L16.4125 26.9375C17.2 26.775 20.0125 26.1125 22.65 24.65C24.9375 23.375 26.525 21.8 27.35 20H28C29.0599 19.9967 30.0754 19.5742 30.8248 18.8248C31.5742 18.0753 31.9967 17.0598 32 16V13C31.9967 11.9401 31.5742 10.9246 30.8248 10.1752C30.0754 9.42577 29.0599 9.00329 28 8.99999ZM4 18C3.46957 18 2.96086 17.7893 2.58579 17.4142C2.21071 17.0391 2 16.5304 2 16V13C2 12.4696 2.21071 11.9609 2.58579 11.5858C2.96086 11.2107 3.46957 11 4 11V17C3.99965 17.3347 4.02472 17.669 4.075 18H4ZM21 19H11C10.7348 19 10.4804 18.8946 10.2929 18.7071C10.1054 18.5196 10 18.2652 10 18C10 17.7348 10.1054 17.4804 10.2929 17.2929C10.4804 17.1053 10.7348 17 11 17H21C21.2652 17 21.5196 17.1053 21.7071 17.2929C21.8946 17.4804 22 17.7348 22 18C22 18.2652 21.8946 18.5196 21.7071 18.7071C21.5196 18.8946 21.2652 19 21 19ZM21 15H11C10.7348 15 10.4804 14.8946 10.2929 14.7071C10.1054 14.5196 10 14.2652 10 14C10 13.7348 10.1054 13.4804 10.2929 13.2929C10.4804 13.1053 10.7348 13 11 13H21C21.2652 13 21.5196 13.1053 21.7071 13.2929C21.8946 13.4804 22 13.7348 22 14C22 14.2652 21.8946 14.5196 21.7071 14.7071C21.5196 14.8946 21.2652 15 21 15ZM30 16C30 16.5304 29.7893 17.0391 29.4142 17.4142C29.0391 17.7893 28.5304 18 28 18H27.925C27.9753 17.669 28.0003 17.3347 28 17V11C28.5304 11 29.0391 11.2107 29.4142 11.5858C29.7893 11.9609 30 12.4696 30 13V16Z" fill="#344054"/>
</svg>
