<svg width="32" height="32" viewBox="0 0 32 32" fill="none" xmlns="http://www.w3.org/2000/svg">
<path d="M23.5 10.5C22.8558 10.4971 22.2236 10.6746 21.675 11.0125C21.277 10.1706 20.5609 9.52126 19.6843 9.20717C18.8076 8.89307 17.8421 8.93995 17 9.3375V4.5C17 3.57174 16.6313 2.6815 15.9749 2.02513C15.3185 1.36875 14.4283 1 13.5 1C12.5718 1 11.6815 1.36875 11.0251 2.02513C10.3688 2.6815 10 3.57174 10 4.5V15.925L9.12501 14.4125C8.66585 13.6052 7.90482 13.0135 7.00934 12.7673C6.11385 12.5212 5.15726 12.6408 4.35001 13.1C3.54276 13.5592 2.95097 14.3202 2.70483 15.2157C2.45868 16.1112 2.57835 17.0677 3.03751 17.875C7.10001 26.425 9.80001 30 16 30C18.9164 29.9967 21.7123 28.8367 23.7745 26.7745C25.8367 24.7123 26.9967 21.9164 27 19V14C26.9967 13.0728 26.6269 12.1844 25.9712 11.5288C25.3156 10.8731 24.4273 10.5033 23.5 10.5ZM25 19C24.9967 21.3859 24.0474 23.6732 22.3603 25.3603C20.6732 27.0474 18.3859 27.9967 16 28C13.475 28 11.725 27.3125 10.125 25.725C8.52501 24.1375 7.03751 21.625 4.83751 16.9875L4.80001 16.9125C4.69894 16.7431 4.63351 16.5548 4.60772 16.3592C4.58192 16.1636 4.59632 15.9648 4.65001 15.775C4.69963 15.5838 4.78717 15.4045 4.90741 15.2477C5.02766 15.091 5.17817 14.96 5.35001 14.8625C5.69432 14.6637 6.10345 14.6098 6.48751 14.7125C6.67704 14.7623 6.85451 14.85 7.0092 14.9703C7.16389 15.0906 7.29258 15.2411 7.38751 15.4125L10.1375 20.1625C10.2496 20.3511 10.4199 20.4981 10.6228 20.5815C10.8257 20.6649 11.0502 20.6802 11.2625 20.625C11.475 20.5694 11.6628 20.4446 11.7964 20.2703C11.93 20.096 12.0016 19.8821 12 19.6625V4.5C12 4.10218 12.158 3.72064 12.4394 3.43934C12.7207 3.15804 13.1022 3 13.5 3C13.8978 3 14.2794 3.15804 14.5607 3.43934C14.842 3.72064 15 4.10218 15 4.5V13C15 13.2652 15.1054 13.5196 15.2929 13.7071C15.4804 13.8946 15.7348 14 16 14C16.2652 14 16.5196 13.8946 16.7071 13.7071C16.8947 13.5196 17 13.2652 17 13V12.5C17 12.1022 17.158 11.7206 17.4394 11.4393C17.7207 11.158 18.1022 11 18.5 11C18.8978 11 19.2794 11.158 19.5607 11.4393C19.842 11.7206 20 12.1022 20 12.5V14C20 14.2652 20.1054 14.5196 20.2929 14.7071C20.4804 14.8946 20.7348 15 21 15C21.2652 15 21.5196 14.8946 21.7071 14.7071C21.8947 14.5196 22 14.2652 22 14C22 13.6022 22.158 13.2206 22.4394 12.9393C22.7207 12.658 23.1022 12.5 23.5 12.5C23.8978 12.5 24.2794 12.658 24.5607 12.9393C24.842 13.2206 25 13.6022 25 14V19Z" fill="#344054"/>
</svg>
