<svg width="32" height="32" viewBox="0 0 32 32" fill="none" xmlns="http://www.w3.org/2000/svg">
<path d="M15.9999 9.49995C17.0877 9.49995 18.1511 9.82252 19.0555 10.4269C19.96 11.0312 20.6649 11.8902 21.0812 12.8952C21.4975 13.9002 21.6064 15.0061 21.3942 16.0729C21.182 17.1398 20.6582 18.1198 19.889 18.889C19.1198 19.6582 18.1398 20.1821 17.0729 20.3943C16.006 20.6065 14.9001 20.4976 13.8951 20.0813C12.8901 19.665 12.0312 18.9601 11.4268 18.0556C10.8225 17.1511 10.4999 16.0877 10.4999 15C10.4999 13.5413 11.0793 12.1423 12.1108 11.1109C13.1422 10.0794 14.5412 9.49995 15.9999 9.49995ZM21.9999 7.99995H23.9999V9.99995C23.9999 10.2652 24.1052 10.5195 24.2928 10.7071C24.4803 10.8946 24.7347 11 24.9999 11C25.2651 11 25.5195 10.8946 25.707 10.7071C25.8945 10.5195 25.9999 10.2652 25.9999 9.99995V7.99995H27.9999C28.2651 7.99995 28.5195 7.89459 28.707 7.70706C28.8945 7.51952 28.9999 7.26517 28.9999 6.99995C28.9999 6.73473 28.8945 6.48038 28.707 6.29284C28.5195 6.10531 28.2651 5.99995 27.9999 5.99995H25.9999V3.99995C25.9999 3.73473 25.8945 3.48038 25.707 3.29284C25.5195 3.10531 25.2651 2.99995 24.9999 2.99995C24.7347 2.99995 24.4803 3.10531 24.2928 3.29284C24.1052 3.48038 23.9999 3.73473 23.9999 3.99995V5.99995H21.9999C21.7347 5.99995 21.4803 6.10531 21.2928 6.29284C21.1052 6.48038 20.9999 6.73473 20.9999 6.99995C20.9999 7.26517 21.1052 7.51952 21.2928 7.70706C21.4803 7.89459 21.7347 7.99995 21.9999 7.99995ZM27.6999 13.125C27.5696 13.1432 27.4442 13.1873 27.3312 13.2547C27.2181 13.3221 27.1197 13.4114 27.0417 13.5174C26.9637 13.6234 26.9076 13.7439 26.8768 13.8718C26.846 13.9998 26.8411 14.1326 26.8624 14.2625C26.9521 14.8373 26.9981 15.4181 26.9999 16C27.0036 18.6916 26.0157 21.2904 24.2249 23.2999C23.4154 22.1388 22.3723 21.1595 21.1624 20.4249C19.7732 21.7558 17.9237 22.4988 15.9999 22.4988C14.0761 22.4988 12.2266 21.7558 10.8374 20.4249C9.62747 21.1595 8.58436 22.1388 7.77489 23.2999C6.3684 21.7146 5.44985 19.7566 5.12971 17.6616C4.80958 15.5665 5.10147 13.4236 5.97031 11.4905C6.83914 9.55741 8.24791 7.91647 10.0272 6.76502C11.8065 5.61357 13.8805 5.00065 15.9999 4.99995C16.5817 5.00177 17.1625 5.04773 17.7374 5.13745C17.9966 5.17297 18.2594 5.1055 18.4694 4.9495C18.6795 4.7935 18.82 4.56141 18.8609 4.30299C18.9018 4.04458 18.8398 3.78044 18.6881 3.56722C18.5365 3.354 18.3074 3.20869 18.0499 3.16245C17.3722 3.05196 16.6865 2.99761 15.9999 2.99995C13.3804 3.00086 10.8223 3.79308 8.66083 5.27279C6.49934 6.7525 4.83527 8.85067 3.8867 11.2924C2.93813 13.734 2.74931 16.4053 3.34498 18.9562C3.94066 21.507 5.29303 23.8184 7.22489 25.5875L7.38739 25.7374C9.76396 27.8394 12.8272 28.9996 15.9999 28.9996C19.1726 28.9996 22.2358 27.8394 24.6124 25.7374L24.7749 25.5875C26.1075 24.3714 27.1717 22.8905 27.8992 21.2396C28.6267 19.5887 29.0016 17.8041 28.9999 16C29.0022 15.3133 28.9479 14.6276 28.8374 13.95C28.8176 13.8207 28.7724 13.6967 28.7044 13.5851C28.6363 13.4735 28.5468 13.3765 28.441 13.2998C28.3352 13.2231 28.2152 13.1681 28.088 13.1381C27.9608 13.1081 27.8288 13.1036 27.6999 13.125Z" fill="#344054"/>
</svg>
