<svg width="32" height="32" viewBox="0 0 32 32" fill="none" xmlns="http://www.w3.org/2000/svg">
<path d="M23.5 4.99997C22.9813 5.00073 22.4691 5.11597 22 5.33747V4.49997C21.9958 3.66916 21.6962 2.86693 21.1547 2.23677C20.6133 1.60661 19.8653 1.1896 19.0446 1.06033C18.2239 0.931064 17.384 1.09796 16.6751 1.53118C15.9661 1.96439 15.4344 2.63568 15.175 3.42497C14.6614 3.14452 14.0852 2.99834 13.5 2.99997C12.5728 3.00326 11.6844 3.37307 11.0288 4.02874C10.3731 4.6844 10.0033 5.57273 10 6.49997V15.925L9.12501 14.4125C8.66585 13.6052 7.90482 13.0134 7.00934 12.7673C6.11385 12.5211 5.15726 12.6408 4.35001 13.1C3.54276 13.5591 2.95097 14.3202 2.70483 15.2156C2.45868 16.1111 2.57835 17.0677 3.03751 17.875C7.10001 26.425 9.80001 30 16 30C18.9164 29.9967 21.7123 28.8367 23.7745 26.7745C25.8367 24.7123 26.9967 21.9163 27 19V8.49997C26.9967 7.57273 26.6269 6.6844 25.9712 6.02874C25.3156 5.37307 24.4273 5.00326 23.5 4.99997ZM25 19C24.9967 21.3859 24.0474 23.6732 22.3603 25.3603C20.6732 27.0474 18.3859 27.9967 16 28C13.475 28 11.725 27.3125 10.125 25.725C8.52501 24.1375 7.03751 21.625 4.83751 16.9875L4.80001 16.9125C4.69894 16.743 4.63351 16.5548 4.60772 16.3592C4.58192 16.1636 4.59632 15.9648 4.65001 15.775C4.69963 15.5837 4.78717 15.4044 4.90741 15.2477C5.02766 15.0909 5.17817 14.9599 5.35001 14.8625C5.69432 14.6637 6.10345 14.6098 6.48751 14.7125C6.67704 14.7623 6.85451 14.85 7.0092 14.9703C7.16389 15.0906 7.29258 15.241 7.38751 15.4125L10.1375 20.1625C10.2496 20.351 10.4199 20.4981 10.6228 20.5815C10.8257 20.6649 11.0502 20.6802 11.2625 20.625C11.475 20.5694 11.6628 20.4446 11.7964 20.2702C11.93 20.0959 12.0016 19.8821 12 19.6625V6.49997C12 6.10215 12.158 5.72061 12.4394 5.43931C12.7207 5.15801 13.1022 4.99997 13.5 4.99997C13.8978 4.99997 14.2794 5.15801 14.5607 5.43931C14.842 5.72061 15 6.10215 15 6.49997V15C15 15.2652 15.1054 15.5195 15.2929 15.7071C15.4804 15.8946 15.7348 16 16 16C16.2652 16 16.5196 15.8946 16.7071 15.7071C16.8947 15.5195 17 15.2652 17 15V4.49997C17 4.10215 17.158 3.72061 17.4394 3.43931C17.7207 3.15801 18.1022 2.99997 18.5 2.99997C18.8978 2.99997 19.2794 3.15801 19.5607 3.43931C19.842 3.72061 20 4.10215 20 4.49997V15C20 15.2652 20.1054 15.5195 20.2929 15.7071C20.4804 15.8946 20.7348 16 21 16C21.2652 16 21.5196 15.8946 21.7071 15.7071C21.8947 15.5195 22 15.2652 22 15V8.49997C22 8.10215 22.158 7.72061 22.4394 7.43931C22.7207 7.15801 23.1022 6.99997 23.5 6.99997C23.8978 6.99997 24.2794 7.15801 24.5607 7.43931C24.842 7.72061 25 8.10215 25 8.49997V19Z" fill="#344054"/>
</svg>
