<svg width="32" height="32" viewBox="0 0 32 32" fill="none" xmlns="http://www.w3.org/2000/svg">
<path d="M15.9999 9.5C17.0877 9.5 18.1511 9.82257 19.0555 10.4269C19.96 11.0313 20.6649 11.8902 21.0812 12.8952C21.4975 13.9002 21.6064 15.0061 21.3942 16.073C21.182 17.1399 20.6582 18.1199 19.889 18.8891C19.1198 19.6583 18.1398 20.1821 17.0729 20.3943C16.006 20.6065 14.9001 20.4976 13.8951 20.0813C12.8901 19.6651 12.0312 18.9601 11.4268 18.0556C10.8225 17.1512 10.4999 16.0878 10.4999 15C10.4999 13.5413 11.0793 12.1424 12.1108 11.1109C13.1422 10.0795 14.5412 9.5 15.9999 9.5ZM28.8999 9.25C28.8114 9.40334 28.6837 9.53044 28.53 9.61828C28.3762 9.70613 28.2019 9.75159 28.0249 9.75C27.8487 9.75142 27.6756 9.70381 27.5249 9.6125L26.9499 9.275C26.6697 9.5152 26.3477 9.70166 25.9999 9.825V10.5C25.9999 10.7652 25.8945 11.0196 25.707 11.2071C25.5195 11.3946 25.2651 11.5 24.9999 11.5C24.7347 11.5 24.4803 11.3946 24.2928 11.2071C24.1052 11.0196 23.9999 10.7652 23.9999 10.5V9.825C23.6521 9.70166 23.33 9.5152 23.0499 9.275L22.4749 9.6125C22.3242 9.70381 22.1511 9.75142 21.9749 9.75C21.7559 9.74868 21.5433 9.67549 21.3699 9.54168C21.1966 9.40786 21.0719 9.22083 21.0151 9.00929C20.9583 8.79776 20.9726 8.57344 21.0556 8.37078C21.1387 8.16812 21.286 7.99833 21.4749 7.8875L22.0499 7.55C22.0141 7.36891 21.9974 7.18457 21.9999 7C21.9974 6.81543 22.0141 6.63109 22.0499 6.45L21.4749 6.1125C21.3596 6.04882 21.2583 5.96273 21.1768 5.8593C21.0953 5.75587 21.0354 5.63718 21.0004 5.51023C20.9655 5.38328 20.9563 5.25063 20.9734 5.12007C20.9904 4.98951 21.0335 4.86369 21.0999 4.75C21.2355 4.52101 21.4557 4.35459 21.713 4.28675C21.9704 4.21891 22.244 4.25511 22.4749 4.3875L23.0499 4.725C23.33 4.4848 23.6521 4.29834 23.9999 4.175V3.5C23.9999 3.23478 24.1052 2.98043 24.2928 2.79289C24.4803 2.60536 24.7347 2.5 24.9999 2.5C25.2651 2.5 25.5195 2.60536 25.707 2.79289C25.8945 2.98043 25.9999 3.23478 25.9999 3.5V4.175C26.3477 4.29834 26.6697 4.4848 26.9499 4.725L27.5249 4.3875C27.7557 4.25511 28.0294 4.21891 28.2867 4.28675C28.5441 4.35459 28.7643 4.52101 28.8999 4.75C28.9663 4.86369 29.0093 4.98951 29.0264 5.12007C29.0435 5.25063 29.0343 5.38328 28.9994 5.51023C28.9644 5.63718 28.9044 5.75587 28.823 5.8593C28.7415 5.96273 28.6401 6.04882 28.5249 6.1125L27.9499 6.45C27.9857 6.63109 28.0024 6.81543 27.9999 7C28.0024 7.18457 27.9857 7.36891 27.9499 7.55L28.5249 7.8875C28.6401 7.95118 28.7415 8.03727 28.823 8.1407C28.9044 8.24413 28.9644 8.36282 28.9994 8.48977C29.0343 8.61672 29.0435 8.74937 29.0264 8.87993C29.0093 9.01049 28.9663 9.13631 28.8999 9.25ZM24.9999 8C25.1977 8 25.391 7.94135 25.5555 7.83147C25.7199 7.72159 25.8481 7.56541 25.9238 7.38268C25.9995 7.19996 26.0193 6.99889 25.9807 6.80491C25.9421 6.61093 25.8468 6.43275 25.707 6.29289C25.5671 6.15304 25.389 6.0578 25.195 6.01921C25.001 5.98063 24.7999 6.00043 24.6172 6.07612C24.4345 6.15181 24.2783 6.27998 24.1684 6.44443C24.0585 6.60888 23.9999 6.80222 23.9999 7C23.9999 7.26522 24.1052 7.51957 24.2928 7.70711C24.4803 7.89464 24.7347 8 24.9999 8ZM27.7999 13.575C27.5387 13.6064 27.3003 13.7394 27.1365 13.9453C26.9727 14.1512 26.8967 14.4134 26.9249 14.675C26.9748 15.1149 26.9998 15.5573 26.9999 16C27.0036 18.6917 26.0157 21.2904 24.2249 23.3C23.4154 22.1388 22.3723 21.1596 21.1624 20.425C19.7732 21.7559 17.9237 22.4989 15.9999 22.4989C14.0761 22.4989 12.2266 21.7559 10.8374 20.425C9.62747 21.1596 8.58436 22.1388 7.77489 23.3C6.3684 21.7146 5.44985 19.7566 5.12971 17.6616C4.80958 15.5666 5.10147 13.4236 5.97031 11.4905C6.83914 9.55746 8.24791 7.91652 10.0272 6.76507C11.8065 5.61362 13.8805 5.0007 15.9999 5C16.3422 4.99794 16.6844 5.01463 17.0249 5.05C17.1562 5.06149 17.2885 5.047 17.4142 5.00736C17.54 4.96773 17.6566 4.90371 17.7576 4.81898C17.8586 4.73425 17.9419 4.63045 18.0028 4.51352C18.0637 4.39659 18.1009 4.26882 18.1124 4.1375C18.1239 4.00618 18.1094 3.87388 18.0698 3.74816C18.0301 3.62243 17.9661 3.50575 17.8814 3.40477C17.7966 3.30378 17.6928 3.22048 17.5759 3.15961C17.459 3.09873 17.3312 3.06149 17.1999 3.05C16.8124 3.0125 16.3999 3 15.9999 3C13.3804 3.00091 10.8223 3.79313 8.66083 5.27284C6.49934 6.75255 4.83527 8.85072 3.8867 11.2924C2.93813 13.7341 2.74931 16.4054 3.34498 18.9562C3.94066 21.5071 5.29303 23.8185 7.22489 25.5875L7.38739 25.7375C9.76396 27.8394 12.8272 28.9997 15.9999 28.9997C19.1726 28.9997 22.2358 27.8394 24.6124 25.7375L24.7749 25.5875C26.1075 24.3714 27.1717 22.8906 27.8992 21.2396C28.6267 19.5887 29.0016 17.8041 28.9999 16C29.0023 15.482 28.973 14.9644 28.9124 14.45C28.8969 14.3195 28.8558 14.1932 28.7915 14.0786C28.7272 13.9639 28.6409 13.8631 28.5376 13.7818C28.4342 13.7006 28.3159 13.6405 28.1893 13.605C28.0627 13.5695 27.9304 13.5593 27.7999 13.575Z" fill="#344054"/>
</svg>
