<svg width="32" height="32" viewBox="0 0 32 32" fill="none" xmlns="http://www.w3.org/2000/svg">
<path d="M25 10H23V8C22.9983 7.18822 22.7497 6.39616 22.2871 5.72905C21.8246 5.06194 21.17 4.55135 20.4104 4.26513C19.6507 3.9789 18.822 3.93059 18.0342 4.1266C17.2464 4.3226 16.5369 4.75366 16 5.3625C15.6264 4.93411 15.1653 4.59082 14.6478 4.35578C14.1303 4.12074 13.5684 3.99942 13 4C12.0178 4.00264 11.0706 4.36547 10.338 5.01975C9.60539 5.67403 9.13821 6.57431 9.025 7.55C8.41733 7.19328 7.72621 7.00341 7.02158 6.99961C6.31696 6.99581 5.62383 7.17821 5.01234 7.52835C4.40086 7.8785 3.89272 8.38396 3.53935 8.99358C3.18598 9.60321 2.99992 10.2954 3 11V16C3 19.4478 4.36964 22.7544 6.80761 25.1924C9.24558 27.6304 12.5522 29 16 29C19.4478 29 22.7544 27.6304 25.1924 25.1924C27.6304 22.7544 29 19.4478 29 16V14C28.9967 12.9402 28.5742 11.9246 27.8248 11.1752C27.0754 10.4258 26.0599 10.0033 25 10ZM19 6C19.5304 6 20.0391 6.21072 20.4142 6.58579C20.7893 6.96086 21 7.46957 21 8V10H17V8C17 7.46957 17.2107 6.96086 17.5858 6.58579C17.9609 6.21072 18.4696 6 19 6ZM11 8C11 7.46957 11.2107 6.96086 11.5858 6.58579C11.9609 6.21072 12.4696 6 13 6C13.5304 6 14.0391 6.21072 14.4142 6.58579C14.7893 6.96086 15 7.46957 15 8V13C15 13.5304 14.7893 14.0391 14.4142 14.4142C14.0391 14.7893 13.5304 15 13 15C12.4696 15 11.9609 14.7893 11.5858 14.4142C11.2107 14.0391 11 13.5304 11 13V8ZM5 11C5 10.4696 5.21071 9.96086 5.58579 9.58579C5.96086 9.21072 6.46957 9 7 9C7.53043 9 8.03914 9.21072 8.41421 9.58579C8.78929 9.96086 9 10.4696 9 11V13C9 13.5304 8.78929 14.0391 8.41421 14.4142C8.03914 14.7893 7.53043 15 7 15C6.46957 15 5.96086 14.7893 5.58579 14.4142C5.21071 14.0391 5 13.5304 5 13V11ZM16 27C13.1652 26.9994 10.4401 25.9045 8.39305 23.9436C6.34595 21.9826 5.13491 19.3071 5.0125 16.475C5.81309 16.9312 6.74666 17.0971 7.6554 16.9445C8.56415 16.7919 9.39234 16.3302 10 15.6375C10.6879 16.4253 11.6577 16.9113 12.7005 16.9908C13.7434 17.0703 14.7757 16.7369 15.575 16.0625C15.9358 16.6565 16.4439 17.1474 17.05 17.4875C16.4047 18.0487 15.8876 18.7421 15.5339 19.5207C15.1802 20.2993 14.9981 21.1448 15 22C15 22.2652 15.1054 22.5196 15.2929 22.7071C15.4804 22.8946 15.7348 23 16 23C16.2652 23 16.5196 22.8946 16.7071 22.7071C16.8946 22.5196 17 22.2652 17 22C17.0033 20.9401 17.4258 19.9246 18.1752 19.1752C18.9246 18.4258 19.9401 18.0033 21 18C21.2652 18 21.5196 17.8946 21.7071 17.7071C21.8946 17.5196 22 17.2652 22 17C22 16.7348 21.8946 16.4804 21.7071 16.2929C21.5196 16.1054 21.2652 16 21 16H19C18.4696 16 17.9609 15.7893 17.5858 15.4142C17.2107 15.0391 17 14.5304 17 14V12H25C25.5304 12 26.0391 12.2107 26.4142 12.5858C26.7893 12.9609 27 13.4696 27 14V16C26.9967 18.9164 25.8367 21.7123 23.7745 23.7745C21.7123 25.8367 18.9164 26.9967 16 27Z" fill="#344054"/>
</svg>
