<svg width="32" height="32" viewBox="0 0 32 32" fill="none" xmlns="http://www.w3.org/2000/svg">
<path d="M30.9375 23.1875C30.8965 23.0627 30.8313 22.9473 30.7456 22.8477C30.66 22.7482 30.5555 22.6665 30.4383 22.6073C30.321 22.5481 30.1933 22.5125 30.0623 22.5027C29.9314 22.4929 29.7997 22.509 29.675 22.55L27.4875 23.275L23.875 16.05C23.7932 15.8846 23.6667 15.7453 23.5099 15.6481C23.353 15.5509 23.172 15.4996 22.9875 15.5H12.9875V13H19.9875C20.2527 13 20.5071 12.8947 20.6946 12.7071C20.8821 12.5196 20.9875 12.2652 20.9875 12C20.9875 11.7348 20.8821 11.4804 20.6946 11.2929C20.5071 11.1054 20.2527 11 19.9875 11H12.9875V7.82501C13.6547 7.58911 14.217 7.12494 14.5751 6.51453C14.9332 5.90412 15.064 5.18677 14.9443 4.48928C14.8246 3.79178 14.4622 3.15905 13.9212 2.7029C13.3801 2.24676 12.6952 1.99658 11.9875 1.99658C11.2798 1.99658 10.5949 2.24676 10.0538 2.7029C9.51276 3.15905 9.15037 3.79178 9.03069 4.48928C8.91102 5.18677 9.04178 5.90412 9.39986 6.51453C9.75794 7.12494 10.3203 7.58911 10.9875 7.82501V11.225C9.35823 11.5949 7.86408 12.411 6.67234 13.5819C5.4806 14.7528 4.63831 16.2324 4.23978 17.8548C3.84125 19.4773 3.90221 21.1787 4.41584 22.7685C4.92947 24.3584 5.87549 25.7738 7.14797 26.8564C8.42046 27.9391 9.96918 28.6461 11.6207 28.8984C13.2723 29.1508 14.9615 28.9384 16.4992 28.2851C18.0369 27.6318 19.3624 26.5634 20.3273 25.1995C21.2922 23.8356 21.8584 22.23 21.9625 20.5625C21.984 20.4251 21.9767 20.2846 21.9408 20.1502C21.905 20.0158 21.8415 19.8903 21.7545 19.7818C21.6674 19.6733 21.5586 19.5842 21.4351 19.5201C21.3117 19.456 21.1762 19.4184 21.0373 19.4097C20.8985 19.4009 20.7593 19.4213 20.6288 19.4694C20.4983 19.5175 20.3792 19.5923 20.2792 19.689C20.1792 19.7858 20.1005 19.9023 20.0481 20.0312C19.9958 20.1601 19.9708 20.2985 19.975 20.4375C19.8942 21.7143 19.465 22.9445 18.734 23.9945C18.0031 25.0445 16.9984 25.8741 15.8291 26.3932C14.6598 26.9123 13.3706 27.101 12.1015 26.9388C10.8325 26.7766 9.63217 26.2697 8.63099 25.4732C7.62981 24.6767 6.86606 23.6211 6.42272 22.421C5.97937 21.2209 5.8734 19.9223 6.1163 18.6662C6.35921 17.4101 6.9417 16.2446 7.8005 15.2964C8.65929 14.3481 9.76155 13.6533 10.9875 13.2875V16.5C10.9875 16.7652 11.0928 17.0196 11.2804 17.2071C11.4679 17.3947 11.7223 17.5 11.9875 17.5H22.3625L26.0875 24.95C26.1714 25.1164 26.3001 25.2561 26.4591 25.3533C26.6181 25.4505 26.8011 25.5013 26.9875 25.5C27.0938 25.5017 27.1995 25.4848 27.3 25.45L30.3 24.45C30.4248 24.409 30.5402 24.3438 30.6398 24.2581C30.7393 24.1725 30.821 24.068 30.8802 23.9508C30.9394 23.8336 30.975 23.7058 30.9848 23.5749C30.9946 23.4439 30.9785 23.3123 30.9375 23.1875Z" fill="#344054"/>
</svg>
