<svg width="32" height="32" viewBox="0 0 32 32" fill="none" xmlns="http://www.w3.org/2000/svg">
<path d="M15.9999 9.49995C17.0877 9.49995 18.1511 9.82252 19.0555 10.4269C19.96 11.0312 20.6649 11.8902 21.0812 12.8952C21.4975 13.9002 21.6064 15.0061 21.3942 16.0729C21.182 17.1398 20.6582 18.1198 19.889 18.889C19.1198 19.6582 18.1398 20.1821 17.0729 20.3943C16.006 20.6065 14.9001 20.4976 13.8951 20.0813C12.8901 19.665 12.0312 18.9601 11.4268 18.0556C10.8225 17.1511 10.4999 16.0877 10.4999 15C10.4999 13.5413 11.0793 12.1423 12.1108 11.1109C13.1422 10.0794 14.5412 9.49995 15.9999 9.49995ZM21.9999 7.99995H27.9999C28.2651 7.99995 28.5195 7.89459 28.707 7.70706C28.8945 7.51952 28.9999 7.26517 28.9999 6.99995C28.9999 6.73473 28.8945 6.48038 28.707 6.29284C28.5195 6.10531 28.2651 5.99995 27.9999 5.99995H21.9999C21.7347 5.99995 21.4803 6.10531 21.2928 6.29284C21.1052 6.48038 20.9999 6.73473 20.9999 6.99995C20.9999 7.26517 21.1052 7.51952 21.2928 7.70706C21.4803 7.89459 21.7347 7.99995 21.9999 7.99995ZM26.9874 11.0625C26.8624 11.1045 26.7472 11.1711 26.6484 11.2584C26.5496 11.3457 26.4693 11.4519 26.4122 11.5708C26.3551 11.6896 26.3224 11.8187 26.316 11.9503C26.3096 12.082 26.3296 12.2136 26.3749 12.3375C27.0281 14.1902 27.1732 16.1841 26.7951 18.1119C26.417 20.0398 25.5295 21.8312 24.2249 23.2999C23.4154 22.1388 22.3723 21.1595 21.1624 20.4249C19.7732 21.7558 17.9237 22.4988 15.9999 22.4988C14.0761 22.4988 12.2266 21.7558 10.8374 20.4249C9.62747 21.1595 8.58436 22.1388 7.77489 23.2999C6.3684 21.7146 5.44985 19.7566 5.12971 17.6616C4.80958 15.5665 5.10147 13.4236 5.97031 11.4905C6.83914 9.55741 8.24791 7.91647 10.0272 6.76502C11.8065 5.61357 13.8805 5.00065 15.9999 4.99995C16.5817 5.00177 17.1625 5.04773 17.7374 5.13745C17.9966 5.17297 18.2594 5.1055 18.4694 4.9495C18.6795 4.7935 18.82 4.56141 18.8609 4.30299C18.9018 4.04458 18.8398 3.78044 18.6881 3.56722C18.5365 3.354 18.3074 3.20869 18.0499 3.16245C17.3722 3.05196 16.6865 2.99761 15.9999 2.99995C13.3804 3.00086 10.8223 3.79308 8.66083 5.27279C6.49934 6.7525 4.83527 8.85067 3.8867 11.2924C2.93813 13.734 2.74931 16.4053 3.34498 18.9562C3.94066 21.507 5.29303 23.8184 7.22489 25.5875L7.38739 25.7374C9.76396 27.8394 12.8272 28.9996 15.9999 28.9996C19.1726 28.9996 22.2358 27.8394 24.6124 25.7374L24.7749 25.5875C26.6565 23.8633 27.9901 21.6244 28.6101 19.1488C29.2301 16.6731 29.1092 14.0699 28.2624 11.6625C28.1721 11.4144 27.9874 11.2121 27.7485 11.0997C27.5097 10.9873 27.2361 10.9739 26.9874 11.0625Z" fill="#344054"/>
</svg>
