<svg width="32" height="32" viewBox="0 0 32 32" fill="none" xmlns="http://www.w3.org/2000/svg">
<path d="M14.975 26.85C14.9197 27.067 14.794 27.2596 14.6175 27.3976C14.4411 27.5356 14.2239 27.6112 14 27.6125C13.9193 27.6122 13.8392 27.5996 13.7625 27.575L9.98746 26.6375C9.68126 26.5602 9.39825 26.4101 9.16246 26.2L6.34996 23.75C6.25146 23.6647 6.17075 23.5607 6.11242 23.4442C6.05409 23.3276 6.01929 23.2007 6.01001 23.0707C6.00072 22.9407 6.01713 22.8102 6.0583 22.6865C6.09947 22.5628 6.1646 22.4485 6.24996 22.35C6.33532 22.2515 6.43924 22.1708 6.55579 22.1125C6.67234 22.0541 6.79924 22.0193 6.92925 22.0101C7.05925 22.0008 7.18981 22.0172 7.31347 22.0584C7.43712 22.0995 7.55147 22.1647 7.64996 22.25L10.475 24.7L14.2375 25.6375C14.4948 25.7026 14.7163 25.8662 14.8542 26.0929C14.9921 26.3197 15.0355 26.5916 14.975 26.85ZM31.55 14.95C31.4678 15.2018 31.3358 15.4344 31.1618 15.6341C30.9879 15.8338 30.7755 15.9965 30.5375 16.1125L27.625 17.575L25.7625 19.7625H25.7375C25.7375 19.775 25.725 19.775 25.725 19.7875H25.7125L21.1125 24.3875C20.7312 24.7601 20.2205 24.9707 19.6875 24.975C19.5272 24.9735 19.3677 24.9525 19.2125 24.9125L11.9625 23.125C11.6887 23.0611 11.4326 22.9373 11.2125 22.7625L4.46246 17.4875L1.46246 15.9875C0.983246 15.7446 0.619348 15.3223 0.449956 14.8125C0.369875 14.5599 0.340791 14.2939 0.364396 14.03C0.388 13.766 0.463822 13.5094 0.587456 13.275L3.66246 7.38751C3.90546 6.9242 4.31934 6.57373 4.81636 6.41039C5.31339 6.24705 5.85448 6.28368 6.32496 6.51251L9.12496 7.91251L15.2125 6.13751C15.6688 6.01316 16.1539 6.04845 16.5875 6.23751L20.7125 8.11251H22.7625L25.675 6.65001C26.1434 6.41696 26.6845 6.37674 27.1822 6.53797C27.6799 6.69921 28.0947 7.04906 28.3375 7.51251L31.4125 13.4C31.5365 13.6365 31.6124 13.8953 31.636 14.1613C31.6596 14.4273 31.6304 14.6953 31.55 14.95ZM23.4625 19.225L19.5125 16.35L18.5 17.1125C17.6329 17.7578 16.5808 18.1063 15.5 18.1063C14.4191 18.1063 13.3671 17.7578 12.5 17.1125L11.825 16.6C11.5944 16.4292 11.4035 16.2105 11.2654 15.959C11.1274 15.7074 11.0454 15.4289 11.0252 15.1427C11.0051 14.8564 11.0471 14.5692 11.1485 14.3008C11.2498 14.0323 11.4081 13.789 11.6125 13.5875L16.5 8.68751L16.725 8.50001L15.7625 8.06251L9.67496 9.83751L6.27496 16.3625L12.45 21.1875L19.6875 23L23.4625 19.225ZM25.8 16.6375L22.4 10.1125H17.9125L13.025 15L13.7 15.5125C14.2216 15.8963 14.8523 16.1033 15.5 16.1033C16.1476 16.1033 16.7783 15.8963 17.3 15.5125L18.9 14.3125C19.0706 14.1838 19.2779 14.1131 19.4916 14.1109C19.7054 14.1086 19.9142 14.1749 20.0875 14.3L24.8375 17.75L25.8 16.6375Z" fill="#344054"/>
</svg>
