<svg width="32" height="32" viewBox="0 0 32 32" fill="none" xmlns="http://www.w3.org/2000/svg">
<path d="M16 3C12.5522 3 9.24558 4.36964 6.80761 6.80761C4.36964 9.24558 3 12.5522 3 16C3 19.4478 4.36964 22.7544 6.80761 25.1924C9.24558 27.6304 12.5522 29 16 29C17.2968 29.0036 18.5866 28.8097 19.825 28.425C19.984 28.3839 20.1275 28.297 20.2375 28.175L28.175 20.2375C28.2943 20.1253 28.3808 19.9827 28.425 19.825C28.8097 18.5866 29.0036 17.2968 29 16C28.9934 12.5542 27.6216 9.25145 25.1851 6.81491C22.7485 4.37837 19.4458 3.00661 16 3ZM20.5 12C20.7967 12 21.0867 12.088 21.3334 12.2528C21.58 12.4176 21.7723 12.6519 21.8858 12.926C21.9993 13.2001 22.0291 13.5017 21.9712 13.7926C21.9133 14.0836 21.7704 14.3509 21.5607 14.5607C21.3509 14.7704 21.0836 14.9133 20.7926 14.9712C20.5017 15.0291 20.2001 14.9994 19.926 14.8858C19.6519 14.7723 19.4176 14.58 19.2528 14.3334C19.088 14.0867 19 13.7967 19 13.5C19 13.1022 19.158 12.7206 19.4393 12.4393C19.7206 12.158 20.1022 12 20.5 12ZM11.5 12C11.7967 12 12.0867 12.088 12.3334 12.2528C12.58 12.4176 12.7723 12.6519 12.8858 12.926C12.9994 13.2001 13.0291 13.5017 12.9712 13.7926C12.9133 14.0836 12.7704 14.3509 12.5607 14.5607C12.3509 14.7704 12.0836 14.9133 11.7926 14.9712C11.5017 15.0291 11.2001 14.9994 10.926 14.8858C10.6519 14.7723 10.4176 14.58 10.2528 14.3334C10.088 14.0867 10 13.7967 10 13.5C10 13.1022 10.158 12.7206 10.4393 12.4393C10.7206 12.158 11.1022 12 11.5 12ZM22.0625 19.5C21.4482 20.5643 20.5645 21.4481 19.5003 22.0626C18.4361 22.6771 17.2289 23.0006 16 23.0006C14.7711 23.0006 13.5639 22.6771 12.4997 22.0626C11.4355 21.4481 10.5518 20.5643 9.9375 19.5C9.85924 19.3865 9.8053 19.258 9.77909 19.1226C9.75287 18.9872 9.75494 18.8478 9.78516 18.7133C9.81538 18.5788 9.87311 18.4519 9.95471 18.3407C10.0363 18.2296 10.14 18.1365 10.2593 18.0673C10.3786 17.9982 10.5109 17.9544 10.648 17.9389C10.785 17.9233 10.9237 17.9362 11.0555 17.9769C11.1873 18.0175 11.3092 18.0849 11.4137 18.175C11.5182 18.265 11.6029 18.3757 11.6625 18.5C12.1029 19.2604 12.7355 19.8916 13.4967 20.3305C14.258 20.7693 15.1213 21.0003 16 21.0003C16.8787 21.0003 17.742 20.7693 18.5033 20.3305C19.2645 19.8916 19.8971 19.2604 20.3375 18.5C20.4804 18.2928 20.6961 18.147 20.9417 18.0918C21.1873 18.0367 21.4446 18.0762 21.6624 18.2024C21.8801 18.3286 22.0423 18.5323 22.1165 18.7729C22.1906 19.0134 22.1714 19.2731 22.0625 19.5Z" fill="#344054"/>
</svg>
