<svg width="32" height="32" viewBox="0 0 32 32" fill="none" xmlns="http://www.w3.org/2000/svg">
<path d="M3.2 14.4C4.08498 13.212 5.26589 12.2768 6.625 11.6875C5.8814 11.0072 5.36074 10.1181 5.1313 9.13672C4.90185 8.15535 4.97433 7.12754 5.33924 6.18809C5.70414 5.24863 6.34443 4.44138 7.17614 3.87218C8.00785 3.30298 8.99216 2.99841 10 2.99841C11.0078 2.99841 11.9921 3.30298 12.8239 3.87218C13.6556 4.44138 14.2959 5.24863 14.6608 6.18809C15.0257 7.12754 15.0981 8.15535 14.8687 9.13672C14.6393 10.1181 14.1186 11.0072 13.375 11.6875C14.3544 12.1134 15.2449 12.7198 16 13.475C16.7551 12.7198 17.6456 12.1134 18.625 11.6875C17.8814 11.0072 17.3607 10.1181 17.1313 9.13672C16.9019 8.15535 16.9743 7.12754 17.3392 6.18809C17.7041 5.24863 18.3444 4.44138 19.1761 3.87218C20.0079 3.30298 20.9922 2.99841 22 2.99841C23.0078 2.99841 23.9921 3.30298 24.8239 3.87218C25.6556 4.44138 26.2959 5.24863 26.6608 6.18809C27.0257 7.12754 27.0981 8.15535 26.8687 9.13672C26.6393 10.1181 26.1186 11.0072 25.375 11.6875C26.7341 12.2768 27.915 13.212 28.8 14.4C28.8788 14.5051 28.9361 14.6246 28.9687 14.7518C29.0013 14.879 29.0085 15.0114 28.99 15.1414C28.9714 15.2714 28.9274 15.3965 28.8605 15.5095C28.7936 15.6225 28.7051 15.7212 28.6 15.8C28.3867 15.9559 28.1209 16.0223 27.8593 15.9849C27.5977 15.9476 27.3611 15.8094 27.2 15.6C26.5945 14.7927 25.8095 14.1375 24.9069 13.6862C24.0043 13.2349 23.0091 13 22 13C20.9909 13 19.9957 13.2349 19.0931 13.6862C18.1906 14.1375 17.4055 14.7927 16.8 15.6L16.725 15.675H16.7125L16.65 15.7375L16.6125 15.7625C16.6125 15.7658 16.6112 15.769 16.6088 15.7713C16.6065 15.7737 16.6033 15.775 16.6 15.775L16.5625 15.8L16.525 15.825L16.4625 15.8625H16.4375L16.225 15.9375H15.8125L15.7125 15.9125H15.675L15.5625 15.8625L15.525 15.8375C15.4847 15.8169 15.447 15.7917 15.4125 15.7625H15.4L15.3625 15.725H15.3375C15.3125 15.7 15.2875 15.6875 15.275 15.6625H15.2625L15.1875 15.575C14.5808 14.7708 13.7956 14.1187 12.8937 13.67C11.9918 13.2213 10.998 12.9884 9.99063 12.9896C8.9833 12.9908 7.99003 13.2261 7.08922 13.677C6.18841 14.1278 5.40472 14.7819 4.8 15.5875C4.70817 15.714 4.58797 15.8172 4.44903 15.8888C4.3101 15.9605 4.15631 15.9986 4 16C3.78318 16.0028 3.57176 15.9324 3.4 15.8C3.29494 15.7212 3.20643 15.6225 3.13953 15.5095C3.07262 15.3965 3.02862 15.2714 3.01005 15.1414C2.99148 15.0114 2.9987 14.879 3.03129 14.7518C3.06388 14.6246 3.12121 14.5051 3.2 14.4ZM25.375 24.6875C26.1186 24.0072 26.6393 23.1181 26.8687 22.1367C27.0981 21.1553 27.0257 20.1275 26.6608 19.1881C26.2959 18.2486 25.6556 17.4414 24.8239 16.8722C23.9921 16.303 23.0078 15.9984 22 15.9984C20.9922 15.9984 20.0079 16.303 19.1761 16.8722C18.3444 17.4414 17.7041 18.2486 17.3392 19.1881C16.9743 20.1275 16.9019 21.1553 17.1313 22.1367C17.3607 23.1181 17.8814 24.0072 18.625 24.6875C17.6456 25.1134 16.7551 25.7198 16 26.475C15.2449 25.7198 14.3544 25.1134 13.375 24.6875C14.1186 24.0072 14.6393 23.1181 14.8687 22.1367C15.0981 21.1553 15.0257 20.1275 14.6608 19.1881C14.2959 18.2486 13.6556 17.4414 12.8239 16.8722C11.9921 16.303 11.0078 15.9984 10 15.9984C8.99216 15.9984 8.00785 16.303 7.17614 16.8722C6.34443 17.4414 5.70414 18.2486 5.33924 19.1881C4.97433 20.1275 4.90185 21.1553 5.1313 22.1367C5.36074 23.1181 5.8814 24.0072 6.625 24.6875C5.26589 25.2768 4.08498 26.212 3.2 27.4C3.08857 27.5486 3.02072 27.7252 3.00404 27.9102C2.98736 28.0952 3.02252 28.2811 3.10557 28.4472C3.18863 28.6133 3.31629 28.753 3.47427 28.8507C3.63225 28.9483 3.81429 29 4 29H28C28.1857 29 28.3678 28.9483 28.5257 28.8507C28.6837 28.753 28.8114 28.6133 28.8944 28.4472C28.9775 28.2811 29.0126 28.0952 28.996 27.9102C28.9793 27.7252 28.9114 27.5486 28.8 27.4C27.915 26.212 26.7341 25.2768 25.375 24.6875Z" fill="#344054"/>
</svg>
