<svg width="32" height="32" viewBox="0 0 32 32" fill="none" xmlns="http://www.w3.org/2000/svg">
<path d="M16 3C13.4288 3 10.9154 3.76244 8.77759 5.1909C6.63975 6.61935 4.97351 8.64968 3.98957 11.0251C3.00563 13.4006 2.74819 16.0144 3.2498 18.5362C3.75141 21.0579 4.98953 23.3743 6.80762 25.1924C8.6257 27.0105 10.9421 28.2486 13.4638 28.7502C15.9856 29.2518 18.5995 28.9944 20.9749 28.0104C23.3503 27.0265 25.3807 25.3603 26.8091 23.2224C28.2376 21.0846 29 18.5712 29 16C28.9934 12.5542 27.6216 9.25145 25.1851 6.81491C22.7486 4.37837 19.4458 3.00661 16 3ZM20.5 12C20.7967 12 21.0867 12.088 21.3334 12.2528C21.58 12.4176 21.7723 12.6519 21.8858 12.926C21.9994 13.2001 22.0291 13.5017 21.9712 13.7926C21.9133 14.0836 21.7704 14.3509 21.5607 14.5607C21.3509 14.7704 21.0836 14.9133 20.7926 14.9712C20.5017 15.0291 20.2001 14.9994 19.926 14.8858C19.6519 14.7723 19.4176 14.58 19.2528 14.3334C19.088 14.0867 19 13.7967 19 13.5C19 13.1022 19.158 12.7206 19.4393 12.4393C19.7207 12.158 20.1022 12 20.5 12ZM11.5 12C11.7967 12 12.0867 12.088 12.3334 12.2528C12.58 12.4176 12.7723 12.6519 12.8858 12.926C12.9994 13.2001 13.0291 13.5017 12.9712 13.7926C12.9133 14.0836 12.7704 14.3509 12.5607 14.5607C12.3509 14.7704 12.0836 14.9133 11.7926 14.9712C11.5017 15.0291 11.2001 14.9994 10.926 14.8858C10.6519 14.7723 10.4176 14.58 10.2528 14.3334C10.088 14.0867 10 13.7967 10 13.5C10 13.1022 10.158 12.7206 10.4393 12.4393C10.7206 12.158 11.1022 12 11.5 12ZM22.625 22.275C22.4489 22.4199 22.2281 22.4994 22 22.5C21.8507 22.501 21.7032 22.4677 21.5689 22.4027C21.4345 22.3377 21.3169 22.2427 21.225 22.125L20 20.6L18.775 22.125C18.6826 22.2421 18.5648 22.3367 18.4306 22.4017C18.2964 22.4667 18.1492 22.5005 18 22.5005C17.8509 22.5005 17.7036 22.4667 17.5694 22.4017C17.4352 22.3367 17.3174 22.2421 17.225 22.125L16 20.6L14.775 22.125C14.6826 22.2421 14.5648 22.3367 14.4306 22.4017C14.2964 22.4667 14.1492 22.5005 14 22.5005C13.8509 22.5005 13.7036 22.4667 13.5694 22.4017C13.4352 22.3367 13.3174 22.2421 13.225 22.125L12 20.6L10.775 22.125C10.6012 22.3034 10.3672 22.4105 10.1186 22.4254C9.87001 22.4403 9.62482 22.3619 9.43097 22.2056C9.23713 22.0493 9.10859 21.8263 9.0705 21.5802C9.0324 21.3341 9.0875 21.0826 9.22501 20.875L11.225 18.375C11.3174 18.2579 11.4352 18.1633 11.5694 18.0983C11.7036 18.0333 11.8509 17.9995 12 17.9995C12.1492 17.9995 12.2964 18.0333 12.4306 18.0983C12.5648 18.1633 12.6826 18.2579 12.775 18.375L14 19.9L15.225 18.375C15.3174 18.2579 15.4352 18.1633 15.5694 18.0983C15.7036 18.0333 15.8509 17.9995 16 17.9995C16.1492 17.9995 16.2964 18.0333 16.4306 18.0983C16.5648 18.1633 16.6826 18.2579 16.775 18.375L18 19.9L19.225 18.375C19.3174 18.2579 19.4352 18.1633 19.5694 18.0983C19.7036 18.0333 19.8509 17.9995 20 17.9995C20.1492 17.9995 20.2964 18.0333 20.4306 18.0983C20.5648 18.1633 20.6826 18.2579 20.775 18.375L22.775 20.875C22.8581 20.9763 22.9202 21.0932 22.9577 21.2188C22.9952 21.3443 23.0073 21.4761 22.9933 21.6064C22.9794 21.7367 22.9396 21.863 22.8764 21.9777C22.8131 22.0925 22.7277 22.1936 22.625 22.275Z" fill="#344054"/>
</svg>
