<svg width="32" height="32" viewBox="0 0 32 32" fill="none" xmlns="http://www.w3.org/2000/svg">
<path d="M25.6874 12.5125L23.5624 8.83749C23.3835 8.52389 23.1444 8.24877 22.8587 8.02797C22.5731 7.80716 22.2466 7.64504 21.8981 7.55093C21.5495 7.45682 21.1858 7.43259 20.8279 7.47963C20.4699 7.52666 20.1248 7.64404 19.8124 7.82499C19.2553 8.14173 18.8297 8.64711 18.6124 9.24999L16.4124 5.46249C16.2335 5.14889 15.9944 4.87377 15.7087 4.65297C15.4231 4.43216 15.0966 4.27004 14.7481 4.17593C14.3995 4.08182 14.0358 4.05759 13.6779 4.10463C13.3199 4.15166 12.9748 4.26904 12.6624 4.44999C12.1053 4.76673 11.6797 5.27211 11.4624 5.87499C11.0808 5.27687 10.4838 4.84848 9.79492 4.6786C9.10609 4.50872 8.37831 4.61038 7.76239 4.96249C7.44985 5.14374 7.17628 5.38506 6.95745 5.67254C6.73862 5.96002 6.57886 6.28797 6.48739 6.63749C6.37776 7.02818 6.36064 7.43904 6.43739 7.83749C5.94916 7.87487 5.47529 8.02002 5.04989 8.26249C4.30348 8.69621 3.75939 9.40808 3.53681 10.2422C3.31423 11.0763 3.43131 11.9646 3.86239 12.7125L4.11239 13.1375C3.6835 13.1873 3.27014 13.3279 2.89989 13.55C2.15433 13.9813 1.61049 14.6909 1.38782 15.523C1.16516 16.355 1.2819 17.2415 1.71239 17.9875L6.33739 26C7.32567 27.7146 8.80049 29.0974 10.5751 29.9734C12.3498 30.8493 14.3444 31.179 16.3065 30.9207C18.2686 30.6624 20.11 29.8277 21.5974 28.5223C23.0849 27.2169 24.1516 25.4995 24.6624 23.5875L24.6999 23.425C25.9629 21.9264 26.735 20.076 26.9116 18.1242C27.0882 16.1724 26.6609 14.2134 25.6874 12.5125ZM22.7249 23.075C22.4568 24.0901 21.9894 25.0417 21.3499 25.8744C20.7104 26.7071 19.9115 27.4041 18.9999 27.925C17.1631 28.9851 14.9805 29.2725 12.9319 28.724C10.8833 28.1755 9.13628 26.8361 8.07489 25L3.44989 16.9875C3.32542 16.7738 3.26714 16.528 3.28242 16.2811C3.29771 16.0343 3.38586 15.7975 3.53574 15.6008C3.68562 15.4041 3.89049 15.2563 4.12441 15.176C4.35834 15.0958 4.61081 15.0867 4.84989 15.15C5.17046 15.2399 5.44374 15.4504 5.61239 15.7375L8.61239 20.9375C8.70172 21.0873 8.82782 21.2119 8.97875 21.2994C9.12969 21.3869 9.30046 21.4344 9.47489 21.4375C9.65013 21.4369 9.82213 21.3902 9.97365 21.3022C10.1252 21.2142 10.2509 21.0879 10.3383 20.936C10.4256 20.7841 10.4715 20.6119 10.4714 20.4366C10.4712 20.2614 10.425 20.0893 10.3374 19.9375L5.58739 11.7125C5.42163 11.4241 5.37723 11.0816 5.46397 10.7605C5.5507 10.4393 5.76147 10.1658 6.04989 9.99999C6.33831 9.83423 6.68077 9.78984 7.00193 9.87657C7.32308 9.96331 7.59663 10.1741 7.76239 10.4625L12.5124 18.6875C12.572 18.8118 12.6567 18.9225 12.7612 19.0125C12.8657 19.1025 12.9876 19.17 13.1194 19.2106C13.2512 19.2513 13.3899 19.2642 13.5269 19.2486C13.6639 19.2331 13.7963 19.1893 13.9156 19.1202C14.0349 19.051 14.1386 18.9579 14.2202 18.8468C14.3018 18.7356 14.3595 18.6087 14.3897 18.4742C14.42 18.3396 14.422 18.2003 14.3958 18.0649C14.3696 17.9295 14.3157 17.801 14.2374 17.6875L10.4874 11.1875C10.3238 10.8986 10.2806 10.5569 10.3672 10.2363C10.4538 9.91581 10.6631 9.64229 10.9499 9.47499C11.2369 9.31203 11.5767 9.26919 11.8952 9.35584C12.2137 9.44249 12.485 9.65158 12.6499 9.93749L17.8999 19.0375C17.9903 19.1891 18.1184 19.3149 18.2717 19.4025C18.425 19.4901 18.5983 19.5366 18.7749 19.5375C18.9503 19.5331 19.1219 19.4859 19.2749 19.4C19.503 19.2668 19.6692 19.0488 19.7371 18.7935C19.805 18.5382 19.7692 18.2664 19.6374 18.0375L17.6374 14.5625C17.4732 14.2789 17.4283 13.9417 17.5124 13.625C17.5524 13.4642 17.6252 13.3135 17.7263 13.1823C17.8274 13.051 17.9546 12.9422 18.0999 12.8625C18.239 12.7778 18.3941 12.723 18.5555 12.7015C18.7169 12.68 18.881 12.6922 19.0374 12.7375C19.1965 12.7774 19.346 12.8489 19.477 12.9476C19.608 13.0464 19.7178 13.1705 19.7999 13.3125L21.9249 17C22.4541 17.9091 22.7974 18.9143 22.9347 19.9572C23.0721 21.0001 23.0007 22.0599 22.7249 23.075ZM20.6249 3.08749L21.1374 1.14999C21.171 1.02277 21.2294 0.903431 21.3092 0.798774C21.389 0.694118 21.4886 0.606199 21.6023 0.540037C21.7161 0.473875 21.8417 0.430767 21.9722 0.413172C22.1026 0.395578 22.2352 0.403842 22.3624 0.437493C22.4896 0.471144 22.609 0.529523 22.7136 0.609297C22.8183 0.689071 22.9062 0.788678 22.9723 0.902429C23.0385 1.01618 23.0816 1.14185 23.0992 1.27226C23.1168 1.40267 23.1085 1.53527 23.0749 1.66249L22.5499 3.59999C22.4943 3.81244 22.3695 4.0003 22.1952 4.13387C22.0208 4.26743 21.807 4.33909 21.5874 4.33749L21.3249 4.31249C21.07 4.24233 20.8532 4.07405 20.722 3.84449C20.5908 3.61492 20.5559 3.34274 20.6249 3.08749ZM23.9124 4.23749L25.0624 2.59999C25.2161 2.38268 25.4491 2.23461 25.7111 2.18782C25.9731 2.14103 26.243 2.19929 26.4624 2.34999C26.5703 2.42597 26.6622 2.52257 26.7326 2.63422C26.8031 2.74587 26.8507 2.87037 26.8728 3.00052C26.8949 3.13067 26.8909 3.26391 26.8613 3.39254C26.8316 3.52118 26.7768 3.64266 26.6999 3.74999L25.5499 5.38749C25.4751 5.49504 25.3796 5.58662 25.269 5.6569C25.1585 5.72718 25.035 5.77476 24.9059 5.79686C24.7768 5.81897 24.6445 5.81516 24.5169 5.78565C24.3892 5.75614 24.2687 5.70153 24.1624 5.62499C23.9459 5.47362 23.7981 5.24275 23.7513 4.98279C23.7044 4.72283 23.7624 4.4549 23.9124 4.23749ZM29.3999 6.93749L27.7624 8.08749C27.5913 8.19931 27.3918 8.26002 27.1874 8.26249C26.9764 8.26082 26.7713 8.19244 26.6015 8.06715C26.4317 7.94185 26.3059 7.76605 26.2421 7.56491C26.1783 7.36378 26.1798 7.14761 26.2463 6.94735C26.3128 6.74709 26.4409 6.573 26.6124 6.44999L28.2499 5.29999C28.3572 5.22313 28.4787 5.16828 28.6073 5.13861C28.736 5.10894 28.8692 5.10503 28.9994 5.12711C29.1295 5.14919 29.254 5.19682 29.3657 5.26726C29.4773 5.33769 29.5739 5.42954 29.6499 5.53749C29.8006 5.75687 29.8588 6.02677 29.8121 6.28877C29.7653 6.55078 29.6172 6.78383 29.3999 6.93749Z" fill="#344054"/>
</svg>
