<svg width="32" height="32" viewBox="0 0 32 32" fill="none" xmlns="http://www.w3.org/2000/svg">
<path d="M17.9999 9.99999C17.9999 9.73477 18.1053 9.48042 18.2928 9.29288C18.4804 9.10535 18.7347 8.99999 18.9999 8.99999H30.9999C31.2652 8.99999 31.5195 9.10535 31.707 9.29288C31.8946 9.48042 31.9999 9.73477 31.9999 9.99999C31.9999 10.2652 31.8946 10.5196 31.707 10.7071C31.5195 10.8946 31.2652 11 30.9999 11H18.9999C18.7347 11 18.4804 10.8946 18.2928 10.7071C18.1053 10.5196 17.9999 10.2652 17.9999 9.99999ZM30.9999 15H18.9999C18.7347 15 18.4804 15.1053 18.2928 15.2929C18.1053 15.4804 17.9999 15.7348 17.9999 16C17.9999 16.2652 18.1053 16.5196 18.2928 16.7071C18.4804 16.8946 18.7347 17 18.9999 17H30.9999C31.2652 17 31.5195 16.8946 31.707 16.7071C31.8946 16.5196 31.9999 16.2652 31.9999 16C31.9999 15.7348 31.8946 15.4804 31.707 15.2929C31.5195 15.1053 31.2652 15 30.9999 15ZM30.9999 21H21.9999C21.7347 21 21.4804 21.1053 21.2928 21.2929C21.1053 21.4804 20.9999 21.7348 20.9999 22C20.9999 22.2652 21.1053 22.5196 21.2928 22.7071C21.4804 22.8946 21.7347 23 21.9999 23H30.9999C31.2652 23 31.5195 22.8946 31.707 22.7071C31.8946 22.5196 31.9999 22.2652 31.9999 22C31.9999 21.7348 31.8946 21.4804 31.707 21.2929C31.5195 21.1053 31.2652 21 30.9999 21ZM13.6374 17.7625C14.6357 17.0015 15.3702 15.9465 15.7374 14.7462C16.1047 13.5458 16.0862 12.2605 15.6846 11.0712C15.2829 9.88189 14.5184 8.84851 13.4987 8.11653C12.4789 7.38455 11.2552 6.99084 9.99993 6.99084C8.74465 6.99084 7.52099 7.38455 6.50121 8.11653C5.48144 8.84851 4.71693 9.88189 4.31531 11.0712C3.91369 12.2605 3.8952 13.5458 4.26244 14.7462C4.62967 15.9465 5.36414 17.0015 6.36243 17.7625C5.11925 18.3124 4.0168 19.1369 3.13784 20.1739C2.25888 21.2109 1.62624 22.4335 1.28743 23.75C1.24982 23.8977 1.24602 24.0519 1.27632 24.2012C1.30662 24.3506 1.37024 24.4912 1.46243 24.6125C1.55427 24.7341 1.67335 24.8326 1.81012 24.8999C1.94688 24.9672 2.09752 25.0014 2.24993 25H17.7499C17.9023 25.0014 18.053 24.9672 18.1898 24.8999C18.3265 24.8326 18.4456 24.7341 18.5374 24.6125C18.6296 24.4912 18.6932 24.3506 18.7235 24.2012C18.7538 24.0519 18.75 23.8977 18.7124 23.75C18.3736 22.4335 17.741 21.2109 16.862 20.1739C15.9831 19.1369 14.8806 18.3124 13.6374 17.7625Z" fill="#344054"/>
</svg>
