<svg width="32" height="32" viewBox="0 0 32 32" fill="none" xmlns="http://www.w3.org/2000/svg">
<path d="M27.0001 4H21.0001C20.7349 4 20.4805 4.10536 20.293 4.29289C20.1055 4.48043 20.0001 4.73478 20.0001 5C20.0001 5.26522 20.1055 5.51957 20.293 5.70711C20.4805 5.89464 20.7349 6 21.0001 6H24.5876L21.0001 9.5875L18.7126 7.2875C18.5183 7.12804 18.2716 7.04655 18.0206 7.05888C17.7695 7.07121 17.5321 7.17648 17.3543 7.35421C17.1766 7.53195 17.0713 7.76944 17.059 8.02049C17.0467 8.27154 17.1281 8.5182 17.2876 8.7125L19.5876 11L17.6126 12.975C15.8108 11.5343 13.5257 10.8382 11.2267 11.0299C8.92764 11.2215 6.7893 12.2863 5.25092 14.0055C3.71254 15.7247 2.89094 17.9678 2.95489 20.2739C3.01884 22.58 3.96349 24.774 5.59478 26.4053C7.22607 28.0366 9.42014 28.9813 11.7262 29.0452C14.0323 29.1092 16.2754 28.2876 17.9946 26.7492C19.7138 25.2108 20.7786 23.0725 20.9702 20.7735C21.1619 18.4744 20.4658 16.1893 19.0251 14.3875L21.0001 12.4125L23.2876 14.7125C23.4787 14.8973 23.7342 15.0006 24.0001 15.0006C24.266 15.0006 24.5215 14.8973 24.7126 14.7125C24.9004 14.5229 25.0057 14.2668 25.0057 14C25.0057 13.7332 24.9004 13.4771 24.7126 13.2875L22.4126 11L26.0001 7.4125V11C26.0001 11.2652 26.1055 11.5196 26.293 11.7071C26.4805 11.8946 26.7349 12 27.0001 12C27.2653 12 27.5197 11.8946 27.7072 11.7071C27.8948 11.5196 28.0001 11.2652 28.0001 11V5C28.0001 4.73478 27.8948 4.48043 27.7072 4.29289C27.5197 4.10536 27.2653 4 27.0001 4ZM16.9501 24.95C15.6357 26.2599 13.8557 26.9953 12.0001 26.9953C10.1445 26.9953 8.3645 26.2599 7.05011 24.95C5.73729 23.6372 4.99975 21.8566 4.99975 20C4.99975 18.1434 5.73729 16.3628 7.05011 15.05C8.36293 13.7372 10.1435 12.9996 12.0001 12.9996C13.8567 12.9996 15.6373 13.7372 16.9501 15.05C17.6002 15.7 18.1159 16.4717 18.4677 17.3211C18.8195 18.1704 19.0006 19.0807 19.0006 20C19.0006 20.9193 18.8195 21.8296 18.4677 22.6789C18.1159 23.5283 17.6002 24.3 16.9501 24.95Z" fill="#344054"/>
</svg>
