<svg width="32" height="32" viewBox="0 0 32 32" fill="none" xmlns="http://www.w3.org/2000/svg">
<path d="M27.0001 4H21.0001C20.7349 4 20.4805 4.10536 20.293 4.29289C20.1054 4.48043 20.0001 4.73478 20.0001 5C20.0001 5.26522 20.1054 5.51957 20.293 5.70711C20.4805 5.89464 20.7349 6 21.0001 6H24.5876L19.3251 11.2625C17.3388 9.63861 14.8044 8.84027 12.246 9.0326C9.68759 9.22493 7.30099 10.3932 5.57982 12.2958C3.85864 14.1984 2.93457 16.6897 2.99874 19.2545C3.0629 21.8193 4.11039 24.2614 5.92454 26.0755C7.7387 27.8897 10.1807 28.9372 12.7455 29.0013C15.3103 29.0655 17.8017 28.1414 19.7043 26.4202C21.6069 24.6991 22.7751 22.3125 22.9675 19.7541C23.1598 17.1957 22.3615 14.6613 20.7376 12.675L26.0001 7.4125V11C26.0001 11.2652 26.1054 11.5196 26.293 11.7071C26.4805 11.8946 26.7349 12 27.0001 12C27.2653 12 27.5196 11.8946 27.7072 11.7071C27.8947 11.5196 28.0001 11.2652 28.0001 11V5C28.0001 4.73478 27.8947 4.48043 27.7072 4.29289C27.5196 4.10536 27.2653 4 27.0001 4ZM18.6626 24.6625C17.5431 25.7797 16.1176 26.5401 14.5662 26.8474C13.0148 27.1548 11.4071 26.9955 9.94621 26.3895C8.48533 25.7835 7.23684 24.7581 6.3585 23.4429C5.48015 22.1277 5.01137 20.5816 5.01137 19C5.01137 17.4184 5.48015 15.8723 6.3585 14.5571C7.23684 13.2419 8.48533 12.2165 9.94621 11.6105C11.4071 11.0045 13.0148 10.8452 14.5662 11.1526C16.1176 11.4599 17.5431 12.2203 18.6626 13.3375C20.1572 14.8431 20.9959 16.8785 20.9959 19C20.9959 21.1215 20.1572 23.1569 18.6626 24.6625Z" fill="#344054"/>
</svg>
