<svg width="32" height="32" viewBox="0 0 32 32" fill="none" xmlns="http://www.w3.org/2000/svg">
<path d="M23.5 10.5C22.9813 10.5007 22.4691 10.616 22 10.8375V6.49997C21.9967 5.57273 21.6269 4.6844 20.9712 4.02874C20.3156 3.37307 19.4272 3.00326 18.5 2.99997C17.9148 2.99834 17.3386 3.14452 16.825 3.42497C16.5656 2.63568 16.0339 1.96439 15.325 1.53118C14.616 1.09796 13.7761 0.931064 12.9554 1.06033C12.1347 1.1896 11.3867 1.60661 10.8453 2.23677C10.3038 2.86693 10.0042 3.66916 10 4.49997V5.33747C9.4665 5.08441 8.87766 4.97044 8.28827 5.00616C7.69888 5.04188 7.12811 5.22613 6.62908 5.54177C6.13005 5.8574 5.71899 6.29416 5.43415 6.81139C5.14931 7.32862 4.99996 7.9095 5 8.49997V19C5 21.9174 6.15893 24.7152 8.22183 26.7781C10.2847 28.841 13.0826 30 16 30C18.9174 30 21.7153 28.841 23.7782 26.7781C25.8411 24.7152 27 21.9174 27 19V14C26.9967 13.0727 26.6269 12.1844 25.9712 11.5287C25.3156 10.8731 24.4272 10.5033 23.5 10.5ZM25 19C25 21.3869 24.0518 23.6761 22.364 25.3639C20.6761 27.0518 18.3869 28 16 28C13.6131 28 11.3239 27.0518 9.63604 25.3639C7.94821 23.6761 7 21.3869 7 19V8.49997C7 8.10215 7.15804 7.72061 7.43934 7.43931C7.72064 7.15801 8.10218 6.99997 8.5 6.99997C8.89782 6.99997 9.27936 7.15801 9.56066 7.43931C9.84196 7.72061 10 8.10215 10 8.49997V14C10 14.2652 10.1054 14.5195 10.2929 14.7071C10.4804 14.8946 10.7348 15 11 15C11.2652 15 11.5196 14.8946 11.7071 14.7071C11.8946 14.5195 12 14.2652 12 14V4.49997C12 4.10215 12.158 3.72061 12.4393 3.43931C12.7206 3.15801 13.1022 2.99997 13.5 2.99997C13.8978 2.99997 14.2794 3.15801 14.5607 3.43931C14.842 3.72061 15 4.10215 15 4.49997V13C15 13.2652 15.1054 13.5195 15.2929 13.7071C15.4804 13.8946 15.7348 14 16 14C16.2652 14 16.5196 13.8946 16.7071 13.7071C16.8946 13.5195 17 13.2652 17 13V6.49997C17 6.10215 17.158 5.72061 17.4393 5.43931C17.7206 5.15801 18.1022 4.99997 18.5 4.99997C18.8978 4.99997 19.2794 5.15801 19.5607 5.43931C19.842 5.72061 20 6.10215 20 6.49997V14.5C20 14.7652 20.1054 15.0195 20.2929 15.2071C20.4804 15.3946 20.7348 15.5 21 15.5C21.2652 15.5 21.5196 15.3946 21.7071 15.2071C21.8946 15.0195 22 14.7652 22 14.5V14C22 13.6021 22.158 13.2206 22.4393 12.9393C22.7206 12.658 23.1022 12.5 23.5 12.5C23.8978 12.5 24.2794 12.658 24.5607 12.9393C24.842 13.2206 25 13.6021 25 14V19ZM16 17C12.6625 17 10.625 19.575 9.9 20.675C9.74023 20.9205 9.65519 21.2071 9.65519 21.5C9.65519 21.7929 9.74023 22.0795 9.9 22.325C10.625 23.425 12.6625 26 16 26C19.3375 26 21.375 23.425 22.1 22.325C22.2598 22.0795 22.3448 21.7929 22.3448 21.5C22.3448 21.2071 22.2598 20.9205 22.1 20.675C21.375 19.575 19.3375 17 16 17ZM16 23.5C15.6044 23.5 15.2178 23.3827 14.8889 23.1629C14.56 22.9431 14.3036 22.6308 14.1522 22.2653C14.0009 21.8999 13.9613 21.4978 14.0384 21.1098C14.1156 20.7218 14.3061 20.3655 14.5858 20.0858C14.8655 19.8061 15.2219 19.6156 15.6098 19.5384C15.9978 19.4612 16.3999 19.5008 16.7654 19.6522C17.1308 19.8036 17.4432 20.0599 17.6629 20.3888C17.8827 20.7177 18 21.1044 18 21.5C18 22.0304 17.7893 22.5391 17.4142 22.9142C17.0391 23.2893 16.5304 23.5 16 23.5Z" fill="#344054"/>
</svg>
