<svg width="32" height="32" viewBox="0 0 32 32" fill="none" xmlns="http://www.w3.org/2000/svg">
<path d="M31.9999 17C31.9999 17.2652 31.8946 17.5196 31.707 17.7071C31.5195 17.8946 31.2652 18 30.9999 18H24.9999C24.7347 18 24.4804 17.8946 24.2928 17.7071C24.1053 17.5196 23.9999 17.2652 23.9999 17C23.9999 16.7348 24.1053 16.4804 24.2928 16.2929C24.4804 16.1053 24.7347 16 24.9999 16H30.9999C31.2652 16 31.5195 16.1053 31.707 16.2929C31.8946 16.4804 31.9999 16.7348 31.9999 17ZM18.0124 19.7C19.5759 18.7206 20.7783 17.259 21.438 15.5361C22.0977 13.8131 22.1789 11.9223 21.6693 10.1491C21.1598 8.37598 20.0872 6.81673 18.6134 5.70685C17.1397 4.59697 15.3449 3.9967 13.4999 3.9967C11.655 3.9967 9.86018 4.59697 8.38644 5.70685C6.9127 6.81673 5.84008 8.37598 5.33055 10.1491C4.82101 11.9223 4.90222 13.8131 5.56191 15.5361C6.22161 17.259 7.42397 18.7206 8.98744 19.7C6.26137 20.5488 3.83903 22.1681 2.01244 24.3625C1.88829 24.5068 1.80911 24.6844 1.78468 24.8732C1.76024 25.062 1.79162 25.2538 1.87494 25.425C1.95404 25.597 2.08093 25.7427 2.2405 25.8447C2.40007 25.9466 2.58558 26.0005 2.77494 26H24.2249C24.4143 26.0005 24.5998 25.9466 24.7594 25.8447C24.9189 25.7427 25.0458 25.597 25.1249 25.425C25.2083 25.2538 25.2396 25.062 25.2152 24.8732C25.1908 24.6844 25.1116 24.5068 24.9874 24.3625C23.1608 22.1681 20.7385 20.5488 18.0124 19.7Z" fill="#344054"/>
</svg>
