<svg width="32" height="32" viewBox="0 0 32 32" fill="none" xmlns="http://www.w3.org/2000/svg">
<path d="M15.15 19.7376C16.4917 18.8463 17.5108 17.5467 18.0565 16.0313C18.6022 14.5158 18.6455 12.8649 18.18 11.3229C17.7145 9.78086 16.7649 8.42969 15.4718 7.4693C14.1787 6.50892 12.6108 5.99036 11 5.99036C9.38928 5.99036 7.82133 6.50892 6.52822 7.4693C5.23511 8.42969 4.28554 9.78086 3.82004 11.3229C3.35454 12.8649 3.39784 14.5158 3.94354 16.0313C4.48924 17.5467 5.50833 18.8463 6.85001 19.7376C4.56123 20.5792 2.58511 22.1016 1.18751 24.1001C1.07835 24.2483 1.01337 24.4244 1.0001 24.608C0.986824 24.7916 1.0258 24.9752 1.11251 25.1376C1.1982 25.2989 1.32594 25.434 1.48218 25.5286C1.63842 25.6233 1.81735 25.6738 2.00001 25.6751H20C20.1827 25.6738 20.3616 25.6233 20.5178 25.5286C20.6741 25.434 20.8018 25.2989 20.8875 25.1376C20.9742 24.9752 21.0132 24.7916 20.9999 24.608C20.9867 24.4244 20.9217 24.2483 20.8125 24.1001C19.4149 22.1016 17.4388 20.5792 15.15 19.7376Z" fill="#344054"/>
<path d="M31.0126 24.1C29.6071 22.1041 27.6279 20.5826 25.3376 19.7375C26.6835 18.8497 27.7069 17.551 28.2554 16.0348C28.804 14.5185 28.8484 12.8657 28.3821 11.3222C27.9159 9.77871 26.9638 8.42695 25.6675 7.46802C24.3712 6.5091 22.8 5.99425 21.1876 6.00005C20.4994 6.0037 19.8146 6.09613 19.1501 6.27505C18.994 6.32193 18.8514 6.40535 18.734 6.5184C18.6166 6.63144 18.5278 6.77085 18.4751 6.92505C18.4248 7.07799 18.4122 7.24081 18.4383 7.39968C18.4644 7.55855 18.5285 7.70876 18.6251 7.83755C19.7556 9.35651 20.4051 11.1794 20.4898 13.071C20.5744 14.9626 20.0904 16.8362 19.1001 18.45C18.9731 18.6645 18.9297 18.9182 18.9781 19.1627C19.0265 19.4072 19.1634 19.6252 19.3626 19.775C19.7376 20.0667 20.1001 20.3667 20.4501 20.675L20.5126 20.7375C21.8469 21.9722 22.9293 23.4537 23.7001 25.1C23.7792 25.2721 23.9061 25.4178 24.0657 25.5197C24.2252 25.6217 24.4108 25.6756 24.6001 25.675H30.1876C30.3703 25.6738 30.5492 25.6232 30.7054 25.5286C30.8617 25.434 30.9894 25.2989 31.0751 25.1375C31.1608 24.9755 31.2003 24.793 31.1892 24.61C31.1782 24.4271 31.1171 24.2506 31.0126 24.1Z" fill="#344054"/>
</svg>
