<svg width="32" height="32" viewBox="0 0 32 32" fill="none" xmlns="http://www.w3.org/2000/svg">
<path d="M27 5H5C4.46957 5 3.96086 5.21071 3.58579 5.58579C3.21071 5.96086 3 6.46957 3 7V25C3 25.5304 3.21071 26.0391 3.58579 26.4142C3.96086 26.7893 4.46957 27 5 27H27C27.5304 27 28.0391 26.7893 28.4142 26.4142C28.7893 26.0391 29 25.5304 29 25V7C29 6.46957 28.7893 5.96086 28.4142 5.58579C28.0391 5.21071 27.5304 5 27 5ZM15.6375 21.9625C15.5103 21.9964 15.3776 22.0049 15.2471 21.9874C15.1166 21.97 14.9908 21.9269 14.877 21.8607C14.7632 21.7945 14.6636 21.7065 14.5838 21.6017C14.5041 21.4969 14.4459 21.3774 14.4125 21.25C14.243 20.6102 13.8667 20.0444 13.3422 19.6407C12.8177 19.237 12.1744 19.0181 11.5125 19.0181C10.8506 19.0181 10.2073 19.237 9.68279 19.6407C9.15827 20.0444 8.78197 20.6102 8.6125 21.25C8.55486 21.4647 8.42816 21.6545 8.25195 21.79C8.07574 21.9256 7.85981 21.9994 7.6375 22L7.3875 21.9625C7.26062 21.9305 7.14137 21.8736 7.03667 21.7951C6.93197 21.7166 6.84392 21.6181 6.77763 21.5053C6.71133 21.3925 6.66812 21.2676 6.6505 21.1379C6.63288 21.0083 6.64121 20.8764 6.675 20.75C6.97941 19.568 7.70366 18.5371 8.7125 17.85C8.14509 17.2938 7.75617 16.5813 7.59532 15.8032C7.43448 15.0251 7.50899 14.2168 7.80937 13.4812C8.10975 12.7456 8.62239 12.1162 9.28191 11.6731C9.94143 11.23 10.718 10.9934 11.5125 10.9934C12.307 10.9934 13.0836 11.23 13.7431 11.6731C14.4026 12.1162 14.9152 12.7456 15.2156 13.4812C15.516 14.2168 15.5905 15.0251 15.4297 15.8032C15.2688 16.5813 14.8799 17.2938 14.3125 17.85C15.3213 18.5371 16.0456 19.568 16.35 20.75C16.3838 20.8764 16.3921 21.0083 16.3745 21.1379C16.3569 21.2676 16.3137 21.3925 16.2474 21.5053C16.1811 21.6181 16.093 21.7166 15.9883 21.7951C15.8836 21.8736 15.7644 21.9305 15.6375 21.9625ZM24 19H19C18.7348 19 18.4804 18.8946 18.2929 18.7071C18.1054 18.5196 18 18.2652 18 18C18 17.7348 18.1054 17.4804 18.2929 17.2929C18.4804 17.1054 18.7348 17 19 17H24C24.2652 17 24.5196 17.1054 24.7071 17.2929C24.8946 17.4804 25 17.7348 25 18C25 18.2652 24.8946 18.5196 24.7071 18.7071C24.5196 18.8946 24.2652 19 24 19ZM24 15H19C18.7348 15 18.4804 14.8946 18.2929 14.7071C18.1054 14.5196 18 14.2652 18 14C18 13.7348 18.1054 13.4804 18.2929 13.2929C18.4804 13.1054 18.7348 13 19 13H24C24.2652 13 24.5196 13.1054 24.7071 13.2929C24.8946 13.4804 25 13.7348 25 14C25 14.2652 24.8946 14.5196 24.7071 14.7071C24.5196 14.8946 24.2652 15 24 15Z" fill="#344054"/>
<path d="M11.5125 17C12.617 17 13.5125 16.1046 13.5125 15C13.5125 13.8954 12.617 13 11.5125 13C10.4079 13 9.51245 13.8954 9.51245 15C9.51245 16.1046 10.4079 17 11.5125 17Z" fill="#344054"/>
</svg>
