<svg width="32" height="32" viewBox="0 0 32 32" fill="none" xmlns="http://www.w3.org/2000/svg">
<path d="M28 6V9.5C28 9.76522 27.8946 10.0196 27.7071 10.2071C27.5196 10.3946 27.2652 10.5 27 10.5C26.7348 10.5 26.4804 10.3946 26.2929 10.2071C26.1054 10.0196 26 9.76522 26 9.5V6H22.5C22.2348 6 21.9804 5.89464 21.7929 5.70711C21.6054 5.51957 21.5 5.26522 21.5 5C21.5 4.73478 21.6054 4.48043 21.7929 4.29289C21.9804 4.10536 22.2348 4 22.5 4H26C26.5304 4 27.0391 4.21071 27.4142 4.58579C27.7893 4.96086 28 5.46957 28 6ZM27 21.5C26.7348 21.5 26.4804 21.6054 26.2929 21.7929C26.1054 21.9804 26 22.2348 26 22.5V26H22.5C22.2348 26 21.9804 26.1054 21.7929 26.2929C21.6054 26.4804 21.5 26.7348 21.5 27C21.5 27.2652 21.6054 27.5196 21.7929 27.7071C21.9804 27.8946 22.2348 28 22.5 28H26C26.5304 28 27.0391 27.7893 27.4142 27.4142C27.7893 27.0391 28 26.5304 28 26V22.5C28 22.2348 27.8946 21.9804 27.7071 21.7929C27.5196 21.6054 27.2652 21.5 27 21.5ZM9.5 26H6V22.5C6 22.2348 5.89464 21.9804 5.70711 21.7929C5.51957 21.6054 5.26522 21.5 5 21.5C4.73478 21.5 4.48043 21.6054 4.29289 21.7929C4.10536 21.9804 4 22.2348 4 22.5V26C4 26.5304 4.21071 27.0391 4.58579 27.4142C4.96086 27.7893 5.46957 28 6 28H9.5C9.76522 28 10.0196 27.8946 10.2071 27.7071C10.3946 27.5196 10.5 27.2652 10.5 27C10.5 26.7348 10.3946 26.4804 10.2071 26.2929C10.0196 26.1054 9.76522 26 9.5 26ZM5 10.5C5.26522 10.5 5.51957 10.3946 5.70711 10.2071C5.89464 10.0196 6 9.76522 6 9.5V6H9.5C9.76522 6 10.0196 5.89464 10.2071 5.70711C10.3946 5.51957 10.5 5.26522 10.5 5C10.5 4.73478 10.3946 4.48043 10.2071 4.29289C10.0196 4.10536 9.76522 4 9.5 4H6C5.46957 4 4.96086 4.21071 4.58579 4.58579C4.21071 4.96086 4 5.46957 4 6V9.5C4 9.76522 4.10536 10.0196 4.29289 10.2071C4.48043 10.3946 4.73478 10.5 5 10.5ZM12.6375 17.6875C10.8563 18.4659 9.38976 19.8223 8.475 21.5375C8.39506 21.689 8.35643 21.8589 8.36301 22.03C8.3696 22.2012 8.42116 22.3676 8.5125 22.5125C8.59951 22.6607 8.72369 22.7836 8.87277 22.8691C9.02184 22.9546 9.19065 22.9997 9.3625 23H22.6375C22.8094 22.9997 22.9782 22.9546 23.1272 22.8691C23.2763 22.7836 23.4005 22.6607 23.4875 22.5125C23.5788 22.3676 23.6304 22.2012 23.637 22.03C23.6436 21.8589 23.6049 21.689 23.525 21.5375C22.6102 19.8223 21.1437 18.4659 19.3625 17.6875C19.8797 17.2228 20.2929 16.6541 20.5751 16.0186C20.8573 15.3832 21.0021 14.6953 21 14C21 12.6739 20.4732 11.4021 19.5355 10.4645C18.5979 9.52678 17.3261 9 16 9C14.6739 9 13.4021 9.52678 12.4645 10.4645C11.5268 11.4021 11 12.6739 11 14C10.9979 14.6953 11.1427 15.3832 11.4249 16.0186C11.7071 16.6541 12.1203 17.2228 12.6375 17.6875Z" fill="#344054"/>
</svg>
