<svg width="32" height="32" viewBox="0 0 32 32" fill="none" xmlns="http://www.w3.org/2000/svg">
<path d="M11.9876 6C11.9876 5.20888 12.2222 4.43552 12.6617 3.77772C13.1013 3.11992 13.726 2.60723 14.4569 2.30448C15.1878 2.00173 15.992 1.92252 16.768 2.07686C17.5439 2.2312 18.2566 2.61216 18.816 3.17157C19.3754 3.73098 19.7564 4.44372 19.9107 5.21964C20.0651 5.99556 19.9859 6.79983 19.6831 7.53074C19.3804 8.26164 18.8677 8.88635 18.2099 9.32588C17.5521 9.76541 16.7787 10 15.9876 10C14.9267 10 13.9093 9.57857 13.1592 8.82843C12.409 8.07828 11.9876 7.06087 11.9876 6ZM28.5126 15.1375C28.3001 15.0125 23.2001 12 16.0001 12C8.80011 12 3.7001 15.0125 3.4876 15.1375C3.25886 15.2734 3.09347 15.4947 3.02783 15.7525C2.9622 16.0104 3.00168 16.2838 3.1376 16.5125C3.27353 16.7413 3.49476 16.9066 3.75262 16.9723C4.01048 17.0379 4.28386 16.9984 4.5126 16.8625C4.5626 16.825 8.8751 14.2875 15.0001 14.025V18.625L7.2501 27.3375C7.0744 27.5364 6.98491 27.797 7.00132 28.0619C7.01773 28.3268 7.13869 28.5743 7.3376 28.75C7.53652 28.9257 7.79708 29.0152 8.06198 28.9988C8.32687 28.9824 8.5744 28.8614 8.7501 28.6625L16.0001 20.5L23.2501 28.6625C23.344 28.7687 23.4595 28.8537 23.5888 28.9119C23.7181 28.9701 23.8583 29.0001 24.0001 29C24.2438 28.9991 24.4791 28.9104 24.6626 28.75C24.7612 28.6631 24.8416 28.5575 24.8994 28.4395C24.9571 28.3214 24.9911 28.1931 24.9992 28.0619C25.0073 27.9307 24.9895 27.7992 24.9468 27.6749C24.904 27.5506 24.8372 27.436 24.7501 27.3375L17.0001 18.625V14.025C23.1001 14.2875 27.4376 16.825 27.4876 16.8625C27.6445 16.9499 27.8205 16.9972 28.0001 17C28.2202 17.0014 28.4346 16.9302 28.6101 16.7974C28.7856 16.6645 28.9124 16.4775 28.9707 16.2653C29.0291 16.0531 29.0159 15.8276 28.9331 15.6237C28.8502 15.4198 28.7024 15.2489 28.5126 15.1375Z" fill="#344054"/>
</svg>
