<svg width="32" height="32" viewBox="0 0 32 32" fill="none" xmlns="http://www.w3.org/2000/svg">
<path d="M16.7749 3.025C16.6865 3.01805 16.5979 3.03532 16.5186 3.07497C16.4393 3.11461 16.3724 3.17513 16.3249 3.25C15.0374 5.2 14.9999 6.9875 14.9999 7C14.9978 7.14994 15.03 7.29838 15.0938 7.43406C15.1577 7.56974 15.2516 7.68909 15.3685 7.78305C15.4853 7.87702 15.6221 7.94315 15.7683 7.9764C15.9145 8.00966 16.0664 8.00918 16.2124 7.975C16.6749 7.8875 16.9874 7.45 16.9999 6.975C17.0045 6.83753 17.037 6.70243 17.0955 6.57794C17.154 6.45346 17.2373 6.3422 17.3402 6.25096C17.4432 6.15973 17.5636 6.09042 17.6942 6.04727C17.8248 6.00412 17.9629 5.98804 18.0999 6C18.3517 6.03089 18.5831 6.15407 18.7494 6.34572C18.9156 6.53736 19.0049 6.78385 18.9999 7.0375C18.9974 7.43147 18.9174 7.82109 18.7644 8.18412C18.6113 8.54716 18.3883 8.8765 18.108 9.15333C17.8276 9.43016 17.4955 9.64908 17.1306 9.79756C16.7657 9.94605 16.3751 10.0212 15.9811 10.0188C15.5872 10.0163 15.1976 9.93625 14.8345 9.78322C14.4715 9.63018 14.1422 9.40713 13.8653 9.12681C13.3062 8.56069 12.9949 7.79565 12.9999 7C12.9999 6.925 13.0124 5.65 13.6749 4C13.7092 3.91527 13.7196 3.82275 13.705 3.73251C13.6904 3.64227 13.6513 3.55776 13.592 3.48817C13.5328 3.41858 13.4555 3.36658 13.3688 3.33781C13.282 3.30904 13.189 3.30461 13.0999 3.325C10.1544 4.00253 7.53664 5.68426 5.69595 8.08149C3.85525 10.4787 2.90644 13.442 3.0124 16.4625C3.2499 23.35 8.8999 28.8875 15.7874 29C19.1855 29.0547 22.4698 27.7766 24.9371 25.4393C27.4043 23.1021 28.8582 19.8916 28.9873 16.4956C29.1164 13.0995 27.9105 9.78791 25.6278 7.2701C23.3452 4.75228 20.1673 3.22845 16.7749 3.025ZM9.9999 16C9.9999 15.7033 10.0879 15.4133 10.2527 15.1666C10.4175 14.92 10.6518 14.7277 10.9259 14.6142C11.2 14.5007 11.5016 14.4709 11.7925 14.5288C12.0835 14.5867 12.3508 14.7296 12.5606 14.9393C12.7703 15.1491 12.9132 15.4164 12.9711 15.7074C13.029 15.9983 12.9992 16.2999 12.8857 16.574C12.7722 16.8481 12.5799 17.0824 12.3333 17.2472C12.0866 17.412 11.7966 17.5 11.4999 17.5C11.1021 17.5 10.7205 17.342 10.4392 17.0607C10.1579 16.7794 9.9999 16.3978 9.9999 16ZM19.8749 21.8375C18.7249 22.5961 17.3775 23.0004 15.9999 23.0004C14.6222 23.0004 13.2749 22.5961 12.1249 21.8375C11.907 21.6879 11.7563 21.459 11.7049 21.1997C11.6536 20.9405 11.7056 20.6714 11.8499 20.45C11.922 20.3398 12.015 20.2449 12.1239 20.1708C12.2327 20.0967 12.355 20.0448 12.4839 20.0181C12.6129 19.9914 12.7458 19.9904 12.8751 20.0152C13.0044 20.04 13.1275 20.09 13.2374 20.1625C14.0552 20.7085 15.0165 21 15.9999 21C16.9833 21 17.9446 20.7085 18.7624 20.1625C18.8723 20.09 18.9954 20.04 19.1247 20.0152C19.254 19.9904 19.3869 19.9914 19.5159 20.0181C19.6448 20.0448 19.7671 20.0967 19.8759 20.1708C19.9847 20.2449 20.0778 20.3398 20.1499 20.45C20.2942 20.6714 20.3462 20.9405 20.2949 21.1997C20.2435 21.459 20.0928 21.6879 19.8749 21.8375ZM20.4999 17.5C20.2032 17.5 19.9132 17.412 19.6665 17.2472C19.4199 17.0824 19.2276 16.8481 19.1141 16.574C19.0005 16.2999 18.9708 15.9983 19.0287 15.7074C19.0866 15.4164 19.2295 15.1491 19.4392 14.9393C19.649 14.7296 19.9163 14.5867 20.2073 14.5288C20.4982 14.4709 20.7998 14.5007 21.0739 14.6142C21.348 14.7277 21.5823 14.92 21.7471 15.1666C21.9119 15.4133 21.9999 15.7033 21.9999 16C21.9999 16.3978 21.8419 16.7794 21.5606 17.0607C21.2793 17.342 20.8977 17.5 20.4999 17.5Z" fill="#344054"/>
</svg>
