<svg width="32" height="32" viewBox="0 0 32 32" fill="none" xmlns="http://www.w3.org/2000/svg">
<path d="M17 11.05V7.37501L19.9125 9.32501C20.0717 9.44214 20.2649 9.50364 20.4625 9.50001C20.6758 9.49945 20.8834 9.43068 21.0548 9.30376C21.2263 9.17684 21.3527 8.99842 21.4155 8.79456C21.4784 8.5907 21.4743 8.37209 21.4041 8.17066C21.3338 7.96924 21.201 7.79556 21.025 7.67501L17.7875 5.50001L21.025 3.32501C21.1481 3.25884 21.2559 3.16762 21.3416 3.05721C21.4273 2.9468 21.4888 2.81967 21.5223 2.68401C21.5558 2.54835 21.5605 2.40717 21.5361 2.26958C21.5117 2.13199 21.4588 2.00104 21.3807 1.88517C21.3025 1.76931 21.201 1.67111 21.0826 1.59689C20.9642 1.52268 20.8315 1.47411 20.6932 1.4543C20.5549 1.4345 20.4139 1.44391 20.2795 1.48193C20.145 1.51994 20.02 1.58572 19.9125 1.67501L16 4.30001L12.0875 1.67501C11.98 1.58572 11.855 1.51994 11.7205 1.48193C11.5861 1.44391 11.4451 1.4345 11.3068 1.4543C11.1685 1.47411 11.0358 1.52268 10.9174 1.59689C10.799 1.67111 10.6975 1.76931 10.6194 1.88517C10.5412 2.00104 10.4883 2.13199 10.4639 2.26958C10.4395 2.40717 10.4442 2.54835 10.4777 2.68401C10.5112 2.81967 10.5728 2.9468 10.6584 3.05721C10.7441 3.16762 10.8519 3.25884 10.975 3.32501L14.2125 5.50001L10.975 7.67501C10.799 7.79556 10.6662 7.96924 10.5959 8.17066C10.5257 8.37209 10.5217 8.5907 10.5845 8.79456C10.6473 8.99842 10.7737 9.17684 10.9452 9.30376C11.1166 9.43068 11.3242 9.49945 11.5375 9.50001C11.7351 9.50364 11.9284 9.44214 12.0875 9.32501L15 7.37501V11.05C12.5806 11.3061 10.3517 12.4806 8.77274 14.3315C7.19373 16.1823 6.38499 18.5684 6.51321 20.9979C6.64144 23.4274 7.69686 25.7151 9.46192 27.3895C11.227 29.0639 13.5671 29.9972 16 29.9972C18.4329 29.9972 20.7731 29.0639 22.5381 27.3895C24.3032 25.7151 25.3586 23.4274 25.4868 20.9979C25.615 18.5684 24.8063 16.1823 23.2273 14.3315C21.6483 12.4806 19.4194 11.3061 17 11.05ZM16 28C14.5167 28 13.0666 27.5601 11.8332 26.736C10.5999 25.9119 9.63857 24.7406 9.07091 23.3701C8.50326 21.9997 8.35473 20.4917 8.64412 19.0368C8.93351 17.582 9.64782 16.2456 10.6967 15.1967C11.7456 14.1478 13.082 13.4335 14.5368 13.1441C15.9917 12.8547 17.4997 13.0033 18.8701 13.5709C20.2406 14.1386 21.4119 15.0999 22.236 16.3332C23.0601 17.5666 23.5 19.0166 23.5 20.5C23.5 22.4891 22.7098 24.3968 21.3033 25.8033C19.8968 27.2098 17.9891 28 16 28Z" fill="#344054"/>
</svg>
