<svg width="32" height="32" viewBox="0 0 32 32" fill="none" xmlns="http://www.w3.org/2000/svg">
<path d="M31.7125 16.7125L28.7125 19.7125C28.5213 19.8973 28.2658 20.0006 28 20.0006C27.7341 20.0006 27.4786 19.8973 27.2875 19.7125L24.2875 16.7125C24.1518 16.5679 24.0598 16.3878 24.0222 16.1932C23.9846 15.9985 24.0029 15.7972 24.075 15.6125C24.1515 15.4305 24.2801 15.2752 24.4447 15.1662C24.6093 15.0572 24.8025 14.9994 25 15H26.95C26.7462 12.7187 25.8347 10.558 24.3427 8.8202C22.8508 7.08237 20.8531 5.85422 18.6289 5.30747C16.4047 4.76072 14.0652 4.92271 11.9376 5.77078C9.81004 6.61885 8.00064 8.11061 6.76245 10.0375C6.6904 10.1477 6.5973 10.2425 6.4885 10.3166C6.37969 10.3908 6.25732 10.4427 6.12841 10.4694C5.9995 10.4961 5.86658 10.4971 5.73728 10.4723C5.60799 10.4475 5.48485 10.3975 5.37495 10.325C5.26418 10.2551 5.16842 10.1639 5.09324 10.0566C5.01806 9.94938 4.96496 9.82825 4.93705 9.70029C4.90913 9.57233 4.90694 9.44009 4.93062 9.31128C4.95429 9.18246 5.00336 9.05964 5.07495 8.94997C6.55005 6.6623 8.70603 4.89537 11.2389 3.89834C13.7717 2.90131 16.5536 2.72448 19.1923 3.39278C21.831 4.06109 24.1934 5.54081 25.9463 7.62329C27.6991 9.70577 28.7541 12.2859 28.9625 15H31C31.1974 14.9994 31.3906 15.0572 31.5552 15.1662C31.7198 15.2752 31.8484 15.4305 31.925 15.6125C31.997 15.7972 32.0153 15.9985 31.9777 16.1932C31.9401 16.3878 31.8481 16.5679 31.7125 16.7125ZM26.625 21.675C26.5151 21.6025 26.3919 21.5524 26.2626 21.5276C26.1333 21.5029 26.0004 21.5039 25.8715 21.5306C25.7426 21.5573 25.6202 21.6092 25.5114 21.6833C25.4026 21.7574 25.3095 21.8523 25.2375 21.9625C24.9355 22.438 24.5969 22.8894 24.225 23.3125C23.4155 22.1513 22.3724 21.1721 21.1625 20.4375C19.7733 21.7684 17.9238 22.5113 16 22.5113C14.0761 22.5113 12.2266 21.7684 10.8375 20.4375C9.62754 21.1721 8.58443 22.1513 7.77495 23.3125C6.21244 21.5554 5.25698 19.3421 5.04995 17H6.99995C7.19738 17.0006 7.39057 16.9428 7.55518 16.8338C7.71979 16.7248 7.84845 16.5695 7.92495 16.3875C7.997 16.2028 8.01527 16.0014 7.97767 15.8068C7.94006 15.6121 7.84811 15.4321 7.71245 15.2875L4.71245 12.2875C4.52286 12.0997 4.2668 11.9943 3.99995 11.9943C3.7331 11.9943 3.47705 12.0997 3.28745 12.2875L0.287452 15.2875C0.151792 15.4321 0.0598406 15.6121 0.0222349 15.8068C-0.0153708 16.0014 0.00290633 16.2028 0.0749518 16.3875C0.151453 16.5695 0.280116 16.7248 0.444726 16.8338C0.609336 16.9428 0.802527 17.0006 0.999952 17H3.03745C3.29344 20.3492 4.83953 23.4683 7.34995 25.7L7.39995 25.7375C8.80149 26.9783 10.4547 27.9014 12.2463 28.4437C14.0379 28.9861 15.9255 29.1347 17.7799 28.8794C19.6343 28.6242 21.4116 27.9711 22.99 26.9649C24.5685 25.9588 25.9108 24.6233 26.925 23.05C26.9965 22.9403 27.0456 22.8175 27.0693 22.6887C27.093 22.5599 27.0908 22.4276 27.0629 22.2997C27.0349 22.1717 26.9818 22.0506 26.9067 21.9433C26.8315 21.8361 26.7357 21.7449 26.625 21.675ZM16 20.5C17.0877 20.5 18.1511 20.1774 19.0556 19.5731C19.9601 18.9687 20.665 18.1097 21.0813 17.1047C21.4976 16.0997 21.6065 14.9939 21.3943 13.927C21.1821 12.8601 20.6582 11.8801 19.889 11.1109C19.1199 10.3417 18.1398 9.81787 17.0729 9.60565C16.0061 9.39343 14.9002 9.50235 13.8952 9.91863C12.8902 10.3349 12.0312 11.0399 11.4269 11.9443C10.8225 12.8488 10.5 13.9122 10.5 15C10.5 16.4587 11.0794 17.8576 12.1109 18.8891C13.1423 19.9205 14.5413 20.5 16 20.5Z" fill="#344054"/>
</svg>
