<svg width="32" height="32" viewBox="0 0 32 32" fill="none" xmlns="http://www.w3.org/2000/svg">
<path d="M23.5 10C22.9148 9.99839 22.3386 10.1446 21.825 10.425C21.6395 9.85278 21.3097 9.33799 20.8674 8.93033C20.425 8.52268 19.885 8.23592 19.2996 8.09772C18.7141 7.95952 18.1029 7.97455 17.525 8.14136C16.947 8.30816 16.4218 8.62112 16 9.05002C15.5134 8.55337 14.8899 8.21291 14.2089 8.07207C13.528 7.93122 12.8206 7.99639 12.1769 8.25924C11.5332 8.52209 10.9823 8.97072 10.5946 9.54792C10.2069 10.1251 9.9999 10.8047 10 11.5V13.5H8.5C7.57276 13.5033 6.68443 13.8731 6.02877 14.5288C5.3731 15.1845 5.00329 16.0728 5 17V19C5 21.9174 6.15893 24.7153 8.22183 26.7782C10.2847 28.8411 13.0826 30 16 30C18.9174 30 21.7153 28.8411 23.7782 26.7782C25.8411 24.7153 27 21.9174 27 19V13.5C26.9967 12.5728 26.6269 11.6845 25.9712 11.0288C25.3156 10.3731 24.4272 10.0033 23.5 10ZM25 19C25 21.387 24.0518 23.6762 22.364 25.364C20.6761 27.0518 18.3869 28 16 28C13.6131 28 11.3239 27.0518 9.63604 25.364C7.94821 23.6762 7 21.387 7 19V17C7 16.6022 7.15804 16.2207 7.43934 15.9394C7.72064 15.6581 8.10218 15.5 8.5 15.5H10V18.5C10 18.7652 10.1054 19.0196 10.2929 19.2071C10.4804 19.3947 10.7348 19.5 11 19.5C11.2652 19.5 11.5196 19.3947 11.7071 19.2071C11.8946 19.0196 12 18.7652 12 18.5V11.5C12 11.1022 12.158 10.7207 12.4393 10.4394C12.7206 10.1581 13.1022 10 13.5 10C13.8978 10 14.2794 10.1581 14.5607 10.4394C14.842 10.7207 15 11.1022 15 11.5V15.5C15 15.7652 15.1054 16.0196 15.2929 16.2071C15.4804 16.3947 15.7348 16.5 16 16.5C16.2652 16.5 16.5196 16.3947 16.7071 16.2071C16.8946 16.0196 17 15.7652 17 15.5V11.5C17 11.1022 17.158 10.7207 17.4393 10.4394C17.7206 10.1581 18.1022 10 18.5 10C18.8978 10 19.2794 10.1581 19.5607 10.4394C19.842 10.7207 20 11.1022 20 11.5V15.5C20 15.7652 20.1054 16.0196 20.2929 16.2071C20.4804 16.3947 20.7348 16.5 21 16.5C21.2652 16.5 21.5196 16.3947 21.7071 16.2071C21.8946 16.0196 22 15.7652 22 15.5V13.5C22 13.1022 22.158 12.7207 22.4393 12.4394C22.7206 12.1581 23.1022 12 23.5 12C23.8978 12 24.2794 12.1581 24.5607 12.4394C24.842 12.7207 25 13.1022 25 13.5V19Z" fill="#344054"/>
</svg>
