<svg width="32" height="32" viewBox="0 0 32 32" fill="none" xmlns="http://www.w3.org/2000/svg">
<path d="M16 3C13.4288 3 10.9154 3.76244 8.77759 5.1909C6.63975 6.61935 4.97351 8.64968 3.98957 11.0251C3.00563 13.4006 2.74819 16.0144 3.2498 18.5362C3.75141 21.0579 4.98953 23.3743 6.80762 25.1924C8.6257 27.0105 10.9421 28.2486 13.4638 28.7502C15.9856 29.2518 18.5995 28.9944 20.9749 28.0104C23.3503 27.0265 25.3807 25.3603 26.8091 23.2224C28.2376 21.0846 29 18.5712 29 16C28.9934 12.5542 27.6216 9.25145 25.1851 6.81491C22.7486 4.37837 19.4458 3.00661 16 3ZM13.7125 15.2875C13.9003 15.4771 14.0056 15.7332 14.0056 16C14.0056 16.2668 13.9003 16.5229 13.7125 16.7125C13.5214 16.8973 13.2659 17.0006 13 17.0006C12.7341 17.0006 12.4786 16.8973 12.2875 16.7125L11 15.4125L9.71251 16.7125C9.52137 16.8973 9.26589 17.0006 9.00001 17.0006C8.73412 17.0006 8.47865 16.8973 8.28751 16.7125C8.09972 16.5229 7.99438 16.2668 7.99438 16C7.99438 15.7332 8.09972 15.4771 8.28751 15.2875L9.58751 14L8.28751 12.7125C8.12804 12.5182 8.04655 12.2715 8.05888 12.0205C8.07121 11.7694 8.17648 11.5319 8.35422 11.3542C8.53195 11.1765 8.76944 11.0712 9.02049 11.0589C9.27155 11.0465 9.51821 11.128 9.71251 11.2875L11 12.5875L12.2875 11.2875C12.4818 11.128 12.7285 11.0465 12.9795 11.0589C13.2306 11.0712 13.4681 11.1765 13.6458 11.3542C13.8235 11.5319 13.9288 11.7694 13.9411 12.0205C13.9535 12.2715 13.872 12.5182 13.7125 12.7125L12.4125 14L13.7125 15.2875ZM16 24C15.7033 24 15.4133 23.912 15.1667 23.7472C14.92 23.5824 14.7277 23.3481 14.6142 23.074C14.5007 22.7999 14.471 22.4983 14.5288 22.2074C14.5867 21.9164 14.7296 21.6491 14.9393 21.4393C15.1491 21.2296 15.4164 21.0867 15.7074 21.0288C15.9983 20.9709 16.2999 21.0007 16.574 21.1142C16.8481 21.2277 17.0824 21.42 17.2472 21.6666C17.412 21.9133 17.5 22.2033 17.5 22.5C17.5 22.8978 17.342 23.2794 17.0607 23.5607C16.7794 23.842 16.3978 24 16 24ZM23.7125 15.2875C23.9003 15.4771 24.0056 15.7332 24.0056 16C24.0056 16.2668 23.9003 16.5229 23.7125 16.7125C23.5214 16.8973 23.2659 17.0006 23 17.0006C22.7341 17.0006 22.4786 16.8973 22.2875 16.7125L21 15.4125L19.7125 16.7125C19.5214 16.8973 19.2659 17.0006 19 17.0006C18.7341 17.0006 18.4786 16.8973 18.2875 16.7125C18.0997 16.5229 17.9944 16.2668 17.9944 16C17.9944 15.7332 18.0997 15.4771 18.2875 15.2875L19.5875 14L18.2875 12.7125C18.128 12.5182 18.0465 12.2715 18.0589 12.0205C18.0712 11.7694 18.1765 11.5319 18.3542 11.3542C18.5319 11.1765 18.7694 11.0712 19.0205 11.0589C19.2715 11.0465 19.5182 11.128 19.7125 11.2875L21 12.5875L22.2875 11.2875C22.4818 11.128 22.7285 11.0465 22.9795 11.0589C23.2306 11.0712 23.4681 11.1765 23.6458 11.3542C23.8235 11.5319 23.9288 11.7694 23.9411 12.0205C23.9535 12.2715 23.872 12.5182 23.7125 12.7125L22.4125 14L23.7125 15.2875Z" fill="#344054"/>
</svg>
