<svg width="32" height="32" viewBox="0 0 32 32" fill="none" xmlns="http://www.w3.org/2000/svg">
<path d="M14.9999 6C14.9999 5.20888 15.2345 4.43552 15.674 3.77772C16.1135 3.11992 16.7383 2.60723 17.4692 2.30448C18.2001 2.00173 19.0043 1.92252 19.7803 2.07686C20.5562 2.2312 21.2689 2.61216 21.8283 3.17157C22.3877 3.73098 22.7687 4.44372 22.923 5.21964C23.0774 5.99556 22.9982 6.79983 22.6954 7.53074C22.3927 8.26164 21.88 8.88635 21.2222 9.32588C20.5644 9.76541 19.791 10 18.9999 10C17.94 9.99671 16.9245 9.57422 16.1751 8.82479C15.4257 8.07536 15.0032 7.05985 14.9999 6ZM25.9999 17C22.4374 17 20.7874 15.2375 19.0499 13.3625C18.6124 12.8875 18.1499 12.4 17.6749 11.9625C13.0249 7.6625 5.61239 14.975 5.28739 15.2875C5.17815 15.3772 5.08888 15.4887 5.02534 15.6149C4.9618 15.7412 4.92539 15.8793 4.91846 16.0205C4.91152 16.1617 4.93422 16.3027 4.98508 16.4346C5.03595 16.5664 5.11386 16.6862 5.21379 16.7861C5.31373 16.886 5.43348 16.9639 5.56534 17.0148C5.6972 17.0657 5.83824 17.0884 5.9794 17.0814C6.12056 17.0745 6.25871 17.0381 6.38495 16.9746C6.51119 16.911 6.62273 16.8217 6.71239 16.7125C7.86029 15.5941 9.14062 14.6202 10.5249 13.8125C12.3124 12.7875 13.8124 12.425 14.9874 12.7125L12.7749 17.8L8.08739 28.6C8.03365 28.7197 8.00429 28.8488 8.00103 28.98C7.99776 29.1111 8.02065 29.2416 8.06836 29.3637C8.11607 29.4859 8.18765 29.5974 8.27891 29.6916C8.37017 29.7858 8.47929 29.8609 8.59989 29.9125C8.72458 29.9724 8.86156 30.0024 8.99989 30C9.19414 30.0008 9.38432 29.9443 9.54663 29.8376C9.70894 29.7309 9.83617 29.5787 9.91239 29.4L14.1124 19.7375L17.9999 22.5125V29C17.9999 29.2652 18.1052 29.5196 18.2928 29.7071C18.4803 29.8946 18.7347 30 18.9999 30C19.2651 30 19.5195 29.8946 19.707 29.7071C19.8945 29.5196 19.9999 29.2652 19.9999 29V22C20.0011 21.8401 19.963 21.6824 19.8889 21.5407C19.8148 21.399 19.7069 21.2777 19.5749 21.1875L14.9374 17.8625L16.6999 13.8L17.5874 14.725C19.3624 16.625 21.5624 19 25.9999 19C26.2651 19 26.5195 18.8946 26.707 18.7071C26.8945 18.5196 26.9999 18.2652 26.9999 18C26.9999 17.7348 26.8945 17.4804 26.707 17.2929C26.5195 17.1054 26.2651 17 25.9999 17Z" fill="#344054"/>
</svg>
