<svg width="32" height="32" viewBox="0 0 32 32" fill="none" xmlns="http://www.w3.org/2000/svg">
<path d="M15.9875 10C18.4728 10 20.4875 7.98528 20.4875 5.5C20.4875 3.01472 18.4728 1 15.9875 1C13.5023 1 11.4875 3.01472 11.4875 5.5C11.4875 7.98528 13.5023 10 15.9875 10Z" fill="#344054"/>
<path d="M26.4624 17.4375L21.5374 11.1125L21.4624 11.025C21.1382 10.6989 20.7525 10.4404 20.3277 10.2644C19.9028 10.0885 19.4473 9.99861 18.9874 10H12.9874C12.5276 9.99861 12.072 10.0885 11.6472 10.2644C11.2223 10.4404 10.8366 10.6989 10.5124 11.025L10.4249 11.1125L5.51243 17.4375C5.04332 17.9066 4.77979 18.5429 4.77979 19.2063C4.77979 19.8697 5.04332 20.5059 5.51243 20.975C5.98153 21.4441 6.61777 21.7077 7.28118 21.7077C7.94459 21.7077 8.58082 21.4441 9.04993 20.975L10.8124 19.6L8.32493 27.4375C8.07798 28.022 8.06013 28.678 8.27493 29.275C8.38725 29.5848 8.56001 29.8692 8.78318 30.1117C9.00635 30.3542 9.27547 30.5499 9.57493 30.6875C9.8698 30.828 10.1898 30.9081 10.5161 30.9232C10.8424 30.9382 11.1684 30.8878 11.4749 30.775C12.0758 30.557 12.5717 30.1193 12.8624 29.55L15.9874 24.625L19.1124 29.55C19.4022 30.1154 19.8925 30.5522 20.4874 30.775C20.7644 30.8732 21.056 30.9239 21.3499 30.925C21.7134 30.9268 22.0726 30.8456 22.3999 30.6875C23.0023 30.4062 23.4695 29.8986 23.6999 29.275C23.9171 28.6774 23.8947 28.019 23.6374 27.4375L21.1624 19.6L22.9249 20.975C23.3982 21.4227 24.0275 21.668 24.6788 21.6587C25.3302 21.6493 25.9522 21.3861 26.4124 20.925C26.6443 20.6941 26.8279 20.4194 26.9523 20.1167C27.0768 19.8141 27.1397 19.4897 27.1374 19.1625C27.1429 18.5221 26.9011 17.9042 26.4624 17.4375Z" fill="#344054"/>
</svg>
