<svg width="32" height="32" viewBox="0 0 32 32" fill="none" xmlns="http://www.w3.org/2000/svg">
<path d="M24.9874 24.3625C25.1116 24.5068 25.1908 24.6844 25.2152 24.8732C25.2396 25.062 25.2083 25.2538 25.1249 25.425C25.0458 25.597 24.9189 25.7427 24.7594 25.8447C24.5998 25.9466 24.4143 26.0005 24.2249 26H2.77494C2.58558 26.0005 2.40007 25.9466 2.2405 25.8447C2.08093 25.7427 1.95404 25.597 1.87494 25.425C1.79162 25.2538 1.76024 25.062 1.78468 24.8732C1.80911 24.6844 1.88829 24.5068 2.01244 24.3625C3.83903 22.1681 6.26137 20.5488 8.98744 19.7C7.42397 18.7206 6.22161 17.259 5.56191 15.5361C4.90222 13.8131 4.82101 11.9223 5.33055 10.1491C5.84008 8.37598 6.9127 6.81673 8.38644 5.70685C9.86018 4.59697 11.655 3.9967 13.4999 3.9967C15.3449 3.9967 17.1397 4.59697 18.6134 5.70685C20.0872 6.81673 21.1598 8.37598 21.6693 10.1491C22.1789 11.9223 22.0977 13.8131 21.438 15.5361C20.7783 17.259 19.5759 18.7206 18.0124 19.7C20.7385 20.5488 23.1608 22.1681 24.9874 24.3625ZM31.3999 19.25C31.3114 19.4033 31.1838 19.5304 31.03 19.6183C30.8763 19.7061 30.702 19.7516 30.5249 19.75C30.3487 19.7514 30.1756 19.7038 30.0249 19.6125L29.4499 19.275C29.1698 19.5152 28.8477 19.7016 28.4999 19.825V20.5C28.4999 20.7652 28.3946 21.0196 28.207 21.2071C28.0195 21.3946 27.7652 21.5 27.4999 21.5C27.2347 21.5 26.9804 21.3946 26.7928 21.2071C26.6053 21.0196 26.4999 20.7652 26.4999 20.5V19.825C26.1521 19.7016 25.8301 19.5152 25.5499 19.275L24.9749 19.6125C24.8242 19.7038 24.6511 19.7514 24.4749 19.75C24.2559 19.7487 24.0434 19.6755 23.87 19.5417C23.6966 19.4079 23.5719 19.2208 23.5152 19.0093C23.4584 18.7978 23.4726 18.5734 23.5557 18.3708C23.6387 18.1681 23.786 17.9983 23.9749 17.8875L24.5499 17.55C24.4833 17.1864 24.4833 16.8136 24.5499 16.45L23.9749 16.1125C23.8597 16.0488 23.7583 15.9627 23.6769 15.8593C23.5954 15.7559 23.5354 15.6372 23.5005 15.5102C23.4655 15.3833 23.4563 15.2506 23.4734 15.1201C23.4905 14.9895 23.5335 14.8637 23.5999 14.75C23.7355 14.521 23.9558 14.3546 24.2131 14.2867C24.4704 14.2189 24.7441 14.2551 24.9749 14.3875L25.5499 14.725C25.8301 14.4848 26.1521 14.2983 26.4999 14.175V13.5C26.4999 13.2348 26.6053 12.9804 26.7928 12.7929C26.9804 12.6053 27.2347 12.5 27.4999 12.5C27.7652 12.5 28.0195 12.6053 28.207 12.7929C28.3946 12.9804 28.4999 13.2348 28.4999 13.5V14.175C28.8477 14.2983 29.1698 14.4848 29.4499 14.725L30.0249 14.3875C30.2558 14.2551 30.5295 14.2189 30.7868 14.2867C31.0441 14.3546 31.2644 14.521 31.3999 14.75C31.4664 14.8637 31.5094 14.9895 31.5265 15.1201C31.5436 15.2506 31.5344 15.3833 31.4994 15.5102C31.4645 15.6372 31.4045 15.7559 31.323 15.8593C31.2415 15.9627 31.1402 16.0488 31.0249 16.1125L30.4499 16.45C30.5166 16.8136 30.5166 17.1864 30.4499 17.55L31.0249 17.8875C31.1402 17.9512 31.2415 18.0373 31.323 18.1407C31.4045 18.2441 31.4645 18.3628 31.4994 18.4898C31.5344 18.6167 31.5436 18.7494 31.5265 18.8799C31.5094 19.0105 31.4664 19.1363 31.3999 19.25ZM27.4999 18C27.6977 18 27.8911 17.9413 28.0555 17.8315C28.22 17.7216 28.3481 17.5654 28.4238 17.3827C28.4995 17.1999 28.5193 16.9989 28.4807 16.8049C28.4421 16.6109 28.3469 16.4327 28.207 16.2929C28.0672 16.153 27.889 16.0578 27.695 16.0192C27.501 15.9806 27.3 16.0004 27.1173 16.0761C26.9345 16.1518 26.7784 16.28 26.6685 16.4444C26.5586 16.6089 26.4999 16.8022 26.4999 17C26.4999 17.2652 26.6053 17.5196 26.7928 17.7071C26.9804 17.8946 27.2347 18 27.4999 18Z" fill="#344054"/>
</svg>
