<svg width="32" height="32" viewBox="0 0 32 32" fill="none" xmlns="http://www.w3.org/2000/svg">
<path d="M16 20.5C19.0376 20.5 21.5 18.0376 21.5 15C21.5 11.9624 19.0376 9.5 16 9.5C12.9624 9.5 10.5 11.9624 10.5 15C10.5 18.0376 12.9624 20.5 16 20.5Z" fill="#344054"/>
<path d="M26 4H6C5.46957 4 4.96086 4.21071 4.58579 4.58579C4.21071 4.96086 4 5.46957 4 6V26C4 26.5304 4.21071 27.0391 4.58579 27.4142C4.96086 27.7893 5.46957 28 6 28H26C26.5304 28 27.0391 27.7893 27.4142 27.4142C27.7893 27.0391 28 26.5304 28 26V6C28 5.46957 27.7893 4.96086 27.4142 4.58579C27.0391 4.21071 26.5304 4 26 4ZM26 26H25.5375C24.9428 24.1256 23.8131 22.4659 22.2875 21.225C21.9318 20.936 21.5558 20.6728 21.1625 20.4375C19.7704 21.7627 17.922 22.5018 16 22.5018C14.078 22.5018 12.2296 21.7627 10.8375 20.4375C10.4442 20.6728 10.0682 20.936 9.7125 21.225C8.18689 22.4659 7.05724 24.1256 6.4625 26H6V6H26V26Z" fill="#344054"/>
</svg>
