<svg width="32" height="32" viewBox="0 0 32 32" fill="none" xmlns="http://www.w3.org/2000/svg">
<path d="M15.0001 7C15.0001 6.20888 15.2347 5.43552 15.6742 4.77772C16.1138 4.11992 16.7385 3.60723 17.4694 3.30448C18.2003 3.00173 19.0045 2.92252 19.7805 3.07686C20.5564 3.2312 21.2691 3.61216 21.8285 4.17157C22.3879 4.73098 22.7689 5.44372 22.9233 6.21964C23.0776 6.99556 22.9984 7.79983 22.6956 8.53074C22.3929 9.26164 21.8802 9.88635 21.2224 10.3259C20.5646 10.7654 19.7912 11 19.0001 11C17.9403 10.9967 16.9248 10.5742 16.1753 9.82479C15.4259 9.07536 15.0034 8.05985 15.0001 7ZM28.0001 16.7C28.0001 16.4348 27.8948 16.1804 27.7072 15.9929C27.5197 15.8054 27.2653 15.7 27.0001 15.7C26.839 15.6987 26.6801 15.7374 26.5376 15.8125H26.5501C26.5376 15.8125 25.7376 16.2 24.2751 16.05C22.8126 15.9 20.5876 15.25 17.6126 12.9125C15.7376 11.45 12.8251 9.8375 9.56261 10.4625C7.58761 10.8375 6.45011 11.85 6.32511 11.9625C6.22681 12.0502 6.14706 12.1568 6.09056 12.2758C6.03407 12.3948 6.00196 12.5239 5.99613 12.6556C5.99031 12.7872 6.01089 12.9187 6.05665 13.0422C6.10242 13.1658 6.17244 13.2789 6.26261 13.375C6.44166 13.5705 6.69104 13.687 6.95592 13.6987C7.22079 13.7104 7.47948 13.6165 7.67511 13.4375C7.81261 13.3125 10.9001 10.6375 15.7501 14.0125C15.1559 16.0032 14.2305 17.8794 13.0126 19.5625L12.7126 19.95C10.3501 22.975 7.45011 24.325 4.10011 23.9875C3.83489 23.961 3.57 24.0409 3.36371 24.2097C3.15742 24.3785 3.02663 24.6223 3.00011 24.8875C2.97359 25.1527 3.05351 25.4176 3.22229 25.6239C3.39107 25.8302 3.63489 25.961 3.90011 25.9875C4.31261 26.025 4.70011 26.0375 5.08761 26.0375C9.16261 26.0375 12.1626 23.8625 14.2376 21.25C16.6626 21.9 21.0001 23.775 21.0001 28.9875C21.0001 29.2527 21.1055 29.5071 21.293 29.6946C21.4805 29.8821 21.7349 29.9875 22.0001 29.9875C22.2653 29.9875 22.5197 29.8821 22.7072 29.6946C22.8948 29.5071 23.0001 29.2527 23.0001 28.9875C23.0001 25.9 21.7376 23.3125 19.3501 21.5C18.0501 20.5125 16.6001 19.9 15.4501 19.525C16.2778 18.1854 16.9488 16.7552 17.4501 15.2625C20.6751 17.5 23.2251 18.05 24.9501 18.05C26.6751 18.05 27.3876 17.6125 27.4626 17.5625C27.6228 17.4821 27.7578 17.359 27.8526 17.2068C27.9474 17.0547 27.9985 16.8793 28.0001 16.7Z" fill="#344054"/>
</svg>
