<svg width="32" height="32" viewBox="0 0 32 32" fill="none" xmlns="http://www.w3.org/2000/svg">
<path d="M14.275 5L3.27504 24C3.0998 24.3035 3.00739 24.6478 3.00708 24.9982C3.00677 25.3487 3.09856 25.6931 3.27327 25.997C3.44797 26.3008 3.69945 26.5534 4.00251 26.7294C4.30556 26.9055 4.64956 26.9988 5.00004 27H27C27.3505 26.9988 27.6945 26.9055 27.9976 26.7294C28.3006 26.5534 28.5521 26.3008 28.7268 25.997C28.9015 25.6931 28.9933 25.3487 28.993 24.9982C28.9927 24.6478 28.9003 24.3035 28.725 24L17.725 5C17.5511 4.69608 17.3 4.44351 16.9971 4.26785C16.6941 4.09219 16.3502 3.99968 16 3.99968C15.6499 3.99968 15.3059 4.09219 15.003 4.26785C14.7001 4.44351 14.449 4.69608 14.275 5V5Z" stroke="#344054" stroke-width="1.5" stroke-linecap="round" stroke-linejoin="round"/>
</svg>
