<svg width="32" height="32" viewBox="0 0 32 32" fill="none" xmlns="http://www.w3.org/2000/svg">
<path d="M4.58745 21.625L7.61245 4.48749C7.63359 4.35815 7.68027 4.23431 7.74976 4.12319C7.81925 4.01207 7.91016 3.9159 8.0172 3.84027C8.12424 3.76465 8.24526 3.71109 8.37321 3.68271C8.50116 3.65433 8.63348 3.65171 8.76245 3.67499L15.6625 4.88749C15.9232 4.93624 16.1543 5.08533 16.3063 5.30272C16.4582 5.5201 16.5188 5.78842 16.475 6.04999L13.4375 23.2875C13.2294 24.4482 12.5753 25.4813 11.6152 26.1658C10.655 26.8503 9.46503 27.1318 8.29995 26.95C5.81245 26.55 4.14995 24.1125 4.58745 21.625Z" stroke="#344054" stroke-width="1.5" stroke-linecap="round" stroke-linejoin="round"/>
<path d="M14.7876 15.6L23.9001 12.2875C24.024 12.2417 24.1557 12.221 24.2877 12.2264C24.4196 12.2319 24.5492 12.2634 24.6689 12.3192C24.7886 12.375 24.8961 12.4539 24.9851 12.5515C25.0741 12.649 25.1429 12.7632 25.1876 12.8875L27.5876 19.4625C27.6761 19.7112 27.6627 19.9848 27.5503 20.2236C27.4379 20.4625 27.2356 20.6472 26.9876 20.7375L10.5376 26.725" stroke="#344054" stroke-width="1.5" stroke-linecap="round" stroke-linejoin="round"/>
<path d="M27.5 20.3125V26C27.5 26.2652 27.3946 26.5196 27.2071 26.7071C27.0196 26.8946 26.7652 27 26.5 27H9" stroke="#344054" stroke-width="1.5" stroke-linecap="round" stroke-linejoin="round"/>
<path d="M9 23.75C9.69036 23.75 10.25 23.1904 10.25 22.5C10.25 21.8096 9.69036 21.25 9 21.25C8.30964 21.25 7.75 21.8096 7.75 22.5C7.75 23.1904 8.30964 23.75 9 23.75Z" fill="#344054"/>
</svg>
