<svg width="32" height="32" viewBox="0 0 32 32" fill="none" xmlns="http://www.w3.org/2000/svg">
<path d="M25.825 26.7875L5.825 23.15C5.59326 23.1088 5.38348 22.9872 5.23258 22.8066C5.08167 22.6259 4.99931 22.3979 5 22.1625V9.8375C4.99931 9.60213 5.08167 9.37406 5.23258 9.19343C5.38348 9.0128 5.59326 8.89119 5.825 8.85L25.825 5.2125C25.9691 5.18688 26.1171 5.19322 26.2585 5.23106C26.3999 5.26891 26.5313 5.33734 26.6434 5.43152C26.7555 5.52571 26.8455 5.64334 26.9071 5.77613C26.9687 5.90892 27.0004 6.05361 27 6.2V25.8C27.0004 25.9464 26.9687 26.0911 26.9071 26.2239C26.8455 26.3567 26.7555 26.4743 26.6434 26.5685C26.5313 26.6627 26.3999 26.7311 26.2585 26.7689C26.1171 26.8068 25.9691 26.8131 25.825 26.7875Z" stroke="#344054" stroke-width="1.5" stroke-linecap="round" stroke-linejoin="round"/>
<path d="M2 16H30" stroke="#344054" stroke-width="1.5" stroke-linecap="round" stroke-linejoin="round"/>
</svg>
