<svg width="32" height="32" viewBox="0 0 32 32" fill="none" xmlns="http://www.w3.org/2000/svg">
<path d="M11.4375 12.4375L19.925 20.925" stroke="#344054" stroke-width="1.5" stroke-linecap="round" stroke-linejoin="round"/>
<path d="M26.9999 26.975H9.01243L4.37493 22.3375C4.18823 22.1527 4.04002 21.9327 3.93887 21.6902C3.83772 21.4478 3.78564 21.1877 3.78564 20.925C3.78564 20.6623 3.83772 20.4022 3.93887 20.1597C4.04002 19.9173 4.18823 19.6973 4.37493 19.5125L18.5124 5.37499C18.6972 5.18829 18.9172 5.04008 19.1597 4.93893C19.4021 4.83779 19.6622 4.78571 19.9249 4.78571C20.1876 4.78571 20.4477 4.83779 20.6902 4.93893C20.9326 5.04008 21.1526 5.18829 21.3374 5.37499L26.9999 11.025C27.3717 11.4036 27.58 11.9131 27.58 12.4437C27.58 12.9744 27.3717 13.4839 26.9999 13.8625L13.8749 26.975" stroke="#344054" stroke-width="1.5" stroke-linecap="round" stroke-linejoin="round"/>
</svg>
