<svg width="32" height="32" viewBox="0 0 32 32" fill="none" xmlns="http://www.w3.org/2000/svg">
<path d="M20.5625 4H11.4375C11.3077 3.99954 11.179 4.0247 11.0589 4.07404C10.9388 4.12337 10.8296 4.19591 10.7375 4.2875L4.28751 10.7375C4.19591 10.8295 4.12338 10.9388 4.07404 11.0589C4.02471 11.179 3.99955 11.3076 4.00001 11.4375V20.5625C3.99955 20.6923 4.02471 20.821 4.07404 20.9411C4.12338 21.0612 4.19591 21.1705 4.28751 21.2625L10.7375 27.7125C10.8296 27.8041 10.9388 27.8766 11.0589 27.926C11.179 27.9753 11.3077 28.0005 11.4375 28H20.5625C20.6924 28.0005 20.821 27.9753 20.9411 27.926C21.0613 27.8766 21.1705 27.8041 21.2625 27.7125L27.7125 21.2625C27.8041 21.1705 27.8766 21.0612 27.926 20.9411C27.9753 20.821 28.0005 20.6923 28 20.5625V11.4375C28.0005 11.3076 27.9753 11.179 27.926 11.0589C27.8766 10.9388 27.8041 10.8295 27.7125 10.7375L21.2625 4.2875C21.1705 4.19591 21.0613 4.12337 20.9411 4.07404C20.821 4.0247 20.6924 3.99954 20.5625 4V4Z" stroke="#344054" stroke-width="1.5" stroke-linecap="round" stroke-linejoin="round"/>
</svg>
