<svg width="32" height="32" viewBox="0 0 32 32" fill="none" xmlns="http://www.w3.org/2000/svg">
<path d="M27.7 18.675C27.9073 17.7648 28.008 16.8335 28 15.9C27.95 9.2875 22.475 3.9375 15.875 4C13.0554 4.02973 10.3363 5.05142 8.19484 6.88581C6.05337 8.7202 4.62626 11.2501 4.16391 14.0317C3.70155 16.8133 4.23349 19.6688 5.66639 22.0973C7.09928 24.5259 9.34161 26.3722 12 27.3125C12.4522 27.4754 12.937 27.5268 13.4133 27.4623C13.8896 27.3978 14.3433 27.2194 14.7359 26.9421C15.1285 26.6648 15.4485 26.2969 15.6685 25.8696C15.8886 25.4423 16.0023 24.9681 16 24.4875V24C15.9983 23.6056 16.0748 23.2147 16.225 22.85C16.3751 22.4853 16.596 22.1539 16.875 21.875C17.1539 21.5961 17.4852 21.3752 17.85 21.225C18.2147 21.0748 18.6055 20.9983 19 21H24.775C25.4536 21.0004 26.1124 20.7708 26.6436 20.3485C27.1749 19.9262 27.5473 19.3362 27.7 18.675V18.675Z" stroke="#344054" stroke-width="1.5" stroke-linecap="round" stroke-linejoin="round"/>
<path d="M16 10.75C16.6904 10.75 17.25 10.1904 17.25 9.5C17.25 8.80964 16.6904 8.25 16 8.25C15.3096 8.25 14.75 8.80964 14.75 9.5C14.75 10.1904 15.3096 10.75 16 10.75Z" fill="#344054"/>
<path d="M10.375 14C11.0654 14 11.625 13.4404 11.625 12.75C11.625 12.0596 11.0654 11.5 10.375 11.5C9.68464 11.5 9.125 12.0596 9.125 12.75C9.125 13.4404 9.68464 14 10.375 14Z" fill="#344054"/>
<path d="M10.375 20.5C11.0654 20.5 11.625 19.9404 11.625 19.25C11.625 18.5596 11.0654 18 10.375 18C9.68464 18 9.125 18.5596 9.125 19.25C9.125 19.9404 9.68464 20.5 10.375 20.5Z" fill="#344054"/>
<path d="M21.625 14C22.3154 14 22.875 13.4404 22.875 12.75C22.875 12.0596 22.3154 11.5 21.625 11.5C20.9346 11.5 20.375 12.0596 20.375 12.75C20.375 13.4404 20.9346 14 21.625 14Z" fill="#344054"/>
</svg>
