<svg width="32" height="32" viewBox="0 0 32 32" fill="none" xmlns="http://www.w3.org/2000/svg">
<path d="M21 10H30" stroke="#344054" stroke-width="1.5" stroke-linecap="round" stroke-linejoin="round"/>
<path d="M21 22H30" stroke="#344054" stroke-width="1.5" stroke-linecap="round" stroke-linejoin="round"/>
<path d="M21 14H30" stroke="#344054" stroke-width="1.5" stroke-linecap="round" stroke-linejoin="round"/>
<path d="M21 18H30" stroke="#344054" stroke-width="1.5" stroke-linecap="round" stroke-linejoin="round"/>
<path d="M11 25C9.8128 25 8.63735 24.7652 7.54132 24.309C6.4453 23.8528 5.45036 23.1843 4.61381 22.3419C3.77726 21.4995 3.11563 20.5 2.66703 19.4008C2.21844 18.3017 1.99173 17.1246 1.99997 15.9375C2.03747 10.975 6.14997 7 11.1125 7H16C16.2652 7 16.5195 7.10536 16.7071 7.29289C16.8946 7.48043 17 7.73478 17 8V24C17 24.2652 16.8946 24.5196 16.7071 24.7071C16.5195 24.8946 16.2652 25 16 25H11Z" stroke="#344054" stroke-width="1.5" stroke-linecap="round" stroke-linejoin="round"/>
</svg>
