<svg width="32" height="32" viewBox="0 0 32 32" fill="none" xmlns="http://www.w3.org/2000/svg">
<path d="M18 28H14" stroke="#344054" stroke-width="1.5" stroke-linecap="round" stroke-linejoin="round"/>
<path d="M15.3751 2.475C13.0001 4.375 5.06255 11.975 12.0001 24H20.0001C26.8001 11.975 18.9751 4.3875 16.6251 2.475C16.4497 2.32855 16.2285 2.24833 16.0001 2.24833C15.7716 2.24833 15.5504 2.32855 15.3751 2.475Z" stroke="#344054" stroke-width="1.5" stroke-linecap="round" stroke-linejoin="round"/>
<path d="M9.23744 13.925L5.31244 18.625C5.21356 18.7404 5.14379 18.8778 5.10899 19.0257C5.07419 19.1736 5.07538 19.3277 5.11244 19.475L6.64994 26.4375C6.68704 26.603 6.76563 26.7563 6.87831 26.8831C6.99099 27.0099 7.13405 27.1059 7.29406 27.1622C7.45407 27.2184 7.62575 27.233 7.79297 27.2047C7.96018 27.1763 8.11744 27.1059 8.24994 27L11.9999 24" stroke="#344054" stroke-width="1.5" stroke-linecap="round" stroke-linejoin="round"/>
<path d="M22.6875 13.825L26.6875 18.625C26.7864 18.7404 26.8561 18.8778 26.8909 19.0257C26.9257 19.1736 26.9246 19.3276 26.8875 19.475L25.35 26.4375C25.3129 26.603 25.2343 26.7563 25.1216 26.8831C25.009 27.0099 24.8659 27.1059 24.7059 27.1621C24.5459 27.2184 24.3742 27.233 24.207 27.2047C24.0398 27.1763 23.8825 27.1059 23.75 27L20 24" stroke="#344054" stroke-width="1.5" stroke-linecap="round" stroke-linejoin="round"/>
<path d="M16 13.25C16.6904 13.25 17.25 12.6904 17.25 12C17.25 11.3096 16.6904 10.75 16 10.75C15.3096 10.75 14.75 11.3096 14.75 12C14.75 12.6904 15.3096 13.25 16 13.25Z" fill="#344054"/>
</svg>
