<svg width="32" height="32" viewBox="0 0 32 32" fill="none" xmlns="http://www.w3.org/2000/svg">
<path d="M16 21C20.9706 21 25 16.9706 25 12C25 7.02944 20.9706 3 16 3C11.0294 3 7 7.02944 7 12C7 16.9706 11.0294 21 16 21Z" stroke="#344054" stroke-width="1.5" stroke-linecap="round" stroke-linejoin="round"/>
<path d="M25.1875 21.1875C22.7509 23.6242 19.446 24.9931 16 24.9931C12.5541 24.9931 9.24922 23.6242 6.81255 21.1875C4.37587 18.7508 3.00696 15.446 3.00696 12C3.00696 8.55402 4.37587 5.24918 6.81255 2.8125" stroke="#344054" stroke-width="1.5" stroke-linecap="round" stroke-linejoin="round"/>
<path d="M12 29H20" stroke="#344054" stroke-width="1.5" stroke-linecap="round" stroke-linejoin="round"/>
<path d="M16 25V29" stroke="#344054" stroke-width="1.5" stroke-linecap="round" stroke-linejoin="round"/>
</svg>
