<svg width="32" height="32" viewBox="0 0 32 32" fill="none" xmlns="http://www.w3.org/2000/svg">
<path d="M5.25 9H26.75" stroke="#344054" stroke-width="1.5" stroke-linecap="round" stroke-linejoin="round"/>
<path d="M5.25 15H26.75" stroke="#344054" stroke-width="1.5" stroke-linecap="round" stroke-linejoin="round"/>
<path d="M26.75 24H5.25003V8C5.24837 7.60557 5.32484 7.21472 5.47502 6.85C5.6252 6.48528 5.84611 6.1539 6.12502 5.875C6.40392 5.59609 6.7353 5.37517 7.10002 5.225C7.46475 5.07482 7.8556 4.99835 8.25003 5H23.75C24.1445 4.99835 24.5353 5.07482 24.9 5.225C25.2648 5.37517 25.5961 5.59609 25.875 5.875C26.1539 6.1539 26.3749 6.48528 26.525 6.85C26.6752 7.21472 26.7517 7.60557 26.75 8V24Z" stroke="#344054" stroke-width="1.5" stroke-linecap="round" stroke-linejoin="round"/>
<path d="M26.75 24V27C26.75 27.2652 26.6446 27.5196 26.4571 27.7071C26.2696 27.8946 26.0152 28 25.75 28H22.75C22.4848 28 22.2304 27.8946 22.0429 27.7071C21.8554 27.5196 21.75 27.2652 21.75 27V24" stroke="#344054" stroke-width="1.5" stroke-linecap="round" stroke-linejoin="round"/>
<path d="M10.25 24V27C10.25 27.2652 10.1446 27.5196 9.95711 27.7071C9.76957 27.8946 9.51522 28 9.25 28H6.25C5.98478 28 5.73043 27.8946 5.54289 27.7071C5.35536 27.5196 5.25 27.2652 5.25 27V24" stroke="#344054" stroke-width="1.5" stroke-linecap="round" stroke-linejoin="round"/>
<path d="M21.5 20.75C22.1904 20.75 22.75 20.1904 22.75 19.5C22.75 18.8096 22.1904 18.25 21.5 18.25C20.8096 18.25 20.25 18.8096 20.25 19.5C20.25 20.1904 20.8096 20.75 21.5 20.75Z" fill="#344054"/>
<path d="M10.5 20.75C11.1904 20.75 11.75 20.1904 11.75 19.5C11.75 18.8096 11.1904 18.25 10.5 18.25C9.80964 18.25 9.25 18.8096 9.25 19.5C9.25 20.1904 9.80964 20.75 10.5 20.75Z" fill="#344054"/>
</svg>
