<svg width="32" height="32" viewBox="0 0 32 32" fill="none" xmlns="http://www.w3.org/2000/svg">
<path d="M16 28C22.6274 28 28 22.6274 28 16C28 9.37258 22.6274 4 16 4C9.37258 4 4 9.37258 4 16C4 22.6274 9.37258 28 16 28Z" stroke="#344054" stroke-width="1.5" stroke-linecap="round" stroke-linejoin="round"/>
<path d="M6.19995 22.925L7.66245 22.0375C7.80749 21.948 7.92726 21.823 8.0104 21.6742C8.09353 21.5255 8.13726 21.3579 8.13745 21.1875L8.16245 16.675C8.16444 16.4879 8.22091 16.3055 8.32495 16.15L10.8 12.2625C10.8742 12.1476 10.971 12.049 11.0844 11.9726C11.1979 11.8962 11.3256 11.8435 11.4599 11.8178C11.5943 11.7921 11.7324 11.7939 11.8661 11.8231C11.9997 11.8522 12.126 11.9082 12.2375 11.9875L14.6875 13.7625C14.8988 13.9099 15.1561 13.9764 15.4125 13.95L19.35 13.4125C19.5888 13.3796 19.807 13.2594 19.9625 13.075L22.7374 9.875C22.902 9.67994 22.9868 9.42993 22.975 9.175L22.8375 6.1375" stroke="#344054" stroke-width="1.5" stroke-linecap="round" stroke-linejoin="round"/>
<path d="M23.3875 25.4625L22.0375 24.1125C21.9126 23.9877 21.7576 23.8973 21.5875 23.85L18.9 23.15C18.6639 23.0854 18.4598 22.9365 18.3261 22.7315C18.1925 22.5264 18.1387 22.2795 18.175 22.0375L18.4625 20.0125C18.491 19.8422 18.5621 19.6818 18.6692 19.5463C18.7763 19.4109 18.9158 19.3046 19.075 19.2375L22.875 17.65C23.0514 17.5764 23.2453 17.5549 23.4337 17.5882C23.622 17.6214 23.7968 17.7079 23.9375 17.8375L27.05 20.6875" stroke="#344054" stroke-width="1.5" stroke-linecap="round" stroke-linejoin="round"/>
</svg>
