<svg width="32" height="32" viewBox="0 0 32 32" fill="none" xmlns="http://www.w3.org/2000/svg">
<path d="M9 27H27" stroke="#344054" stroke-width="1.5" stroke-linecap="round" stroke-linejoin="round"/>
<path d="M3.35006 10H5.50006L8.00006 13H12.0001L10.4376 8.3125C10.3881 8.16229 10.3751 8.00251 10.3994 7.84626C10.4237 7.69001 10.4847 7.54176 10.5774 7.41366C10.6701 7.28557 10.7919 7.18129 10.9327 7.10938C11.0736 7.03747 11.2294 6.99999 11.3876 7H13.5001L19.0001 13H26.0001C27.0609 13 28.0783 13.4214 28.8285 14.1716C29.5786 14.9217 30.0001 15.9391 30.0001 17V20H7.97506C7.11598 19.9987 6.28014 19.7208 5.59126 19.2075C4.90237 18.6943 4.39705 17.9728 4.15006 17.15L2.38756 11.2875C2.34262 11.1378 2.3334 10.9796 2.36064 10.8257C2.38788 10.6718 2.45082 10.5264 2.5444 10.4012C2.63799 10.276 2.75963 10.1745 2.89954 10.1049C3.03946 10.0352 3.19376 9.99926 3.35006 10V10Z" stroke="#344054" stroke-width="1.5" stroke-linecap="round" stroke-linejoin="round"/>
</svg>
