<svg width="32" height="32" viewBox="0 0 32 32" fill="none" xmlns="http://www.w3.org/2000/svg">
<path d="M26.1875 10.05L21.9875 14L25.9875 25L22.9875 28L17.0125 19.25L13.9875 22V25L10.9875 28L9.21255 22.7625L3.98755 21L6.98755 18H9.98755L12.9875 15L3.98755 9L6.98755 6L17.9875 10L21.9501 5.8125L21.8625 5.875C22.4261 5.31142 23.1905 4.9948 23.9875 4.9948C24.7846 4.9948 25.549 5.31142 26.1125 5.875C26.6761 6.43859 26.9928 7.20297 26.9928 8C26.9928 8.79703 26.6761 9.56142 26.1125 10.125L26.1875 10.05Z" stroke="#344054" stroke-width="1.5" stroke-linecap="round" stroke-linejoin="round"/>
</svg>
