<svg width="32" height="32" viewBox="0 0 32 32" fill="none" xmlns="http://www.w3.org/2000/svg">
<path d="M18 18L21 15L18 12" stroke="#344054" stroke-width="1.5" stroke-linecap="round" stroke-linejoin="round"/>
<path d="M15.2953 2.21142L2.21382 15.2929C1.8233 15.6834 1.8233 16.3166 2.21382 16.7071L15.2997 29.793C15.6902 30.1835 16.3234 30.1835 16.7139 29.793L29.7954 16.7115C30.1859 16.321 30.1859 15.6878 29.7954 15.2973L16.7095 2.21142C16.319 1.82089 15.6858 1.82089 15.2953 2.21142Z" stroke="#344054" stroke-width="1.5" stroke-linecap="round" stroke-linejoin="round"/>
<path d="M11 19V18C10.9984 17.6056 11.0748 17.2147 11.225 16.85C11.3752 16.4853 11.5961 16.1539 11.875 15.875C12.1539 15.5961 12.4853 15.3752 12.85 15.225C13.2147 15.0748 13.6056 14.9983 14 15H21" stroke="#344054" stroke-width="1.5" stroke-linecap="round" stroke-linejoin="round"/>
</svg>
