<svg width="32" height="32" viewBox="0 0 32 32" fill="none" xmlns="http://www.w3.org/2000/svg">
<path d="M12 27H30" stroke="#344054" stroke-width="1.5" stroke-linecap="round" stroke-linejoin="round"/>
<path d="M3.00001 12.9625V6.3875C2.99999 6.22938 3.03748 6.0735 3.10939 5.93267C3.1813 5.79184 3.28558 5.67007 3.41367 5.57735C3.54176 5.48464 3.69002 5.42362 3.84627 5.39931C4.00251 5.375 4.1623 5.38809 4.31251 5.4375L6.00001 6L8.00001 9.75L12 11V6.3875C12 6.22938 12.0375 6.0735 12.1094 5.93267C12.1813 5.79184 12.2856 5.67007 12.4137 5.57735C12.5418 5.48464 12.69 5.42362 12.8463 5.39931C13.0025 5.375 13.1623 5.38809 13.3125 5.4375L15 6L19 13L25.075 14.6875C25.9169 14.9203 26.6592 15.423 27.1876 16.1186C27.716 16.8141 28.0015 17.664 28 18.5375V23L5.92501 16.8125C5.08306 16.5797 4.34085 16.077 3.81241 15.3814C3.28397 14.6859 2.99855 13.836 3.00001 12.9625V12.9625Z" stroke="#344054" stroke-width="1.5" stroke-linecap="round" stroke-linejoin="round"/>
</svg>
