<svg width="32" height="32" viewBox="0 0 32 32" fill="none" xmlns="http://www.w3.org/2000/svg">
<path d="M16 28C22.6274 28 28 22.6274 28 16C28 9.37258 22.6274 4 16 4C9.37258 4 4 9.37258 4 16C4 22.6274 9.37258 28 16 28Z" stroke="#344054" stroke-width="1.5" stroke-linecap="round" stroke-linejoin="round"/>
<path d="M26.775 21.3L19.9875 17.125C19.8706 17.0499 19.738 17.0028 19.6 16.9875L16.7375 16.6C16.5239 16.5693 16.3062 16.6104 16.1185 16.7167C15.9307 16.823 15.7835 16.9886 15.7 17.1875L13.9875 21.025C13.907 21.2035 13.8806 21.4017 13.9117 21.595C13.9429 21.7883 14.03 21.9683 14.1625 22.1125L16.5125 24.65C16.6187 24.7668 16.6965 24.9065 16.7399 25.0582C16.7833 25.21 16.791 25.3697 16.7625 25.525L16.275 28" stroke="#344054" stroke-width="1.5" stroke-linecap="round" stroke-linejoin="round"/>
<path d="M8.12497 6.95L6.99997 9.6C6.90198 9.83526 6.89751 10.0991 6.98747 10.3375L8.42497 14.1625C8.48115 14.3219 8.57731 14.4643 8.70426 14.5759C8.8312 14.6875 8.98467 14.7647 9.14997 14.8L11.825 15.375C11.9734 15.405 12.1129 15.4692 12.2322 15.5625C12.3516 15.6558 12.4475 15.7757 12.5125 15.9125L12.9875 16.9C13.0719 17.067 13.2004 17.2077 13.359 17.3068C13.5176 17.406 13.7004 17.4598 13.8875 17.4625H15.575" stroke="#344054" stroke-width="1.5" stroke-linecap="round" stroke-linejoin="round"/>
<path d="M19.0625 4.3875L20.225 6.4875C20.3323 6.68493 20.3709 6.91246 20.3347 7.13424C20.2985 7.35602 20.1895 7.55946 20.025 7.7125L16.6625 10.75C16.6062 10.8037 16.5431 10.85 16.475 10.8875L14.9375 11.7375C14.7909 11.8153 14.6283 11.858 14.4625 11.8625H11.7875C11.5904 11.8635 11.3979 11.922 11.2336 12.0308C11.0693 12.1396 10.9403 12.294 10.8625 12.475L9.82495 14.9375" stroke="#344054" stroke-width="1.5" stroke-linecap="round" stroke-linejoin="round"/>
</svg>
