<svg width="32" height="32" viewBox="0 0 32 32" fill="none" xmlns="http://www.w3.org/2000/svg">
<path d="M11 21L6 26" stroke="#344054" stroke-width="1.5" stroke-linecap="round" stroke-linejoin="round"/>
<path d="M19.2875 3.71251L11.5 11.5C11.5 11.5 8.03748 9.76251 4.32498 12.7625C4.21574 12.8509 4.12636 12.9613 4.06266 13.0866C3.99896 13.2119 3.96239 13.3492 3.95531 13.4895C3.94823 13.6299 3.97082 13.7701 4.02159 13.9012C4.07236 14.0322 4.15019 14.1511 4.24998 14.25L17.725 27.725C17.8259 27.8276 17.9477 27.9073 18.0822 27.9585C18.2166 28.0098 18.3606 28.0314 18.5042 28.0219C18.6478 28.0124 18.7876 27.972 18.9142 27.9035C19.0407 27.835 19.151 27.74 19.2375 27.625C20.2875 26.2375 21.9375 23.3625 20.5 20.5L28.2875 12.7125C28.382 12.6195 28.457 12.5086 28.5082 12.3862C28.5594 12.2639 28.5858 12.1326 28.5858 12C28.5858 11.8674 28.5594 11.7361 28.5082 11.6138C28.457 11.4915 28.382 11.3806 28.2875 11.2875L20.7125 3.71251C20.6194 3.61803 20.5085 3.54299 20.3862 3.49178C20.2639 3.44056 20.1326 3.41418 20 3.41418C19.8674 3.41418 19.7361 3.44056 19.6138 3.49178C19.4914 3.54299 19.3805 3.61803 19.2875 3.71251Z" stroke="#344054" stroke-width="1.5" stroke-linecap="round" stroke-linejoin="round"/>
</svg>
