<svg width="32" height="32" viewBox="0 0 32 32" fill="none" xmlns="http://www.w3.org/2000/svg">
<path d="M9.74998 18H23.75C24.2804 18 24.7891 17.7893 25.1642 17.4142C25.5393 17.0391 25.75 16.5304 25.75 16C25.75 15.4696 25.5393 14.9609 25.1642 14.5858C24.7891 14.2107 24.2804 14 23.75 14H5.74998C3.59998 14 1.84998 15.7875 1.84998 18C1.84998 20.2125 3.59998 22 5.74998 22H24C25.5913 22 27.1174 21.3679 28.2426 20.2426C29.3678 19.1174 30 17.5913 30 16C30 14.4087 29.3678 12.8826 28.2426 11.7574C27.1174 10.6321 25.5913 10 24 10H9.99998" stroke="#344054" stroke-width="1.5" stroke-linecap="round" stroke-linejoin="round"/>
</svg>
