<svg width="32" height="32" viewBox="0 0 32 32" fill="none" xmlns="http://www.w3.org/2000/svg">
<path d="M5.2625 6H26.7375C26.9315 6.00006 27.1212 6.05654 27.2837 6.16254C27.4461 6.26855 27.5742 6.41951 27.6524 6.59703C27.7306 6.77456 27.7554 6.97098 27.7239 7.16238C27.6924 7.35378 27.6059 7.53188 27.475 7.675L19.2625 16.7125C19.0916 16.8955 18.9976 17.1371 19 17.3875V24.4625C19.0015 24.6287 18.9611 24.7926 18.8824 24.939C18.8038 25.0854 18.6894 25.2095 18.55 25.3L14.55 27.9625C14.4 28.0613 14.2261 28.1179 14.0466 28.1263C13.8671 28.1347 13.6887 28.0945 13.5301 28.0101C13.3715 27.9257 13.2386 27.8001 13.1453 27.6466C13.052 27.493 13.0018 27.3172 13 27.1375V17.3875C13.0024 17.1371 12.9084 16.8955 12.7375 16.7125L4.525 7.675C4.39407 7.53188 4.30759 7.35378 4.27609 7.16238C4.24459 6.97098 4.26944 6.77456 4.3476 6.59703C4.42577 6.41951 4.55388 6.26855 4.71632 6.16254C4.87876 6.05654 5.06853 6.00006 5.2625 6V6Z" stroke="#344054" stroke-width="1.5" stroke-linecap="round" stroke-linejoin="round"/>
</svg>
