<svg width="32" height="32" viewBox="0 0 32 32" fill="none" xmlns="http://www.w3.org/2000/svg">
<path d="M15 11L11 28" stroke="#344054" stroke-width="1.5" stroke-linecap="round" stroke-linejoin="round"/>
<path d="M7.68749 19.575C6.81973 18.2774 6.2678 16.7947 6.07587 15.2455C5.88395 13.6964 6.05736 12.1238 6.58222 10.6537C7.10708 9.18355 7.96883 7.85672 9.09847 6.77939C10.2281 5.70206 11.5943 4.90415 13.0876 4.44952C14.5809 3.9949 16.16 3.89618 17.6983 4.16129C19.2366 4.42639 20.6915 5.04795 21.9465 5.97621C23.2016 6.90446 24.2218 8.11364 24.9257 9.50695C25.6296 10.9003 25.9975 12.439 26 14C26 19.525 22 23 18 23C14 23 12.8 20.3625 12.8 20.3625" stroke="#344054" stroke-width="1.5" stroke-linecap="round" stroke-linejoin="round"/>
</svg>
