<svg width="32" height="32" viewBox="0 0 32 32" fill="none" xmlns="http://www.w3.org/2000/svg">
<path d="M17.2625 4.0625C17.5532 3.30751 18.0661 2.65843 18.7333 2.20094C19.4006 1.74344 20.1909 1.49905 21 1.5" stroke="#344054" stroke-width="1.5" stroke-linecap="round" stroke-linejoin="round"/>
<path d="M27.3125 20.3625C25.7375 24.2125 22.8875 27 20.5 27H11.5C8 27 3.5 21 3.5 14.5C3.50052 13.0524 3.91995 11.6359 4.70768 10.4214C5.49542 9.20691 6.61779 8.24633 7.93936 7.65559C9.26093 7.06485 10.7252 6.86919 12.1555 7.09222C13.5858 7.31525 14.921 7.94744 16 8.9125V8.9125C16.7637 8.22827 17.6597 7.70792 18.6325 7.3836C19.6052 7.05929 20.6342 6.9379 21.6557 7.02693C22.6773 7.11597 23.6697 7.41353 24.5717 7.90125C25.4737 8.38896 26.2661 9.05646 26.9 9.8625V9.8625C25.9813 10.4172 25.2282 11.2082 24.7192 12.1531C24.2102 13.0979 23.9639 14.1619 24.006 15.2343C24.0482 16.3067 24.3772 17.3481 24.9587 18.2501C25.5403 19.1521 26.3531 19.8815 27.3125 20.3625V20.3625Z" stroke="#344054" stroke-width="1.5" stroke-linecap="round" stroke-linejoin="round"/>
</svg>
