<svg width="32" height="32" viewBox="0 0 32 32" fill="none" xmlns="http://www.w3.org/2000/svg">
<path d="M4.9751 28.0125C4.97662 28.1885 5.02459 28.361 5.11415 28.5126C5.2037 28.6641 5.33168 28.7894 5.48514 28.8756C5.6386 28.9619 5.81211 29.0061 5.98813 29.0038C6.16415 29.0015 6.33644 28.9527 6.4876 28.8625L27.4626 16.85C27.6169 16.768 27.746 16.6456 27.836 16.4959C27.926 16.3461 27.9735 16.1747 27.9735 16C27.9735 15.8253 27.926 15.6539 27.836 15.5041C27.746 15.3544 27.6169 15.232 27.4626 15.15L6.4876 3.13751C6.33644 3.04728 6.16415 2.99856 5.98813 2.99626C5.81211 2.99395 5.6386 3.03816 5.48514 3.1244C5.33168 3.21065 5.2037 3.33587 5.11415 3.48742C5.02459 3.63897 4.97662 3.81148 4.9751 3.98751V28.0125Z" stroke="#344054" stroke-width="1.5" stroke-linecap="round" stroke-linejoin="round"/>
<path d="M5.2749 3.27499L21.9874 19.9875" stroke="#344054" stroke-width="1.5" stroke-linecap="round" stroke-linejoin="round"/>
<path d="M5.2749 28.725L21.9874 12.0125" stroke="#344054" stroke-width="1.5" stroke-linecap="round" stroke-linejoin="round"/>
</svg>
