<svg width="32" height="32" viewBox="0 0 32 32" fill="none" xmlns="http://www.w3.org/2000/svg">
<path d="M20.5 20.75C21.1904 20.75 21.75 20.1904 21.75 19.5C21.75 18.8096 21.1904 18.25 20.5 18.25C19.8096 18.25 19.25 18.8096 19.25 19.5C19.25 20.1904 19.8096 20.75 20.5 20.75Z" fill="#344054"/>
<path d="M11.5 20.75C12.1904 20.75 12.75 20.1904 12.75 19.5C12.75 18.8096 12.1904 18.25 11.5 18.25C10.8096 18.25 10.25 18.8096 10.25 19.5C10.25 20.1904 10.8096 20.75 11.5 20.75Z" fill="#344054"/>
<path d="M3 24V21.1375C3 13.95 8.775 8.025 15.95 8C17.6614 7.99342 19.3572 8.32482 20.9402 8.97518C22.5232 9.62554 23.9623 10.5821 25.1747 11.7899C26.3872 12.9977 27.3492 14.433 28.0057 16.0135C28.6621 17.594 29 19.2886 29 21V24C29 24.2652 28.8946 24.5196 28.7071 24.7071C28.5196 24.8946 28.2652 25 28 25H4C3.73478 25 3.48043 24.8946 3.29289 24.7071C3.10536 24.5196 3 24.2652 3 24Z" stroke="#344054" stroke-width="1.5" stroke-linecap="round" stroke-linejoin="round"/>
<path d="M4 7L7.8875 10.8875" stroke="#344054" stroke-width="1.5" stroke-linecap="round" stroke-linejoin="round"/>
<path d="M28 7L24.1375 10.8625" stroke="#344054" stroke-width="1.5" stroke-linecap="round" stroke-linejoin="round"/>
</svg>
