<svg width="32" height="32" viewBox="0 0 32 32" fill="none" xmlns="http://www.w3.org/2000/svg">
<path d="M21.5 19.75C22.1904 19.75 22.75 19.1904 22.75 18.5C22.75 17.8096 22.1904 17.25 21.5 17.25C20.8096 17.25 20.25 17.8096 20.25 18.5C20.25 19.1904 20.8096 19.75 21.5 19.75Z" fill="#344054"/>
<path d="M25.7001 20.425C25.2458 22.2422 24.2903 23.8954 22.9424 25.1961C21.5944 26.4967 19.9083 27.3927 18.076 27.7818C16.2437 28.171 14.3389 28.0376 12.5787 27.3971C10.8185 26.7565 9.27358 25.6344 8.11998 24.1586C6.96638 22.6828 6.25047 20.9127 6.05381 19.0499C5.85715 17.1871 6.18764 15.3065 7.00764 13.6223C7.82765 11.9382 9.10418 10.5182 10.6918 9.52422C12.2795 8.53019 14.1144 8.00206 15.9876 8" stroke="#344054" stroke-width="1.5" stroke-linecap="round" stroke-linejoin="round"/>
<path d="M8.39996 11.4875C7.49462 11.4124 6.65394 10.9883 6.0556 10.3047C5.45726 9.62112 5.14815 8.73169 5.1936 7.82437C5.23904 6.91706 5.63549 6.06296 6.29914 5.4426C6.96279 4.82224 7.84165 4.48423 8.74996 4.49999L23.25 11.5C24.1782 11.5 25.0685 11.1312 25.7248 10.4749C26.3812 9.81849 26.75 8.92825 26.75 7.99999C26.75 7.07174 26.3812 6.1815 25.7248 5.52512C25.0685 4.86874 24.1782 4.49999 23.25 4.49999" stroke="#344054" stroke-width="1.5" stroke-linecap="round" stroke-linejoin="round"/>
<path d="M6.07495 19.2875L15.9875 14V28" stroke="#344054" stroke-width="1.5" stroke-linecap="round" stroke-linejoin="round"/>
<path d="M11.9875 16.1375V27.1625" stroke="#344054" stroke-width="1.5" stroke-linecap="round" stroke-linejoin="round"/>
</svg>
