<svg width="32" height="32" viewBox="0 0 32 32" fill="none" xmlns="http://www.w3.org/2000/svg">
<path d="M18 9H5C4.44772 9 4 9.44772 4 10V22C4 22.5523 4.44772 23 5 23H18C18.5523 23 19 22.5523 19 22V10C19 9.44772 18.5523 9 18 9Z" stroke="#344054" stroke-width="1.5" stroke-linecap="round" stroke-linejoin="round"/>
<path d="M19.0001 11H23.0001C23.2653 11 23.5197 11.1054 23.7072 11.2929C23.8947 11.4804 24.0001 11.7348 24.0001 12V21C24.0001 22.8565 23.2626 24.637 21.9498 25.9497C20.6371 27.2625 18.8566 28 17.0001 28V28C15.4924 27.9989 14.0252 27.5119 12.8161 26.6113C11.6069 25.7106 10.7203 24.4443 10.2876 23" stroke="#344054" stroke-width="1.5" stroke-linecap="round" stroke-linejoin="round"/>
<path d="M13.75 13H9.25" stroke="#344054" stroke-width="1.5" stroke-linecap="round" stroke-linejoin="round"/>
<path d="M11.5 19V13" stroke="#344054" stroke-width="1.5" stroke-linecap="round" stroke-linejoin="round"/>
<path d="M13.5375 9C13.1415 8.31498 12.9575 7.52791 13.0089 6.73833C13.0603 5.94876 13.3447 5.19216 13.8262 4.56425C14.3076 3.93633 14.9645 3.46531 15.7136 3.21076C16.4628 2.9562 17.2707 2.92956 18.035 3.1342C18.7993 3.33883 19.4858 3.76555 20.0075 4.36038C20.5293 4.95521 20.863 5.69143 20.9663 6.4759C21.0696 7.26037 20.9379 8.05785 20.5879 8.76748C20.2379 9.4771 19.6853 10.067 19 10.4625" stroke="#344054" stroke-width="1.5" stroke-linecap="round" stroke-linejoin="round"/>
<path d="M20.7624 5.65C21.2136 5.11603 21.825 4.74178 22.5057 4.5828C23.1865 4.42381 23.9004 4.48857 24.5414 4.76747C25.1824 5.04636 25.7165 5.52452 26.0642 6.13097C26.412 6.73742 26.5549 7.43984 26.4718 8.13396C26.3887 8.82808 26.084 9.47691 25.6029 9.98414C25.1218 10.4914 24.49 10.83 23.8013 10.9496C23.1125 11.0693 22.4035 10.9638 21.7795 10.6486C21.1555 10.3334 20.6498 9.8254 20.3374 9.2" stroke="#344054" stroke-width="1.5" stroke-linecap="round" stroke-linejoin="round"/>
<path d="M23.9999 11H27.4124C27.5682 11 27.7176 11.0619 27.8278 11.1721C27.938 11.2823 27.9999 11.4317 27.9999 11.5875V19C27.9999 20.0609 27.5785 21.0783 26.8283 21.8284C26.0782 22.5786 25.0608 23 23.9999 23H23.7124" stroke="#344054" stroke-width="1.5" stroke-linecap="round" stroke-linejoin="round"/>
</svg>
