<svg width="32" height="32" viewBox="0 0 32 32" fill="none" xmlns="http://www.w3.org/2000/svg">
<path d="M12 19.25C12.6904 19.25 13.25 18.6904 13.25 18C13.25 17.3096 12.6904 16.75 12 16.75C11.3096 16.75 10.75 17.3096 10.75 18C10.75 18.6904 11.3096 19.25 12 19.25Z" fill="#344054"/>
<path d="M20 19.25C20.6904 19.25 21.25 18.6904 21.25 18C21.25 17.3096 20.6904 16.75 20 16.75C19.3096 16.75 18.75 17.3096 18.75 18C18.75 18.6904 19.3096 19.25 20 19.25Z" fill="#344054"/>
<path d="M9.30005 10C11.4679 9.32059 13.7283 8.9832 16 9C18.2718 8.9832 20.5322 9.32059 22.7 10" stroke="#344054" stroke-width="1.5" stroke-linecap="round" stroke-linejoin="round"/>
<path d="M22.7 22C20.5322 22.6794 18.2718 23.0168 16 23C13.7283 23.0168 11.4679 22.6794 9.30005 22" stroke="#344054" stroke-width="1.5" stroke-linecap="round" stroke-linejoin="round"/>
<path d="M19.375 22.7625L20.8875 25.7625C20.9848 25.9671 21.1503 26.1314 21.3556 26.2272C21.5609 26.323 21.7931 26.3443 22.0125 26.2875C25.075 25.5375 27.725 24.2375 29.65 22.5625C29.7951 22.4345 29.9005 22.2675 29.9536 22.0814C30.0068 21.8953 30.0055 21.6979 29.95 21.5125L25.7125 7.3625C25.6712 7.2177 25.5966 7.08458 25.4945 6.97386C25.3925 6.86314 25.2659 6.77791 25.125 6.725C23.9278 6.23384 22.6896 5.84902 21.4249 5.575C21.1819 5.52178 20.9278 5.5599 20.7111 5.68209C20.4943 5.80429 20.3302 6.002 20.25 6.2375L19.2625 9.225" stroke="#344054" stroke-width="1.5" stroke-linecap="round" stroke-linejoin="round"/>
<path d="M12.625 22.7625L11.1125 25.7625C11.0152 25.9671 10.8496 26.1314 10.6443 26.2272C10.439 26.323 10.2068 26.3443 9.98747 26.2875C6.92497 25.5375 4.27497 24.2375 2.34997 22.5625C2.20484 22.4345 2.09945 22.2675 2.04628 22.0814C1.99311 21.8953 1.99439 21.6979 2.04997 21.5125L6.28747 7.3625C6.32871 7.2177 6.40335 7.08458 6.50538 6.97386C6.60742 6.86314 6.73401 6.77791 6.87497 6.725C8.07217 6.23384 9.31028 5.84902 10.575 5.575C10.818 5.52178 11.0721 5.5599 11.2889 5.68209C11.5056 5.80429 11.6697 6.002 11.75 6.2375L12.7375 9.225" stroke="#344054" stroke-width="1.5" stroke-linecap="round" stroke-linejoin="round"/>
</svg>
