<svg width="32" height="32" viewBox="0 0 32 32" fill="none" xmlns="http://www.w3.org/2000/svg">
<path d="M4 27C4 27 8 20 8 12C8 9.87827 8.84285 7.84344 10.3431 6.34315C11.8434 4.84285 13.8783 4 16 4C18.1217 4 20.1566 4.84285 21.6569 6.34315C23.1571 7.84344 24 9.87827 24 12C24 20 28 27 28 27" stroke="#344054" stroke-width="1.5" stroke-linecap="round" stroke-linejoin="round"/>
<path d="M12.5 14.75C13.1904 14.75 13.75 14.1904 13.75 13.5C13.75 12.8096 13.1904 12.25 12.5 12.25C11.8096 12.25 11.25 12.8096 11.25 13.5C11.25 14.1904 11.8096 14.75 12.5 14.75Z" fill="#344054"/>
<path d="M19.5 14.75C20.1904 14.75 20.75 14.1904 20.75 13.5C20.75 12.8096 20.1904 12.25 19.5 12.25C18.8096 12.25 18.25 12.8096 18.25 13.5C18.25 14.1904 18.8096 14.75 19.5 14.75Z" fill="#344054"/>
<path d="M20 18L16 20L12 18" stroke="#344054" stroke-width="1.5" stroke-linecap="round" stroke-linejoin="round"/>
<path d="M10.8 27C11.3287 26.0892 12.0873 25.3333 12.9998 24.8078C13.9124 24.2824 14.947 24.0058 16 24.0058C17.0531 24.0058 18.0877 24.2824 19.0003 24.8078C19.9128 25.3333 20.6714 26.0892 21.2 27" stroke="#344054" stroke-width="1.5" stroke-linecap="round" stroke-linejoin="round"/>
</svg>
