<svg width="32" height="32" viewBox="0 0 32 32" fill="none" xmlns="http://www.w3.org/2000/svg">
<path d="M27.45 5.1C27.2824 5.01995 27.0961 4.98696 26.9111 5.00458C26.7262 5.02219 26.5495 5.08974 26.4 5.2C22.8625 7.85 19.8625 6.575 16.4 5.0875C12.9375 3.6 8.8625 1.85 4.4 5.2C4.2758 5.29315 4.175 5.41393 4.10557 5.55279C4.03614 5.69164 4 5.84475 4 6V27C4 27.2652 4.10536 27.5196 4.29289 27.7071C4.48043 27.8946 4.73478 28 5 28C5.26522 28 5.51957 27.8946 5.70711 27.7071C5.89464 27.5196 6 27.2652 6 27V21.5125C9.3625 19.25 12.2625 20.4875 15.6 21.925C17.6375 22.7875 19.825 23.725 22.175 23.725C23.9 23.725 25.7125 23.225 27.6 21.8C27.7235 21.7062 27.8238 21.5853 27.8931 21.4466C27.9625 21.3079 27.999 21.1551 28 21V6C27.9985 5.81422 27.9465 5.63235 27.8496 5.47383C27.7528 5.3153 27.6146 5.18609 27.45 5.1ZM19.5 21.2875V14.6C17.1375 13.925 14.8625 12.6125 12.5 11.9375V18.6375C10.4625 18.1125 8.3 18.0375 6 19.2V12.6C8.2875 11.275 10.425 11.35 12.5 11.9375V5.7125C13.5547 6.05977 14.5896 6.46454 15.6 6.925C16.85 7.45 18.15 8.0125 19.5 8.3625V14.6C21.575 15.1875 23.7125 15.2625 26 13.9375V20.4875C23.7125 22.025 21.6375 21.95 19.5 21.2875Z" fill="#344054"/>
</svg>
