<svg width="32" height="32" viewBox="0 0 32 32" fill="none" xmlns="http://www.w3.org/2000/svg">
<path d="M16 22C21.5228 22 26 17.5228 26 12C26 6.47715 21.5228 2 16 2C10.4772 2 6 6.47715 6 12C6 17.5228 10.4772 22 16 22Z" fill="#344054"/>
<path d="M25.9001 21.9C26.0724 21.7098 26.165 21.4606 26.1587 21.2039C26.1524 20.9473 26.0476 20.703 25.8661 20.5214C25.6846 20.3399 25.4402 20.2352 25.1836 20.2288C24.927 20.2225 24.6778 20.3151 24.4876 20.4875C22.2365 22.7385 19.1835 24.0031 16.0001 24.0031C12.8166 24.0031 9.76358 22.7385 7.51255 20.4875C5.26153 18.2365 3.99692 15.1834 3.99692 12C3.99692 8.81657 5.26153 5.76352 7.51255 3.5125C7.61294 3.42154 7.6938 3.31113 7.75023 3.18798C7.80665 3.06482 7.83747 2.93149 7.8408 2.79606C7.84413 2.66064 7.81992 2.52595 7.76962 2.40017C7.71933 2.27438 7.644 2.16013 7.54821 2.06434C7.45242 1.96855 7.33817 1.89323 7.21239 1.84293C7.0866 1.79263 6.95191 1.76842 6.81649 1.77175C6.68107 1.77509 6.54773 1.8059 6.42457 1.86233C6.30142 1.91875 6.19101 1.99961 6.10005 2.1C4.20272 3.99779 2.8908 6.40089 2.32052 9.02315C1.75023 11.6454 1.94561 14.3763 2.88339 16.8907C3.82118 19.405 5.46184 21.5969 7.61002 23.2053C9.7582 24.8136 12.3234 25.7707 15.0001 25.9625V28H12.0001C11.7348 28 11.4805 28.1054 11.2929 28.2929C11.1054 28.4804 11.0001 28.7348 11.0001 29C11.0001 29.2652 11.1054 29.5196 11.2929 29.7071C11.4805 29.8946 11.7348 30 12.0001 30H20.0001C20.2653 30 20.5196 29.8946 20.7072 29.7071C20.8947 29.5196 21.0001 29.2652 21.0001 29C21.0001 28.7348 20.8947 28.4804 20.7072 28.2929C20.5196 28.1054 20.2653 28 20.0001 28H17.0001V25.9625C20.3599 25.7271 23.5211 24.2842 25.9001 21.9Z" fill="#344054"/>
</svg>
