<svg width="32" height="32" viewBox="0 0 32 32" fill="none" xmlns="http://www.w3.org/2000/svg">
<path d="M23.5 3H8.5C7.44015 3.0033 6.42465 3.42578 5.67521 4.17521C4.92578 4.92465 4.5033 5.94015 4.5 7V23C4.5033 24.0599 4.92578 25.0754 5.67521 25.8248C6.42465 26.5742 7.44015 26.9967 8.5 27H10L8.2 29.4C8.04087 29.6122 7.97254 29.8789 8.01005 30.1414C8.04756 30.404 8.18783 30.6409 8.4 30.8C8.57176 30.9323 8.78318 31.0028 9 31C9.15525 31 9.30836 30.9639 9.44721 30.8944C9.58607 30.825 9.70685 30.7242 9.8 30.6L12.5 27H19.5L22.2 30.6C22.2931 30.7242 22.4139 30.825 22.5528 30.8944C22.6916 30.9639 22.8448 31 23 31C23.2168 31.0028 23.4282 30.9323 23.6 30.8C23.7051 30.7212 23.7936 30.6225 23.8605 30.5095C23.9274 30.3965 23.9714 30.2714 23.99 30.1414C24.0085 30.0114 24.0013 29.879 23.9687 29.7518C23.9361 29.6246 23.8788 29.5051 23.8 29.4L22 27H23.5C24.5599 26.9967 25.5754 26.5742 26.3248 25.8248C27.0742 25.0754 27.4967 24.0599 27.5 23V7C27.4967 5.94015 27.0742 4.92465 26.3248 4.17521C25.5754 3.42578 24.5599 3.0033 23.5 3ZM23.5 25H8.5C7.96957 25 7.46086 24.7893 7.08579 24.4142C6.71071 24.0391 6.5 23.5304 6.5 23V17H25.5V23C25.5 23.5304 25.2893 24.0391 24.9142 24.4142C24.5391 24.7893 24.0304 25 23.5 25Z" fill="#344054"/>
<path d="M10.5 23C11.3284 23 12 22.3284 12 21.5C12 20.6716 11.3284 20 10.5 20C9.67157 20 9 20.6716 9 21.5C9 22.3284 9.67157 23 10.5 23Z" fill="#344054"/>
<path d="M21.5 23C22.3284 23 23 22.3284 23 21.5C23 20.6716 22.3284 20 21.5 20C20.6716 20 20 20.6716 20 21.5C20 22.3284 20.6716 23 21.5 23Z" fill="#344054"/>
</svg>
