<svg width="32" height="32" viewBox="0 0 32 32" fill="none" xmlns="http://www.w3.org/2000/svg">
<path d="M27.9375 21.15C27.9636 21.1024 27.9846 21.0521 28 21C29.1387 18.2678 29.311 15.2287 28.4882 12.3853C27.6654 9.54189 25.8969 7.06442 23.475 5.3625L23.325 5.275C21.1712 3.79009 18.6161 2.99653 16 3C13.6267 3.00085 11.299 3.65136 9.26908 4.881C7.23919 6.11064 5.58465 7.8725 4.48483 9.97555C3.38501 12.0786 2.88188 14.4426 3.02998 16.8113C3.17808 19.1799 3.97177 21.4628 5.325 23.4125V23.4375C5.35532 23.4854 5.38873 23.5314 5.425 23.575C6.44052 24.9906 7.73024 26.1877 9.21751 27.0951C10.7048 28.0024 12.3593 28.6016 14.0827 28.857C15.8061 29.1123 17.5632 29.0187 19.2497 28.5816C20.9362 28.1445 22.5176 27.3728 23.9 26.3125L24.075 26.175C25.7526 24.8396 27.0785 23.1146 27.9375 21.15ZM7.6875 23.2L8.175 22.9C8.46906 22.7244 8.71241 22.4754 8.88116 22.1773C9.0499 21.8793 9.13824 21.5425 9.1375 21.2L9.1625 16.975C9.16623 16.7843 9.22245 16.5983 9.325 16.4375L11.075 13.6875C11.1481 13.573 11.2437 13.4747 11.356 13.3984C11.4684 13.3221 11.5951 13.2695 11.7284 13.2437C11.8617 13.218 11.9989 13.2197 12.1316 13.2487C12.2642 13.2777 12.3896 13.3335 12.5 13.4125L14.1 14.575C14.521 14.8729 15.0383 15.0022 15.55 14.9375L19.475 14.4C19.961 14.3378 20.4065 14.0973 20.725 13.725L23.4875 10.525C23.6573 10.3354 23.7877 10.1141 23.8714 9.87381C23.9551 9.63351 23.9903 9.379 23.975 9.125L23.95 8.4C25.9102 10.4442 27.0032 13.1678 27 16C27.0012 16.9887 26.8666 17.9729 26.6 18.925L24.6125 17.1C24.3316 16.8446 23.9842 16.6739 23.6104 16.6075C23.2366 16.5412 22.8516 16.5819 22.5 16.725L18.6875 18.3125C18.3696 18.4454 18.0912 18.6578 17.8789 18.9292C17.6666 19.2006 17.5275 19.522 17.475 19.8625L17.175 21.8875C17.106 22.3761 17.2178 22.8731 17.4894 23.2852C17.761 23.6972 18.1737 23.9958 18.65 24.125L21.3375 24.825L21.8375 25.325C19.6131 26.7166 16.9645 27.2673 14.3698 26.8776C11.775 26.4879 9.40502 25.1836 7.6875 23.2Z" fill="#344054"/>
</svg>
