<svg width="32" height="32" viewBox="0 0 32 32" fill="none" xmlns="http://www.w3.org/2000/svg">
<path d="M30.5 14.5875L17.4125 1.49999C17.2277 1.31329 17.0077 1.16508 16.7652 1.06393C16.5228 0.962786 16.2627 0.910706 16 0.910706C15.7373 0.910706 15.4772 0.962786 15.2347 1.06393C14.9923 1.16508 14.7723 1.31329 14.5875 1.49999L1.49999 14.5875C1.12899 14.964 0.921021 15.4714 0.921021 16C0.921021 16.5286 1.12899 17.036 1.49999 17.4125L14.5875 30.5C14.7723 30.6867 14.9923 30.8349 15.2347 30.9361C15.4772 31.0372 15.7373 31.0893 16 31.0893C16.2627 31.0893 16.5228 31.0372 16.7652 30.9361C17.0077 30.8349 17.2277 30.6867 17.4125 30.5L30.5 17.4125C30.871 17.036 31.079 16.5286 31.079 16C31.079 15.4714 30.871 14.964 30.5 14.5875ZM22 15V15.1C21.9955 15.1051 21.992 15.111 21.9899 15.1175C21.9877 15.1239 21.9869 15.1307 21.9875 15.1375C21.9894 15.1591 21.9851 15.1808 21.975 15.2C21.9753 15.2175 21.971 15.2347 21.9625 15.25V15.2875L21.9375 15.3375C21.9375 15.35 21.925 15.3625 21.925 15.3875L21.9 15.425V15.475L21.875 15.5125C21.8625 15.525 21.85 15.5375 21.85 15.55L21.8125 15.6L21.7875 15.6375L21.725 15.7L18.725 18.7C18.5339 18.8848 18.2784 18.9881 18.0125 18.9881C17.7466 18.9881 17.4911 18.8848 17.3 18.7C17.1122 18.5104 17.0069 18.2543 17.0069 17.9875C17.0069 17.7206 17.1122 17.4646 17.3 17.275L18.5875 16H14C13.4696 16 12.9609 16.2107 12.5858 16.5858C12.2107 16.9609 12 17.4696 12 18V19C12 19.2652 11.8946 19.5196 11.7071 19.7071C11.5196 19.8946 11.2652 20 11 20C10.7348 20 10.4804 19.8946 10.2929 19.7071C10.1054 19.5196 9.99999 19.2652 9.99999 19V18C10.0033 16.9401 10.4258 15.9246 11.1752 15.1752C11.9246 14.4258 12.9401 14.0033 14 14H18.5875L17.2875 12.7125C17.128 12.5182 17.0465 12.2715 17.0589 12.0205C17.0712 11.7694 17.1765 11.5319 17.3542 11.3542C17.5319 11.1765 17.7694 11.0712 18.0205 11.0589C18.2715 11.0465 18.5182 11.128 18.7125 11.2875L21.7125 14.2875L21.775 14.35L21.8 14.3875L21.8375 14.4375C21.8375 14.45 21.85 14.4625 21.8625 14.475L21.8875 14.5125V14.5625L21.9125 14.6C21.9125 14.625 21.925 14.6375 21.925 14.65L21.95 14.7V14.7375C21.9585 14.7528 21.9628 14.77 21.9625 14.7875C21.9726 14.8067 21.9769 14.8284 21.975 14.85C21.9744 14.8568 21.9752 14.8636 21.9774 14.87C21.9795 14.8765 21.983 14.8824 21.9875 14.8875V14.9875L22 15Z" fill="#344054"/>
</svg>
