<svg width="32" height="32" viewBox="0 0 32 32" fill="none" xmlns="http://www.w3.org/2000/svg">
<path d="M27.35 12.9625L17.35 3.875C16.9813 3.5377 16.4997 3.35064 16 3.35064C15.5003 3.35064 15.0187 3.5377 14.65 3.875L4.65 12.9625C4.44526 13.1498 4.28173 13.3777 4.16983 13.6316C4.05792 13.8856 4.00009 14.16 4 14.4375V26C4 26.5304 4.21071 27.0391 4.58579 27.4142C4.96086 27.7893 5.46957 28 6 28H26C26.5304 28 27.0391 27.7893 27.4142 27.4142C27.7893 27.0391 28 26.5304 28 26V14.4375C27.9999 14.16 27.9421 13.8856 27.8302 13.6316C27.7183 13.3777 27.5547 13.1498 27.35 12.9625Z" fill="#344054"/>
</svg>
