<svg width="32" height="32" viewBox="0 0 32 32" fill="none" xmlns="http://www.w3.org/2000/svg">
<path d="M22.0001 27C22.0001 27.2652 21.8947 27.5196 21.7072 27.7071C21.5196 27.8946 21.2653 28 21.0001 28H3.00006C2.73484 28 2.48049 27.8946 2.29295 27.7071C2.10541 27.5196 2.00006 27.2652 2.00006 27C2.00006 26.7348 2.10541 26.4804 2.29295 26.2929C2.48049 26.1054 2.73484 26 3.00006 26H21.0001C21.2653 26 21.5196 26.1054 21.7072 26.2929C21.8947 26.4804 22.0001 26.7348 22.0001 27ZM30.8876 11.1875L28.5626 8.3375C27.8831 7.50223 26.9259 6.93912 25.8657 6.75095C24.8055 6.56278 23.713 6.76209 22.7876 7.3125L17.4376 10.45L10.1626 8.025C10.0442 7.98484 9.91533 7.98928 9.80006 8.0375L7.73756 8.925C7.50733 9.02459 7.30575 9.18034 7.15127 9.37798C6.99679 9.57562 6.89435 9.80885 6.85331 10.0563C6.81227 10.3038 6.83395 10.5576 6.91636 10.7945C6.99878 11.0314 7.1393 11.2439 7.32506 11.4125L10.6501 14.4125L7.96256 15.9375L4.70006 14.5375C4.57145 14.4873 4.42867 14.4873 4.30006 14.5375L2.21256 15.4375C1.98293 15.5353 1.78133 15.6888 1.62603 15.8842C1.47073 16.0796 1.36664 16.3107 1.32319 16.5565C1.27975 16.8022 1.29832 17.055 1.37722 17.2918C1.45612 17.5285 1.59287 17.7419 1.77506 17.9125L6.48756 22.325C7.19104 22.9911 8.09168 23.4109 9.05416 23.5214C10.0166 23.6318 10.989 23.4269 11.8251 22.9375L30.7501 11.9375C30.8128 11.9001 30.8666 11.8493 30.9076 11.7888C30.9487 11.7284 30.976 11.6596 30.9876 11.5875C30.9995 11.5175 30.9968 11.4459 30.9796 11.377C30.9623 11.3081 30.931 11.2436 30.8876 11.1875Z" fill="#344054"/>
</svg>
