<svg width="32" height="32" viewBox="0 0 32 32" fill="none" xmlns="http://www.w3.org/2000/svg">
<path d="M16 3.5C13.5277 3.5 11.111 4.23311 9.05538 5.60663C6.99976 6.98015 5.39761 8.93238 4.45151 11.2165C3.50542 13.5005 3.25787 16.0139 3.74019 18.4386C4.2225 20.8634 5.41301 23.0907 7.16117 24.8388C8.90933 26.587 11.1366 27.7775 13.5614 28.2598C15.9861 28.7421 18.4995 28.4946 20.7835 27.5485C23.0676 26.6024 25.0199 25.0002 26.3934 22.9446C27.7669 20.889 28.5 18.4723 28.5 16C28.4934 12.6868 27.1743 9.51124 24.8315 7.16846C22.4888 4.82569 19.3132 3.50661 16 3.5ZM17 26.45V22.5C17 22.2348 16.8946 21.9804 16.7071 21.7929C16.5196 21.6054 16.2652 21.5 16 21.5C15.7348 21.5 15.4804 21.6054 15.2929 21.7929C15.1054 21.9804 15 22.2348 15 22.5V26.45C12.5743 26.2126 10.3061 25.1408 8.58268 23.4173C6.85924 21.6939 5.78736 19.4257 5.55001 17H9.50001C9.76522 17 10.0196 16.8946 10.2071 16.7071C10.3946 16.5196 10.5 16.2652 10.5 16C10.5 15.7348 10.3946 15.4804 10.2071 15.2929C10.0196 15.1054 9.76522 15 9.50001 15H5.55001C5.78736 12.5743 6.85924 10.3061 8.58268 8.58267C10.3061 6.85923 12.5743 5.78736 15 5.55V9.5C15 9.76522 15.1054 10.0196 15.2929 10.2071C15.4804 10.3946 15.7348 10.5 16 10.5C16.2652 10.5 16.5196 10.3946 16.7071 10.2071C16.8946 10.0196 17 9.76522 17 9.5V5.55C19.4257 5.78736 21.6939 6.85923 23.4173 8.58267C25.1408 10.3061 26.2127 12.5743 26.45 15H22.5C22.2348 15 21.9804 15.1054 21.7929 15.2929C21.6054 15.4804 21.5 15.7348 21.5 16C21.5 16.2652 21.6054 16.5196 21.7929 16.7071C21.9804 16.8946 22.2348 17 22.5 17H26.45C26.2127 19.4257 25.1408 21.6939 23.4173 23.4173C21.6939 25.1408 19.4257 26.2126 17 26.45Z" fill="#344054"/>
</svg>
