<svg width="32" height="32" viewBox="0 0 32 32" fill="none" xmlns="http://www.w3.org/2000/svg">
<path d="M26.875 10.775L23.15 14.275L26.925 24.6625C26.9897 24.8419 27.0017 25.0361 26.9596 25.2222C26.9176 25.4082 26.8231 25.5784 26.6875 25.7125L23.6875 28.7125C23.5825 28.8149 23.4568 28.8935 23.3188 28.9431C23.1807 28.9927 23.0337 29.0121 22.8875 29C22.7423 28.9837 22.6023 28.9362 22.4771 28.8607C22.352 28.7852 22.2446 28.6834 22.1625 28.5625L16.8375 20.775L14.4875 22.9375V25.5C14.4844 25.7676 14.3767 26.0233 14.1875 26.2125L11.6875 28.7125C11.5955 28.8041 11.4863 28.8766 11.3662 28.926C11.2461 28.9753 11.1174 29.0005 10.9875 29L10.7625 28.975C10.5963 28.9374 10.4425 28.858 10.3156 28.7442C10.1887 28.6304 10.093 28.4861 10.0375 28.325L8.42504 23.5625L3.66254 21.95C3.5014 21.8946 3.3571 21.7988 3.24334 21.672C3.12958 21.5451 3.05013 21.3912 3.01254 21.225C2.97627 21.0592 2.98123 20.887 3.027 20.7236C3.07276 20.5601 3.15793 20.4104 3.27504 20.2875L5.77504 17.7875C5.96554 17.6018 6.22149 17.4985 6.48754 17.5H9.07504L11.4125 15.15L3.42504 9.8375C3.30594 9.75064 3.20574 9.64048 3.13053 9.5137C3.05532 9.38691 3.00667 9.24617 2.98754 9.1C2.9736 8.95182 2.99209 8.80238 3.04174 8.66207C3.09139 8.52176 3.171 8.39394 3.27504 8.2875L6.27504 5.2875C6.4097 5.1527 6.58047 5.05973 6.76678 5.01981C6.95309 4.97988 7.14697 4.99471 7.32504 5.0625L17.7125 8.8375L21.0375 5.3125C21.0724 5.26092 21.1145 5.21461 21.1625 5.175C21.8957 4.46128 22.8746 4.05566 23.8977 4.04159C24.9208 4.02752 25.9104 4.40607 26.6629 5.09936C27.4155 5.79266 27.8737 6.74798 27.9434 7.76882C28.0131 8.78966 27.6889 9.79838 27.0375 10.5875C26.9935 10.6581 26.9386 10.7213 26.875 10.775Z" fill="#344054"/>
</svg>
