<svg width="32" height="32" viewBox="0 0 32 32" fill="none" xmlns="http://www.w3.org/2000/svg">
<path d="M27.4375 11.05L6.27495 3.725C5.91934 3.60002 5.53565 3.57808 5.16811 3.6617C4.80057 3.74533 4.46414 3.93112 4.1976 4.19765C3.93107 4.46418 3.74528 4.80061 3.66166 5.16815C3.57803 5.5357 3.59997 5.91939 3.72495 6.275L11.05 27.4375C11.1819 27.8329 11.4355 28.1765 11.7745 28.419C12.1136 28.6614 12.5206 28.7905 12.9375 28.7875H12.975C13.3969 28.7884 13.8077 28.6524 14.1458 28.4C14.4839 28.1476 14.731 27.7923 14.85 27.3875L17.8 17.8125L27.375 14.85C27.78 14.7297 28.1358 14.4826 28.39 14.1451C28.6443 13.8076 28.7836 13.3975 28.7875 12.975C28.7965 12.5523 28.6704 12.1377 28.4276 11.7915C28.1849 11.4453 27.838 11.1855 27.4375 11.05Z" fill="#344054"/>
</svg>
