<svg width="32" height="32" viewBox="0 0 32 32" fill="none" xmlns="http://www.w3.org/2000/svg">
<path d="M23.75 4H8.25C7.19015 4.0033 6.17465 4.42578 5.42521 5.17521C4.67578 5.92465 4.2533 6.94015 4.25 8V27C4.25 27.5304 4.46071 28.0391 4.83579 28.4142C5.21086 28.7893 5.71957 29 6.25 29H9.25C9.78043 29 10.2891 28.7893 10.6642 28.4142C11.0393 28.0391 11.25 27.5304 11.25 27V25H20.75V27C20.75 27.5304 20.9607 28.0391 21.3358 28.4142C21.7109 28.7893 22.2196 29 22.75 29H25.75C26.2804 29 26.7891 28.7893 27.1642 28.4142C27.5393 28.0391 27.75 27.5304 27.75 27V8C27.7467 6.94015 27.3242 5.92465 26.5748 5.17521C25.8254 4.42578 24.8099 4.0033 23.75 4ZM10.25 21C9.95333 21 9.66332 20.912 9.41665 20.7472C9.16997 20.5824 8.97771 20.3481 8.86418 20.074C8.75065 19.7999 8.72094 19.4983 8.77882 19.2074C8.8367 18.9164 8.97956 18.6491 9.18934 18.4393C9.39912 18.2296 9.66639 18.0867 9.95736 18.0288C10.2483 17.9709 10.5499 18.0007 10.824 18.1142C11.0981 18.2277 11.3324 18.42 11.4972 18.6666C11.662 18.9133 11.75 19.2033 11.75 19.5C11.75 19.8978 11.592 20.2794 11.3107 20.5607C11.0294 20.842 10.6478 21 10.25 21ZM21.75 21C21.4533 21 21.1633 20.912 20.9166 20.7472C20.67 20.5824 20.4777 20.3481 20.3642 20.074C20.2507 19.7999 20.2209 19.4983 20.2788 19.2074C20.3367 18.9164 20.4796 18.6491 20.6893 18.4393C20.8991 18.2296 21.1664 18.0867 21.4574 18.0288C21.7483 17.9709 22.0499 18.0007 22.324 18.1142C22.5981 18.2277 22.8324 18.42 22.9972 18.6666C23.162 18.9133 23.25 19.2033 23.25 19.5C23.25 19.8978 23.092 20.2794 22.8107 20.5607C22.5294 20.842 22.1478 21 21.75 21ZM25.75 15H6.25V9H25.75V15Z" fill="#344054"/>
</svg>
