<svg width="32" height="32" viewBox="0 0 32 32" fill="none" xmlns="http://www.w3.org/2000/svg">
<path d="M27.6999 21.6625C28.5595 19.8988 29.0041 17.9619 28.9999 16C28.9961 13.1365 28.0486 10.354 26.3042 8.08312C24.5598 5.81223 22.1157 4.17949 19.3499 3.4375H19.2874C17.2595 2.90357 15.1323 2.86916 13.0881 3.33721C11.0439 3.80527 9.14357 4.76184 7.54995 6.125L7.38745 6.275C5.40867 8.0214 4.0089 10.3292 3.37459 12.8911C2.74027 15.4529 2.90151 18.1472 3.83682 20.6152C4.77214 23.0831 6.43714 25.2075 8.61007 26.7054C10.783 28.2034 13.3607 29.0038 15.9999 29H16.2999C18.6604 28.9417 20.9608 28.2434 22.9554 26.9797C24.95 25.716 26.5639 23.9344 27.6249 21.825L27.6999 21.6625ZM26.9999 16C26.9977 17.3096 26.7649 18.6086 26.3124 19.8375L20.5124 16.275C20.2732 16.1246 20.0048 16.0266 19.7249 15.9875L16.8749 15.6125C16.5089 15.5652 16.1368 15.6194 15.7995 15.7693C15.4622 15.9193 15.1726 16.1591 14.9624 16.4625H13.8874L13.4124 15.475C13.2794 15.2023 13.0867 14.963 12.8487 14.7747C12.6107 14.5865 12.3335 14.4542 12.0374 14.3875L11.2124 14.2125L11.5249 13.475C11.6028 13.294 11.7318 13.1396 11.8961 13.0308C12.0604 12.922 12.2529 12.8635 12.4499 12.8625H14.4624C14.7991 12.861 15.1301 12.775 15.4249 12.6125L16.9499 11.7625C17.0845 11.6895 17.2103 11.6015 17.3249 11.5L20.6874 8.45C20.9801 8.19337 21.1899 7.85549 21.2901 7.47932C21.3902 7.10316 21.3763 6.7057 21.2499 6.3375C22.9889 7.28196 24.4408 8.67802 25.4528 10.3786C26.4648 12.0791 26.9993 14.0211 26.9999 16ZM4.99995 16C4.99709 14.2751 5.4041 12.5742 6.18745 11.0375L7.48745 14.525C7.60633 14.8374 7.80115 15.1152 8.0543 15.3335C8.30745 15.5517 8.61097 15.7034 8.93745 15.775L9.62495 15.925H9.63745L11.1374 16.25C11.2859 16.28 11.4254 16.3442 11.5447 16.4375C11.664 16.5308 11.76 16.6507 11.8249 16.7875L12.0874 17.3375C12.2528 17.6741 12.509 17.9578 12.8271 18.1566C13.1451 18.3554 13.5124 18.4613 13.8874 18.4625H14.0374L13.0749 20.6125C12.9123 20.9691 12.8588 21.3659 12.921 21.7529C12.9833 22.1399 13.1586 22.4999 13.4249 22.7875L15.4374 24.9625C15.5411 25.0784 15.6173 25.216 15.6606 25.3653C15.7039 25.5146 15.713 25.6717 15.6874 25.825L15.4624 26.9875C12.6424 26.8465 9.98432 25.6277 8.03723 23.5829C6.09013 21.5381 5.00283 18.8235 4.99995 16Z" fill="#344054"/>
</svg>
