<svg width="32" height="32" viewBox="0 0 32 32" fill="none" xmlns="http://www.w3.org/2000/svg">
<path d="M31 27C31 27.2652 30.8947 27.5196 30.7071 27.7071C30.5196 27.8946 30.2652 28 30 28H12C11.7348 28 11.4804 27.8946 11.2929 27.7071C11.1054 27.5196 11 27.2652 11 27C11 26.7348 11.1054 26.4804 11.2929 26.2929C11.4804 26.1054 11.7348 26 12 26H30C30.2652 26 30.5196 26.1054 30.7071 26.2929C30.8947 26.4804 31 26.7348 31 27ZM28 23.5C28.1081 23.4991 28.2131 23.4641 28.3 23.4C28.3621 23.3534 28.4125 23.293 28.4472 23.2236C28.4819 23.1542 28.5 23.0776 28.5 23V18.5375C28.498 17.5536 28.1745 16.5973 27.5788 15.8143C26.9831 15.0312 26.1477 14.4644 25.2 14.2L19.3375 12.575L15.4375 5.75C15.374 5.64599 15.277 5.56666 15.1625 5.525L13.475 4.9625C13.2494 4.88744 13.0091 4.86756 12.7742 4.90454C12.5393 4.94151 12.3167 5.03426 12.125 5.175C11.9294 5.31033 11.77 5.49171 11.661 5.70316C11.552 5.91461 11.4967 6.14963 11.5 6.3875V10.325L8.35002 9.3375L6.43752 5.7625C6.37793 5.6524 6.28011 5.56792 6.16252 5.525L4.47502 4.9625C4.24939 4.88744 4.00906 4.86756 3.77417 4.90454C3.53928 4.94151 3.31667 5.03426 3.12502 5.175C2.92937 5.31033 2.77002 5.49171 2.66103 5.70316C2.55203 5.91461 2.49674 6.14963 2.50002 6.3875V12.9625C2.50122 13.9448 2.82291 14.8998 3.41624 15.6827C4.00957 16.4655 4.84213 17.0333 5.78752 17.3L27.8625 23.4875L28 23.5Z" fill="#344054"/>
</svg>
