<svg width="32" height="32" viewBox="0 0 32 32" fill="none" xmlns="http://www.w3.org/2000/svg">
<path d="M28.775 20.375C28.8925 20.5217 28.9662 20.6985 28.9878 20.8852C29.0094 21.0719 28.9779 21.2609 28.897 21.4305C28.8161 21.6001 28.689 21.7435 28.5304 21.8442C28.3717 21.945 28.1879 21.9989 28 22H6V27C6 27.2652 5.89464 27.5196 5.70711 27.7071C5.51957 27.8946 5.26522 28 5 28C4.73478 28 4.48043 27.8946 4.29289 27.7071C4.10536 27.5196 4 27.2652 4 27V6C4 5.73478 4.10536 5.48043 4.29289 5.29289C4.48043 5.10536 4.73478 5 5 5H28C28.1879 5.00105 28.3717 5.05504 28.5304 5.15577C28.689 5.2565 28.8161 5.39989 28.897 5.56951C28.9779 5.73913 29.0094 5.92812 28.9878 6.1148C28.9662 6.30148 28.8925 6.4783 28.775 6.625L23.275 13.5L28.775 20.375Z" fill="#344054"/>
</svg>
