<svg width="32" height="32" viewBox="0 0 32 32" fill="none" xmlns="http://www.w3.org/2000/svg">
<path d="M23.5 3H8.5C7.44015 3.0033 6.42465 3.42578 5.67521 4.17521C4.92578 4.92465 4.5033 5.94015 4.5 7V23C4.5033 24.0599 4.92578 25.0754 5.67521 25.8248C6.42465 26.5742 7.44015 26.9967 8.5 27H10L8.2 29.4C8.04087 29.6122 7.97254 29.8789 8.01005 30.1414C8.04756 30.404 8.18783 30.6409 8.4 30.8C8.57176 30.9323 8.78318 31.0028 9 31C9.15525 31 9.30836 30.9639 9.44721 30.8944C9.58607 30.825 9.70685 30.7242 9.8 30.6L12.5 27H19.5L22.2 30.6C22.2931 30.7242 22.4139 30.825 22.5528 30.8944C22.6916 30.9639 22.8448 31 23 31C23.2168 31.0028 23.4282 30.9323 23.6 30.8C23.7051 30.7212 23.7936 30.6225 23.8605 30.5095C23.9274 30.3965 23.9714 30.2714 23.99 30.1414C24.0085 30.0114 24.0013 29.879 23.9687 29.7518C23.9361 29.6246 23.8788 29.5051 23.8 29.4L22 27H23.5C24.5599 26.9967 25.5754 26.5742 26.3248 25.8248C27.0742 25.0754 27.4967 24.0599 27.5 23V7C27.4967 5.94015 27.0742 4.92465 26.3248 4.17521C25.5754 3.42578 24.5599 3.0033 23.5 3ZM10.5 23C10.2033 23 9.91332 22.912 9.66665 22.7472C9.41997 22.5824 9.22771 22.3481 9.11418 22.074C9.00065 21.7999 8.97094 21.4983 9.02882 21.2074C9.0867 20.9164 9.22956 20.6491 9.43934 20.4393C9.64912 20.2296 9.91639 20.0867 10.2074 20.0288C10.4983 19.9709 10.7999 20.0007 11.074 20.1142C11.3481 20.2277 11.5824 20.42 11.7472 20.6666C11.912 20.9133 12 21.2033 12 21.5C12 21.8978 11.842 22.2794 11.5607 22.5607C11.2794 22.842 10.8978 23 10.5 23ZM15 15H6.5V10H15V15ZM21.5 23C21.2033 23 20.9133 22.912 20.6666 22.7472C20.42 22.5824 20.2277 22.3481 20.1142 22.074C20.0007 21.7999 19.9709 21.4983 20.0288 21.2074C20.0867 20.9164 20.2296 20.6491 20.4393 20.4393C20.6491 20.2296 20.9164 20.0867 21.2074 20.0288C21.4983 19.9709 21.7999 20.0007 22.074 20.1142C22.3481 20.2277 22.5824 20.42 22.7472 20.6666C22.912 20.9133 23 21.2033 23 21.5C23 21.8978 22.842 22.2794 22.5607 22.5607C22.2794 22.842 21.8978 23 21.5 23ZM25.5 15H17V10H25.5V15Z" fill="#344054"/>
</svg>
