<svg width="33" height="32" viewBox="0 0 33 32" fill="none" xmlns="http://www.w3.org/2000/svg">
<path d="M33 20C33.0021 21.0104 32.749 22.005 32.2641 22.8915C31.7792 23.778 31.0783 24.5277 30.2264 25.0711C29.3744 25.6144 28.3991 25.9338 27.3908 25.9996C26.3825 26.0654 25.3739 25.8755 24.4586 25.4475C23.5432 25.0195 22.7508 24.3672 22.1549 23.5513C21.5589 22.7353 21.1786 21.7821 21.0493 20.7799C20.9201 19.7778 21.046 18.7592 21.4154 17.8187C21.7848 16.8782 22.3858 16.0463 23.1625 15.4L26.1375 20.5C26.1972 20.6243 26.2819 20.735 26.3863 20.825C26.4908 20.9151 26.6127 20.9825 26.7445 21.0231C26.8763 21.0638 27.0151 21.0767 27.1521 21.0611C27.2891 21.0456 27.4214 21.0018 27.5407 20.9327C27.66 20.8635 27.7637 20.7704 27.8453 20.6593C27.9269 20.5481 27.9846 20.4212 28.0149 20.2867C28.0451 20.1522 28.0472 20.0128 28.0209 19.8774C27.9947 19.742 27.9408 19.6135 27.8625 19.5L24.8875 14.3875C25.5619 14.1296 26.278 13.9983 27 14C28.5913 14 30.1175 14.6321 31.2427 15.7574C32.3679 16.8826 33 18.4087 33 20ZM7.00003 21C6.78959 20.9993 6.58447 20.9338 6.41253 20.8125C6.30554 20.7356 6.21482 20.6383 6.14556 20.5262C6.07631 20.4141 6.0299 20.2894 6.00899 20.1593C5.98808 20.0292 5.99309 19.8962 6.02373 19.7681C6.05437 19.6399 6.11003 19.5191 6.18753 19.4125L9.67503 14.6375C8.84702 14.2146 7.92979 13.996 7.00003 14C5.61148 13.9966 4.26454 14.4739 3.18795 15.3508C2.11136 16.2277 1.37148 17.4503 1.09397 18.8108C0.816454 20.1714 1.01841 21.586 1.66554 22.8146C2.31266 24.0431 3.36507 25.0098 4.64403 25.5505C5.923 26.0911 7.34969 26.1725 8.68181 25.7806C10.0139 25.3888 11.1694 24.548 11.9519 23.4009C12.7345 22.2539 13.0959 20.8713 12.9748 19.4881C12.8536 18.1048 12.2575 16.8061 11.2875 15.8125L7.81253 20.5875C7.72018 20.7165 7.59813 20.8213 7.4567 20.8931C7.31527 20.9649 7.15863 21.0015 7.00003 21ZM21.7375 9H25C25.2652 9 25.5196 9.10536 25.7071 9.29289C25.8947 9.48043 26 9.73478 26 10C26 10.2652 26.1054 10.5196 26.2929 10.7071C26.4805 10.8946 26.7348 11 27 11C27.2652 11 27.5196 10.8946 27.7071 10.7071C27.8947 10.5196 28 10.2652 28 10C27.9967 9.20536 27.6796 8.44421 27.1177 7.88232C26.5558 7.32042 25.7947 7.00329 25 7H20C19.8246 6.99802 19.6518 7.04343 19.5 7.13143C19.3482 7.21943 19.223 7.34676 19.1375 7.5C19.0459 7.65069 18.9975 7.82365 18.9975 8C18.9975 8.17635 19.0459 8.34931 19.1375 8.5L20.5875 11H13.4125L11.3625 7.5C11.276 7.34764 11.1506 7.22103 10.999 7.13317C10.8474 7.0453 10.6752 6.99934 10.5 7H7.00003C6.73481 7 6.48046 7.10536 6.29292 7.29289C6.10538 7.48043 6.00003 7.73478 6.00003 8C6.00003 8.26522 6.10538 8.51957 6.29292 8.70711C6.48046 8.89464 6.73481 9 7.00003 9H9.92503L11.6375 11.9375L9.67503 14.6375C10.2742 14.9366 10.8192 15.3338 11.2875 15.8125L12.7375 13.825L16.6375 20.5C16.6972 20.6243 16.7819 20.735 16.8863 20.825C16.9908 20.9151 17.1127 20.9825 17.2445 21.0231C17.3763 21.0638 17.5151 21.0767 17.6521 21.0611C17.7891 21.0456 17.9214 21.0018 18.0407 20.9327C18.16 20.8635 18.2637 20.7704 18.3453 20.6593C18.4269 20.5481 18.4846 20.4212 18.5149 20.2867C18.5451 20.1522 18.5472 20.0128 18.5209 19.8774C18.4947 19.742 18.4408 19.6135 18.3625 19.5L14.575 13H21.7625L23.1625 15.4C23.6747 14.9654 24.2583 14.6228 24.8875 14.3875L21.7375 9Z" fill="#344054"/>
</svg>
