<svg width="32" height="32" viewBox="0 0 32 32" fill="none" xmlns="http://www.w3.org/2000/svg">
<path d="M18 27H14C13.7348 27 13.4804 27.1054 13.2929 27.2929C13.1054 27.4804 13 27.7348 13 28C13 28.2652 13.1054 28.5196 13.2929 28.7071C13.4804 28.8946 13.7348 29 14 29H18C18.2652 29 18.5196 28.8946 18.7071 28.7071C18.8946 28.5196 19 28.2652 19 28C19 27.7348 18.8946 27.4804 18.7071 27.2929C18.5196 27.1054 18.2652 27 18 27Z" fill="#344054"/>
<path d="M27.45 17.9875L23.675 13.45C23.5521 11.9555 23.2153 10.4863 22.675 9.0875C21.225 5.3125 18.6625 2.8375 17.25 1.7C16.8977 1.41205 16.4572 1.25372 16.0022 1.25144C15.5472 1.24917 15.1052 1.40309 14.75 1.6875C13.325 2.825 10.725 5.3 9.2625 9.075C8.70156 10.5028 8.36019 12.0074 8.25 13.5375L4.55 17.9875C4.35374 18.2219 4.21346 18.498 4.13982 18.7947C4.06618 19.0914 4.06111 19.401 4.125 19.7L5.675 26.65C5.74792 26.9815 5.90454 27.2888 6.12992 27.5427C6.3553 27.7965 6.64193 27.9884 6.9625 28.1C7.17994 28.1737 7.4079 28.2117 7.6375 28.2125C8.08747 28.21 8.52346 28.0559 8.875 27.775L12.35 25H19.65L23.125 27.775C23.4765 28.0559 23.9125 28.21 24.3625 28.2125C24.5921 28.2117 24.8201 28.1737 25.0375 28.1C25.3581 27.9884 25.6447 27.7965 25.8701 27.5427C26.0955 27.2888 26.2521 26.9815 26.325 26.65L27.875 19.7C27.9389 19.401 27.9338 19.0914 27.8602 18.7947C27.7865 18.498 27.6463 18.2219 27.45 17.9875ZM7.625 26.2125L6.0875 19.2625L8.325 16.575C8.61667 18.9167 9.4125 21.3083 10.7125 23.75L7.625 26.2125ZM16 13.5C15.7033 13.5 15.4133 13.412 15.1666 13.2472C14.92 13.0824 14.7277 12.8481 14.6142 12.574C14.5006 12.2999 14.4709 11.9983 14.5288 11.7074C14.5867 11.4164 14.7296 11.1491 14.9393 10.9393C15.1491 10.7296 15.4164 10.5867 15.7074 10.5288C15.9983 10.4709 16.2999 10.5006 16.574 10.6142C16.8481 10.7277 17.0824 10.92 17.2472 11.1666C17.412 11.4133 17.5 11.7033 17.5 12C17.5 12.3978 17.342 12.7794 17.0607 13.0607C16.7794 13.342 16.3978 13.5 16 13.5ZM24.375 26.2125L21.275 23.7375C22.575 21.275 23.35 18.8625 23.625 16.5125L25.9125 19.2625L24.375 26.2125Z" fill="#344054"/>
</svg>
