<svg width="32" height="32" viewBox="0 0 32 32" fill="none" xmlns="http://www.w3.org/2000/svg">
<path d="M28.6125 6.2125C28.4941 6.1192 28.3562 6.05388 28.209 6.02141C28.0618 5.98894 27.9092 5.99017 27.7625 6.025L20.1125 7.9375L12.45 4.1H12.4375L12.3375 4.0625H12.3125L12.225 4.0375H12.1875L12.1 4.0125H11.7625L3.76251 6.0125C3.5423 6.0663 3.34691 6.19333 3.20837 6.37275C3.06983 6.55218 2.99636 6.77334 3.00001 7V25C2.99855 25.1524 3.03284 25.3031 3.10014 25.4398C3.16743 25.5766 3.26586 25.6957 3.38751 25.7875C3.56194 25.9252 3.77774 26.0001 4.00001 26L4.23751 25.975L11.8875 24.0625L19.55 27.9H19.5625L19.65 27.9375H19.6625L19.7625 27.975H20.2375L28.2375 25.975C28.4556 25.9217 28.6494 25.7965 28.7877 25.6196C28.926 25.4428 29.0008 25.2245 29 25V7C29.0015 6.84758 28.9672 6.69694 28.8999 6.56018C28.8326 6.42342 28.7342 6.30434 28.6125 6.2125ZM19 25.3875L13 22.3875V6.6125L19 9.6125V25.3875Z" fill="#344054"/>
</svg>
