<svg width="32" height="32" viewBox="0 0 32 32" fill="none" xmlns="http://www.w3.org/2000/svg">
<path d="M20 10H12C11.7348 10 11.4804 10.1054 11.2929 10.2929C11.1054 10.4804 11 10.7348 11 11C11 11.2652 11.1054 11.5196 11.2929 11.7071C11.4804 11.8946 11.7348 12 12 12H20C20.2652 12 20.5196 11.8946 20.7071 11.7071C20.8946 11.5196 21 11.2652 21 11C21 10.7348 20.8946 10.4804 20.7071 10.2929C20.5196 10.1054 20.2652 10 20 10Z" fill="#344054"/>
<path d="M28 14.9875C28.002 14.9537 27.9978 14.9198 27.9875 14.8875V14.825C27.975 14.8 27.975 14.775 27.9625 14.75L25.1625 4.50001C25.0541 4.07153 24.806 3.69142 24.4573 3.41976C24.1087 3.14811 23.6795 3.0004 23.2375 3.00001H8.76251C8.32384 2.99897 7.89716 3.14308 7.54897 3.40988C7.20077 3.67668 6.95062 4.05118 6.83751 4.47501L4.03751 14.725C4.02501 14.75 4.02501 14.775 4.01251 14.8V14.8625C4.00221 14.8948 3.99798 14.9287 4.00001 14.9625V14.9875C3.99804 15.0254 4.00226 15.0634 4.01251 15.1C4.01479 15.1386 4.02323 15.1766 4.03751 15.2125L6.83751 25.475C6.94113 25.9081 7.18721 26.2939 7.53628 26.5704C7.88535 26.8469 8.31718 26.9982 8.76251 27H10L8.20001 29.4C8.04087 29.6122 7.97255 29.8789 8.01006 30.1414C8.04756 30.404 8.18783 30.6409 8.4 30.8C8.57177 30.9324 8.78319 31.0028 9.00001 31C9.15525 31 9.30836 30.9639 9.44722 30.8944C9.58607 30.825 9.70686 30.7242 9.80001 30.6L12.5 27H19.5L22.2 30.6C22.2932 30.7242 22.4139 30.825 22.5528 30.8944C22.6916 30.9639 22.8448 31 23 31C23.2168 31.0028 23.4282 30.9324 23.6 30.8C23.7051 30.7212 23.7936 30.6225 23.8605 30.5095C23.9274 30.3965 23.9714 30.2714 23.99 30.1414C24.0085 30.0114 24.0013 29.879 23.9687 29.7518C23.9361 29.6246 23.8788 29.5051 23.8 29.4L22 27H23.2375C23.6762 27.001 24.1028 26.8569 24.451 26.5901C24.7992 26.3233 25.0494 25.9488 25.1625 25.525L27.9625 15.2625C27.9768 15.2266 27.9852 15.1886 27.9875 15.15C27.9977 15.1134 28.002 15.0754 28 15.0375V14.9875ZM17 24C17 24.2652 16.8946 24.5196 16.7071 24.7071C16.5196 24.8946 16.2652 25 16 25C15.7348 25 15.4804 24.8946 15.2929 24.7071C15.1054 24.5196 15 24.2652 15 24V19C15 18.7348 15.1054 18.4804 15.2929 18.2929C15.4804 18.1054 15.7348 18 16 18C16.2652 18 16.5196 18.1054 16.7071 18.2929C16.8946 18.4804 17 18.7348 17 19V24ZM16 15.9875L6.25001 14.2125L8.76251 5.00001H23.2375L25.75 14.2125L16 15.9875Z" fill="#344054"/>
</svg>
