<svg width="32" height="32" viewBox="0 0 32 32" fill="none" xmlns="http://www.w3.org/2000/svg">
<path d="M27 17C26.7348 17 26.4804 17.1054 26.2929 17.2929C26.1054 17.4804 26 17.7348 26 18C26 18.6566 25.8707 19.3068 25.6194 19.9134C25.3681 20.52 24.9998 21.0712 24.5355 21.5355C24.0712 21.9998 23.52 22.3681 22.9134 22.6194C22.3068 22.8707 21.6566 23 21 23C19.5226 23.0015 18.098 23.5491 17 24.5375V15H21C21.2652 15 21.5196 14.8946 21.7071 14.7071C21.8946 14.5196 22 14.2652 22 14C22 13.7348 21.8946 13.4804 21.7071 13.2929C21.5196 13.1054 21.2652 13 21 13H17V9.85C17.8057 9.6098 18.4979 9.08762 18.9503 8.37896C19.4026 7.6703 19.5847 6.8225 19.4633 5.9906C19.342 5.1587 18.9252 4.39828 18.2893 3.84839C17.6533 3.29851 16.8407 2.9959 16 2.9959C15.1593 2.9959 14.3467 3.29851 13.7107 3.84839C13.0748 4.39828 12.658 5.1587 12.5367 5.9906C12.4153 6.8225 12.5974 7.6703 13.0497 8.37896C13.5021 9.08762 14.1943 9.6098 15 9.85V13H11C10.7348 13 10.4804 13.1054 10.2929 13.2929C10.1054 13.4804 10 13.7348 10 14C10 14.2652 10.1054 14.5196 10.2929 14.7071C10.4804 14.8946 10.7348 15 11 15H15V24.5375C13.902 23.5491 12.4774 23.0015 11 23C9.67392 23 8.40215 22.4732 7.46447 21.5355C6.52678 20.5979 6 19.3261 6 18C6 17.7348 5.89464 17.4804 5.70711 17.2929C5.51957 17.1054 5.26522 17 5 17C4.73478 17 4.48043 17.1054 4.29289 17.2929C4.10536 17.4804 4 17.7348 4 18C4 19.8565 4.7375 21.637 6.05025 22.9497C7.36301 24.2625 9.14348 25 11 25C12.0599 25.0033 13.0754 25.4258 13.8248 26.1752C14.5742 26.9246 14.9967 27.9401 15 29C15 29.2652 15.1054 29.5196 15.2929 29.7071C15.4804 29.8946 15.7348 30 16 30C16.2652 30 16.5196 29.8946 16.7071 29.7071C16.8946 29.5196 17 29.2652 17 29C17.0033 27.9401 17.4258 26.9246 18.1752 26.1752C18.9246 25.4258 19.9401 25.0033 21 25C22.8565 25 24.637 24.2625 25.9497 22.9497C27.2625 21.637 28 19.8565 28 18C28 17.7348 27.8946 17.4804 27.7071 17.2929C27.5196 17.1054 27.2652 17 27 17ZM14.5 6.5C14.5 6.20333 14.588 5.91332 14.7528 5.66664C14.9176 5.41997 15.1519 5.22771 15.426 5.11418C15.7001 5.00065 16.0017 4.97094 16.2926 5.02882C16.5836 5.0867 16.8509 5.22956 17.0607 5.43934C17.2704 5.64912 17.4133 5.91639 17.4712 6.20736C17.5291 6.49833 17.4993 6.79993 17.3858 7.07402C17.2723 7.34811 17.08 7.58238 16.8334 7.7472C16.5867 7.91202 16.2967 8 16 8C15.6022 8 15.2206 7.84196 14.9393 7.56066C14.658 7.27935 14.5 6.89782 14.5 6.5Z" fill="#344054"/>
</svg>
