<svg width="32" height="32" viewBox="0 0 32 32" fill="none" xmlns="http://www.w3.org/2000/svg">
<path d="M30.7375 14.675L26.2375 19.675C26.1434 19.7768 26.0293 19.8581 25.9025 19.914C25.7756 19.9699 25.6386 19.9992 25.5 20H17V28C17 28.2652 16.8946 28.5196 16.7071 28.7071C16.5196 28.8946 16.2652 29 16 29C15.7348 29 15.4804 28.8946 15.2929 28.7071C15.1054 28.5196 15 28.2652 15 28V20H5C4.46957 20 3.96086 19.7893 3.58579 19.4142C3.21071 19.0391 3 18.5304 3 18V10C3 9.46957 3.21071 8.96086 3.58579 8.58579C3.96086 8.21071 4.46957 8 5 8H15V4C15 3.73478 15.1054 3.48043 15.2929 3.29289C15.4804 3.10536 15.7348 3 16 3C16.2652 3 16.5196 3.10536 16.7071 3.29289C16.8946 3.48043 17 3.73478 17 4V8H25.5C25.6386 8.0008 25.7756 8.03005 25.9025 8.08596C26.0293 8.14186 26.1434 8.22322 26.2375 8.325L30.7375 13.325C30.9061 13.5093 30.9997 13.7501 30.9997 14C30.9997 14.2499 30.9061 14.4907 30.7375 14.675Z" fill="#344054"/>
</svg>
