<svg width="32" height="32" viewBox="0 0 32 32" fill="none" xmlns="http://www.w3.org/2000/svg">
<path d="M27.45 5.1C27.2824 5.01995 27.0961 4.98696 26.9111 5.00458C26.7262 5.02219 26.5495 5.08974 26.4 5.2C22.8625 7.85 19.8625 6.575 16.4 5.0875C12.9375 3.6 8.8625 1.85 4.4 5.2H4.3875L4.3375 5.2375L4.3125 5.2625L4.275 5.3L4.2375 5.3375L4.2125 5.375L4.175 5.4125C4.175 5.425 4.1625 5.4375 4.15 5.45L4.125 5.5C4.125 5.5125 4.1125 5.525 4.1125 5.5375C4.09958 5.55145 4.09091 5.5688 4.0875 5.5875C4.075 5.6 4.075 5.6125 4.0625 5.6375C4.05 5.6625 4.05 5.6625 4.05 5.675C4.05 5.6875 4.0375 5.7125 4.0375 5.725C4.0375 5.7375 4.025 5.75 4.025 5.7625C4.025 5.775 4.0125 5.8 4.0125 5.8125V5.875C4.0125 5.8875 4 5.9125 4 5.925V27C4 27.2652 4.10536 27.5196 4.29289 27.7071C4.48043 27.8946 4.73478 28 5 28C5.26522 28 5.51957 27.8946 5.70711 27.7071C5.89464 27.5196 6 27.2652 6 27V21.5125C9.3625 19.25 12.2625 20.4875 15.6 21.925C17.6375 22.7875 19.825 23.725 22.175 23.725C23.9 23.725 25.7125 23.225 27.6 21.8C27.7235 21.7062 27.8238 21.5853 27.8931 21.4466C27.9625 21.3079 27.999 21.1551 28 21V6C27.9985 5.81422 27.9465 5.63235 27.8496 5.47383C27.7528 5.3153 27.6146 5.18609 27.45 5.1Z" fill="#344054"/>
</svg>
