<svg width="32" height="32" viewBox="0 0 32 32" fill="none" xmlns="http://www.w3.org/2000/svg">
<path d="M30.125 8.7125L27.7125 6.2875C27.5182 6.12804 27.2715 6.04655 27.0205 6.05888C26.7694 6.07121 26.5319 6.17648 26.3542 6.35421C26.1765 6.53195 26.0712 6.76944 26.0589 7.02049C26.0465 7.27154 26.128 7.5182 26.2875 7.7125L28.7125 10.125C28.8041 10.217 28.8766 10.3263 28.926 10.4464C28.9753 10.5665 29.0005 10.6951 29 10.825V21C29 21.2652 28.8946 21.5196 28.7071 21.7071C28.5196 21.8946 28.2652 22 28 22C27.7348 22 27.4804 21.8946 27.2929 21.7071C27.1054 21.5196 27 21.2652 27 21V16C26.9967 15.2054 26.6796 14.4442 26.1177 13.8823C25.5558 13.3204 24.7946 13.0033 24 13H22V7C21.9967 6.20536 21.6796 5.44421 21.1177 4.88232C20.5558 4.32042 19.7946 4.00329 19 4H9C8.20536 4.00329 7.44421 4.32042 6.88232 4.88232C6.32042 5.44421 6.00329 6.20536 6 7V26H4C3.73478 26 3.48043 26.1054 3.29289 26.2929C3.10536 26.4804 3 26.7348 3 27C3 27.2652 3.10536 27.5196 3.29289 27.7071C3.48043 27.8946 3.73478 28 4 28H24C24.2652 28 24.5196 27.8946 24.7071 27.7071C24.8946 27.5196 25 27.2652 25 27C25 26.7348 24.8946 26.4804 24.7071 26.2929C24.5196 26.1054 24.2652 26 24 26H22V15H24C24.2652 15 24.5196 15.1054 24.7071 15.2929C24.8946 15.4804 25 15.7348 25 16V21C25 21.7956 25.3161 22.5587 25.8787 23.1213C26.4413 23.6839 27.2044 24 28 24C28.7956 24 29.5587 23.6839 30.1213 23.1213C30.6839 22.5587 31 21.7956 31 21V10.825C31.0007 10.4326 30.9237 10.0439 30.7736 9.68133C30.6234 9.31877 30.403 8.98951 30.125 8.7125ZM18 15H10C9.73478 15 9.48043 14.8946 9.29289 14.7071C9.10536 14.5196 9 14.2652 9 14C9 13.7348 9.10536 13.4804 9.29289 13.2929C9.48043 13.1054 9.73478 13 10 13H18C18.2652 13 18.5196 13.1054 18.7071 13.2929C18.8946 13.4804 19 13.7348 19 14C19 14.2652 18.8946 14.5196 18.7071 14.7071C18.5196 14.8946 18.2652 15 18 15Z" fill="#344054"/>
</svg>
