<svg width="32" height="32" viewBox="0 0 32 32" fill="none" xmlns="http://www.w3.org/2000/svg">
<path d="M29 16C28.9967 12.5532 27.626 9.24852 25.1887 6.81127C22.7515 4.37401 19.4468 3.00331 16 3C12.5522 3 9.24558 4.36964 6.80761 6.80761C4.36964 9.24558 3 12.5522 3 16C3 19.4478 4.36964 22.7544 6.80761 25.1924C9.24558 27.6304 12.5522 29 16 29C19.4468 28.9967 22.7515 27.626 25.1887 25.1887C27.626 22.7515 28.9967 19.4468 29 16ZM26.95 15H21.975C21.775 11.3 20.475 7.875 18.2875 5.2375C20.5826 5.73054 22.6605 6.94329 24.2186 8.6992C25.7766 10.4551 26.7335 12.6625 26.95 15ZM12.0375 17H19.9625C19.7375 20.6 18.3 23.9625 16 26.3C13.7 23.9625 12.2625 20.6 12.0375 17ZM12.0375 15C12.2625 11.4 13.7 8.0375 16 5.7C18.3 8.0375 19.7375 11.4 19.9625 15H12.0375ZM18.2875 26.7625C20.475 24.125 21.775 20.7 21.975 17H26.95C26.7335 19.3375 25.7766 21.5449 24.2186 23.3008C22.6605 25.0567 20.5826 26.2695 18.2875 26.7625Z" fill="#344054"/>
</svg>
