<svg width="32" height="32" viewBox="0 0 32 32" fill="none" xmlns="http://www.w3.org/2000/svg">
<path d="M27.6375 13.825L26 13.275V7C26 6.46957 25.7893 5.96086 25.4142 5.58579C25.0391 5.21071 24.5304 5 24 5H17V3C17 2.73478 16.8946 2.48043 16.7071 2.29289C16.5196 2.10536 16.2652 2 16 2C15.7348 2 15.4804 2.10536 15.2929 2.29289C15.1054 2.48043 15 2.73478 15 3V5H8C7.46957 5 6.96086 5.21071 6.58579 5.58579C6.21072 5.96086 6 6.46957 6 7V13.275L4.3625 13.825C3.9648 13.9587 3.61922 14.2142 3.3747 14.5552C3.13018 14.8962 2.9991 15.3054 3 15.725V20C3.00013 20.0929 3.01274 20.1854 3.0375 20.275C5 27.15 13.8 29.525 15.55 29.925C15.8463 29.9917 16.1537 29.9917 16.45 29.925C18.2 29.525 27 27.15 28.9625 20.275C28.9873 20.1854 28.9999 20.0929 29 20V15.725C29.0009 15.3054 28.8698 14.8962 28.6253 14.5552C28.3808 14.2142 28.0352 13.9587 27.6375 13.825ZM17 21C17 21.2652 16.8946 21.5196 16.7071 21.7071C16.5196 21.8946 16.2652 22 16 22C15.7348 22 15.4804 21.8946 15.2929 21.7071C15.1054 21.5196 15 21.2652 15 21V14.05C15 13.7848 15.1054 13.5304 15.2929 13.3429C15.4804 13.1554 15.7348 13.05 16 13.05C16.2652 13.05 16.5196 13.1554 16.7071 13.3429C16.8946 13.5304 17 13.7848 17 14.05V21ZM24 12.6125L16.6375 10.1625C16.2236 10.0252 15.7764 10.0252 15.3625 10.1625L8 12.6125V7H24V12.6125Z" fill="#344054"/>
</svg>
