<svg width="32" height="32" viewBox="0 0 32 32" fill="none" xmlns="http://www.w3.org/2000/svg">
<path d="M29 26H26.7125L19.175 4.3375C19.0377 3.94648 18.7824 3.60776 18.4442 3.36816C18.1061 3.12856 17.7019 2.99991 17.2875 3H14.7125C14.2981 2.99991 13.8939 3.12856 13.5558 3.36816C13.2176 3.60776 12.9623 3.94648 12.825 4.3375L5.2875 26H3C2.73478 26 2.48043 26.1054 2.29289 26.2929C2.10536 26.4804 2 26.7348 2 27C2 27.2652 2.10536 27.5196 2.29289 27.7071C2.48043 27.8946 2.73478 28 3 28H29C29.2652 28 29.5196 27.8946 29.7071 27.7071C29.8946 27.5196 30 27.2652 30 27C30 26.7348 29.8946 26.4804 29.7071 26.2929C29.5196 26.1054 29.2652 26 29 26ZM11.925 13H20.075L22.1625 19H9.8375L11.925 13Z" fill="#344054"/>
</svg>
