<svg width="32" height="32" viewBox="0 0 32 32" fill="none" xmlns="http://www.w3.org/2000/svg">
<path d="M29.9625 11H28.3625L27.6125 5.7125C27.5435 5.23759 27.3061 4.80332 26.9435 4.48893C26.5809 4.17455 26.1174 4.00101 25.6375 4H6.3625C5.88261 4.00101 5.41908 4.17455 5.05651 4.48893C4.69393 4.80332 4.45649 5.23759 4.3875 5.7125L3.6375 11H2.0375C1.77801 10.9959 1.52662 11.0904 1.33407 11.2644C1.14151 11.4384 1.02212 11.6789 1 11.9375C0.991455 12.074 1.01099 12.2108 1.05741 12.3394C1.10382 12.468 1.17612 12.5858 1.26985 12.6854C1.36357 12.7849 1.47672 12.8642 1.60231 12.9184C1.7279 12.9725 1.86325 13.0003 2 13H3.5V26C3.5 26.5304 3.71072 27.0391 4.08579 27.4142C4.46086 27.7893 4.96957 28 5.5 28H8.5C9.03043 28 9.53914 27.7893 9.91422 27.4142C10.2893 27.0391 10.5 26.5304 10.5 26V23H12.5C12.6326 23 12.7598 22.9473 12.8536 22.8536C12.9473 22.7598 13 22.6326 13 22.5V16.0375C12.9959 15.778 13.0904 15.5266 13.2644 15.3341C13.4384 15.1415 13.6789 15.0221 13.9375 15C14.074 14.9915 14.2108 15.011 14.3394 15.0574C14.468 15.1038 14.5858 15.1761 14.6854 15.2698C14.785 15.3636 14.8643 15.4767 14.9184 15.6023C14.9725 15.7279 15.0003 15.8632 15 16V22.5C15 22.6326 15.0527 22.7598 15.1464 22.8536C15.2402 22.9473 15.3674 23 15.5 23H16.5C16.6326 23 16.7598 22.9473 16.8536 22.8536C16.9473 22.7598 17 22.6326 17 22.5V16.0375C16.9959 15.778 17.0904 15.5266 17.2644 15.3341C17.4384 15.1415 17.6789 15.0221 17.9375 15C18.074 14.9915 18.2108 15.011 18.3394 15.0574C18.468 15.1038 18.5858 15.1761 18.6854 15.2698C18.785 15.3636 18.8643 15.4767 18.9184 15.6023C18.9725 15.7279 19.0003 15.8632 19 16V22.5C19 22.6326 19.0527 22.7598 19.1464 22.8536C19.2402 22.9473 19.3674 23 19.5 23H21.5V26C21.5 26.5304 21.7107 27.0391 22.0858 27.4142C22.4609 27.7893 22.9696 28 23.5 28H26.5C27.0304 28 27.5391 27.7893 27.9142 27.4142C28.2893 27.0391 28.5 26.5304 28.5 26V13H30C30.1368 13.0003 30.2721 12.9725 30.3977 12.9184C30.5233 12.8642 30.6364 12.7849 30.7302 12.6854C30.8239 12.5858 30.8962 12.468 30.9426 12.3394C30.989 12.2108 31.0085 12.074 31 11.9375C30.9779 11.6789 30.8585 11.4384 30.6659 11.2644C30.4734 11.0904 30.222 10.9959 29.9625 11ZM9 18C8.70333 18 8.41332 17.912 8.16665 17.7472C7.91997 17.5824 7.72771 17.3481 7.61418 17.074C7.50065 16.7999 7.47095 16.4983 7.52882 16.2074C7.5867 15.9164 7.72956 15.6491 7.93934 15.4393C8.14912 15.2296 8.41639 15.0867 8.70737 15.0288C8.99834 14.9709 9.29994 15.0006 9.57403 15.1142C9.84812 15.2277 10.0824 15.42 10.2472 15.6666C10.412 15.9133 10.5 16.2033 10.5 16.5C10.5 16.8978 10.342 17.2794 10.0607 17.5607C9.77936 17.842 9.39783 18 9 18ZM23 18C22.7033 18 22.4133 17.912 22.1666 17.7472C21.92 17.5824 21.7277 17.3481 21.6142 17.074C21.5007 16.7999 21.4709 16.4983 21.5288 16.2074C21.5867 15.9164 21.7296 15.6491 21.9393 15.4393C22.1491 15.2296 22.4164 15.0867 22.7074 15.0288C22.9983 14.9709 23.2999 15.0006 23.574 15.1142C23.8481 15.2277 24.0824 15.42 24.2472 15.6666C24.412 15.9133 24.5 16.2033 24.5 16.5C24.5 16.8978 24.342 17.2794 24.0607 17.5607C23.7794 17.842 23.3978 18 23 18Z" fill="#344054"/>
</svg>
