<svg width="32" height="32" viewBox="0 0 32 32" fill="none" xmlns="http://www.w3.org/2000/svg">
<path d="M30.0251 17V21C30.0275 21.1482 29.9962 21.2951 29.9334 21.4294C29.8705 21.5637 29.7779 21.6819 29.6626 21.775C29.5486 21.8676 29.4154 21.9336 29.2726 21.9682C29.1299 22.0028 28.9813 22.0051 28.8376 21.975L20.0251 20.225V23.5875L21.7126 25.3C21.8041 25.392 21.8767 25.5013 21.926 25.6214C21.9754 25.7415 22.0005 25.8701 22.0001 26V29C22.0009 29.1629 21.9613 29.3235 21.885 29.4675C21.8087 29.6114 21.6979 29.7343 21.5626 29.825C21.3962 29.9371 21.2006 29.998 21.0001 30C20.8714 29.9994 20.7441 29.9739 20.6251 29.925L16.0001 28.075L11.3751 29.925C11.2226 29.9867 11.0573 30.0099 10.8938 29.9924C10.7303 29.975 10.5736 29.9175 10.4376 29.825C10.3022 29.7343 10.1915 29.6114 10.1151 29.4675C10.0388 29.3235 9.99926 29.1629 10.0001 29V26C9.99856 25.734 10.1018 25.478 10.2876 25.2875L12.0001 23.5875V20.225L3.20006 21.975C3.05491 22.007 2.90442 22.0058 2.75979 21.9715C2.61517 21.9373 2.48014 21.8708 2.36479 21.7771C2.24944 21.6833 2.15673 21.5648 2.09357 21.4302C2.03042 21.2957 1.99845 21.1486 2.00006 21V17C2.00156 16.8142 2.05353 16.6324 2.15041 16.4738C2.24729 16.3153 2.38543 16.1861 2.55006 16.1L12.0001 11.375V6C12.0001 4.93913 12.4215 3.92172 13.1716 3.17157C13.9218 2.42143 14.9392 2 16.0001 2C17.0609 2 18.0783 2.42143 18.8285 3.17157C19.5786 3.92172 20.0001 4.93913 20.0001 6V11.375L29.4501 16.1C29.6194 16.1827 29.7626 16.3104 29.864 16.4692C29.9655 16.628 30.0212 16.8116 30.0251 17Z" fill="#344054"/>
</svg>
