<svg width="32" height="32" viewBox="0 0 32 32" fill="none" xmlns="http://www.w3.org/2000/svg">
<path d="M20 10C20 9.73478 20.1054 9.48043 20.2929 9.29289C20.4804 9.10536 20.7348 9 21 9H30C30.2652 9 30.5196 9.10536 30.7071 9.29289C30.8947 9.48043 31 9.73478 31 10C31 10.2652 30.8947 10.5196 30.7071 10.7071C30.5196 10.8946 30.2652 11 30 11H21C20.7348 11 20.4804 10.8946 20.2929 10.7071C20.1054 10.5196 20 10.2652 20 10ZM30 21H21C20.7348 21 20.4804 21.1054 20.2929 21.2929C20.1054 21.4804 20 21.7348 20 22C20 22.2652 20.1054 22.5196 20.2929 22.7071C20.4804 22.8946 20.7348 23 21 23H30C30.2652 23 30.5196 22.8946 30.7071 22.7071C30.8947 22.5196 31 22.2652 31 22C31 21.7348 30.8947 21.4804 30.7071 21.2929C30.5196 21.1054 30.2652 21 30 21ZM30 13H21C20.7348 13 20.4804 13.1054 20.2929 13.2929C20.1054 13.4804 20 13.7348 20 14C20 14.2652 20.1054 14.5196 20.2929 14.7071C20.4804 14.8946 20.7348 15 21 15H30C30.2652 15 30.5196 14.8946 30.7071 14.7071C30.8947 14.5196 31 14.2652 31 14C31 13.7348 30.8947 13.4804 30.7071 13.2929C30.5196 13.1054 30.2652 13 30 13ZM30 17H21C20.7348 17 20.4804 17.1054 20.2929 17.2929C20.1054 17.4804 20 17.7348 20 18C20 18.2652 20.1054 18.5196 20.2929 18.7071C20.4804 18.8946 20.7348 19 21 19H30C30.2652 19 30.5196 18.8946 30.7071 18.7071C30.8947 18.5196 31 18.2652 31 18C31 17.7348 30.8947 17.4804 30.7071 17.2929C30.5196 17.1054 30.2652 17 30 17ZM16 6H11.1125C5.57502 6 1.03752 10.45 1.00002 15.925C0.988451 17.245 1.23866 18.5541 1.73618 19.7768C2.2337 20.9995 2.96866 22.1114 3.89857 23.0483C4.82847 23.9852 5.93488 24.7284 7.1538 25.2351C8.37273 25.7417 9.67999 26.0017 11 26H16C16.5304 26 17.0392 25.7893 17.4142 25.4142C17.7893 25.0391 18 24.5304 18 24V8C18 7.46957 17.7893 6.96086 17.4142 6.58579C17.0392 6.21071 16.5304 6 16 6Z" fill="#344054"/>
</svg>
