<svg width="32" height="32" viewBox="0 0 32 32" fill="none" xmlns="http://www.w3.org/2000/svg">
<path d="M28 27C28 27.2652 27.8946 27.5196 27.7071 27.7071C27.5196 27.8946 27.2652 28 27 28H8.99999C8.73478 28 8.48042 27.8946 8.29289 27.7071C8.10535 27.5196 7.99999 27.2652 7.99999 27C7.99999 26.7348 8.10535 26.4804 8.29289 26.2929C8.48042 26.1054 8.73478 26 8.99999 26H27C27.2652 26 27.5196 26.1054 27.7071 26.2929C27.8946 26.4804 28 26.7348 28 27ZM26 12.5H19.225L13.8625 6.6625C13.8169 6.61148 13.761 6.57065 13.6985 6.54265C13.6361 6.51465 13.5684 6.50012 13.5 6.5H11.3875C11.1496 6.49672 10.9146 6.55202 10.7032 6.66101C10.4917 6.77001 10.3103 6.92935 10.175 7.125C10.0342 7.31666 9.9415 7.53926 9.90453 7.77415C9.86756 8.00904 9.88743 8.24938 9.96249 8.475L11.3125 12.5H8.23749L5.88749 9.675C5.83919 9.6198 5.7796 9.57561 5.71275 9.54542C5.6459 9.51523 5.57334 9.49974 5.49999 9.5H3.34999C3.11518 9.49903 2.88337 9.55274 2.67292 9.65688C2.46247 9.76102 2.27915 9.91274 2.13749 10.1C1.99863 10.2877 1.90591 10.5055 1.86682 10.7356C1.82773 10.9658 1.84338 11.202 1.91249 11.425L3.66249 17.2875C3.93611 18.218 4.5046 19.0344 5.28239 19.6138C6.06017 20.1932 7.00513 20.5042 7.97499 20.5H30C30.1326 20.5 30.2598 20.4473 30.3535 20.3536C30.4473 20.2598 30.5 20.1326 30.5 20V17C30.5 15.8065 30.0259 14.6619 29.182 13.818C28.3381 12.9741 27.1935 12.5 26 12.5Z" fill="#344054"/>
</svg>
