<svg width="32" height="32" viewBox="0 0 32 32" fill="none" xmlns="http://www.w3.org/2000/svg">
<path d="M28.2375 20.4L28.275 20.275C29.242 17.507 29.242 14.493 28.275 11.725L28.2375 11.6C27.3283 9.08296 25.6658 6.90708 23.4762 5.36832C21.2866 3.82957 18.6762 3.00263 16 3C13.3238 3.00263 10.7133 3.82957 8.52374 5.36832C6.33414 6.90708 4.67168 9.08296 3.76249 11.6L3.72499 11.725C2.75801 14.493 2.75801 17.507 3.72499 20.275L3.76249 20.4C4.67477 22.915 6.338 25.0889 8.52691 26.6272C10.7158 28.1654 13.3246 28.9938 16 29C18.6762 28.9974 21.2866 28.1704 23.4762 26.6317C25.6658 25.0929 27.3283 22.917 28.2375 20.4ZM16 5.7C17.4561 7.19788 18.5469 9.01161 19.1875 11H12.8125C13.453 9.01161 14.5438 7.19788 16 5.7ZM12.8125 21H19.1875C18.5469 22.9884 17.4561 24.8021 16 26.3C14.5438 24.8021 13.453 22.9884 12.8125 21ZM12.2875 19C11.9043 17.0184 11.9043 14.9816 12.2875 13H19.7125C20.0957 14.9816 20.0957 17.0184 19.7125 19H12.2875ZM21.75 13H26.5875C27.1376 14.9622 27.1376 17.0378 26.5875 19H21.75C22.0833 17.0139 22.0833 14.9861 21.75 13ZM25.8 11H21.3C20.6985 8.89414 19.6734 6.93326 18.2875 5.2375C19.8878 5.58303 21.3915 6.27906 22.6906 7.27548C23.9896 8.2719 25.0515 9.54393 25.8 11ZM18.2875 26.7625C19.6734 25.0667 20.6985 23.1059 21.3 21H25.8C25.0515 22.4561 23.9896 23.7281 22.6906 24.7245C21.3915 25.7209 19.8878 26.417 18.2875 26.7625Z" fill="#344054"/>
</svg>
