<svg width="32" height="32" viewBox="0 0 32 32" fill="none" xmlns="http://www.w3.org/2000/svg">
<path d="M29 18.5C29.0001 19.6722 28.6833 20.8226 28.083 21.8294C27.4827 22.8362 26.6214 23.662 25.5901 24.2192C24.5589 24.7765 23.3961 25.0445 22.225 24.9949C21.0539 24.9453 19.918 24.5799 18.9375 23.9375L20.275 28.2C20.3232 28.3491 20.3347 28.5076 20.3086 28.6621C20.2824 28.8166 20.2195 28.9625 20.125 29.0875C20.0339 29.2147 19.9138 29.3185 19.7747 29.3902C19.6357 29.4619 19.4815 29.4995 19.325 29.5H12.675C12.5185 29.4995 12.3644 29.4619 12.2253 29.3902C12.0862 29.3185 11.9661 29.2147 11.875 29.0875C11.7805 28.9625 11.7176 28.8166 11.6915 28.6621C11.6654 28.5076 11.6769 28.3491 11.725 28.2L13.0625 23.9375C11.9516 24.6692 10.6421 25.0402 9.31251 25C5.85001 24.9 3.01251 22 3.00001 18.525C2.99837 17.6698 3.16519 16.8226 3.49096 16.0318C3.81673 15.2411 4.29506 14.5222 4.89864 13.9163C5.50222 13.3104 6.21923 12.8293 7.00874 12.5005C7.79824 12.1717 8.64478 12.0016 9.50001 12L10 12.025C9.61984 11.099 9.45322 10.0992 9.51251 9.1C9.56987 8.15525 9.83286 7.23442 10.2831 6.40188C10.7333 5.56934 11.36 4.84517 12.1192 4.27998C12.8784 3.7148 13.7519 3.32224 14.6786 3.12975C15.6053 2.93725 16.5629 2.94946 17.4844 3.16552C18.4059 3.38159 19.2691 3.79629 20.0136 4.38065C20.7582 4.965 21.3661 5.70491 21.795 6.54867C22.2239 7.39242 22.4633 8.31965 22.4966 9.26556C22.5298 10.2115 22.3561 11.1532 21.9875 12.025C22.8831 11.9446 23.7856 12.0528 24.6369 12.3425C25.4882 12.6322 26.2693 13.0971 26.93 13.7071C27.5906 14.3171 28.1161 15.0588 28.4727 15.8843C28.8292 16.7098 29.0088 17.6008 29 18.5Z" fill="#344054"/>
</svg>
