<svg width="32" height="32" viewBox="0 0 32 32" fill="none" xmlns="http://www.w3.org/2000/svg">
<path d="M28.7125 27.2875L22.6625 21.2375L23.075 21.1125C24.0037 20.7776 24.8565 20.2614 25.584 19.5941C26.3115 18.9267 26.899 18.1214 27.3125 17.225C28.1484 15.4201 28.2382 13.3582 27.5625 11.4875C27.465 11.2403 27.2774 11.0393 27.0375 10.925C26.9191 10.8683 26.7901 10.8369 26.6589 10.8326C26.5277 10.8283 26.397 10.8512 26.275 10.9L20.725 12.9125L20.85 12.6625C21.4793 11.3178 21.6953 9.81663 21.4708 8.34909C21.2462 6.88154 20.5911 5.51366 19.5885 4.41871C18.5859 3.32376 17.2809 2.55099 15.8388 2.1983C14.3967 1.8456 12.8823 1.92884 11.4875 2.43748C11.2404 2.535 11.0394 2.72261 10.925 2.96248C10.8684 3.08095 10.8369 3.20987 10.8326 3.34111C10.8283 3.47235 10.8513 3.60306 10.9 3.72498L12.9125 9.27498L12.6625 9.14998C11.3179 8.52072 9.81669 8.30469 8.34915 8.52926C6.8816 8.75384 5.51373 9.40891 4.41877 10.4115C3.32382 11.4141 2.55105 12.7191 2.19836 14.1612C1.84566 15.6033 1.9289 17.1177 2.43754 18.5125C2.53506 18.7597 2.72267 18.9607 2.96254 19.075C3.0957 19.1361 3.24106 19.166 3.38754 19.1625C3.50321 19.1659 3.61827 19.1446 3.72504 19.1L9.27504 17.0875L9.15004 17.3375C8.61623 18.4799 8.37907 19.7384 8.46049 20.9968C8.54191 22.2551 8.93928 23.4726 9.61586 24.5367C10.2924 25.6007 11.2264 26.4771 12.3313 27.0846C13.4363 27.6921 14.6766 28.0113 15.9375 28.0125C16.8153 28.0113 17.6864 27.8591 18.5125 27.5625C18.7597 27.465 18.9607 27.2773 19.075 27.0375C19.1317 26.919 19.1631 26.7901 19.1674 26.6588C19.1717 26.5276 19.1488 26.3969 19.1 26.275L17.0875 20.725L17.3375 20.85C18.2163 21.2636 19.1675 21.5014 20.1375 21.55L27.2875 28.7125C27.4787 28.8973 27.7342 29.0006 28 29.0006C28.2659 29.0006 28.5214 28.8973 28.7125 28.7125C28.9003 28.5229 29.0057 28.2668 29.0057 28C29.0057 27.7331 28.9003 27.4771 28.7125 27.2875ZM16.3875 4.49998C17.2921 4.92891 18.0631 5.59555 18.6182 6.42866C19.1733 7.26178 19.4916 8.23005 19.5391 9.23002C19.5866 10.23 19.3615 11.2241 18.8878 12.1061C18.4142 12.988 17.7099 13.7247 16.85 14.2375L13.15 4.06248C14.2486 3.87544 15.378 4.02807 16.3875 4.49998ZM13.6125 25.5C12.708 25.071 11.937 24.4044 11.3819 23.5713C10.8268 22.7382 10.5085 21.7699 10.461 20.7699C10.4135 19.77 10.6386 18.7759 11.1122 17.8939C11.5859 17.0119 12.2902 16.2752 13.15 15.7625L16.85 25.9375C15.7515 26.1245 14.622 25.9719 13.6125 25.5Z" fill="#344054"/>
</svg>
