<svg width="32" height="32" viewBox="0 0 32 32" fill="none" xmlns="http://www.w3.org/2000/svg">
<path d="M28 17H28.4125C28.4828 17.0012 28.5519 17.0172 28.6156 17.0469C28.6792 17.0766 28.7358 17.1194 28.7818 17.1725C28.8278 17.2255 28.8621 17.2877 28.8825 17.3549C28.9029 17.4221 28.9088 17.4928 28.9 17.5625C28.534 20.5332 27.156 23.2872 24.9978 25.3611C22.8396 27.4351 20.033 28.7024 17.05 28.95C16.9184 27.4318 17.1037 25.9029 17.5941 24.4601C18.0845 23.0172 18.8693 21.6921 19.8988 20.5686C20.9283 19.445 22.1801 18.5477 23.5746 17.9334C24.9692 17.3191 26.4762 17.0012 28 17ZM18.8125 18.8125C20.0142 17.5989 21.4454 16.6367 23.0228 15.9822C24.6003 15.3276 26.2922 14.9937 28 15H28.3875C28.4587 15.0021 28.5294 14.9891 28.5951 14.9617C28.6608 14.9342 28.7199 14.8931 28.7684 14.8411C28.8169 14.789 28.8537 14.7272 28.8764 14.6598C28.8991 14.5923 28.9072 14.5208 28.9 14.45C28.5515 11.5574 27.2424 8.86548 25.1822 6.80533C23.1221 4.74518 20.4301 3.436 17.5375 3.08749C17.4667 3.08034 17.3952 3.08839 17.3278 3.1111C17.2603 3.1338 17.1985 3.17064 17.1465 3.21916C17.0944 3.26767 17.0533 3.32674 17.0259 3.39242C16.9985 3.45809 16.9854 3.52886 16.9875 3.59999C17.0439 5.37304 16.7357 7.13879 16.0821 8.78792C15.4284 10.4371 14.4433 11.9345 13.1875 13.1875C11.9859 14.4011 10.5547 15.3632 8.97726 16.0178C7.39984 16.6724 5.70787 17.0063 4.00005 17H3.61255C3.54142 16.9979 3.47065 17.0109 3.40497 17.0383C3.3393 17.0657 3.28023 17.1068 3.23171 17.1589C3.1832 17.211 3.14636 17.2728 3.12365 17.3402C3.10095 17.4077 3.0929 17.4792 3.10005 17.55C3.44856 20.4426 4.75773 23.1345 6.81789 25.1947C8.87804 27.2548 11.57 28.564 14.4625 28.9125C14.5333 28.9196 14.6049 28.9116 14.6723 28.8889C14.7398 28.8662 14.8016 28.8293 14.8536 28.7808C14.9057 28.7323 14.9468 28.6732 14.9742 28.6076C15.0016 28.5419 15.0147 28.4711 15.0125 28.4C14.9562 26.6269 15.2644 24.8612 15.918 23.2121C16.5717 21.5629 17.5568 20.0655 18.8125 18.8125ZM11.775 11.775C12.8506 10.7036 13.6915 9.42022 14.2446 8.00643C14.7976 6.59263 15.0506 5.07929 14.9875 3.56249C14.983 3.49443 14.9645 3.42802 14.9334 3.36735C14.9022 3.30668 14.8589 3.25304 14.8062 3.20971C14.7535 3.16639 14.6925 3.13431 14.627 3.11544C14.5614 3.09657 14.4927 3.09131 14.425 3.09999C11.544 3.45248 8.86382 4.75899 6.81144 6.81138C4.75905 8.86377 3.45254 11.544 3.10005 14.425C3.09134 14.4936 3.09697 14.5634 3.11659 14.6297C3.13622 14.6961 3.16941 14.7576 3.21405 14.8105C3.2587 14.8634 3.31384 14.9064 3.37598 14.9369C3.43812 14.9673 3.5059 14.9846 3.57505 14.9875C5.0896 15.0473 6.60012 14.7927 8.01141 14.2398C9.4227 13.6869 10.7042 12.8477 11.775 11.775Z" fill="#344054"/>
</svg>
