<svg width="32" height="32" viewBox="0 0 32 32" fill="none" xmlns="http://www.w3.org/2000/svg">
<path d="M28.975 16.85C28.9813 16.8002 28.9813 16.7498 28.975 16.7C28.9875 16.4625 29 16.2375 29 16C29.0044 13.0378 27.9892 10.1644 26.125 7.86248C26.0816 7.78057 26.0221 7.70829 25.95 7.64998C24.5719 6.00261 22.8067 4.72274 20.8125 3.92498L20.675 3.87498C17.6676 2.70818 14.3325 2.70818 11.325 3.87498L11.1875 3.92498C9.19335 4.72274 7.42816 6.00261 6.05001 7.64998C5.97795 7.70829 5.91842 7.78057 5.87501 7.86248C4.01083 10.1644 2.99565 13.0378 3.00001 16C3.00001 16.2375 3.01251 16.4625 3.02501 16.7C3.01874 16.7498 3.01874 16.8002 3.02501 16.85C3.16918 18.9978 3.84345 21.0765 4.98751 22.9C5.02596 22.9753 5.07204 23.0465 5.12501 23.1125C6.88198 25.7941 9.56539 27.7343 12.6625 28.5625H12.7C14.8635 29.1291 17.1365 29.1291 19.3 28.5625H19.3375C22.4346 27.7343 25.118 25.7941 26.875 23.1125C26.928 23.0465 26.9741 22.9753 27.0125 22.9C28.1566 21.0765 28.8309 18.9978 28.975 16.85ZM8.56251 14.6375L10.2125 15.175L11.8 20.075L10.7875 21.475H6.46251C5.69861 20.1606 5.22149 18.6994 5.06251 17.1875L8.56251 14.6375ZM23.4375 14.6375L26.9375 17.1875C26.7785 18.6994 26.3014 20.1606 25.5375 21.475H21.2125L20.2 20.075L21.7875 15.175L23.4375 14.6375ZM24.15 8.62498L22.8125 12.7375L21.1625 13.275L17 10.2375V8.51248L20.5 5.96248C21.8896 6.58468 23.1331 7.49176 24.15 8.62498ZM11.5 5.96248L15 8.51248V10.2375L10.8375 13.275L9.18751 12.7375L7.85001 8.62498C8.86688 7.49176 10.1104 6.58468 11.5 5.96248ZM13.75 26.7625L12.4125 22.65L13.425 21.25H18.575L19.5875 22.65L18.25 26.7625C16.7667 27.0792 15.2333 27.0792 13.75 26.7625Z" fill="#344054"/>
</svg>
