<svg width="32" height="32" viewBox="0 0 32 32" fill="none" xmlns="http://www.w3.org/2000/svg">
<path d="M30.9375 22.7125H30.925L28.8875 12.15C28.8875 12.1375 28.8875 12.1375 28.875 12.125C28.5618 10.3969 27.6521 8.83343 26.3043 7.70726C24.9566 6.5811 23.2564 5.96364 21.5 5.96252L10.5 6.00002C8.73551 5.99731 7.02672 6.61786 5.67512 7.7522C4.32351 8.88654 3.41595 10.4618 3.11254 12.2V12.225L1.07504 22.7C0.970793 23.2821 0.982623 23.8791 1.10985 24.4566C1.23707 25.034 1.47718 25.5807 1.81637 26.0651C2.15556 26.5495 2.58715 26.9621 3.08632 27.2791C3.58549 27.5962 4.1424 27.8114 4.72504 27.9125C4.98029 27.9628 5.23987 27.9879 5.50004 27.9875C6.69356 27.985 7.8383 27.5137 8.68754 26.675L8.73754 26.6125L13.825 20.9875L18.1875 20.9625L23.2625 26.625L23.325 26.6875C24.1681 27.5277 25.3098 27.9996 26.5 28C26.7643 27.9999 27.028 27.9747 27.2875 27.925C28.4612 27.7147 29.5038 27.0483 30.1877 26.0717C30.8716 25.095 31.1412 23.8873 30.9375 22.7125ZM13 14.5H12V15.5C12 15.7652 11.8947 16.0196 11.7071 16.2071C11.5196 16.3947 11.2653 16.5 11 16.5C10.7348 16.5 10.4805 16.3947 10.2929 16.2071C10.1054 16.0196 10 15.7652 10 15.5V14.5H9.00004C8.73482 14.5 8.48047 14.3947 8.29293 14.2071C8.10539 14.0196 8.00004 13.7652 8.00004 13.5C8.00004 13.2348 8.10539 12.9805 8.29293 12.7929C8.48047 12.6054 8.73482 12.5 9.00004 12.5H10V11.5C10 11.2348 10.1054 10.9805 10.2929 10.7929C10.4805 10.6054 10.7348 10.5 11 10.5C11.2653 10.5 11.5196 10.6054 11.7071 10.7929C11.8947 10.9805 12 11.2348 12 11.5V12.5H13C13.2653 12.5 13.5196 12.6054 13.7071 12.7929C13.8947 12.9805 14 13.2348 14 13.5C14 13.7652 13.8947 14.0196 13.7071 14.2071C13.5196 14.3947 13.2653 14.5 13 14.5ZM18 13.5C18 13.2348 18.1054 12.9805 18.2929 12.7929C18.4805 12.6054 18.7348 12.5 19 12.5H23C23.2653 12.5 23.5196 12.6054 23.7071 12.7929C23.8947 12.9805 24 13.2348 24 13.5C24 13.7652 23.8947 14.0196 23.7071 14.2071C23.5196 14.3947 23.2653 14.5 23 14.5H19C18.7348 14.5 18.4805 14.3947 18.2929 14.2071C18.1054 14.0196 18 13.7652 18 13.5ZM26.9375 25.9625C26.5455 26.0313 26.1428 26.006 25.7624 25.8886C25.3821 25.7713 25.0351 25.5653 24.75 25.2875L20.8625 20.975H21.5C22.7758 20.9763 24.0308 20.652 25.1463 20.033C26.2618 19.414 27.201 18.5207 27.875 17.4375L28.9625 23.0875C29.0716 23.7368 28.9201 24.403 28.541 24.9412C28.1618 25.4795 27.5856 25.8465 26.9375 25.9625Z" fill="#344054"/>
</svg>
