<svg width="32" height="32" viewBox="0 0 32 32" fill="none" xmlns="http://www.w3.org/2000/svg">
<path d="M29 15.95C28.9912 13.9588 28.5251 11.9962 27.6376 10.2136C26.7502 8.43106 25.4651 6.8762 23.8815 5.66898C22.2979 4.46177 20.4582 3.63447 18.5042 3.2509C16.5503 2.86734 14.5343 2.93777 12.6119 3.45675C10.6895 3.97574 8.91195 4.92941 7.41648 6.2442C5.92101 7.55898 4.74756 9.19973 3.98666 11.0399C3.22576 12.88 2.89775 14.8704 3.02794 16.8573C3.15812 18.8443 3.74301 20.7749 4.7375 22.5C4.9875 22.925 5.2625 23.3375 5.55 23.7375L5.6125 23.825C6.97529 25.6378 8.78904 27.0622 10.8733 27.9563C12.9575 28.8505 15.2395 29.1833 17.4923 28.9216C19.7451 28.6599 21.8901 27.8129 23.7138 26.4647C25.5376 25.1166 26.9765 23.3144 27.8875 21.2375C27.9375 21.1604 27.9755 21.0761 28 20.9875C28.6438 19.4288 28.9832 17.7613 29 16.075V15.95ZM5.5625 19.4875C4.81784 17.2434 4.81438 14.8193 5.55263 12.573C6.29088 10.3267 7.73172 8.37734 9.6625 7.0125L11.8 10.725C10.1973 11.6585 8.81207 12.9228 7.73651 14.4338C6.66095 15.9447 5.91981 17.6676 5.5625 19.4875ZM9.6625 24.9875C8.79056 24.3826 8.01513 23.6493 7.3625 22.8125C7.20192 20.7486 7.62701 18.6813 8.58889 16.8482C9.55077 15.0151 11.0104 13.4906 12.8 12.45L14.85 16L9.6625 24.9875ZM26.2125 20.075C24.5051 21.2426 22.5037 21.9063 20.4369 21.9903C18.3702 22.0743 16.3215 21.5752 14.525 20.55L16.575 17H26.95C26.8513 18.0548 26.603 19.0902 26.2125 20.075ZM22.675 15C22.6629 13.1481 22.259 11.3196 21.4899 9.63489C20.7208 7.95016 19.6039 6.44727 18.2125 5.225C20.526 5.69901 22.6252 6.90578 24.199 8.66646C25.7728 10.4271 26.7375 12.648 26.95 15H22.675Z" fill="#344054"/>
</svg>
