<svg width="32" height="32" viewBox="0 0 32 32" fill="none" xmlns="http://www.w3.org/2000/svg">
<path d="M27.125 4.38751C26.8574 4.20371 26.5489 4.08823 26.2264 4.05119C25.9039 4.01415 25.5773 4.05666 25.275 4.17501C23.525 4.86251 19.975 6.00001 16 6.00001C12.025 6.00001 8.475 4.86251 6.725 4.17501C6.42201 4.05716 6.09487 4.01495 5.77189 4.05203C5.44891 4.08911 5.13984 4.20436 4.87145 4.38781C4.60305 4.57125 4.38342 4.81736 4.23157 5.10482C4.07972 5.39227 4.00024 5.71241 4 6.03751V13C4 17.475 5.2125 21.6875 7.4 24.875C9.5875 28.0625 12.725 30 16 30C19.275 30 22.3375 28.1875 24.6 24.875C26.8625 21.5625 28 17.475 28 13V6.03751C28.0005 5.71185 27.921 5.39105 27.7684 5.10333C27.6158 4.81562 27.3949 4.5698 27.125 4.38751ZM8.525 15.6625C8.43715 15.5649 8.36941 15.4508 8.32564 15.327C8.28186 15.2032 8.26292 15.0719 8.26988 14.9407C8.27685 14.8096 8.30958 14.681 8.36623 14.5625C8.42287 14.444 8.50231 14.3378 8.6 14.25C8.69845 14.1629 8.8131 14.0961 8.9374 14.0534C9.0617 14.0106 9.1932 13.9928 9.32439 14.0009C9.45558 14.0091 9.58388 14.043 9.70195 14.1007C9.82002 14.1585 9.92555 14.2389 10.0125 14.3375C10.2001 14.5462 10.4294 14.7131 10.6857 14.8273C10.942 14.9416 11.2194 15.0006 11.5 15.0006C11.7806 15.0006 12.058 14.9416 12.3143 14.8273C12.5706 14.7131 12.7999 14.5462 12.9875 14.3375C13.0744 14.2389 13.18 14.1585 13.298 14.1007C13.4161 14.043 13.5444 14.0091 13.6756 14.0009C13.8068 13.9928 13.9383 14.0106 14.0626 14.0534C14.1869 14.0961 14.3015 14.1629 14.4 14.25C14.4977 14.3378 14.5771 14.444 14.6338 14.5625C14.6904 14.681 14.7232 14.8096 14.7301 14.9407C14.7371 15.0719 14.7181 15.2032 14.6744 15.327C14.6306 15.4508 14.5628 15.5649 14.475 15.6625C14.102 16.0834 13.644 16.4204 13.1312 16.6511C12.6183 16.8819 12.0624 17.0012 11.5 17.0012C10.9376 17.0012 10.3817 16.8819 9.86884 16.6511C9.356 16.4204 8.89797 16.0834 8.525 15.6625ZM20.15 23.55C20.0023 23.7699 19.7743 23.9232 19.5149 23.9769C19.2555 24.0307 18.9854 23.9806 18.7625 23.8375C17.9447 23.2915 16.9834 23.0001 16 23.0001C15.0166 23.0001 14.0553 23.2915 13.2375 23.8375C13.1276 23.91 13.0045 23.9601 12.8752 23.9848C12.7459 24.0096 12.613 24.0086 12.484 23.9819C12.3551 23.9552 12.2328 23.9033 12.124 23.8292C12.0152 23.7551 11.9221 23.6602 11.85 23.55C11.7057 23.3286 11.6537 23.0595 11.705 22.8003C11.7564 22.541 11.9071 22.3121 12.125 22.1625C13.275 21.4039 14.6224 20.9996 16 20.9996C17.3776 20.9996 18.725 21.4039 19.875 22.1625C20.0929 22.3121 20.2436 22.541 20.295 22.8003C20.3463 23.0595 20.2943 23.3286 20.15 23.55ZM23.475 15.6625C23.102 16.0834 22.644 16.4204 22.1312 16.6511C21.6183 16.8819 21.0624 17.0012 20.5 17.0012C19.9376 17.0012 19.3817 16.8819 18.8688 16.6511C18.356 16.4204 17.898 16.0834 17.525 15.6625C17.4372 15.5649 17.3694 15.4508 17.3256 15.327C17.2819 15.2032 17.2629 15.0719 17.2699 14.9407C17.2768 14.8096 17.3096 14.681 17.3662 14.5625C17.4229 14.444 17.5023 14.3378 17.6 14.25C17.6985 14.1629 17.8131 14.0961 17.9374 14.0534C18.0617 14.0106 18.1932 13.9928 18.3244 14.0009C18.4556 14.0091 18.5839 14.043 18.702 14.1007C18.82 14.1585 18.9256 14.2389 19.0125 14.3375C19.2001 14.5462 19.4294 14.7131 19.6857 14.8273C19.942 14.9416 20.2194 15.0006 20.5 15.0006C20.7806 15.0006 21.058 14.9416 21.3143 14.8273C21.5706 14.7131 21.7999 14.5462 21.9875 14.3375C22.0744 14.2389 22.18 14.1585 22.298 14.1007C22.4161 14.043 22.5444 14.0091 22.6756 14.0009C22.8068 13.9928 22.9383 14.0106 23.0626 14.0534C23.1869 14.0961 23.3015 14.1629 23.4 14.25C23.4977 14.3378 23.5771 14.444 23.6338 14.5625C23.6904 14.681 23.7232 14.8096 23.7301 14.9407C23.7371 15.0719 23.7181 15.2032 23.6744 15.327C23.6306 15.4508 23.5628 15.5649 23.475 15.6625Z" fill="#344054"/>
</svg>
