<svg width="32" height="32" viewBox="0 0 32 32" fill="none" xmlns="http://www.w3.org/2000/svg">
<path d="M13 23.5C13 24.39 12.7361 25.26 12.2416 26.0001C11.7472 26.7401 11.0444 27.3169 10.2221 27.6575C9.39982 27.9981 8.49502 28.0872 7.6221 27.9135C6.74919 27.7399 5.94737 27.3113 5.31803 26.682C4.68869 26.0526 4.26011 25.2508 4.08648 24.3779C3.91284 23.505 4.00196 22.6002 4.34255 21.7779C4.68315 20.9557 5.25992 20.2529 5.99994 19.7584C6.73996 19.2639 7.60999 19 8.50001 19C9.69348 19 10.8381 19.4741 11.682 20.318C12.5259 21.1619 13 22.3065 13 23.5ZM4.28751 14.7125C4.47865 14.8973 4.73413 15.0006 5.00001 15.0006C5.26589 15.0006 5.52137 14.8973 5.71251 14.7125L7.50001 12.9125L9.28751 14.7125C9.47865 14.8973 9.73413 15.0006 10 15.0006C10.2659 15.0006 10.5214 14.8973 10.7125 14.7125C10.9003 14.5229 11.0056 14.2668 11.0056 14C11.0056 13.7332 10.9003 13.4771 10.7125 13.2875L8.91251 11.5L10.7125 9.7125C10.872 9.5182 10.9535 9.27154 10.9411 9.02049C10.9288 8.76944 10.8235 8.53195 10.6458 8.35421C10.4681 8.17648 10.2306 8.07121 9.97952 8.05888C9.72847 8.04655 9.48181 8.12804 9.28751 8.2875L7.50001 10.0875L5.71251 8.2875C5.51821 8.12804 5.27155 8.04655 5.0205 8.05888C4.76945 8.07121 4.53196 8.17648 4.35422 8.35421C4.17649 8.53195 4.07122 8.76944 4.05889 9.02049C4.04656 9.27154 4.12805 9.5182 4.28751 9.7125L6.08751 11.5L4.28751 13.2875C4.09973 13.4771 3.99438 13.7332 3.99438 14C3.99438 14.2668 4.09973 14.5229 4.28751 14.7125ZM25.9125 23.5L27.7125 21.7125C27.872 21.5182 27.9535 21.2715 27.9411 21.0205C27.9288 20.7694 27.8235 20.5319 27.6458 20.3542C27.4681 20.1765 27.2306 20.0712 26.9795 20.0589C26.7285 20.0465 26.4818 20.128 26.2875 20.2875L24.5 22.0875L22.7125 20.2875C22.5182 20.128 22.2716 20.0465 22.0205 20.0589C21.7694 20.0712 21.532 20.1765 21.3542 20.3542C21.1765 20.5319 21.0712 20.7694 21.0589 21.0205C21.0466 21.2715 21.128 21.5182 21.2875 21.7125L23.0875 23.5L21.2875 25.2875C21.0997 25.4771 20.9944 25.7332 20.9944 26C20.9944 26.2668 21.0997 26.5229 21.2875 26.7125C21.4786 26.8973 21.7341 27.0006 22 27.0006C22.2659 27.0006 22.5214 26.8973 22.7125 26.7125L24.5 24.9125L26.2875 26.7125C26.4786 26.8973 26.7341 27.0006 27 27.0006C27.2659 27.0006 27.5214 26.8973 27.7125 26.7125C27.9003 26.5229 28.0056 26.2668 28.0056 26C28.0056 25.7332 27.9003 25.4771 27.7125 25.2875L25.9125 23.5ZM19.7125 6.2875L19.4125 6H22C22.2652 6 22.5196 5.89464 22.7071 5.70711C22.8947 5.51957 23 5.26522 23 5C23 4.73478 22.8947 4.48043 22.7071 4.29289C22.5196 4.10536 22.2652 4 22 4H17C16.7348 4 16.4804 4.10536 16.2929 4.29289C16.1054 4.48043 16 4.73478 16 5V10C16 10.2652 16.1054 10.5196 16.2929 10.7071C16.4804 10.8946 16.7348 11 17 11C17.2652 11 17.5196 10.8946 17.7071 10.7071C17.8947 10.5196 18 10.2652 18 10V7.4125L18.2875 7.7125C20.5375 9.95 20.525 12.1375 20.1375 13.575C19.55 15.6625 17.7125 17.5375 15.7625 18.025C15.5052 18.0901 15.2837 18.2536 15.1458 18.4804C15.0078 18.7072 14.9645 18.9791 15.025 19.2375C15.0783 19.4556 15.2035 19.6494 15.3804 19.7877C15.5572 19.926 15.7755 20.0008 16 20L16.2375 19.975C18.9 19.3125 21.2875 16.9 22.0625 14.1C22.8375 11.3 21.9875 8.575 19.7125 6.2875Z" fill="#344054"/>
</svg>
