<svg width="32" height="32" viewBox="0 0 32 32" fill="none" xmlns="http://www.w3.org/2000/svg">
<path d="M31 18C31 18.2652 30.8946 18.5196 30.7071 18.7071C30.5196 18.8946 30.2652 19 30 19C29.7348 19 29.4804 18.8946 29.2929 18.7071C29.1054 18.5196 29 18.2652 29 18C28.9934 14.8194 27.727 11.771 25.478 9.52201C23.229 7.27301 20.1806 6.00661 17 6C14.0836 6.00331 11.2877 7.1633 9.22548 9.22548C7.1633 11.2877 6.00331 14.0836 6 17C6.00331 19.6511 7.05794 22.1928 8.93259 24.0674C10.8072 25.9421 13.3489 26.9967 16 27C18.3859 26.9967 20.6732 26.0474 22.3603 24.3603C24.0474 22.6732 24.9967 20.3859 25 18C24.9967 15.8793 24.1528 13.8464 22.6532 12.3468C21.1536 10.8472 19.1207 10.0033 17 10C15.1435 10 13.363 10.7375 12.0503 12.0503C10.7375 13.363 10 15.1435 10 17C10 18.5913 10.6321 20.1174 11.7574 21.2426C12.8826 22.3679 14.4087 23 16 23C16.6566 23 17.3068 22.8707 17.9134 22.6194C18.52 22.3681 19.0712 21.9998 19.5355 21.5355C19.9998 21.0712 20.3681 20.52 20.6194 19.9134C20.8707 19.3068 21 18.6566 21 18C20.9967 16.9401 20.5742 15.9246 19.8248 15.1752C19.0754 14.4258 18.0599 14.0033 17 14C16.2054 14.0033 15.4442 14.3204 14.8823 14.8823C14.3204 15.4442 14.0033 16.2054 14 17C14 17.5304 14.2107 18.0391 14.5858 18.4142C14.9609 18.7893 15.4696 19 16 19C16.2652 19 16.5196 18.8946 16.7071 18.7071C16.8946 18.5196 17 18.2652 17 18C16.7348 18 16.4804 17.8946 16.2929 17.7071C16.1054 17.5196 16 17.2652 16 17C16 16.7348 16.1054 16.4804 16.2929 16.2929C16.4804 16.1054 16.7348 16 17 16C17.5304 16 18.0391 16.2107 18.4142 16.5858C18.7893 16.9609 19 17.4696 19 18C18.9967 18.7946 18.6796 19.5558 18.1177 20.1177C17.5558 20.6796 16.7946 20.9967 16 21C14.9401 20.9967 13.9246 20.5742 13.1752 19.8248C12.4258 19.0754 12.0033 18.0599 12 17C12 15.6739 12.5268 14.4021 13.4645 13.4645C14.4021 12.5268 15.6739 12 17 12C18.5913 12 20.1174 12.6321 21.2426 13.7574C22.3679 14.8826 23 16.4087 23 18C23 19.8565 22.2625 21.637 20.9497 22.9497C19.637 24.2625 17.8565 25 16 25C13.8793 24.9967 11.8464 24.1528 10.3468 22.6532C8.84722 21.1536 8.00331 19.1207 8 17C8.00331 14.6141 8.95258 12.3268 10.6397 10.6397C12.3268 8.95258 14.6141 8.00331 17 8C19.6511 8.00331 22.1928 9.05794 24.0674 10.9326C25.9421 12.8072 26.9967 15.3489 27 18C26.9967 20.9164 25.8367 23.7123 23.7745 25.7745C21.7123 27.8367 18.9164 28.9967 16 29C12.8194 28.9934 9.77102 27.727 7.52202 25.478C5.27301 23.229 4.00661 20.1806 4 17C4.00661 13.5542 5.37837 10.2515 7.81491 7.81491C10.2515 5.37837 13.5542 4.00661 17 4C20.712 4.00331 24.271 5.47937 26.8958 8.10416C29.5206 10.729 30.9967 14.288 31 18Z" fill="#344054"/>
</svg>
