<svg width="32" height="32" viewBox="0 0 32 32" fill="none" xmlns="http://www.w3.org/2000/svg">
<path d="M20.725 28H26C26.5304 28 27.0391 27.7893 27.4142 27.4142C27.7893 27.0391 28 26.5304 28 26V21.2875C27.9994 21.1234 27.958 20.9621 27.8794 20.818C27.8009 20.674 27.6876 20.5518 27.55 20.4625C27.4143 20.3688 27.2568 20.3116 27.0927 20.2963C26.9285 20.281 26.7632 20.3081 26.6125 20.375C26.2583 20.515 25.8809 20.587 25.5 20.5875C23.85 20.5875 22.5 19.2 22.5 17.5C22.5 15.8 23.85 14.4125 25.5 14.4125C25.8809 14.413 26.2583 14.485 26.6125 14.625C26.7632 14.6919 26.9285 14.719 27.0927 14.7037C27.2568 14.6884 27.4143 14.6312 27.55 14.5375C27.6876 14.4482 27.8009 14.326 27.8794 14.182C27.958 14.0379 27.9994 13.8766 28 13.7125V9C28 8.46957 27.7893 7.96086 27.4142 7.58579C27.0391 7.21071 26.5304 7 26 7H21.475C21.4875 6.8375 21.5 6.6625 21.5 6.5C21.5 5.30653 21.0259 4.16193 20.182 3.31802C19.3381 2.47411 18.1935 2 17 2C15.8065 2 14.6619 2.47411 13.818 3.31802C12.9741 4.16193 12.5 5.30653 12.5 6.5C12.5 6.6625 12.5125 6.8375 12.525 7H8C7.46957 7 6.96086 7.21071 6.58579 7.58579C6.21071 7.96086 6 8.46957 6 9V13.025L5.5 13C4.30653 13 3.16193 13.4741 2.31802 14.318C1.47411 15.1619 1 16.3065 1 17.5C1 18.6935 1.47411 19.8381 2.31802 20.682C3.16193 21.5259 4.30653 22 5.5 22L6 21.975V26C6 26.5304 6.21071 27.0391 6.58579 27.4142C6.96086 27.7893 7.46957 28 8 28H13.275" fill="#344054"/>
</svg>
