<svg width="32" height="32" viewBox="0 0 32 32" fill="none" xmlns="http://www.w3.org/2000/svg">
<path d="M16 3C12.8194 3.00661 9.77102 4.27301 7.52202 6.52202C5.27301 8.77102 4.00661 11.8194 4 15V27C4.00398 27.1881 4.06027 27.3713 4.16256 27.5292C4.26485 27.6871 4.40911 27.8133 4.57914 27.8938C4.74917 27.9743 4.93826 28.0058 5.1252 27.9848C5.31214 27.9638 5.48954 27.8912 5.6375 27.775L8.6625 25.2875L11.7 27.775C11.8784 27.9202 12.1013 27.9994 12.3313 27.9994C12.5612 27.9994 12.7841 27.9202 12.9625 27.775L16 25.2875L19.0375 27.775C19.2159 27.9202 19.4388 27.9994 19.6688 27.9994C19.8987 27.9994 20.1216 27.9202 20.3 27.775L23.3375 25.2875L26.3625 27.775C26.5089 27.8957 26.6869 27.9717 26.8754 27.9938C27.0638 28.016 27.2546 27.9834 27.425 27.9C27.597 27.8209 27.7427 27.694 27.8447 27.5344C27.9466 27.3749 28.0005 27.1894 28 27V15C27.9934 11.8194 26.727 8.77102 24.478 6.52202C22.229 4.27301 19.1806 3.00661 16 3ZM12.5 16C12.2033 16 11.9133 15.912 11.6666 15.7472C11.42 15.5824 11.2277 15.3481 11.1142 15.074C11.0006 14.7999 10.9709 14.4983 11.0288 14.2074C11.0867 13.9164 11.2296 13.6491 11.4393 13.4393C11.6491 13.2296 11.9164 13.0867 12.2074 13.0288C12.4983 12.9709 12.7999 13.0006 13.074 13.1142C13.3481 13.2277 13.5824 13.42 13.7472 13.6666C13.912 13.9133 14 14.2033 14 14.5C14 14.8978 13.842 15.2794 13.5607 15.5607C13.2794 15.842 12.8978 16 12.5 16ZM19.5 16C19.2033 16 18.9133 15.912 18.6666 15.7472C18.42 15.5824 18.2277 15.3481 18.1142 15.074C18.0007 14.7999 17.9709 14.4983 18.0288 14.2074C18.0867 13.9164 18.2296 13.6491 18.4393 13.4393C18.6491 13.2296 18.9164 13.0867 19.2074 13.0288C19.4983 12.9709 19.7999 13.0006 20.074 13.1142C20.3481 13.2277 20.5824 13.42 20.7472 13.6666C20.912 13.9133 21 14.2033 21 14.5C21 14.8978 20.842 15.2794 20.5607 15.5607C20.2794 15.842 19.8978 16 19.5 16Z" fill="#344054"/>
</svg>
