<svg width="32" height="32" viewBox="0 0 32 32" fill="none" xmlns="http://www.w3.org/2000/svg">
<path d="M29.9 11.875C29.7727 13.8347 28.9323 15.68 27.5375 17.0625L17.4125 27.1875C17.2277 27.3742 17.0077 27.5224 16.7652 27.6235C16.5228 27.7247 16.2627 27.7768 16 27.7768C15.7373 27.7768 15.4772 27.7247 15.2347 27.6235C14.9923 27.5224 14.7723 27.3742 14.5875 27.1875L4.19998 16.8C3.479 16.0809 2.91226 15.2224 2.53442 14.2768C2.15658 13.3312 1.97558 12.3185 2.00249 11.3006C2.0294 10.2827 2.26366 9.28095 2.69093 8.35666C3.1182 7.43237 3.72951 6.60495 4.48748 5.92498C5.21488 5.27146 6.06756 4.77267 6.99372 4.45894C7.91988 4.14521 8.90016 4.02308 9.87498 4.09998C11.4008 4.20081 12.8663 4.73411 14.1 5.63748C14.1594 5.6797 14.2088 5.7344 14.2449 5.79775C14.2809 5.86109 14.3027 5.93155 14.3087 6.00419C14.3146 6.07683 14.3046 6.14989 14.2794 6.21826C14.2541 6.28663 14.2142 6.34865 14.1625 6.39998L11.8625 8.69998C11.6755 8.88745 11.5704 9.14144 11.5704 9.40623C11.5704 9.67103 11.6755 9.92502 11.8625 10.1125L16.1625 14.4L14.2875 16.2875C14.1934 16.3795 14.1186 16.4893 14.0675 16.6106C14.0165 16.7319 13.9902 16.8621 13.9902 16.9937C13.9902 17.1253 14.0165 17.2556 14.0675 17.3769C14.1186 17.4982 14.1934 17.608 14.2875 17.7C14.4741 17.8838 14.7255 17.987 14.9875 17.9875C15.253 17.9864 15.508 17.8835 15.7 17.7L18.2875 15.1125C18.4745 14.925 18.5795 14.671 18.5795 14.4062C18.5795 14.1414 18.4745 13.8874 18.2875 13.7L13.9875 9.39998L16.7 6.69998L17.2 6.19998C17.919 5.479 18.7776 4.91226 19.7232 4.53442C20.6688 4.15658 21.6815 3.97558 22.6994 4.00249C23.7173 4.0294 24.719 4.26366 25.6433 4.69093C26.5676 5.1182 27.395 5.72951 28.075 6.48748C28.7285 7.21488 29.2273 8.06757 29.541 8.99372C29.8548 9.91988 29.9769 10.9002 29.9 11.875Z" fill="#344054"/>
</svg>
