<svg width="32" height="32" viewBox="0 0 32 32" fill="none" xmlns="http://www.w3.org/2000/svg">
<path d="M28.2499 7.0375C28.1076 6.21752 27.7154 5.46156 27.1269 4.87308C26.5384 4.28459 25.7824 3.89234 24.9624 3.75C21.0374 3.0875 13.6624 2.7875 8.22494 8.225C2.78744 13.6625 3.08744 21.0375 3.74994 24.9625C3.89228 25.7825 4.28453 26.5384 4.87301 27.1269C5.4615 27.7154 6.21746 28.1077 7.03744 28.25C8.4132 28.479 9.80526 28.5961 11.1999 28.6C15.0874 28.6 19.9249 27.6375 23.7749 23.775C29.2124 18.3375 28.9124 10.9625 28.2499 7.0375ZM7.37494 26.275C6.96108 26.2091 6.57865 26.014 6.28231 25.7176C5.98597 25.4213 5.79089 25.0389 5.72494 24.625C5.50286 23.3621 5.38994 22.0823 5.38744 20.8L11.1999 26.6125C9.91764 26.6095 8.63796 26.4966 7.37494 26.275ZM20.7124 12.7125L18.8249 14.5875L19.9499 15.7125C20.137 15.9 20.242 16.154 20.242 16.4188C20.242 16.6836 20.137 16.9375 19.9499 17.125C19.758 17.3085 19.503 17.4114 19.2374 17.4125C18.9755 17.4121 18.7241 17.3088 18.5374 17.125L17.4124 16L15.9999 17.4125L17.1249 18.5375C17.312 18.725 17.417 18.979 17.417 19.2438C17.417 19.5086 17.312 19.7625 17.1249 19.95C17.0318 20.0437 16.9207 20.1175 16.7982 20.1669C16.6757 20.2163 16.5445 20.2403 16.4124 20.2375C16.2823 20.2401 16.153 20.2159 16.0326 20.1665C15.9122 20.117 15.8032 20.0433 15.7124 19.95L14.5874 18.825L12.7124 20.7125C12.5213 20.8973 12.2658 21.0006 11.9999 21.0006C11.7341 21.0006 11.4786 20.8973 11.2874 20.7125C11.0997 20.5229 10.9943 20.2669 10.9943 20C10.9943 19.7332 11.0997 19.4771 11.2874 19.2875L13.1749 17.4125L12.0499 16.2875C11.8776 16.0973 11.785 15.8481 11.7913 15.5914C11.7976 15.3348 11.9024 15.0905 12.0839 14.9089C12.2654 14.7274 12.5098 14.6227 12.7664 14.6164C13.023 14.61 13.2722 14.7026 13.4624 14.875L14.5874 16L15.9999 14.5875L14.8749 13.4625C14.7026 13.2723 14.61 13.0231 14.6163 12.7664C14.6226 12.5098 14.7274 12.2655 14.9089 12.0839C15.0904 11.9024 15.3348 11.7977 15.5914 11.7914C15.848 11.785 16.0972 11.8776 16.2874 12.05L17.4124 13.175L19.2874 11.2875C19.4817 11.128 19.7284 11.0465 19.9795 11.0589C20.2305 11.0712 20.468 11.1765 20.6457 11.3542C20.8235 11.5319 20.9287 11.7694 20.9411 12.0205C20.9534 12.2715 20.8719 12.5182 20.7124 12.7125ZM20.7999 5.3875C22.0822 5.3905 23.3619 5.50341 24.6249 5.725C25.0388 5.79095 25.4212 5.98603 25.7176 6.28237C26.0139 6.57871 26.209 6.96114 26.2749 7.375C26.497 8.63795 26.6099 9.91768 26.6124 11.2L20.7999 5.3875Z" fill="#344054"/>
</svg>
