<svg width="32" height="32" viewBox="0 0 32 32" fill="none" xmlns="http://www.w3.org/2000/svg">
<path d="M15.5125 2.01253C9.06252 2.25003 3.80001 7.46253 3.51251 13.925C3.40564 16.0667 3.85485 18.1995 4.81644 20.1162C5.77804 22.0328 7.21929 23.6679 9.00001 24.8625V27C9.00001 27.5305 9.21073 28.0392 9.5858 28.4142C9.96087 28.7893 10.4696 29 11 29H12C12.1326 29 12.2598 28.9474 12.3536 28.8536C12.4473 28.7598 12.5 28.6326 12.5 28.5V25.5375C12.4959 25.278 12.5904 25.0266 12.7644 24.8341C12.9384 24.6415 13.1789 24.5222 13.4375 24.5C13.574 24.4915 13.7108 24.511 13.8394 24.5574C13.9681 24.6038 14.0858 24.6761 14.1854 24.7699C14.285 24.8636 14.3643 24.9768 14.4184 25.1023C14.4725 25.2279 14.5003 25.3633 14.5 25.5V28.5C14.5 28.6326 14.5527 28.7598 14.6465 28.8536C14.7402 28.9474 14.8674 29 15 29H17C17.1326 29 17.2598 28.9474 17.3536 28.8536C17.4473 28.7598 17.5 28.6326 17.5 28.5V25.5375C17.4959 25.278 17.5904 25.0266 17.7644 24.8341C17.9384 24.6415 18.1789 24.5222 18.4375 24.5C18.574 24.4915 18.7108 24.511 18.8394 24.5574C18.9681 24.6038 19.0858 24.6761 19.1854 24.7699C19.285 24.8636 19.3643 24.9768 19.4184 25.1023C19.4725 25.2279 19.5003 25.3633 19.5 25.5V28.5C19.5 28.6326 19.5527 28.7598 19.6465 28.8536C19.7402 28.9474 19.8674 29 20 29H21C21.5304 29 22.0392 28.7893 22.4142 28.4142C22.7893 28.0392 23 27.5305 23 27V24.8625C25.2532 23.3412 26.949 21.1268 27.8303 18.5549C28.7116 15.983 28.7304 13.194 27.8838 10.6104C27.0372 8.02693 25.3715 5.78985 23.139 4.23831C20.9065 2.68676 18.2291 1.90535 15.5125 2.01253ZM11.5 19C11.0056 19 10.5222 18.8534 10.1111 18.5787C9.69997 18.304 9.37953 17.9136 9.19032 17.4567C9.0011 16.9999 8.95159 16.4973 9.04805 16.0123C9.14451 15.5273 9.38262 15.0819 9.73225 14.7323C10.0819 14.3826 10.5273 14.1445 11.0123 14.0481C11.4972 13.9516 11.9999 14.0011 12.4567 14.1903C12.9135 14.3795 13.304 14.7 13.5787 15.1111C13.8534 15.5222 14 16.0056 14 16.5C13.9967 17.1621 13.7323 17.796 13.2642 18.2642C12.796 18.7323 12.162 18.9967 11.5 19ZM20.5 19C20.0056 19 19.5222 18.8534 19.1111 18.5787C18.7 18.304 18.3795 17.9136 18.1903 17.4567C18.0011 16.9999 17.9516 16.4973 18.0481 16.0123C18.1445 15.5273 18.3826 15.0819 18.7322 14.7323C19.0819 14.3826 19.5273 14.1445 20.0123 14.0481C20.4972 13.9516 20.9999 14.0011 21.4567 14.1903C21.9135 14.3795 22.304 14.7 22.5787 15.1111C22.8534 15.5222 23 16.0056 23 16.5C22.9967 17.1621 22.7323 17.796 22.2642 18.2642C21.796 18.7323 21.162 18.9967 20.5 19Z" fill="#344054"/>
</svg>
