<svg width="32" height="32" viewBox="0 0 32 32" fill="none" xmlns="http://www.w3.org/2000/svg">
<path d="M29.5 17.4125L17.4125 29.5C17.2277 29.6867 17.0077 29.8349 16.7652 29.9361C16.5228 30.0372 16.2627 30.0893 16 30.0893C15.7373 30.0893 15.4772 30.0372 15.2347 29.9361C14.9923 29.8349 14.7723 29.6867 14.5875 29.5L2.49999 17.4125C2.12899 17.036 1.92102 16.5286 1.92102 16C1.92102 15.4714 2.12899 14.964 2.49999 14.5875L14.5875 2.49999C14.964 2.12899 15.4714 1.92102 16 1.92102C16.5286 1.92102 17.036 2.12899 17.4125 2.49999L29.5 14.5875C29.871 14.964 30.079 15.4714 30.079 16C30.079 16.5286 29.871 17.036 29.5 17.4125Z" fill="#344054"/>
</svg>
