<svg width="32" height="32" viewBox="0 0 32 32" fill="none" xmlns="http://www.w3.org/2000/svg">
<path d="M24 4H8C6.94015 4.0033 5.92465 4.42578 5.17521 5.17521C4.42578 5.92465 4.0033 6.94015 4 8V24C4.0033 25.0599 4.42578 26.0754 5.17521 26.8248C5.92465 27.5742 6.94015 27.9967 8 28H24C25.0599 27.9967 26.0754 27.5742 26.8248 26.8248C27.5742 26.0754 27.9967 25.0599 28 24V8C27.9967 6.94015 27.5742 5.92465 26.8248 5.17521C26.0754 4.42578 25.0599 4.0033 24 4ZM16 17.5C15.7033 17.5 15.4133 17.412 15.1666 17.2472C14.92 17.0824 14.7277 16.8481 14.6142 16.574C14.5006 16.2999 14.4709 15.9983 14.5288 15.7074C14.5867 15.4164 14.7296 15.1491 14.9393 14.9393C15.1491 14.7296 15.4164 14.5867 15.7074 14.5288C15.9983 14.4709 16.2999 14.5006 16.574 14.6142C16.8481 14.7277 17.0824 14.92 17.2472 15.1666C17.412 15.4133 17.5 15.7033 17.5 16C17.5 16.3978 17.342 16.7794 17.0607 17.0607C16.7794 17.342 16.3978 17.5 16 17.5Z" fill="#344054"/>
</svg>
