<svg width="32" height="32" viewBox="0 0 32 32" fill="none" xmlns="http://www.w3.org/2000/svg">
<path d="M29.8375 9.18754C29.5515 8.94877 29.2041 8.7952 28.835 8.74437C28.4659 8.69353 28.0899 8.74747 27.75 8.90004L21.425 11.7125L17.75 5.08754C17.5744 4.77824 17.3199 4.52101 17.0125 4.34207C16.7051 4.16312 16.3557 4.06885 16 4.06885C15.6443 4.06885 15.295 4.16312 14.9876 4.34207C14.6802 4.52101 14.4257 4.77824 14.25 5.08754L10.575 11.7125L4.25001 8.90004C3.90939 8.7477 3.53295 8.69369 3.16324 8.7441C2.79353 8.79452 2.4453 8.94735 2.15791 9.18533C1.87052 9.4233 1.65543 9.73693 1.53696 10.0908C1.41849 10.4446 1.40136 10.8245 1.48751 11.1875L4.66251 24.725C4.72322 24.9871 4.83651 25.2342 4.99551 25.4512C5.15451 25.6682 5.35591 25.8507 5.58751 25.9875C5.90107 26.1752 6.25957 26.2746 6.62501 26.275C6.80266 26.2747 6.97938 26.2495 7.15001 26.2C12.9373 24.6 19.0502 24.6 24.8375 26.2C25.3659 26.339 25.9279 26.2625 26.4 25.9875C26.633 25.8524 26.8355 25.6705 26.9947 25.4532C27.1539 25.2359 27.2664 24.988 27.325 24.725L30.5125 11.1875C30.5977 10.8244 30.5796 10.4447 30.4603 10.0912C30.3411 9.73782 30.1253 9.4248 29.8375 9.18754ZM21 20.3125C20.9725 20.559 20.8554 20.7868 20.6711 20.9526C20.4868 21.1185 20.248 21.211 20 21.2125H19.9C17.3066 20.95 14.6934 20.95 12.1 21.2125C11.8365 21.2406 11.5726 21.1628 11.3664 20.9964C11.1601 20.83 11.0283 20.5885 11 20.325C10.9755 20.0602 11.0562 19.7964 11.2246 19.5906C11.393 19.3848 11.6356 19.2535 11.9 19.225C14.6258 18.9375 17.3742 18.9375 20.1 19.225C20.3621 19.2535 20.6027 19.383 20.7708 19.5861C20.9388 19.7892 21.0211 20.0498 21 20.3125Z" fill="#344054"/>
</svg>
