<svg width="32" height="32" viewBox="0 0 32 32" fill="none" xmlns="http://www.w3.org/2000/svg">
<path d="M29 15C28.9934 11.5542 27.6216 8.25145 25.1851 5.81491C22.7485 3.37837 19.4458 2.00661 16 2C12.5542 2.00661 9.25145 3.37837 6.81491 5.81491C4.37837 8.25145 3.00661 11.5542 3 15C3.00188 15.1549 3.03886 15.3074 3.10814 15.4459C3.17742 15.5845 3.27721 15.7056 3.4 15.8L15 24.5V27H14C13.7348 27 13.4804 27.1054 13.2929 27.2929C13.1054 27.4804 13 27.7348 13 28C13 28.2652 13.1054 28.5196 13.2929 28.7071C13.4804 28.8946 13.7348 29 14 29H18C18.2652 29 18.5196 28.8946 18.7071 28.7071C18.8946 28.5196 19 28.2652 19 28C19 27.7348 18.8946 27.4804 18.7071 27.2929C18.5196 27.1054 18.2652 27 18 27H17V24.5L28.6 15.8C28.7228 15.7056 28.8226 15.5845 28.8919 15.4459C28.9611 15.3074 28.9981 15.1549 29 15ZM26.95 14H21.975C21.7875 9.2625 20.2375 6.2 18.8375 4.375C21.0112 4.95815 22.9541 6.1933 24.4045 7.91415C25.8549 9.635 26.7433 11.7589 26.95 14ZM19.3 16L16 21.9375L12.7 16H19.3ZM10.4125 16L12.85 20.3875L7 16H10.4125ZM21.5875 16H25L19.15 20.3875L21.5875 16ZM13.1625 4.375C11.7625 6.2 10.2125 9.2625 10.025 14H5.05C5.25669 11.7589 6.14506 9.635 7.59549 7.91415C9.04593 6.1933 10.9888 4.95815 13.1625 4.375Z" fill="#344054"/>
</svg>
