<svg width="32" height="32" viewBox="0 0 32 32" fill="none" xmlns="http://www.w3.org/2000/svg">
<path d="M22.575 26.375C22.6149 26.6365 22.551 26.9032 22.3968 27.1181C22.2426 27.333 22.0105 27.4791 21.75 27.525H21.5875C21.351 27.5227 21.1228 27.4377 20.9424 27.2847C20.762 27.1318 20.6409 26.9205 20.6 26.6875L20.1125 23.75C20.0677 23.4881 20.1289 23.2192 20.2824 23.0023C20.436 22.7855 20.6693 22.6385 20.9312 22.5938C21.1932 22.549 21.4621 22.6101 21.6789 22.7637C21.8958 22.9172 22.0427 23.1506 22.0875 23.4125L22.575 26.375ZM16 23C15.7348 23 15.4804 23.1054 15.2929 23.2929C15.1054 23.4804 15 23.7348 15 24V28C15 28.2652 15.1054 28.5196 15.2929 28.7071C15.4804 28.8947 15.7348 29 16 29C16.2652 29 16.5196 28.8947 16.7071 28.7071C16.8946 28.5196 17 28.2652 17 28V24C17 23.7348 16.8946 23.4804 16.7071 23.2929C16.5196 23.1054 16.2652 23 16 23ZM11.0625 22.6125C10.9335 22.5892 10.8012 22.5919 10.6733 22.6202C10.5453 22.6486 10.4243 22.7022 10.3172 22.7778C10.2102 22.8534 10.1193 22.9496 10.0498 23.0607C9.98032 23.1718 9.93364 23.2957 9.9125 23.425L9.425 26.375C9.38506 26.6365 9.44902 26.9032 9.60319 27.1181C9.75737 27.333 9.98952 27.4791 10.25 27.525H10.4125C10.649 27.5227 10.8772 27.4377 11.0576 27.2847C11.238 27.1318 11.3591 26.9205 11.4 26.6875L11.8875 23.75C11.9272 23.49 11.8629 23.2248 11.7085 23.0119C11.554 22.799 11.322 22.6555 11.0625 22.6125ZM31 14C31 16.025 29.325 17.8625 26.2875 19.1625C23.525 20.35 19.875 21 16 21C12.125 21 8.475 20.35 5.7125 19.1625C2.675 17.8625 1 16.025 1 14C1 12.95 1.4625 11.4 3.65 9.93751C5.0625 8.98751 7.0125 8.21251 9.3 7.70001C9.93635 6.69384 10.7906 5.84344 11.7996 5.21158C12.8086 4.57972 13.9466 4.18254 15.1296 4.04935C16.3127 3.91617 17.5105 4.05039 18.6347 4.4421C19.759 4.83381 20.7809 5.47301 21.625 6.31251C22.0552 6.7353 22.4367 7.20489 22.7625 7.71251C27.925 8.88751 31 11.2125 31 14ZM10 12.1V12.4875C9.99749 12.711 10.0719 12.9287 10.2107 13.1039C10.3495 13.2791 10.5443 13.4013 10.7625 13.45C12.4824 13.8279 14.2391 14.0123 16 14C17.7609 14.0123 19.5176 13.8279 21.2375 13.45C21.4557 13.4013 21.6505 13.2791 21.7893 13.1039C21.9281 12.9287 22.0025 12.711 22 12.4875V12C22.0024 10.9756 21.7397 9.9679 21.2375 9.07501C20.9557 8.58635 20.6111 8.1367 20.2125 7.73751C19.6509 7.17515 18.9819 6.73151 18.2453 6.43302C17.5088 6.13452 16.7197 5.98727 15.925 6.00001C12.65 6.03751 10 8.77501 10 12.1Z" fill="#344054"/>
</svg>
