<svg width="32" height="32" viewBox="0 0 32 32" fill="none" xmlns="http://www.w3.org/2000/svg">
<path d="M26.4 9.92501C26.2806 9.98127 26.1736 10.0606 26.0851 10.1584C25.9965 10.2562 25.9282 10.3706 25.8841 10.4949C25.8399 10.6192 25.8208 10.751 25.8278 10.8828C25.8348 11.0145 25.8679 11.1436 25.925 11.2625C27.0941 13.7102 27.3176 16.5036 26.5525 19.1061C25.7874 21.7086 24.0876 23.9366 21.7798 25.3621C19.4719 26.7876 16.7187 27.3101 14.0491 26.8293C11.3794 26.3484 8.98161 24.898 7.31623 22.7568C5.65084 20.6156 4.83536 17.9346 5.02642 15.2287C5.21748 12.5228 6.40162 9.98295 8.35136 8.09701C10.3011 6.21107 12.8789 5.11206 15.5897 5.0111C18.3004 4.91013 20.9529 5.81433 23.0375 7.55001L20.1875 10.4C18.7697 9.35462 17.0098 8.88223 15.259 9.07709C13.5083 9.27195 11.8954 10.1197 10.7421 11.4513C9.58883 12.7828 8.97998 14.5003 9.03705 16.2609C9.09412 18.0215 9.8129 19.6959 11.05 20.95C12.0531 21.9528 13.3373 22.6272 14.7323 22.8839C16.1273 23.1405 17.5673 22.9673 18.8617 22.3872C20.1561 21.8071 21.2437 20.8475 21.9805 19.6355C22.7172 18.4234 23.0684 17.0161 22.9875 15.6C22.9811 15.4692 22.9488 15.3409 22.8924 15.2226C22.8359 15.1044 22.7566 14.9986 22.6588 14.9113C22.5611 14.8241 22.447 14.7572 22.3232 14.7144C22.1993 14.6717 22.0682 14.6541 21.9375 14.6625C21.8061 14.6689 21.6773 14.7012 21.5584 14.7574C21.4395 14.8137 21.3329 14.8929 21.2446 14.9904C21.1564 15.0879 21.0883 15.2019 21.0441 15.3258C21 15.4498 20.9808 15.5811 20.9875 15.7125C21.0418 16.6392 20.837 17.5628 20.3961 18.3797C19.9551 19.1966 19.2955 19.8746 18.491 20.3379C17.6865 20.8011 16.769 21.0312 15.8411 21.0024C14.9133 20.9737 14.0117 20.6872 13.2375 20.175L16.2375 17.175L20.95 12.4625L28.7125 4.71251C28.872 4.51821 28.9534 4.27155 28.9411 4.0205C28.9288 3.76944 28.8235 3.53195 28.6458 3.35422C28.468 3.17648 28.2306 3.07121 27.9795 3.05888C27.7284 3.04655 27.4818 3.12805 27.2875 3.28751L24.4625 6.12501C21.9747 3.99554 18.775 2.88338 15.5028 3.01084C12.2306 3.13829 9.12705 4.49598 6.81249 6.81251C5.60381 8.01782 4.64484 9.44977 3.99052 11.0263C3.3362 12.6029 2.99939 14.2931 2.99939 16C2.99939 17.707 3.3362 19.3971 3.99052 20.9737C4.64484 22.5502 5.60381 23.9822 6.81249 25.1875C8.0178 26.3962 9.44975 27.3552 11.0263 28.0095C12.6029 28.6638 14.293 29.0006 16 29.0006C17.7069 29.0006 19.3971 28.6638 20.9737 28.0095C22.5502 27.3552 23.9822 26.3962 25.1875 25.1875C27.0888 23.2885 28.3548 20.847 28.8115 18.1988C29.2681 15.5507 28.8929 12.8261 27.7375 10.4C27.6812 10.2807 27.6019 10.1736 27.5041 10.0851C27.4063 9.99655 27.2919 9.92823 27.1676 9.88408C27.0433 9.83993 26.9115 9.82081 26.7797 9.82784C26.648 9.83486 26.5189 9.86789 26.4 9.92501Z" fill="#344054"/>
</svg>
