<svg width="32" height="32" viewBox="0 0 32 32" fill="none" xmlns="http://www.w3.org/2000/svg">
<path d="M25.2626 6.87502C24.056 5.64278 22.6147 4.66496 21.0238 3.99939C19.4328 3.33381 17.7246 2.99399 16.0001 3.00002H15.0001C14.7348 3.00002 14.4805 3.10537 14.2929 3.29291C14.1054 3.48045 14.0001 3.7348 14.0001 4.00002V7.43752L1.47505 15.15C1.3598 15.2221 1.26046 15.3169 1.18309 15.4287C1.10572 15.5404 1.05194 15.6668 1.02505 15.8C0.994582 15.9353 0.993316 16.0755 1.02134 16.2113C1.04936 16.3471 1.10602 16.4754 1.18755 16.5875L2.91255 18.975C3.34616 19.5849 3.94411 20.0591 4.63677 20.3424C5.32943 20.6257 6.08832 20.7063 6.82505 20.575C8.53755 20.2875 11.6501 20.05 14.5251 21.35L11.2501 25.925C10.3127 25.471 9.44211 24.8906 8.66255 24.2C8.56489 24.1122 8.45088 24.0444 8.32704 24.0007C8.20319 23.9569 8.07193 23.9379 7.94076 23.9449C7.80959 23.9519 7.68108 23.9846 7.56257 24.0412C7.44405 24.0979 7.33786 24.1773 7.25005 24.275C7.16296 24.3735 7.09614 24.4881 7.0534 24.6124C7.01066 24.7367 6.99284 24.8682 7.00097 24.9994C7.0091 25.1306 7.04301 25.2589 7.10076 25.377C7.15851 25.495 7.23898 25.6006 7.33755 25.6875C9.71647 27.8243 12.8024 29.0043 16.0001 29H16.2626C18.8036 28.9498 21.2741 28.1559 23.3687 26.7164C25.4633 25.277 27.09 23.2551 28.0476 20.9009C29.0052 18.5467 29.2518 15.9635 28.7568 13.4706C28.2618 10.9778 27.047 8.68473 25.2626 6.87502ZM15.5001 14C15.2034 14 14.9134 13.912 14.6667 13.7472C14.42 13.5824 14.2278 13.3481 14.1142 13.074C14.0007 12.8 13.971 12.4984 14.0289 12.2074C14.0868 11.9164 14.2296 11.6491 14.4394 11.4394C14.6492 11.2296 14.9164 11.0867 15.2074 11.0288C15.4984 10.971 15.8 11.0007 16.0741 11.1142C16.3482 11.2277 16.5824 11.42 16.7473 11.6667C16.9121 11.9133 17.0001 12.2033 17.0001 12.5C17.0001 12.8978 16.842 13.2794 16.5607 13.5607C16.2794 13.842 15.8979 14 15.5001 14Z" fill="#344054"/>
</svg>
