<svg width="32" height="32" viewBox="0 0 32 32" fill="none" xmlns="http://www.w3.org/2000/svg">
<path d="M6.48752 7.98749C6.43799 7.93654 6.37817 7.89674 6.31205 7.87073C6.24592 7.84471 6.17501 7.83309 6.10404 7.83664C6.03307 7.84019 5.96368 7.85883 5.90048 7.8913C5.83728 7.92378 5.78172 7.96936 5.73752 8.02499C3.96369 10.305 3.00061 13.1113 3.00061 16C3.00061 18.8887 3.96369 21.695 5.73752 23.975C5.78172 24.0306 5.83728 24.0762 5.90048 24.1087C5.96368 24.1412 6.03307 24.1598 6.10404 24.1633C6.17501 24.1669 6.24592 24.1553 6.31205 24.1293C6.37817 24.1033 6.43799 24.0634 6.48752 24.0125L7.40002 23.1C7.49554 22.9883 7.61451 22.899 7.74847 22.8385C7.88242 22.778 8.02806 22.7478 8.17502 22.75C8.41486 22.7516 8.64591 22.8405 8.82502 23C9.02022 23.1812 9.13721 23.4313 9.15121 23.6973C9.16521 23.9633 9.07512 24.2243 8.90002 24.425C8.59465 24.7848 8.26913 25.127 7.92502 25.45C7.87143 25.4976 7.82898 25.5563 7.8007 25.6222C7.77241 25.688 7.75898 25.7593 7.76137 25.8309C7.76376 25.9025 7.7819 25.9727 7.81451 26.0365C7.84711 26.1003 7.89338 26.1561 7.95002 26.2C10.2416 28.0129 13.0781 28.9991 16 28.9991C18.922 28.9991 21.7584 28.0129 24.05 26.2C24.1067 26.1561 24.1529 26.1003 24.1855 26.0365C24.2181 25.9727 24.2363 25.9025 24.2387 25.8309C24.2411 25.7593 24.2276 25.688 24.1994 25.6222C24.1711 25.5563 24.1286 25.4976 24.075 25.45C23.7269 25.1227 23.3972 24.7763 23.0875 24.4125C23.0013 24.3132 22.9356 24.1979 22.894 24.0731C22.8523 23.9484 22.8357 23.8167 22.845 23.6855C22.8543 23.5544 22.8893 23.4263 22.9481 23.3087C23.0068 23.1911 23.0882 23.0862 23.1875 23C23.2868 22.9138 23.4021 22.848 23.5269 22.8064C23.6516 22.7648 23.7833 22.7482 23.9145 22.7575C24.1794 22.7762 24.426 22.8994 24.6 23.1L25.5125 24.0125C25.5621 24.0634 25.6219 24.1033 25.688 24.1293C25.7541 24.1553 25.825 24.1669 25.896 24.1633C25.967 24.1598 26.0364 24.1412 26.0996 24.1087C26.1628 24.0762 26.2183 24.0306 26.2625 23.975C28.0364 21.695 28.9994 18.8887 28.9994 16C28.9994 13.1113 28.0364 10.305 26.2625 8.02499C26.2183 7.96936 26.1628 7.92378 26.0996 7.8913C26.0364 7.85883 25.967 7.84019 25.896 7.83664C25.825 7.83309 25.7541 7.84471 25.688 7.87073C25.6219 7.89674 25.5621 7.93654 25.5125 7.98749L24.6 8.89999C24.5053 9.00944 24.3883 9.09731 24.2567 9.15769C24.1252 9.21806 23.9823 9.24954 23.8375 9.24999C23.5927 9.25515 23.3554 9.16559 23.175 8.99999C22.9798 8.81877 22.8628 8.56868 22.8488 8.30269C22.8348 8.0367 22.9249 7.77571 23.1 7.57499C23.4054 7.21518 23.7309 6.87296 24.075 6.54999C24.1286 6.50244 24.1711 6.44365 24.1994 6.37782C24.2276 6.31199 24.2411 6.24073 24.2387 6.16912C24.2363 6.09751 24.2181 6.02731 24.1855 5.96351C24.1529 5.89971 24.1067 5.84388 24.05 5.79999C21.7584 3.98714 18.922 3.00085 16 3.00085C13.0781 3.00085 10.2416 3.98714 7.95002 5.79999C7.89338 5.84388 7.84711 5.89971 7.81451 5.96351C7.7819 6.02731 7.76376 6.09751 7.76137 6.16912C7.75898 6.24073 7.77241 6.31199 7.8007 6.37782C7.82898 6.44365 7.87143 6.50244 7.92502 6.54999C8.26913 6.87296 8.59465 7.21518 8.90002 7.57499C9.03095 7.71811 9.11744 7.89621 9.14893 8.08761C9.18043 8.27901 9.15558 8.47544 9.07742 8.65296C8.99926 8.83049 8.87115 8.98145 8.70871 9.08745C8.54626 9.19346 8.3565 9.24993 8.16252 9.24999C8.0178 9.24954 7.87485 9.21806 7.74332 9.15769C7.61178 9.09731 7.49472 9.00944 7.40002 8.89999L6.48752 7.98749ZM9.90002 11.025C10.0116 10.9784 10.1296 10.9489 10.25 10.9375C10.4635 10.9297 10.6739 10.9895 10.8513 11.1085C11.0286 11.2275 11.1638 11.3995 11.2375 11.6C11.4762 12.2715 11.6601 12.9613 11.7875 13.6625C11.8404 13.9157 11.7932 14.1796 11.6557 14.3987C11.5181 14.6178 11.3011 14.7751 11.05 14.8375C10.9732 14.8621 10.8931 14.8747 10.8125 14.875C10.5772 14.8757 10.3491 14.7933 10.1685 14.6424C9.98782 14.4915 9.86621 14.2817 9.82502 14.05C9.72094 13.4586 9.5662 12.8773 9.36252 12.3125C9.18752 11.8125 9.40002 11.225 9.90002 11.025ZM11.7875 18.3375C11.6601 19.0387 11.4762 19.7285 11.2375 20.4C11.1659 20.5943 11.0365 20.762 10.8666 20.8805C10.6967 20.999 10.4946 21.0625 10.2875 21.0625C10.1534 21.0634 10.0208 21.0335 9.90002 20.975C9.66445 20.8679 9.47811 20.6756 9.37841 20.4368C9.27872 20.198 9.27304 19.9303 9.36252 19.6875C9.5662 19.1227 9.72094 18.5413 9.82502 17.95C9.86759 17.7235 9.98618 17.5182 10.1612 17.3682C10.3362 17.2182 10.5571 17.1324 10.7875 17.125L11.0375 17.15C11.2902 17.2152 11.5085 17.3744 11.6479 17.5951C11.7872 17.8158 11.8372 18.0813 11.7875 18.3375ZM22.1 20.975C21.9793 21.0335 21.8467 21.0634 21.7125 21.0625C21.5054 21.0625 21.3033 20.999 21.1334 20.8805C20.9636 20.762 20.8341 20.5943 20.7625 20.4C20.5239 19.7285 20.3399 19.0387 20.2125 18.3375C20.1661 18.0949 20.2088 17.8437 20.3328 17.6301C20.4569 17.4166 20.6538 17.2549 20.8875 17.175C21.0231 17.1339 21.1657 17.1217 21.3062 17.1392C21.4468 17.1567 21.5821 17.2034 21.7034 17.2765C21.8248 17.3495 21.9294 17.4472 22.0107 17.5632C22.0919 17.6792 22.1479 17.811 22.175 17.95C22.2791 18.5413 22.4338 19.1227 22.6375 19.6875C22.727 19.9303 22.7213 20.198 22.6216 20.4368C22.5219 20.6756 22.3356 20.8679 22.1 20.975ZM22.55 12.475C22.3109 12.9118 22.1861 13.402 22.1875 13.9C22.181 14.1609 22.0728 14.4088 21.8859 14.591C21.6991 14.7732 21.4485 14.8751 21.1875 14.875L21.0125 14.85C20.475 14.7625 20.1125 14.1875 20.2125 13.65C20.3401 12.9664 20.5198 12.2936 20.75 11.6375C20.8357 11.3948 21.0085 11.1926 21.2348 11.0702C21.4612 10.9477 21.725 10.9138 21.975 10.975C22.1254 11.017 22.2639 11.0936 22.3794 11.1987C22.4949 11.3038 22.5842 11.4345 22.64 11.5803C22.6959 11.7261 22.7169 11.883 22.7013 12.0383C22.6856 12.1937 22.6338 12.3432 22.55 12.475Z" fill="#344054"/>
</svg>
