<svg width="32" height="32" viewBox="0 0 32 32" fill="none" xmlns="http://www.w3.org/2000/svg">
<path d="M25.275 25.1C27.6629 22.6731 29.0011 19.4048 29.0011 16C29.0011 12.5953 27.6629 9.32698 25.275 6.90002C25.2525 6.86485 25.2226 6.83499 25.1875 6.81252C25.165 6.77735 25.1351 6.74749 25.1 6.72502C22.673 4.33712 19.4047 2.99884 16 2.99884C12.5952 2.99884 9.32692 4.33712 6.89996 6.72502C6.86479 6.74749 6.83493 6.77735 6.81246 6.81252C6.77729 6.83499 6.74743 6.86485 6.72496 6.90002C4.33706 9.32698 2.99878 12.5953 2.99878 16C2.99878 19.4048 4.33706 22.6731 6.72496 25.1L6.81246 25.1875C6.83493 25.2227 6.86479 25.2526 6.89996 25.275C9.32692 27.6629 12.5952 29.0012 16 29.0012C19.4047 29.0012 22.673 27.6629 25.1 25.275C25.1351 25.2526 25.165 25.2227 25.1875 25.1875C25.2226 25.1651 25.2525 25.1352 25.275 25.1ZM5.04996 17H8.06246C8.24245 18.4228 8.80395 19.7704 9.68746 20.9L7.54996 23.0375C6.12087 21.3268 5.24859 19.2203 5.04996 17ZM7.54996 8.96252L9.68746 11.1C8.80395 12.2297 8.24245 13.5773 8.06246 15H5.04996C5.24859 12.7798 6.12087 10.6732 7.54996 8.96252ZM26.95 15H23.9375C23.7575 13.5773 23.196 12.2297 22.3125 11.1L24.45 8.96252C25.8791 10.6732 26.7513 12.7798 26.95 15ZM20.9 9.68752C19.7703 8.80401 18.4227 8.24251 17 8.06252V5.05002C19.2202 5.24865 21.3267 6.12093 23.0375 7.55002L20.9 9.68752ZM15 8.06252C13.5772 8.24251 12.2296 8.80401 11.1 9.68752L8.96246 7.55002C10.6732 6.12093 12.7797 5.24865 15 5.05002V8.06252ZM11.1 22.3125C12.2296 23.196 13.5772 23.7575 15 23.9375V26.95C12.7797 26.7514 10.6732 25.8791 8.96246 24.45L11.1 22.3125ZM17 23.9375C18.4227 23.7575 19.7703 23.196 20.9 22.3125L23.0375 24.45C21.3267 25.8791 19.2202 26.7514 17 26.95V23.9375ZM22.3125 20.9C23.196 19.7704 23.7575 18.4228 23.9375 17H26.95C26.7513 19.2203 25.8791 21.3268 24.45 23.0375L22.3125 20.9Z" fill="#344054"/>
</svg>
