<svg width="32" height="32" viewBox="0 0 32 32" fill="none" xmlns="http://www.w3.org/2000/svg">
<path d="M29.5 11.5C29.5 15.325 27.2875 19.25 22.925 23.175C20.944 24.9558 18.7871 26.5306 16.4875 27.875C16.3381 27.9571 16.1704 28.0001 16 28.0001C15.8296 28.0001 15.6619 27.9571 15.5125 27.875C14.975 27.575 2.5 20.4875 2.5 11.5C2.49919 10.1546 2.86033 8.83367 3.54555 7.67579C4.23077 6.51791 5.21485 5.56568 6.39464 4.91891C7.57443 4.27213 8.90647 3.95463 10.2512 3.99969C11.5958 4.04475 12.9037 4.4507 14.0375 5.175C14.0999 5.21604 14.1523 5.27054 14.1909 5.33449C14.2294 5.39844 14.2532 5.47022 14.2604 5.54455C14.2676 5.61889 14.258 5.69389 14.2324 5.76405C14.2068 5.83421 14.1659 5.89775 14.1125 5.94999L11.8625 8.2C11.6755 8.38746 11.5705 8.64145 11.5705 8.90625C11.5705 9.17104 11.6755 9.42503 11.8625 9.6125L16.1625 13.9L14.2875 15.7875C14.1934 15.8795 14.1186 15.9893 14.0676 16.1106C14.0165 16.2319 13.9902 16.3622 13.9902 16.4937C13.9902 16.6253 14.0165 16.7556 14.0676 16.8769C14.1186 16.9982 14.1934 17.108 14.2875 17.2C14.4742 17.3838 14.7255 17.4871 14.9875 17.4875C15.253 17.4864 15.508 17.3835 15.7 17.2L18.2875 14.6125C18.4745 14.425 18.5795 14.171 18.5795 13.9062C18.5795 13.6414 18.4745 13.3875 18.2875 13.2L13.9875 8.89999L16.7 6.2C17.3929 5.49944 18.2184 4.94406 19.1285 4.56631C20.0385 4.18857 21.0147 3.99604 22 4C23.9891 4 25.8968 4.79017 27.3033 6.19669C28.7098 7.60322 29.5 9.51087 29.5 11.5Z" fill="#344054"/>
</svg>
