<svg width="32" height="32" viewBox="0 0 32 32" fill="none" xmlns="http://www.w3.org/2000/svg">
<path d="M13.8125 6.4C13.5776 6.16097 13.2854 5.98607 12.9638 5.89198C12.6421 5.79789 12.3017 5.78774 11.975 5.8625C11.6454 5.93536 11.3395 6.09049 11.086 6.31343C10.8324 6.53637 10.6394 6.81987 10.525 7.1375L3.78752 25.65C3.68245 25.9513 3.65053 26.2733 3.6944 26.5893C3.73827 26.9054 3.85666 27.2065 4.03981 27.4678C4.22296 27.7291 4.46562 27.9431 4.74777 28.0921C5.02991 28.2412 5.34345 28.321 5.66252 28.325C5.8963 28.3253 6.12855 28.2873 6.35002 28.2125L24.8625 21.475C25.1802 21.3606 25.4636 21.1676 25.6866 20.9141C25.9095 20.6605 26.0647 20.3547 26.1375 20.025C26.2123 19.6983 26.2021 19.3579 26.108 19.0363C26.0139 18.7146 25.8391 18.4224 25.6 18.1875L13.8125 6.4ZM7.97502 19.975L10.375 13.375L18.625 21.625L12.025 24.025L7.97502 19.975ZM20 9C20.0184 8.32369 20.1803 7.65901 20.475 7.05C21.1375 5.725 22.3875 5 24 5C24.8375 5 25.375 4.7125 25.7125 4.1C25.8846 3.75316 25.9825 3.37428 26 2.9875C26 2.85676 26.026 2.72732 26.0764 2.60669C26.1268 2.48606 26.2006 2.37664 26.2937 2.28478C26.3867 2.19291 26.497 2.12044 26.6183 2.07155C26.7395 2.02267 26.8693 1.99835 27 2C27.2652 2 27.5196 2.10536 27.7071 2.29289C27.8947 2.48043 28 2.73478 28 3C28 4.6125 26.9375 7 24 7C23.1625 7 22.625 7.2875 22.2875 7.9C22.1155 8.24684 22.0176 8.62572 22 9.0125C22 9.14324 21.9741 9.27268 21.9237 9.39331C21.8733 9.51394 21.7994 9.62336 21.7064 9.71523C21.6134 9.80709 21.503 9.87956 21.3818 9.92845C21.2605 9.97733 21.1307 10.0017 21 10C20.7348 10 20.4804 9.89464 20.2929 9.70711C20.1054 9.51957 20 9.26522 20 9ZM17 5V2C17 1.73478 17.1054 1.48043 17.2929 1.29289C17.4804 1.10536 17.7348 1 18 1C18.2652 1 18.5196 1.10536 18.7071 1.29289C18.8947 1.48043 19 1.73478 19 2V5C19 5.26522 18.8947 5.51957 18.7071 5.70711C18.5196 5.89464 18.2652 6 18 6C17.7348 6 17.4804 5.89464 17.2929 5.70711C17.1054 5.51957 17 5.26522 17 5ZM29.7125 15.2875C29.9003 15.4771 30.0056 15.7332 30.0056 16C30.0056 16.2668 29.9003 16.5229 29.7125 16.7125C29.5214 16.8973 29.2659 17.0006 29 17.0006C28.7341 17.0006 28.4787 16.8973 28.2875 16.7125L26.2875 14.7125C26.1281 14.5182 26.0466 14.2715 26.0589 14.0205C26.0712 13.7694 26.1765 13.5319 26.3542 13.3542C26.532 13.1765 26.7695 13.0712 27.0205 13.0589C27.2716 13.0465 27.5182 13.128 27.7125 13.2875L29.7125 15.2875ZM30.3125 9.95L27.3125 10.95C27.2121 10.9847 27.1063 11.0017 27 11C26.7622 11.0001 26.5321 10.9154 26.3511 10.7611C26.1701 10.6068 26.05 10.3931 26.0124 10.1582C25.9747 9.9234 26.022 9.68284 26.1458 9.47973C26.2695 9.27662 26.4616 9.12426 26.6875 9.05L29.6875 8.05C29.8123 8.00896 29.9439 7.9929 30.0749 8.00273C30.2058 8.01255 30.3336 8.04808 30.4508 8.10728C30.568 8.16648 30.6725 8.24818 30.7581 8.34774C30.8438 8.44729 30.909 8.56274 30.95 8.6875C30.9911 8.81226 31.0071 8.94387 30.9973 9.07484C30.9875 9.2058 30.9519 9.33355 30.8927 9.45078C30.8335 9.56802 30.7518 9.67244 30.6523 9.7581C30.5527 9.84375 30.4373 9.90896 30.3125 9.95Z" fill="#344054"/>
</svg>
