<svg width="32" height="32" viewBox="0 0 32 32" fill="none" xmlns="http://www.w3.org/2000/svg">
<path d="M16 2C12.8194 2.00661 9.77102 3.27301 7.52202 5.52202C5.27301 7.77102 4.00661 10.8194 4 14C4 17 5.575 20.8875 8.2 24.375C10.825 27.8625 13.7625 30 16 30C18.2375 30 21.15 27.9 23.8 24.375C26.45 20.85 28 17 28 14C27.9934 10.8194 26.727 7.77102 24.478 5.52202C22.229 3.27301 19.1806 2.00661 16 2ZM8 14.5V14C8 13.6022 8.15804 13.2206 8.43934 12.9393C8.72064 12.658 9.10218 12.5 9.5 12.5C10.6935 12.5 11.8381 12.9741 12.682 13.818C13.5259 14.6619 14 15.8065 14 17V17.5C14 17.8978 13.842 18.2794 13.5607 18.5607C13.2794 18.842 12.8978 19 12.5 19C11.3065 19 10.1619 18.5259 9.31802 17.682C8.47411 16.8381 8 15.6935 8 14.5ZM18 25H14C13.7348 25 13.4804 24.8946 13.2929 24.7071C13.1054 24.5196 13 24.2652 13 24C13 23.7348 13.1054 23.4804 13.2929 23.2929C13.4804 23.1054 13.7348 23 14 23H18C18.2652 23 18.5196 23.1054 18.7071 23.2929C18.8946 23.4804 19 23.7348 19 24C19 24.2652 18.8946 24.5196 18.7071 24.7071C18.5196 24.8946 18.2652 25 18 25ZM24 14.5C24 15.0909 23.8836 15.6761 23.6575 16.2221C23.4313 16.768 23.0998 17.2641 22.682 17.682C22.2641 18.0998 21.768 18.4313 21.2221 18.6575C20.6761 18.8836 20.0909 19 19.5 19C19.1022 19 18.7206 18.842 18.4393 18.5607C18.158 18.2794 18 17.8978 18 17.5V17C18 15.8065 18.4741 14.6619 19.318 13.818C20.1619 12.9741 21.3065 12.5 22.5 12.5C22.8978 12.5 23.2794 12.658 23.5607 12.9393C23.842 13.2206 24 13.6022 24 14V14.5Z" fill="#344054"/>
</svg>
