<svg width="32" height="32" viewBox="0 0 32 32" fill="none" xmlns="http://www.w3.org/2000/svg">
<path d="M29 17.5C29 19.3565 28.2625 21.137 26.9497 22.4498C25.637 23.7625 23.8565 24.5 22 24.5C20.8717 24.5021 19.76 24.2274 18.7625 23.7L20.25 28.1875C20.302 28.3374 20.3167 28.4977 20.2928 28.6545C20.2688 28.8114 20.2069 28.96 20.1125 29.0875C20.0214 29.2147 19.9013 29.3185 19.7622 29.3902C19.6231 29.4619 19.469 29.4996 19.3125 29.5H12.6875C12.531 29.4996 12.3769 29.4619 12.2378 29.3902C12.0987 29.3185 11.9786 29.2147 11.8875 29.0875C11.7931 28.96 11.7312 28.8114 11.7072 28.6545C11.6833 28.4977 11.698 28.3374 11.75 28.1875L13.2375 23.7C12.24 24.2274 11.1283 24.5021 10 24.5C8.14348 24.5 6.36301 23.7625 5.05025 22.4498C3.7375 21.137 3 19.3565 3 17.5C3 10.8 15.2125 2.9125 15.725 2.575C15.8082 2.52547 15.9032 2.49933 16 2.49933C16.0968 2.49933 16.1918 2.52547 16.275 2.575C16.7875 2.9125 29 10.8 29 17.5Z" fill="#344054"/>
</svg>
