<svg width="32" height="32" viewBox="0 0 32 32" fill="none" xmlns="http://www.w3.org/2000/svg">
<path d="M22 17.5C22 17.7967 21.912 18.0867 21.7472 18.3334C21.5824 18.58 21.3481 18.7723 21.074 18.8858C20.7999 18.9994 20.4983 19.0291 20.2074 18.9712C19.9164 18.9133 19.6491 18.7704 19.4393 18.5607C19.2296 18.3509 19.0867 18.0836 19.0288 17.7926C18.971 17.5017 19.0007 17.2001 19.1142 16.926C19.2277 16.6519 19.42 16.4176 19.6667 16.2528C19.9133 16.088 20.2033 16 20.5 16C20.8978 16 21.2794 16.158 21.5607 16.4394C21.842 16.7207 22 17.1022 22 17.5ZM11.5 16C11.2033 16 10.9133 16.088 10.6667 16.2528C10.42 16.4176 10.2277 16.6519 10.1142 16.926C10.0007 17.2001 9.97095 17.5017 10.0288 17.7926C10.0867 18.0836 10.2296 18.3509 10.4393 18.5607C10.6491 18.7704 10.9164 18.9133 11.2074 18.9712C11.4983 19.0291 11.7999 18.9994 12.074 18.8858C12.3481 18.7723 12.5824 18.58 12.7472 18.3334C12.912 18.0867 13 17.7967 13 17.5C13 17.1022 12.842 16.7207 12.5607 16.4394C12.2794 16.158 11.8978 16 11.5 16ZM30 8.00001V18C29.9967 20.3859 29.0474 22.6732 27.3603 24.3603C25.6732 26.0474 23.3859 26.9967 21 27H11C8.61407 26.9967 6.32681 26.0474 4.6397 24.3603C2.95259 22.6732 2.00331 20.3859 2.00001 18V8.00001C1.99809 7.02506 2.35231 6.08297 2.9961 5.35081C3.63989 4.61865 4.52893 4.14682 5.49611 4.024C6.46329 3.90118 7.44204 4.13584 8.24839 4.68385C9.05475 5.23187 9.63319 6.05552 9.87501 7.00001H22.125C22.3668 6.05552 22.9453 5.23187 23.7516 4.68385C24.558 4.13584 25.5367 3.90118 26.5039 4.024C27.4711 4.14682 28.3601 4.61865 29.0039 5.35081C29.6477 6.08297 30.0019 7.02506 30 8.00001ZM25 17C25 15.9391 24.5786 14.9217 23.8284 14.1716C23.0783 13.4214 22.0609 13 21 13H11C9.93914 13 8.92173 13.4214 8.17158 14.1716C7.42143 14.9217 7.00001 15.9391 7.00001 17V18C7.00001 19.0609 7.42143 20.0783 8.17158 20.8284C8.92173 21.5786 9.93914 22 11 22H21C22.0609 22 23.0783 21.5786 23.8284 20.8284C24.5786 20.0783 25 19.0609 25 18V17Z" fill="#344054"/>
</svg>
