<svg width="32" height="32" viewBox="0 0 32 32" fill="none" xmlns="http://www.w3.org/2000/svg">
<path d="M16 19C19.866 19 23 15.866 23 12C23 8.13401 19.866 5 16 5C12.134 5 9 8.13401 9 12C9 15.866 12.134 19 16 19Z" fill="#344054"/>
<path d="M16 1.00002C13.7338 0.995406 11.5216 1.69163 9.66657 2.99329C7.8115 4.29495 6.40429 6.13838 5.63775 8.27099C4.87122 10.4036 4.78285 12.7211 5.38477 14.9059C5.98669 17.0906 7.24943 19.0359 9 20.475V30C8.99898 30.1707 9.0422 30.3387 9.12545 30.4876C9.2087 30.6366 9.32913 30.7615 9.475 30.85C9.6197 30.941 9.78529 30.9933 9.95598 31.0021C10.1267 31.0108 10.2968 30.9757 10.45 30.9L16 28.1125L21.55 30.9C21.6919 30.9627 21.8449 30.9967 22 31C22.2652 31 22.5196 30.8947 22.7071 30.7071C22.8946 30.5196 23 30.2652 23 30V20.475C24.7506 19.0359 26.0133 17.0906 26.6152 14.9059C27.2171 12.7211 27.1288 10.4036 26.3622 8.27099C25.5957 6.13838 24.1885 4.29495 22.3334 2.99329C20.4784 1.69163 18.2662 0.995406 16 1.00002ZM16 21C14.22 21 12.4799 20.4722 10.9999 19.4832C9.51982 18.4943 8.36627 17.0887 7.68508 15.4442C7.00389 13.7996 6.82566 11.99 7.17293 10.2442C7.5202 8.49838 8.37736 6.89473 9.63604 5.63606C10.8947 4.37739 12.4984 3.52022 14.2442 3.17296C15.99 2.82569 17.7996 3.00392 19.4441 3.68511C21.0887 4.3663 22.4943 5.51985 23.4832 6.99989C24.4722 8.47993 25 10.22 25 12C24.9967 14.386 24.0474 16.6732 22.3603 18.3603C20.6732 20.0474 18.3859 20.9967 16 21Z" fill="#344054"/>
</svg>
