<svg width="32" height="32" viewBox="0 0 32 32" fill="none" xmlns="http://www.w3.org/2000/svg">
<path d="M31 15H23.4375C23.1925 13.203 22.3046 11.5557 20.9383 10.363C19.5721 9.17036 17.8199 8.51318 16.0063 8.51318C14.1926 8.51318 12.4405 9.17036 11.0742 10.363C9.70785 11.5557 8.82 13.203 8.575 15H1C0.734784 15 0.48043 15.1054 0.292893 15.2929C0.105357 15.4804 0 15.7348 0 16C0 16.2652 0.105357 16.5196 0.292893 16.7071C0.48043 16.8947 0.734784 17 1 17H8.575C8.82 18.797 9.70785 20.4443 11.0742 21.637C12.4405 22.8297 14.1926 23.4868 16.0063 23.4868C17.8199 23.4868 19.5721 22.8297 20.9383 21.637C22.3046 20.4443 23.1925 18.797 23.4375 17H31C31.2652 17 31.5196 16.8947 31.7071 16.7071C31.8946 16.5196 32 16.2652 32 16C32 15.7348 31.8946 15.4804 31.7071 15.2929C31.5196 15.1054 31.2652 15 31 15Z" fill="#344054"/>
</svg>
