<svg width="32" height="32" viewBox="0 0 32 32" fill="none" xmlns="http://www.w3.org/2000/svg">
<path d="M26.9375 4.9375H5.0625C4.49891 4.9375 3.95841 5.16138 3.5599 5.5599C3.16138 5.95841 2.9375 6.49891 2.9375 7.0625V24.9375C2.9375 25.5011 3.16138 26.0416 3.5599 26.4401C3.95841 26.8386 4.49891 27.0625 5.0625 27.0625H26.9375C27.5011 27.0625 28.0416 26.8386 28.4401 26.4401C28.8386 26.0416 29.0625 25.5011 29.0625 24.9375V7.0625C29.0625 6.49891 28.8386 5.95841 28.4401 5.5599C28.0416 5.16138 27.5011 4.9375 26.9375 4.9375ZM15.125 16.775L10.125 20.775C9.9489 20.9199 9.72807 20.9994 9.5 21C9.35073 21.001 9.20323 20.9677 9.06887 20.9027C8.9345 20.8377 8.81686 20.7427 8.725 20.625C8.64189 20.5237 8.57979 20.4068 8.5423 20.2812C8.50481 20.1557 8.4927 20.0239 8.50666 19.8936C8.52062 19.7633 8.56038 19.637 8.62362 19.5223C8.68686 19.4075 8.77231 19.3064 8.875 19.225L12.9 16L8.875 12.775C8.75894 12.6981 8.66021 12.5979 8.58512 12.4807C8.51003 12.3634 8.46025 12.2318 8.43896 12.0943C8.41766 11.9567 8.42532 11.8162 8.46145 11.6817C8.49758 11.5473 8.56138 11.4219 8.64877 11.3135C8.73616 11.2052 8.84521 11.1162 8.96895 11.0525C9.09268 10.9887 9.22837 10.9514 9.36733 10.9431C9.50628 10.9347 9.64545 10.9555 9.77592 11.0041C9.90639 11.0526 10.0253 11.1279 10.125 11.225L15.125 15.225C15.2421 15.3174 15.3367 15.4352 15.4017 15.5694C15.4667 15.7036 15.5005 15.8508 15.5005 16C15.5005 16.1492 15.4667 16.2964 15.4017 16.4306C15.3367 16.5648 15.2421 16.6826 15.125 16.775ZM22.5 21H17.5C17.2348 21 16.9804 20.8946 16.7929 20.7071C16.6054 20.5196 16.5 20.2652 16.5 20C16.5 19.7348 16.6054 19.4804 16.7929 19.2929C16.9804 19.1054 17.2348 19 17.5 19H22.5C22.7652 19 23.0196 19.1054 23.2071 19.2929C23.3946 19.4804 23.5 19.7348 23.5 20C23.5 20.2652 23.3946 20.5196 23.2071 20.7071C23.0196 20.8946 22.7652 21 22.5 21Z" fill="#344054"/>
</svg>
