<svg width="32" height="32" viewBox="0 0 32 32" fill="none" xmlns="http://www.w3.org/2000/svg">
<path d="M15 16C15.0001 15.8582 14.9701 15.718 14.9119 15.5887C14.8537 15.4594 14.7687 15.3439 14.6625 15.25L5.66246 7.24997C5.56397 7.16297 5.44931 7.09622 5.32502 7.05353C5.20073 7.01085 5.06926 6.99306 4.93809 7.00118C4.80693 7.00931 4.67865 7.04319 4.56058 7.10089C4.44251 7.15859 4.33697 7.23898 4.24996 7.33747C4.16296 7.43596 4.09621 7.55063 4.05353 7.67491C4.01084 7.7992 3.99305 7.93068 4.00118 8.06184C4.0093 8.193 4.04318 8.32128 4.10088 8.43935C4.15858 8.55742 4.23897 8.66297 4.33746 8.74997L12.5 16L4.33746 23.25C4.18506 23.3844 4.07721 23.562 4.0283 23.7593C3.97939 23.9565 3.99173 24.164 4.06368 24.354C4.13562 24.5441 4.26376 24.7077 4.43103 24.8231C4.5983 24.9385 4.79675 25.0002 4.99996 25C5.24369 24.9991 5.47892 24.9103 5.66246 24.75L14.6625 16.75C14.7687 16.656 14.8537 16.5406 14.9119 16.4113C14.9701 16.282 15.0001 16.1418 15 16Z" fill="#344054"/>
<path d="M27 23H15C14.7348 23 14.4804 23.1054 14.2929 23.2929C14.1054 23.4804 14 23.7348 14 24C14 24.2652 14.1054 24.5196 14.2929 24.7071C14.4804 24.8946 14.7348 25 15 25H27C27.2652 25 27.5196 24.8946 27.7071 24.7071C27.8946 24.5196 28 24.2652 28 24C28 23.7348 27.8946 23.4804 27.7071 23.2929C27.5196 23.1054 27.2652 23 27 23Z" fill="#344054"/>
</svg>
