<svg width="32" height="32" viewBox="0 0 32 32" fill="none" xmlns="http://www.w3.org/2000/svg">
<path d="M6.3 4.22501C6.12028 4.03984 6.0191 3.79238 6.0176 3.53434C6.0161 3.27631 6.1144 3.02768 6.29196 2.84044C6.46951 2.6532 6.71257 2.54185 6.97032 2.52965C7.22807 2.51746 7.48056 2.60537 7.675 2.77501L10.0125 5.00001C11.7371 3.705 13.835 3.00382 15.9917 3.00157C18.1484 2.99931 20.2477 3.69611 21.975 4.98751L24.3 2.77501C24.4924 2.59288 24.7492 2.49454 25.014 2.50157C25.2788 2.5086 25.53 2.62043 25.7125 2.81251C25.8042 2.90695 25.8761 3.01879 25.924 3.14143C25.9718 3.26407 25.9947 3.39505 25.9912 3.52665C25.9877 3.65826 25.9579 3.78784 25.9036 3.90777C25.8493 4.0277 25.7716 4.13556 25.675 4.22501L23.45 6.33751C24.8642 7.9112 25.7399 9.89471 25.95 12H6.05C6.26171 9.90124 7.13248 7.9234 8.5375 6.35001L6.3 4.22501ZM4 12C3.73478 12 3.48043 12.1054 3.29289 12.2929C3.10536 12.4804 3 12.7348 3 13C3 13.2652 3.10536 13.5196 3.29289 13.7071C3.48043 13.8946 3.73478 14 4 14H6V12H4ZM26 19C26.0024 19.334 25.9857 19.6679 25.95 20H28C28.2652 20 28.5196 20.1054 28.7071 20.2929C28.8946 20.4804 29 20.7348 29 21C29 21.2652 28.8946 21.5196 28.7071 21.7071C28.5196 21.8946 28.2652 22 28 22H25.5375C24.8982 24.0285 23.6287 25.8004 21.9135 27.0581C20.1984 28.3159 18.1269 28.994 16 28.994C13.8731 28.994 11.8016 28.3159 10.0865 27.0581C8.37131 25.8004 7.10185 24.0285 6.4625 22H4C3.73478 22 3.48043 21.8946 3.29289 21.7071C3.10536 21.5196 3 21.2652 3 21C3 20.7348 3.10536 20.4804 3.29289 20.2929C3.48043 20.1054 3.73478 20 4 20H6.05C6.01434 19.6679 5.99765 19.334 6 19V18H4C3.73478 18 3.48043 17.8947 3.29289 17.7071C3.10536 17.5196 3 17.2652 3 17C3 16.7348 3.10536 16.4804 3.29289 16.2929C3.48043 16.1054 3.73478 16 4 16H6V14H26V16H28C28.2652 16 28.5196 16.1054 28.7071 16.2929C28.8946 16.4804 29 16.7348 29 17C29 17.2652 28.8946 17.5196 28.7071 17.7071C28.5196 17.8947 28.2652 18 28 18H26V19ZM17 17C17 16.7348 16.8946 16.4804 16.7071 16.2929C16.5196 16.1054 16.2652 16 16 16C15.7348 16 15.4804 16.1054 15.2929 16.2929C15.1054 16.4804 15 16.7348 15 17V25C15 25.2652 15.1054 25.5196 15.2929 25.7071C15.4804 25.8946 15.7348 26 16 26C16.2652 26 16.5196 25.8946 16.7071 25.7071C16.8946 25.5196 17 25.2652 17 25V17ZM29 13C29 12.7348 28.8946 12.4804 28.7071 12.2929C28.5196 12.1054 28.2652 12 28 12H26V14H28C28.2652 14 28.5196 13.8946 28.7071 13.7071C28.8946 13.5196 29 13.2652 29 13Z" fill="#344054"/>
</svg>
