<svg width="32" height="32" viewBox="0 0 32 32" fill="none" xmlns="http://www.w3.org/2000/svg">
<path d="M29 23.5C29 24.3471 28.7609 25.177 28.3102 25.8943C27.8594 26.6116 27.2154 27.187 26.4522 27.5545C25.6889 27.922 24.8374 28.0666 23.9956 27.9716C23.1539 27.8767 22.356 27.5461 21.6938 27.0178C21.0315 26.4895 20.5319 25.7851 20.2523 24.9854C19.9726 24.1858 19.9244 23.3235 20.1131 22.4976C20.3018 21.6718 20.7197 20.916 21.3189 20.3172C21.918 19.7183 22.6741 19.3008 23.5 19.1125V14.9875C23.5005 14.3307 23.3716 13.6802 23.1207 13.0733C22.8698 12.4663 22.5017 11.9147 22.0375 11.45L19 8.41251V11C19 11.2652 18.8947 11.5196 18.7071 11.7071C18.5196 11.8947 18.2652 12 18 12C17.7348 12 17.4804 11.8947 17.2929 11.7071C17.1054 11.5196 17 11.2652 17 11V6.00001C17 5.7348 17.1054 5.48044 17.2929 5.29291C17.4804 5.10537 17.7348 5.00001 18 5.00001H23C23.2652 5.00001 23.5196 5.10537 23.7071 5.29291C23.8947 5.48044 24 5.7348 24 6.00001C24 6.26523 23.8947 6.51958 23.7071 6.70712C23.5196 6.89466 23.2652 7.00001 23 7.00001H20.4125L23.45 10.0375C24.1028 10.6855 24.6202 11.4568 24.9721 12.3066C25.3241 13.1564 25.5035 14.0677 25.5 14.9875V19.1125C26.4931 19.3412 27.3796 19.8993 28.0151 20.6959C28.6506 21.4926 28.9978 22.4809 29 23.5ZM14 20C13.7348 20 13.4804 20.1054 13.2929 20.2929C13.1054 20.4804 13 20.7348 13 21V23.5875L9.96251 20.55C9.49834 20.0853 9.13027 19.5337 8.87933 18.9268C8.62839 18.3198 8.49949 17.6693 8.50001 17.0125V12.8875C9.5787 12.6417 10.529 12.007 11.1694 11.1049C11.8099 10.2027 12.0955 9.09629 11.9718 7.99688C11.8481 6.89746 11.3237 5.88215 10.4988 5.14487C9.67394 4.40759 8.60636 4.00003 7.50001 4.00003C6.39366 4.00003 5.32608 4.40759 4.50119 5.14487C3.67631 5.88215 3.15193 6.89746 3.02823 7.99688C2.90452 9.09629 3.19016 10.2027 3.83059 11.1049C4.47101 12.007 5.42132 12.6417 6.50001 12.8875V17.0125C6.49651 17.9323 6.67595 18.8436 7.02788 19.6934C7.37982 20.5432 7.89723 21.3145 8.55001 21.9625L11.5875 25H9.00001C8.73479 25 8.48044 25.1054 8.2929 25.2929C8.10537 25.4804 8.00001 25.7348 8.00001 26C8.00001 26.2652 8.10537 26.5196 8.2929 26.7071C8.48044 26.8947 8.73479 27 9.00001 27H14C14.2652 27 14.5196 26.8947 14.7071 26.7071C14.8947 26.5196 15 26.2652 15 26V21C15 20.7348 14.8947 20.4804 14.7071 20.2929C14.5196 20.1054 14.2652 20 14 20Z" fill="#344054"/>
</svg>
