<svg width="32" height="32" viewBox="0 0 32 32" fill="none" xmlns="http://www.w3.org/2000/svg">
<path d="M10.8375 5.53751L4.18752 16L10.8375 26.4625C10.9091 26.5722 10.9582 26.695 10.9819 26.8238C11.0055 26.9526 11.0033 27.0849 10.9754 27.2128C10.9475 27.3408 10.8944 27.4619 10.8192 27.5692C10.744 27.6764 10.6483 27.7676 10.5375 27.8375C10.3792 27.9453 10.1916 28.002 10 28C9.83267 28.0002 9.66801 27.9579 9.52152 27.877C9.37502 27.7961 9.25149 27.6792 9.16252 27.5375L2.16252 16.5375C2.05868 16.3775 2.00342 16.1908 2.00342 16C2.00342 15.8092 2.05868 15.6225 2.16252 15.4625L9.16252 4.46251C9.226 4.33815 9.31482 4.22847 9.42326 4.14052C9.53169 4.05257 9.65735 3.9883 9.79213 3.95185C9.92691 3.9154 10.0678 3.90758 10.2058 3.92889C10.3438 3.9502 10.4758 4.00018 10.5933 4.07559C10.7108 4.151 10.8112 4.25019 10.8881 4.36675C10.9649 4.48332 11.0165 4.61469 11.0395 4.75241C11.0625 4.89012 11.0564 5.03113 11.0216 5.16634C10.9868 5.30156 10.9241 5.428 10.8375 5.53751ZM29.8375 15.4625L22.8375 4.46251C22.774 4.33815 22.6852 4.22847 22.5768 4.14052C22.4683 4.05257 22.3427 3.9883 22.2079 3.95185C22.0731 3.9154 21.9322 3.90758 21.7942 3.92889C21.6562 3.9502 21.5242 4.00018 21.4067 4.07559C21.2892 4.151 21.1888 4.25019 21.112 4.36675C21.0351 4.48332 20.9835 4.61469 20.9605 4.75241C20.9375 4.89012 20.9436 5.03113 20.9784 5.16634C21.0132 5.30156 21.0759 5.428 21.1625 5.53751L27.8125 16L21.1625 26.4625C21.0909 26.5722 21.0419 26.695 21.0182 26.8238C20.9945 26.9526 20.9967 27.0849 21.0246 27.2128C21.0525 27.3408 21.1056 27.4619 21.1808 27.5692C21.256 27.6764 21.3517 27.7676 21.4625 27.8375C21.6209 27.9453 21.8085 28.002 22 28C22.1674 28.0002 22.332 27.9579 22.4785 27.877C22.625 27.7961 22.7485 27.6792 22.8375 27.5375L29.8375 16.5375C29.9414 16.3775 29.9966 16.1908 29.9966 16C29.9966 15.8092 29.9414 15.6225 29.8375 15.4625Z" fill="#344054"/>
</svg>
