<svg width="32" height="32" viewBox="0 0 32 32" fill="none" xmlns="http://www.w3.org/2000/svg">
<path d="M25 5H20C19.4696 5 18.9609 5.21071 18.5858 5.58579C18.2107 5.96086 18 6.46957 18 7V18C18 18.5304 17.7893 19.0391 17.4142 19.4142C17.0391 19.7893 16.5304 20 16 20C15.4696 20 14.9609 19.7893 14.5858 19.4142C14.2107 19.0391 14 18.5304 14 18V7C14 6.46957 13.7893 5.96086 13.4142 5.58579C13.0391 5.21071 12.5304 5 12 5H7.00001C6.46957 5 5.96087 5.21071 5.58579 5.58579C5.21072 5.96086 5.00001 6.46957 5.00001 7V18C4.99836 19.445 5.28176 20.8761 5.83398 22.2115C6.3862 23.5468 7.19639 24.7601 8.21816 25.7818C9.23994 26.8036 10.4532 27.6138 11.7885 28.166C13.1239 28.7182 14.555 29.0016 16 29H16.0875C22.1 28.95 27 23.9625 27 17.875V7C27 6.46957 26.7893 5.96086 26.4142 5.58579C26.0391 5.21071 25.5304 5 25 5ZM25 7V12H20V7H25ZM12 7V12H7.00001V7H12Z" fill="#344054"/>
</svg>
