<svg width="32" height="32" viewBox="0 0 32 32" fill="none" xmlns="http://www.w3.org/2000/svg">
<path d="M23.9126 5.87499L25.6751 4.23749C25.8667 4.05292 25.9791 3.80104 25.9884 3.53511C25.9978 3.26918 25.9033 3.01004 25.7251 2.81249C25.5443 2.61869 25.294 2.50457 25.0292 2.49519C24.7643 2.48582 24.5066 2.58196 24.3126 2.76249L22.3876 4.56249C20.5229 3.22167 18.2842 2.50035 15.9876 2.50035C13.6909 2.50035 11.4522 3.22167 9.58756 4.56249L7.67506 2.76249C7.47946 2.58181 7.2201 2.48623 6.95403 2.49678C6.68797 2.50733 6.43699 2.62314 6.25631 2.81874C6.07563 3.01434 5.98005 3.2737 5.9906 3.53977C6.00115 3.80583 6.11696 4.05681 6.31256 4.23749L8.07506 5.87499C6.09173 7.9173 4.98394 10.6531 4.98756 13.5V18.5C4.98756 21.4174 6.14648 24.2153 8.20938 26.2782C10.2723 28.3411 13.0702 29.5 15.9876 29.5C18.9049 29.5 21.7028 28.3411 23.7657 26.2782C25.8286 24.2153 26.9876 21.4174 26.9876 18.5V13.5C26.9906 10.6556 25.8879 7.92149 23.9126 5.87499ZM15.9876 4.49999C18.3735 4.5033 20.6608 5.45257 22.3479 7.13968C24.035 8.82679 24.9842 11.1141 24.9876 13.5V15H6.98756V13.5C6.99086 11.1141 7.94014 8.82679 9.62725 7.13968C11.3144 5.45257 13.6016 4.5033 15.9876 4.49999ZM17.9876 11.5C17.9876 11.2033 18.0755 10.9133 18.2404 10.6666C18.4052 10.42 18.6394 10.2277 18.9135 10.1142C19.1876 10.0006 19.4892 9.97093 19.7802 10.0288C20.0712 10.0867 20.3384 10.2296 20.5482 10.4393C20.758 10.6491 20.9009 10.9164 20.9587 11.2074C21.0166 11.4983 20.9869 11.7999 20.8734 12.074C20.7598 12.3481 20.5676 12.5824 20.3209 12.7472C20.0742 12.912 19.7842 13 19.4876 13C19.0897 13 18.7082 12.842 18.4269 12.5607C18.1456 12.2793 17.9876 11.8978 17.9876 11.5ZM10.9876 11.5C10.9876 11.2033 11.0755 10.9133 11.2404 10.6666C11.4052 10.42 11.6394 10.2277 11.9135 10.1142C12.1876 10.0006 12.4892 9.97093 12.7802 10.0288C13.0712 10.0867 13.3384 10.2296 13.5482 10.4393C13.758 10.6491 13.9009 10.9164 13.9587 11.2074C14.0166 11.4983 13.9869 11.7999 13.8734 12.074C13.7598 12.3481 13.5676 12.5824 13.3209 12.7472C13.0742 12.912 12.7842 13 12.4876 13C12.0897 13 11.7082 12.842 11.4269 12.5607C11.1456 12.2793 10.9876 11.8978 10.9876 11.5Z" fill="#344054"/>
</svg>
