<svg width="32" height="32" viewBox="0 0 32 32" fill="none" xmlns="http://www.w3.org/2000/svg">
<path d="M13 8.49998C13 7.65287 12.7609 6.82295 12.3102 6.1057C11.8594 5.38844 11.2154 4.81298 10.4522 4.44549C9.68891 4.078 8.83743 3.93341 7.99565 4.02836C7.15387 4.1233 6.35598 4.45392 5.69376 4.9822C5.03154 5.51047 4.53188 6.21493 4.25225 7.01457C3.97262 7.8142 3.92437 8.67653 4.11307 9.50236C4.30176 10.3282 4.71972 11.084 5.31889 11.6828C5.91805 12.2817 6.67407 12.6992 7.50001 12.8875V19.1125C6.42132 19.3583 5.47101 19.993 4.83059 20.8951C4.19016 21.7973 3.90452 22.9037 4.02823 24.0031C4.15193 25.1025 4.67631 26.1179 5.50119 26.8551C6.32608 27.5924 7.39366 28 8.50001 28C9.60636 28 10.6739 27.5924 11.4988 26.8551C12.3237 26.1179 12.8481 25.1025 12.9718 24.0031C13.0955 22.9037 12.8099 21.7973 12.1694 20.8951C11.529 19.993 10.5787 19.3583 9.50001 19.1125V12.8875C10.4931 12.6588 11.3796 12.1007 12.0151 11.3041C12.6506 10.5074 12.9978 9.51908 13 8.49998ZM11 23.5C11 23.9944 10.8534 24.4778 10.5787 24.8889C10.304 25.3 9.91354 25.6205 9.45672 25.8097C8.9999 25.9989 8.49724 26.0484 8.01228 25.9519C7.52733 25.8555 7.08188 25.6174 6.73224 25.2678C6.38261 24.9181 6.14451 24.4727 6.04805 23.9877C5.95158 23.5028 6.00109 23.0001 6.19031 22.5433C6.37953 22.0865 6.69996 21.696 7.11109 21.4213C7.52221 21.1466 8.00556 21 8.50001 21C9.16204 21.0033 9.79602 21.2677 10.2641 21.7358C10.7323 22.204 10.9967 22.838 11 23.5ZM28 23.5C28 24.3471 27.7609 25.177 27.3102 25.8943C26.8594 26.6115 26.2154 27.187 25.4522 27.5545C24.6889 27.922 23.8374 28.0666 22.9956 27.9716C22.1539 27.8767 21.356 27.546 20.6938 27.0178C20.0315 26.4895 19.5319 25.785 19.2522 24.9854C18.9726 24.1858 18.9244 23.3234 19.1131 22.4976C19.3018 21.6718 19.7197 20.916 20.3189 20.3171C20.918 19.7183 21.6741 19.3007 22.5 19.1125V14.9875C22.5005 14.3307 22.3716 13.6802 22.1207 13.0732C21.8698 12.4663 21.5017 11.9147 21.0375 11.45L18 8.41249V11C18 11.2652 17.8947 11.5196 17.7071 11.7071C17.5196 11.8946 17.2652 12 17 12C16.7348 12 16.4804 11.8946 16.2929 11.7071C16.1054 11.5196 16 11.2652 16 11V5.99998C16 5.73477 16.1054 5.48041 16.2929 5.29288C16.4804 5.10534 16.7348 4.99998 17 4.99998H22C22.2652 4.99998 22.5196 5.10534 22.7071 5.29288C22.8947 5.48041 23 5.73477 23 5.99998C23 6.2652 22.8947 6.51956 22.7071 6.70709C22.5196 6.89463 22.2652 6.99998 22 6.99998H19.4125L22.45 10.0375C23.1028 10.6855 23.6202 11.4568 23.9721 12.3066C24.3241 13.1564 24.5035 14.0677 24.5 14.9875V19.1125C25.4931 19.3411 26.3796 19.8992 27.0151 20.6959C27.6506 21.4926 27.9978 22.4809 28 23.5Z" fill="#344054"/>
</svg>
