<svg width="32" height="32" viewBox="0 0 32 32" fill="none" xmlns="http://www.w3.org/2000/svg">
<path d="M8.76245 10.3625C8.68025 10.2602 8.57823 10.1755 8.46252 10.1136C8.34681 10.0516 8.21978 10.0137 8.08905 10.002C7.95832 9.99033 7.82658 10.0052 7.70173 10.0456C7.57687 10.0861 7.46147 10.1514 7.36245 10.2375L1.36245 15.2375C1.24987 15.3301 1.15921 15.4466 1.09697 15.5784C1.03472 15.7102 1.00244 15.8542 1.00244 16C1.00244 16.1458 1.03472 16.2898 1.09697 16.4216C1.15921 16.5534 1.24987 16.6699 1.36245 16.7625L7.36245 21.7625C7.46147 21.8486 7.57687 21.9139 7.70173 21.9544C7.82658 21.9948 7.95832 22.0097 8.08905 21.998C8.21978 21.9863 8.34681 21.9484 8.46252 21.8864C8.57823 21.8245 8.68025 21.7398 8.76245 21.6375C8.84859 21.5385 8.91385 21.4231 8.95431 21.2982C8.99478 21.1734 9.00962 21.0416 8.99795 20.9109C8.98628 20.7802 8.94833 20.6531 8.88639 20.5374C8.82444 20.4217 8.73977 20.3197 8.63745 20.2375L3.56245 16L8.63745 11.7625C8.73977 11.6803 8.82444 11.5783 8.88639 11.4626C8.94833 11.3469 8.98628 11.2198 8.99795 11.0891C9.00962 10.9584 8.99478 10.8266 8.95431 10.7018C8.91385 10.5769 8.84859 10.4615 8.76245 10.3625Z" fill="#344054"/>
<path d="M30.6375 15.2375L24.6375 10.2375C24.4324 10.1014 24.1843 10.0458 23.9408 10.0812C23.6973 10.1166 23.4753 10.2406 23.3175 10.4294C23.1596 10.6182 23.0769 10.8586 23.0852 11.1045C23.0935 11.3505 23.1922 11.5848 23.3625 11.7625L28.4375 16L23.3625 20.2375C23.2069 20.3694 23.0955 20.5458 23.043 20.7429C22.9906 20.94 22.9997 21.1484 23.069 21.3402C23.1384 21.532 23.2648 21.698 23.4311 21.8159C23.5975 21.9338 23.796 21.9981 24 22C24.2343 22.0011 24.461 21.9166 24.6375 21.7625L30.6375 16.7625C30.75 16.6699 30.8407 16.5534 30.9029 16.4216C30.9652 16.2898 30.9975 16.1458 30.9975 16C30.9975 15.8542 30.9652 15.7102 30.9029 15.5784C30.8407 15.4466 30.75 15.3301 30.6375 15.2375Z" fill="#344054"/>
<path d="M20.3375 4.06251C20.2145 4.01696 20.0836 3.99638 19.9526 4.00196C19.8215 4.00755 19.6929 4.0392 19.5742 4.09506C19.4555 4.15092 19.3491 4.22987 19.2613 4.3273C19.1734 4.42472 19.1059 4.53868 19.0625 4.66251L11.0625 26.6625C11.017 26.7855 10.9964 26.9164 11.002 27.0475C11.0076 27.1785 11.0392 27.3072 11.0951 27.4259C11.1509 27.5446 11.2299 27.6509 11.3273 27.7388C11.4248 27.8266 11.5387 27.8942 11.6625 27.9375C11.771 27.9763 11.8849 27.9974 12 28C12.2059 28.0011 12.4069 27.9378 12.5749 27.819C12.743 27.7002 12.8698 27.5319 12.9375 27.3375L20.9375 5.33751C20.9831 5.21449 21.0037 5.08362 20.9981 4.95255C20.9925 4.82149 20.9608 4.69285 20.905 4.57415C20.8491 4.45545 20.7702 4.34907 20.6728 4.26122C20.5753 4.17338 20.4614 4.10582 20.3375 4.06251Z" fill="#344054"/>
</svg>
