<svg width="32" height="32" viewBox="0 0 32 32" fill="none" xmlns="http://www.w3.org/2000/svg">
<path d="M11.75 7.33749C11.6631 7.23891 11.5575 7.15845 11.4395 7.1007C11.3214 7.04294 11.1931 7.00903 11.0619 7.00091C10.9307 6.99278 10.7992 7.0106 10.6749 7.05333C10.5506 7.09607 10.436 7.1629 10.3375 7.24999L1.33752 15.25C1.23112 15.3438 1.1459 15.4592 1.08752 15.5885C1.02915 15.7179 0.998962 15.8581 0.998962 16C0.998962 16.1419 1.02915 16.2821 1.08752 16.4114C1.1459 16.5407 1.23112 16.6561 1.33752 16.75L10.3375 24.75C10.5211 24.9103 10.7563 24.9991 11 25C11.2032 25.0002 11.4017 24.9385 11.569 24.8231C11.7362 24.7077 11.8644 24.5441 11.9363 24.354C12.0083 24.164 12.0206 23.9565 11.9717 23.7593C11.9228 23.5621 11.8149 23.3844 11.6625 23.25L3.50002 16L11.6625 8.74999C11.7611 8.66304 11.8416 8.55751 11.8993 8.43944C11.9571 8.32136 11.991 8.19306 11.9991 8.06188C12.0072 7.93069 11.9894 7.79918 11.9467 7.67488C11.9039 7.55059 11.8371 7.43594 11.75 7.33749Z" fill="#344054"/>
<path d="M30.6625 15.25L21.6625 7.25C21.4636 7.0743 21.203 6.9848 20.9382 7.00121C20.6733 7.01762 20.4257 7.13859 20.25 7.3375C20.0743 7.53642 19.9848 7.79698 20.0012 8.06187C20.0176 8.32677 20.1386 8.5743 20.3375 8.75L28.5 16L20.3375 23.25C20.1851 23.3844 20.0773 23.5621 20.0284 23.7593C19.9794 23.9565 19.9918 24.164 20.0637 24.3541C20.1357 24.5441 20.2638 24.7077 20.4311 24.8231C20.5984 24.9385 20.7968 25.0002 21 25C21.2438 24.9991 21.479 24.9104 21.6625 24.75L30.6625 16.75C30.7689 16.6562 30.8542 16.5408 30.9125 16.4114C30.9709 16.2821 31.0011 16.1419 31.0011 16C31.0011 15.8581 30.9709 15.7179 30.9125 15.5886C30.8542 15.4593 30.7689 15.3438 30.6625 15.25Z" fill="#344054"/>
</svg>
