<svg width="32" height="32" viewBox="0 0 32 32" fill="none" xmlns="http://www.w3.org/2000/svg">
<path d="M25.875 6.27502C24.8566 5.23969 23.6426 4.41703 22.3036 3.85482C20.9646 3.29261 19.5272 3.00205 18.075 3.00002H18.0375C16.5904 2.9944 15.1567 3.27663 13.8198 3.83029C12.4829 4.38395 11.2694 5.19799 10.25 6.22502L6.03748 10.4875L1.98748 14.5875C1.61814 14.9657 1.41241 15.474 1.41475 16.0026C1.41709 16.5312 1.62731 17.0376 1.99998 17.4125L5.57498 20.9875C5.75866 21.1756 5.97848 21.3246 6.22122 21.4256C6.46395 21.5265 6.7246 21.5774 6.98748 21.575H6.99998C7.26565 21.576 7.52879 21.5234 7.77364 21.4203C8.01849 21.3172 8.24003 21.1657 8.42498 20.975L12.425 16.875L16.625 12.5875C16.9971 12.2206 17.4974 12.0129 18.0199 12.0082C18.5425 12.0036 19.0464 12.2023 19.425 12.5625C19.611 12.7452 19.7587 12.963 19.8596 13.2034C19.9605 13.4438 20.0124 13.7018 20.0125 13.9625C20.0144 14.5238 19.7942 15.063 19.4 15.4625L15.1375 19.5875L11.0375 23.575C10.8453 23.7586 10.692 23.9788 10.5864 24.2226C10.4808 24.4665 10.4253 24.729 10.4229 24.9947C10.4206 25.2604 10.4716 25.5239 10.5728 25.7696C10.6741 26.0153 10.8236 26.2381 11.0125 26.425L14.5875 30.0125C14.9654 30.3793 15.4708 30.5855 15.9975 30.5879C16.5242 30.5902 17.0313 30.3885 17.4125 30.025L21.525 25.975L25.725 21.8625C30.025 17.5625 30.1 10.575 25.875 6.27502ZM6.98748 19.575L3.41248 16L6.74998 12.6125L10.3125 16.175L6.98748 19.575ZM16.0125 28.5875L12.425 25.0125L15.8375 21.7L19.4 25.2625L16.0125 28.5875Z" fill="#344054"/>
</svg>
