<svg width="32" height="32" viewBox="0 0 32 32" fill="none" xmlns="http://www.w3.org/2000/svg">
<path d="M5.4 16C5.82255 16.3518 6.16373 16.791 6.4 17.2875C7 18.525 7 20.0375 7 21.5C7 24.5375 7.125 26 10 26C10.2652 26 10.5196 26.1054 10.7071 26.2929C10.8946 26.4804 11 26.7348 11 27C11 27.2652 10.8946 27.5196 10.7071 27.7071C10.5196 27.8946 10.2652 28 10 28C7.8125 28 6.3375 27.2375 5.6 25.7125C5 24.475 5 22.9625 5 21.5C5 18.4625 4.875 17 2 17C1.73478 17 1.48043 16.8946 1.29289 16.7071C1.10536 16.5196 1 16.2652 1 16C1 15.7348 1.10536 15.4804 1.29289 15.2929C1.48043 15.1054 1.73478 15 2 15C4.875 15 5 13.5375 5 10.5C5 9.0375 5 7.525 5.6 6.2875C6.3375 4.7625 7.8125 4 10 4C10.2652 4 10.5196 4.10536 10.7071 4.29289C10.8946 4.48043 11 4.73478 11 5C11 5.26522 10.8946 5.51957 10.7071 5.70711C10.5196 5.89464 10.2652 6 10 6C7.125 6 7 7.4625 7 10.5C7 11.9625 7 13.475 6.4 14.7125C6.16373 15.209 5.82255 15.6482 5.4 16ZM30 15C27.125 15 27 13.5375 27 10.5C27 9.0375 27 7.525 26.4 6.2875C25.6625 4.7625 24.1875 4 22 4C21.7348 4 21.4804 4.10536 21.2929 4.29289C21.1054 4.48043 21 4.73478 21 5C21 5.26522 21.1054 5.51957 21.2929 5.70711C21.4804 5.89464 21.7348 6 22 6C24.875 6 25 7.4625 25 10.5C25 11.9625 25 13.475 25.6 14.7125C25.8363 15.209 26.1775 15.6482 26.6 16C26.1775 16.3518 25.8363 16.791 25.6 17.2875C25 18.525 25 20.0375 25 21.5C25 24.5375 24.875 26 22 26C21.7348 26 21.4804 26.1054 21.2929 26.2929C21.1054 26.4804 21 26.7348 21 27C21 27.2652 21.1054 27.5196 21.2929 27.7071C21.4804 27.8946 21.7348 28 22 28C24.1875 28 25.6625 27.2375 26.4 25.7125C27 24.475 27 22.9625 27 21.5C27 18.4625 27.125 17 30 17C30.2652 17 30.5196 16.8946 30.7071 16.7071C30.8946 16.5196 31 16.2652 31 16C31 15.7348 30.8946 15.4804 30.7071 15.2929C30.5196 15.1054 30.2652 15 30 15Z" fill="#344054"/>
</svg>
