<svg width="32" height="32" viewBox="0 0 32 32" fill="none" xmlns="http://www.w3.org/2000/svg">
<path d="M19.5 11.5V10H18C17.4696 10 16.9609 10.2107 16.5858 10.5858C16.2107 10.9609 16 11.4696 16 12V20C16 20.5304 16.2107 21.0391 16.5858 21.4142C16.9609 21.7893 17.4696 22 18 22H19.5V20.5C19.5 19.9696 19.7107 19.4609 20.0858 19.0858C20.4609 18.7107 20.9696 18.5 21.5 18.5H26.5C27.0304 18.5 27.5391 18.7107 27.9142 19.0858C28.2893 19.4609 28.5 19.9696 28.5 20.5V25.5C28.5 26.0304 28.2893 26.5391 27.9142 26.9142C27.5391 27.2893 27.0304 27.5 26.5 27.5H21.5C20.9696 27.5 20.4609 27.2893 20.0858 26.9142C19.7107 26.5391 19.5 26.0304 19.5 25.5V24H18C16.9401 23.9967 15.9246 23.5742 15.1752 22.8248C14.4258 22.0754 14.0033 21.0599 14 20V17H10.5V18C10.5 18.5304 10.2893 19.0391 9.91421 19.4142C9.53914 19.7893 9.03043 20 8.5 20H4.5C3.96957 20 3.46086 19.7893 3.08579 19.4142C2.71071 19.0391 2.5 18.5304 2.5 18V14C2.5 13.4696 2.71071 12.9609 3.08579 12.5858C3.46086 12.2107 3.96957 12 4.5 12H8.5C9.03043 12 9.53914 12.2107 9.91421 12.5858C10.2893 12.9609 10.5 13.4696 10.5 14V15H14V12C14.0033 10.9401 14.4258 9.92465 15.1752 9.17521C15.9246 8.42578 16.9401 8.0033 18 8H19.5V6.5C19.5 5.96957 19.7107 5.46086 20.0858 5.08579C20.4609 4.71071 20.9696 4.5 21.5 4.5H26.5C27.0304 4.5 27.5391 4.71071 27.9142 5.08579C28.2893 5.46086 28.5 5.96957 28.5 6.5V11.5C28.5 12.0304 28.2893 12.5391 27.9142 12.9142C27.5391 13.2893 27.0304 13.5 26.5 13.5H21.5C20.9696 13.5 20.4609 13.2893 20.0858 12.9142C19.7107 12.5391 19.5 12.0304 19.5 11.5Z" fill="#344054"/>
</svg>
