<svg width="32" height="32" viewBox="0 0 32 32" fill="none" xmlns="http://www.w3.org/2000/svg">
<path d="M5 16C5 23.2875 9.3375 26.0375 9.525 26.15C9.70971 26.2645 9.85211 26.436 9.93064 26.6386C10.0092 26.8413 10.0196 27.0639 9.96023 27.273C9.90091 27.4821 9.77509 27.6661 9.60184 27.7973C9.42858 27.9284 9.21731 27.9996 9 28C8.82043 27.9972 8.64436 27.9499 8.4875 27.8625C8.2625 27.725 3 24.475 3 16C3 7.525 8.2625 4.275 8.4875 4.1375C8.71684 4.00403 8.98941 3.96592 9.24656 4.03137C9.50371 4.09683 9.72489 4.26062 9.8625 4.4875C9.99535 4.71493 10.0331 4.98559 9.96758 5.2407C9.90205 5.4958 9.73852 5.71476 9.5125 5.85C9.3125 5.975 5 8.725 5 16ZM23.5125 4.1375C23.2854 3.99992 23.013 3.95818 22.7551 4.02148C22.4972 4.08477 22.2751 4.24791 22.1375 4.475C21.9999 4.70209 21.9582 4.97454 22.0215 5.2324C22.0848 5.49026 22.2479 5.71242 22.475 5.85C22.6625 5.9625 27 8.7125 27 16C27 23.2875 22.6625 26.0375 22.4875 26.1375C22.2977 26.2489 22.1499 26.4198 22.067 26.6237C21.9842 26.8276 21.971 27.0531 22.0294 27.2653C22.0877 27.4775 22.2145 27.6645 22.39 27.7974C22.5655 27.9302 22.7799 28.0014 23 28C23.1796 27.9972 23.3556 27.9499 23.5125 27.8625C23.7375 27.725 29 24.475 29 16C29 7.525 23.7375 4.275 23.5125 4.1375Z" fill="#344054"/>
</svg>
