<svg width="32" height="32" viewBox="0 0 32 32" fill="none" xmlns="http://www.w3.org/2000/svg">
<path d="M28 8.49998C28 7.65287 27.7609 6.82295 27.3102 6.1057C26.8594 5.38844 26.2154 4.81298 25.4522 4.44549C24.6889 4.078 23.8374 3.93341 22.9956 4.02836C22.1539 4.1233 21.356 4.45392 20.6938 4.9822C20.0315 5.51047 19.5319 6.21493 19.2522 7.01457C18.9726 7.8142 18.9244 8.67653 19.1131 9.50236C19.3018 10.3282 19.7197 11.084 20.3189 11.6828C20.918 12.2817 21.6741 12.6992 22.5 12.8875V13C22.5 13.5304 22.2893 14.0391 21.9142 14.4142C21.5392 14.7893 21.0304 15 20.5 15H11.5C10.7979 15.0016 10.1084 15.1869 9.50001 15.5375V12.8875C10.5787 12.6416 11.529 12.007 12.1694 11.1049C12.8099 10.2027 13.0955 9.09626 12.9718 7.99685C12.8481 6.89743 12.3237 5.88212 11.4988 5.14484C10.6739 4.40757 9.60636 4 8.50001 4C7.39366 4 6.32608 4.40757 5.50119 5.14484C4.67631 5.88212 4.15193 6.89743 4.02823 7.99685C3.90452 9.09626 4.19016 10.2027 4.83059 11.1049C5.47101 12.007 6.42132 12.6416 7.50001 12.8875V19.1125C6.42132 19.3583 5.47101 19.993 4.83059 20.8951C4.19016 21.7973 3.90452 22.9037 4.02823 24.0031C4.15193 25.1025 4.67631 26.1179 5.50119 26.8551C6.32608 27.5924 7.39366 28 8.50001 28C9.60636 28 10.6739 27.5924 11.4988 26.8551C12.3237 26.1179 12.8481 25.1025 12.9718 24.0031C13.0955 22.9037 12.8099 21.7973 12.1694 20.8951C11.529 19.993 10.5787 19.3583 9.50001 19.1125V19C9.50001 18.4696 9.71072 17.9608 10.0858 17.5858C10.4609 17.2107 10.9696 17 11.5 17H20.5C21.5599 16.9967 22.5754 16.5742 23.3248 15.8248C24.0742 15.0753 24.4967 14.0598 24.5 13V12.8875C25.4931 12.6588 26.3796 12.1007 27.0151 11.3041C27.6506 10.5074 27.9978 9.51908 28 8.49998ZM6.00001 8.49998C6.00001 8.00553 6.14663 7.52218 6.42134 7.11106C6.69604 6.69994 7.08649 6.3795 7.5433 6.19029C8.00012 6.00107 8.50278 5.95156 8.98774 6.04802C9.47269 6.14448 9.91815 6.38259 10.2678 6.73222C10.6174 7.08185 10.8555 7.52731 10.952 8.01226C11.0484 8.49721 10.9989 8.99988 10.8097 9.45669C10.6205 9.91351 10.3001 10.304 9.88894 10.5787C9.47781 10.8534 8.99446 11 8.50001 11C7.83798 10.9967 7.204 10.7323 6.73587 10.2641C6.26774 9.79599 6.0033 9.16201 6.00001 8.49998ZM11 23.5C11 23.9944 10.8534 24.4778 10.5787 24.8889C10.304 25.3 9.91354 25.6205 9.45672 25.8097C8.9999 25.9989 8.49724 26.0484 8.01228 25.9519C7.52733 25.8555 7.08188 25.6174 6.73224 25.2678C6.38261 24.9181 6.14451 24.4727 6.04805 23.9877C5.95158 23.5028 6.00109 23.0001 6.19031 22.5433C6.37953 22.0865 6.69996 21.696 7.11109 21.4213C7.52221 21.1466 8.00556 21 8.50001 21C9.16204 21.0033 9.79602 21.2677 10.2641 21.7358C10.7323 22.204 10.9967 22.838 11 23.5Z" fill="#344054"/>
</svg>
