<svg width="32" height="32" viewBox="0 0 32 32" fill="none" xmlns="http://www.w3.org/2000/svg">
<path d="M28 8.49998C28 7.65287 27.7609 6.82295 27.3102 6.1057C26.8594 5.38844 26.2154 4.81298 25.4522 4.44549C24.6889 4.078 23.8374 3.93341 22.9956 4.02836C22.1539 4.1233 21.356 4.45392 20.6938 4.9822C20.0315 5.51047 19.5319 6.21493 19.2522 7.01457C18.9726 7.8142 18.9244 8.67653 19.1131 9.50236C19.3018 10.3282 19.7197 11.084 20.3189 11.6828C20.918 12.2817 21.6741 12.6992 22.5 12.8875V13C22.5 13.5304 22.2893 14.0391 21.9142 14.4142C21.5392 14.7893 21.0304 15 20.5 15H11.5C10.9696 15 10.4609 14.7893 10.0858 14.4142C9.71072 14.0391 9.50001 13.5304 9.50001 13V12.8875C10.5787 12.6416 11.529 12.007 12.1694 11.1049C12.8099 10.2027 13.0955 9.09626 12.9718 7.99685C12.8481 6.89743 12.3237 5.88212 11.4988 5.14484C10.6739 4.40757 9.60636 4 8.50001 4C7.39366 4 6.32608 4.40757 5.50119 5.14484C4.67631 5.88212 4.15193 6.89743 4.02823 7.99685C3.90452 9.09626 4.19016 10.2027 4.83059 11.1049C5.47101 12.007 6.42132 12.6416 7.50001 12.8875V13C7.50331 14.0598 7.92579 15.0753 8.67523 15.8248C9.42466 16.5742 10.4402 16.9967 11.5 17H15V19.1125C13.9213 19.3583 12.971 19.993 12.3306 20.8951C11.6902 21.7973 11.4045 22.9037 11.5282 24.0031C11.6519 25.1025 12.1763 26.1179 13.0012 26.8551C13.8261 27.5924 14.8937 28 16 28C17.1064 28 18.1739 27.5924 18.9988 26.8551C19.8237 26.1179 20.3481 25.1025 20.4718 24.0031C20.5955 22.9037 20.3099 21.7973 19.6694 20.8951C19.029 19.993 18.0787 19.3583 17 19.1125V17H20.5C21.5599 16.9967 22.5754 16.5742 23.3248 15.8248C24.0742 15.0753 24.4967 14.0598 24.5 13V12.8875C25.4931 12.6588 26.3796 12.1007 27.0151 11.3041C27.6506 10.5074 27.9978 9.51908 28 8.49998ZM18.5 23.5C18.5 23.9944 18.3534 24.4778 18.0787 24.8889C17.804 25.3 17.4135 25.6205 16.9567 25.8097C16.4999 25.9989 15.9972 26.0484 15.5123 25.9519C15.0273 25.8555 14.5819 25.6174 14.2322 25.2678C13.8826 24.9181 13.6445 24.4727 13.548 23.9877C13.4516 23.5028 13.5011 23.0001 13.6903 22.5433C13.8795 22.0865 14.2 21.696 14.6111 21.4213C15.0222 21.1466 15.5056 21 16 21C16.662 21.0033 17.296 21.2677 17.7641 21.7358C18.2323 22.204 18.4967 22.838 18.5 23.5Z" fill="#344054"/>
</svg>
