<svg width="32" height="32" viewBox="0 0 32 32" fill="none" xmlns="http://www.w3.org/2000/svg">
<path d="M20.9875 11.5C20.9875 11.7967 20.8995 12.0867 20.7347 12.3334C20.5699 12.58 20.3356 12.7723 20.0615 12.8858C19.7874 12.9993 19.4858 13.0291 19.1949 12.9712C18.9039 12.9133 18.6366 12.7704 18.4268 12.5607C18.2171 12.3509 18.0742 12.0836 18.0163 11.7926C17.9584 11.5017 17.9881 11.2001 18.1017 10.926C18.2152 10.6519 18.4075 10.4176 18.6541 10.2528C18.9008 10.088 19.1908 10 19.4875 10C19.8853 10 20.2669 10.158 20.5482 10.4393C20.8295 10.7206 20.9875 11.1022 20.9875 11.5ZM12.4875 10C12.1908 10 11.9008 10.088 11.6541 10.2528C11.4075 10.4176 11.2152 10.6519 11.1017 10.926C10.9881 11.2001 10.9584 11.5017 11.0163 11.7926C11.0742 12.0836 11.2171 12.3509 11.4268 12.5607C11.6366 12.7704 11.9039 12.9133 12.1949 12.9712C12.4858 13.0291 12.7874 12.9993 13.0615 12.8858C13.3356 12.7723 13.5699 12.58 13.7347 12.3334C13.8995 12.0867 13.9875 11.7967 13.9875 11.5C13.9875 11.1022 13.8295 10.7206 13.5482 10.4393C13.2669 10.158 12.8853 10 12.4875 10ZM31.5 16C31.5 16.2652 31.3946 16.5196 31.2071 16.7071C31.0196 16.8946 30.7652 17 30.5 17H27V18C27.0019 19.0011 26.8674 19.9978 26.6 20.9625L29.4875 22.6375C29.6764 22.7483 29.8237 22.9181 29.9068 23.1208C29.9898 23.3234 30.0041 23.5478 29.9473 23.7593C29.8905 23.9708 29.7658 24.1579 29.5924 24.2917C29.419 24.4255 29.2065 24.4987 28.9875 24.5C28.8113 24.5014 28.6382 24.4538 28.4875 24.3625L25.875 22.85C24.9689 24.6964 23.5633 26.2517 21.8178 27.3395C20.0723 28.4273 18.0567 29.0039 16 29.0039C13.9433 29.0039 11.9277 28.4273 10.1822 27.3395C8.43669 26.2517 7.03109 24.6964 6.125 22.85L3.5125 24.3625C3.36181 24.4538 3.18869 24.5014 3.0125 24.5C2.79348 24.4987 2.58096 24.4255 2.40756 24.2917C2.23417 24.1579 2.10951 23.9708 2.05272 23.7593C1.99594 23.5478 2.01017 23.3234 2.09323 23.1208C2.17629 22.9181 2.32359 22.7483 2.5125 22.6375L5.4 20.9625C5.13263 19.9978 4.99806 19.0011 5 18V17H1.5C1.23478 17 0.98043 16.8946 0.792893 16.7071C0.605357 16.5196 0.5 16.2652 0.5 16C0.5 15.7348 0.605357 15.4804 0.792893 15.2929C0.98043 15.1054 1.23478 15 1.5 15H5V14C4.99806 12.9989 5.13263 12.0022 5.4 11.0375L2.5125 9.3625C2.28224 9.2314 2.11342 9.01429 2.04311 8.75883C1.9728 8.50337 2.00675 8.23045 2.1375 8C2.27307 7.771 2.49333 7.60459 2.75065 7.53675C3.00798 7.46891 3.28166 7.5051 3.5125 7.6375L6.125 9.14999C7.03109 7.30361 8.43669 5.74825 10.1822 4.66047C11.9277 3.57268 13.9433 2.99606 16 2.99606C18.0567 2.99606 20.0723 3.57268 21.8178 4.66047C23.5633 5.74825 24.9689 7.30361 25.875 9.14999L28.4875 7.6375C28.7183 7.5051 28.992 7.46891 29.2493 7.53675C29.5067 7.60459 29.7269 7.771 29.8625 8C29.9932 8.23045 30.0272 8.50337 29.9569 8.75883C29.8866 9.01429 29.7178 9.2314 29.4875 9.3625L26.6 11.0375C26.8674 12.0022 27.0019 12.9989 27 14V15H30.5C30.7652 15 31.0196 15.1054 31.2071 15.2929C31.3946 15.4804 31.5 15.7348 31.5 16ZM17 18C17 17.7348 16.8946 17.4804 16.7071 17.2929C16.5196 17.1054 16.2652 17 16 17C15.7348 17 15.4804 17.1054 15.2929 17.2929C15.1054 17.4804 15 17.7348 15 18V26C15 26.2652 15.1054 26.5196 15.2929 26.7071C15.4804 26.8946 15.7348 27 16 27C16.2652 27 16.5196 26.8946 16.7071 26.7071C16.8946 26.5196 17 26.2652 17 26V18ZM25 14C25 11.613 24.0518 9.32386 22.364 7.63603C20.6761 5.94821 18.3869 5 16 5C13.6131 5 11.3239 5.94821 9.63604 7.63603C7.94821 9.32386 7 11.613 7 14V15H25V14Z" fill="#344054"/>
</svg>
