<svg width="32" height="32" viewBox="0 0 32 32" fill="none" xmlns="http://www.w3.org/2000/svg">
<path d="M28 27C28 27.2652 27.8946 27.5196 27.7071 27.7071C27.5196 27.8946 27.2652 28 27 28H5C4.73478 28 4.48043 27.8946 4.29289 27.7071C4.10536 27.5196 4 27.2652 4 27C4 26.7348 4.10536 26.4804 4.29289 26.2929C4.48043 26.1054 4.73478 26 5 26H11V17.5H10.5C8.24668 17.4967 6.08659 16.6001 4.49324 15.0068C2.8999 13.4134 2.00331 11.2533 2 9C2 8.07174 2.36875 7.1815 3.02513 6.52513C3.6815 5.86875 4.57174 5.5 5.5 5.5C6.42826 5.5 7.3185 5.86875 7.97487 6.52513C8.63125 7.1815 9 8.07174 9 9C9 9.39782 9.15804 9.77936 9.43934 10.0607C9.72064 10.342 10.1022 10.5 10.5 10.5H11V7C11 5.67392 11.5268 4.40215 12.4645 3.46447C13.4021 2.52678 14.6739 2 16 2C17.3261 2 18.5979 2.52678 19.5355 3.46447C20.4732 4.40215 21 5.67392 21 7V15.5H21.5C21.8978 15.5 22.2794 15.342 22.5607 15.0607C22.842 14.7794 23 14.3978 23 14C23 13.0717 23.3687 12.1815 24.0251 11.5251C24.6815 10.8687 25.5717 10.5 26.5 10.5C27.4283 10.5 28.3185 10.8687 28.9749 11.5251C29.6313 12.1815 30 13.0717 30 14C29.9967 16.2533 29.1001 18.4134 27.5068 20.0068C25.9134 21.6001 23.7533 22.4967 21.5 22.5H21V26H27C27.2652 26 27.5196 26.1054 27.7071 26.2929C27.8946 26.4804 28 26.7348 28 27Z" fill="#344054"/>
</svg>
