<svg width="32" height="32" viewBox="0 0 32 32" fill="none" xmlns="http://www.w3.org/2000/svg">
<path d="M19.5001 8.99999C18.981 9.00383 18.463 9.04561 17.9501 9.12499C17.7721 7.24762 17.0073 5.474 15.7642 4.05591C14.5211 2.63782 12.8629 1.64731 11.0251 1.22499C10.8597 1.18665 10.6872 1.19105 10.524 1.23777C10.3608 1.28449 10.2122 1.372 10.0921 1.49205C9.97206 1.6121 9.88455 1.76074 9.83783 1.92396C9.79111 2.08718 9.78671 2.2596 9.82505 2.42499C9.94017 2.94212 9.99885 3.47021 10.0001 3.99999C10.0001 5.85651 9.26256 7.63698 7.9498 8.94974C6.63705 10.2625 4.85657 11 3.00005 11C2.47027 10.9988 1.94218 10.9401 1.42505 10.825C1.25966 10.7867 1.08724 10.791 0.924017 10.8378C0.760798 10.8845 0.612161 10.972 0.492112 11.0921C0.372063 11.2121 0.284555 11.3607 0.237832 11.524C0.19111 11.6872 0.186712 11.8596 0.225053 12.025C0.492685 13.183 0.987335 14.2764 1.68037 15.2419C2.37341 16.2074 3.25107 17.0259 4.26255 17.65C3.55068 18.6184 3.12122 19.7651 3.02191 20.9629C2.9226 22.1606 3.15731 23.3625 3.69998 24.4349C4.24265 25.5072 5.07201 26.4082 6.09592 27.0375C7.11983 27.6669 8.29818 28.0001 9.50005 28H19.5001C22.0196 28 24.436 26.9991 26.2176 25.2175C27.9992 23.4359 29.0001 21.0195 29.0001 18.5C29.0001 15.9804 27.9992 13.5641 26.2176 11.7825C24.436 10.0009 22.0196 8.99999 19.5001 8.99999ZM2.67505 13H3.00005C5.38599 12.9967 7.67325 12.0474 9.36036 10.3603C11.0475 8.67319 11.9967 6.38593 12.0001 3.99999V3.66249C13.1513 4.20375 14.132 5.05062 14.8351 6.11081C15.5382 7.171 15.9368 8.40385 15.9876 9.67499C14.7685 10.1616 13.6631 10.8946 12.7403 11.828C11.8176 12.7615 11.0975 13.8754 10.6251 15.1C10.2535 15.0352 9.87719 15.0017 9.50005 15C8.15579 15.001 6.84518 15.4204 5.75005 16.2C4.40455 15.4958 3.32508 14.3725 2.67505 13Z" fill="#344054"/>
</svg>
