<svg width="32" height="32" viewBox="0 0 32 32" fill="none" xmlns="http://www.w3.org/2000/svg">
<path d="M12.9999 17.5C12.9999 17.7967 12.912 18.0867 12.7471 18.3333C12.5823 18.58 12.348 18.7723 12.0739 18.8858C11.7999 18.9993 11.4983 19.029 11.2073 18.9712C10.9163 18.9133 10.649 18.7704 10.4393 18.5606C10.2295 18.3509 10.0866 18.0836 10.0287 17.7926C9.97087 17.5016 10.0006 17.2 10.1141 16.926C10.2276 16.6519 10.4199 16.4176 10.6666 16.2528C10.9132 16.088 11.2033 16 11.4999 16C11.8977 16 12.2793 16.158 12.5606 16.4393C12.8419 16.7206 12.9999 17.1022 12.9999 17.5ZM20.4999 16C20.2033 16 19.9132 16.088 19.6666 16.2528C19.4199 16.4176 19.2276 16.6519 19.1141 16.926C19.0006 17.2 18.9709 17.5016 19.0287 17.7926C19.0866 18.0836 19.2295 18.3509 19.4393 18.5606C19.649 18.7704 19.9163 18.9133 20.2073 18.9712C20.4983 19.029 20.7999 18.9993 21.0739 18.8858C21.348 18.7723 21.5823 18.58 21.7471 18.3333C21.9119 18.0867 21.9999 17.7967 21.9999 17.5C21.9999 17.1022 21.8419 16.7206 21.5606 16.4393C21.2793 16.158 20.8977 16 20.4999 16ZM29.0874 18C28.824 18.1177 28.5384 18.1774 28.2499 18.175C27.7934 18.1759 27.3511 18.0167 26.9999 17.725V23C26.9999 24.3261 26.4731 25.5978 25.5355 26.5355C24.5978 27.4732 23.326 28 21.9999 28H9.99992C8.67384 28 7.40207 27.4732 6.46439 26.5355C5.52671 25.5978 4.99992 24.3261 4.99992 23V17.725C4.64877 18.0167 4.20642 18.1759 3.74992 18.175C3.46144 18.1774 3.17582 18.1177 2.91242 18C2.50035 17.818 2.16288 17.5006 1.95598 17.1004C1.74909 16.7003 1.6852 16.2414 1.77492 15.8L3.82492 4.86248C3.87646 4.59511 3.98172 4.34098 4.13433 4.11547C4.28694 3.88996 4.48373 3.69777 4.71277 3.55052C4.94182 3.40328 5.19837 3.30405 5.46688 3.25883C5.73539 3.21362 6.01029 3.22337 6.27492 3.28748L13.1249 4.99998H18.8749L25.7249 3.28748C25.9896 3.22337 26.2645 3.21362 26.533 3.25883C26.8015 3.30405 27.058 3.40328 27.2871 3.55052C27.5161 3.69777 27.7129 3.88996 27.8655 4.11547C28.0181 4.34098 28.1234 4.59511 28.1749 4.86248L30.2249 15.8C30.3146 16.2414 30.2508 16.7003 30.0439 17.1004C29.837 17.5006 29.4995 17.818 29.0874 18ZM24.9999 23V15.25L18.5124 6.99998H13.4874L6.99992 15.25V23C7.00321 23.7946 7.32034 24.5558 7.88224 25.1177C8.44414 25.6796 9.20529 25.9967 9.99992 26H14.9999V24.4125L13.2874 22.7125C13.128 22.5182 13.0465 22.2715 13.0588 22.0205C13.0711 21.7694 13.1764 21.5319 13.3541 21.3542C13.5319 21.1765 13.7694 21.0712 14.0204 21.0589C14.2715 21.0465 14.5181 21.128 14.7124 21.2875L15.9999 22.5875L17.2874 21.2875C17.4817 21.128 17.7284 21.0465 17.9794 21.0589C18.2305 21.0712 18.468 21.1765 18.6457 21.3542C18.8234 21.5319 18.9287 21.7694 18.941 22.0205C18.9534 22.2715 18.8719 22.5182 18.7124 22.7125L16.9999 24.4125V26H21.9999C22.7946 25.9967 23.5557 25.6796 24.1176 25.1177C24.6795 24.5558 24.9966 23.7946 24.9999 23Z" fill="#344054"/>
</svg>
