<svg width="32" height="32" viewBox="0 0 32 32" fill="none" xmlns="http://www.w3.org/2000/svg">
<path d="M23 23C22.999 23.9378 22.6684 24.8455 22.0661 25.5644C21.4638 26.2833 20.6281 26.7677 19.7049 26.933C18.7818 27.0982 17.8299 26.9339 17.0156 26.4686C16.2013 26.0033 15.5764 25.2667 15.25 24.3875C15.1964 24.2626 15.1688 24.1282 15.1689 23.9923C15.169 23.8564 15.1967 23.722 15.2505 23.5972C15.3043 23.4724 15.3829 23.3599 15.4816 23.2665C15.5803 23.1731 15.697 23.1008 15.8246 23.0541C15.9522 23.0073 16.088 22.987 16.2236 22.9944C16.3593 23.0019 16.492 23.0369 16.6137 23.0973C16.7354 23.1578 16.8435 23.2424 16.9314 23.346C17.0193 23.4496 17.0852 23.5701 17.125 23.7C17.2528 24.042 17.4717 24.3425 17.7581 24.5689C18.0446 24.7954 18.3875 24.9391 18.7497 24.9845C19.112 25.0299 19.4798 24.9753 19.8132 24.8265C20.1466 24.6778 20.433 24.4407 20.6412 24.1408C20.8495 23.8409 20.9717 23.4898 20.9946 23.1254C21.0175 22.761 20.9402 22.3973 20.7711 22.0737C20.602 21.7502 20.3476 21.479 20.0354 21.2898C19.7232 21.1005 19.3651 21.0003 19 21H5C4.73478 21 4.48043 20.8946 4.29289 20.7071C4.10536 20.5196 4 20.2652 4 20C4 19.7348 4.10536 19.4804 4.29289 19.2929C4.48043 19.1054 4.73478 19 5 19H19C20.0599 19.0033 21.0754 19.4258 21.8248 20.1752C22.5742 20.9246 22.9967 21.9401 23 23ZM15 13C15.731 13.0003 16.448 12.8003 17.0733 12.4217C17.6986 12.0432 18.2082 11.5005 18.5467 10.8527C18.8853 10.2049 19.0399 9.47665 18.9936 8.74716C18.9474 8.01767 18.7022 7.31478 18.2846 6.71485C17.8671 6.11492 17.2931 5.64089 16.625 5.34423C15.957 5.04758 15.2204 4.93965 14.4953 5.03218C13.7703 5.1247 13.0844 5.41413 12.5123 5.86904C11.9401 6.32395 11.5035 6.92693 11.25 7.6125C11.1964 7.73736 11.1688 7.87183 11.1689 8.00771C11.169 8.14359 11.1967 8.27803 11.2505 8.40281C11.3043 8.5276 11.3829 8.64012 11.4816 8.7335C11.5803 8.82688 11.697 8.89917 11.8246 8.94595C11.9522 8.99272 12.088 9.01301 12.2236 9.00557C12.3593 8.99813 12.492 8.96311 12.6137 8.90266C12.7354 8.84222 12.8435 8.7576 12.9314 8.65398C13.0193 8.55037 13.0852 8.42992 13.125 8.3C13.2528 7.958 13.4717 7.6575 13.7581 7.43108C14.0446 7.20465 14.3875 7.06095 14.7497 7.01553C15.112 6.97012 15.4798 7.02474 15.8132 7.17346C16.1466 7.32218 16.433 7.55933 16.6412 7.85921C16.8495 8.15909 16.9717 8.51025 16.9946 8.87463C17.0175 9.239 16.9402 9.60269 16.7711 9.92627C16.602 10.2499 16.3476 10.521 16.0354 10.7102C15.7232 10.8995 15.3651 10.9997 15 11H3C2.73478 11 2.48043 11.1054 2.29289 11.2929C2.10536 11.4804 2 11.7348 2 12C2 12.2652 2.10536 12.5196 2.29289 12.7071C2.48043 12.8946 2.73478 13 3 13H15ZM26 9C25.1833 9.00211 24.3868 9.25335 23.7167 9.72017C23.0466 10.187 22.5349 10.8472 22.25 11.6125C22.1964 11.7374 22.1688 11.8718 22.1689 12.0077C22.169 12.1436 22.1967 12.278 22.2505 12.4028C22.3043 12.5276 22.3829 12.6401 22.4816 12.7335C22.5803 12.8269 22.697 12.8992 22.8246 12.9459C22.9522 12.9927 23.088 13.013 23.2236 13.0056C23.3593 12.9981 23.492 12.9631 23.6137 12.9027C23.7354 12.8422 23.8435 12.7576 23.9314 12.654C24.0193 12.5504 24.0852 12.4299 24.125 12.3C24.2528 11.958 24.4717 11.6575 24.7581 11.4311C25.0446 11.2047 25.3875 11.0609 25.7497 11.0155C26.112 10.9701 26.4798 11.0247 26.8132 11.1735C27.1466 11.3222 27.433 11.5593 27.6412 11.8592C27.8495 12.1591 27.9717 12.5102 27.9946 12.8746C28.0175 13.239 27.9402 13.6027 27.7711 13.9263C27.602 14.2499 27.3476 14.521 27.0354 14.7102C26.7232 14.8995 26.3651 14.9997 26 15H4C3.73478 15 3.48043 15.1054 3.29289 15.2929C3.10536 15.4804 3 15.7348 3 16C3 16.2652 3.10536 16.5196 3.29289 16.7071C3.48043 16.8946 3.73478 17 4 17H26C27.0609 17 28.0783 16.5786 28.8284 15.8284C29.5786 15.0783 30 14.0609 30 13C30 11.9391 29.5786 10.9217 28.8284 10.1716C28.0783 9.42143 27.0609 9 26 9Z" fill="#344054"/>
</svg>
