<svg width="32" height="32" viewBox="0 0 32 32" fill="none" xmlns="http://www.w3.org/2000/svg">
<path d="M21.0001 9.49996C21.0001 9.79663 20.9121 10.0866 20.7473 10.3333C20.5825 10.58 20.3482 10.7722 20.0741 10.8858C19.8 10.9993 19.4984 11.029 19.2075 10.9711C18.9165 10.9133 18.6492 10.7704 18.4394 10.5606C18.2297 10.3508 18.0868 10.0836 18.0289 9.79259C17.971 9.50162 18.0007 9.20002 18.1143 8.92593C18.2278 8.65184 18.4201 8.41758 18.6667 8.25275C18.9134 8.08793 19.2034 7.99996 19.5001 7.99996C19.8979 7.99996 20.2794 8.15799 20.5608 8.4393C20.8421 8.7206 21.0001 9.10213 21.0001 9.49996ZM24.7751 21C21.4626 24.3 16.2251 25.675 9.13759 25.1125C9.33759 26.5875 9.61259 28.15 9.97509 29.7875C10.0044 29.9156 10.0079 30.0483 9.98531 30.1777C9.96271 30.3072 9.91449 30.4309 9.84347 30.5415C9.77245 30.6521 9.68007 30.7474 9.57174 30.8218C9.46341 30.8963 9.3413 30.9483 9.21259 30.975L9.00009 31C8.77216 30.9995 8.55124 30.9211 8.37392 30.7779C8.1966 30.6347 8.07353 30.4352 8.02509 30.2125C7.61259 28.35 7.31259 26.575 7.10009 24.9C5.42509 24.6875 3.65009 24.375 1.78759 23.975C1.52735 23.9186 1.30015 23.7612 1.15598 23.5373C1.01182 23.3134 0.962485 23.0415 1.01884 22.7812C1.0752 22.521 1.23263 22.2938 1.45651 22.1496C1.68038 22.0054 1.95235 21.9561 2.21259 22.0125C3.85009 22.375 5.41259 22.6625 6.88759 22.8625C6.32509 15.775 7.70009 10.5375 11.0001 7.22496C16.1251 2.09996 24.2251 3.36246 26.5876 3.87496C26.9655 3.95417 27.3122 4.14177 27.5852 4.41481C27.8583 4.68786 28.0459 5.03453 28.1251 5.41246C28.6376 7.77496 29.9001 15.875 24.7751 21ZM26.1751 5.83746C24.3001 5.42496 18.3876 4.47496 14.0126 7.34996C14.1002 10.1434 15.2491 12.7985 17.2254 14.7747C19.2016 16.7509 21.8566 17.8998 24.6501 17.9875C27.5251 13.6125 26.5751 7.69996 26.1751 5.83746Z" fill="#344054"/>
</svg>
