<svg width="32" height="32" viewBox="0 0 32 32" fill="none" xmlns="http://www.w3.org/2000/svg">
<path d="M26.05 16.6C25.5943 16.348 25.1122 16.1468 24.6125 16C25.1122 15.8532 25.5943 15.652 26.05 15.4C27.0844 14.8033 27.8393 13.8201 28.1487 12.6667C28.4582 11.5134 28.2968 10.2843 27.7 9.25C27.1033 8.21566 26.1201 7.46073 24.9667 7.15129C23.8134 6.84186 22.5844 7.00326 21.55 7.6C21.1055 7.86786 20.6907 8.18212 20.3125 8.5375C20.4292 8.03307 20.492 7.51769 20.5 7C20.5 5.80653 20.0259 4.66193 19.182 3.81802C18.3381 2.97411 17.1935 2.5 16 2.5C14.8065 2.5 13.662 2.97411 12.818 3.81802C11.9741 4.66193 11.5 5.80653 11.5 7C11.508 7.51769 11.5709 8.03307 11.6875 8.5375C11.3093 8.18212 10.8945 7.86786 10.45 7.6C9.41568 7.00326 8.18664 6.84186 7.03329 7.15129C5.87995 7.46073 4.89676 8.21566 4.30002 9.25C3.70328 10.2843 3.54188 11.5134 3.85131 12.6667C4.16075 13.8201 4.91568 14.8033 5.95002 15.4C6.40577 15.652 6.88783 15.8532 7.38752 16C6.88783 16.1468 6.40577 16.348 5.95002 16.6C5.43786 16.8955 4.98892 17.2889 4.62883 17.7579C4.26873 18.2269 4.00453 18.7622 3.85131 19.3333C3.54188 20.4866 3.70328 21.7157 4.30002 22.75C4.89676 23.7843 5.87995 24.5393 7.03329 24.8487C8.18664 25.1581 9.41568 24.9967 10.45 24.4C10.8945 24.1321 11.3093 23.8179 11.6875 23.4625C11.5709 23.9669 11.508 24.4823 11.5 25C11.5 26.1935 11.9741 27.3381 12.818 28.182C13.662 29.0259 14.8065 29.5 16 29.5C17.1935 29.5 18.3381 29.0259 19.182 28.182C20.0259 27.3381 20.5 26.1935 20.5 25C20.492 24.4823 20.4292 23.9669 20.3125 23.4625C20.6907 23.8179 21.1055 24.1321 21.55 24.4C22.5844 24.9967 23.8134 25.1581 24.9667 24.8487C26.1201 24.5393 27.1033 23.7843 27.7 22.75C28.2968 21.7157 28.4582 20.4866 28.1487 19.3333C27.8393 18.1799 27.0844 17.1967 26.05 16.6ZM16 19C15.4067 19 14.8267 18.8241 14.3333 18.4944C13.84 18.1648 13.4554 17.6962 13.2284 17.1481C13.0013 16.5999 12.9419 15.9967 13.0577 15.4147C13.1734 14.8328 13.4591 14.2982 13.8787 13.8787C14.2983 13.4591 14.8328 13.1734 15.4147 13.0576C15.9967 12.9419 16.5999 13.0013 17.1481 13.2284C17.6962 13.4554 18.1648 13.8399 18.4944 14.3333C18.8241 14.8266 19 15.4067 19 16C18.9967 16.7946 18.6796 17.5558 18.1177 18.1177C17.5558 18.6796 16.7947 18.9967 16 19Z" fill="#344054"/>
</svg>
