<svg width="32" height="32" viewBox="0 0 32 32" fill="none" xmlns="http://www.w3.org/2000/svg">
<path d="M27.675 4.53751C27.3098 4.4107 26.9162 4.39037 26.5399 4.47891C26.1636 4.56744 25.8203 4.76118 25.55 5.03751L23.4375 7.15001C21.2112 5.74523 18.6325 4.99969 16 4.99969C13.3675 4.99969 10.7888 5.74523 8.5625 7.15001L6.45 5.03751C6.17971 4.76118 5.83638 4.56744 5.46011 4.47891C5.08384 4.39037 4.69015 4.4107 4.325 4.53751C3.93731 4.67458 3.60169 4.92852 3.36438 5.26434C3.12707 5.60016 2.99976 6.00131 3 6.41251V17C3 23.1375 8.0125 28.2 14.45 28.9125C14.5197 28.9195 14.5902 28.9118 14.6567 28.8898C14.7233 28.8679 14.7845 28.8321 14.8363 28.785C14.8882 28.7378 14.9296 28.6803 14.9578 28.6161C14.986 28.552 15.0004 28.4826 15 28.4125V24.4125L13.325 22.7375C13.1361 22.5514 13.0257 22.3 13.0164 22.035C13.0071 21.77 13.0996 21.5114 13.275 21.3125C13.3675 21.216 13.4781 21.1387 13.6006 21.0852C13.723 21.0317 13.8549 21.0029 13.9885 21.0006C14.1222 20.9983 14.255 21.0224 14.3792 21.0717C14.5035 21.1209 14.6167 21.1943 14.7125 21.2875L16 22.5875L17.2875 21.2875C17.3833 21.1943 17.4965 21.1209 17.6208 21.0717C17.745 21.0224 17.8778 20.9983 18.0115 21.0006C18.1451 21.0029 18.277 21.0317 18.3994 21.0852C18.5219 21.1387 18.6325 21.216 18.725 21.3125C18.9004 21.5114 18.9929 21.77 18.9836 22.035C18.9743 22.3 18.8639 22.5514 18.675 22.7375L17 24.4125V28.4125C16.9996 28.4826 17.014 28.552 17.0422 28.6161C17.0704 28.6803 17.1118 28.7378 17.1637 28.785C17.2155 28.8321 17.2767 28.8679 17.3433 28.8898C17.4098 28.9118 17.4803 28.9195 17.55 28.9125C23.9875 28.2 29 23.1375 29 17V6.41251C29.0002 6.00131 28.8729 5.60016 28.6356 5.26434C28.3983 4.92852 28.0627 4.67458 27.675 4.53751ZM10.5 19C10.2033 19 9.91332 18.912 9.66665 18.7472C9.41997 18.5824 9.22771 18.3481 9.11418 18.074C9.00065 17.7999 8.97094 17.4984 9.02882 17.2074C9.0867 16.9164 9.22956 16.6491 9.43934 16.4394C9.64912 16.2296 9.91639 16.0867 10.2074 16.0288C10.4983 15.971 10.7999 16.0007 11.074 16.1142C11.3481 16.2277 11.5824 16.42 11.7472 16.6667C11.912 16.9133 12 17.2033 12 17.5C12 17.8978 11.842 18.2794 11.5607 18.5607C11.2794 18.842 10.8978 19 10.5 19ZM13 11C13 11.2652 12.8946 11.5196 12.7071 11.7071C12.5196 11.8947 12.2652 12 12 12C11.7348 12 11.4804 11.8947 11.2929 11.7071C11.1054 11.5196 11 11.2652 11 11V8.62501C11 8.3598 11.1054 8.10544 11.2929 7.91791C11.4804 7.73037 11.7348 7.62501 12 7.62501C12.2652 7.62501 12.5196 7.73037 12.7071 7.91791C12.8946 8.10544 13 8.3598 13 8.62501V11ZM17 11C17 11.2652 16.8946 11.5196 16.7071 11.7071C16.5196 11.8947 16.2652 12 16 12C15.7348 12 15.4804 11.8947 15.2929 11.7071C15.1054 11.5196 15 11.2652 15 11V8.00001C15 7.7348 15.1054 7.48044 15.2929 7.29291C15.4804 7.10537 15.7348 7.00001 16 7.00001C16.2652 7.00001 16.5196 7.10537 16.7071 7.29291C16.8946 7.48044 17 7.7348 17 8.00001V11ZM19 11V8.62501C19 8.3598 19.1054 8.10544 19.2929 7.91791C19.4804 7.73037 19.7348 7.62501 20 7.62501C20.2652 7.62501 20.5196 7.73037 20.7071 7.91791C20.8946 8.10544 21 8.3598 21 8.62501V11C21 11.2652 20.8946 11.5196 20.7071 11.7071C20.5196 11.8947 20.2652 12 20 12C19.7348 12 19.4804 11.8947 19.2929 11.7071C19.1054 11.5196 19 11.2652 19 11ZM21.5 19C21.2033 19 20.9133 18.912 20.6666 18.7472C20.42 18.5824 20.2277 18.3481 20.1142 18.074C20.0007 17.7999 19.9709 17.4984 20.0288 17.2074C20.0867 16.9164 20.2296 16.6491 20.4393 16.4394C20.6491 16.2296 20.9164 16.0867 21.2074 16.0288C21.4983 15.971 21.7999 16.0007 22.074 16.1142C22.3481 16.2277 22.5824 16.42 22.7472 16.6667C22.912 16.9133 23 17.2033 23 17.5C23 17.8978 22.842 18.2794 22.5607 18.5607C22.2794 18.842 21.8978 19 21.5 19Z" fill="#344054"/>
</svg>
