<svg width="32" height="32" viewBox="0 0 32 32" fill="none" xmlns="http://www.w3.org/2000/svg">
<path d="M24.5126 16C25.4433 14.7186 26.2471 13.3496 26.9126 11.9125C28.3001 8.8375 28.3126 6.3875 26.9626 5.0375C24.7751 2.8625 20.3126 4.425 16.0001 7.5C11.6876 4.425 7.22508 2.8625 5.03758 5.0375C3.68758 6.3875 3.70009 8.8375 5.08759 11.9125C5.7531 13.3496 6.55689 14.7186 7.48759 16C6.55689 17.2814 5.7531 18.6504 5.08759 20.0875C3.70009 23.1625 3.68758 25.6125 5.03758 26.9625C5.73758 27.6625 6.67509 27.975 7.77508 27.975C10.0751 27.975 13.0751 26.5875 16.0001 24.5C18.9251 26.5875 21.9251 27.975 24.2251 27.975C25.3251 27.975 26.2626 27.6625 26.9626 26.9625C28.3126 25.6125 28.3001 23.1625 26.9126 20.0875C26.2471 18.6504 25.4433 17.2814 24.5126 16ZM24.2251 6.0375C24.8251 6.0375 25.2751 6.175 25.5501 6.45C26.2501 7.1625 26.0751 8.8875 25.0876 11.0875C24.5671 12.2189 23.9481 13.3022 23.2376 14.325C22.4376 13.3375 21.5501 12.3625 20.6001 11.4C19.6501 10.4375 18.6751 9.5875 17.6626 8.7625C20.4001 6.9 22.7501 6.0375 24.2251 6.0375ZM22.0126 16C21.1371 17.1194 20.1937 18.1839 19.1876 19.1875C18.1773 20.1904 17.1132 21.1376 16.0001 22.025C14.8869 21.1376 13.8229 20.1904 12.8126 19.1875C11.8065 18.1839 10.863 17.1194 9.98759 16C10.863 14.8806 11.8065 13.8161 12.8126 12.8125C13.8229 11.8096 14.8869 10.8623 16.0001 9.975C17.1132 10.8623 18.1773 11.8096 19.1876 12.8125C20.1937 13.8161 21.1371 14.8806 22.0126 16ZM6.91258 11.0875C5.92508 8.8875 5.75008 7.1625 6.45008 6.45C6.72508 6.175 7.17509 6.0375 7.77508 6.0375C9.25008 6.0375 11.6001 6.9 14.3376 8.7625C13.3251 9.5875 12.3376 10.475 11.4001 11.4C10.4626 12.325 9.56258 13.3375 8.76258 14.325C8.05208 13.3022 7.43302 12.2189 6.91258 11.0875ZM6.45008 25.55C5.75008 24.8375 5.92508 23.1125 6.91258 20.9125C7.43302 19.7811 8.05208 18.6978 8.76258 17.675C9.56258 18.6625 10.4501 19.6375 11.4001 20.6C12.3501 21.5625 13.3251 22.4125 14.3376 23.2375C10.4876 25.85 7.40008 26.5 6.45008 25.55ZM25.5501 25.55C25.2751 25.825 24.8251 25.9625 24.2251 25.9625C22.7501 25.9625 20.4001 25.1 17.6626 23.2375C18.6751 22.4125 19.6626 21.525 20.6001 20.6C21.5376 19.675 22.4376 18.6625 23.2376 17.675C23.9481 18.6978 24.5671 19.7811 25.0876 20.9125C26.0751 23.1125 26.2501 24.8375 25.5501 25.55ZM17.5001 16C17.5001 16.2967 17.4121 16.5867 17.2473 16.8334C17.0825 17.08 16.8482 17.2723 16.5741 17.3858C16.3 17.4993 15.9984 17.5291 15.7074 17.4712C15.4165 17.4133 15.1492 17.2704 14.9394 17.0607C14.7296 16.8509 14.5868 16.5836 14.5289 16.2926C14.471 16.0017 14.5007 15.7001 14.6143 15.426C14.7278 15.1519 14.9201 14.9176 15.1667 14.7528C15.4134 14.588 15.7034 14.5 16.0001 14.5C16.3979 14.5 16.7794 14.658 17.0607 14.9393C17.342 15.2206 17.5001 15.6022 17.5001 16Z" fill="#344054"/>
</svg>
