<svg width="32" height="32" viewBox="0 0 32 32" fill="none" xmlns="http://www.w3.org/2000/svg">
<path d="M30 10H28V8C28 7.73478 27.8946 7.48043 27.7071 7.29289C27.5196 7.10536 27.2652 7 27 7C26.7348 7 26.4804 7.10536 26.2929 7.29289C26.1054 7.48043 26 7.73478 26 8V10H24C23.7348 10 23.4804 10.1054 23.2929 10.2929C23.1054 10.4804 23 10.7348 23 11C23 11.2652 23.1054 11.5196 23.2929 11.7071C23.4804 11.8946 23.7348 12 24 12H26V14C26 14.2652 26.1054 14.5196 26.2929 14.7071C26.4804 14.8946 26.7348 15 27 15C27.2652 15 27.5196 14.8946 27.7071 14.7071C27.8946 14.5196 28 14.2652 28 14V12H30C30.2652 12 30.5196 11.8946 30.7071 11.7071C30.8946 11.5196 31 11.2652 31 11C31 10.7348 30.8946 10.4804 30.7071 10.2929C30.5196 10.1054 30.2652 10 30 10Z" fill="#344054"/>
<path d="M19 6H20V7C20 7.26522 20.1054 7.51957 20.2929 7.70711C20.4804 7.89464 20.7348 8 21 8C21.2652 8 21.5196 7.89464 21.7071 7.70711C21.8946 7.51957 22 7.26522 22 7V6H23C23.2652 6 23.5196 5.89464 23.7071 5.70711C23.8946 5.51957 24 5.26522 24 5C24 4.73478 23.8946 4.48043 23.7071 4.29289C23.5196 4.10536 23.2652 4 23 4H22V3C22 2.73478 21.8946 2.48043 21.7071 2.29289C21.5196 2.10536 21.2652 2 21 2C20.7348 2 20.4804 2.10536 20.2929 2.29289C20.1054 2.48043 20 2.73478 20 3V4H19C18.7348 4 18.4804 4.10536 18.2929 4.29289C18.1054 4.48043 18 4.73478 18 5C18 5.26522 18.1054 5.51957 18.2929 5.70711C18.4804 5.89464 18.7348 6 19 6Z" fill="#344054"/>
<path d="M27.0625 18.075L26.7875 18.125C24.9971 18.6192 23.1076 18.6296 21.3119 18.1552C19.5161 17.6807 17.8783 16.7385 16.5656 15.4245C15.2529 14.1105 14.3122 12.4718 13.8395 10.6756C13.3668 8.87937 13.3791 6.98992 13.875 5.19998C13.8995 5.12748 13.9122 5.05151 13.9125 4.97498C13.925 4.76563 13.8714 4.55764 13.7593 4.38043C13.6471 4.20322 13.4821 4.06575 13.2875 3.98748C13.0801 3.90499 12.8506 3.89616 12.6375 3.96248C10.5346 4.54935 8.62211 5.67675 7.09036 7.23248C5.55861 8.7882 4.46104 10.718 3.9069 12.8297C3.35276 14.9415 3.36138 17.1615 3.9319 19.2689C4.50242 21.3763 5.61494 23.2975 7.15872 24.8412C8.70251 26.385 10.6237 27.4976 12.7311 28.0681C14.8385 28.6386 17.0585 28.6472 19.1703 28.0931C21.282 27.5389 23.2118 26.4414 24.7675 24.9096C26.3232 23.3779 27.4506 21.4654 28.0375 19.3625C28.0997 19.1673 28.0997 18.9576 28.0375 18.7625C27.9671 18.5605 27.8352 18.3856 27.6603 18.2623C27.4855 18.139 27.2764 18.0735 27.0625 18.075Z" fill="#344054"/>
</svg>
