<svg width="32" height="32" viewBox="0 0 32 32" fill="none" xmlns="http://www.w3.org/2000/svg">
<path d="M24.6375 8.32503C23.0125 5.72503 20.9 3.48753 19.0625 1.65003C18.9492 1.53771 18.8106 1.45414 18.6584 1.4063C18.5062 1.35846 18.3447 1.34774 18.1875 1.37503C18.0292 1.39997 17.8793 1.46307 17.7508 1.5589C17.6223 1.65472 17.5191 1.78038 17.45 1.92503L13.5875 10.025L9.5625 7.33753C9.34173 7.1914 9.0725 7.13755 8.8125 7.18753C8.68352 7.21299 8.56082 7.26363 8.45143 7.33655C8.34204 7.40948 8.24811 7.50326 8.175 7.61253C5.7375 11.2875 4.5 14.6125 4.5 17.5C4.5 20.55 5.7116 23.4751 7.86827 25.6318C10.0249 27.7884 12.95 29 16 29C19.05 29 21.9751 27.7884 24.1317 25.6318C26.2884 23.4751 27.5 20.55 27.5 17.5C27.5 14.3875 26.5625 11.3875 24.6375 8.32503ZM23.4125 18.65C23.176 20.2266 22.4401 21.6857 21.3129 22.8129C20.1856 23.9401 18.7265 24.6761 17.15 24.9125H17C16.7491 24.9107 16.5081 24.8145 16.3247 24.6433C16.1414 24.472 16.0292 24.238 16.0103 23.9878C15.9914 23.7376 16.0673 23.4895 16.2228 23.2926C16.3784 23.0957 16.6022 22.9645 16.85 22.925C17.9992 22.7382 19.0606 22.1947 19.8839 21.3714C20.7071 20.5481 21.2507 19.4867 21.4375 18.3375C21.4513 18.2028 21.4924 18.0724 21.5581 17.954C21.6239 17.8356 21.713 17.7319 21.82 17.649C21.9271 17.5661 22.0499 17.5058 22.1809 17.4718C22.312 17.4377 22.4486 17.4307 22.5824 17.451C22.7163 17.4713 22.8446 17.5186 22.9597 17.5901C23.0747 17.6615 23.1741 17.7555 23.2517 17.8664C23.3293 17.9774 23.3836 18.1029 23.4112 18.2355C23.4388 18.368 23.4393 18.5048 23.4125 18.6375V18.65Z" fill="#344054"/>
</svg>
