<svg width="32" height="32" viewBox="0 0 32 32" fill="none" xmlns="http://www.w3.org/2000/svg">
<path d="M29.95 15.825C29.6527 12.3289 28.0546 9.07163 25.4716 6.69695C22.8886 4.32227 19.5087 3.00303 16 3C12.4913 3.00303 9.11146 4.32227 6.52847 6.69695C3.94549 9.07163 2.34738 12.3289 2.05003 15.825C2.02451 16.1019 2.05812 16.381 2.14863 16.6439C2.23914 16.9068 2.38448 17.1475 2.57503 17.35C2.76044 17.5538 2.98619 17.7168 3.23796 17.8287C3.48973 17.9406 3.76202 17.9989 4.03753 18H15V25C15 26.0609 15.4215 27.0783 16.1716 27.8284C16.9218 28.5786 17.9392 29 19 29C20.0609 29 21.0783 28.5786 21.8285 27.8284C22.5786 27.0783 23 26.0609 23 25C23 24.7348 22.8947 24.4804 22.7071 24.2929C22.5196 24.1054 22.2652 24 22 24C21.7348 24 21.4805 24.1054 21.2929 24.2929C21.1054 24.4804 21 24.7348 21 25C21 25.5304 20.7893 26.0391 20.4142 26.4142C20.0392 26.7893 19.5305 27 19 27C18.4696 27 17.9609 26.7893 17.5858 26.4142C17.2107 26.0391 17 25.5304 17 25V18H27.9625C28.238 17.9989 28.5103 17.9406 28.7621 17.8287C29.0139 17.7168 29.2396 17.5538 29.425 17.35C29.6156 17.1475 29.7609 16.9068 29.8514 16.6439C29.9419 16.381 29.9755 16.1019 29.95 15.825ZM4.03753 16C4.25185 13.4272 5.29103 10.9924 7.00047 9.05775C8.7099 7.12309 10.9982 5.792 13.525 5.2625C12.0625 7.2625 10.225 10.7625 10.025 16H4.03753ZM21.975 16C21.775 10.7625 19.9375 7.2625 18.475 5.2625C21.0018 5.792 23.2902 7.12309 24.9996 9.05775C26.709 10.9924 27.7482 13.4272 27.9625 16H21.975Z" fill="#344054"/>
</svg>
