<svg width="32" height="32" viewBox="0 0 32 32" fill="none" xmlns="http://www.w3.org/2000/svg">
<path d="M21.0001 28C21.0001 28.2652 20.8947 28.5196 20.7072 28.7071C20.5197 28.8946 20.2653 29 20.0001 29H13.0001C12.7349 29 12.4805 28.8946 12.293 28.7071C12.1054 28.5196 12.0001 28.2652 12.0001 28C12.0001 27.7348 12.1054 27.4804 12.293 27.2929C12.4805 27.1053 12.7349 27 13.0001 27H20.0001C20.2653 27 20.5197 27.1053 20.7072 27.2929C20.8947 27.4804 21.0001 27.7348 21.0001 28ZM16.0001 24C16.0001 23.7348 15.8947 23.4804 15.7072 23.2929C15.5197 23.1053 15.2653 23 15.0001 23H9.00008C8.73487 23 8.48051 23.1053 8.29298 23.2929C8.10544 23.4804 8.00008 23.7348 8.00008 24C8.00008 24.2652 8.10544 24.5196 8.29298 24.7071C8.48051 24.8946 8.73487 25 9.00008 25H15.0001C15.2653 25 15.5197 24.8946 15.7072 24.7071C15.8947 24.5196 16.0001 24.2652 16.0001 24ZM23.0001 23H20.0001C19.7349 23 19.4805 23.1053 19.293 23.2929C19.1054 23.4804 19.0001 23.7348 19.0001 24C19.0001 24.2652 19.1054 24.5196 19.293 24.7071C19.4805 24.8946 19.7349 25 20.0001 25H23.0001C23.2653 25 23.5197 24.8946 23.7072 24.7071C23.8947 24.5196 24.0001 24.2652 24.0001 24C24.0001 23.7348 23.8947 23.4804 23.7072 23.2929C23.5197 23.1053 23.2653 23 23.0001 23ZM19.9126 2.01249C17.922 1.9267 15.9547 2.46812 14.2883 3.56034C12.622 4.65257 11.3406 6.24047 10.6251 8.09999C10.2161 9.17408 10.0044 10.3132 10.0001 11.4625C10.0016 11.7192 9.90786 11.9674 9.73701 12.159C9.56615 12.3507 9.33031 12.4722 9.07508 12.5C8.93759 12.5103 8.79945 12.4921 8.66933 12.4465C8.53921 12.4009 8.41993 12.3289 8.31898 12.235C8.21802 12.1411 8.13758 12.0273 8.0827 11.9008C8.02782 11.7743 7.99969 11.6379 8.00008 11.5C7.99759 10.6114 8.10251 9.72585 8.31258 8.86249C8.33364 8.77722 8.33187 8.68791 8.30744 8.60354C8.28301 8.51918 8.23679 8.44274 8.17343 8.38191C8.11007 8.32109 8.03181 8.27803 7.94652 8.25706C7.86123 8.2361 7.77192 8.23797 7.68758 8.26249C6.33027 8.65658 5.13839 9.48234 4.29254 10.6147C3.44669 11.747 2.99295 13.1241 3.00008 14.5375C3.02508 18.125 6.01258 21 9.60008 21H19.5001C21.9718 20.9819 24.3391 20.0011 26.0994 18.2659C27.8598 16.5307 28.8745 14.1778 28.9282 11.7066C28.9818 9.2354 28.0703 6.84059 26.387 5.03059C24.7036 3.2206 22.3812 2.13794 19.9126 2.01249Z" fill="#344054"/>
</svg>
