<svg width="32" height="32" viewBox="0 0 32 32" fill="none" xmlns="http://www.w3.org/2000/svg">
<path d="M31.3126 15.1626C31.1797 14.9312 31.0017 14.729 30.7891 14.568C30.5765 14.4069 30.3337 14.2903 30.0751 14.2251C28.936 13.9381 27.7541 13.8619 26.5876 14.0001C26.8893 12.2944 26.7779 10.5413 26.2626 8.88755C26.1122 8.41715 25.792 8.0196 25.3645 7.77234C24.937 7.52508 24.4328 7.44584 23.9501 7.55005C22.7885 7.8073 21.6805 8.26407 20.6751 8.90005C19.8736 7.21176 18.6826 5.73798 17.2001 4.60005C16.8547 4.33847 16.4333 4.1969 16.0001 4.1969C15.5668 4.1969 15.1454 4.33847 14.8001 4.60005C13.3176 5.73798 12.1265 7.21176 11.3251 8.90005C10.3197 8.26407 9.21157 7.8073 8.05006 7.55005C7.56732 7.44584 7.06308 7.52508 6.63558 7.77234C6.20808 8.0196 5.88795 8.41715 5.73756 8.88755C5.22222 10.5413 5.11077 12.2944 5.41256 14.0001C4.24606 13.8619 3.06413 13.9381 1.92506 14.2251C1.66671 14.2901 1.42408 14.4065 1.2116 14.5672C0.999117 14.7279 0.821119 14.9298 0.688184 15.1606C0.555249 15.3915 0.470091 15.6468 0.437773 15.9112C0.405455 16.1757 0.426636 16.4439 0.500057 16.7001C0.937557 18.2751 2.28756 21.2876 6.38756 23.6501C10.4876 26.0126 14.0626 26.0001 15.9876 26.0001H16.0126C17.9376 26.0001 21.5376 26.0001 25.6126 23.6501C29.6876 21.3001 31.0626 18.2751 31.5001 16.7001C31.5726 16.4442 31.5934 16.1764 31.5612 15.9124C31.529 15.6484 31.4445 15.3935 31.3126 15.1626ZM16.0001 6.20005C17.2001 7.10005 20.0001 9.75005 20.0001 15.0001C20.0001 20.2501 17.2001 22.9001 16.0001 23.8001C14.8001 22.9001 12.0001 20.2501 12.0001 15.0001C12.0001 9.75005 14.8001 7.10005 16.0001 6.20005ZM2.41256 16.1626C3.18756 15.9626 4.40006 15.8126 5.96256 16.0876C6.27986 16.9961 6.68599 17.8712 7.17506 18.7001C8.24692 20.552 9.65424 22.1882 11.3251 23.5251C9.94437 23.172 8.61927 22.6294 7.38756 21.9126C3.91256 19.9001 2.78756 17.4376 2.41256 16.1626ZM24.6126 21.9126C23.3808 22.6294 22.0557 23.172 20.6751 23.5251C22.3459 22.1882 23.7532 20.552 24.8251 18.7001C25.3141 17.8712 25.7203 16.9961 26.0376 16.0876C27.2083 15.863 28.413 15.8843 29.5751 16.1501C29.2126 17.4376 28.0876 19.9001 24.6126 21.9126Z" fill="#344054"/>
</svg>
