<svg width="32" height="32" viewBox="0 0 32 32" fill="none" xmlns="http://www.w3.org/2000/svg">
<path d="M16 23.4875C15.6765 23.6959 15.3428 23.8878 15 24.0625V29C15 29.2653 15.1054 29.5196 15.2929 29.7072C15.4804 29.8947 15.7348 30 16 30C16.2652 30 16.5196 29.8947 16.7071 29.7072C16.8946 29.5196 17 29.2653 17 29V24.0625C16.6572 23.8878 16.3235 23.6959 16 23.4875Z" fill="#344054"/>
<path d="M24.7625 7.82504C24.0391 6.09784 22.8214 4.62296 21.2624 3.58568C19.7034 2.5484 17.8726 1.995 16 1.995C14.1275 1.995 12.2967 2.5484 10.7376 3.58568C9.17862 4.62296 7.96092 6.09784 7.23753 7.82504C5.68101 8.54634 4.36194 9.69576 3.43448 11.139C2.50703 12.5822 2.00949 14.2595 2.00003 15.975C1.98753 20.825 5.92503 24.875 10.7625 25C12.2304 25.0384 13.6853 24.7165 15 24.0625V19.6125L9.55003 16.9C9.31134 16.7807 9.12983 16.5714 9.04543 16.3182C9.00365 16.1929 8.98696 16.0605 8.99633 15.9287C9.0057 15.7969 9.04094 15.6682 9.10003 15.55C9.15912 15.4318 9.24092 15.3265 9.34075 15.2399C9.44057 15.1533 9.55647 15.0872 9.68183 15.0454C9.93501 14.9611 10.2113 14.9807 10.45 15.1L15 17.3875V11C15 10.7348 15.1054 10.4805 15.2929 10.2929C15.4805 10.1054 15.7348 10 16 10C16.2652 10 16.5196 10.1054 16.7071 10.2929C16.8947 10.4805 17 10.7348 17 11V14.3875L21.55 12.1C21.7887 11.9807 22.0651 11.9611 22.3182 12.0454C22.5714 12.1298 22.7807 12.3113 22.9 12.55C23.0194 12.7887 23.039 13.0651 22.9546 13.3182C22.8702 13.5714 22.6887 13.7807 22.45 13.9L17 16.6125V24.0625C18.2432 24.6793 19.6122 25.0001 21 25H21.2375C26.075 24.875 30.0125 20.825 30 15.975C29.9906 14.2595 29.493 12.5822 28.5656 11.139C27.6381 9.69576 26.319 8.54634 24.7625 7.82504Z" fill="#344054"/>
</svg>
