<svg width="32" height="32" viewBox="0 0 32 32" fill="none" xmlns="http://www.w3.org/2000/svg">
<path d="M28 4.93747C27.9826 4.69459 27.8782 4.46612 27.7061 4.29393C27.5339 4.12175 27.3054 4.01738 27.0625 3.99997C17.525 3.43747 9.88752 6.31247 6.62502 11.7C5.49579 13.5423 4.93894 15.6783 5.02502 17.8375C5.10002 19.825 5.67502 21.85 6.75002 23.8375L19.2875 11.2875C19.4818 11.128 19.7285 11.0465 19.9795 11.0588C20.2306 11.0712 20.4681 11.1764 20.6458 11.3542C20.8235 11.5319 20.9288 11.7694 20.9411 12.0205C20.9535 12.2715 20.872 12.5182 20.7125 12.7125L8.16252 25.25C10.15 26.325 12.175 26.9 14.1625 26.975H14.575C16.5949 26.9837 18.5773 26.4296 20.3 25.375C25.6875 22.1125 28.5625 14.475 28 4.93747Z" fill="#344054"/>
<path d="M7.13751 24.5125C7.00001 24.2875 6.87501 24.0625 6.75001 23.8375L4.28751 26.2875C4.09973 26.4771 3.99438 26.7332 3.99438 27C3.99438 27.2669 4.09973 27.5229 4.28751 27.7125C4.47865 27.8973 4.73413 28.0007 5.00001 28.0007C5.26589 28.0007 5.52137 27.8973 5.71251 27.7125L8.16251 25.25L7.48751 24.8625C7.34707 24.7723 7.2277 24.653 7.13751 24.5125Z" fill="#344054"/>
</svg>
