<svg width="32" height="32" viewBox="0 0 32 32" fill="none" xmlns="http://www.w3.org/2000/svg">
<path d="M31 20C31 21.5913 30.3679 23.1174 29.2426 24.2427C28.1174 25.3679 26.5913 26 25 26H19C16.8 26 15 24.15 15 21.8875C15 19.625 16.8 17.775 19 17.775L19.4125 17.8C19.9224 16.4968 20.8719 15.4127 22.0966 14.7355C23.3213 14.0583 24.7443 13.8305 26.1192 14.0916C27.4941 14.3526 28.7345 15.0861 29.6258 16.165C30.5171 17.244 31.0032 18.6005 31 20ZM14 9.00002C16.8636 8.99195 19.6157 10.1098 21.6625 12.1125C21.7569 12.2044 21.8685 12.2769 21.9908 12.3257C22.1132 12.3745 22.244 12.3987 22.3758 12.397C22.5075 12.3952 22.6376 12.3676 22.7587 12.3155C22.8797 12.2635 22.9893 12.1882 23.0812 12.0938C23.1732 11.9994 23.2456 11.8878 23.2944 11.7654C23.3432 11.6431 23.3674 11.5123 23.3657 11.3805C23.364 11.2488 23.3363 11.1187 23.2843 10.9976C23.2322 10.8766 23.1569 10.7669 23.0625 10.675C21.2299 8.89319 18.9128 7.69111 16.4007 7.21909C13.8887 6.74706 11.2932 7.02604 8.93889 8.02114C6.58453 9.01623 4.57577 10.6833 3.16375 12.8139C1.75172 14.9445 0.999109 17.444 1 20V22C1 22.2652 1.10536 22.5196 1.29289 22.7071C1.48043 22.8947 1.73478 23 2 23C2.26522 23 2.51957 22.8947 2.70711 22.7071C2.89464 22.5196 3 22.2652 3 22V20C3.00331 17.0837 4.1633 14.2877 6.22548 12.2255C8.28766 10.1633 11.0836 9.00333 14 9.00002ZM14 13C15.4876 12.999 16.9368 13.4718 18.1375 14.35C18.2412 14.4419 18.363 14.5113 18.4949 14.5536C18.6269 14.596 18.7662 14.6105 18.9041 14.5961C19.042 14.5818 19.1753 14.5389 19.2957 14.4703C19.4162 14.4017 19.521 14.3088 19.6036 14.1975C19.6862 14.0862 19.7448 13.9589 19.7756 13.8238C19.8064 13.6887 19.8088 13.5486 19.7826 13.4125C19.7564 13.2764 19.7022 13.1472 19.6234 13.0332C19.5446 12.9191 19.443 12.8227 19.325 12.75C17.7861 11.606 15.9176 10.9919 14 11C11.6141 11.0033 9.3268 11.9526 7.63969 13.6397C5.95258 15.3268 5.00331 17.6141 5 20V22C5 22.2652 5.10536 22.5196 5.29289 22.7071C5.48043 22.8947 5.73478 23 6 23C6.26522 23 6.51957 22.8947 6.70711 22.7071C6.89464 22.5196 7 22.2652 7 22V20C7 18.1435 7.7375 16.363 9.05025 15.0503C10.363 13.7375 12.1435 13 14 13ZM15.9 16.3375C15.9315 16.2103 15.9374 16.078 15.9173 15.9484C15.8972 15.8189 15.8515 15.6946 15.7828 15.5829C15.7142 15.4712 15.624 15.3743 15.5175 15.2978C15.411 15.2214 15.2903 15.1669 15.1625 15.1375C14.7813 15.0487 14.3914 15.0026 14 15C12.6739 15 11.4021 15.5268 10.4645 16.4645C9.52678 17.4022 9 18.6739 9 20V22C9 22.2652 9.10536 22.5196 9.29289 22.7071C9.48043 22.8947 9.73478 23 10 23C10.2652 23 10.5196 22.8947 10.7071 22.7071C10.8946 22.5196 11 22.2652 11 22V20C11.0033 19.2054 11.3204 18.4442 11.8823 17.8823C12.4442 17.3204 13.2054 17.0033 14 17C14.2354 16.9996 14.4701 17.0248 14.7 17.075C14.8273 17.1066 14.9595 17.1124 15.0891 17.0923C15.2186 17.0722 15.3429 17.0265 15.4546 16.9578C15.5663 16.8892 15.6632 16.799 15.7397 16.6925C15.8162 16.586 15.8707 16.4653 15.9 16.3375Z" fill="#344054"/>
</svg>
