<svg width="32" height="32" viewBox="0 0 32 32" fill="none" xmlns="http://www.w3.org/2000/svg">
<path d="M30 13.5C30 14.1922 29.7947 14.8689 29.4101 15.4445C29.0256 16.0201 28.4789 16.4687 27.8394 16.7336C27.1999 16.9985 26.4961 17.0678 25.8172 16.9327C25.1383 16.7977 24.5146 16.4644 24.0251 15.9749C23.5356 15.4854 23.2023 14.8618 23.0673 14.1828C22.9322 13.5039 23.0015 12.8002 23.2664 12.1606C23.5313 11.5211 23.9799 10.9744 24.5555 10.5899C25.1311 10.2053 25.8078 10 26.5 10C27.4272 10.0033 28.3156 10.3731 28.9712 11.0288C29.6269 11.6844 29.9967 12.5728 30 13.5ZM9 13.5C9 12.8078 8.79473 12.1311 8.41015 11.5555C8.02556 10.9799 7.47894 10.5313 6.83939 10.2664C6.19985 10.0015 5.49612 9.9322 4.81719 10.0673C4.13825 10.2023 3.51461 10.5356 3.02513 11.0251C2.53564 11.5146 2.2023 12.1383 2.06725 12.8172C1.9322 13.4961 2.00152 14.1999 2.26642 14.8394C2.53133 15.4789 2.97993 16.0256 3.55551 16.4101C4.13108 16.7947 4.80777 17 5.5 17C6.42725 16.9967 7.31557 16.6269 7.97124 15.9712C8.6269 15.3156 8.99671 14.4272 9 13.5ZM11.5 11C12.1922 11 12.8689 10.7947 13.4445 10.4101C14.0201 10.0256 14.4687 9.47893 14.7336 8.83939C14.9985 8.19985 15.0678 7.49612 14.9328 6.81719C14.7977 6.13825 14.4644 5.51461 13.9749 5.02513C13.4854 4.53564 12.8618 4.2023 12.1828 4.06725C11.5039 3.9322 10.8002 4.00152 10.1606 4.26642C9.52107 4.53133 8.97444 4.97993 8.58986 5.55551C8.20527 6.13108 8 6.80777 8 7.5C8.0033 8.42725 8.3731 9.31557 9.02877 9.97124C9.68443 10.6269 10.5728 10.9967 11.5 11ZM20.5 11C21.1922 11 21.8689 10.7947 22.4445 10.4101C23.0201 10.0256 23.4687 9.47893 23.7336 8.83939C23.9985 8.19985 24.0678 7.49612 23.9328 6.81719C23.7977 6.13825 23.4644 5.51461 22.9749 5.02513C22.4854 4.53564 21.8618 4.2023 21.1828 4.06725C20.5039 3.9322 19.8002 4.00152 19.1606 4.26642C18.5211 4.53133 17.9744 4.97993 17.5899 5.55551C17.2053 6.13108 17 6.80777 17 7.5C17.0033 8.42725 17.3731 9.31557 18.0288 9.97124C18.6844 10.6269 19.5728 10.9967 20.5 11ZM23.3875 18.6C22.8794 18.3207 22.4312 17.944 22.0688 17.4915C21.7063 17.0389 21.4366 16.5194 21.275 15.9625C20.9466 14.817 20.2542 13.8095 19.3026 13.0924C18.3509 12.3752 17.1916 11.9873 16 11.9873C14.8084 11.9873 13.6491 12.3752 12.6974 13.0924C11.7458 13.8095 11.0534 14.817 10.725 15.9625C10.3992 17.0837 9.64472 18.0313 8.625 18.6C7.6456 19.1286 6.87057 19.9689 6.42266 20.9878C5.97475 22.0066 5.87957 23.1458 6.15221 24.2248C6.42484 25.3039 7.04969 26.2611 7.92779 26.9449C8.80589 27.6287 9.88705 28 11 28C11.665 27.9993 12.3234 27.8677 12.9375 27.6125C14.8936 26.8021 17.0906 26.7977 19.05 27.6C19.6662 27.864 20.3296 28.0001 21 28C22.114 28.0028 23.1971 27.6335 24.0773 26.9507C24.9576 26.2679 25.5845 25.3106 25.8588 24.2309C26.133 23.1511 26.0388 22.0107 25.5911 20.9906C25.1434 19.9705 24.3679 19.1291 23.3875 18.6Z" fill="#344054"/>
</svg>
