<svg width="32" height="32" viewBox="0 0 32 32" fill="none" xmlns="http://www.w3.org/2000/svg">
<path d="M20.1126 25.55L16.8376 30.55C16.7447 30.6871 16.62 30.7996 16.4741 30.878C16.3283 30.9563 16.1656 30.9982 16.0001 31C15.8193 31.0004 15.6419 30.9518 15.4866 30.8595C15.3312 30.7671 15.2038 30.6344 15.1179 30.4754C15.032 30.3164 14.9908 30.1371 14.9987 29.9565C15.0065 29.776 15.0632 29.6009 15.1626 29.45L18.4501 24.45C18.5167 24.329 18.6077 24.2232 18.7173 24.1391C18.8269 24.055 18.9528 23.9946 19.0869 23.9616C19.221 23.9286 19.3605 23.9237 19.4966 23.9473C19.6327 23.9709 19.7625 24.0224 19.8777 24.0987C19.9929 24.1749 20.091 24.2741 20.166 24.3902C20.2409 24.5062 20.291 24.6365 20.313 24.7729C20.3351 24.9092 20.3287 25.0487 20.2942 25.1824C20.2597 25.3162 20.1978 25.4413 20.1126 25.55ZM19.9126 2.01249C17.922 1.9267 15.9547 2.46812 14.2883 3.56034C12.6219 4.65257 11.3406 6.24047 10.6251 8.09999C10.2118 9.17286 9.99988 10.3128 10.0001 11.4625C10.0016 11.7192 9.90784 11.9674 9.73698 12.159C9.56613 12.3507 9.33028 12.4722 9.07506 12.5C8.93757 12.5103 8.79942 12.4921 8.6693 12.4465C8.53918 12.4009 8.4199 12.3289 8.31895 12.235C8.218 12.1411 8.13755 12.0273 8.08267 11.9008C8.0278 11.7743 7.99967 11.6379 8.00006 11.5C7.99746 10.6122 8.09814 9.72705 8.30006 8.86249C8.32111 8.77722 8.31934 8.68791 8.29491 8.60354C8.27048 8.51918 8.22427 8.44274 8.16091 8.38191C8.09755 8.32109 8.01928 8.27803 7.93399 8.25706C7.8487 8.2361 7.75939 8.23797 7.67506 8.26249C6.32113 8.66066 5.13319 9.48786 4.29004 10.6196C3.4469 11.7513 2.99419 13.1262 3.00006 14.5375C3.02506 18.125 6.01256 21 9.60006 21H14.4251L11.5251 25.425C11.4201 25.5744 11.358 25.7497 11.3455 25.9319C11.3331 26.1141 11.3708 26.2962 11.4545 26.4585C11.5382 26.6208 11.6648 26.757 11.8204 26.8525C11.9761 26.9479 12.1549 26.999 12.3376 27C12.5035 27.0004 12.667 26.9594 12.8132 26.8809C12.9594 26.8023 13.0838 26.6886 13.1751 26.55L16.8251 21H19.5001C21.9718 20.9819 24.3391 20.0011 26.0994 18.2659C27.8597 16.5307 28.8745 14.1778 28.9281 11.7066C28.9818 9.2354 28.0702 6.84059 26.3869 5.03059C24.7036 3.2206 22.3811 2.13794 19.9126 2.01249Z" fill="#344054"/>
</svg>
