<svg width="32" height="32" viewBox="0 0 32 32" fill="none" xmlns="http://www.w3.org/2000/svg">
<path d="M27.4875 17.5001C27.4875 20.55 26.2759 23.4751 24.1193 25.6318C21.9626 27.7884 19.0375 29.0001 15.9875 29.0001C12.9376 29.0001 10.0125 27.7884 7.85582 25.6318C5.69915 23.4751 4.48755 20.55 4.48755 17.5001C4.48755 14.6126 5.72505 11.2876 8.16255 7.61255C8.30726 7.39458 8.53164 7.242 8.78755 7.18755C9.05155 7.13553 9.32542 7.18941 9.55005 7.33755L13.575 10.0251L17.4375 1.92505C17.5054 1.78195 17.6067 1.65728 17.7329 1.56156C17.8591 1.46584 18.0065 1.40187 18.1625 1.37505C18.3217 1.34672 18.4853 1.3569 18.6397 1.40474C18.7941 1.45258 18.9348 1.5367 19.05 1.65005C20.8875 3.48755 22.9875 5.72505 24.625 8.32505C26.55 11.3876 27.4875 14.3876 27.4875 17.5001Z" fill="#344054"/>
</svg>
