<svg width="32" height="32" viewBox="0 0 32 32" fill="none" xmlns="http://www.w3.org/2000/svg">
<path d="M21.0001 17.9125V6C21.0001 4.67392 20.4733 3.40215 19.5356 2.46447C18.5979 1.52678 17.3261 1 16.0001 1C14.674 1 13.4022 1.52678 12.4645 2.46447C11.5268 3.40215 11.0001 4.67392 11.0001 6V17.9125C10.2101 18.6126 9.57857 19.4731 9.14747 20.4366C8.71638 21.4001 8.49567 22.4445 8.50006 23.5C8.50006 25.4891 9.29024 27.3968 10.6968 28.8033C12.1033 30.2098 14.0109 31 16.0001 31C17.9892 31 19.8968 30.2098 21.3034 28.8033C22.7099 27.3968 23.5001 25.4891 23.5001 23.5C23.5045 22.4445 23.2837 21.4001 22.8527 20.4366C22.4216 19.4731 21.79 18.6126 21.0001 17.9125ZM16.0001 3C16.7947 3.00329 17.5559 3.32042 18.1177 3.88231C18.6796 4.44421 18.9968 5.20536 19.0001 6V10H13.0001V6C13.0034 5.20536 13.3205 4.44421 13.8824 3.88231C14.4443 3.32042 15.2054 3.00329 16.0001 3Z" fill="#344054"/>
</svg>
