<svg width="32" height="32" viewBox="0 0 32 32" fill="none" xmlns="http://www.w3.org/2000/svg">
<path d="M17.4999 6.5C17.4999 5.90666 17.6759 5.32664 18.0055 4.83329C18.3352 4.33994 18.8037 3.95543 19.3519 3.72836C19.9001 3.5013 20.5033 3.44189 21.0852 3.55765C21.6672 3.6734 22.2017 3.95912 22.6213 4.37868C23.0408 4.79824 23.3265 5.33279 23.4423 5.91473C23.5581 6.49667 23.4986 7.09987 23.2716 7.64805C23.0445 8.19623 22.66 8.66477 22.1667 8.99441C21.6733 9.32405 21.0933 9.5 20.4999 9.5C19.7053 9.49671 18.9442 9.17958 18.3823 8.61769C17.8204 8.05579 17.5032 7.29464 17.4999 6.5ZM31.8749 25.5C31.7854 25.6525 31.6576 25.7789 31.5041 25.8666C31.3506 25.9543 31.1768 26.0003 30.9999 26H0.999942C0.82449 26.002 0.651755 25.9566 0.499954 25.8686C0.348153 25.7806 0.222914 25.6532 0.137442 25.5C0.0460557 25.3469 -0.00219727 25.172 -0.00219727 24.9938C-0.00219727 24.8155 0.0460557 24.6406 0.137442 24.4875L9.27494 8.9625C9.4514 8.66175 9.70343 8.41236 10.006 8.23907C10.3086 8.06578 10.6512 7.97462 10.9999 7.97462C11.3486 7.97462 11.6913 8.06578 11.9939 8.23907C12.2965 8.41236 12.5485 8.66175 12.7249 8.9625L18.0124 17.95L21.2749 12.4375C21.4538 12.1398 21.7067 11.8935 22.009 11.7225C22.3113 11.5515 22.6526 11.4616 22.9999 11.4616C23.3472 11.4616 23.6886 11.5515 23.9909 11.7225C24.2932 11.8935 24.5461 12.1398 24.7249 12.4375L31.8624 24.4875C31.9508 24.6411 31.9984 24.8149 32.0006 24.9921C32.0028 25.1694 31.9595 25.3442 31.8749 25.5ZM8.03744 15H13.9624L10.9999 9.975L8.03744 15Z" fill="#344054"/>
</svg>
