<svg width="32" height="32" viewBox="0 0 32 32" fill="none" xmlns="http://www.w3.org/2000/svg">
<path d="M28.9 24.4375C28.8179 24.6062 28.6899 24.7485 28.5307 24.848C28.3716 24.9474 28.1876 25.0001 28 25H17V30C17 30.2652 16.8946 30.5195 16.7071 30.7071C16.5195 30.8946 16.2652 31 16 31C15.7347 31 15.4804 30.8946 15.2929 30.7071C15.1053 30.5195 15 30.2652 15 30V25H3.99996C3.81317 24.9994 3.63026 24.9466 3.47197 24.8474C3.31368 24.7482 3.18634 24.6067 3.10436 24.4388C3.02239 24.271 2.98907 24.0835 3.00817 23.8977C3.02728 23.7119 3.09805 23.5351 3.21246 23.3875L8.94996 16H5.99996C5.81317 15.9994 5.63026 15.9466 5.47197 15.8474C5.31368 15.7482 5.18634 15.6067 5.10436 15.4388C5.02239 15.271 4.98907 15.0835 5.00817 14.8977C5.02728 14.7119 5.09805 14.5351 5.21246 14.3875L15.2125 1.38747C15.306 1.26795 15.4255 1.17129 15.562 1.10481C15.6984 1.03833 15.8482 1.00378 16 1.00378C16.1517 1.00378 16.3015 1.03833 16.438 1.10481C16.5744 1.17129 16.6939 1.26795 16.7875 1.38747L26.7875 14.3875C26.9019 14.5351 26.9726 14.7119 26.9918 14.8977C27.0109 15.0835 26.9775 15.271 26.8956 15.4388C26.8136 15.6067 26.6862 15.7482 26.528 15.8474C26.3697 15.9466 26.1868 15.9994 26 16H23.05L28.7875 23.3875C28.9023 23.5346 28.9737 23.7108 28.9936 23.8964C29.0135 24.082 28.9811 24.2694 28.9 24.4375Z" fill="#344054"/>
</svg>
