<svg width="32" height="32" viewBox="0 0 32 32" fill="none" xmlns="http://www.w3.org/2000/svg">
<path d="M20.0125 5C17.9673 4.99997 15.9626 5.56946 14.2228 6.64465C12.4831 7.71984 11.0771 9.25825 10.1625 11.0875C9.39899 12.5992 9.00082 14.2689 9 15.9625C9.00437 16.22 8.91162 16.4697 8.74022 16.662C8.56882 16.8542 8.33133 16.9749 8.075 17C7.93751 17.0103 7.79937 16.9921 7.66925 16.9465C7.53913 16.9009 7.41985 16.8289 7.31889 16.735C7.21794 16.6411 7.1375 16.5273 7.08262 16.4008C7.02774 16.2743 6.99961 16.1379 7 16C7.00051 14.6026 7.22415 13.2143 7.6625 11.8875C7.69175 11.8029 7.69776 11.712 7.67988 11.6243C7.66201 11.5366 7.62091 11.4552 7.56089 11.3888C7.50086 11.3224 7.42411 11.2733 7.33864 11.2467C7.25317 11.2201 7.16212 11.2169 7.075 11.2375C5.34109 11.6674 3.80093 12.6652 2.69996 14.072C1.59899 15.4788 1.00055 17.2136 1 19C1 23.4 4.725 27 9.1125 27H20C22.9174 27.0017 25.7159 25.8443 27.78 23.7826C29.8441 21.7209 31.0046 18.9236 31.0063 16.0063C31.0079 13.0889 29.8506 10.2903 27.7888 8.22624C25.7271 6.16217 22.9299 5.00166 20.0125 5Z" fill="#344054"/>
</svg>
