<svg width="32" height="32" viewBox="0 0 32 32" fill="none" xmlns="http://www.w3.org/2000/svg">
<path d="M26.5001 6.5C25.8078 6.5 25.1311 6.70527 24.5556 7.08986C23.98 7.47444 23.5314 8.02107 23.2665 8.66061C23.0016 9.30015 22.9323 10.0039 23.0673 10.6828C23.2024 11.3617 23.5357 11.9854 24.0252 12.4749C24.5147 12.9644 25.1383 13.2977 25.8172 13.4327C26.4962 13.5678 27.1999 13.4985 27.8395 13.2336C28.479 12.9687 29.0256 12.5201 29.4102 11.9445C29.7948 11.3689 30.0001 10.6922 30.0001 10C29.9968 9.07276 29.627 8.18443 28.9713 7.52877C28.3156 6.8731 27.4273 6.50329 26.5001 6.5ZM26.5001 11.5C26.2034 11.5 25.9134 11.412 25.6667 11.2472C25.42 11.0824 25.2278 10.8481 25.1142 10.574C25.0007 10.2999 24.971 9.99834 25.0289 9.70736C25.0868 9.41639 25.2296 9.14912 25.4394 8.93934C25.6492 8.72956 25.9165 8.5867 26.2074 8.52882C26.4984 8.47094 26.8 8.50065 27.0741 8.61418C27.3482 8.72771 27.5824 8.91997 27.7473 9.16665C27.9121 9.41332 28.0001 9.70333 28.0001 10C28.0001 10.3978 27.842 10.7794 27.5607 11.0607C27.2794 11.342 26.8979 11.5 26.5001 11.5ZM20.0001 17.9125V6C20.0001 4.67392 19.4733 3.40215 18.5356 2.46447C17.5979 1.52678 16.3261 1 15.0001 1C13.674 1 12.4022 1.52678 11.4645 2.46447C10.5268 3.40215 10.0001 4.67392 10.0001 6V17.9125C9.21014 18.6126 8.57857 19.4731 8.14747 20.4366C7.71638 21.4001 7.49567 22.4445 7.50006 23.5C7.50006 25.4891 8.29024 27.3968 9.69676 28.8033C11.1033 30.2098 13.0109 31 15.0001 31C16.9892 31 18.8968 30.2098 20.3034 28.8033C21.7099 27.3968 22.5001 25.4891 22.5001 23.5C22.5045 22.4445 22.2837 21.4001 21.8527 20.4366C21.4216 19.4731 20.79 18.6126 20.0001 17.9125ZM15.0001 3C15.7947 3.00329 16.5559 3.32042 17.1177 3.88231C17.6796 4.44421 17.9968 5.20536 18.0001 6V10H12.0001V6C12.0034 5.20536 12.3205 4.44421 12.8824 3.88231C13.4443 3.32042 14.2054 3.00329 15.0001 3Z" fill="#344054"/>
</svg>
