<svg width="32" height="32" viewBox="0 0 32 32" fill="none" xmlns="http://www.w3.org/2000/svg">
<path d="M21.725 6.43753C20.1696 4.79675 18.419 3.35267 16.5125 2.13753C16.3575 2.04505 16.1805 1.99622 16 1.99622C15.8195 1.99622 15.6425 2.04505 15.4875 2.13753C13.581 3.35267 11.8304 4.79675 10.275 6.43753C6.825 10.0625 5 14.0625 5 18C5 20.9174 6.15893 23.7153 8.22183 25.7782C10.2847 27.8411 13.0826 29 16 29C18.9174 29 21.7153 27.8411 23.7782 25.7782C25.8411 23.7153 27 20.9174 27 18C27 14.0625 25.175 10.0625 21.725 6.43753ZM12 23C12 19.5375 14.8125 17.0875 16 16.2125C17.1875 17.0875 20 19.5375 20 23C20 24.0609 19.5786 25.0783 18.8284 25.8285C18.0783 26.5786 17.0609 27 16 27C14.9391 27 13.9217 26.5786 13.1716 25.8285C12.4214 25.0783 12 24.0609 12 23Z" fill="#344054"/>
</svg>
