<svg width="32" height="32" viewBox="0 0 32 32" fill="none" xmlns="http://www.w3.org/2000/svg">
<path d="M22.0001 24.5C22.0001 24.7967 21.9121 25.0867 21.7473 25.3333C21.5824 25.58 21.3482 25.7723 21.0741 25.8858C20.8 25.9993 20.4984 26.029 20.2074 25.9712C19.9165 25.9133 19.6492 25.7704 19.4394 25.5606C19.2296 25.3509 19.0868 25.0836 19.0289 24.7926C18.971 24.5016 19.0007 24.2001 19.1142 23.926C19.2278 23.6519 19.42 23.4176 19.6667 23.2528C19.9134 23.088 20.2034 23 20.5001 23C20.8979 23 21.2794 23.158 21.5607 23.4393C21.842 23.7206 22.0001 24.1022 22.0001 24.5ZM9.50006 23C9.20338 23 8.91337 23.088 8.6667 23.2528C8.42003 23.4176 8.22777 23.6519 8.11424 23.926C8.00071 24.2001 7.971 24.5016 8.02888 24.7926C8.08676 25.0836 8.22962 25.3509 8.4394 25.5606C8.64917 25.7704 8.91645 25.9133 9.20742 25.9712C9.49839 26.029 9.79999 25.9993 10.0741 25.8858C10.3482 25.7723 10.5824 25.58 10.7473 25.3333C10.9121 25.0867 11.0001 24.7967 11.0001 24.5C11.0001 24.1022 10.842 23.7206 10.5607 23.4393C10.2794 23.158 9.89788 23 9.50006 23ZM14.5001 25C14.2034 25 13.9134 25.088 13.6667 25.2528C13.42 25.4176 13.2278 25.6519 13.1142 25.926C13.0007 26.2001 12.971 26.5016 13.0289 26.7926C13.0868 27.0836 13.2296 27.3509 13.4394 27.5606C13.6492 27.7704 13.9164 27.9133 14.2074 27.9712C14.4984 28.029 14.8 27.9993 15.0741 27.8858C15.3482 27.7723 15.5824 27.58 15.7473 27.3333C15.9121 27.0867 16.0001 26.7967 16.0001 26.5C16.0001 26.1022 15.842 25.7206 15.5607 25.4393C15.2794 25.158 14.8979 25 14.5001 25ZM8.50006 28C8.20338 28 7.91337 28.088 7.6667 28.2528C7.42003 28.4176 7.22777 28.6519 7.11424 28.926C7.00071 29.2001 6.971 29.5016 7.02888 29.7926C7.08676 30.0836 7.22962 30.3509 7.4394 30.5606C7.64917 30.7704 7.91645 30.9133 8.20742 30.9712C8.49839 31.029 8.79999 30.9993 9.07408 30.8858C9.34817 30.7723 9.58244 30.58 9.74726 30.3333C9.91208 30.0867 10.0001 29.7967 10.0001 29.5C10.0001 29.1022 9.84202 28.7206 9.56072 28.4393C9.27941 28.158 8.89788 28 8.50006 28ZM19.5001 28C19.2034 28 18.9134 28.088 18.6667 28.2528C18.42 28.4176 18.2278 28.6519 18.1142 28.926C18.0007 29.2001 17.971 29.5016 18.0289 29.7926C18.0868 30.0836 18.2296 30.3509 18.4394 30.5606C18.6492 30.7704 18.9165 30.9133 19.2074 30.9712C19.4984 31.029 19.8 30.9993 20.0741 30.8858C20.3482 30.7723 20.5824 30.58 20.7473 30.3333C20.9121 30.0867 21.0001 29.7967 21.0001 29.5C21.0001 29.1022 20.842 28.7206 20.5607 28.4393C20.2794 28.158 19.8979 28 19.5001 28ZM19.9126 2.01249C17.922 1.9267 15.9547 2.46812 14.2883 3.56034C12.6219 4.65257 11.3406 6.24047 10.6251 8.09999C10.2118 9.17286 9.99988 10.3128 10.0001 11.4625C10.0016 11.7192 9.90784 11.9674 9.73698 12.159C9.56613 12.3507 9.33028 12.4722 9.07506 12.5C8.93757 12.5103 8.79942 12.4921 8.6693 12.4465C8.53918 12.4009 8.4199 12.3289 8.31895 12.235C8.218 12.1411 8.13755 12.0273 8.08267 11.9008C8.0278 11.7743 7.99967 11.6379 8.00006 11.5C7.99746 10.6122 8.09814 9.72705 8.30006 8.86249C8.32111 8.77722 8.31934 8.68791 8.29491 8.60354C8.27048 8.51918 8.22427 8.44274 8.16091 8.38191C8.09755 8.32109 8.01928 8.27803 7.93399 8.25706C7.8487 8.2361 7.75939 8.23797 7.67506 8.26249C6.32113 8.66066 5.13319 9.48786 4.29004 10.6196C3.4469 11.7513 2.99419 13.1262 3.00006 14.5375C3.02506 18.125 6.01256 21 9.60006 21H19.5001C21.9718 20.9819 24.3391 20.0011 26.0994 18.2659C27.8597 16.5307 28.8745 14.1778 28.9281 11.7066C28.9818 9.2354 28.0702 6.84059 26.3869 5.03059C24.7036 3.2206 22.3811 2.13794 19.9126 2.01249Z" fill="#344054"/>
</svg>
