<svg width="32" height="32" viewBox="0 0 32 32" fill="none" xmlns="http://www.w3.org/2000/svg">
<path d="M20.9999 9.49997C20.9999 9.79664 20.9119 10.0866 20.7471 10.3333C20.5823 10.58 20.348 10.7723 20.0739 10.8858C19.7998 10.9993 19.4982 11.029 19.2072 10.9711C18.9163 10.9133 18.649 10.7704 18.4392 10.5606C18.2294 10.3508 18.0866 10.0836 18.0287 9.7926C17.9708 9.50163 18.0005 9.20003 18.1141 8.92594C18.2276 8.65185 18.4199 8.41758 18.6665 8.25276C18.9132 8.08794 19.2032 7.99997 19.4999 7.99997C19.8977 7.99997 20.2792 8.158 20.5605 8.43931C20.8418 8.72061 20.9999 9.10214 20.9999 9.49997ZM25.7124 19.9375C23.1624 23.175 19.0624 24.95 13.5249 25.2L10.9249 31.3875C10.847 31.5685 10.718 31.7229 10.5537 31.8317C10.3894 31.9405 10.1969 31.999 9.99988 32H9.93738C9.73023 31.989 9.5318 31.913 9.37025 31.7829C9.2087 31.6527 9.09224 31.475 9.03738 31.275L7.18738 24.8125L0.724884 22.9625C0.524408 22.9065 0.346401 22.7893 0.215683 22.6273C0.0849658 22.4653 0.00805281 22.2666 -0.00433146 22.0588C-0.0167157 21.851 0.036046 21.6446 0.146597 21.4682C0.257148 21.2918 0.419978 21.1544 0.612384 21.075L6.79988 18.475C7.04988 12.9375 8.81238 8.83747 12.0624 6.28747C17.1999 2.23747 24.4874 3.41247 26.5999 3.87497C26.9739 3.95543 27.3167 4.14212 27.5872 4.41263C27.8577 4.68314 28.0444 5.02597 28.1249 5.39997C28.5874 7.51247 29.7624 14.8 25.7124 19.9375ZM26.1749 5.82497C24.2749 5.42497 17.7499 4.34997 13.2999 7.86247C12.8281 8.22796 12.3927 8.6382 11.9999 9.08747C12.026 10.3973 12.5639 11.6448 13.4984 12.563C14.433 13.4812 15.6898 13.997 16.9999 14C17.2651 14 17.5195 14.1053 17.707 14.2929C17.8945 14.4804 17.9999 14.7347 17.9999 15C18.0029 16.3101 18.5187 17.5669 19.4368 18.5014C20.355 19.4359 21.6026 19.9738 22.9124 20C23.3587 19.604 23.7686 19.169 24.1374 18.7C27.6499 14.25 26.5749 7.72497 26.1749 5.82497Z" fill="#344054"/>
</svg>
