<svg width="32" height="32" viewBox="0 0 32 32" fill="none" xmlns="http://www.w3.org/2000/svg">
<path d="M29.425 17.35C29.2396 17.5538 29.0139 17.7168 28.7621 17.8287C28.5103 17.9406 28.238 17.9989 27.9625 18H17V25C17 25.5304 17.2107 26.0391 17.5858 26.4142C17.9609 26.7892 18.4696 27 19 27C19.5305 27 20.0392 26.7892 20.4142 26.4142C20.7893 26.0391 21 25.5304 21 25C21 24.7347 21.1054 24.4804 21.2929 24.2929C21.4805 24.1053 21.7348 24 22 24C22.2652 24 22.5196 24.1053 22.7071 24.2929C22.8947 24.4804 23 24.7347 23 25C23 26.0608 22.5786 27.0782 21.8285 27.8284C21.0783 28.5785 20.0609 29 19 29C17.9392 29 16.9218 28.5785 16.1716 27.8284C15.4215 27.0782 15 26.0608 15 25V18H4.03753C3.76202 17.9989 3.48973 17.9406 3.23796 17.8287C2.98619 17.7168 2.76044 17.5538 2.57503 17.35C2.38448 17.1475 2.23914 16.9068 2.14863 16.6439C2.05812 16.381 2.02451 16.1018 2.05003 15.825C2.26696 13.2109 3.21455 10.7105 4.78461 8.60931C6.35467 6.50807 8.48393 4.89065 10.9293 3.9417C13.3746 2.99276 16.0376 2.75053 18.614 3.24267C21.1905 3.73482 23.5766 4.9415 25.5 6.72496C28.0782 9.08832 29.6678 12.3389 29.95 15.825C29.9755 16.1018 29.9419 16.381 29.8514 16.6439C29.7609 16.9068 29.6156 17.1475 29.425 17.35Z" fill="#344054"/>
</svg>
