<svg width="32" height="32" viewBox="0 0 32 32" fill="none" xmlns="http://www.w3.org/2000/svg">
<path d="M17 10.9375V7C17 6.73478 16.8946 6.48043 16.7071 6.29289C16.5196 6.10536 16.2652 6 16 6C15.7348 6 15.4804 6.10536 15.2929 6.29289C15.1054 6.48043 15 6.73478 15 7V10.9375C15.3731 11.4405 15.7074 11.9712 16 12.525C16.2926 11.9712 16.6269 11.4405 17 10.9375Z" fill="#344054"/>
<path d="M28.9249 6.3C28.4624 5.7 27.5874 5 25.9999 5C23.9124 5 21.2374 6.4125 18.8499 8.7875C18.1777 9.45446 17.5592 10.1734 16.9999 10.9375V21.5C16.9999 21.7652 16.8946 22.0196 16.707 22.2071C16.5195 22.3946 16.2651 22.5 15.9999 22.5C15.7347 22.5 15.4804 22.3946 15.2928 22.2071C15.1053 22.0196 14.9999 21.7652 14.9999 21.5V10.9375C14.4407 10.1734 13.8221 9.45446 13.1499 8.7875C10.7624 6.4125 8.08743 5 5.99993 5C4.41243 5 3.53743 5.7 3.07493 6.3C2.22493 7.3875 1.54993 9.3125 3.02493 15.2375C3.84993 18.525 5.77493 19.6 7.21243 19.925C6.86349 20.5042 6.63567 21.1483 6.54276 21.8181C6.44984 22.4879 6.49377 23.1696 6.67188 23.822C6.84999 24.4743 7.15858 25.0838 7.57898 25.6135C7.99939 26.1431 8.52286 26.582 9.11775 26.9036C9.71264 27.2252 10.3666 27.4227 11.04 27.4843C11.7134 27.5459 12.3923 27.4702 13.0357 27.2619C13.679 27.0535 14.2734 26.7169 14.7829 26.2722C15.2924 25.8276 15.7065 25.2842 15.9999 24.675C16.2934 25.2842 16.7074 25.8276 17.2169 26.2722C17.7264 26.7169 18.3208 27.0535 18.9642 27.2619C19.6075 27.4702 20.2864 27.5459 20.9599 27.4843C21.6333 27.4227 22.2872 27.2252 22.8821 26.9036C23.477 26.582 24.0005 26.1431 24.4209 25.6135C24.8413 25.0838 25.1499 24.4743 25.328 23.822C25.5061 23.1696 25.55 22.4879 25.4571 21.8181C25.3642 21.1483 25.1364 20.5042 24.7874 19.925C26.2249 19.6 28.1499 18.525 28.9749 15.2375C29.7999 11.95 30.4499 8.25 28.9249 6.3Z" fill="#344054"/>
</svg>
