<svg width="32" height="32" viewBox="0 0 32 32" fill="none" xmlns="http://www.w3.org/2000/svg">
<path d="M29.55 9.16251L26.65 7.23751C26.1094 5.53065 24.9761 4.07347 23.4548 3.12936C21.9336 2.18526 20.1247 1.81651 18.3553 2.08978C16.5859 2.36305 14.9725 3.2603 13.807 4.61935C12.6414 5.9784 12.0005 7.70959 12 9.50001V11.65L0.225004 26.375C0.107548 26.5217 0.0338051 26.6985 0.0122288 26.8852C-0.00934757 27.0719 0.0221158 27.2609 0.103012 27.4305C0.183908 27.6001 0.310963 27.7435 0.469612 27.8442C0.628261 27.945 0.812082 27.999 1 28H14C17.4458 27.9934 20.7486 26.6216 23.1851 24.1851C25.6216 21.7486 26.9934 18.4458 27 15V12.5375L29.55 10.8375C29.6893 10.7466 29.8037 10.6225 29.8829 10.4762C29.9621 10.33 30.0036 10.1663 30.0036 10C30.0036 9.83371 29.9621 9.67003 29.8829 9.5238C29.8037 9.37756 29.6893 9.25339 29.55 9.16251ZM13.7625 17.6375L8.7625 23.6375C8.58477 23.8077 8.35051 23.9064 8.10455 23.9147C7.85859 23.923 7.6182 23.8404 7.42939 23.6825C7.24059 23.5247 7.11662 23.3027 7.08122 23.0592C7.04581 22.8156 7.10146 22.5676 7.2375 22.3625L12.2375 16.3625C12.3152 16.2453 12.4168 16.1458 12.5356 16.0706C12.6544 15.9953 12.7878 15.946 12.927 15.9257C13.0661 15.9055 13.208 15.9148 13.3433 15.9532C13.4786 15.9915 13.6043 16.0579 13.7122 16.1481C13.8201 16.2383 13.9078 16.3503 13.9695 16.4767C14.0312 16.6031 14.0655 16.741 14.0702 16.8816C14.075 17.0221 14.05 17.1621 13.997 17.2924C13.944 17.4226 13.8641 17.5402 13.7625 17.6375ZM20.5 10C20.2033 10 19.9133 9.91204 19.6666 9.74722C19.42 9.58239 19.2277 9.34813 19.1142 9.07404C19.0007 8.79995 18.9709 8.49835 19.0288 8.20738C19.0867 7.9164 19.2296 7.64913 19.4393 7.43935C19.6491 7.22957 19.9164 7.08671 20.2074 7.02883C20.4983 6.97096 20.7999 7.00066 21.074 7.11419C21.3481 7.22772 21.5824 7.41998 21.7472 7.66666C21.912 7.91333 22 8.20334 22 8.50001C22 8.89784 21.842 9.27937 21.5607 9.56067C21.2794 9.84198 20.8978 10 20.5 10Z" fill="#344054"/>
</svg>
