<svg width="32" height="32" viewBox="0 0 32 32" fill="none" xmlns="http://www.w3.org/2000/svg">
<path d="M16.8251 21L14.8501 24H19.2501C19.3961 23.9963 19.5411 24.0245 19.675 24.0828C19.8089 24.1411 19.9284 24.2281 20.0251 24.3375C20.1748 24.4998 20.265 24.7082 20.2809 24.9284C20.2968 25.1487 20.2375 25.3679 20.1126 25.55L16.8376 30.55C16.7447 30.6871 16.62 30.7996 16.4742 30.878C16.3283 30.9563 16.1656 30.9982 16.0001 31C15.7686 30.9973 15.5445 30.9182 15.3626 30.775C15.1736 30.6105 15.0505 30.3832 15.0161 30.1351C14.9816 29.887 15.0381 29.6347 15.1751 29.425L17.4251 26H13.0251C12.8795 26.0013 12.7352 25.9719 12.6017 25.9138C12.4681 25.8556 12.3483 25.77 12.2501 25.6625C12.1062 25.4971 12.0199 25.2895 12.0041 25.0708C11.9883 24.8522 12.0439 24.6343 12.1626 24.45L14.4251 21H9.60008C6.01258 21 3.02508 18.125 3.00008 14.5375C2.99295 13.1242 3.44669 11.747 4.29254 10.6147C5.13839 9.48236 6.33027 8.6566 7.68758 8.2625C7.77069 8.23892 7.85849 8.23728 7.94243 8.25773C8.02636 8.27819 8.10356 8.32004 8.16651 8.37921C8.22945 8.43837 8.276 8.51284 8.3016 8.59535C8.3272 8.67786 8.33098 8.7656 8.31258 8.85C8.1072 9.70996 8.00233 10.5909 8.00008 11.475C8.00198 11.7315 8.09885 11.9783 8.27198 12.1676C8.44512 12.3568 8.68224 12.4753 8.93758 12.5C9.07407 12.5086 9.21085 12.489 9.33949 12.4426C9.46812 12.3962 9.58587 12.3239 9.68545 12.2302C9.78503 12.1364 9.86433 12.0233 9.91845 11.8977C9.97257 11.7721 10.0004 11.6368 10.0001 11.5C9.99985 10.3381 10.2117 9.18588 10.6251 8.1C11.2446 6.48374 12.2939 5.06744 13.6596 4.00407C15.0254 2.94071 16.6558 2.2707 18.3746 2.0664C20.0934 1.86211 21.8354 2.1313 23.4123 2.8449C24.9893 3.5585 26.3414 4.68938 27.3224 6.11541C28.3035 7.54143 28.8764 9.2084 28.9791 10.9363C29.0818 12.6641 28.7105 14.3872 27.9053 15.9194C27.1 17.4517 25.8915 18.7348 24.4101 19.6302C22.9288 20.5256 21.231 20.9992 19.5001 21H16.8251Z" fill="#344054"/>
</svg>
