<svg width="32" height="32" viewBox="0 0 32 32" fill="none" xmlns="http://www.w3.org/2000/svg">
<path d="M30.6126 9.7125L28.1126 10.525L29.6626 12.65C29.7401 12.7566 29.7957 12.8774 29.8264 13.0056C29.857 13.1337 29.862 13.2667 29.8411 13.3968C29.8202 13.5269 29.7738 13.6516 29.7045 13.7637C29.6353 13.8758 29.5445 13.9731 29.4376 14.05C29.2212 14.2033 28.9534 14.2656 28.6916 14.2235C28.4298 14.1814 28.195 14.0383 28.0376 13.825L26.5001 11.7L24.9626 13.825C24.8051 14.0383 24.5703 14.1814 24.3085 14.2235C24.0467 14.2656 23.7789 14.2033 23.5626 14.05C23.4556 13.9731 23.3649 13.8758 23.2956 13.7637C23.2263 13.6516 23.1799 13.5269 23.159 13.3968C23.1381 13.2667 23.1431 13.1337 23.1738 13.0056C23.2044 12.8774 23.2601 12.7566 23.3376 12.65L24.8876 10.525L22.3876 9.7125C22.2618 9.67292 22.1453 9.60857 22.0448 9.52324C21.9444 9.43792 21.862 9.33334 21.8026 9.21568C21.7432 9.09802 21.7079 8.96965 21.6989 8.83815C21.6899 8.70665 21.7073 8.57467 21.7501 8.45C21.7883 8.32474 21.8513 8.20845 21.9354 8.10808C22.0196 8.00772 22.123 7.92532 22.2397 7.86583C22.3564 7.80633 22.4838 7.77094 22.6145 7.76178C22.7451 7.75262 22.8762 7.76987 23.0001 7.8125L25.5001 8.625V6C25.5001 5.73478 25.6054 5.48043 25.793 5.29289C25.9805 5.10536 26.2348 5 26.5001 5C26.7653 5 27.0196 5.10536 27.2072 5.29289C27.3947 5.48043 27.5001 5.73478 27.5001 6V8.625L30.0001 7.8125C30.1239 7.76987 30.255 7.75262 30.3857 7.76178C30.5163 7.77094 30.6438 7.80633 30.7604 7.86583C30.8771 7.92532 30.9806 8.00772 31.0647 8.10808C31.1488 8.20845 31.2119 8.32474 31.2501 8.45C31.2929 8.57467 31.3103 8.70665 31.3012 8.83815C31.2922 8.96965 31.257 9.09802 31.1975 9.21568C31.1381 9.33334 31.0558 9.43792 30.9553 9.52324C30.8548 9.60857 30.7383 9.67292 30.6126 9.7125ZM22.5001 23.5C22.5001 25.4891 21.7099 27.3968 20.3034 28.8033C18.8968 30.2098 16.9892 31 15.0001 31C13.0109 31 11.1033 30.2098 9.69676 28.8033C8.29024 27.3968 7.50006 25.4891 7.50006 23.5C7.49567 22.4445 7.71638 21.4001 8.14747 20.4366C8.57857 19.4731 9.21014 18.6126 10.0001 17.9125V6C10.0001 4.67392 10.5268 3.40215 11.4645 2.46447C12.4022 1.52678 13.674 1 15.0001 1C16.3261 1 17.5979 1.52678 18.5356 2.46447C19.4733 3.40215 20.0001 4.67392 20.0001 6V17.9125C20.79 18.6126 21.4216 19.4731 21.8527 20.4366C22.2837 21.4001 22.5045 22.4445 22.5001 23.5ZM12.0001 6V13H18.0001V6C18.0001 5.20435 17.684 4.44129 17.1214 3.87868C16.5588 3.31607 15.7957 3 15.0001 3C14.2044 3 13.4414 3.31607 12.8787 3.87868C12.3161 4.44129 12.0001 5.20435 12.0001 6Z" fill="#344054"/>
</svg>
