<svg width="32" height="32" viewBox="0 0 32 32" fill="none" xmlns="http://www.w3.org/2000/svg">
<path d="M27.9126 14.5C27.9674 14.9981 27.9966 15.4988 28.0001 16C28.0001 18.2338 27.3766 20.4234 26.1997 22.3221C25.0229 24.2209 23.3393 25.7534 21.3387 26.7472C19.3381 27.741 17.0998 28.1567 14.8757 27.9474C12.6516 27.7381 10.5302 26.9121 8.75008 25.5625C11.8251 24.7875 15.4376 23.25 19.0001 21.2C22.5626 19.15 25.7001 16.775 27.9126 14.5ZM30.7251 7.49997C30.0376 6.31247 28.1876 5.19997 23.2501 6.43747C21.47 5.08783 19.3485 4.26187 17.1245 4.05255C14.9004 3.84324 12.6621 4.25889 10.6615 5.25271C8.66082 6.24654 6.97731 7.77907 5.80043 9.67781C4.62356 11.5765 4.00004 13.7661 4.00008 16C4.00359 16.5011 4.0328 17.0018 4.08758 17.5C0.550082 21.15 0.600082 23.3125 1.27508 24.5C1.73758 25.3 2.76258 26.1 5.00008 26.1C6.07372 26.0795 7.14218 25.9454 8.18758 25.7L8.75008 25.5625C8.10824 25.0644 7.51402 24.5079 6.97508 23.9C4.63758 24.3125 3.31258 24.025 3.01258 23.5C2.82508 23.175 2.92508 22.5625 3.30008 21.825C3.67259 21.1276 4.12116 20.4736 4.63758 19.875C5.14421 21.3574 5.93857 22.7252 6.97508 23.9L7.75008 23.7375C10.7501 23.075 14.3876 21.55 18.0001 19.4625C21.6126 17.375 24.7501 14.9875 26.8251 12.725C27.0145 12.5344 27.1939 12.3341 27.3626 12.125C26.856 10.6425 26.0616 9.27469 25.0251 8.09997C25.8071 7.94746 26.6039 7.88455 27.4001 7.91247C28.2251 7.96247 28.8001 8.17497 28.9876 8.49997C29.2876 9.02497 28.8751 10.3125 27.3626 12.125C27.6176 12.8983 27.8017 13.6932 27.9126 14.5L28.3001 14.0875C31.4626 10.65 31.3626 8.61247 30.7251 7.49997Z" fill="#344054"/>
</svg>
