<svg width="32" height="32" viewBox="0 0 32 32" fill="none" xmlns="http://www.w3.org/2000/svg">
<path d="M28.0374 18.7874C27.973 18.5797 27.8434 18.3983 27.6678 18.2699C27.4922 18.1416 27.2799 18.0732 27.0624 18.0749L26.7874 18.1249C24.997 18.6191 23.1075 18.6295 21.3118 18.1551C19.516 17.6807 17.8782 16.7384 16.5655 15.4244C15.2528 14.1105 14.3121 12.4718 13.8394 10.6755C13.3668 8.87934 13.379 6.98988 13.8749 5.19994C13.8994 5.12744 13.9121 5.05147 13.9124 4.97494C13.9243 4.81363 13.8964 4.65186 13.8311 4.50387C13.7658 4.35587 13.6652 4.22618 13.538 4.12619C13.4109 4.0262 13.2611 3.95897 13.1019 3.93042C12.9427 3.90187 12.7789 3.91287 12.6249 3.96244C10.5234 4.55147 8.61278 5.68045 7.08304 7.23708C5.5533 8.79371 4.45778 10.7237 3.90545 12.8352C3.35312 14.9466 3.36324 17.1658 3.93479 19.2721C4.50635 21.3784 5.61942 23.2984 7.16329 24.841C8.70715 26.3836 10.628 27.4951 12.7348 28.065C14.8415 28.6348 17.0608 28.6431 19.1718 28.0891C21.2828 27.5351 23.2119 26.438 24.7673 24.907C26.3227 23.376 27.4501 21.4644 28.0374 19.3624C28.1003 19.1759 28.1003 18.974 28.0374 18.7874Z" fill="#344054"/>
</svg>
