<svg width="32" height="32" viewBox="0 0 32 32" fill="none" xmlns="http://www.w3.org/2000/svg">
<path d="M9.7125 5.44995C9.61309 5.20281 9.61508 4.92646 9.71803 4.68077C9.82098 4.43509 10.0166 4.23988 10.2625 4.13745C10.3838 4.08673 10.514 4.06076 10.6455 4.06104C10.777 4.06132 10.9071 4.08785 11.0282 4.13908C11.1492 4.19031 11.2589 4.2652 11.3506 4.35937C11.4424 4.45353 11.5144 4.56507 11.5625 4.68745L12.525 6.98745C12.6252 7.23302 12.625 7.5081 12.5245 7.75353C12.4239 7.99897 12.2311 8.19516 11.9875 8.29995C11.8642 8.34893 11.7327 8.37437 11.6 8.37495C11.4033 8.37238 11.2115 8.31326 11.0475 8.20466C10.8835 8.09605 10.7542 7.94254 10.675 7.76245L9.7125 5.44995ZM2.6875 13.5624L4.9875 14.5249C5.11085 14.5739 5.24228 14.5994 5.375 14.5999C5.60726 14.6017 5.83289 14.5226 6.01316 14.3761C6.19343 14.2297 6.3171 14.025 6.36294 13.7973C6.40877 13.5696 6.37392 13.3331 6.26435 13.1283C6.15479 12.9235 5.97735 12.7632 5.7625 12.6749L3.45 11.7124C3.20286 11.613 2.92651 11.615 2.68083 11.718C2.43515 11.8209 2.23994 12.0165 2.1375 12.2624C2.08679 12.3838 2.06081 12.514 2.06109 12.6454C2.06137 12.7769 2.0879 12.907 2.13913 13.0281C2.19036 13.1492 2.26526 13.2588 2.35942 13.3506C2.45359 13.4423 2.56513 13.5144 2.6875 13.5624ZM26.625 14.5999C26.7577 14.5994 26.8892 14.5739 27.0125 14.5249L29.3125 13.5624C29.4349 13.5144 29.5464 13.4423 29.6406 13.3506C29.7347 13.2588 29.8096 13.1492 29.8609 13.0281C29.9121 12.907 29.9386 12.7769 29.9389 12.6454C29.9392 12.514 29.9132 12.3838 29.8625 12.2624C29.7601 12.0165 29.5649 11.8209 29.3192 11.718C29.0735 11.615 28.7971 11.613 28.55 11.7124L26.2375 12.6749C26.0226 12.7632 25.8452 12.9235 25.7356 13.1283C25.6261 13.3331 25.5912 13.5696 25.6371 13.7973C25.6829 14.025 25.8066 14.2297 25.9868 14.3761C26.1671 14.5226 26.3927 14.6017 26.625 14.5999ZM20.0125 8.29995C20.1358 8.34893 20.2673 8.37437 20.4 8.37495C20.5967 8.37238 20.7885 8.31326 20.9525 8.20466C21.1165 8.09605 21.2458 7.94254 21.325 7.76245L22.2875 5.44995C22.3869 5.20281 22.3849 4.92646 22.282 4.68077C22.179 4.43509 21.9834 4.23988 21.7375 4.13745C21.6162 4.08673 21.486 4.06076 21.3545 4.06104C21.223 4.06132 21.0929 4.08785 20.9718 4.13908C20.8508 4.19031 20.7411 4.2652 20.6494 4.35937C20.5576 4.45353 20.4856 4.56507 20.4375 4.68745L19.475 6.98745C19.3748 7.23302 19.375 7.5081 19.4755 7.75353C19.5761 7.99897 19.7689 8.19516 20.0125 8.29995ZM30 18.9999H24.4375C24.4774 18.6681 24.4983 18.3342 24.5 17.9999C24.5 15.7456 23.6045 13.5836 22.0104 11.9895C20.4163 10.3955 18.2543 9.49995 16 9.49995C13.7457 9.49995 11.5837 10.3955 9.98959 11.9895C8.39553 13.5836 7.5 15.7456 7.5 17.9999C7.50174 18.3342 7.52261 18.6681 7.5625 18.9999H2C1.73478 18.9999 1.48043 19.1053 1.29289 19.2928C1.10536 19.4804 1 19.7347 1 19.9999C1 20.2652 1.10536 20.5195 1.29289 20.7071C1.48043 20.8946 1.73478 20.9999 2 20.9999H30C30.2652 20.9999 30.5196 20.8946 30.7071 20.7071C30.8946 20.5195 31 20.2652 31 19.9999C31 19.7347 30.8946 19.4804 30.7071 19.2928C30.5196 19.1053 30.2652 18.9999 30 18.9999ZM26 23.9999H6C5.73478 23.9999 5.48043 24.1053 5.29289 24.2928C5.10536 24.4804 5 24.7347 5 24.9999C5 25.2652 5.10536 25.5195 5.29289 25.7071C5.48043 25.8946 5.73478 25.9999 6 25.9999H26C26.2652 25.9999 26.5196 25.8946 26.7071 25.7071C26.8946 25.5195 27 25.2652 27 24.9999C27 24.7347 26.8946 24.4804 26.7071 24.2928C26.5196 24.1053 26.2652 23.9999 26 23.9999Z" fill="#344054"/>
</svg>
