<svg width="32" height="32" viewBox="0 0 32 32" fill="none" xmlns="http://www.w3.org/2000/svg">
<path d="M19.5001 8.99997C18.6474 9.0027 17.7986 9.11615 16.9751 9.33747C16.6457 8.81064 16.2509 8.32764 15.8001 7.89997L16.9751 6.19997C17.0516 6.09364 17.1062 5.97314 17.1357 5.8455C17.1653 5.71785 17.1691 5.58561 17.147 5.45648C17.1249 5.32734 17.0773 5.2039 17.007 5.09333C16.9367 4.98277 16.8451 4.8873 16.7376 4.81247C16.6303 4.73561 16.5088 4.68076 16.3801 4.65109C16.2515 4.62142 16.1183 4.61751 15.9881 4.63959C15.858 4.66167 15.7335 4.7093 15.6218 4.77974C15.5102 4.85017 15.4136 4.94202 15.3376 5.04997L14.1501 6.74997C13.1111 6.21864 11.9539 5.96054 10.7876 5.99997L10.4251 3.96247C10.3787 3.70057 10.2301 3.46783 10.0121 3.31546C9.79411 3.16309 9.5245 3.10356 9.26259 3.14997C9.00069 3.19639 8.76796 3.34494 8.61558 3.56295C8.46321 3.78096 8.40368 4.05057 8.45009 4.31247L8.81259 6.34997C7.70192 6.71251 6.70033 7.34871 5.90009 8.19997L4.20009 7.01247C3.98269 6.86244 3.71475 6.80453 3.45479 6.85137C3.19483 6.89821 2.96396 7.046 2.81259 7.26247C2.73606 7.3688 2.68145 7.4893 2.65194 7.61695C2.62243 7.74459 2.61862 7.87684 2.64072 8.00597C2.66283 8.1351 2.7104 8.25855 2.78069 8.36911C2.85097 8.47968 2.94255 8.57515 3.05009 8.64997L4.75009 9.83747C4.21721 10.8804 3.95908 12.042 4.00009 13.2125L1.96259 13.575C1.7125 13.6146 1.48675 13.7477 1.33092 13.9472C1.1751 14.1468 1.10079 14.3981 1.123 14.6504C1.14521 14.9026 1.26228 15.137 1.45059 15.3063C1.6389 15.4756 1.88442 15.5671 2.13759 15.5625H2.31259L4.35009 15.2C4.52674 15.7468 4.77471 16.268 5.08759 16.75C4.1294 17.6363 3.46084 18.791 3.16927 20.0633C2.87771 21.3356 2.97669 22.6662 3.45329 23.8813C3.92989 25.0965 4.76194 26.1396 5.84072 26.8743C6.9195 27.6091 8.19484 28.0014 9.50009 28H19.5001C22.0196 28 24.436 26.9991 26.2176 25.2175C27.9992 23.4359 29.0001 21.0195 29.0001 18.5C29.0001 15.9804 27.9992 13.5641 26.2176 11.7825C24.436 10.0009 22.0196 8.99997 19.5001 8.99997ZM6.07509 13.8875V13.8375C5.84806 12.5492 6.14017 11.2235 6.88759 10.15V10.125H6.90009C7.65633 9.0481 8.80569 8.31178 10.1001 8.07497H10.1626C11.4314 7.85295 12.7367 8.13555 13.8001 8.86247L13.8626 8.89997L13.9126 8.93747C14.3657 9.25326 14.7593 9.64685 15.0751 10.1C13.0385 11.177 11.4586 12.9522 10.6251 15.1C10.2536 15.0352 9.87724 15.0017 9.50009 15C8.54572 15.0012 7.60306 15.2102 6.73759 15.6125C6.4115 15.0836 6.18684 14.4986 6.07509 13.8875Z" fill="#344054"/>
</svg>
