<svg width="32" height="32" viewBox="0 0 32 32" fill="none" xmlns="http://www.w3.org/2000/svg">
<path d="M26.1125 18C26.1155 18.4101 25.9908 18.811 25.7556 19.147C25.5204 19.483 25.1864 19.7374 24.8 19.875L18.275 22.275L15.875 28.8C15.733 29.1828 15.4771 29.5129 15.142 29.746C14.8068 29.9791 14.4083 30.104 14 30.104C13.5918 30.104 13.1933 29.9791 12.8581 29.746C12.5229 29.5129 12.2671 29.1828 12.125 28.8L9.72503 22.275L3.20003 19.875C2.81727 19.7329 2.48717 19.4771 2.25406 19.1419C2.02094 18.8068 1.896 18.4083 1.896 18C1.896 17.5917 2.02094 17.1932 2.25406 16.8581C2.48717 16.5229 2.81727 16.2671 3.20003 16.125L9.72503 13.725L12.125 7.2C12.2671 6.81725 12.5229 6.48714 12.8581 6.25403C13.1933 6.02092 13.5918 5.89597 14 5.89597C14.4083 5.89597 14.8068 6.02092 15.142 6.25403C15.4771 6.48714 15.733 6.81725 15.875 7.2L18.275 13.725L24.8 16.125C25.1864 16.2626 25.5204 16.517 25.7556 16.853C25.9908 17.189 26.1155 17.5899 26.1125 18ZM19 6H21V8C21 8.26522 21.1054 8.51957 21.2929 8.70711C21.4805 8.89464 21.7348 9 22 9C22.2652 9 22.5196 8.89464 22.7071 8.70711C22.8947 8.51957 23 8.26522 23 8V6H25C25.2652 6 25.5196 5.89464 25.7071 5.70711C25.8947 5.51957 26 5.26522 26 5C26 4.73478 25.8947 4.48043 25.7071 4.29289C25.5196 4.10536 25.2652 4 25 4H23V2C23 1.73478 22.8947 1.48043 22.7071 1.29289C22.5196 1.10536 22.2652 1 22 1C21.7348 1 21.4805 1.10536 21.2929 1.29289C21.1054 1.48043 21 1.73478 21 2V4H19C18.7348 4 18.4805 4.10536 18.2929 4.29289C18.1054 4.48043 18 4.73478 18 5C18 5.26522 18.1054 5.51957 18.2929 5.70711C18.4805 5.89464 18.7348 6 19 6ZM30 10H29V9C29 8.73478 28.8947 8.48043 28.7071 8.29289C28.5196 8.10536 28.2652 8 28 8C27.7348 8 27.4805 8.10536 27.2929 8.29289C27.1054 8.48043 27 8.73478 27 9V10H26C25.7348 10 25.4805 10.1054 25.2929 10.2929C25.1054 10.4804 25 10.7348 25 11C25 11.2652 25.1054 11.5196 25.2929 11.7071C25.4805 11.8946 25.7348 12 26 12H27V13C27 13.2652 27.1054 13.5196 27.2929 13.7071C27.4805 13.8946 27.7348 14 28 14C28.2652 14 28.5196 13.8946 28.7071 13.7071C28.8947 13.5196 29 13.2652 29 13V12H30C30.2652 12 30.5196 11.8946 30.7071 11.7071C30.8947 11.5196 31 11.2652 31 11C31 10.7348 30.8947 10.4804 30.7071 10.2929C30.5196 10.1054 30.2652 10 30 10Z" fill="#344054"/>
</svg>
