<svg width="32" height="32" viewBox="0 0 32 32" fill="none" xmlns="http://www.w3.org/2000/svg">
<path d="M20.0001 17.9125V6C20.0001 4.67392 19.4733 3.40215 18.5356 2.46447C17.5979 1.52678 16.3261 1 15.0001 1C13.674 1 12.4022 1.52678 11.4645 2.46447C10.5268 3.40215 10.0001 4.67392 10.0001 6V17.9125C9.21014 18.6126 8.57857 19.4731 8.14747 20.4366C7.71638 21.4001 7.49567 22.4445 7.50006 23.5C7.50006 25.4891 8.29024 27.3968 9.69676 28.8033C11.1033 30.2098 13.0109 31 15.0001 31C16.9892 31 18.8968 30.2098 20.3034 28.8033C21.7099 27.3968 22.5001 25.4891 22.5001 23.5C22.5045 22.4445 22.2837 21.4001 21.8527 20.4366C21.4216 19.4731 20.79 18.6126 20.0001 17.9125ZM15.0001 3C15.7947 3.00329 16.5559 3.32042 17.1177 3.88231C17.6796 4.44421 17.9968 5.20536 18.0001 6V7H12.0001V6C12.0034 5.20536 12.3205 4.44421 12.8824 3.88231C13.4443 3.32042 14.2054 3.00329 15.0001 3ZM22.2626 10.7125C22.1681 10.6195 22.093 10.5085 22.0418 10.3862C21.9906 10.2639 21.9642 10.1326 21.9642 10C21.9642 9.86739 21.9906 9.7361 22.0418 9.61378C22.093 9.49146 22.1681 9.38055 22.2626 9.2875C22.5876 8.9625 22.9735 8.70471 23.3981 8.52884C23.8228 8.35297 24.2779 8.26247 24.7376 8.2625C25.6648 8.26784 26.5531 8.63573 27.2126 9.2875C27.3509 9.42696 27.5154 9.53765 27.6967 9.61319C27.878 9.68873 28.0724 9.72763 28.2688 9.72763C28.4652 9.72763 28.6597 9.68873 28.841 9.61319C29.0222 9.53765 29.1868 9.42696 29.3251 9.2875C29.514 9.10019 29.7697 8.99562 30.0357 8.99679C30.3018 8.99796 30.5565 9.10478 30.7438 9.29375C30.9311 9.48272 31.0357 9.73835 31.0345 10.0044C31.0333 10.2705 30.9265 10.5252 30.7376 10.7125C30.4125 11.0375 30.0267 11.2953 29.602 11.4712C29.1773 11.647 28.7222 11.7375 28.2626 11.7375C27.3354 11.7322 26.447 11.3643 25.7876 10.7125C25.6493 10.573 25.4847 10.4623 25.3035 10.3868C25.1222 10.3113 24.9277 10.2724 24.7313 10.2724C24.5349 10.2724 24.3405 10.3113 24.1592 10.3868C23.9779 10.4623 23.8134 10.573 23.6751 10.7125C23.4876 10.8995 23.2336 11.0045 22.9688 11.0045C22.704 11.0045 22.45 10.8995 22.2626 10.7125ZM30.7376 14.2875C30.832 14.3805 30.9071 14.4915 30.9583 14.6138C31.0095 14.7361 31.0359 14.8674 31.0359 15C31.0359 15.1326 31.0095 15.2639 30.9583 15.3862C30.9071 15.5085 30.832 15.6195 30.7376 15.7125C30.4125 16.0375 30.0267 16.2953 29.602 16.4712C29.1773 16.647 28.7222 16.7375 28.2626 16.7375C27.3354 16.7322 26.447 16.3643 25.7876 15.7125C25.6493 15.573 25.4847 15.4623 25.3035 15.3868C25.1222 15.3113 24.9277 15.2724 24.7313 15.2724C24.5349 15.2724 24.3405 15.3113 24.1592 15.3868C23.9779 15.4623 23.8134 15.573 23.6751 15.7125C23.4861 15.8998 23.2305 16.0044 22.9644 16.0032C22.6983 16.002 22.4436 15.8952 22.2563 15.7063C22.069 15.5173 21.9644 15.2616 21.9656 14.9956C21.9668 14.7295 22.0736 14.4748 22.2626 14.2875C22.5876 13.9625 22.9735 13.7047 23.3981 13.5288C23.8228 13.353 24.2779 13.2625 24.7376 13.2625C25.6648 13.2678 26.5531 13.6357 27.2126 14.2875C27.3509 14.427 27.5154 14.5377 27.6967 14.6132C27.878 14.6887 28.0724 14.7276 28.2688 14.7276C28.4652 14.7276 28.6597 14.6887 28.841 14.6132C29.0222 14.5377 29.1868 14.427 29.3251 14.2875C29.5125 14.1005 29.7665 13.9955 30.0313 13.9955C30.2961 13.9955 30.5501 14.1005 30.7376 14.2875Z" fill="#344054"/>
</svg>
