<svg width="32" height="32" viewBox="0 0 32 32" fill="none" xmlns="http://www.w3.org/2000/svg">
<path d="M30.0749 16C30.0779 16.4101 29.9531 16.811 29.7179 17.147C29.4827 17.483 29.1488 17.7374 28.7624 17.875L20.7749 20.775L17.8749 28.7625C17.7328 29.1453 17.477 29.4754 17.1418 29.7085C16.8066 29.9416 16.4081 30.0665 15.9999 30.0665C15.5916 30.0665 15.1931 29.9416 14.8579 29.7085C14.5228 29.4754 14.267 29.1453 14.1249 28.7625L11.2249 20.775L3.23738 17.875C2.85463 17.7329 2.52452 17.4771 2.29141 17.1419C2.0583 16.8068 1.93335 16.4083 1.93335 16C1.93335 15.5917 2.0583 15.1932 2.29141 14.8581C2.52452 14.5229 2.85463 14.2671 3.23738 14.125L11.2249 11.225L14.1249 3.2375C14.267 2.85475 14.5228 2.52464 14.8579 2.29153C15.1931 2.05842 15.5916 1.93347 15.9999 1.93347C16.4081 1.93347 16.8066 2.05842 17.1418 2.29153C17.477 2.52464 17.7328 2.85475 17.8749 3.2375L20.7749 11.225L28.7624 14.125C29.1488 14.2626 29.4827 14.517 29.7179 14.853C29.9531 15.189 30.0779 15.5899 30.0749 16Z" fill="#344054"/>
</svg>
