<svg width="32" height="32" viewBox="0 0 32 32" fill="none" xmlns="http://www.w3.org/2000/svg">
<path d="M16.5251 3.15002C16.3678 3.05128 16.1858 2.9989 16.0001 2.9989C15.8143 2.9989 15.6324 3.05128 15.4751 3.15002C14.2178 3.96221 13.06 4.91871 12.0251 6.00002C9.72506 8.38752 8.50006 10.9875 8.50006 13.5C8.50006 15.4891 9.29024 17.3968 10.6968 18.8033C12.1033 20.2098 14.0109 21 16.0001 21C17.9892 21 19.8968 20.2098 21.3034 18.8033C22.7099 17.3968 23.5001 15.4891 23.5001 13.5C23.5001 7.51252 16.8126 3.32502 16.5251 3.15002ZM16.0001 19C15.6056 19.0017 15.2148 18.9252 14.8501 18.775C14.4853 18.6249 14.154 18.4039 13.8751 18.125C13.5961 17.8461 13.3752 17.5147 13.2251 17.15C13.0749 16.7853 12.9984 16.3944 13.0001 16C13.0001 13 16.0001 11 16.0001 11C16.0001 11 19.0001 13 19.0001 16C19.0017 16.3944 18.9252 16.7853 18.7751 17.15C18.6249 17.5147 18.404 17.8461 18.1251 18.125C17.8462 18.4039 17.5148 18.6249 17.1501 18.775C16.7853 18.9252 16.3945 19.0017 16.0001 19ZM27.9501 28.3C27.8864 28.5024 27.7601 28.6793 27.5893 28.8051C27.4185 28.9309 27.2122 28.9992 27.0001 29C26.8979 29.0018 26.7962 28.9849 26.7001 28.95L16.0001 25.55L5.30006 28.95C5.20395 28.9849 5.10228 29.0018 5.00006 29C4.78794 28.9992 4.58158 28.9309 4.41081 28.8051C4.24003 28.6793 4.1137 28.5024 4.05006 28.3C4.00946 28.1753 3.9941 28.0438 4.00489 27.913C4.01568 27.7823 4.05241 27.6551 4.11292 27.5387C4.17343 27.4223 4.25651 27.3192 4.35732 27.2353C4.45813 27.1514 4.57465 27.0884 4.70006 27.05L12.7001 24.5L4.70006 21.95C4.56476 21.9199 4.4372 21.8619 4.32548 21.7799C4.21376 21.6978 4.12032 21.5934 4.05109 21.4733C3.98187 21.3532 3.93837 21.22 3.92336 21.0822C3.90835 20.9444 3.92215 20.805 3.9639 20.6728C4.00564 20.5406 4.07441 20.4186 4.16584 20.3144C4.25728 20.2102 4.36937 20.1261 4.49501 20.0676C4.62066 20.009 4.75711 19.9772 4.8957 19.9742C5.03428 19.9712 5.17199 19.997 5.30006 20.05L16.0001 23.45L26.7001 20.05C26.8281 19.997 26.9658 19.9712 27.1044 19.9742C27.243 19.9772 27.3795 20.009 27.5051 20.0676C27.6308 20.1261 27.7428 20.2102 27.8343 20.3144C27.9257 20.4186 27.9945 20.5406 28.0362 20.6728C28.078 20.805 28.0918 20.9444 28.0768 21.0822C28.0618 21.22 28.0183 21.3532 27.949 21.4733C27.8798 21.5934 27.7864 21.6978 27.6747 21.7799C27.5629 21.8619 27.4354 21.9199 27.3001 21.95L19.3001 24.5L27.3001 27.05C27.4255 27.0884 27.542 27.1514 27.6428 27.2353C27.7436 27.3192 27.8267 27.4223 27.8872 27.5387C27.9477 27.6551 27.9844 27.7823 27.9952 27.913C28.006 28.0438 27.9907 28.1753 27.9501 28.3Z" fill="#344054"/>
</svg>
