<svg width="32" height="32" viewBox="0 0 32 32" fill="none" xmlns="http://www.w3.org/2000/svg">
<path d="M16 24.5C20.6944 24.5 24.5 20.6944 24.5 16C24.5 11.3056 20.6944 7.5 16 7.5C11.3056 7.5 7.5 11.3056 7.5 16C7.5 20.6944 11.3056 24.5 16 24.5Z" fill="#344054"/>
<path d="M16 5.5C16.2652 5.5 16.5196 5.39464 16.7071 5.20711C16.8946 5.01957 17 4.76522 17 4.5V3.5C17 3.23478 16.8946 2.98043 16.7071 2.79289C16.5196 2.60536 16.2652 2.5 16 2.5C15.7348 2.5 15.4804 2.60536 15.2929 2.79289C15.1054 2.98043 15 3.23478 15 3.5V4.5C15 4.76522 15.1054 5.01957 15.2929 5.20711C15.4804 5.39464 15.7348 5.5 16 5.5Z" fill="#344054"/>
<path d="M7.16261 8.57499C7.35165 8.75901 7.60505 8.86198 7.86886 8.86198C8.13268 8.86198 8.38608 8.75901 8.57511 8.57499C8.76213 8.38753 8.86715 8.13354 8.86715 7.86874C8.86715 7.60395 8.76213 7.34996 8.57511 7.16249L7.86261 6.44999C7.67239 6.27763 7.42317 6.18503 7.16655 6.19134C6.90993 6.19766 6.66557 6.30242 6.48406 6.48393C6.30254 6.66545 6.19778 6.90981 6.19147 7.16643C6.18515 7.42305 6.27775 7.67227 6.45011 7.86249L7.16261 8.57499Z" fill="#344054"/>
<path d="M4.5 15H3.5C3.23478 15 2.98043 15.1054 2.79289 15.2929C2.60536 15.4804 2.5 15.7348 2.5 16C2.5 16.2652 2.60536 16.5196 2.79289 16.7071C2.98043 16.8946 3.23478 17 3.5 17H4.5C4.76522 17 5.01957 16.8946 5.20711 16.7071C5.39464 16.5196 5.5 16.2652 5.5 16C5.5 15.7348 5.39464 15.4804 5.20711 15.2929C5.01957 15.1054 4.76522 15 4.5 15Z" fill="#344054"/>
<path d="M7.1625 23.425L6.45 24.1375C6.26298 24.3249 6.15796 24.5789 6.15796 24.8437C6.15796 25.1085 6.26298 25.3625 6.45 25.55C6.64195 25.7334 6.89696 25.8363 7.1625 25.8375C7.42448 25.837 7.67583 25.7338 7.8625 25.55L8.575 24.8375C8.74736 24.6472 8.83996 24.398 8.83365 24.1414C8.82733 23.8848 8.72257 23.6404 8.54106 23.4589C8.35954 23.2774 8.11518 23.1726 7.85856 23.1663C7.60194 23.16 7.35272 23.2526 7.1625 23.425Z" fill="#344054"/>
<path d="M16 26.5C15.7348 26.5 15.4804 26.6054 15.2929 26.7929C15.1054 26.9804 15 27.2348 15 27.5V28.5C15 28.7652 15.1054 29.0196 15.2929 29.2071C15.4804 29.3946 15.7348 29.5 16 29.5C16.2652 29.5 16.5196 29.3946 16.7071 29.2071C16.8946 29.0196 17 28.7652 17 28.5V27.5C17 27.2348 16.8946 26.9804 16.7071 26.7929C16.5196 26.6054 16.2652 26.5 16 26.5Z" fill="#344054"/>
<path d="M24.8375 23.425C24.6472 23.2526 24.398 23.16 24.1414 23.1663C23.8848 23.1726 23.6404 23.2774 23.4589 23.4589C23.2774 23.6404 23.1726 23.8848 23.1663 24.1414C23.16 24.398 23.2526 24.6472 23.425 24.8375L24.1375 25.55C24.3241 25.7338 24.5755 25.837 24.8375 25.8375C25.103 25.8363 25.358 25.7334 25.55 25.55C25.737 25.3625 25.842 25.1085 25.842 24.8437C25.842 24.5789 25.737 24.3249 25.55 24.1375L24.8375 23.425Z" fill="#344054"/>
<path d="M28.5 15H27.5C27.2348 15 26.9804 15.1054 26.7929 15.2929C26.6054 15.4804 26.5 15.7348 26.5 16C26.5 16.2652 26.6054 16.5196 26.7929 16.7071C26.9804 16.8946 27.2348 17 27.5 17H28.5C28.7652 17 29.0196 16.8946 29.2071 16.7071C29.3946 16.5196 29.5 16.2652 29.5 16C29.5 15.7348 29.3946 15.4804 29.2071 15.2929C29.0196 15.1054 28.7652 15 28.5 15Z" fill="#344054"/>
<path d="M24.1376 8.86251C24.2675 8.86366 24.3964 8.83881 24.5166 8.78944C24.6368 8.74007 24.746 8.66716 24.8376 8.57501L25.5501 7.86251C25.6505 7.77155 25.7313 7.66114 25.7878 7.53799C25.8442 7.41483 25.875 7.2815 25.8783 7.14607C25.8817 7.01065 25.8575 6.87596 25.8072 6.75018C25.7569 6.62439 25.6815 6.51014 25.5857 6.41435C25.49 6.31856 25.3757 6.24324 25.2499 6.19294C25.1241 6.14264 24.9895 6.11843 24.854 6.12176C24.7186 6.1251 24.5853 6.15591 24.4621 6.21234C24.339 6.26876 24.2286 6.34962 24.1376 6.45001L23.4251 7.16251C23.2381 7.34997 23.1331 7.60396 23.1331 7.86876C23.1331 8.13356 23.2381 8.38754 23.4251 8.57501C23.5182 8.66869 23.6294 8.74248 23.7518 8.7919C23.8743 8.84132 24.0056 8.86534 24.1376 8.86251Z" fill="#344054"/>
</svg>
