<svg width="32" height="32" viewBox="0 0 32 32" fill="none" xmlns="http://www.w3.org/2000/svg">
<path d="M26 12.5L11.75 26.75C11.3237 27.1778 10.8172 27.5173 10.2595 27.7489C9.70182 27.9806 9.10386 28.0998 8.49995 28.0998C7.89605 28.0998 7.29809 27.9806 6.74037 27.7489C6.18266 27.5173 5.67617 27.1778 5.24995 26.75V26.75C4.82212 26.3238 4.48265 25.8173 4.25102 25.2596C4.01938 24.7019 3.90015 24.1039 3.90015 23.5C3.90015 22.8961 4.01938 22.2981 4.25102 21.7404C4.48265 21.1827 4.82212 20.6762 5.24995 20.25L21.5 4L29 11.5L26 12.5Z" stroke="#344054" stroke-width="1.5" stroke-linecap="round" stroke-linejoin="round"/>
<path d="M8.5 17C8.5 17 11 15 15 17C19 19 21.5 17 21.5 17" stroke="#344054" stroke-width="1.5" stroke-linecap="round" stroke-linejoin="round"/>
</svg>
