<svg width="32" height="32" viewBox="0 0 32 32" fill="none" xmlns="http://www.w3.org/2000/svg">
<path d="M27 17C27 23.4375 17.7 25.65 16.2 25.9625C16.0679 25.9875 15.9322 25.9875 15.8 25.9625C14.3 25.65 5.00001 23.4375 5.00001 17V9.7C4.99897 9.49418 5.06226 9.29318 5.18104 9.1251C5.29982 8.95701 5.46816 8.83024 5.66251 8.7625L15.6625 5.125C15.8812 5.04976 16.1188 5.04976 16.3375 5.125L26.3375 8.7625C26.5319 8.83024 26.7002 8.95701 26.819 9.1251C26.9378 9.29318 27.0011 9.49418 27 9.7V17Z" stroke="#344054" stroke-width="1.5" stroke-linecap="round" stroke-linejoin="round"/>
<path d="M11 14H21" stroke="#344054" stroke-width="1.5" stroke-linecap="round" stroke-linejoin="round"/>
<path d="M11 18H21" stroke="#344054" stroke-width="1.5" stroke-linecap="round" stroke-linejoin="round"/>
<path d="M26.675 19H28C28.3945 19.0016 28.7853 18.9252 29.1501 18.775C29.5148 18.6248 29.8462 18.4039 30.1251 18.125C30.404 17.8461 30.6249 17.5147 30.7751 17.15C30.9252 16.7853 31.0017 16.3944 31 16V13C31.0017 12.6056 30.9252 12.2147 30.7751 11.85C30.6249 11.4853 30.404 11.1539 30.1251 10.875C29.8462 10.5961 29.5148 10.3752 29.1501 10.225C28.7853 10.0748 28.3945 9.99834 28 10H27" stroke="#344054" stroke-width="1.5" stroke-linecap="round" stroke-linejoin="round"/>
<path d="M5.32503 19H4.00003C3.6056 19.0016 3.21475 18.9252 2.85002 18.775C2.4853 18.6248 2.15392 18.4039 1.87502 18.125C1.59611 17.8461 1.3752 17.5147 1.22502 17.15C1.07484 16.7853 0.998372 16.3944 1.00003 16V13C0.998372 12.6056 1.07484 12.2147 1.22502 11.85C1.3752 11.4853 1.59611 11.1539 1.87502 10.875C2.15392 10.5961 2.4853 10.3752 2.85002 10.225C3.21475 10.0748 3.6056 9.99834 4.00003 10H5.00003" stroke="#344054" stroke-width="1.5" stroke-linecap="round" stroke-linejoin="round"/>
</svg>
