<svg width="32" height="32" viewBox="0 0 32 32" fill="none" xmlns="http://www.w3.org/2000/svg">
<path d="M27 6V11C27.0006 11.1974 26.9428 11.3906 26.8338 11.5552C26.7248 11.7198 26.5695 11.8485 26.3875 11.925C26.2642 11.974 26.1327 11.9994 26 12C25.7345 11.9989 25.4795 11.896 25.2875 11.7125L23.5 9.91251L19.5375 13.875C19.4446 13.9698 19.3337 14.0451 19.2114 14.0966C19.0891 14.1481 18.9577 14.1748 18.825 14.175C18.6941 14.1752 18.5644 14.1488 18.4441 14.0972C18.3237 14.0456 18.2151 13.97 18.125 13.875C18.0309 13.783 17.9561 13.6732 17.9051 13.5519C17.854 13.4306 17.8277 13.3003 17.8277 13.1688C17.8277 13.0372 17.854 12.9069 17.9051 12.7856C17.9561 12.6643 18.0309 12.5545 18.125 12.4625L22.0875 8.50001L20.2875 6.7125C20.1519 6.56792 20.0599 6.38788 20.0223 6.19321C19.9847 5.99855 20.003 5.79722 20.075 5.61251C20.1515 5.4305 20.2802 5.27522 20.4448 5.16622C20.6094 5.05722 20.8026 4.99939 21 5H26C26.2652 5 26.5196 5.10536 26.7071 5.2929C26.8947 5.48043 27 5.73479 27 6ZM26.3875 20.075C26.2028 20.003 26.0015 19.9847 25.8068 20.0223C25.6121 20.0599 25.4321 20.1518 25.2875 20.2875L23.5 22.0875L6.71251 5.2875C6.51821 5.12804 6.27155 5.04655 6.0205 5.05888C5.76945 5.07121 5.53196 5.17648 5.35422 5.35422C5.17649 5.53195 5.07122 5.76944 5.05889 6.02049C5.04656 6.27155 5.12805 6.51821 5.28751 6.7125L22.0875 23.5L20.2875 25.2875C20.1519 25.4321 20.0599 25.6121 20.0223 25.8068C19.9847 26.0015 20.003 26.2028 20.075 26.3875C20.1515 26.5695 20.2802 26.7248 20.4448 26.8338C20.6094 26.9428 20.8026 27.0006 21 27H26C26.2652 27 26.5196 26.8946 26.7071 26.7071C26.8947 26.5196 27 26.2652 27 26V21C27.0006 20.8026 26.9428 20.6094 26.8338 20.4448C26.7248 20.2802 26.5695 20.1515 26.3875 20.075ZM12.4625 18.125L5.28751 25.2875C5.09973 25.4771 4.99438 25.7332 4.99438 26C4.99438 26.2669 5.09973 26.5229 5.28751 26.7125C5.47865 26.8973 5.73413 27.0006 6.00001 27.0006C6.26589 27.0006 6.52137 26.8973 6.71251 26.7125L13.875 19.5375C14.0474 19.3473 14.14 19.0981 14.1337 18.8414C14.1273 18.5848 14.0226 18.3405 13.8411 18.1589C13.6596 17.9774 13.4152 17.8727 13.1586 17.8664C12.902 17.86 12.6527 17.9526 12.4625 18.125Z" fill="#344054"/>
</svg>
