<svg width="32" height="32" viewBox="0 0 32 32" fill="none" xmlns="http://www.w3.org/2000/svg">
<path d="M4.45 16.8C4.29002 16.444 4.23907 16.0487 4.30359 15.6638C4.3681 15.2789 4.54519 14.9218 4.8125 14.6375L14.525 4.11247C14.7143 3.91118 14.9429 3.75077 15.1966 3.64112C15.4502 3.53148 15.7236 3.47491 16 3.47491C16.2764 3.47491 16.5498 3.53148 16.8034 3.64112C17.0571 3.75077 17.2857 3.91118 17.475 4.11247L27.1875 14.6375C27.4535 14.9232 27.63 15.2806 27.6953 15.6655C27.7605 16.0504 27.7118 16.4459 27.555 16.8034C27.3981 17.1609 27.1401 17.4647 26.8127 17.6773C26.4853 17.8899 26.1029 18.0021 25.7125 18H6.2875C5.89723 18.0025 5.51487 17.89 5.1881 17.6766C4.86134 17.4632 4.60463 17.1583 4.45 16.8ZM26 20H6C5.46957 20 4.96086 20.2107 4.58579 20.5858C4.21071 20.9608 4 21.4695 4 22V25C4 25.5304 4.21071 26.0391 4.58579 26.4142C4.96086 26.7893 5.46957 27 6 27H26C26.5304 27 27.0391 26.7893 27.4142 26.4142C27.7893 26.0391 28 25.5304 28 25V22C28 21.4695 27.7893 20.9608 27.4142 20.5858C27.0391 20.2107 26.5304 20 26 20Z" fill="#344054"/>
</svg>
