<svg width="32" height="32" viewBox="0 0 32 32" fill="none" xmlns="http://www.w3.org/2000/svg">
<path d="M27 6V11C27.0006 11.1974 26.9428 11.3906 26.8338 11.5552C26.7248 11.7198 26.5695 11.8485 26.3875 11.925C26.2642 11.974 26.1327 11.9994 26 12C25.7345 11.9989 25.4795 11.896 25.2875 11.7125L20.2875 6.7125C20.1518 6.56792 20.0599 6.38788 20.0223 6.19321C19.9847 5.99855 20.003 5.79722 20.075 5.61251C20.1515 5.4305 20.2802 5.27522 20.4448 5.16622C20.6094 5.05722 20.8026 4.99939 21 5H26C26.2652 5 26.5196 5.10536 26.7071 5.2929C26.8946 5.48043 27 5.73479 27 6ZM6.7125 20.2875C6.56792 20.1518 6.38788 20.0599 6.19321 20.0223C5.99855 19.9847 5.79722 20.003 5.61251 20.075C5.4305 20.1515 5.27522 20.2802 5.16622 20.4448C5.05722 20.6094 4.99939 20.8026 5 21V26C5 26.2652 5.10536 26.5196 5.2929 26.7071C5.48043 26.8946 5.73479 27 6 27H11C11.1974 27.0006 11.3906 26.9428 11.5552 26.8338C11.7198 26.7248 11.8485 26.5695 11.925 26.3875C11.9971 26.2028 12.0153 26.0015 11.9777 25.8068C11.9401 25.6121 11.8482 25.4321 11.7125 25.2875L6.7125 20.2875ZM26.3875 20.075C26.2028 20.003 26.0015 19.9847 25.8068 20.0223C25.6121 20.0599 25.4321 20.1518 25.2875 20.2875L20.2875 25.2875C20.1518 25.4321 20.0599 25.6121 20.0223 25.8068C19.9847 26.0015 20.003 26.2028 20.075 26.3875C20.1515 26.5695 20.2802 26.7248 20.4448 26.8338C20.6094 26.9428 20.8026 27.0006 21 27H26C26.2652 27 26.5196 26.8946 26.7071 26.7071C26.8946 26.5196 27 26.2652 27 26V21C27.0006 20.8026 26.9428 20.6094 26.8338 20.4448C26.7248 20.2802 26.5695 20.1515 26.3875 20.075ZM11 5H6C5.73479 5 5.48043 5.10536 5.2929 5.2929C5.10536 5.48043 5 5.73479 5 6V11C4.99939 11.1974 5.05722 11.3906 5.16622 11.5552C5.27522 11.7198 5.4305 11.8485 5.61251 11.925C5.73585 11.974 5.86729 11.9994 6 12C6.26555 11.9989 6.52055 11.896 6.7125 11.7125L11.7125 6.7125C11.8482 6.56792 11.9401 6.38788 11.9777 6.19321C12.0153 5.99855 11.9971 5.79722 11.925 5.61251C11.8485 5.4305 11.7198 5.27522 11.5552 5.16622C11.3906 5.05722 11.1974 4.99939 11 5Z" fill="#344054"/>
</svg>
