<svg width="32" height="32" viewBox="0 0 32 32" fill="none" xmlns="http://www.w3.org/2000/svg">
<path d="M4.925 2.32506C4.83726 2.22676 4.73074 2.14701 4.61171 2.09051C4.49269 2.03401 4.36355 2.00191 4.23192 1.99608C4.10029 1.99026 3.96883 2.01083 3.84528 2.0566C3.72172 2.10236 3.60857 2.17239 3.5125 2.26256C3.41481 2.35036 3.33537 2.45656 3.27873 2.57507C3.22208 2.69359 3.18935 2.8221 3.18238 2.95327C3.17542 3.08444 3.19436 3.2157 3.23814 3.33954C3.28191 3.46339 3.34965 3.5774 3.4375 3.67506L6.4625 7.00006H6C5.20536 7.00335 4.44421 7.32047 3.88231 7.88237C3.32042 8.44427 3.00329 9.20542 3 10.0001V24.0001C3.00329 24.7947 3.32042 25.5558 3.88231 26.1177C4.44421 26.6796 5.20536 26.9968 6 27.0001H24.65L27.075 29.6751C27.1696 29.7762 27.2837 29.8572 27.4105 29.9131C27.5372 29.9689 27.674 29.9985 27.8125 30.0001C28.0629 30.0025 28.3045 29.9085 28.4875 29.7376C28.5852 29.6497 28.6646 29.5436 28.7213 29.425C28.7779 29.3065 28.8107 29.178 28.8176 29.0468C28.8246 28.9157 28.8056 28.7844 28.7619 28.6606C28.7181 28.5367 28.6503 28.4227 28.5625 28.3251L4.925 2.32506ZM16 21.0001C14.8065 21.0001 13.6619 20.5259 12.818 19.682C11.9741 18.8381 11.5 17.6935 11.5 16.5001C11.5026 15.4624 11.8599 14.4568 12.5125 13.6501L18.5 20.2376C17.7628 20.7384 16.8912 21.0042 16 21.0001Z" fill="#344054"/>
<path d="M26 7.00003H22.5375L20.825 4.45003C20.7383 4.30992 20.6167 4.19477 20.472 4.11588C20.3274 4.03698 20.1647 3.99706 20 4.00003H12C11.8338 3.99851 11.6699 4.03895 11.5235 4.11761C11.3771 4.19627 11.253 4.31061 11.1625 4.45003L10.9125 4.82503C10.7904 5.01122 10.734 5.23281 10.7521 5.45471C10.7702 5.67661 10.8619 5.88611 11.0125 6.05003L27.2625 23.925C27.3557 24.028 27.4695 24.1102 27.5966 24.1662C27.7237 24.2222 27.8611 24.2508 28 24.25C28.1238 24.2537 28.2471 24.2324 28.3625 24.1875C28.5512 24.1142 28.7131 23.9852 28.827 23.8179C28.9408 23.6505 29.0011 23.4525 29 23.25V10C28.9967 9.2054 28.6796 8.44424 28.1177 7.88235C27.5558 7.32045 26.7946 7.00332 26 7.00003Z" fill="#344054"/>
</svg>
