<svg width="32" height="32" viewBox="0 0 32 32" fill="none" xmlns="http://www.w3.org/2000/svg">
<path d="M27 7.99999H18.4125L22.7125 3.71249C22.872 3.5182 22.9535 3.27153 22.9411 3.02048C22.9288 2.76943 22.8235 2.53194 22.6458 2.3542C22.4681 2.17647 22.2306 2.0712 21.9795 2.05887C21.7285 2.04654 21.4818 2.12803 21.2875 2.28749L16 7.58749L10.7125 2.28749C10.5182 2.12803 10.2715 2.04654 10.0205 2.05887C9.76944 2.0712 9.53195 2.17647 9.35421 2.3542C9.17648 2.53194 9.07121 2.76943 9.05888 3.02048C9.04655 3.27153 9.12804 3.5182 9.2875 3.71249L13.5875 7.99999H5C4.46957 7.99999 3.96086 8.21071 3.58579 8.58578C3.21071 8.96085 3 9.46956 3 9.99999V25C3 25.5304 3.21071 26.0391 3.58579 26.4142C3.96086 26.7893 4.46957 27 5 27H27C27.5304 27 28.0391 26.7893 28.4142 26.4142C28.7893 26.0391 29 25.5304 29 25V9.99999C29 9.46956 28.7893 8.96085 28.4142 8.58578C28.0391 8.21071 27.5304 7.99999 27 7.99999ZM27 25H20V9.99999H27V25ZM25 14.5C25 14.7967 24.912 15.0867 24.7472 15.3333C24.5824 15.58 24.3481 15.7723 24.074 15.8858C23.7999 15.9993 23.4983 16.029 23.2074 15.9712C22.9164 15.9133 22.6491 15.7704 22.4393 15.5607C22.2296 15.3509 22.0867 15.0836 22.0288 14.7926C21.9709 14.5017 22.0007 14.2001 22.1142 13.926C22.2277 13.6519 22.42 13.4176 22.6666 13.2528C22.9133 13.088 23.2033 13 23.5 13C23.8978 13 24.2794 13.158 24.5607 13.4393C24.842 13.7206 25 14.1022 25 14.5ZM25 20.5C25 20.7967 24.912 21.0867 24.7472 21.3333C24.5824 21.58 24.3481 21.7723 24.074 21.8858C23.7999 21.9993 23.4983 22.029 23.2074 21.9712C22.9164 21.9133 22.6491 21.7704 22.4393 21.5607C22.2296 21.3509 22.0867 21.0836 22.0288 20.7926C21.9709 20.5017 22.0007 20.2001 22.1142 19.926C22.2277 19.6519 22.42 19.4176 22.6666 19.2528C22.9133 19.088 23.2033 19 23.5 19C23.8978 19 24.2794 19.158 24.5607 19.4393C24.842 19.7206 25 20.1022 25 20.5Z" fill="#344054"/>
</svg>
