<svg width="32" height="32" viewBox="0 0 32 32" fill="none" xmlns="http://www.w3.org/2000/svg">
<path d="M11.9999 11C11.9975 11.3216 12.0142 11.643 12.0499 11.9625L2.69991 24.7125C2.41674 25.0982 2.28121 25.5726 2.31791 26.0496C2.3546 26.5266 2.56109 26.9747 2.89991 27.3125L4.68741 29.1C5.02522 29.4388 5.47329 29.6453 5.95033 29.682C6.42737 29.7187 6.90175 29.5832 7.28741 29.3L20.0374 19.95C20.357 19.9857 20.6784 20.0024 20.9999 20C22.837 20.0002 24.63 19.4374 26.1374 18.3875C26.1968 18.3453 26.2463 18.2906 26.2823 18.2273C26.3184 18.1639 26.3401 18.0935 26.3461 18.0208C26.352 17.9482 26.342 17.8751 26.3168 17.8067C26.2915 17.7384 26.2516 17.6764 26.1999 17.625L14.3749 5.80002C14.3236 5.74828 14.2616 5.70839 14.1932 5.68314C14.1248 5.65789 14.0518 5.6479 13.9791 5.65385C13.9065 5.6598 13.836 5.68157 13.7727 5.71761C13.7093 5.75366 13.6546 5.80312 13.6124 5.86252C12.5625 7.36998 11.9997 9.16297 11.9999 11ZM14.2124 19.2125L11.7124 21.7125C11.5213 21.8973 11.2658 22.0007 10.9999 22.0007C10.734 22.0007 10.4785 21.8973 10.2874 21.7125C10.0996 21.5229 9.99428 21.2669 9.99428 21C9.99428 20.7332 10.0996 20.4771 10.2874 20.2875L12.7874 17.7875C12.9817 17.6281 13.2284 17.5466 13.4794 17.5589C13.7305 17.5712 13.968 17.6765 14.1457 17.8542C14.3234 18.032 14.4287 18.2695 14.441 18.5205C14.4534 18.7716 14.3719 19.0182 14.2124 19.2125ZM29.9874 10.5C30.0979 12.5051 29.5347 14.4895 28.3874 16.1375C28.3452 16.1969 28.2905 16.2464 28.2271 16.2824C28.1638 16.3185 28.0933 16.3402 28.0207 16.3462C27.9481 16.3522 27.875 16.3422 27.8066 16.3169C27.7383 16.2917 27.6762 16.2518 27.6249 16.2L15.7999 4.37502C15.7482 4.32369 15.7083 4.26167 15.683 4.1933C15.6578 4.12493 15.6478 4.05187 15.6537 3.97923C15.6597 3.90659 15.6814 3.83613 15.7175 3.77279C15.7535 3.70944 15.803 3.65474 15.8624 3.61252C17.1772 2.69806 18.7121 2.151 20.3089 2.02778C21.9057 1.90456 23.5064 2.20965 24.9459 2.91157C26.3854 3.61348 27.6115 4.6868 28.4978 6.02076C29.384 7.35471 29.8982 8.90099 29.9874 10.5Z" fill="#344054"/>
</svg>
