<svg width="32" height="32" viewBox="0 0 32 32" fill="none" xmlns="http://www.w3.org/2000/svg">
<path d="M23.5376 5.41252L23.4626 5.35002L23.3626 5.30002C21.2015 3.79822 18.6318 2.99545 16.0001 3.00002C12.896 2.99763 9.8933 4.10496 7.53397 6.12214C5.17465 8.13932 3.61414 10.9335 3.13411 14.0002C2.65408 17.067 3.28615 20.2043 4.91625 22.8459C6.54634 25.4876 9.06707 27.4595 12.0234 28.4057C14.9798 29.3519 18.177 29.2102 21.038 28.006C23.899 26.8018 26.2353 24.6145 27.6252 21.839C29.0151 19.0635 29.3671 15.8825 28.6175 12.8703C27.8679 9.85802 26.0662 7.21296 23.5376 5.41252ZM16.0001 19C15.4068 19 14.8267 18.8241 14.3334 18.4944C13.84 18.1648 13.4555 17.6962 13.2285 17.1481C13.0014 16.5999 12.942 15.9967 13.0577 15.4147C13.1735 14.8328 13.4592 14.2983 13.8788 13.8787C14.2983 13.4591 14.8329 13.1734 15.4148 13.0577C15.9968 12.9419 16.6 13.0013 17.1482 13.2284C17.6963 13.4554 18.1649 13.84 18.4945 14.3333C18.8242 14.8267 19.0001 15.4067 19.0001 16C18.9968 16.7947 18.6797 17.5558 18.1178 18.1177C17.5559 18.6796 16.7947 18.9967 16.0001 19ZM27.0001 16C27.0001 16.3125 26.9876 16.6125 26.9626 16.9125L21.0001 15.8625C20.9665 14.6301 20.4765 13.4542 19.6251 12.5625L23.1001 7.60002C24.3224 8.63186 25.3047 9.91816 25.9784 11.369C26.652 12.8199 27.0007 14.4004 27.0001 16Z" fill="#344054"/>
</svg>
