<svg width="32" height="32" viewBox="0 0 32 32" fill="none" xmlns="http://www.w3.org/2000/svg">
<path d="M27 13H12.6L26.5125 9.275C26.639 9.23973 26.7573 9.17955 26.8603 9.09798C26.9634 9.01642 27.0491 8.91511 27.1125 8.8C27.1803 8.6888 27.2243 8.56467 27.2415 8.43554C27.2587 8.3064 27.2488 8.1751 27.2125 8.05L26.175 4.1875C26.1097 3.93351 25.9945 3.69506 25.8361 3.48606C25.6777 3.27707 25.4792 3.10171 25.2523 2.97022C25.0254 2.83874 24.7746 2.75376 24.5145 2.72024C24.2544 2.68672 23.9903 2.70534 23.7375 2.775L4.41246 7.95C4.15799 8.01667 3.91928 8.13321 3.71019 8.29283C3.50109 8.45246 3.32577 8.65201 3.19437 8.87991C3.06298 9.10781 2.97814 9.35953 2.94477 9.62046C2.9114 9.8814 2.93016 10.1464 2.99996 10.4L3.99996 14.1375V25C3.99996 25.5304 4.21068 26.0391 4.58575 26.4142C4.96082 26.7893 5.46953 27 5.99996 27H26C26.5304 27 27.0391 26.7893 27.4142 26.4142C27.7892 26.0391 28 25.5304 28 25V14C28 13.7348 27.8946 13.4804 27.7071 13.2929C27.5195 13.1054 27.2652 13 27 13ZM21.1625 8.6375L12.4625 10.9625L8.79996 8.8375L17.4875 6.5125L21.1625 8.6375ZM26 25H5.99996V15H26V25Z" fill="#344054"/>
</svg>
