<svg width="32" height="32" viewBox="0 0 32 32" fill="none" xmlns="http://www.w3.org/2000/svg">
<path d="M22.5 26C22.3414 26.0015 22.1847 25.9649 22.0433 25.8931C21.9019 25.8213 21.7798 25.7165 21.6875 25.5875L9.49997 8.7125L3.81247 16.5875C3.73532 16.6942 3.63791 16.7847 3.5258 16.8537C3.41369 16.9228 3.28907 16.9691 3.15907 16.9899C3.02907 17.0108 2.89622 17.0059 2.76812 16.9755C2.64002 16.945 2.51917 16.8896 2.41247 16.8125C2.30577 16.7353 2.21531 16.6379 2.14626 16.5258C2.07721 16.4137 2.03092 16.2891 2.01002 16.1591C1.96783 15.8965 2.03166 15.628 2.18747 15.4125L8.68747 6.4125C8.78168 6.28579 8.90422 6.18288 9.0453 6.11198C9.18638 6.04108 9.34208 6.00415 9.49997 6.00415C9.65786 6.00415 9.81357 6.04108 9.95464 6.11198C10.0957 6.18288 10.2183 6.28579 10.3125 6.4125L22.5 23.2875L28.1875 15.4125C28.3433 15.197 28.5783 15.0522 28.8409 15.01C29.1034 14.9679 29.372 15.0317 29.5875 15.1875C29.803 15.3433 29.9477 15.5783 29.9899 15.8409C30.0321 16.1035 29.9683 16.372 29.8125 16.5875L23.3125 25.5875C23.2201 25.7165 23.0981 25.8213 22.9566 25.8931C22.8152 25.9649 22.6586 26.0015 22.5 26Z" fill="#344054"/>
</svg>
