<svg width="32" height="32" viewBox="0 0 32 32" fill="none" xmlns="http://www.w3.org/2000/svg">
<path d="M22.2499 25.0875C19.1124 25.0875 17.1624 20.875 15.0874 16.425C13.4624 12.9 11.6124 8.91251 9.74992 8.91251C7.88741 8.91251 5.21241 13.6125 3.91242 16.425C3.86661 16.5596 3.79299 16.683 3.69633 16.7872C3.59967 16.8915 3.48214 16.9742 3.3514 17.03C3.22065 17.0858 3.07962 17.1135 2.93749 17.1112C2.79535 17.1089 2.65529 17.0766 2.52642 17.0166C2.39756 16.9566 2.28278 16.8701 2.18955 16.7628C2.09632 16.6555 2.02673 16.5297 1.98532 16.3937C1.94391 16.2578 1.9316 16.1146 1.94919 15.9735C1.96678 15.8324 2.01388 15.6967 2.08742 15.575C4.83742 9.67501 7.26241 6.91251 9.74992 6.91251C12.8874 6.91251 14.8374 11.125 16.9124 15.575C18.5374 19.1 20.3874 23.0875 22.2499 23.0875C24.2999 23.0875 26.7874 18.3875 28.0874 15.575C28.2166 15.3613 28.4201 15.2029 28.6589 15.1302C28.8978 15.0575 29.1551 15.0755 29.3814 15.181C29.6077 15.2864 29.7871 15.4717 29.8851 15.7013C29.9831 15.9309 29.9929 16.1887 29.9124 16.425C27.1624 22.325 24.7374 25.0875 22.2499 25.0875Z" fill="#344054"/>
</svg>
