<svg width="32" height="32" viewBox="0 0 32 32" fill="none" xmlns="http://www.w3.org/2000/svg">
<path d="M19 12V6.00001C18.9993 5.80259 19.0572 5.6094 19.1662 5.44479C19.2752 5.28018 19.4305 5.15151 19.6125 5.07501C19.7972 5.00297 19.9985 4.98469 20.1932 5.0223C20.3878 5.0599 20.5679 5.15185 20.7125 5.28751L26.7125 11.2875C26.8481 11.4321 26.9401 11.6121 26.9777 11.8068C27.0153 12.0015 26.997 12.2028 26.925 12.3875C26.8484 12.5695 26.7198 12.7248 26.5552 12.8338C26.3906 12.9428 26.1974 13.0006 26 13H20C19.7347 13 19.4804 12.8947 19.2928 12.7071C19.1053 12.5196 19 12.2652 19 12ZM12 19H5.99995C5.80253 18.9994 5.60934 19.0572 5.44473 19.1662C5.28012 19.2752 5.15145 19.4305 5.07495 19.6125C5.00291 19.7972 4.98463 19.9986 5.02223 20.1932C5.05984 20.3879 5.15179 20.5679 5.28745 20.7125L11.2875 26.7125C11.4794 26.896 11.7344 26.9989 12 27C12.1327 26.9994 12.2641 26.974 12.3875 26.925C12.5695 26.8485 12.7247 26.7198 12.8337 26.5552C12.9427 26.3906 13.0006 26.1974 13 26V20C13 19.7348 12.8946 19.4804 12.7071 19.2929C12.5195 19.1054 12.2652 19 12 19ZM12.3875 5.07501C12.2027 5.00297 12.0014 4.98469 11.8067 5.0223C11.6121 5.0599 11.432 5.15185 11.2875 5.28751L5.28745 11.2875C5.15179 11.4321 5.05984 11.6121 5.02223 11.8068C4.98463 12.0015 5.00291 12.2028 5.07495 12.3875C5.15145 12.5695 5.28012 12.7248 5.44473 12.8338C5.60934 12.9428 5.80253 13.0006 5.99995 13H12C12.2652 13 12.5195 12.8947 12.7071 12.7071C12.8946 12.5196 13 12.2652 13 12V6.00001C13.0006 5.80259 12.9427 5.6094 12.8337 5.44479C12.7247 5.28018 12.5695 5.15151 12.3875 5.07501ZM26 19H20C19.7347 19 19.4804 19.1054 19.2928 19.2929C19.1053 19.4804 19 19.7348 19 20V26C18.9993 26.1974 19.0572 26.3906 19.1662 26.5552C19.2752 26.7198 19.4305 26.8485 19.6125 26.925C19.7358 26.974 19.8672 26.9994 20 27C20.2655 26.9989 20.5205 26.896 20.7125 26.7125L26.7125 20.7125C26.8481 20.5679 26.9401 20.3879 26.9777 20.1932C27.0153 19.9986 26.997 19.7972 26.925 19.6125C26.8484 19.4305 26.7198 19.2752 26.5552 19.1662C26.3906 19.0572 26.1974 18.9994 26 19Z" fill="#344054"/>
</svg>
