<svg width="32" height="32" viewBox="0 0 32 32" fill="none" xmlns="http://www.w3.org/2000/svg">
<path d="M12.5 13C13.3284 13 14 12.3284 14 11.5C14 10.6716 13.3284 10 12.5 10C11.6716 10 11 10.6716 11 11.5C11 12.3284 11.6716 13 12.5 13Z" fill="#344054"/>
<path d="M26 4H6C5.46957 4 4.96086 4.21071 4.58579 4.58579C4.21071 4.96086 4 5.46957 4 6V22V26C4 26.5304 4.21071 27.0391 4.58579 27.4142C4.96086 27.7893 5.46957 28 6 28H26C26.5304 28 27.0391 27.7893 27.4142 27.4142C27.7893 27.0391 28 26.5304 28 26V6C28 5.46957 27.7893 4.96086 27.4142 4.58579C27.0391 4.21071 26.5304 4 26 4ZM22.4125 14C22.036 13.629 21.5286 13.421 21 13.421C20.4714 13.421 19.964 13.629 19.5875 14L14 19.5875L11.4125 17C11.036 16.629 10.5286 16.421 10 16.421C9.4714 16.421 8.96403 16.629 8.5875 17L6 19.5875V6H26V17.5875L22.4125 14Z" fill="#344054"/>
</svg>
