<svg width="32" height="32" viewBox="0 0 32 32" fill="none" xmlns="http://www.w3.org/2000/svg">
<path d="M26.6125 3.21249C26.4941 3.11919 26.3562 3.05387 26.209 3.0214C26.0618 2.98893 25.9092 2.99016 25.7625 3.02499L9.7625 7.02499C9.5444 7.07831 9.35059 7.20348 9.21228 7.38034C9.07397 7.5572 8.99919 7.77546 9 7.99999V21.7625C8.16571 21.205 7.16904 20.9424 6.16838 21.0164C5.16772 21.0903 4.22047 21.4966 3.47718 22.1706C2.73388 22.8446 2.23717 23.7477 2.06598 24.7364C1.89479 25.7251 2.05895 26.7426 2.53236 27.6273C3.00577 28.512 3.76128 29.2131 4.67882 29.6192C5.59637 30.0252 6.62331 30.113 7.59646 29.8685C8.56961 29.624 9.43313 29.0613 10.0498 28.2698C10.6665 27.4783 11.0009 26.5034 11 25.5V13.775L25 10.275V17.7625C24.1657 17.205 23.169 16.9424 22.1684 17.0164C21.1677 17.0903 20.2205 17.4966 19.4772 18.1706C18.7339 18.8446 18.2372 19.7477 18.066 20.7364C17.8948 21.7251 18.0589 22.7426 18.5324 23.6273C19.0058 24.512 19.7613 25.2131 20.6788 25.6192C21.5964 26.0252 22.6233 26.113 23.5965 25.8685C24.5696 25.624 25.4331 25.0613 26.0498 24.2698C26.6665 23.4783 27.0009 22.5034 27 21.5V3.99999C27.0015 3.84757 26.9672 3.69693 26.8999 3.56017C26.8326 3.4234 26.7342 3.30432 26.6125 3.21249Z" fill="#344054"/>
</svg>
