<svg width="32" height="32" viewBox="0 0 32 32" fill="none" xmlns="http://www.w3.org/2000/svg">
<path d="M19.4375 3.10001C19.2694 3.01892 19.082 2.98648 18.8964 3.00636C18.7109 3.02624 18.5346 3.09765 18.3875 3.21251L9.65 10H4C3.46957 10 2.96086 10.2107 2.58579 10.5858C2.21071 10.9609 2 11.4696 2 12V20C2 20.5304 2.21071 21.0392 2.58579 21.4142C2.96086 21.7893 3.46957 22 4 22H9.65L18.3875 28.7875C18.5619 28.9253 18.7777 29.0001 19 29C19.1513 28.9982 19.3004 28.9641 19.4375 28.9C19.6063 28.8179 19.7485 28.69 19.848 28.5308C19.9475 28.3716 20.0001 28.1877 20 28V4.00001C20.0001 3.81233 19.9475 3.62839 19.848 3.46923C19.7485 3.31008 19.6063 3.18213 19.4375 3.10001Z" fill="#344054"/>
</svg>
