<svg width="32" height="32" viewBox="0 0 32 32" fill="none" xmlns="http://www.w3.org/2000/svg">
<path d="M16 3C13.4288 3 10.9154 3.76244 8.77759 5.1909C6.63975 6.61935 4.97351 8.64968 3.98957 11.0251C3.00563 13.4006 2.74819 16.0144 3.2498 18.5362C3.75141 21.0579 4.98953 23.3743 6.80762 25.1924C8.6257 27.0105 10.9421 28.2486 13.4638 28.7502C15.9856 29.2518 18.5995 28.9944 20.9749 28.0104C23.3503 27.0265 25.3807 25.3603 26.8091 23.2224C28.2376 21.0846 29 18.5712 29 16C28.9934 12.5542 27.6216 9.25145 25.1851 6.81491C22.7486 4.37837 19.4458 3.00661 16 3ZM23.075 16.825L18.075 20.325C17.9039 20.4368 17.7044 20.4975 17.5 20.5C17.2348 20.5 16.9804 20.3946 16.7929 20.2071C16.6054 20.0196 16.5 19.7652 16.5 19.5V16C16.4991 16.1613 16.4601 16.32 16.3862 16.4634C16.3124 16.6067 16.2057 16.7306 16.075 16.825L11.075 20.325C10.9039 20.4368 10.7044 20.4975 10.5 20.5C10.2348 20.5 9.98044 20.3946 9.7929 20.2071C9.60536 20.0196 9.50001 19.7652 9.50001 19.5V12.5C9.50121 12.3173 9.55181 12.1384 9.64643 11.9822C9.74106 11.8259 9.87619 11.6982 10.0375 11.6125C10.1996 11.5268 10.382 11.4873 10.565 11.4984C10.748 11.5094 10.9244 11.5705 11.075 11.675L16.075 15.175C16.2057 15.2694 16.3124 15.3933 16.3862 15.5366C16.4601 15.68 16.4991 15.8387 16.5 16V12.5C16.5012 12.3173 16.5518 12.1384 16.6464 11.9822C16.7411 11.8259 16.8762 11.6982 17.0375 11.6125C17.1996 11.5268 17.382 11.4873 17.565 11.4984C17.748 11.5094 17.9244 11.5705 18.075 11.675L23.075 15.175C23.2066 15.2686 23.3139 15.3923 23.3879 15.5359C23.4619 15.6794 23.5005 15.8385 23.5005 16C23.5005 16.1615 23.4619 16.3206 23.3879 16.4641C23.3139 16.6077 23.2066 16.7314 23.075 16.825Z" fill="#344054"/>
</svg>
