<svg width="32" height="32" viewBox="0 0 32 32" fill="none" xmlns="http://www.w3.org/2000/svg">
<path d="M10.5 12C10.5 12.2652 10.3946 12.5196 10.2071 12.7071C10.0196 12.8946 9.76522 13 9.5 13H4.5C4.23478 13 3.98043 12.8946 3.79289 12.7071C3.60536 12.5196 3.5 12.2652 3.5 12C3.5 11.7348 3.60536 11.4804 3.79289 11.2929C3.98043 11.1054 4.23478 11 4.5 11H9.5C9.76522 11 10.0196 11.1054 10.2071 11.2929C10.3946 11.4804 10.5 11.7348 10.5 12ZM9.5 15H4.5C4.23478 15 3.98043 15.1054 3.79289 15.2929C3.60536 15.4804 3.5 15.7348 3.5 16C3.5 16.2652 3.60536 16.5196 3.79289 16.7071C3.98043 16.8946 4.23478 17 4.5 17H9.5C9.76522 17 10.0196 16.8946 10.2071 16.7071C10.3946 16.5196 10.5 16.2652 10.5 16C10.5 15.7348 10.3946 15.4804 10.2071 15.2929C10.0196 15.1054 9.76522 15 9.5 15ZM9.5 19H4.5C4.23478 19 3.98043 19.1054 3.79289 19.2929C3.60536 19.4804 3.5 19.7348 3.5 20C3.5 20.2652 3.60536 20.5196 3.79289 20.7071C3.98043 20.8946 4.23478 21 4.5 21H9.5C9.76522 21 10.0196 20.8946 10.2071 20.7071C10.3946 20.5196 10.5 20.2652 10.5 20C10.5 19.7348 10.3946 19.4804 10.2071 19.2929C10.0196 19.1054 9.76522 19 9.5 19ZM9.5 23H4.5C4.23478 23 3.98043 23.1054 3.79289 23.2929C3.60536 23.4804 3.5 23.7348 3.5 24C3.5 24.2652 3.60536 24.5196 3.79289 24.7071C3.98043 24.8946 4.23478 25 4.5 25H9.5C9.76522 25 10.0196 24.8946 10.2071 24.7071C10.3946 24.5196 10.5 24.2652 10.5 24C10.5 23.7348 10.3946 23.4804 10.2071 23.2929C10.0196 23.1054 9.76522 23 9.5 23ZM18.5 15H13.5C13.2348 15 12.9804 15.1054 12.7929 15.2929C12.6054 15.4804 12.5 15.7348 12.5 16C12.5 16.2652 12.6054 16.5196 12.7929 16.7071C12.9804 16.8946 13.2348 17 13.5 17H18.5C18.7652 17 19.0196 16.8946 19.2071 16.7071C19.3946 16.5196 19.5 16.2652 19.5 16C19.5 15.7348 19.3946 15.4804 19.2071 15.2929C19.0196 15.1054 18.7652 15 18.5 15ZM18.5 19H13.5C13.2348 19 12.9804 19.1054 12.7929 19.2929C12.6054 19.4804 12.5 19.7348 12.5 20C12.5 20.2652 12.6054 20.5196 12.7929 20.7071C12.9804 20.8946 13.2348 21 13.5 21H18.5C18.7652 21 19.0196 20.8946 19.2071 20.7071C19.3946 20.5196 19.5 20.2652 19.5 20C19.5 19.7348 19.3946 19.4804 19.2071 19.2929C19.0196 19.1054 18.7652 19 18.5 19ZM18.5 23H13.5C13.2348 23 12.9804 23.1054 12.7929 23.2929C12.6054 23.4804 12.5 23.7348 12.5 24C12.5 24.2652 12.6054 24.5196 12.7929 24.7071C12.9804 24.8946 13.2348 25 13.5 25H18.5C18.7652 25 19.0196 24.8946 19.2071 24.7071C19.3946 24.5196 19.5 24.2652 19.5 24C19.5 23.7348 19.3946 23.4804 19.2071 23.2929C19.0196 23.1054 18.7652 23 18.5 23ZM27.5 11H22.5C22.2348 11 21.9804 11.1054 21.7929 11.2929C21.6054 11.4804 21.5 11.7348 21.5 12C21.5 12.2652 21.6054 12.5196 21.7929 12.7071C21.9804 12.8946 22.2348 13 22.5 13H27.5C27.7652 13 28.0196 12.8946 28.2071 12.7071C28.3946 12.5196 28.5 12.2652 28.5 12C28.5 11.7348 28.3946 11.4804 28.2071 11.2929C28.0196 11.1054 27.7652 11 27.5 11ZM22.5 9H27.5C27.7652 9 28.0196 8.89464 28.2071 8.70711C28.3946 8.51957 28.5 8.26522 28.5 8C28.5 7.73478 28.3946 7.48043 28.2071 7.29289C28.0196 7.10536 27.7652 7 27.5 7H22.5C22.2348 7 21.9804 7.10536 21.7929 7.29289C21.6054 7.48043 21.5 7.73478 21.5 8C21.5 8.26522 21.6054 8.51957 21.7929 8.70711C21.9804 8.89464 22.2348 9 22.5 9ZM27.5 15H22.5C22.2348 15 21.9804 15.1054 21.7929 15.2929C21.6054 15.4804 21.5 15.7348 21.5 16C21.5 16.2652 21.6054 16.5196 21.7929 16.7071C21.9804 16.8946 22.2348 17 22.5 17H27.5C27.7652 17 28.0196 16.8946 28.2071 16.7071C28.3946 16.5196 28.5 16.2652 28.5 16C28.5 15.7348 28.3946 15.4804 28.2071 15.2929C28.0196 15.1054 27.7652 15 27.5 15ZM27.5 19H22.5C22.2348 19 21.9804 19.1054 21.7929 19.2929C21.6054 19.4804 21.5 19.7348 21.5 20C21.5 20.2652 21.6054 20.5196 21.7929 20.7071C21.9804 20.8946 22.2348 21 22.5 21H27.5C27.7652 21 28.0196 20.8946 28.2071 20.7071C28.3946 20.5196 28.5 20.2652 28.5 20C28.5 19.7348 28.3946 19.4804 28.2071 19.2929C28.0196 19.1054 27.7652 19 27.5 19ZM27.5 23H22.5C22.2348 23 21.9804 23.1054 21.7929 23.2929C21.6054 23.4804 21.5 23.7348 21.5 24C21.5 24.2652 21.6054 24.5196 21.7929 24.7071C21.9804 24.8946 22.2348 25 22.5 25H27.5C27.7652 25 28.0196 24.8946 28.2071 24.7071C28.3946 24.5196 28.5 24.2652 28.5 24C28.5 23.7348 28.3946 23.4804 28.2071 23.2929C28.0196 23.1054 27.7652 23 27.5 23Z" fill="#344054"/>
</svg>
