<svg width="32" height="32" viewBox="0 0 32 32" fill="none" xmlns="http://www.w3.org/2000/svg">
<path d="M26 4H6C5.46957 4 4.96086 4.21071 4.58579 4.58579C4.21071 4.96086 4 5.46957 4 6V26C4 26.5304 4.21071 27.0391 4.58579 27.4142C4.96086 27.7893 5.46957 28 6 28H26C26.5304 28 27.0391 27.7893 27.4142 27.4142C27.7893 27.0391 28 26.5304 28 26V6C28 5.46957 27.7893 4.96086 27.4142 4.58579C27.0391 4.21071 26.5304 4 26 4ZM13.5 19C13.7652 19 14.0196 18.8946 14.2071 18.7071C14.3946 18.5196 14.5 18.2652 14.5 18V6H17.5V18C17.5 18.2652 17.6054 18.5196 17.7929 18.7071C17.9804 18.8946 18.2348 19 18.5 19H19.5V26H12.5V19H13.5ZM6 6H8.5V18C8.5 18.2652 8.60536 18.5196 8.79289 18.7071C8.98043 18.8946 9.23478 19 9.5 19H10.5V26H6V6ZM26 26H21.5V19H22.5C22.7652 19 23.0196 18.8946 23.2071 18.7071C23.3946 18.5196 23.5 18.2652 23.5 18V6H26V26Z" fill="#344054"/>
</svg>
