<svg width="32" height="32" viewBox="0 0 32 32" fill="none" xmlns="http://www.w3.org/2000/svg">
<path d="M16 25C15.8294 25.0017 15.6613 24.9586 15.5125 24.875C15.3577 24.7871 15.2288 24.6599 15.1388 24.5063C15.0489 24.3527 15.001 24.178 15 24V9.7875L3.52503 16.85C3.3001 16.9758 3.03529 17.0099 2.78582 16.9452C2.53636 16.8805 2.3215 16.722 2.18607 16.5027C2.05064 16.2835 2.00509 16.0204 2.05893 15.7683C2.11277 15.5163 2.26183 15.2948 2.47503 15.15L15.475 7.15C15.6264 7.05659 15.8 7.00528 15.9779 7.00134C16.1558 6.99741 16.3315 7.041 16.4869 7.12762C16.6423 7.21424 16.7718 7.34075 16.862 7.4941C16.9522 7.64745 16.9998 7.82208 17 8V22.2125L28.475 15.15C28.7 15.0242 28.9648 14.9901 29.2142 15.0548C29.4637 15.1195 29.6786 15.278 29.814 15.4973C29.9494 15.7165 29.995 15.9796 29.9411 16.2316C29.8873 16.4837 29.7382 16.7052 29.525 16.85L16.525 24.85C16.3676 24.9483 16.1856 25.0003 16 25Z" fill="#344054"/>
</svg>
