<svg width="32" height="32" viewBox="0 0 32 32" fill="none" xmlns="http://www.w3.org/2000/svg">
<path d="M26 7.00004H22.5375L20.8375 4.45004C20.747 4.31062 20.6229 4.19628 20.4765 4.11762C20.3301 4.03896 20.1662 3.99852 20 4.00004H12C11.8338 3.99852 11.6699 4.03896 11.5235 4.11762C11.3771 4.19628 11.253 4.31062 11.1625 4.45004L9.4625 7.00004H6C5.20536 7.00333 4.44421 7.32046 3.88231 7.88236C3.32042 8.44425 3.00329 9.20541 3 10V24C3.00329 24.7947 3.32042 25.5558 3.88231 26.1177C4.44421 26.6796 5.20536 26.9968 6 27H26C26.7946 26.9968 27.5558 26.6796 28.1177 26.1177C28.6796 25.5558 28.9967 24.7947 29 24V10C28.9967 9.20541 28.6796 8.44425 28.1177 7.88236C27.5558 7.32046 26.7946 7.00333 26 7.00004ZM20.2375 20.7375C19.6822 21.2961 19.022 21.7394 18.2947 22.0419C17.5675 22.3444 16.7876 22.5002 16 22.5002C15.2124 22.5002 14.4325 22.3444 13.7053 22.0419C12.978 21.7394 12.3178 21.2961 11.7625 20.7375H11.75L11.1625 20.125L10.9875 21.1625C10.9466 21.3955 10.8255 21.6068 10.6451 21.7598C10.4647 21.9128 10.2365 21.9978 10 22H9.8375C9.70777 21.9788 9.58351 21.9322 9.47182 21.8629C9.36012 21.7936 9.26319 21.7029 9.18656 21.5961C9.10994 21.4893 9.05512 21.3684 9.02526 21.2404C8.99539 21.1124 8.99105 20.9797 9.0125 20.85L9.5125 17.85C9.54812 17.6442 9.64652 17.4545 9.79422 17.3068C9.94192 17.1591 10.1317 17.0607 10.3375 17.025L13.3375 16.525C13.5994 16.4819 13.8677 16.5447 14.0834 16.6994C14.299 16.8541 14.4444 17.0881 14.4875 17.35C14.5306 17.6119 14.4679 17.8802 14.3132 18.0959C14.1585 18.3116 13.9244 18.4569 13.6625 18.5L12.5375 18.6875L13.175 19.35C13.9278 20.0914 14.9434 20.5049 16 20.5C16.5255 20.5026 17.0461 20.4 17.5313 20.1982C18.0165 19.9964 18.4563 19.6995 18.825 19.325C19.0125 19.138 19.2665 19.033 19.5312 19.033C19.796 19.033 20.05 19.138 20.2375 19.325C20.3316 19.417 20.4064 19.5269 20.4575 19.6482C20.5085 19.7694 20.5348 19.8997 20.5348 20.0313C20.5348 20.1629 20.5085 20.2931 20.4575 20.4144C20.4064 20.5357 20.3316 20.6456 20.2375 20.7375ZM22.9875 12.1625L22.4875 15.1625C22.4519 15.3684 22.3535 15.5581 22.2058 15.7058C22.0581 15.8535 21.8683 15.9519 21.6625 15.9875L18.6625 16.4875H18.5C18.2635 16.4853 18.0353 16.4003 17.8549 16.2473C17.6745 16.0943 17.5534 15.883 17.5125 15.65C17.4911 15.5203 17.4954 15.3877 17.5253 15.2597C17.5551 15.1317 17.6099 15.0108 17.6866 14.904C17.7632 14.7972 17.8601 14.7065 17.9718 14.6372C18.0835 14.5679 18.2078 14.5213 18.3375 14.5L19.4625 14.3125L18.825 13.65C18.0722 12.9086 17.0566 12.4952 16 12.5C15.4745 12.4975 14.9539 12.6001 14.4687 12.8019C13.9835 13.0037 13.5437 13.3006 13.175 13.675C12.9875 13.8621 12.7335 13.9671 12.4688 13.9671C12.204 13.9671 11.95 13.8621 11.7625 13.675C11.6684 13.5831 11.5936 13.4732 11.5426 13.3519C11.4915 13.2306 11.4652 13.1004 11.4652 12.9688C11.4652 12.8372 11.4915 12.7069 11.5426 12.5857C11.5936 12.4644 11.6684 12.3545 11.7625 12.2625C12.3178 11.7039 12.978 11.2606 13.7053 10.9582C14.4325 10.6557 15.2124 10.4999 16 10.4999C16.7876 10.4999 17.5675 10.6557 18.2947 10.9582C19.022 11.2606 19.6822 11.7039 20.2375 12.2625C20.25 12.2625 20.25 12.2625 20.25 12.275L20.8375 12.875L21.0125 11.8375C21.0556 11.5756 21.201 11.3416 21.4166 11.1869C21.6323 11.0322 21.9006 10.9694 22.1625 11.0125C22.4244 11.0556 22.6585 11.201 22.8132 11.4167C22.9679 11.6323 23.0306 11.9006 22.9875 12.1625Z" fill="#344054"/>
</svg>
