<svg width="32" height="32" viewBox="0 0 32 32" fill="none" xmlns="http://www.w3.org/2000/svg">
<path d="M3.3 19.8625C3.13466 19.5213 3.07034 19.14 3.11464 18.7635C3.15894 18.387 3.31 18.031 3.55 17.7375L14.45 4.32501C14.6376 4.09499 14.874 3.90961 15.1421 3.7823C15.4101 3.65498 15.7032 3.58893 16 3.58893C16.2968 3.58893 16.5899 3.65498 16.858 3.7823C17.126 3.90961 17.3624 4.09499 17.55 4.32501L28.45 17.7375C28.6887 18.0307 28.8393 18.3856 28.8845 18.7609C28.9297 19.1363 28.8676 19.5168 28.7053 19.8583C28.5431 20.1997 28.2874 20.4883 27.9679 20.6903C27.6483 20.8924 27.2781 20.9998 26.9 21H5.1C4.72265 21.0022 4.35258 20.8962 4.03358 20.6946C3.71458 20.493 3.46001 20.2043 3.3 19.8625ZM28 25H4C3.73478 25 3.48043 25.1054 3.29289 25.2929C3.10536 25.4804 3 25.7348 3 26C3 26.2652 3.10536 26.5196 3.29289 26.7071C3.48043 26.8946 3.73478 27 4 27H28C28.2652 27 28.5196 26.8946 28.7071 26.7071C28.8946 26.5196 29 26.2652 29 26C29 25.7348 28.8946 25.4804 28.7071 25.2929C28.5196 25.1054 28.2652 25 28 25Z" fill="#344054"/>
</svg>
