<svg width="32" height="32" viewBox="0 0 32 32" fill="none" xmlns="http://www.w3.org/2000/svg">
<path d="M26.2875 7.0375L16.2875 4.0375C16.137 3.99509 15.9787 3.98768 15.8249 4.01585C15.6711 4.04401 15.5257 4.107 15.4 4.2C15.2765 4.29381 15.1762 4.41473 15.1069 4.55344C15.0375 4.69214 15.001 4.84492 15 5V18.5375C13.9052 17.5439 12.4785 16.9955 11 17C9.81331 17 8.65328 17.3519 7.66658 18.0112C6.67989 18.6705 5.91085 19.6075 5.45673 20.7039C5.0026 21.8003 4.88378 23.0067 5.11529 24.1705C5.3468 25.3344 5.91825 26.4035 6.75736 27.2426C7.59648 28.0818 8.66558 28.6532 9.82946 28.8847C10.9933 29.1162 12.1997 28.9974 13.2961 28.5433C14.3925 28.0892 15.3295 27.3201 15.9888 26.3334C16.6481 25.3467 17 24.1867 17 23V6.35L25.7125 8.9625C25.8389 9.00025 25.9715 9.01274 26.1027 8.99925C26.2339 8.98577 26.3612 8.94656 26.4773 8.88388C26.5934 8.8212 26.696 8.73628 26.7792 8.63395C26.8625 8.53162 26.9247 8.4139 26.9625 8.2875C27.0003 8.1611 27.0127 8.02851 26.9993 7.89728C26.9858 7.76606 26.9466 7.63878 26.8839 7.5227C26.8212 7.40663 26.7363 7.30404 26.6339 7.22079C26.5316 7.13754 26.4139 7.07525 26.2875 7.0375Z" fill="#344054"/>
</svg>
