<svg width="32" height="32" viewBox="0 0 32 32" fill="none" xmlns="http://www.w3.org/2000/svg">
<path d="M29 7C29 7.26522 28.8946 7.51957 28.7071 7.70711C28.5196 7.89464 28.2652 8 28 8H26V10C26 10.2652 25.8946 10.5196 25.7071 10.7071C25.5196 10.8946 25.2652 11 25 11C24.7348 11 24.4804 10.8946 24.2929 10.7071C24.1054 10.5196 24 10.2652 24 10V8H22C21.7348 8 21.4804 7.89464 21.2929 7.70711C21.1054 7.51957 21 7.26522 21 7C21 6.73478 21.1054 6.48043 21.2929 6.29289C21.4804 6.10536 21.7348 6 22 6H24V4C24 3.73478 24.1054 3.48043 24.2929 3.29289C24.4804 3.10536 24.7348 3 25 3C25.2652 3 25.5196 3.10536 25.7071 3.29289C25.8946 3.48043 26 3.73478 26 4V6H28C28.2652 6 28.5196 6.10536 28.7071 6.29289C28.8946 6.48043 29 6.73478 29 7ZM26 13.9C25.7348 13.9 25.4804 14.0054 25.2929 14.1929C25.1054 14.3804 25 14.6348 25 14.9V17.7625C24.2628 17.2617 23.3912 16.9959 22.5 17C21.61 17 20.74 17.2639 19.9999 17.7584C19.2599 18.2529 18.6831 18.9557 18.3425 19.7779C18.0019 20.6002 17.9128 21.505 18.0865 22.3779C18.2601 23.2508 18.6887 24.0526 19.318 24.682C19.9474 25.3113 20.7492 25.7399 21.6221 25.9135C22.495 26.0872 23.3998 25.9981 24.2221 25.6575C25.0443 25.3169 25.7471 24.7401 26.2416 24.0001C26.7361 23.26 27 22.39 27 21.5V14.9C27 14.6348 26.8946 14.3804 26.7071 14.1929C26.5196 14.0054 26.2652 13.9 26 13.9ZM20.3 12.4375C20.4344 12.377 20.5535 12.2873 20.6487 12.1748C20.7438 12.0624 20.8126 11.93 20.85 11.7875C20.8923 11.619 20.8915 11.4425 20.8478 11.2743C20.8042 11.1062 20.7189 10.9517 20.6 10.825C20.5048 10.7359 20.3948 10.664 20.275 10.6125C19.5961 10.2831 19.0231 9.77005 18.621 9.13153C18.2189 8.49301 18.0037 7.75458 18 7C18 6.80357 18.0126 6.60734 18.0375 6.4125C18.067 6.25921 18.0597 6.10112 18.0162 5.95119C17.9728 5.80126 17.8944 5.66377 17.7875 5.55C17.6648 5.42038 17.5099 5.32552 17.3387 5.27503C17.1675 5.22454 16.9859 5.22022 16.8125 5.2625L9.7625 7.025C9.5444 7.07832 9.35059 7.20349 9.21228 7.38035C9.07396 7.55721 8.99919 7.77548 9 8V21.7625C8.26279 21.2617 7.39122 20.9959 6.5 21C5.60999 21 4.73996 21.2639 3.99994 21.7584C3.25991 22.2529 2.68314 22.9557 2.34254 23.7779C2.00195 24.6002 1.91283 25.505 2.08647 26.3779C2.2601 27.2508 2.68868 28.0526 3.31802 28.682C3.94736 29.3113 4.74918 29.7399 5.6221 29.9135C6.49501 30.0872 7.39981 29.9981 8.22208 29.6575C9.04434 29.3169 9.74715 28.7401 10.2416 28.0001C10.7361 27.26 11 26.39 11 25.5V14.775L20.1 12.5L20.3 12.4375Z" fill="#344054"/>
</svg>
