<svg width="32" height="32" viewBox="0 0 32 32" fill="none" xmlns="http://www.w3.org/2000/svg">
<path d="M4 8C4 7.73478 4.10536 7.48043 4.29289 7.29289C4.48043 7.10536 4.73478 7 5 7H27C27.2652 7 27.5196 7.10536 27.7071 7.29289C27.8946 7.48043 28 7.73478 28 8C28 8.26522 27.8946 8.51957 27.7071 8.70711C27.5196 8.89464 27.2652 9 27 9H5C4.73478 9 4.48043 8.89464 4.29289 8.70711C4.10536 8.51957 4 8.26522 4 8ZM5 17H20C20.2652 17 20.5196 16.8946 20.7071 16.7071C20.8946 16.5196 21 16.2652 21 16C21 15.7348 20.8946 15.4804 20.7071 15.2929C20.5196 15.1054 20.2652 15 20 15H5C4.73478 15 4.48043 15.1054 4.29289 15.2929C4.10536 15.4804 4 15.7348 4 16C4 16.2652 4.10536 16.5196 4.29289 16.7071C4.48043 16.8946 4.73478 17 5 17ZM14 23H5C4.73478 23 4.48043 23.1054 4.29289 23.2929C4.10536 23.4804 4 23.7348 4 24C4 24.2652 4.10536 24.5196 4.29289 24.7071C4.48043 24.8946 4.73478 25 5 25H14C14.2652 25 14.5196 24.8946 14.7071 24.7071C14.8946 24.5196 15 24.2652 15 24C15 23.7348 14.8946 23.4804 14.7071 23.2929C14.5196 23.1054 14.2652 23 14 23ZM30.2875 14.5375L25.2875 13.0375C25.137 12.9951 24.9787 12.9877 24.8249 13.0158C24.6711 13.044 24.5257 13.107 24.4 13.2C24.2765 13.2938 24.1762 13.4147 24.1069 13.5534C24.0375 13.6921 24.001 13.8449 24 14V20.5375C23.2374 20.0972 22.3508 19.9209 21.4777 20.0358C20.6046 20.1508 19.7939 20.5507 19.1713 21.1735C18.5487 21.7962 18.149 22.607 18.0341 23.4801C17.9193 24.3532 18.0958 25.2398 18.5363 26.0023C18.9768 26.7648 19.6565 27.3607 20.4702 27.6975C21.2838 28.0343 22.1859 28.0932 23.0364 27.865C23.887 27.6368 24.6384 27.1344 25.1743 26.4355C25.7101 25.7367 26.0004 24.8806 26 24V15.35L29.7125 16.4625C29.9678 16.5387 30.2429 16.5105 30.4773 16.3839C30.7117 16.2573 30.8862 16.0428 30.9625 15.7875C31.0387 15.5322 31.0105 15.2571 30.8839 15.0227C30.7573 14.7883 30.5428 14.6137 30.2875 14.5375Z" fill="#344054"/>
</svg>
