<svg width="32" height="32" viewBox="0 0 32 32" fill="none" xmlns="http://www.w3.org/2000/svg">
<path d="M16 17C18.2091 17 20 15.2091 20 13C20 10.7909 18.2091 9 16 9C13.7909 9 12 10.7909 12 13C12 15.2091 13.7909 17 16 17Z" fill="#344054"/>
<path d="M28 25H17V22.95C19.5526 22.6934 21.909 21.4656 23.5818 19.5205C25.2547 17.5754 26.1159 15.0618 25.9875 12.4995C25.859 9.93721 24.7507 7.5223 22.8918 5.75422C21.0329 3.98613 18.5655 3.00012 16 3.00012C13.4345 3.00012 10.9671 3.98613 9.1082 5.75422C7.24927 7.5223 6.14098 9.93721 6.01254 12.4995C5.8841 15.0618 6.74535 17.5754 8.41816 19.5205C10.091 21.4656 12.4474 22.6934 15 22.95V25H4C3.73478 25 3.48043 25.1054 3.29289 25.2929C3.10536 25.4804 3 25.7348 3 26C3 26.2652 3.10536 26.5196 3.29289 26.7071C3.48043 26.8946 3.73478 27 4 27H28C28.2652 27 28.5196 26.8946 28.7071 26.7071C28.8946 26.5196 29 26.2652 29 26C29 25.7348 28.8946 25.4804 28.7071 25.2929C28.5196 25.1054 28.2652 25 28 25ZM10 13C10 11.8133 10.3519 10.6533 11.0112 9.66657C11.6705 8.67988 12.6075 7.91085 13.7039 7.45672C14.8003 7.00259 16.0067 6.88377 17.1705 7.11528C18.3344 7.3468 19.4035 7.91824 20.2426 8.75736C21.0818 9.59647 21.6532 10.6656 21.8847 11.8295C22.1162 12.9933 21.9974 14.1997 21.5433 15.2961C21.0892 16.3925 20.3201 17.3295 19.3334 17.9888C18.3467 18.6481 17.1867 19 16 19C14.4087 19 12.8826 18.3679 11.7574 17.2426C10.6321 16.1174 10 14.5913 10 13Z" fill="#344054"/>
</svg>
