<svg width="32" height="32" viewBox="0 0 32 32" fill="none" xmlns="http://www.w3.org/2000/svg">
<path d="M16 3C13.4288 3 10.9154 3.76244 8.77759 5.1909C6.63975 6.61935 4.97351 8.64968 3.98957 11.0251C3.00563 13.4006 2.74819 16.0144 3.2498 18.5362C3.75141 21.0579 4.98953 23.3743 6.80762 25.1924C8.6257 27.0105 10.9421 28.2486 13.4638 28.7502C15.9856 29.2518 18.5995 28.9944 20.9749 28.0104C23.3503 27.0265 25.3807 25.3603 26.8091 23.2224C28.2376 21.0846 29 18.5712 29 16C28.9934 12.5542 27.6216 9.25145 25.1851 6.81491C22.7486 4.37837 19.4458 3.00661 16 3ZM20.5 20C20.5 20.2652 20.3946 20.5196 20.2071 20.7071C20.0196 20.8946 19.7652 21 19.5 21C19.2348 21 18.9804 20.8946 18.7929 20.7071C18.6054 20.5196 18.5 20.2652 18.5 20V17.2L13.05 20.8375C12.8845 20.9399 12.6946 20.996 12.5 21C12.3351 20.9999 12.1725 20.9614 12.025 20.8875C11.8651 20.8012 11.7318 20.673 11.6393 20.5166C11.5468 20.3603 11.4986 20.1817 11.5 20V12C11.4986 11.8183 11.5468 11.6397 11.6393 11.4834C11.7318 11.327 11.8651 11.1988 12.025 11.1125C12.1855 11.0312 12.3644 10.9931 12.5441 11.0019C12.7238 11.0107 12.8982 11.066 13.05 11.1625L18.5 14.8V12C18.5 11.7348 18.6054 11.4804 18.7929 11.2929C18.9804 11.1054 19.2348 11 19.5 11C19.7652 11 20.0196 11.1054 20.2071 11.2929C20.3946 11.4804 20.5 11.7348 20.5 12V20Z" fill="#344054"/>
</svg>
