<svg width="32" height="32" viewBox="0 0 32 32" fill="none" xmlns="http://www.w3.org/2000/svg">
<path d="M16 22C17.5913 22 19.1174 21.3679 20.2426 20.2426C21.3679 19.1174 22 17.5913 22 16V8C22 6.4087 21.3679 4.88258 20.2426 3.75736C19.1174 2.63214 17.5913 2 16 2C14.4087 2 12.8826 2.63214 11.7574 3.75736C10.6321 4.88258 10 6.4087 10 8V16C10 17.5913 10.6321 19.1174 11.7574 20.2426C12.8826 21.3679 14.4087 22 16 22Z" fill="#344054"/>
<path d="M25.0501 16.0125C24.7885 15.9843 24.5264 16.0603 24.3204 16.2241C24.1145 16.3879 23.9815 16.6262 23.9501 16.8875C23.7305 18.8423 22.7984 20.6477 21.3319 21.9587C19.8654 23.2697 17.9672 23.9944 16.0001 23.9944C14.033 23.9944 12.1349 23.2697 10.6683 21.9587C9.20179 20.6477 8.26969 18.8423 8.05011 16.8875C8.01873 16.6262 7.88567 16.3879 7.67977 16.2241C7.47386 16.0603 7.2117 15.9843 6.95011 16.0125C6.819 16.0249 6.69169 16.0634 6.57568 16.1257C6.45968 16.1881 6.35732 16.273 6.27462 16.3755C6.19192 16.478 6.13056 16.596 6.09415 16.7226C6.05774 16.8491 6.04702 16.9817 6.06261 17.1125C6.31836 19.3814 7.3457 21.4936 8.97268 23.0955C10.5997 24.6974 12.7275 25.6919 15.0001 25.9125V29C15.0001 29.2652 15.1055 29.5195 15.293 29.7071C15.4805 29.8946 15.7349 30 16.0001 30C16.2653 30 16.5197 29.8946 16.7072 29.7071C16.8948 29.5195 17.0001 29.2652 17.0001 29V25.9125C19.2727 25.6919 21.4006 24.6974 23.0275 23.0955C24.6545 21.4936 25.6819 19.3814 25.9376 17.1125C25.9532 16.9817 25.9425 16.8491 25.9061 16.7226C25.8697 16.596 25.8083 16.478 25.7256 16.3755C25.6429 16.273 25.5405 16.1881 25.4245 16.1257C25.3085 16.0634 25.1812 16.0249 25.0501 16.0125Z" fill="#344054"/>
</svg>
