<svg width="32" height="32" viewBox="0 0 32 32" fill="none" xmlns="http://www.w3.org/2000/svg">
<path d="M4 23C3.73478 23 3.48043 23.1054 3.29289 23.2929C3.10536 23.4804 3 23.7348 3 24C3 24.2652 3.10536 24.5196 3.29289 24.7071C3.48043 24.8946 3.73478 25 4 25C4.26522 25 4.51957 25.1054 4.70711 25.2929C4.89464 25.4804 5 25.7348 5 26C5 26.2652 5.10536 26.5196 5.29289 26.7071C5.48043 26.8946 5.73478 27 6 27C6.26522 27 6.51957 26.8946 6.70711 26.7071C6.89464 26.5196 7 26.2652 7 26C6.99671 25.2054 6.67958 24.4442 6.11768 23.8823C5.55579 23.3204 4.79464 23.0033 4 23Z" fill="#344054"/>
<path d="M4 19C3.73478 19 3.48043 19.1054 3.29289 19.2929C3.10536 19.4804 3 19.7348 3 20C3 20.2652 3.10536 20.5196 3.29289 20.7071C3.48043 20.8946 3.73478 21 4 21C5.32608 21 6.59785 21.5268 7.53553 22.4645C8.47322 23.4021 9 24.6739 9 26C9 26.2652 9.10536 26.5196 9.29289 26.7071C9.48043 26.8946 9.73478 27 10 27C10.2652 27 10.5196 26.8946 10.7071 26.7071C10.8946 26.5196 11 26.2652 11 26C11 24.1435 10.2625 22.363 8.94975 21.0503C7.63699 19.7375 5.85652 19 4 19Z" fill="#344054"/>
<path d="M4 15C3.73478 15 3.48043 15.1054 3.29289 15.2929C3.10536 15.4804 3 15.7348 3 16C3 16.2652 3.10536 16.5196 3.29289 16.7071C3.48043 16.8946 3.73478 17 4 17C6.38593 17.0033 8.6732 17.9526 10.3603 19.6397C12.0474 21.3268 12.9967 23.6141 13 26C13 26.2652 13.1054 26.5196 13.2929 26.7071C13.4804 26.8946 13.7348 27 14 27C14.2652 27 14.5196 26.8946 14.7071 26.7071C14.8946 26.5196 15 26.2652 15 26C14.9967 23.0836 13.8367 20.2877 11.7745 18.2255C9.71234 16.1633 6.91637 15.0033 4 15Z" fill="#344054"/>
<path d="M27 5H5C4.46957 5 3.96086 5.21071 3.58579 5.58579C3.21071 5.96086 3 6.46957 3 7V12C3 12.2652 3.10536 12.5196 3.29289 12.7071C3.48043 12.8946 3.73478 13 4 13C7.44578 13.0066 10.7485 14.3784 13.1851 16.8149C15.6216 19.2515 16.9934 22.5542 17 26C17 26.2652 17.1054 26.5196 17.2929 26.7071C17.4804 26.8946 17.7348 27 18 27H27C27.5304 27 28.0391 26.7893 28.4142 26.4142C28.7893 26.0391 29 25.5304 29 25V7C29 6.46957 28.7893 5.96086 28.4142 5.58579C28.0391 5.21071 27.5304 5 27 5Z" fill="#344054"/>
</svg>
