<svg width="32" height="32" viewBox="0 0 32 32" fill="none" xmlns="http://www.w3.org/2000/svg">
<path d="M27 5H5C4.46957 5 3.96086 5.21071 3.58579 5.58579C3.21071 5.96086 3 6.46957 3 7V25C3 25.5304 3.21071 26.0391 3.58579 26.4142C3.96086 26.7893 4.46957 27 5 27H27C27.5304 27 28.0391 26.7893 28.4142 26.4142C28.7893 26.0391 29 25.5304 29 25V7C29 6.46957 28.7893 5.96086 28.4142 5.58579C28.0391 5.21071 27.5304 5 27 5ZM22.5 21H9.5C9.23478 21 8.98043 20.8946 8.79289 20.7071C8.60536 20.5196 8.5 20.2652 8.5 20C8.5 19.7348 8.60536 19.4804 8.79289 19.2929C8.98043 19.1054 9.23478 19 9.5 19H22.5C22.7652 19 23.0196 19.1054 23.2071 19.2929C23.3946 19.4804 23.5 19.7348 23.5 20C23.5 20.2652 23.3946 20.5196 23.2071 20.7071C23.0196 20.8946 22.7652 21 22.5 21ZM22.5 17H9.5C9.23478 17 8.98043 16.8946 8.79289 16.7071C8.60536 16.5196 8.5 16.2652 8.5 16C8.5 15.7348 8.60536 15.4804 8.79289 15.2929C8.98043 15.1054 9.23478 15 9.5 15H22.5C22.7652 15 23.0196 15.1054 23.2071 15.2929C23.3946 15.4804 23.5 15.7348 23.5 16C23.5 16.2652 23.3946 16.5196 23.2071 16.7071C23.0196 16.8946 22.7652 17 22.5 17ZM22.5 13H9.5C9.23478 13 8.98043 12.8946 8.79289 12.7071C8.60536 12.5196 8.5 12.2652 8.5 12C8.5 11.7348 8.60536 11.4804 8.79289 11.2929C8.98043 11.1054 9.23478 11 9.5 11H22.5C22.7652 11 23.0196 11.1054 23.2071 11.2929C23.3946 11.4804 23.5 11.7348 23.5 12C23.5 12.2652 23.3946 12.5196 23.2071 12.7071C23.0196 12.8946 22.7652 13 22.5 13Z" fill="#344054"/>
</svg>
