<svg width="32" height="32" viewBox="0 0 32 32" fill="none" xmlns="http://www.w3.org/2000/svg">
<path d="M16.9999 8.175V5C16.9999 4.73478 16.8945 4.48043 16.707 4.29289C16.5195 4.10536 16.2651 4 15.9999 4C15.7347 4 15.4803 4.10536 15.2928 4.29289C15.1052 4.48043 14.9999 4.73478 14.9999 5V8.175C14.4173 8.3832 13.9134 8.76641 13.5571 9.27213C13.2008 9.77785 13.0095 10.3814 13.0095 11C13.0095 11.6186 13.2008 12.2221 13.5571 12.7279C13.9134 13.2336 14.4173 13.6168 14.9999 13.825V27C14.9999 27.2652 15.1052 27.5196 15.2928 27.7071C15.4803 27.8946 15.7347 28 15.9999 28C16.2651 28 16.5195 27.8946 16.707 27.7071C16.8945 27.5196 16.9999 27.2652 16.9999 27V13.825C17.5824 13.6168 18.0864 13.2336 18.4427 12.7279C18.799 12.2221 18.9902 11.6186 18.9902 11C18.9902 10.3814 18.799 9.77785 18.4427 9.27213C18.0864 8.76641 17.5824 8.3832 16.9999 8.175Z" fill="#344054"/>
<path d="M27.9999 21C27.9992 20.3802 27.8065 19.7758 27.4484 19.27C27.0903 18.7641 26.5842 18.3816 25.9999 18.175V5C25.9999 4.73478 25.8945 4.48043 25.707 4.29289C25.5195 4.10536 25.2651 4 24.9999 4C24.7347 4 24.4803 4.10536 24.2928 4.29289C24.1052 4.48043 23.9999 4.73478 23.9999 5V18.175C23.4173 18.3832 22.9134 18.7664 22.5571 19.2721C22.2008 19.7779 22.0095 20.3814 22.0095 21C22.0095 21.6186 22.2008 22.2221 22.5571 22.7279C22.9134 23.2336 23.4173 23.6168 23.9999 23.825V27C23.9999 27.2652 24.1052 27.5196 24.2928 27.7071C24.4803 27.8946 24.7347 28 24.9999 28C25.2651 28 25.5195 27.8946 25.707 27.7071C25.8945 27.5196 25.9999 27.2652 25.9999 27V23.825C26.5842 23.6184 27.0903 23.2359 27.4484 22.73C27.8065 22.2242 27.9992 21.6198 27.9999 21Z" fill="#344054"/>
<path d="M7.99988 14.175V5C7.99988 4.73478 7.89452 4.48043 7.70699 4.29289C7.51945 4.10536 7.2651 4 6.99988 4C6.73466 4 6.48031 4.10536 6.29277 4.29289C6.10524 4.48043 5.99988 4.73478 5.99988 5V14.175C5.41733 14.3832 4.91339 14.7664 4.55708 15.2721C4.20077 15.7779 4.00952 16.3814 4.00952 17C4.00952 17.6186 4.20077 18.2221 4.55708 18.7279C4.91339 19.2336 5.41733 19.6168 5.99988 19.825V27C5.99988 27.2652 6.10524 27.5196 6.29277 27.7071C6.48031 27.8946 6.73466 28 6.99988 28C7.2651 28 7.51945 27.8946 7.70699 27.7071C7.89452 27.5196 7.99988 27.2652 7.99988 27V19.825C8.58243 19.6168 9.08637 19.2336 9.44268 18.7279C9.79899 18.2221 9.99024 17.6186 9.99024 17C9.99024 16.3814 9.79899 15.7779 9.44268 15.2721C9.08637 14.7664 8.58243 14.3832 7.99988 14.175Z" fill="#344054"/>
</svg>
