<svg width="32" height="32" viewBox="0 0 32 32" fill="none" xmlns="http://www.w3.org/2000/svg">
<path d="M28.075 8.92499C27.9815 8.83225 27.8706 8.75884 27.7486 8.70896C27.6267 8.65908 27.4961 8.63371 27.3644 8.63429C27.2326 8.63487 27.1023 8.66139 26.9808 8.71234C26.8593 8.76329 26.749 8.83768 26.6563 8.93124C26.5635 9.02481 26.4901 9.13573 26.4403 9.25767C26.3904 9.3796 26.365 9.51017 26.3656 9.64191C26.3662 9.77366 26.3927 9.904 26.4436 10.0255C26.4946 10.147 26.569 10.2572 26.6625 10.35C28.1594 11.8519 28.9999 13.8858 28.9999 16.0062C28.9999 18.1267 28.1594 20.1606 26.6625 21.6625C26.5684 21.7545 26.4936 21.8643 26.4426 21.9856C26.3915 22.1069 26.3652 22.2372 26.3652 22.3687C26.3652 22.5003 26.3915 22.6306 26.4426 22.7519C26.4936 22.8732 26.5684 22.983 26.6625 23.075C26.8492 23.2588 27.1006 23.3621 27.3625 23.3625C27.6281 23.3614 27.8831 23.2585 28.075 23.075C29.9467 21.1961 30.9976 18.6521 30.9976 16C30.9976 13.3479 29.9467 10.8039 28.075 8.92499Z" fill="#344054"/>
<path d="M19.4375 3.10001C19.2694 3.01892 19.082 2.98648 18.8964 3.00636C18.7109 3.02624 18.5346 3.09765 18.3875 3.21251L9.6625 10H4C3.46957 10 2.96086 10.2107 2.58579 10.5858C2.21071 10.9609 2 11.4696 2 12V20C2 20.5304 2.21071 21.0392 2.58579 21.4142C2.96086 21.7893 3.46957 22 4 22H9.6625L18.3875 28.7875C18.5629 28.9236 18.7781 28.9982 19 29C19.1513 28.9982 19.3004 28.9641 19.4375 28.9C19.6082 28.8204 19.7521 28.693 19.8519 28.5333C19.9518 28.3735 20.0032 28.1883 20 28V4.00001C19.9987 3.81264 19.9454 3.6293 19.8461 3.47041C19.7468 3.31151 19.6054 3.18329 19.4375 3.10001ZM4 12H9V20H4V12Z" fill="#344054"/>
<path d="M23.1249 12.4625C23.0308 12.5545 22.956 12.6643 22.905 12.7856C22.8539 12.9069 22.8276 13.0372 22.8276 13.1688C22.8276 13.3003 22.8539 13.4306 22.905 13.5519C22.956 13.6732 23.0308 13.783 23.1249 13.875C23.6867 14.4395 24.0021 15.2036 24.0021 16C24.0021 16.7964 23.6867 17.5605 23.1249 18.125C23.0308 18.217 22.956 18.3268 22.905 18.4481C22.8539 18.5694 22.8276 18.6997 22.8276 18.8313C22.8276 18.9628 22.8539 19.0931 22.905 19.2144C22.956 19.3357 23.0308 19.4455 23.1249 19.5375C23.2157 19.6308 23.3247 19.7045 23.4451 19.754C23.5655 19.8034 23.6948 19.8276 23.8249 19.825C23.957 19.8278 24.0882 19.8038 24.2107 19.7544C24.3332 19.705 24.4443 19.6312 24.5374 19.5375C25.4733 18.598 25.9987 17.326 25.9987 16C25.9987 14.674 25.4733 13.402 24.5374 12.4625C24.35 12.2755 24.096 12.1705 23.8312 12.1705C23.5664 12.1705 23.3124 12.2755 23.1249 12.4625Z" fill="#344054"/>
</svg>
