<svg width="32" height="32" viewBox="0 0 32 32" fill="none" xmlns="http://www.w3.org/2000/svg">
<path d="M16 2.5C13.33 2.5 10.7199 3.29176 8.49981 4.77516C6.27974 6.25856 4.54942 8.36697 3.52763 10.8338C2.50585 13.3006 2.2385 16.015 2.7594 18.6337C3.28031 21.2525 4.56606 23.6579 6.45406 25.5459C8.34207 27.434 10.7475 28.7197 13.3663 29.2406C15.985 29.7615 18.6994 29.4942 21.1662 28.4724C23.633 27.4506 25.7414 25.7203 27.2248 23.5002C28.7082 21.2801 29.5 18.67 29.5 16C29.4967 12.4206 28.0733 8.98874 25.5423 6.45771C23.0113 3.92669 19.5794 2.50331 16 2.5ZM16 27C13.8244 27 11.6977 26.3549 9.88873 25.1462C8.07979 23.9375 6.6699 22.2195 5.83733 20.2095C5.00477 18.1995 4.78693 15.9878 5.21137 13.854C5.63581 11.7202 6.68345 9.7602 8.22183 8.22183C9.76021 6.68345 11.7202 5.6358 13.854 5.21136C15.9878 4.78692 18.1995 5.00476 20.2095 5.83733C22.2195 6.66989 23.9375 8.07979 25.1462 9.88873C26.3549 11.6977 27 13.8244 27 16C26.9967 18.9164 25.8367 21.7123 23.7745 23.7745C21.7123 25.8367 18.9164 26.9967 16 27ZM16 7C14.22 7 12.4799 7.52784 10.9999 8.51677C9.51983 9.50571 8.36628 10.9113 7.68509 12.5558C7.0039 14.2004 6.82567 16.01 7.17294 17.7558C7.52021 19.5016 8.37737 21.1053 9.63604 22.364C10.8947 23.6226 12.4984 24.4798 14.2442 24.8271C15.99 25.1743 17.7996 24.9961 19.4442 24.3149C21.0887 23.6337 22.4943 22.4802 23.4832 21.0001C24.4722 19.5201 25 17.78 25 16C24.9967 13.6141 24.0474 11.3268 22.3603 9.63969C20.6732 7.95258 18.3859 7.00331 16 7ZM16 20C16.6213 20.002 17.2345 19.8582 17.7902 19.5804C18.3459 19.3025 18.8288 18.8982 19.2 18.4C19.3611 18.1906 19.5977 18.0524 19.8593 18.0151C20.1209 17.9777 20.3867 18.0441 20.6 18.2C20.8122 18.3591 20.9524 18.596 20.99 18.8586C21.0275 19.1211 20.9591 19.3878 20.8 19.6C20.0444 20.6074 18.991 21.3516 17.789 21.7271C16.587 22.1026 15.2973 22.0903 14.1026 21.6921C12.908 21.2939 11.8689 20.5299 11.1326 19.5083C10.3962 18.4867 10 17.2593 10 16C10 14.7407 10.3962 13.5133 11.1326 12.4917C11.8689 11.4701 12.908 10.7061 14.1026 10.3079C15.2973 9.90968 16.587 9.89744 17.789 10.2729C18.991 10.6484 20.0444 11.3926 20.8 12.4C20.9591 12.6122 21.0275 12.8789 20.99 13.1414C20.9524 13.404 20.8122 13.6409 20.6 13.8C20.3867 13.9559 20.1209 14.0223 19.8593 13.9849C19.5977 13.9476 19.3611 13.8094 19.2 13.6C18.7909 13.0545 18.2492 12.6227 17.6262 12.3455C17.0033 12.0683 16.3199 11.9549 15.6408 12.0162C14.9617 12.0774 14.3096 12.3112 13.7463 12.6954C13.183 13.0795 12.7272 13.6013 12.4223 14.2111C12.1174 14.821 11.9734 15.4987 12.004 16.1798C12.0347 16.8609 12.2389 17.5229 12.5974 18.1029C12.9559 18.6829 13.4566 19.1617 14.0521 19.4937C14.6477 19.8257 15.3182 20 16 20Z" fill="#344054"/>
</svg>
