<svg width="32" height="32" viewBox="0 0 32 32" fill="none" xmlns="http://www.w3.org/2000/svg">
<path d="M16 3C13.4288 3 10.9154 3.76244 8.77759 5.1909C6.63975 6.61935 4.97351 8.64968 3.98957 11.0251C3.00563 13.4006 2.74819 16.0144 3.2498 18.5362C3.75141 21.0579 4.98953 23.3743 6.80762 25.1924C8.6257 27.0105 10.9421 28.2486 13.4638 28.7502C15.9856 29.2518 18.5995 28.9944 20.9749 28.0104C23.3503 27.0265 25.3807 25.3603 26.8091 23.2224C28.2376 21.0846 29 18.5712 29 16C28.9934 12.5542 27.6216 9.25145 25.1851 6.81491C22.7486 4.37837 19.4458 3.00661 16 3ZM20.5 20C20.5014 20.1817 20.4532 20.3603 20.3607 20.5166C20.2682 20.673 20.1349 20.8012 19.975 20.8875C19.8275 20.9614 19.6649 20.9999 19.5 21C19.3054 20.996 19.1155 20.9399 18.95 20.8375L13.5 17.2V20C13.5 20.2652 13.3946 20.5196 13.2071 20.7071C13.0196 20.8946 12.7652 21 12.5 21C12.2348 21 11.9804 20.8946 11.7929 20.7071C11.6054 20.5196 11.5 20.2652 11.5 20V12C11.5 11.7348 11.6054 11.4804 11.7929 11.2929C11.9804 11.1054 12.2348 11 12.5 11C12.7652 11 13.0196 11.1054 13.2071 11.2929C13.3946 11.4804 13.5 11.7348 13.5 12V14.8L18.95 11.1625C19.1019 11.066 19.2762 11.0107 19.4559 11.0019C19.6356 10.9931 19.8145 11.0312 19.975 11.1125C20.1349 11.1988 20.2682 11.327 20.3607 11.4834C20.4532 11.6397 20.5014 11.8183 20.5 12V20Z" fill="#344054"/>
</svg>
