<svg width="32" height="32" viewBox="0 0 32 32" fill="none" xmlns="http://www.w3.org/2000/svg">
<path d="M9.00002 13H13V19H9.00002V13ZM29 7V27C29.001 27.1706 28.9578 27.3386 28.8746 27.4876C28.7913 27.6366 28.6709 27.7614 28.525 27.85C28.3803 27.941 28.2147 27.9933 28.044 28.0021C27.8733 28.0108 27.7033 27.9757 27.55 27.9L24 26.1125L20.45 27.9C20.3091 27.9659 20.1555 28 20 28C19.8445 28 19.6909 27.9659 19.55 27.9L16 26.1125L12.45 27.9C12.3096 27.9676 12.1558 28.0027 12 28.0027C11.8442 28.0027 11.6904 27.9676 11.55 27.9L8.00002 26.1125L4.45002 27.9C4.29677 27.9757 4.12669 28.0108 3.956 28.0021C3.78531 27.9933 3.61972 27.941 3.47502 27.85C3.32915 27.7614 3.20872 27.6366 3.12547 27.4876C3.04222 27.3386 2.999 27.1706 3.00002 27V7C3.00002 6.46957 3.21073 5.96086 3.5858 5.58579C3.96088 5.21071 4.46958 5 5.00002 5H27C27.5305 5 28.0392 5.21071 28.4142 5.58579C28.7893 5.96086 29 6.46957 29 7ZM15 12C15 11.7348 14.8947 11.4804 14.7071 11.2929C14.5196 11.1054 14.2652 11 14 11H8.00002C7.7348 11 7.48045 11.1054 7.29291 11.2929C7.10537 11.4804 7.00002 11.7348 7.00002 12V20C7.00002 20.2652 7.10537 20.5196 7.29291 20.7071C7.48045 20.8946 7.7348 21 8.00002 21H14C14.2652 21 14.5196 20.8946 14.7071 20.7071C14.8947 20.5196 15 20.2652 15 20V12ZM25 18C25 17.7348 24.8947 17.4804 24.7071 17.2929C24.5196 17.1054 24.2652 17 24 17H18C17.7348 17 17.4804 17.1054 17.2929 17.2929C17.1054 17.4804 17 17.7348 17 18C17 18.2652 17.1054 18.5196 17.2929 18.7071C17.4804 18.8946 17.7348 19 18 19H24C24.2652 19 24.5196 18.8946 24.7071 18.7071C24.8947 18.5196 25 18.2652 25 18ZM25 14C25 13.7348 24.8947 13.4804 24.7071 13.2929C24.5196 13.1054 24.2652 13 24 13H18C17.7348 13 17.4804 13.1054 17.2929 13.2929C17.1054 13.4804 17 13.7348 17 14C17 14.2652 17.1054 14.5196 17.2929 14.7071C17.4804 14.8946 17.7348 15 18 15H24C24.2652 15 24.5196 14.8946 24.7071 14.7071C24.8947 14.5196 25 14.2652 25 14Z" fill="#344054"/>
</svg>
