<svg width="32" height="32" viewBox="0 0 32 32" fill="none" xmlns="http://www.w3.org/2000/svg">
<path d="M29.1875 16V26C29.1842 27.3251 28.6564 28.5949 27.7194 29.5319C26.7824 30.4688 25.5126 30.9967 24.1875 31H17C16.7348 31 16.4804 30.8946 16.2929 30.7071C16.1054 30.5196 16 30.2652 16 30C16 29.7348 16.1054 29.4804 16.2929 29.2929C16.4804 29.1053 16.7348 29 17 29H24.1875C24.9821 28.9967 25.7433 28.6796 26.3052 28.1177C26.8671 27.5558 27.1842 26.7946 27.1875 26V25.825C26.8668 25.9407 26.5284 25.9999 26.1875 26H24.1875C23.3919 26 22.6288 25.6839 22.0662 25.1213C21.5036 24.5587 21.1875 23.7956 21.1875 23V18C21.1875 17.2043 21.5036 16.4413 22.0662 15.8787C22.6288 15.3161 23.3919 15 24.1875 15H27.1375C26.8868 12.2528 25.613 9.70002 23.5686 7.84782C21.5243 5.99561 18.8586 4.97917 16.1 4.99999H16.0875C13.3273 4.97337 10.6584 5.98782 8.61283 7.84114C6.56722 9.69447 5.29509 12.2506 5.05 15H8C8.79464 15.0033 9.55579 15.3204 10.1177 15.8823C10.6796 16.4442 10.9967 17.2054 11 18V23C10.9967 23.7946 10.6796 24.5558 10.1177 25.1177C9.55579 25.6796 8.79464 25.9967 8 26H6C5.20536 25.9967 4.44421 25.6796 3.88231 25.1177C3.32042 24.5558 3.00329 23.7946 3 23V16C2.99996 14.2854 3.33909 12.5878 3.99787 11.0048C4.65665 9.42185 5.62205 7.98484 6.8385 6.77653C8.05494 5.56821 9.49839 4.61247 11.0857 3.96433C12.6731 3.31619 14.373 2.98845 16.0875 2.99999H16.1875C19.6343 3.0033 22.939 4.374 25.3762 6.81126C27.8135 9.24851 29.1842 12.5532 29.1875 16Z" fill="#344054"/>
</svg>
