<svg width="32" height="32" viewBox="0 0 32 32" fill="none" xmlns="http://www.w3.org/2000/svg">
<path d="M7 4C7.26522 4 7.51957 4.10536 7.70711 4.29289C7.89464 4.48043 8 4.73478 8 5V14.2125L22.9625 5.075C23.266 4.89085 23.613 4.79079 23.968 4.78511C24.3229 4.77942 24.673 4.86832 24.9822 5.04266C25.2915 5.217 25.5487 5.47051 25.7276 5.77715C25.9064 6.08379 26.0005 6.43251 26 6.7875V25.2125C26.002 25.5693 25.9079 25.9202 25.7275 26.2281C25.5472 26.536 25.2872 26.7897 24.975 26.9625C24.6779 27.1308 24.3414 27.2171 24 27.2125C23.6346 27.212 23.2761 27.1127 22.9625 26.925L8 17.7875V27C8 27.2652 7.89464 27.5196 7.70711 27.7071C7.51957 27.8946 7.26522 28 7 28C6.73478 28 6.48043 27.8946 6.29289 27.7071C6.10536 27.5196 6 27.2652 6 27V5C6 4.73478 6.10536 4.48043 6.29289 4.29289C6.48043 4.10536 6.73478 4 7 4Z" fill="#344054"/>
</svg>
