<svg width="32" height="32" viewBox="0 0 32 32" fill="none" xmlns="http://www.w3.org/2000/svg">
<path d="M3 16C3 18.5712 3.76244 21.0846 5.1909 23.2224C6.61935 25.3603 8.64968 27.0265 11.0251 28.0104C13.4006 28.9944 16.0144 29.2518 18.5362 28.7502C21.0579 28.2486 23.3743 27.0105 25.1924 25.1924C27.0105 23.3743 28.2486 21.0579 28.7502 18.5362C29.2518 16.0144 28.9944 13.4006 28.0104 11.0251C27.0265 8.64968 25.3603 6.61935 23.2224 5.1909C21.0846 3.76244 18.5712 3 16 3C12.5542 3.00661 9.25145 4.37837 6.81491 6.81491C4.37837 9.25145 3.00661 12.5542 3 16ZM8.5 16C8.50095 15.8387 8.53994 15.68 8.61378 15.5366C8.68763 15.3933 8.79426 15.2694 8.925 15.175L13.925 11.675C14.0756 11.5705 14.252 11.5094 14.435 11.4984C14.618 11.4873 14.8004 11.5268 14.9625 11.6125C15.1238 11.6982 15.2589 11.8259 15.3536 11.9822C15.4482 12.1384 15.4988 12.3173 15.5 12.5V16C15.501 15.8387 15.5399 15.68 15.6138 15.5366C15.6876 15.3933 15.7943 15.2694 15.925 15.175L20.925 11.675C21.0756 11.5705 21.252 11.5094 21.435 11.4984C21.618 11.4873 21.8004 11.5268 21.9625 11.6125C22.1238 11.6982 22.2589 11.8259 22.3536 11.9822C22.4482 12.1384 22.4988 12.3173 22.5 12.5V19.5C22.5 19.7652 22.3946 20.0196 22.2071 20.2071C22.0196 20.3946 21.7652 20.5 21.5 20.5C21.2956 20.4975 21.0961 20.4368 20.925 20.325L15.925 16.825C15.7943 16.7306 15.6876 16.6067 15.6138 16.4634C15.5399 16.32 15.501 16.1613 15.5 16V19.5C15.5 19.7652 15.3946 20.0196 15.2071 20.2071C15.0196 20.3946 14.7652 20.5 14.5 20.5C14.2956 20.4975 14.0961 20.4368 13.925 20.325L8.925 16.825C8.79426 16.7306 8.68763 16.6067 8.61378 16.4634C8.53994 16.32 8.50095 16.1613 8.5 16Z" fill="#344054"/>
</svg>
