<svg width="32" height="32" viewBox="0 0 32 32" fill="none" xmlns="http://www.w3.org/2000/svg">
<path d="M1.26259 14.3125L12.4126 7.15001C12.7152 6.95396 13.0651 6.84335 13.4254 6.82989C13.7857 6.81642 14.1429 6.9006 14.4593 7.07352C14.7757 7.24643 15.0394 7.50165 15.2226 7.81218C15.4059 8.1227 15.5017 8.47697 15.5001 8.83751V14.1625L26.4126 7.15001C26.7152 6.95396 27.0651 6.84335 27.4254 6.82989C27.7857 6.81642 28.1429 6.9006 28.4593 7.07352C28.7757 7.24643 29.0394 7.50165 29.2226 7.81218C29.4059 8.1227 29.5017 8.47697 29.5001 8.83751V23.1625C29.5004 23.5222 29.4044 23.8754 29.2219 24.1854C29.0395 24.4953 28.7773 24.7507 28.4626 24.925C28.144 25.0924 27.7872 25.1736 27.4276 25.1604C27.068 25.1473 26.7181 25.0403 26.4126 24.85L15.5001 17.8375V23.1625C15.5004 23.5222 15.4044 23.8754 15.2219 24.1854C15.0395 24.4953 14.7773 24.7507 14.4626 24.925C14.144 25.0924 13.7872 25.1736 13.4276 25.1604C13.068 25.1473 12.7181 25.0403 12.4126 24.85L1.26259 17.6875C0.981429 17.5048 0.750373 17.2547 0.590418 16.96C0.430463 16.6653 0.34668 16.3353 0.34668 16C0.34668 15.6647 0.430463 15.3347 0.590418 15.04C0.750373 14.7453 0.981429 14.4952 1.26259 14.3125Z" fill="#344054"/>
</svg>
