<svg width="32" height="32" viewBox="0 0 32 32" fill="none" xmlns="http://www.w3.org/2000/svg">
<path d="M26.2875 7.0375L16.2875 4.0375C16.137 3.99509 15.9787 3.98768 15.8249 4.01585C15.6711 4.04401 15.5257 4.107 15.4 4.2C15.2765 4.29381 15.1762 4.41473 15.1069 4.55344C15.0375 4.69214 15.001 4.84492 15 5V18.5375C13.9052 17.5439 12.4785 16.9955 11 17C9.81331 17 8.65328 17.3519 7.66658 18.0112C6.67989 18.6705 5.91085 19.6075 5.45673 20.7039C5.0026 21.8003 4.88378 23.0067 5.11529 24.1705C5.3468 25.3344 5.91825 26.4035 6.75736 27.2426C7.59648 28.0818 8.66558 28.6532 9.82946 28.8847C10.9933 29.1162 12.1997 28.9974 13.2961 28.5433C14.3925 28.0892 15.3295 27.3201 15.9888 26.3334C16.6481 25.3467 17 24.1867 17 23V12.35L25.7125 14.9625C25.863 15.0049 26.0213 15.0123 26.1751 14.9842C26.3289 14.956 26.4743 14.893 26.6 14.8C26.7235 14.7062 26.8238 14.5853 26.8931 14.4466C26.9625 14.3079 26.999 14.1551 27 14V8C26.999 7.78465 26.9294 7.57521 26.8013 7.40212C26.6732 7.22903 26.4932 7.10131 26.2875 7.0375Z" fill="#344054"/>
</svg>
