<svg width="32" height="32" viewBox="0 0 32 32" fill="none" xmlns="http://www.w3.org/2000/svg">
<path d="M6.7375 4.32499C6.55683 4.13598 6.30933 4.02525 6.048 4.01652C5.78668 4.00779 5.53234 4.10176 5.33946 4.27829C5.14658 4.45482 5.03052 4.69987 5.01613 4.96094C5.00175 5.22201 5.09019 5.47834 5.2625 5.67499L9.2 9.99999H4C3.46957 9.99999 2.96086 10.2107 2.58579 10.5858C2.21071 10.9608 2 11.4696 2 12V20C2 20.5304 2.21071 21.0391 2.58579 21.4142C2.96086 21.7893 3.46957 22 4 22H9.6625L18.3875 28.7875C18.5619 28.9252 18.7777 29.0001 19 29C19.1513 28.9982 19.3004 28.9641 19.4375 28.9C19.6063 28.8179 19.7485 28.6899 19.848 28.5308C19.9475 28.3716 20.0001 28.1877 20 28V21.8875L25.2625 27.675C25.3562 27.7774 25.4701 27.8591 25.5971 27.9151C25.724 27.971 25.8612 27.9999 26 28C26.2494 27.9975 26.4894 27.9042 26.675 27.7375C26.7733 27.6498 26.853 27.5432 26.9095 27.4242C26.966 27.3052 26.9981 27.176 27.004 27.0444C27.0098 26.9128 26.9892 26.7813 26.9435 26.6578C26.8977 26.5342 26.8277 26.4211 26.7375 26.325L6.7375 4.32499ZM9 20H4V12H9V20Z" fill="#344054"/>
<path d="M18.2624 14.025C18.3556 14.128 18.4694 14.2102 18.5965 14.2662C18.7236 14.3222 18.861 14.3507 18.9999 14.35C19.1237 14.3536 19.247 14.3324 19.3624 14.2875C19.5511 14.2141 19.713 14.0852 19.8268 13.9178C19.9407 13.7504 20.001 13.5524 19.9999 13.35V3.99999C19.9994 3.8132 19.9465 3.63029 19.8473 3.472C19.7481 3.31371 19.6066 3.18637 19.4387 3.10439C19.2709 3.02242 19.0834 2.9891 18.8976 3.00821C18.7118 3.02731 18.5351 3.09808 18.3874 3.21249L13.3999 7.08749C13.294 7.17336 13.2063 7.2795 13.1419 7.3997C13.0775 7.5199 13.0377 7.65174 13.0249 7.78749C13.0124 7.92492 13.0282 8.06344 13.0711 8.19457C13.1141 8.32569 13.1835 8.44664 13.2749 8.54999L18.2624 14.025Z" fill="#344054"/>
<path d="M28.0626 8.925C27.8751 8.73799 27.6211 8.63297 27.3563 8.63297C27.0915 8.63297 26.8375 8.73799 26.6501 8.925C26.4623 9.1146 26.3569 9.37066 26.3569 9.6375C26.3569 9.90435 26.4623 10.1604 26.6501 10.35C27.3942 11.092 27.9847 11.9736 28.3875 12.9442C28.7904 13.9148 28.9978 14.9554 28.9978 16.0063C28.9978 17.0571 28.7904 18.0977 28.3875 19.0683C27.9847 20.0389 27.3942 20.9205 26.6501 21.6625C26.463 21.85 26.358 22.104 26.358 22.3688C26.358 22.6335 26.463 22.8875 26.6501 23.075C26.842 23.2585 27.097 23.3614 27.3626 23.3625C27.6245 23.3621 27.8759 23.2588 28.0626 23.075C28.9938 22.1471 29.7327 21.0445 30.2369 19.8304C30.7411 18.6163 31.0006 17.3146 31.0006 16C31.0006 14.6854 30.7411 13.3837 30.2369 12.1696C29.7327 10.9555 28.9938 9.8529 28.0626 8.925Z" fill="#344054"/>
<path d="M24.0001 16C24.0008 16.3954 23.9227 16.787 23.7703 17.1519C23.6179 17.5167 23.3943 17.8475 23.1126 18.125C22.9748 18.2655 22.8816 18.4436 22.8446 18.6369C22.8076 18.8301 22.8284 19.03 22.9045 19.2115C22.9805 19.393 23.1085 19.548 23.2722 19.6572C23.436 19.7663 23.6283 19.8247 23.8251 19.825C23.9571 19.8278 24.0884 19.8038 24.2109 19.7544C24.3333 19.705 24.4445 19.6312 24.5376 19.5375C25.4734 18.598 25.9989 17.326 25.9989 16C25.9989 14.674 25.4734 13.402 24.5376 12.4625C24.348 12.2747 24.0919 12.1694 23.8251 12.1694C23.5582 12.1694 23.3022 12.2747 23.1126 12.4625C22.9256 12.65 22.8206 12.904 22.8206 13.1687C22.8206 13.4335 22.9256 13.6875 23.1126 13.875C23.3943 14.1524 23.6179 14.4833 23.7703 14.8481C23.9227 15.213 24.0008 15.6046 24.0001 16Z" fill="#344054"/>
</svg>
