<svg width="32" height="32" viewBox="0 0 32 32" fill="none" xmlns="http://www.w3.org/2000/svg">
<path d="M21 12.5C21 12.8978 20.842 13.2794 20.5607 13.5607C20.2794 13.842 19.8978 14 19.5 14C19.1022 14 18.7206 13.842 18.4393 13.5607C18.158 13.2794 18 12.8978 18 12.5C18 12.1022 18.158 11.7206 18.4393 11.4393C18.7206 11.158 19.1022 11 19.5 11C19.8978 11 20.2794 11.158 20.5607 11.4393C20.842 11.7206 21 12.1022 21 12.5ZM29 7V23V25C29 25.5304 28.7893 26.0391 28.4142 26.4142C28.0391 26.7893 27.5304 27 27 27H5C4.46957 27 3.96086 26.7893 3.58579 26.4142C3.21071 26.0391 3 25.5304 3 25V21V7C3 6.46957 3.21071 5.96086 3.58579 5.58579C3.96086 5.21071 4.46957 5 5 5H27C27.5304 5 28.0391 5.21071 28.4142 5.58579C28.7893 5.96086 29 6.46957 29 7ZM27 20.5875V7H5V18.5875L9.5875 14C9.96403 13.629 10.4714 13.421 11 13.421C11.5286 13.421 12.036 13.629 12.4125 14L18 19.5875L20.5875 17C20.964 16.629 21.4714 16.421 22 16.421C22.5286 16.421 23.036 16.629 23.4125 17L27 20.5875Z" fill="#344054"/>
</svg>
