<svg width="32" height="32" viewBox="0 0 32 32" fill="none" xmlns="http://www.w3.org/2000/svg">
<path d="M17 8C16.7348 8 16.4804 8.10536 16.2929 8.29289C16.1054 8.48043 16 8.73478 16 9V23C16 23.2652 16.1054 23.5196 16.2929 23.7071C16.4804 23.8946 16.7348 24 17 24C17.2652 24 17.5196 23.8946 17.7071 23.7071C17.8946 23.5196 18 23.2652 18 23V9C18 8.73478 17.8946 8.48043 17.7071 8.29289C17.5196 8.10536 17.2652 8 17 8Z" fill="#344054"/>
<path d="M28.5 8H22.5C22.2348 8 21.9804 8.10536 21.7929 8.29289C21.6054 8.48043 21.5 8.73478 21.5 9V23C21.5 23.2652 21.6054 23.5196 21.7929 23.7071C21.9804 23.8946 22.2348 24 22.5 24C22.7652 24 23.0196 23.8946 23.2071 23.7071C23.3946 23.5196 23.5 23.2652 23.5 23V17H27C27.2652 17 27.5196 16.8946 27.7071 16.7071C27.8946 16.5196 28 16.2652 28 16C28 15.7348 27.8946 15.4804 27.7071 15.2929C27.5196 15.1054 27.2652 15 27 15H23.5V10H28.5C28.7652 10 29.0196 9.89464 29.2071 9.70711C29.3946 9.51957 29.5 9.26522 29.5 9C29.5 8.73478 29.3946 8.48043 29.2071 8.29289C29.0196 8.10536 28.7652 8 28.5 8Z" fill="#344054"/>
<path d="M12 15H9C8.73478 15 8.48043 15.1054 8.29289 15.2929C8.10536 15.4804 8 15.7348 8 16C8 16.2652 8.10536 16.5196 8.29289 16.7071C8.48043 16.8947 8.73478 17 9 17H11V19C11 19.7957 10.6839 20.5587 10.1213 21.1213C9.55871 21.6839 8.79565 22 8 22C7.20435 22 6.44129 21.6839 5.87868 21.1213C5.31607 20.5587 5 19.7957 5 19V13C5.00434 12.273 5.27256 11.5723 5.75477 11.0282C6.23699 10.484 6.90039 10.1336 7.62163 10.0419C8.34288 9.9502 9.07287 10.1236 9.67588 10.5297C10.2789 10.9359 10.7139 11.5472 10.9 12.25C10.9663 12.5069 11.132 12.727 11.3605 12.8618C11.5891 12.9966 11.8618 13.0351 12.1187 12.9688C12.3757 12.9025 12.5957 12.7368 12.7305 12.5083C12.8653 12.2797 12.9038 12.0069 12.8375 11.75C12.5304 10.575 11.8062 9.55195 10.8 8.87184C9.79382 8.19174 8.5745 7.90109 7.36972 8.05418C6.16494 8.20726 5.05706 8.79361 4.25295 9.70374C3.44884 10.6139 3.00347 11.7856 3 13V19C3 20.3261 3.52678 21.5979 4.46447 22.5356C5.40215 23.4732 6.67392 24 8 24C9.32608 24 10.5979 23.4732 11.5355 22.5356C12.4732 21.5979 13 20.3261 13 19V16C13 15.7348 12.8946 15.4804 12.7071 15.2929C12.5196 15.1054 12.2652 15 12 15Z" fill="#344054"/>
</svg>
