<svg width="32" height="32" viewBox="0 0 32 32" fill="none" xmlns="http://www.w3.org/2000/svg">
<path d="M4 8C4 7.73478 4.10536 7.48043 4.29289 7.29289C4.48043 7.10536 4.73478 7 5 7H27C27.2652 7 27.5196 7.10536 27.7071 7.29289C27.8946 7.48043 28 7.73478 28 8C28 8.26522 27.8946 8.51957 27.7071 8.70711C27.5196 8.89464 27.2652 9 27 9H5C4.73478 9 4.48043 8.89464 4.29289 8.70711C4.10536 8.51957 4 8.26522 4 8ZM17 15H5C4.73478 15 4.48043 15.1054 4.29289 15.2929C4.10536 15.4804 4 15.7348 4 16C4 16.2652 4.10536 16.5196 4.29289 16.7071C4.48043 16.8946 4.73478 17 5 17H17C17.2652 17 17.5196 16.8946 17.7071 16.7071C17.8946 16.5196 18 16.2652 18 16C18 15.7348 17.8946 15.4804 17.7071 15.2929C17.5196 15.1054 17.2652 15 17 15ZM17 23H5C4.73478 23 4.48043 23.1054 4.29289 23.2929C4.10536 23.4804 4 23.7348 4 24C4 24.2652 4.10536 24.5196 4.29289 24.7071C4.48043 24.8946 4.73478 25 5 25H17C17.2652 25 17.5196 24.8946 17.7071 24.7071C17.8946 24.5196 18 24.2652 18 24C18 23.7348 17.8946 23.4804 17.7071 23.2929C17.5196 23.1054 17.2652 23 17 23ZM30.525 19.15L22.525 14.15C22.3736 14.0566 22.2 14.0053 22.0221 14.0013C21.8442 13.9974 21.6685 14.041 21.5131 14.1276C21.3577 14.2142 21.2283 14.3407 21.1381 14.4941C21.0479 14.6474 21.0002 14.8221 21 15V25C21.001 25.178 21.0488 25.3527 21.1388 25.5063C21.2288 25.6599 21.3577 25.7871 21.5125 25.875C21.6682 25.9613 21.8442 26.0046 22.0221 26.0002C22.2001 25.9958 22.3737 25.9439 22.525 25.85L30.525 20.85C30.6697 20.7603 30.7891 20.6352 30.8719 20.4864C30.9548 20.3377 30.9982 20.1702 30.9982 20C30.9982 19.8298 30.9548 19.6623 30.8719 19.5136C30.7891 19.3648 30.6697 19.2397 30.525 19.15Z" fill="#344054"/>
</svg>
