<svg width="32" height="32" viewBox="0 0 32 32" fill="none" xmlns="http://www.w3.org/2000/svg">
<path d="M3.00001 16C3.00332 13.6141 3.95259 11.3268 5.6397 9.6397C7.32681 7.95259 9.61408 7.00332 12 7.00001H24V5.00001C23.9994 4.80259 24.0572 4.6094 24.1662 4.44479C24.2752 4.28018 24.4305 4.15151 24.6125 4.07501C24.7972 4.00297 24.9986 3.98469 25.1932 4.0223C25.3879 4.0599 25.5679 4.15185 25.7125 4.28751L28.7125 7.28751C28.9003 7.47711 29.0056 7.73317 29.0056 8.00001C29.0056 8.26686 28.9003 8.52292 28.7125 8.71251L25.7125 11.7125C25.5206 11.896 25.2656 11.9989 25 12C24.8673 11.9994 24.7359 11.974 24.6125 11.925C24.4305 11.8485 24.2752 11.7198 24.1662 11.5552C24.0572 11.3906 23.9994 11.1974 24 11V9.00001H12C10.1435 9.00001 8.36302 9.73751 7.05026 11.0503C5.73751 12.363 5.00001 14.1435 5.00001 16C5.00001 16.2652 4.89465 16.5196 4.70712 16.7071C4.51958 16.8947 4.26523 17 4.00001 17C3.73479 17 3.48044 16.8947 3.2929 16.7071C3.10537 16.5196 3.00001 16.2652 3.00001 16ZM28 15C27.7348 15 27.4804 15.1054 27.2929 15.2929C27.1054 15.4804 27 15.7348 27 16C27 17.8565 26.2625 19.637 24.9498 20.9498C23.637 22.2625 21.8565 23 20 23H8.00001V21C8.00063 20.8026 7.94279 20.6094 7.83379 20.4448C7.7248 20.2802 7.56951 20.1515 7.38751 20.075C7.2028 20.003 7.00147 19.9847 6.8068 20.0223C6.61214 20.0599 6.4321 20.1519 6.28751 20.2875L3.28751 23.2875C3.09973 23.4771 2.99438 23.7332 2.99438 24C2.99438 24.2669 3.09973 24.5229 3.28751 24.7125L6.28751 27.7125C6.47947 27.896 6.73447 27.9989 7.00001 28C7.13273 27.9994 7.26416 27.974 7.38751 27.925C7.56951 27.8485 7.7248 27.7198 7.83379 27.5552C7.94279 27.3906 8.00063 27.1974 8.00001 27V25H20C22.3859 24.9967 24.6732 24.0474 26.3603 22.3603C28.0474 20.6732 28.9967 18.3859 29 16C29 15.7348 28.8947 15.4804 28.7071 15.2929C28.5196 15.1054 28.2652 15 28 15Z" fill="#344054"/>
</svg>
