<svg width="32" height="32" viewBox="0 0 32 32" fill="none" xmlns="http://www.w3.org/2000/svg">
<path d="M29 9.99999V25C29 25.5304 28.7893 26.0391 28.4142 26.4142C28.0391 26.7893 27.5304 27 27 27H5C4.46957 27 3.96086 26.7893 3.58579 26.4142C3.21071 26.0391 3 25.5304 3 25V9.99999C3 9.46956 3.21071 8.96085 3.58579 8.58578C3.96086 8.21071 4.46957 7.99999 5 7.99999H13.5875L9.2875 3.71249C9.12804 3.5182 9.04655 3.27153 9.05888 3.02048C9.07121 2.76943 9.17648 2.53194 9.35421 2.3542C9.53195 2.17647 9.76944 2.0712 10.0205 2.05887C10.2715 2.04654 10.5182 2.12803 10.7125 2.28749L16 7.58749L21.2875 2.28749C21.4818 2.12803 21.7285 2.04654 21.9795 2.05887C22.2306 2.0712 22.4681 2.17647 22.6458 2.3542C22.8235 2.53194 22.9288 2.76943 22.9411 3.02048C22.9535 3.27153 22.872 3.5182 22.7125 3.71249L18.4125 7.99999H27C27.5304 7.99999 28.0391 8.21071 28.4142 8.58578C28.7893 8.96085 29 9.46956 29 9.99999Z" fill="#344054"/>
</svg>
