<svg width="32" height="32" viewBox="0 0 32 32" fill="none" xmlns="http://www.w3.org/2000/svg">
<path d="M26.6125 3.21253C26.4946 3.11841 26.3566 3.05257 26.2093 3.02007C26.0619 2.98757 25.9091 2.98926 25.7625 3.02503L9.7625 7.02503C9.5444 7.07835 9.35059 7.20352 9.21228 7.38038C9.07396 7.55724 8.99919 7.7755 9 8.00003V21.7625C8.26279 21.2617 7.39122 20.9959 6.5 21C5.60999 21 4.73996 21.2639 3.99994 21.7584C3.25991 22.2529 2.68314 22.9557 2.34254 23.778C2.00195 24.6002 1.91283 25.505 2.08647 26.3779C2.2601 27.2508 2.68868 28.0527 3.31802 28.682C3.94736 29.3113 4.74918 29.7399 5.6221 29.9136C6.49501 30.0872 7.39981 29.9981 8.22208 29.6575C9.04434 29.3169 9.74715 28.7401 10.2416 28.0001C10.7361 27.2601 11 26.39 11 25.5V8.77503L25 5.27503V17.7625C24.2628 17.2617 23.3912 16.9959 22.5 17C21.61 17 20.74 17.2639 19.9999 17.7584C19.2599 18.2529 18.6831 18.9557 18.3425 19.778C18.0019 20.6002 17.9128 21.505 18.0865 22.3779C18.2601 23.2508 18.6887 24.0527 19.318 24.682C19.9474 25.3113 20.7492 25.7399 21.6221 25.9136C22.495 26.0872 23.3998 25.9981 24.2221 25.6575C25.0443 25.3169 25.7471 24.7401 26.2416 24.0001C26.7361 23.2601 27 22.39 27 21.5V4.00003C27.0015 3.84761 26.9672 3.69697 26.8999 3.56021C26.8326 3.42344 26.7342 3.30436 26.6125 3.21253Z" fill="#344054"/>
</svg>
