<svg width="32" height="32" viewBox="0 0 32 32" fill="none" xmlns="http://www.w3.org/2000/svg">
<path d="M16 7C14.22 7 12.4799 7.52784 10.9999 8.51677C9.51983 9.50571 8.36628 10.9113 7.68509 12.5558C7.0039 14.2004 6.82567 16.01 7.17294 17.7558C7.52021 19.5016 8.37737 21.1053 9.63604 22.364C10.8947 23.6226 12.4984 24.4798 14.2442 24.8271C15.99 25.1743 17.7996 24.9961 19.4442 24.3149C21.0887 23.6337 22.4943 22.4802 23.4832 21.0001C24.4722 19.5201 25 17.78 25 16C24.9967 13.6141 24.0474 11.3268 22.3603 9.63969C20.6732 7.95258 18.3859 7.00331 16 7ZM16 22C15.068 22.0029 14.1483 21.7873 13.3147 21.3706C12.4811 20.9538 11.7569 20.3473 11.2 19.6C11.1212 19.4949 11.0639 19.3754 11.0313 19.2482C10.9987 19.121 10.9915 18.9886 11.0101 18.8586C11.0286 18.7286 11.0726 18.6035 11.1395 18.4905C11.2064 18.3775 11.2949 18.2788 11.4 18.2C11.5051 18.1212 11.6246 18.0639 11.7518 18.0313C11.879 17.9987 12.0114 17.9915 12.1414 18.01C12.2714 18.0286 12.3965 18.0726 12.5095 18.1395C12.6225 18.2064 12.7212 18.2949 12.8 18.4C13.3037 19.0716 14.006 19.5677 14.8073 19.8181C15.6087 20.0684 16.4685 20.0602 17.2649 19.7947C18.0614 19.5293 18.7541 19.0199 19.245 18.3388C19.7359 17.6578 20 16.8395 20 16C20 15.1605 19.7359 14.3422 19.245 13.6612C18.7541 12.9801 18.0614 12.4707 17.2649 12.2053C16.4685 11.9398 15.6087 11.9316 14.8073 12.1819C14.006 12.4323 13.3037 12.9284 12.8 13.6C12.6389 13.8094 12.4023 13.9476 12.1407 13.9849C11.8791 14.0223 11.6133 13.9559 11.4 13.8C11.2949 13.7212 11.2064 13.6225 11.1395 13.5095C11.0726 13.3965 11.0286 13.2714 11.0101 13.1414C10.9915 13.0114 10.9987 12.879 11.0313 12.7518C11.0639 12.6246 11.1212 12.5051 11.2 12.4C11.8136 11.5818 12.6263 10.9341 13.5607 10.5183C14.4951 10.1024 15.5202 9.9324 16.5388 10.0242C17.5574 10.1161 18.5357 10.4668 19.3806 11.043C20.2256 11.6193 20.9092 12.402 21.3666 13.3167C21.824 14.2315 22.0399 15.248 21.9939 16.2697C21.948 17.2914 21.6416 18.2844 21.1039 19.1544C20.5662 20.0244 19.8151 20.7425 18.9218 21.2405C18.0285 21.7386 17.0227 22 16 22ZM16 2.5C13.33 2.5 10.7199 3.29176 8.49981 4.77516C6.27974 6.25856 4.54942 8.36697 3.52763 10.8338C2.50585 13.3006 2.2385 16.015 2.7594 18.6337C3.28031 21.2525 4.56606 23.6579 6.45406 25.5459C8.34207 27.434 10.7475 28.7197 13.3663 29.2406C15.985 29.7615 18.6994 29.4942 21.1662 28.4724C23.633 27.4506 25.7414 25.7203 27.2248 23.5002C28.7082 21.2801 29.5 18.67 29.5 16C29.4967 12.4206 28.0733 8.98874 25.5423 6.45771C23.0113 3.92669 19.5794 2.50331 16 2.5ZM16 27C13.8244 27 11.6977 26.3549 9.88873 25.1462C8.07979 23.9375 6.6699 22.2195 5.83733 20.2095C5.00477 18.1995 4.78693 15.9878 5.21137 13.854C5.63581 11.7202 6.68345 9.7602 8.22183 8.22183C9.76021 6.68345 11.7202 5.6358 13.854 5.21136C15.9878 4.78692 18.1995 5.00476 20.2095 5.83733C22.2195 6.66989 23.9375 8.07979 25.1462 9.88873C26.3549 11.6977 27 13.8244 27 16C26.9967 18.9164 25.8367 21.7123 23.7745 23.7745C21.7123 25.8367 18.9164 26.9967 16 27Z" fill="#344054"/>
</svg>
