<svg width="32" height="32" viewBox="0 0 32 32" fill="none" xmlns="http://www.w3.org/2000/svg">
<path d="M25.3375 7.77499C24.1364 6.57378 22.7097 5.62188 21.1394 4.97402C19.5691 4.32617 17.8862 3.99514 16.1875 3.99999H16.0875C14.373 3.98845 12.6731 4.31619 11.0857 4.96433C9.49839 5.61247 8.05494 6.56821 6.8385 7.77653C5.62205 8.98484 4.65665 10.4218 3.99787 12.0048C3.33909 13.5878 2.99996 15.2854 3 17V24C3.00329 24.7946 3.32042 25.5558 3.88231 26.1177C4.44421 26.6796 5.20536 26.9967 6 27H8C8.79464 26.9967 9.55579 26.6796 10.1177 26.1177C10.6796 25.5558 10.9967 24.7946 11 24V19C10.9967 18.2054 10.6796 17.4442 10.1177 16.8823C9.55579 16.3204 8.79464 16.0033 8 16H5.05C5.29509 13.2506 6.56722 10.6945 8.61283 8.84114C10.6584 6.98782 13.3273 5.97337 16.0875 5.99999H16.1C18.8586 5.97917 21.5243 6.99561 23.5686 8.84781C25.613 10.7 26.8868 13.2528 27.1375 16H24.1875C23.3919 16 22.6288 16.3161 22.0662 16.8787C21.5036 17.4413 21.1875 18.2043 21.1875 19V24C21.1875 24.7956 21.5036 25.5587 22.0662 26.1213C22.6288 26.6839 23.3919 27 24.1875 27H26.1875C26.9821 26.9967 27.7433 26.6796 28.3052 26.1177C28.8671 25.5558 29.1842 24.7946 29.1875 24V17C29.1897 15.2838 28.8504 13.5844 28.1894 12.0006C27.5285 10.4169 26.559 8.98044 25.3375 7.77499Z" fill="#344054"/>
</svg>
