<svg width="32" height="32" viewBox="0 0 32 32" fill="none" xmlns="http://www.w3.org/2000/svg">
<path d="M29 16C28.9967 12.5532 27.626 9.24852 25.1887 6.81127C22.7515 4.37401 19.4468 3.00331 16 3C12.5532 3.00331 9.24852 4.37401 6.81127 6.81127C4.37401 9.24852 3.00331 12.5532 3 16C3.00331 19.4468 4.37401 22.7515 6.81127 25.1887C9.24852 27.626 12.5532 28.9967 16 29H16.0125C19.4571 28.9934 22.7586 27.6212 25.1932 25.1843C27.6277 22.7474 28.9967 19.4446 29 16ZM6.15 11.1125L12.55 12.2875L5.8375 20.1875C5.24063 18.7398 4.95975 17.1813 5.01365 15.6163C5.06754 14.0512 5.45496 12.5158 6.15 11.1125ZM26.1625 11.8125C26.7594 13.2602 27.0402 14.8187 26.9864 16.3838C26.9325 17.9488 26.545 19.4842 25.85 20.8875L19.45 19.7125L26.1625 11.8125ZM25.1625 9.9125L20.95 14.875L17.45 5.1C19.8476 5.40801 22.0736 6.50784 23.775 8.225C24.292 8.74034 24.7568 9.3056 25.1625 9.9125ZM15.3 5.025L17.4875 11.15L7.2875 9.2875C7.57949 8.91575 7.8925 8.56101 8.225 8.225C10.1099 6.32502 12.6285 5.18584 15.3 5.025ZM6.8375 22.0875L11.05 17.125L14.55 26.9C12.1524 26.592 9.92636 25.4922 8.225 23.775C7.70795 23.2597 7.24319 22.6944 6.8375 22.0875ZM16.7 26.975L14.5125 20.85L17.3875 21.375H17.4L24.7125 22.7125C24.4205 23.0842 24.1075 23.439 23.775 23.775C21.8901 25.675 19.3715 26.8142 16.7 26.975Z" fill="#344054"/>
</svg>
