<svg width="32" height="32" viewBox="0 0 32 32" fill="none" xmlns="http://www.w3.org/2000/svg">
<path d="M28.7375 28.325C28.8277 28.4211 28.8977 28.5342 28.9435 28.6578C28.9892 28.7813 29.0098 28.9128 29.004 29.0444C28.9981 29.176 28.966 29.3052 28.9095 29.4242C28.853 29.5432 28.7733 29.6498 28.675 29.7375C28.4894 29.9042 28.2494 29.9975 28 30C27.8612 30 27.724 29.971 27.5971 29.9151C27.4701 29.8591 27.3562 29.7774 27.2625 29.675L21.9625 23.85C21.8828 24.3124 21.6421 24.7318 21.2829 25.0338C20.9237 25.3358 20.4693 25.5009 20 25.5H3C2.46957 25.5 1.96086 25.2893 1.58579 24.9142C1.21071 24.5391 1 24.0304 1 23.5V8.49999C1 7.96956 1.21071 7.46085 1.58579 7.08578C1.96086 6.71071 2.46957 6.49999 3 6.49999H6.2L3.625 3.67499C3.44604 3.47937 3.35209 3.22068 3.36381 2.9558C3.37553 2.69093 3.49196 2.44155 3.6875 2.26249C3.78357 2.17233 3.89672 2.1023 4.02028 2.05654C4.14383 2.01077 4.27529 1.9902 4.40692 1.99602C4.53855 2.00185 4.66769 2.03395 4.78672 2.09045C4.90574 2.14695 5.01226 2.2267 5.1 2.32499L28.7375 28.325ZM30.6875 9.27499C30.5318 9.12541 30.3314 9.03097 30.1169 9.00614C29.9025 8.98131 29.6858 9.02745 29.5 9.13749L24.5 11.9875C24.3467 12.076 24.2196 12.2037 24.1317 12.3574C24.0439 12.5111 23.9984 12.6854 24 12.8625V19.1375C23.9984 19.3146 24.0439 19.4888 24.1317 19.6426C24.2196 19.7963 24.3467 19.924 24.5 20.0125L29.5 22.8625C29.6523 22.9499 29.8244 22.9972 30 23C30.1358 23.0006 30.2703 22.9731 30.3951 22.9193C30.5198 22.8656 30.6321 22.7866 30.725 22.6875C30.9073 22.4957 31.0062 22.2395 31 21.975V10.025C31.0033 9.88507 30.9772 9.74602 30.9234 9.61683C30.8695 9.48763 30.7892 9.37118 30.6875 9.27499ZM20.2625 16.025C20.4143 16.1914 20.6179 16.3018 20.8402 16.3381C21.0626 16.3744 21.2906 16.3345 21.4875 16.225C21.647 16.133 21.7788 15.9997 21.869 15.8391C21.9592 15.6785 22.0044 15.4966 22 15.3125V8.49999C22 7.96956 21.7893 7.46085 21.4142 7.08578C21.0391 6.71071 20.5304 6.49999 20 6.49999H13.8875C13.7299 6.49933 13.574 6.53376 13.4313 6.60079C13.2886 6.66781 13.1627 6.76574 13.0625 6.88749C12.9194 7.075 12.8472 7.30706 12.8586 7.54266C12.8701 7.77826 12.9644 8.00223 13.125 8.17499L20.2625 16.025Z" fill="#344054"/>
</svg>
