<svg width="32" height="32" viewBox="0 0 32 32" fill="none" xmlns="http://www.w3.org/2000/svg">
<path d="M29.7125 22.2875C29.9003 22.4771 30.0056 22.7332 30.0056 23C30.0056 23.2669 29.9003 23.5229 29.7125 23.7125L26.7125 26.7125C26.5205 26.896 26.2655 26.9989 26 27C25.8673 26.9994 25.7358 26.974 25.6125 26.925C25.4305 26.8485 25.2752 26.7198 25.1662 26.5552C25.0572 26.3906 24.9994 26.1974 25 26V24H21.5125C21.1948 23.9986 20.8819 23.922 20.5994 23.7764C20.317 23.6309 20.073 23.4205 19.8875 23.1625L10.4875 10H4C3.73478 10 3.48043 9.89466 3.29289 9.70712C3.10536 9.51958 3 9.26523 3 9.00001C3 8.7348 3.10536 8.48044 3.29289 8.29291C3.48043 8.10537 3.73478 8.00001 4 8.00001H10.4875C10.8052 8.00142 11.1181 8.07804 11.4006 8.2236C11.683 8.36917 11.927 8.57954 12.1125 8.83751L21.5125 22H25V20C24.9994 19.8026 25.0572 19.6094 25.1662 19.4448C25.2752 19.2802 25.4305 19.1515 25.6125 19.075C25.7972 19.003 25.9985 18.9847 26.1932 19.0223C26.3879 19.0599 26.5679 19.1519 26.7125 19.2875L29.7125 22.2875ZM17.875 13.375C17.9823 13.4519 18.1038 13.5067 18.2325 13.5364C18.3611 13.5661 18.4943 13.57 18.6245 13.5479C18.7546 13.5258 18.8791 13.4782 18.9908 13.4078C19.1024 13.3373 19.199 13.2455 19.275 13.1375L21.5125 10H25V12C24.9994 12.1974 25.0572 12.3906 25.1662 12.5552C25.2752 12.7198 25.4305 12.8485 25.6125 12.925C25.7358 12.974 25.8673 12.9994 26 13C26.2655 12.9989 26.5205 12.896 26.7125 12.7125L29.7125 9.71251C29.9003 9.52292 30.0056 9.26686 30.0056 9.00001C30.0056 8.73317 29.9003 8.47711 29.7125 8.28751L26.7125 5.28751C26.5679 5.15185 26.3879 5.0599 26.1932 5.0223C25.9985 4.98469 25.7972 5.00297 25.6125 5.07501C25.4305 5.15151 25.2752 5.28018 25.1662 5.44479C25.0572 5.6094 24.9994 5.80259 25 6.00001V8.00001H21.5125C21.1948 8.00142 20.8819 8.07804 20.5994 8.2236C20.317 8.36917 20.073 8.57954 19.8875 8.83751L17.65 11.975C17.5725 12.0816 17.5168 12.2024 17.4862 12.3306C17.4556 12.4587 17.4506 12.5917 17.4715 12.7218C17.4924 12.8519 17.5388 12.9766 17.608 13.0887C17.6773 13.2008 17.768 13.2981 17.875 13.375ZM14.125 18.625C14.0177 18.5482 13.8962 18.4933 13.7675 18.4636C13.6389 18.434 13.5057 18.4301 13.3755 18.4521C13.2454 18.4742 13.1209 18.5218 13.0092 18.5923C12.8976 18.6627 12.801 18.7546 12.725 18.8625L10.4875 22H4C3.73478 22 3.48043 22.1054 3.29289 22.2929C3.10536 22.4804 3 22.7348 3 23C3 23.2652 3.10536 23.5196 3.29289 23.7071C3.48043 23.8947 3.73478 24 4 24H10.4875C10.8052 23.9986 11.1181 23.922 11.4006 23.7764C11.683 23.6309 11.927 23.4205 12.1125 23.1625L14.35 20.025C14.4275 19.9184 14.4832 19.7976 14.5138 19.6694C14.5444 19.5413 14.5494 19.4083 14.5285 19.2782C14.5076 19.1481 14.4612 19.0235 14.392 18.9114C14.3227 18.7992 14.232 18.7019 14.125 18.625Z" fill="#344054"/>
</svg>
