<svg width="32" height="32" viewBox="0 0 32 32" fill="none" xmlns="http://www.w3.org/2000/svg">
<path d="M27 5H5C4.46957 5 3.96086 5.21071 3.58579 5.58579C3.21071 5.96086 3 6.46957 3 7V25C3 25.5304 3.21071 26.0391 3.58579 26.4142C3.96086 26.7893 4.46957 27 5 27H27C27.5304 27 28.0391 26.7893 28.4142 26.4142C28.7893 26.0391 29 25.5304 29 25V7C29 6.46957 28.7893 5.96086 28.4142 5.58579C28.0391 5.21071 27.5304 5 27 5ZM12 18.5C12.3331 18.5017 12.6631 18.4362 12.9702 18.3073C13.2774 18.1784 13.5554 17.9889 13.7875 17.75C13.9762 17.5757 14.2246 17.4807 14.4814 17.4847C14.7382 17.4886 14.9837 17.5912 15.1669 17.7712C15.3501 17.9512 15.457 18.1948 15.4655 18.4515C15.474 18.7082 15.3834 18.9583 15.2125 19.15C14.7963 19.5807 14.2969 19.9225 13.7447 20.1545C13.1925 20.3866 12.599 20.5041 12 20.5C10.8065 20.5 9.66193 20.0259 8.81802 19.182C7.97411 18.3381 7.5 17.1935 7.5 16C7.5 14.8065 7.97411 13.6619 8.81802 12.818C9.66193 11.9741 10.8065 11.5 12 11.5C12.599 11.4959 13.1925 11.6134 13.7447 11.8455C14.2969 12.0775 14.7963 12.4193 15.2125 12.85C15.3834 13.0417 15.474 13.2918 15.4655 13.5485C15.457 13.8052 15.3501 14.0488 15.1669 14.2288C14.9837 14.4088 14.7382 14.5114 14.4814 14.5153C14.2246 14.5193 13.9762 14.4243 13.7875 14.25C13.5554 14.0111 13.2774 13.8216 12.9702 13.6927C12.6631 13.5638 12.3331 13.4983 12 13.5C11.337 13.5 10.7011 13.7634 10.2322 14.2322C9.76339 14.7011 9.5 15.337 9.5 16C9.5 16.663 9.76339 17.2989 10.2322 17.7678C10.7011 18.2366 11.337 18.5 12 18.5ZM21 18.5C21.3331 18.5017 21.6631 18.4362 21.9702 18.3073C22.2774 18.1784 22.5554 17.9889 22.7875 17.75C22.9762 17.5757 23.2246 17.4807 23.4814 17.4847C23.7382 17.4886 23.9837 17.5912 24.1669 17.7712C24.3501 17.9512 24.457 18.1948 24.4655 18.4515C24.474 18.7082 24.3834 18.9583 24.2125 19.15C23.7963 19.5807 23.2969 19.9225 22.7447 20.1545C22.1925 20.3866 21.599 20.5041 21 20.5C19.8065 20.5 18.6619 20.0259 17.818 19.182C16.9741 18.3381 16.5 17.1935 16.5 16C16.5 14.8065 16.9741 13.6619 17.818 12.818C18.6619 11.9741 19.8065 11.5 21 11.5C21.599 11.4959 22.1925 11.6134 22.7447 11.8455C23.2969 12.0775 23.7963 12.4193 24.2125 12.85C24.3834 13.0417 24.474 13.2918 24.4655 13.5485C24.457 13.8052 24.3501 14.0488 24.1669 14.2288C23.9837 14.4088 23.7382 14.5114 23.4814 14.5153C23.2246 14.5193 22.9762 14.4243 22.7875 14.25C22.5554 14.0111 22.2774 13.8216 21.9702 13.6927C21.6631 13.5638 21.3331 13.4983 21 13.5C20.337 13.5 19.7011 13.7634 19.2322 14.2322C18.7634 14.7011 18.5 15.337 18.5 16C18.5 16.663 18.7634 17.2989 19.2322 17.7678C19.7011 18.2366 20.337 18.5 21 18.5Z" fill="#344054"/>
</svg>
