<svg width="32" height="32" viewBox="0 0 32 32" fill="none" xmlns="http://www.w3.org/2000/svg">
<path d="M26.7375 26.325C26.8277 26.4211 26.8977 26.5342 26.9435 26.6578C26.9892 26.7813 27.0098 26.9128 27.004 27.0444C26.9982 27.176 26.966 27.3052 26.9096 27.4242C26.8531 27.5432 26.7733 27.6497 26.675 27.7375C26.4894 27.9042 26.2495 27.9975 26 28C25.8613 27.9999 25.724 27.971 25.5971 27.9151C25.4701 27.8591 25.3562 27.7774 25.2625 27.675L20.525 22.4625C20.3511 22.4874 20.1757 22.4999 20 22.5C19.0728 22.4967 18.1844 22.1269 17.5288 21.4712C16.8731 20.8156 16.5033 19.9272 16.5 19C16.4969 18.7101 16.5263 18.4208 16.5875 18.1375L12 13.0875C11.9884 13.3527 11.8719 13.6024 11.6762 13.7818C11.4804 13.9611 11.2215 14.0553 10.9563 14.0437C10.691 14.0321 10.4413 13.9156 10.262 13.7199C10.0826 13.5242 9.9884 13.2652 10 13C10.0028 12.3856 10.0955 11.775 10.275 11.1875L8.06251 8.74999C7.36076 10.0564 6.99559 11.517 7.00001 13C7.00001 16.3375 8.06251 17.3625 9.20001 18.45C10.3375 19.5375 11.5 20.675 11.5 23.5C11.4993 24.4275 11.7852 25.3325 12.3186 26.0913C12.852 26.8501 13.6068 27.4255 14.4798 27.7388C15.3527 28.0522 16.3012 28.0881 17.1954 27.8417C18.0895 27.5954 18.8857 27.0787 19.475 26.3625C19.5573 26.2607 19.6591 26.1763 19.7743 26.1142C19.8895 26.0521 20.016 26.0136 20.1462 26.0008C20.2765 25.988 20.408 26.0012 20.5331 26.0397C20.6582 26.0782 20.7745 26.1412 20.875 26.225C21.0785 26.3954 21.2069 26.6389 21.2326 26.9031C21.2584 27.1673 21.1793 27.431 21.0125 27.6375C20.1605 28.6695 19.0107 29.4134 17.7201 29.7675C16.4295 30.1217 15.0611 30.0688 13.8016 29.6162C12.5422 29.1636 11.4532 28.3332 10.6833 27.2386C9.91339 26.1439 9.50015 24.8383 9.50001 23.5C9.50001 21.525 8.78751 20.8375 7.81251 19.9C6.56251 18.6875 5.00001 17.1875 5.00001 13C4.99767 10.9505 5.56925 8.94134 6.65001 7.19999L5.26251 5.67499C5.09019 5.47833 5.00175 5.22201 5.01614 4.96094C5.03052 4.69987 5.14659 4.45482 5.33947 4.27828C5.53234 4.10175 5.78669 4.00778 6.04801 4.01651C6.30933 4.02524 6.55684 4.13598 6.73751 4.32499L8.65001 6.43749H8.66251L12.1625 10.2875L21.5875 20.6625L26.7375 26.325ZM11.3875 5.27499C12.7534 4.45979 14.3108 4.02114 15.9014 4.00371C17.4919 3.98628 19.0586 4.39069 20.442 5.17575C21.8254 5.96081 22.976 7.09848 23.7767 8.47289C24.5773 9.84731 24.9994 11.4094 25 13C25 13.2652 25.1054 13.5196 25.2929 13.7071C25.4804 13.8946 25.7348 14 26 14C26.2652 14 26.5196 13.8946 26.7071 13.7071C26.8947 13.5196 27 13.2652 27 13C27.0008 11.0552 26.486 9.14495 25.508 7.46394C24.53 5.78293 23.1238 4.39126 21.4328 3.43075C19.7417 2.47024 17.8262 1.97524 15.8815 1.99618C13.9369 2.01713 12.0325 2.55328 10.3625 3.54999C10.2489 3.61698 10.1497 3.70578 10.0706 3.81127C9.99143 3.91676 9.93394 4.03686 9.90141 4.16466C9.86888 4.29246 9.86195 4.42543 9.88102 4.55592C9.90008 4.68641 9.94477 4.81184 10.0125 4.92499C10.1501 5.15187 10.3713 5.31566 10.6284 5.38111C10.8856 5.44657 11.1582 5.40846 11.3875 5.27499ZM19.7875 15.675C19.9593 15.8073 20.1707 15.8778 20.3875 15.875C20.5428 15.875 20.6959 15.8388 20.8347 15.7694C20.9736 15.7 21.0944 15.5992 21.1875 15.475C21.7304 14.7656 22.0168 13.8931 22 13C22 11.4087 21.3679 9.88256 20.2426 8.75735C19.1174 7.63213 17.5913 6.99999 16 6.99999C15.3366 7.00112 14.6779 7.11091 14.05 7.32499C13.8147 7.42242 13.6255 7.60596 13.5209 7.83816C13.4162 8.07035 13.4042 8.33371 13.4871 8.57451C13.57 8.8153 13.7417 9.01538 13.9671 9.13394C14.1925 9.25249 14.4546 9.28058 14.7 9.21249C15.1191 9.07226 15.5581 9.00051 16 8.99999C17.0599 9.00328 18.0754 9.42577 18.8248 10.1752C19.5742 10.9246 19.9967 11.9401 20 13C20.0132 13.4598 19.8675 13.9101 19.5875 14.275C19.5071 14.3794 19.4484 14.4989 19.4149 14.6263C19.3813 14.7538 19.3737 14.8867 19.3923 15.0172C19.411 15.1476 19.4555 15.2731 19.5234 15.386C19.5913 15.499 19.6811 15.5973 19.7875 15.675Z" fill="#344054"/>
</svg>
