<svg width="32" height="32" viewBox="0 0 32 32" fill="none" xmlns="http://www.w3.org/2000/svg">
<path d="M26 5V27C26 27.2652 25.8947 27.5196 25.7071 27.7071C25.5196 27.8946 25.2652 28 25 28C24.7348 28 24.4805 27.8946 24.2929 27.7071C24.1054 27.5196 24 27.2652 24 27V17.7875L9.03753 26.925C8.72398 27.1127 8.36547 27.212 8.00003 27.2125C7.65861 27.2171 7.32211 27.1308 7.02503 26.9625C6.71281 26.7897 6.45288 26.536 6.27252 26.2281C6.09216 25.9202 5.99804 25.5693 6.00003 25.2125V6.7875C5.99956 6.43251 6.09359 6.08379 6.27245 5.77715C6.45131 5.47051 6.70857 5.217 7.01781 5.04266C7.32704 4.86832 7.6771 4.77942 8.03205 4.78511C8.387 4.79079 8.73404 4.89085 9.03753 5.075L24 14.2125V5C24 4.73478 24.1054 4.48043 24.2929 4.29289C24.4805 4.10536 24.7348 4 25 4C25.2652 4 25.5196 4.10536 25.7071 4.29289C25.8947 4.48043 26 4.73478 26 5Z" fill="#344054"/>
</svg>
