<svg width="32" height="32" viewBox="0 0 32 32" fill="none" xmlns="http://www.w3.org/2000/svg">
<path d="M19.4375 3.10001C19.2694 3.01892 19.082 2.98648 18.8964 3.00636C18.7109 3.02624 18.5346 3.09765 18.3875 3.21251L9.65 10H4C3.46957 10 2.96086 10.2107 2.58579 10.5858C2.21071 10.9609 2 11.4696 2 12V20C2 20.5304 2.21071 21.0392 2.58579 21.4142C2.96086 21.7893 3.46957 22 4 22H9.65L18.3875 28.7875C18.5619 28.9253 18.7777 29.0001 19 29C19.1513 28.9982 19.3004 28.9641 19.4375 28.9C19.6063 28.8179 19.7485 28.69 19.848 28.5308C19.9475 28.3716 20.0001 28.1877 20 28V4.00001C20.0001 3.81233 19.9475 3.62839 19.848 3.46923C19.7485 3.31008 19.6063 3.18213 19.4375 3.10001Z" fill="#344054"/>
<path d="M24 12C23.7348 12 23.4804 12.1054 23.2929 12.2929C23.1054 12.4804 23 12.7348 23 13V19C23 19.2652 23.1054 19.5196 23.2929 19.7071C23.4804 19.8946 23.7348 20 24 20C24.2652 20 24.5196 19.8946 24.7071 19.7071C24.8946 19.5196 25 19.2652 25 19V13C25 12.7348 24.8946 12.4804 24.7071 12.2929C24.5196 12.1054 24.2652 12 24 12Z" fill="#344054"/>
<path d="M28 10C27.7348 10 27.4804 10.1054 27.2929 10.2929C27.1054 10.4804 27 10.7348 27 11V21C27 21.2652 27.1054 21.5196 27.2929 21.7071C27.4804 21.8946 27.7348 22 28 22C28.2652 22 28.5196 21.8946 28.7071 21.7071C28.8946 21.5196 29 21.2652 29 21V11C29 10.7348 28.8946 10.4804 28.7071 10.2929C28.5196 10.1054 28.2652 10 28 10Z" fill="#344054"/>
</svg>
