<svg width="32" height="32" viewBox="0 0 32 32" fill="none" xmlns="http://www.w3.org/2000/svg">
<path d="M26.7375 26.325L6.73753 4.32502C6.55687 4.13601 6.30936 4.02528 6.04804 4.01655C5.78672 4.00782 5.53237 4.10179 5.33949 4.27832C5.14661 4.45485 5.03055 4.6999 5.01616 4.96097C5.00178 5.22205 5.09022 5.47837 5.26253 5.67502L10 10.8875V16C10.0003 17.0767 10.2903 18.1334 10.8396 19.0595C11.3889 19.9855 12.1772 20.7466 13.1219 21.2631C14.0666 21.7795 15.1329 22.0323 16.2089 21.9948C17.2849 21.9573 18.3311 21.631 19.2375 21.05L20.6 22.55C19.4631 23.3488 18.1377 23.8377 16.7544 23.9685C15.371 24.0993 13.9775 23.8676 12.7109 23.2962C11.4444 22.7247 10.3485 21.8332 9.53125 20.7095C8.71398 19.5857 8.20348 18.2685 8.05003 16.8875C8.03526 16.757 7.99493 16.6307 7.93134 16.5158C7.86775 16.4009 7.78214 16.2996 7.67942 16.2178C7.5767 16.136 7.45886 16.0752 7.33264 16.0389C7.20642 16.0026 7.07428 15.9915 6.94378 16.0063C6.81328 16.021 6.68697 16.0614 6.57205 16.125C6.45714 16.1886 6.35588 16.2742 6.27405 16.3769C6.19221 16.4796 6.13142 16.5974 6.09512 16.7237C6.05883 16.8499 6.04776 16.982 6.06253 17.1125C6.31472 19.3864 7.33995 21.5048 8.96678 23.1135C10.5936 24.7221 12.7234 25.7234 15 25.95V29C15 29.2652 15.1054 29.5196 15.2929 29.7071C15.4805 29.8947 15.7348 30 16 30C16.2652 30 16.5196 29.8947 16.7071 29.7071C16.8947 29.5196 17 29.2652 17 29V25.95C18.7933 25.7749 20.5048 25.1136 21.95 24.0375L25.2625 27.675C25.3562 27.7774 25.4701 27.8592 25.5971 27.9151C25.7241 27.9711 25.8613 28 26 28C26.2495 27.9976 26.4895 27.9042 26.675 27.7375C26.7733 27.6498 26.8531 27.5433 26.9096 27.4242C26.9661 27.3052 26.9982 27.1761 27.004 27.0444C27.0098 26.9128 26.9893 26.7814 26.9435 26.6578C26.8977 26.5342 26.8277 26.4211 26.7375 26.325Z" fill="#344054"/>
<path d="M20.2624 16.225C20.3556 16.328 20.4694 16.4102 20.5965 16.4662C20.7236 16.5222 20.8611 16.5507 20.9999 16.55C21.1237 16.5537 21.247 16.5324 21.3624 16.4875C21.5511 16.4141 21.713 16.2852 21.8269 16.1178C21.9407 15.9504 22.001 15.7524 21.9999 15.55V8.00001C21.9999 6.40871 21.3678 4.88258 20.2426 3.75737C19.1174 2.63215 17.5912 2.00001 15.9999 2.00001C14.9763 1.99512 13.9687 2.25497 13.0751 2.75434C12.1815 3.2537 11.4322 3.97562 10.8999 4.85001C10.784 5.03374 10.731 5.25024 10.7491 5.46675C10.7671 5.68326 10.8552 5.888 10.9999 6.05001L20.2624 16.225Z" fill="#344054"/>
<path d="M24.025 20.2125C24.1418 20.2524 24.2642 20.2735 24.3875 20.275C24.5886 20.2771 24.7855 20.217 24.9511 20.1028C25.1167 19.9887 25.2429 19.8262 25.3125 19.6375C25.6317 18.8272 25.8419 17.9781 25.9375 17.1125C25.9674 16.8489 25.8913 16.5843 25.726 16.3768C25.5608 16.1694 25.3198 16.0361 25.0563 16.0062C24.9258 15.9915 24.7937 16.0025 24.6674 16.0388C24.5412 16.0751 24.4234 16.1359 24.3207 16.2177C24.1132 16.383 23.9799 16.6239 23.95 16.8875C23.8783 17.5824 23.7101 18.264 23.45 18.9125C23.3559 19.1613 23.3635 19.4371 23.4711 19.6803C23.5786 19.9236 23.7776 20.1148 24.025 20.2125Z" fill="#344054"/>
</svg>
