<svg width="32" height="32" viewBox="0 0 32 32" fill="none" xmlns="http://www.w3.org/2000/svg">
<path d="M19.4375 3.10001C19.2694 3.01892 19.082 2.98648 18.8964 3.00636C18.7109 3.02624 18.5346 3.09765 18.3875 3.21251L9.6625 10H4C3.46957 10 2.96086 10.2107 2.58579 10.5858C2.21071 10.9609 2 11.4696 2 12V20C2 20.5304 2.21071 21.0392 2.58579 21.4142C2.96086 21.7893 3.46957 22 4 22H9.6625L18.3875 28.7875C18.5629 28.9236 18.7781 28.9982 19 29C19.1513 28.9982 19.3004 28.9641 19.4375 28.9C19.6063 28.8179 19.7485 28.69 19.848 28.5308C19.9475 28.3716 20.0001 28.1877 20 28V4.00001C19.9987 3.81264 19.9454 3.6293 19.8461 3.47041C19.7468 3.31151 19.6054 3.18329 19.4375 3.10001ZM4 12H9V20H4V12Z" fill="#344054"/>
<path d="M24.5374 12.4625C24.35 12.2755 24.096 12.1705 23.8312 12.1705C23.5664 12.1705 23.3124 12.2755 23.1249 12.4625C23.0308 12.5545 22.956 12.6643 22.905 12.7856C22.8539 12.9069 22.8276 13.0372 22.8276 13.1688C22.8276 13.3003 22.8539 13.4306 22.905 13.5519C22.956 13.6732 23.0308 13.783 23.1249 13.875C23.6867 14.4395 24.0021 15.2036 24.0021 16C24.0021 16.7964 23.6867 17.5605 23.1249 18.125C23.0308 18.217 22.956 18.3268 22.905 18.4481C22.8539 18.5694 22.8276 18.6997 22.8276 18.8313C22.8276 18.9628 22.8539 19.0931 22.905 19.2144C22.956 19.3357 23.0308 19.4455 23.1249 19.5375C23.2157 19.6308 23.3247 19.7045 23.4451 19.754C23.5655 19.8034 23.6948 19.8276 23.8249 19.825C23.957 19.8278 24.0882 19.8038 24.2107 19.7544C24.3332 19.705 24.4443 19.6312 24.5374 19.5375C25.4733 18.598 25.9987 17.326 25.9987 16C25.9987 14.674 25.4733 13.402 24.5374 12.4625Z" fill="#344054"/>
</svg>
