<svg width="32" height="32" viewBox="0 0 32 32" fill="none" xmlns="http://www.w3.org/2000/svg">
<path d="M19.4375 3.10001C19.2694 3.01892 19.082 2.98648 18.8964 3.00636C18.7109 3.02624 18.5346 3.09765 18.3875 3.21251L9.65 10H4C3.46957 10 2.96086 10.2107 2.58579 10.5858C2.21071 10.9609 2 11.4696 2 12V20C2 20.5304 2.21071 21.0392 2.58579 21.4142C2.96086 21.7893 3.46957 22 4 22H9.65L18.3875 28.7875C18.5619 28.9253 18.7777 29.0001 19 29C19.1513 28.9982 19.3004 28.9641 19.4375 28.9C19.6063 28.8179 19.7485 28.69 19.848 28.5308C19.9475 28.3716 20.0001 28.1877 20 28V4.00001C20.0001 3.81233 19.9475 3.62839 19.848 3.46923C19.7485 3.31008 19.6063 3.18213 19.4375 3.10001Z" fill="#344054"/>
<path d="M28.4125 16L30.7125 13.7125C30.872 13.5182 30.9535 13.2715 30.9411 13.0205C30.9288 12.7694 30.8235 12.5319 30.6458 12.3542C30.4681 12.1765 30.2306 12.0712 29.9795 12.0589C29.7285 12.0465 29.4818 12.128 29.2875 12.2875L27 14.5875L24.7125 12.2875C24.5182 12.128 24.2716 12.0465 24.0205 12.0589C23.7694 12.0712 23.532 12.1765 23.3542 12.3542C23.1765 12.5319 23.0712 12.7694 23.0589 13.0205C23.0466 13.2715 23.128 13.5182 23.2875 13.7125L25.5875 16L23.2875 18.2875C23.0997 18.4771 22.9944 18.7331 22.9944 19C22.9944 19.2668 23.0997 19.5229 23.2875 19.7125C23.4795 19.896 23.7345 19.9989 24 20C24.2651 19.9964 24.5192 19.8938 24.7125 19.7125L27 17.4125L29.2875 19.7125C29.4795 19.896 29.7345 19.9989 30 20C30.2651 19.9964 30.5192 19.8938 30.7125 19.7125C30.9003 19.5229 31.0056 19.2668 31.0056 19C31.0056 18.7331 30.9003 18.4771 30.7125 18.2875L28.4125 16Z" fill="#344054"/>
</svg>
