<svg width="32" height="32" viewBox="0 0 32 32" fill="none" xmlns="http://www.w3.org/2000/svg">
<path d="M17 20.5H5C4.73478 20.5 4.48043 20.6054 4.29289 20.7929C4.10536 20.9804 4 21.2348 4 21.5C4 21.7652 4.10536 22.0196 4.29289 22.2071C4.48043 22.3946 4.73478 22.5 5 22.5H17C17.2652 22.5 17.5196 22.3946 17.7071 22.2071C17.8946 22.0196 18 21.7652 18 21.5C18 21.2348 17.8946 20.9804 17.7071 20.7929C17.5196 20.6054 17.2652 20.5 17 20.5Z" fill="#344054"/>
<path d="M27 20.5H22V18.5C22 18.2348 21.8946 17.9804 21.7071 17.7929C21.5196 17.6054 21.2652 17.5 21 17.5C20.7348 17.5 20.4804 17.6054 20.2929 17.7929C20.1054 17.9804 20 18.2348 20 18.5V24.5C20 24.7652 20.1054 25.0196 20.2929 25.2071C20.4804 25.3946 20.7348 25.5 21 25.5C21.2652 25.5 21.5196 25.3946 21.7071 25.2071C21.8946 25.0196 22 24.7652 22 24.5V22.5H27C27.2652 22.5 27.5196 22.3946 27.7071 22.2071C27.8946 22.0196 28 21.7652 28 21.5C28 21.2348 27.8946 20.9804 27.7071 20.7929C27.5196 20.6054 27.2652 20.5 27 20.5Z" fill="#344054"/>
<path d="M5 11.5H9C9.26522 11.5 9.51957 11.3946 9.70711 11.2071C9.89464 11.0196 10 10.7652 10 10.5C10 10.2348 9.89464 9.98043 9.70711 9.79289C9.51957 9.60536 9.26522 9.5 9 9.5H5C4.73478 9.5 4.48043 9.60536 4.29289 9.79289C4.10536 9.98043 4 10.2348 4 10.5C4 10.7652 4.10536 11.0196 4.29289 11.2071C4.48043 11.3946 4.73478 11.5 5 11.5Z" fill="#344054"/>
<path d="M13 14.5C13.2652 14.5 13.5196 14.3946 13.7071 14.2071C13.8946 14.0196 14 13.7652 14 13.5V11.5H27C27.2652 11.5 27.5196 11.3946 27.7071 11.2071C27.8946 11.0196 28 10.7652 28 10.5C28 10.2348 27.8946 9.98043 27.7071 9.79289C27.5196 9.60536 27.2652 9.5 27 9.5H14V7.5C14 7.23478 13.8946 6.98043 13.7071 6.79289C13.5196 6.60536 13.2652 6.5 13 6.5C12.7348 6.5 12.4804 6.60536 12.2929 6.79289C12.1054 6.98043 12 7.23478 12 7.5V13.5C12 13.7652 12.1054 14.0196 12.2929 14.2071C12.4804 14.3946 12.7348 14.5 13 14.5Z" fill="#344054"/>
</svg>
