<svg width="32" height="32" viewBox="0 0 32 32" fill="none" xmlns="http://www.w3.org/2000/svg">
<path d="M19.0001 13C19.0001 12.7348 19.1055 12.4804 19.293 12.2929C19.4805 12.1054 19.7349 12 20.0001 12H30.0001C30.2653 12 30.5197 12.1054 30.7072 12.2929C30.8948 12.4804 31.0001 12.7348 31.0001 13C31.0001 13.2652 30.8948 13.5196 30.7072 13.7071C30.5197 13.8946 30.2653 14 30.0001 14H20.0001C19.7349 14 19.4805 13.8946 19.293 13.7071C19.1055 13.5196 19.0001 13.2652 19.0001 13ZM30.0001 16H20.0001C19.7349 16 19.4805 16.1054 19.293 16.2929C19.1055 16.4804 19.0001 16.7348 19.0001 17C19.0001 17.2652 19.1055 17.5196 19.293 17.7071C19.4805 17.8947 19.7349 18 20.0001 18H30.0001C30.2653 18 30.5197 17.8947 30.7072 17.7071C30.8948 17.5196 31.0001 17.2652 31.0001 17C31.0001 16.7348 30.8948 16.4804 30.7072 16.2929C30.5197 16.1054 30.2653 16 30.0001 16ZM30.0001 20H20.0001C19.7349 20 19.4805 20.1054 19.293 20.2929C19.1055 20.4804 19.0001 20.7348 19.0001 21C19.0001 21.2652 19.1055 21.5196 19.293 21.7071C19.4805 21.8946 19.7349 22 20.0001 22H30.0001C30.2653 22 30.5197 21.8946 30.7072 21.7071C30.8948 21.5196 31.0001 21.2652 31.0001 21C31.0001 20.7348 30.8948 20.4804 30.7072 20.2929C30.5197 20.1054 30.2653 20 30.0001 20ZM30.0001 24H9.00012C8.7349 24 8.48055 24.1054 8.29301 24.2929C8.10548 24.4804 8.00012 24.7348 8.00012 25C8.00012 25.2652 8.10548 25.5196 8.29301 25.7071C8.48055 25.8946 8.7349 26 9.00012 26H30.0001C30.2653 26 30.5197 25.8946 30.7072 25.7071C30.8948 25.5196 31.0001 25.2652 31.0001 25C31.0001 24.7348 30.8948 24.4804 30.7072 24.2929C30.5197 24.1054 30.2653 24 30.0001 24ZM9.98762 22C8.78098 22.0026 7.59423 21.6927 6.54293 21.1004C5.49163 20.5082 4.61162 19.6538 3.98859 18.6204C3.36556 17.5871 3.02074 16.41 2.98771 15.2038C2.95468 13.9976 3.23457 12.8034 3.80012 11.7375C3.23194 11.2849 2.81868 10.6667 2.61765 9.96859C2.41662 9.27053 2.43777 8.52721 2.67818 7.84171C2.91858 7.15621 3.36633 6.5625 3.95933 6.1429C4.55232 5.72331 5.26119 5.49862 5.98762 5.50001C6.17721 5.49933 6.36327 5.55126 6.52512 5.65001L14.2501 10.475C14.6172 10.4072 14.9458 10.2049 15.1717 9.9078C15.3976 9.61066 15.5046 9.23996 15.4718 8.86813C15.439 8.49631 15.2687 8.15007 14.9943 7.89708C14.7198 7.64408 14.3609 7.5025 13.9876 7.50001C13.7224 7.50001 13.468 7.39465 13.2805 7.20711C13.093 7.01958 12.9876 6.76522 12.9876 6.50001C12.9876 6.23479 13.093 5.98044 13.2805 5.7929C13.468 5.60536 13.7224 5.50001 13.9876 5.50001C14.9159 5.50001 15.8061 5.86876 16.4625 6.52513C17.1189 7.18151 17.4876 8.07175 17.4876 9.00001C17.4876 9.92826 17.1189 10.8185 16.4625 11.4749C15.8061 12.1313 14.9159 12.5 13.9876 12.5C13.802 12.5003 13.62 12.4484 13.4626 12.35L9.71262 10.0125C8.50188 10.0828 7.35798 10.5908 6.49393 11.4418C5.62989 12.2929 5.10461 13.4289 5.01592 14.6385C4.92723 15.848 5.28118 17.0485 6.01185 18.0165C6.74251 18.9844 7.80009 19.6538 8.98762 19.9V14.3125C8.98762 14.0473 9.09298 13.7929 9.28051 13.6054C9.46805 13.4179 9.7224 13.3125 9.98762 13.3125C10.2528 13.3125 10.5072 13.4179 10.6947 13.6054C10.8823 13.7929 10.9876 14.0473 10.9876 14.3125V19.9C11.9141 19.7133 12.7687 19.2677 13.4524 18.6151C14.136 17.9624 14.6206 17.1294 14.8501 16.2125C14.8808 16.0858 14.9363 15.9665 15.0134 15.8614C15.0905 15.7563 15.1876 15.6675 15.2991 15.6001C15.4107 15.5327 15.5345 15.4881 15.6634 15.4687C15.7923 15.4494 15.9237 15.4558 16.0501 15.4875C16.3065 15.5498 16.5278 15.7109 16.666 15.9356C16.8041 16.1604 16.8478 16.4306 16.7876 16.6875C16.4106 18.2054 15.5361 19.5533 14.3036 20.5162C13.0711 21.4791 11.5516 22.0014 9.98762 22ZM4.98762 10.1125C5.65511 9.42935 6.45468 8.88922 7.33762 8.52501L5.73762 7.52501C5.38878 7.58397 5.072 7.76434 4.84327 8.03424C4.61454 8.30415 4.48857 8.64622 4.48762 9.00001C4.48681 9.21037 4.531 9.41848 4.61724 9.61036C4.70348 9.80224 4.82976 9.97345 4.98762 10.1125Z" fill="#344054"/>
</svg>
