<svg width="32" height="32" viewBox="0 0 32 32" fill="none" xmlns="http://www.w3.org/2000/svg">
<path d="M24 20C24.2652 20 24.5196 19.8946 24.7071 19.7071C24.8946 19.5196 25 19.2652 25 19V13C25 12.7348 24.8946 12.4804 24.7071 12.2929C24.5196 12.1054 24.2652 12 24 12C23.7348 12 23.4804 12.1054 23.2929 12.2929C23.1054 12.4804 23 12.7348 23 13V19C23 19.2652 23.1054 19.5196 23.2929 19.7071C23.4804 19.8946 23.7348 20 24 20Z" fill="#344054"/>
<path d="M28 10C27.7348 10 27.4804 10.1054 27.2929 10.2929C27.1054 10.4804 27 10.7348 27 11V21C27 21.2652 27.1054 21.5196 27.2929 21.7071C27.4804 21.8946 27.7348 22 28 22C28.2652 22 28.5196 21.8946 28.7071 21.7071C28.8946 21.5196 29 21.2652 29 21V11C29 10.7348 28.8946 10.4804 28.7071 10.2929C28.5196 10.1054 28.2652 10 28 10Z" fill="#344054"/>
<path d="M6.7375 4.32502C6.55683 4.13601 6.30933 4.02528 6.048 4.01655C5.78668 4.00782 5.53234 4.10179 5.33946 4.27832C5.14658 4.45485 5.03052 4.6999 5.01613 4.96097C5.00175 5.22205 5.09019 5.47837 5.2625 5.67502L9.2 10H4C3.46957 10 2.96086 10.2107 2.58579 10.5858C2.21071 10.9609 2 11.4696 2 12V20C2 20.5305 2.21071 21.0392 2.58579 21.4142C2.96086 21.7893 3.46957 22 4 22H9.6625L18.3875 28.7875C18.5629 28.9236 18.7781 28.9982 19 29C19.1513 28.9982 19.3004 28.9641 19.4375 28.9C19.6063 28.8179 19.7485 28.69 19.848 28.5308C19.9475 28.3716 20.0001 28.1877 20 28V21.8875L25.2625 27.675C25.3562 27.7774 25.4701 27.8592 25.5971 27.9151C25.724 27.9711 25.8612 28 26 28C26.2494 27.9976 26.4894 27.9042 26.675 27.7375C26.7733 27.6498 26.853 27.5433 26.9095 27.4242C26.966 27.3052 26.9981 27.1761 27.004 27.0444C27.0098 26.9128 26.9892 26.7814 26.9435 26.6578C26.8977 26.5342 26.8277 26.4211 26.7375 26.325L6.7375 4.32502Z" fill="#344054"/>
<path d="M18.2625 14.025C18.3557 14.128 18.4695 14.2102 18.5966 14.2662C18.7237 14.3222 18.8612 14.3508 19 14.35C19.1238 14.3537 19.2471 14.3324 19.3625 14.2875C19.5512 14.2141 19.7132 14.0852 19.827 13.9178C19.9408 13.7504 20.0012 13.5525 20 13.35V4.00002C19.9995 3.81323 19.9466 3.63032 19.8474 3.47203C19.7483 3.31374 19.6067 3.1864 19.4389 3.10442C19.271 3.02245 19.0836 2.98913 18.8978 3.00824C18.7119 3.02734 18.5352 3.09811 18.3875 3.21252L13.4 7.08752C13.2928 7.17329 13.2042 7.27996 13.1395 7.40106C13.0748 7.52216 13.0354 7.65515 13.0237 7.79195C13.012 7.92875 13.0283 8.06649 13.0715 8.19682C13.1147 8.32714 13.1839 8.44731 13.275 8.55002L18.2625 14.025Z" fill="#344054"/>
</svg>
