<svg width="32" height="32" viewBox="0 0 32 32" fill="none" xmlns="http://www.w3.org/2000/svg">
<path d="M7.4125 5H24.5875C24.7858 5.00033 24.9795 5.05961 25.144 5.17029C25.3086 5.28098 25.4365 5.43808 25.5115 5.62163C25.5865 5.80518 25.6053 6.00689 25.5654 6.20113C25.5255 6.39537 25.4288 6.57336 25.2875 6.7125L16 16L6.7125 6.7125C6.57122 6.57336 6.47449 6.39537 6.43461 6.20113C6.39472 6.00689 6.41349 5.80518 6.48852 5.62163C6.56354 5.43808 6.69145 5.28098 6.85597 5.17029C7.02049 5.05961 7.21421 5.00033 7.4125 5V5Z" stroke="#344054" stroke-width="1.5" stroke-linecap="round" stroke-linejoin="round"/>
<path d="M7.4125 27H24.5875C24.7858 26.9997 24.9795 26.9404 25.144 26.8297C25.3086 26.719 25.4365 26.5619 25.5115 26.3784C25.5865 26.1948 25.6053 25.9931 25.5654 25.7989C25.5255 25.6046 25.4288 25.4266 25.2875 25.2875L16 16L6.7125 25.2875C6.57122 25.4266 6.47449 25.6046 6.43461 25.7989C6.39472 25.9931 6.41349 26.1948 6.48852 26.3784C6.56354 26.5619 6.69145 26.719 6.85597 26.8297C7.02049 26.9404 7.21421 26.9997 7.4125 27Z" stroke="#344054" stroke-width="1.5" stroke-linecap="round" stroke-linejoin="round"/>
<path d="M9 9H23" stroke="#344054" stroke-width="1.5" stroke-linecap="round" stroke-linejoin="round"/>
</svg>
