<svg width="32" height="32" viewBox="0 0 32 32" fill="none" xmlns="http://www.w3.org/2000/svg">
<path d="M19.5 11.75C20.1904 11.75 20.75 11.1904 20.75 10.5C20.75 9.80964 20.1904 9.25 19.5 9.25C18.8096 9.25 18.25 9.80964 18.25 10.5C18.25 11.1904 18.8096 11.75 19.5 11.75Z" fill="#344054"/>
<path d="M12.5 11.75C13.1904 11.75 13.75 11.1904 13.75 10.5C13.75 9.80964 13.1904 9.25 12.5 9.25C11.8096 9.25 11.25 9.80964 11.25 10.5C11.25 11.1904 11.8096 11.75 12.5 11.75Z" fill="#344054"/>
<path d="M25.9875 18.5C25.9875 21.1522 24.934 23.6957 23.0586 25.5711C21.1833 27.4464 18.6397 28.5 15.9875 28.5C13.3354 28.5 10.7918 27.4464 8.91648 25.5711C7.04112 23.6957 5.98755 21.1522 5.98755 18.5V13.5C5.98755 10.8478 7.04112 8.3043 8.91648 6.42893C10.7918 4.55357 13.3354 3.5 15.9875 3.5C18.6397 3.5 21.1833 4.55357 23.0586 6.42893C24.934 8.3043 25.9875 10.8478 25.9875 13.5V18.5Z" stroke="#344054" stroke-width="1.5" stroke-linecap="round" stroke-linejoin="round"/>
<path d="M25.9875 16H5.98755" stroke="#344054" stroke-width="1.5" stroke-linecap="round" stroke-linejoin="round"/>
<path d="M6.98755 3.5L9.52505 5.8625" stroke="#344054" stroke-width="1.5" stroke-linecap="round" stroke-linejoin="round"/>
<path d="M24.9874 3.5L22.45 5.8625" stroke="#344054" stroke-width="1.5" stroke-linecap="round" stroke-linejoin="round"/>
</svg>
