<svg width="32" height="32" viewBox="0 0 32 32" fill="none" xmlns="http://www.w3.org/2000/svg">
<path d="M29 11.5875L20.4125 3C20.036 2.629 19.5286 2.42103 19 2.42103C18.4714 2.42103 17.964 2.629 17.5875 3L14.45 6.1375L7.1875 8.8625C6.86053 8.98525 6.57167 9.192 6.35003 9.46192C6.12839 9.73184 5.98179 10.0554 5.925 10.4L3.325 25.975C3.3061 26.0803 3.32148 26.1889 3.36888 26.2848C3.41628 26.3807 3.49319 26.4589 3.58832 26.5079C3.68344 26.5568 3.79177 26.574 3.89737 26.5568C4.00297 26.5397 4.10028 26.4891 4.175 26.4125L11.05 19.525C10.688 18.9117 10.498 18.2122 10.5 17.5C10.5 16.7089 10.7346 15.9355 11.1741 15.2777C11.6136 14.6199 12.2384 14.1072 12.9693 13.8045C13.7002 13.5017 14.5044 13.4225 15.2804 13.5769C16.0563 13.7312 16.769 14.1122 17.3284 14.6716C17.8878 15.231 18.2688 15.9437 18.4231 16.7196C18.5775 17.4956 18.4983 18.2998 18.1955 19.0307C17.8928 19.7616 17.3801 20.3864 16.7223 20.8259C16.0645 21.2654 15.2911 21.5 14.5 21.5C13.7878 21.502 13.0883 21.312 12.475 20.95L5.5875 27.825C5.51093 27.8997 5.46034 27.997 5.44317 28.1026C5.426 28.2082 5.44316 28.3166 5.49212 28.4117C5.54109 28.5068 5.61927 28.5837 5.71519 28.6311C5.8111 28.6785 5.91969 28.6939 6.025 28.675L21.6 26.0875C21.9446 26.026 22.2674 25.8762 22.5369 25.6528C22.8064 25.4293 23.0133 25.1398 23.1375 24.8125L25.8625 17.55L29 14.4125C29.1867 14.2277 29.3349 14.0077 29.4361 13.7652C29.5372 13.5228 29.5893 13.2627 29.5893 13C29.5893 12.7373 29.5372 12.4772 29.4361 12.2348C29.3349 11.9923 29.1867 11.7723 29 11.5875ZM25 15.5875L16.4125 7L19 4.4125L27.5875 13L25 15.5875Z" fill="#344054"/>
<path d="M14.5 19.5C15.6046 19.5 16.5 18.6046 16.5 17.5C16.5 16.3954 15.6046 15.5 14.5 15.5C13.3954 15.5 12.5 16.3954 12.5 17.5C12.5 18.6046 13.3954 19.5 14.5 19.5Z" fill="#344054"/>
</svg>
