<svg width="32" height="32" viewBox="0 0 32 32" fill="none" xmlns="http://www.w3.org/2000/svg">
<path d="M29.5875 23.5L18.6 4.5C18.337 4.04303 17.9581 3.66347 17.5017 3.39955C17.0452 3.13562 16.5273 2.99666 16 2.99666C15.4728 2.99666 14.9548 3.13562 14.4984 3.39955C14.0419 3.66347 13.6631 4.04303 13.4 4.5L2.41252 23.5C2.14561 23.9546 2.00375 24.4718 2.00137 24.999C1.99899 25.5262 2.13616 26.0447 2.39896 26.5017C2.66176 26.9587 3.04082 27.3381 3.49765 27.6012C3.95448 27.8644 4.47282 28.002 5.00002 28H27C27.5272 28.002 28.0456 27.8644 28.5024 27.6012C28.9592 27.3381 29.3383 26.9587 29.6011 26.5017C29.8639 26.0447 30.0011 25.5262 29.9987 24.999C29.9963 24.4718 29.8544 23.9546 29.5875 23.5Z" fill="#344054"/>
</svg>
