<svg width="32" height="32" viewBox="0 0 32 32" fill="none" xmlns="http://www.w3.org/2000/svg">
<path d="M28.1251 2.875C25.4626 2.875 22.4626 4.35 19.2376 7.2375C16.9751 9.2625 15.0376 11.575 13.7001 13.325C12.5782 12.9835 11.392 12.9094 10.2363 13.1087C9.08072 13.3079 7.98777 13.7748 7.04499 14.4722C6.10221 15.1696 5.33577 16.078 4.80703 17.1247C4.27829 18.1714 4.00192 19.3273 4.00005 20.5C4.00005 24.4 1.97505 26.1375 1.87505 26.225C1.7122 26.3508 1.59398 26.5256 1.53774 26.7236C1.48149 26.9215 1.49019 27.1323 1.56255 27.325C1.62648 27.5227 1.75192 27.6949 1.92057 27.8163C2.08922 27.9377 2.29225 28.0021 2.50005 28H11.5001C12.6727 27.9981 13.8287 27.7218 14.8754 27.193C15.9221 26.6643 16.8305 25.8978 17.5278 24.9551C18.2252 24.0123 18.6922 22.9193 18.8914 21.7637C19.0906 20.6081 19.0165 19.4219 18.6751 18.3C20.4251 16.9625 22.7376 15.025 24.7626 12.7625C27.6501 9.5375 29.1251 6.5375 29.1251 3.875C29.1251 3.60978 29.0197 3.35543 28.8322 3.16789C28.6446 2.98036 28.3903 2.875 28.1251 2.875ZM15.5501 14.2C15.9126 13.7375 16.3376 13.2125 16.8251 12.6375C17.8256 13.313 18.687 14.1745 19.3626 15.175C18.7875 15.6625 18.2626 16.0875 17.8001 16.45C17.2215 15.5462 16.4538 14.7786 15.5501 14.2ZM20.8751 13.8375C20.1272 12.7895 19.2105 11.8729 18.1626 11.125C20.6126 8.475 23.9126 5.575 27.0126 4.9875C26.4251 8.0875 23.5251 11.3875 20.8751 13.8375Z" fill="#344054"/>
</svg>
