<svg width="32" height="32" viewBox="0 0 32 32" fill="none" xmlns="http://www.w3.org/2000/svg">
<path d="M30.9124 15.6C30.8749 15.5 29.8124 13.15 27.4624 10.7875C24.3249 7.6625 20.3624 6 15.9999 6C11.6374 6 7.67495 7.6625 4.53745 10.7875C2.18745 13.15 1.12495 15.5 1.08745 15.6C1.03164 15.726 1.00281 15.8622 1.00281 16C1.00281 16.1378 1.03164 16.274 1.08745 16.4C1.12495 16.5 2.18745 18.85 4.53745 21.2125C7.67495 24.3375 11.6374 26 15.9999 26C20.3624 26 24.3249 24.3375 27.4624 21.2125C29.8124 18.85 30.8749 16.5 30.9124 16.4C30.9683 16.274 30.9971 16.1378 30.9971 16C30.9971 15.8622 30.9683 15.726 30.9124 15.6ZM15.9999 11.5C16.89 11.5 17.76 11.7639 18.5 12.2584C19.24 12.7529 19.8168 13.4557 20.1574 14.2779C20.498 15.1002 20.5871 16.005 20.4135 16.8779C20.2398 17.7508 19.8113 18.5526 19.1819 19.182C18.5526 19.8113 17.7508 20.2399 16.8779 20.4135C16.0049 20.5872 15.1001 20.4981 14.2779 20.1575C13.4556 19.8169 12.7528 19.2401 12.2583 18.5001C11.7639 17.76 11.4999 16.89 11.4999 16C11.4999 14.8065 11.9741 13.6619 12.818 12.818C13.6619 11.9741 14.8065 11.5 15.9999 11.5Z" fill="#344054"/>
</svg>
