<svg width="32" height="32" viewBox="0 0 32 32" fill="none" xmlns="http://www.w3.org/2000/svg">
<path d="M28 28C28 28.2652 27.8946 28.5196 27.7071 28.7071C27.5196 28.8946 27.2652 29 27 29H5C4.73478 29 4.48043 28.8946 4.29289 28.7071C4.10536 28.5196 4 28.2652 4 28C4 27.7348 4.10536 27.4804 4.29289 27.2929C4.48043 27.1054 4.73478 27 5 27H27C27.2652 27 27.5196 27.1054 27.7071 27.2929C27.8946 27.4804 28 27.7348 28 28ZM28 18V23C28 23.5304 27.7893 24.0391 27.4142 24.4142C27.0391 24.7893 26.5304 25 26 25H6C5.46957 25 4.96086 24.7893 4.58579 24.4142C4.21071 24.0391 4 23.5304 4 23V18C4 17.4696 4.21071 16.9609 4.58579 16.5858C4.96086 16.2107 5.46957 16 6 16H12.7625L10.8 6.8375C10.6751 6.25425 10.6822 5.65044 10.8209 5.0703C10.9595 4.49016 11.2261 3.94837 11.6012 3.48459C11.9763 3.02082 12.4504 2.6468 12.9887 2.38993C13.5271 2.13306 14.116 1.99983 14.7125 2H17.2875C17.884 1.99983 18.4729 2.13306 19.0113 2.38993C19.5496 2.6468 20.0237 3.02082 20.3988 3.48459C20.7739 3.94837 21.0405 4.49016 21.1791 5.0703C21.3178 5.65044 21.3249 6.25425 21.2 6.8375L19.2375 16H26C26.5304 16 27.0391 16.2107 27.4142 16.5858C27.7893 16.9609 28 17.4696 28 18Z" fill="#344054"/>
</svg>
