<svg width="32" height="32" viewBox="0 0 32 32" fill="none" xmlns="http://www.w3.org/2000/svg">
<path d="M28 8.4375C27.9953 7.83413 27.8676 7.23805 27.6248 6.68569C27.3819 6.13334 27.029 5.63631 26.5875 5.225C24.8375 3.575 22 3.6375 20.2625 5.375L17.525 8.1125C16.9524 7.59383 16.2024 7.31499 15.43 7.3336C14.6576 7.35221 13.9219 7.66686 13.375 8.2125L12.5 9.0875C12.129 9.46403 11.921 9.97141 11.921 10.5C11.921 11.0286 12.129 11.536 12.5 11.9125L12.7625 12.175L6.46248 18.4625C5.88821 19.0414 5.46306 19.7511 5.22356 20.5306C4.98406 21.31 4.93736 22.136 5.08748 22.9375L3.86248 25.7375C3.72262 26.0535 3.6824 26.4046 3.74716 26.7441C3.81193 27.0835 3.9786 27.3952 4.22498 27.6375C4.40952 27.8244 4.62949 27.9727 4.87203 28.0736C5.11457 28.1744 5.3748 28.2259 5.63748 28.225C5.91237 28.2254 6.1845 28.1701 6.43748 28.0625L9.06248 26.9125C9.86397 27.0626 10.6899 27.0159 11.4694 26.7764C12.2489 26.5369 12.9586 26.1118 13.5375 25.5375L19.825 19.2375L20.0875 19.5C20.2723 19.6867 20.4923 19.8349 20.7347 19.9361C20.9772 20.0372 21.2373 20.0893 21.5 20.0893C21.7627 20.0893 22.0228 20.0372 22.2652 19.9361C22.5077 19.8349 22.7277 19.6867 22.9125 19.5L23.7875 18.625C24.3331 18.078 24.6478 17.3423 24.6664 16.57C24.685 15.7976 24.4061 15.0476 23.8875 14.475L26.6875 11.6875C27.1114 11.2603 27.4458 10.7528 27.6712 10.1947C27.8965 9.63669 28.0083 9.03929 28 8.4375ZM17.2375 19H8.76248L14.175 13.5875L18.4125 17.825L17.2375 19ZM25.2625 10.2625L21.7625 13.7625C21.5747 13.9521 21.4694 14.2082 21.4694 14.475C21.4694 14.7419 21.5747 14.9979 21.7625 15.1875L22.375 15.7875C22.5628 15.9771 22.6681 16.2332 22.6681 16.5C22.6681 16.7669 22.5628 17.0229 22.375 17.2125L21.5 18.0875L13.9125 10.5L14.7875 9.625C14.8805 9.53052 14.9914 9.45549 15.1138 9.40427C15.2361 9.35305 15.3674 9.32668 15.5 9.32668C15.6326 9.32668 15.7639 9.35305 15.8862 9.40427C16.0085 9.45549 16.1194 9.53052 16.2125 9.625L16.8125 10.2375C17.0021 10.4253 17.2581 10.5306 17.525 10.5306C17.7918 10.5306 18.0479 10.4253 18.2375 10.2375L21.675 6.7875C22.6625 5.8125 24.25 5.7625 25.2125 6.6875C25.4572 6.91454 25.6532 7.18897 25.7886 7.4941C25.924 7.79924 25.9959 8.12871 26 8.4625C26.008 8.79719 25.9465 9.1299 25.8196 9.43969C25.6927 9.74948 25.503 10.0296 25.2625 10.2625Z" fill="#344054"/>
</svg>
