<svg width="32" height="32" viewBox="0 0 32 32" fill="none" xmlns="http://www.w3.org/2000/svg">
<path d="M28.825 6.175C28.4546 5.8031 28.0143 5.50801 27.5295 5.30666C27.0447 5.10531 26.525 5.00167 26 5.00167C25.4751 5.00167 24.9553 5.10531 24.4706 5.30666C23.9858 5.50801 23.5455 5.8031 23.175 6.175C22.9201 6.4222 22.7012 6.70415 22.525 7.0125L19 6.05C19.0087 5.25561 18.7805 4.47665 18.3447 3.81241C17.909 3.14816 17.2852 2.62873 16.5531 2.32033C15.821 2.01192 15.0136 1.92851 14.2339 2.08072C13.4542 2.23294 12.7374 2.61388 12.175 3.175C11.5727 3.77586 11.1777 4.55311 11.0473 5.39383C10.9169 6.23455 11.058 7.09494 11.45 7.85L7.21254 11.6625C6.44263 11.1537 5.52048 10.9268 4.60238 11.0202C3.68428 11.1136 2.82672 11.5216 2.17504 12.175C1.80315 12.5455 1.50806 12.9857 1.30671 13.4705C1.10536 13.9553 1.00171 14.4751 1.00171 15C1.00171 15.5249 1.10536 16.0447 1.30671 16.5295C1.50806 17.0143 1.80315 17.4545 2.17504 17.825C2.54412 18.1989 2.98408 18.4954 3.46916 18.6971C3.95423 18.8989 4.47468 19.0019 5.00004 19C5.92429 19.0012 6.82061 18.6833 7.53754 18.1L16.2875 24.5125C15.9974 25.2393 15.9268 26.0353 16.0846 26.8018C16.2423 27.5684 16.6215 28.2718 17.175 28.825C17.5455 29.1969 17.9858 29.492 18.4706 29.6933C18.9553 29.8947 19.4751 29.9983 20 29.9983C20.525 29.9983 21.0447 29.8947 21.5295 29.6933C22.0143 29.492 22.4546 29.1969 22.825 28.825C23.1969 28.4545 23.492 28.0143 23.6934 27.5295C23.8947 27.0447 23.9984 26.5249 23.9984 26C23.9984 25.4751 23.8947 24.9553 23.6934 24.4705C23.492 23.9857 23.1969 23.5455 22.825 23.175C22.6414 22.9946 22.445 22.8275 22.2375 22.675L25.65 12.9875H26C26.5254 12.9894 27.0459 12.8864 27.5309 12.6846C28.016 12.4829 28.456 12.1864 28.825 11.8125C29.5723 11.0648 29.9921 10.0509 29.9921 8.99375C29.9921 7.93661 29.5723 6.92273 28.825 6.175ZM20.35 22.0125C19.3091 21.9249 18.2746 22.2428 17.4625 22.9L8.71254 16.4875C8.92444 15.9516 9.01956 15.3768 8.99153 14.8012C8.96351 14.2257 8.813 13.6627 8.55004 13.15L12.7875 9.3375C13.4451 9.76839 14.2139 9.99859 15 10C15.5254 10.0019 16.0459 9.89889 16.5309 9.69713C17.016 9.49538 17.456 9.19888 17.825 8.825C18.08 8.5778 18.2988 8.29585 18.475 7.9875L22 8.95C21.9915 9.48375 22.0912 10.0137 22.2931 10.5078C22.4951 11.002 22.7951 11.45 23.175 11.825C23.3587 12.0054 23.5551 12.1725 23.7625 12.325L20.35 22.0125Z" fill="#344054"/>
</svg>
