<svg width="32" height="32" viewBox="0 0 32 32" fill="none" xmlns="http://www.w3.org/2000/svg">
<path d="M30.7125 10.7125L25.7125 15.7125C25.5213 15.8973 25.2659 16.0006 25 16.0006C24.7341 16.0006 24.4786 15.8973 24.2875 15.7125C24.0997 15.5229 23.9944 15.2668 23.9944 15C23.9944 14.7331 24.0997 14.4771 24.2875 14.2875L27.5875 11H22C20.6739 11 19.4021 11.5268 18.4644 12.4645C17.5268 13.4021 17 14.6739 17 16C17 17.8565 16.2625 19.637 14.9497 20.9497C13.637 22.2625 11.8565 23 9.99998 23H9.88748C9.64163 24.0787 9.00701 25.029 8.10486 25.6694C7.20271 26.3098 6.09626 26.5955 4.99685 26.4718C3.89743 26.3481 2.88212 25.8237 2.14484 24.9988C1.40756 24.1739 1 23.1063 1 22C1 20.8936 1.40756 19.8261 2.14484 19.0012C2.88212 18.1763 3.89743 17.6519 4.99685 17.5282C6.09626 17.4045 7.20271 17.6901 8.10486 18.3306C9.00701 18.971 9.64163 19.9213 9.88748 21H9.99998C11.3261 21 12.5978 20.4732 13.5355 19.5355C14.4732 18.5978 15 17.3261 15 16C15 14.1435 15.7375 12.363 17.0502 11.0502C18.363 9.73749 20.1435 8.99999 22 8.99999H27.5875L24.2875 5.71249C24.128 5.5182 24.0465 5.27153 24.0589 5.02048C24.0712 4.76943 24.1765 4.53194 24.3542 4.3542C24.5319 4.17647 24.7694 4.0712 25.0205 4.05887C25.2715 4.04654 25.5182 4.12803 25.7125 4.28749L30.7125 9.28749C30.9003 9.47709 31.0056 9.73314 31.0056 9.99999C31.0056 10.2668 30.9003 10.5229 30.7125 10.7125Z" fill="#344054"/>
</svg>
