<svg width="32" height="32" viewBox="0 0 32 32" fill="none" xmlns="http://www.w3.org/2000/svg">
<path d="M28 9.5875L22.4625 4.0375C22.0896 3.65516 21.5837 3.4313 21.05 3.4125C20.7791 3.40626 20.5098 3.45512 20.2584 3.55611C20.007 3.6571 19.7788 3.80812 19.5875 4L16.2875 7.2875L4.5875 19C4.40112 19.185 4.25324 19.405 4.1524 19.6475C4.05157 19.8899 3.99977 20.1499 4 20.4125V26C4 26.5304 4.21071 27.0391 4.58579 27.4142C4.96086 27.7893 5.46957 28 6 28H11.5875C12.1173 27.9977 12.6249 27.7866 13 27.4125L28 12.4125C28.371 12.036 28.579 11.5286 28.579 11C28.579 10.4714 28.371 9.96403 28 9.5875ZM24 13.5875L18.4125 8L21 5.4125L26.5875 11L24 13.5875Z" fill="#344054"/>
</svg>
