<svg width="32" height="32" viewBox="0 0 32 32" fill="none" xmlns="http://www.w3.org/2000/svg">
<path d="M27 3H9C7.67392 3 6.40215 3.52678 5.46447 4.46447C4.52678 5.40215 4 6.67392 4 8V17C4.00329 17.7946 4.32042 18.5558 4.88232 19.1177C5.44421 19.6796 6.20536 19.9967 7 20H12.85L12.0125 25.8625C12.0015 25.9074 11.9973 25.9538 12 26C12 27.0609 12.4214 28.0783 13.1716 28.8284C13.9217 29.5786 14.9391 30 16 30C17.0609 30 18.0783 29.5786 18.8284 28.8284C19.5786 28.0783 20 27.0609 20 26C20.0027 25.9538 19.9985 25.9074 19.9875 25.8625L19.15 20H25C25.7946 19.9967 26.5558 19.6796 27.1177 19.1177C27.6796 18.5558 27.9967 17.7946 28 17V4C28 3.73478 27.8946 3.48043 27.7071 3.29289C27.5196 3.10536 27.2652 3 27 3ZM9 5H22V10C22 10.2652 22.1054 10.5196 22.2929 10.7071C22.4804 10.8946 22.7348 11 23 11C23.2652 11 23.5196 10.8946 23.7071 10.7071C23.8946 10.5196 24 10.2652 24 10V5H26V13H6V8C6.00329 7.20536 6.32042 6.44421 6.88232 5.88232C7.44421 5.32042 8.20536 5.00329 9 5Z" fill="#344054"/>
</svg>
