<svg width="32" height="32" viewBox="0 0 32 32" fill="none" xmlns="http://www.w3.org/2000/svg">
<path d="M29.5875 11.05C29.5687 11.5837 29.3448 12.0896 28.9625 12.4625L12.4125 29C12.2277 29.1867 12.0077 29.3349 11.7652 29.4361C11.5228 29.5372 11.2627 29.5893 11 29.5893C10.7373 29.5893 10.4772 29.5372 10.2347 29.4361C9.9923 29.3349 9.7723 29.1867 9.58749 29L2.99999 22.4125C2.81329 22.2277 2.66508 22.0077 2.56393 21.7652C2.46279 21.5228 2.41071 21.2627 2.41071 21C2.41071 20.7373 2.46279 20.4772 2.56393 20.2348C2.66508 19.9923 2.81329 19.7723 2.99999 19.5875L5.73749 16.85C5.83096 16.7584 5.95662 16.7071 6.08749 16.7071C6.21837 16.7071 6.34403 16.7584 6.43749 16.85L10.7875 21.2125C10.9808 21.3939 11.2349 21.4964 11.5 21.5C11.6449 21.5004 11.7881 21.4693 11.9197 21.4088C12.0514 21.3484 12.1683 21.2601 12.2625 21.15C12.4238 20.9504 12.5054 20.6981 12.4916 20.4418C12.4777 20.1856 12.3694 19.9435 12.1875 19.7625L7.84999 15.4375C7.75838 15.344 7.70706 15.2184 7.70706 15.0875C7.70706 14.9566 7.75838 14.831 7.84999 14.7375L10.2375 12.35C10.331 12.2584 10.4566 12.2071 10.5875 12.2071C10.7184 12.2071 10.844 12.2584 10.9375 12.35L15.2875 16.7125C15.4808 16.8939 15.7349 16.9964 16 17C16.1449 17.0004 16.2881 16.9693 16.4197 16.9088C16.5514 16.8484 16.6683 16.7601 16.7625 16.65C16.9238 16.4504 17.0054 16.1981 16.9916 15.9418C16.9777 15.6856 16.8694 15.4435 16.6875 15.2625L12.35 10.9375C12.2584 10.844 12.2071 10.7184 12.2071 10.5875C12.2071 10.4566 12.2584 10.331 12.35 10.2375L14.7375 7.85C14.831 7.75839 14.9566 7.70707 15.0875 7.70707C15.2184 7.70707 15.344 7.75839 15.4375 7.85L19.7875 12.2125C19.9808 12.3939 20.2349 12.4964 20.5 12.5C20.6449 12.5004 20.7881 12.4693 20.9197 12.4088C21.0514 12.3484 21.1683 12.2601 21.2625 12.15C21.4238 11.9504 21.5054 11.6981 21.4916 11.4418C21.4777 11.1856 21.3694 10.9435 21.1875 10.7625L16.85 6.4375C16.7584 6.34404 16.7071 6.21838 16.7071 6.0875C16.7071 5.95662 16.7584 5.83097 16.85 5.7375L19.5875 3C19.964 2.629 20.4714 2.42103 21 2.42103C21.5286 2.42103 22.036 2.629 22.4125 3L29 9.5875C29.1919 9.77877 29.3429 10.007 29.4439 10.2584C29.5449 10.5098 29.5937 10.7791 29.5875 11.05Z" fill="#344054"/>
</svg>
