<svg width="32" height="32" viewBox="0 0 32 32" fill="none" xmlns="http://www.w3.org/2000/svg">
<path d="M25.1875 6.8125C23.9822 5.60383 22.5502 4.64485 20.9737 3.99053C19.3971 3.33621 17.7069 2.9994 16 2.9994C14.293 2.9994 12.6029 3.33621 11.0263 3.99053C9.44975 4.64485 8.0178 5.60383 6.81249 6.8125C5.60381 8.01781 4.64484 9.44977 3.99052 11.0263C3.3362 12.6029 2.99939 14.2931 2.99939 16C2.99939 17.7069 3.3362 19.3971 3.99052 20.9737C4.64484 22.5502 5.60381 23.9822 6.81249 25.1875C8.0178 26.3962 9.44975 27.3552 11.0263 28.0095C12.6029 28.6638 14.293 29.0006 16 29.0006C17.7069 29.0006 19.3971 28.6638 20.9737 28.0095C22.5502 27.3552 23.9822 26.3962 25.1875 25.1875C26.3962 23.9822 27.3551 22.5502 28.0095 20.9737C28.6638 19.3971 29.0006 17.7069 29.0006 16C29.0006 14.2931 28.6638 12.6029 28.0095 11.0263C27.3551 9.44977 26.3962 8.01781 25.1875 6.8125ZM12 26.25V19H20V26.25C17.4271 27.2504 14.5728 27.2504 12 26.25ZM23.775 23.775C23.2362 24.3196 22.6412 24.8057 22 25.225V19C22 18.4696 21.7893 17.9609 21.4142 17.5858C21.0391 17.2107 20.5304 17 20 17V9C20.001 8.82935 19.9578 8.66136 19.8745 8.51239C19.7913 8.36342 19.6709 8.23856 19.525 8.15C19.3803 8.05904 19.2147 8.00669 19.044 7.99793C18.8733 7.98918 18.7032 8.02432 18.55 8.1L12.55 11.1C12.3854 11.1861 12.2472 11.3153 12.1503 11.4738C12.0535 11.6324 12.0015 11.8142 12 12V17C11.4696 17 10.9608 17.2107 10.5858 17.5858C10.2107 17.9609 9.99999 18.4696 9.99999 19V25.225C8.46967 24.2197 7.21212 22.8511 6.33964 21.2414C5.46716 19.6317 5.00691 17.831 4.99999 16C4.99894 14.1906 5.44427 12.4088 6.2965 10.8127C7.14873 9.21654 8.38154 7.85527 9.88569 6.84951C11.3898 5.84375 13.1189 5.22458 14.9195 5.04685C16.7202 4.86912 18.5369 5.13833 20.2086 5.83063C21.8804 6.52292 23.3555 7.61691 24.5034 9.01566C25.6512 10.4144 26.4363 12.0747 26.789 13.8494C27.1417 15.6241 27.0512 17.4584 26.5254 19.1898C25.9997 20.9211 25.055 22.4961 23.775 23.775Z" fill="#344054"/>
</svg>
