<svg width="32" height="32" viewBox="0 0 32 32" fill="none" xmlns="http://www.w3.org/2000/svg">
<path d="M29.825 9.825C29.456 10.1989 29.016 10.4954 28.5309 10.6971C28.0459 10.8989 27.5254 11.0019 27 11C26.68 11.0004 26.3611 10.9626 26.05 10.8875L22.7125 17.0625L22.825 17.175C23.1969 17.5455 23.492 17.9857 23.6934 18.4705C23.8947 18.9553 23.9984 19.4751 23.9984 20C23.9984 20.5249 23.8947 21.0447 23.6934 21.5295C23.492 22.0143 23.1969 22.4545 22.825 22.825C22.4546 23.1969 22.0143 23.492 21.5295 23.6933C21.0447 23.8947 20.525 23.9983 20 23.9983C19.4751 23.9983 18.9553 23.8947 18.4706 23.6933C17.9858 23.492 17.5455 23.1969 17.175 22.825C16.5462 22.1987 16.1435 21.381 16.0303 20.5007C15.9172 19.6204 16.1 18.7275 16.55 17.9625L14.0375 15.45C13.4182 15.8085 12.7156 15.9982 12 16C11.68 16.0004 11.3611 15.9626 11.05 15.8875L7.71254 22.0625L7.82504 22.175C8.19694 22.5455 8.49203 22.9857 8.69338 23.4705C8.89473 23.9553 8.99838 24.4751 8.99838 25C8.99838 25.5249 8.89473 26.0447 8.69338 26.5295C8.49203 27.0143 8.19694 27.4545 7.82504 27.825C7.45457 28.1969 7.01431 28.492 6.52953 28.6933C6.04475 28.8947 5.52498 28.9983 5.00004 28.9983C4.47511 28.9983 3.95534 28.8947 3.47055 28.6933C2.98577 28.492 2.54551 28.1969 2.17504 27.825C1.80315 27.4545 1.50806 27.0143 1.30671 26.5295C1.10536 26.0447 1.00171 25.5249 1.00171 25C1.00171 24.4751 1.10536 23.9553 1.30671 23.4705C1.50806 22.9857 1.80315 22.5455 2.17504 22.175C2.66079 21.6897 3.26294 21.3372 3.9239 21.1511C4.58485 20.9651 5.28248 20.9518 5.95004 21.1125L9.28754 14.9375L9.17504 14.825C8.80315 14.4545 8.50806 14.0143 8.30671 13.5295C8.10536 13.0447 8.00171 12.5249 8.00171 12C8.00171 11.4751 8.10536 10.9553 8.30671 10.4705C8.50806 9.98573 8.80315 9.54547 9.17504 9.175C9.86314 8.48406 10.7799 8.06828 11.753 8.00581C12.7262 7.94334 13.6886 8.2385 14.4594 8.83578C15.2302 9.43307 15.7562 10.2913 15.9387 11.2492C16.1211 12.2072 15.9473 13.1987 15.45 14.0375L17.9625 16.55C18.8648 16.0245 19.935 15.8678 20.95 16.1125L24.2875 9.9375L24.175 9.825C23.8031 9.45453 23.5081 9.01427 23.3067 8.52949C23.1054 8.0447 23.0017 7.52493 23.0017 7C23.0017 6.47506 23.1054 5.95529 23.3067 5.47051C23.5081 4.98573 23.8031 4.54547 24.175 4.175C24.9359 3.48556 25.9328 3.11513 26.9593 3.1404C27.9858 3.16568 28.9632 3.58472 29.6893 4.31077C30.4153 5.03681 30.8344 6.01426 30.8596 7.04074C30.8849 8.06721 30.5145 9.0641 29.825 9.825Z" fill="#344054"/>
</svg>
