<svg width="32" height="32" viewBox="0 0 32 32" fill="none" xmlns="http://www.w3.org/2000/svg">
<path d="M27 25.975H16.2875L20.6375 21.6375L27.7125 14.5625C28.2705 13.9985 28.5835 13.2371 28.5835 12.4438C28.5835 11.6504 28.2705 10.889 27.7125 10.325L22.05 4.6625C21.4876 4.10147 20.7256 3.78639 19.9312 3.78639C19.1368 3.78639 18.3749 4.10147 17.8125 4.6625L10.7375 11.7375L3.66249 18.8125C3.10145 19.3749 2.78638 20.1369 2.78638 20.9313C2.78638 21.7256 3.10145 22.4876 3.66249 23.05L8.29999 27.6875C8.39352 27.7806 8.50476 27.854 8.62713 27.9034C8.74951 27.9528 8.88054 27.9771 9.01249 27.975H27C27.2652 27.975 27.5196 27.8696 27.7071 27.6821C27.8946 27.4946 28 27.2402 28 26.975C28 26.7098 27.8946 26.4554 27.7071 26.2679C27.5196 26.0804 27.2652 25.975 27 25.975ZM19.225 6.075C19.414 5.89099 19.6674 5.78802 19.9312 5.78802C20.1951 5.78802 20.4485 5.89099 20.6375 6.075L26.2875 11.7375C26.3816 11.8295 26.4564 11.9393 26.5074 12.0606C26.5585 12.1819 26.5848 12.3122 26.5848 12.4438C26.5848 12.5753 26.5585 12.7056 26.5074 12.8269C26.4564 12.9482 26.3816 13.058 26.2875 13.15L19.925 19.5125L12.8625 12.4375L19.225 6.075Z" fill="#344054"/>
</svg>
