<svg width="32" height="32" viewBox="0 0 32 32" fill="none" xmlns="http://www.w3.org/2000/svg">
<path d="M16 18.5C17.1046 18.5 18 17.6046 18 16.5C18 15.3954 17.1046 14.5 16 14.5C14.8954 14.5 14 15.3954 14 16.5C14 17.6046 14.8954 18.5 16 18.5Z" fill="#344054"/>
<path d="M27.325 15.4875L24 8.7625V4C24 3.46957 23.7893 2.96086 23.4142 2.58579C23.0392 2.21071 22.5305 2 22 2H10C9.46959 2 8.96088 2.21071 8.58581 2.58579C8.21074 2.96086 8.00002 3.46957 8.00002 4V8.7625L4.67502 15.4875C4.51397 15.8176 4.44631 16.1854 4.47936 16.5512C4.51241 16.9169 4.64492 17.2667 4.86252 17.5625L14.1 30.1C14.163 30.184 14.2508 30.246 14.3509 30.2773C14.4511 30.3085 14.5586 30.3075 14.6581 30.2743C14.7577 30.2412 14.8443 30.1775 14.9056 30.0924C14.967 30.0072 15 29.9049 15 29.8V20.375C14.0574 20.1316 13.2358 19.5528 12.6894 18.747C12.143 17.9412 11.9092 16.9638 12.0319 15.998C12.1546 15.0322 12.6253 14.1443 13.3558 13.5007C14.0863 12.8571 15.0264 12.502 16 12.502C16.9736 12.502 17.9137 12.8571 18.6443 13.5007C19.3748 14.1443 19.8455 15.0322 19.9681 15.998C20.0908 16.9638 19.857 17.9412 19.3106 18.747C18.7642 19.5528 17.9427 20.1316 17 20.375V29.8C17 29.9049 17.033 30.0072 17.0944 30.0924C17.1558 30.1775 17.2424 30.2412 17.3419 30.2743C17.4415 30.3075 17.5489 30.3085 17.6491 30.2773C17.7493 30.246 17.8371 30.184 17.9 30.1L27.1375 17.5625C27.3551 17.2667 27.4876 16.9169 27.5207 16.5512C27.5537 16.1854 27.4861 15.8176 27.325 15.4875ZM22 8H10V4H22V8Z" fill="#344054"/>
</svg>
