<svg width="32" height="32" viewBox="0 0 32 32" fill="none" xmlns="http://www.w3.org/2000/svg">
<path d="M25.1 6.7375C22.678 4.34086 19.4074 2.99762 16 3H15.8625C12.8053 3.02989 9.85634 4.1364 7.53402 6.12505C5.21171 8.1137 3.66462 10.8572 3.16465 13.8735C2.66467 16.8898 3.24381 19.9858 4.80027 22.6174C6.35673 25.249 8.79092 27.2478 11.675 28.2625C12.2782 28.4743 12.9233 28.5384 13.5564 28.4495C14.1894 28.3605 14.7919 28.1212 15.3134 27.7515C15.8349 27.3818 16.2602 26.8925 16.5536 26.3246C16.8471 25.7567 17.0002 25.1267 17 24.4875V24C17 23.4696 17.2108 22.9609 17.5858 22.5858C17.9609 22.2107 18.4696 22 19 22H24.775C25.6834 22.0068 26.5665 21.7013 27.2765 21.1347C27.9865 20.5681 28.4802 19.7747 28.675 18.8875C28.9023 17.904 29.0114 16.8969 29 15.8875C28.9899 14.1798 28.6399 12.4912 27.9703 10.9203C27.3007 9.3493 26.325 7.92739 25.1 6.7375ZM11.125 20.55C10.868 20.6981 10.5729 20.7666 10.277 20.747C9.98102 20.7274 9.69753 20.6205 9.46233 20.4398C9.22712 20.2591 9.05077 20.0127 8.95556 19.7318C8.86035 19.4509 8.85056 19.1481 8.92742 18.8616C9.00427 18.5751 9.16433 18.3179 9.38737 18.1224C9.6104 17.9268 9.88639 17.8018 10.1805 17.7631C10.4745 17.7244 10.7735 17.7738 11.0395 17.9049C11.3055 18.0361 11.5267 18.2432 11.675 18.5C11.7736 18.6707 11.8376 18.8591 11.8634 19.0546C11.8891 19.25 11.876 19.4486 11.8249 19.639C11.7739 19.8294 11.6858 20.0078 11.5657 20.1642C11.4456 20.3205 11.2958 20.4516 11.125 20.55ZM11.675 13.5C11.5267 13.7568 11.3055 13.9639 11.0395 14.0951C10.7735 14.2262 10.4745 14.2756 10.1805 14.2369C9.88639 14.1982 9.6104 14.0732 9.38737 13.8776C9.16433 13.6821 9.00427 13.4249 8.92742 13.1384C8.85056 12.8519 8.86035 12.5491 8.95556 12.2682C9.05077 11.9873 9.22712 11.7409 9.46233 11.5602C9.69753 11.3795 9.98102 11.2726 10.277 11.253C10.5729 11.2334 10.868 11.3019 11.125 11.45C11.4675 11.6511 11.7171 11.9788 11.82 12.3623C11.9229 12.7459 11.8708 13.1545 11.675 13.5ZM16 11C15.7034 11 15.4134 10.912 15.1667 10.7472C14.92 10.5824 14.7278 10.3481 14.6142 10.074C14.5007 9.79994 14.471 9.49833 14.5289 9.20736C14.5867 8.91639 14.7296 8.64912 14.9394 8.43934C15.1492 8.22956 15.4164 8.0867 15.7074 8.02882C15.9984 7.97094 16.3 8.00065 16.5741 8.11418C16.8482 8.22771 17.0824 8.41997 17.2472 8.66664C17.4121 8.91332 17.5 9.20333 17.5 9.5C17.5 9.89782 17.342 10.2794 17.0607 10.5607C16.7794 10.842 16.3979 11 16 11ZM22.375 14.05C22.118 14.1981 21.8229 14.2666 21.527 14.247C21.231 14.2274 20.9475 14.1205 20.7123 13.9398C20.4771 13.7591 20.3008 13.5127 20.2056 13.2318C20.1104 12.9509 20.1006 12.6481 20.1774 12.3616C20.2543 12.0751 20.4143 11.8179 20.6374 11.6224C20.8604 11.4268 21.1364 11.3018 21.4305 11.2631C21.7245 11.2244 22.0235 11.2738 22.2895 11.4049C22.5555 11.5361 22.7767 11.7432 22.925 12C23.1208 12.3455 23.1729 12.7541 23.07 13.1377C22.9671 13.5212 22.7175 13.8489 22.375 14.05Z" fill="#344054"/>
</svg>
