<svg width="32" height="32" viewBox="0 0 32 32" fill="none" xmlns="http://www.w3.org/2000/svg">
<path d="M1.50005 13.8625L15.5 21.8625C15.6512 21.9528 15.824 22.0005 16 22.0005C16.1761 22.0005 16.3489 21.9528 16.5 21.8625L30.5 13.8625C30.6504 13.7743 30.7751 13.6483 30.8618 13.497C30.9484 13.3457 30.994 13.1743 30.994 13C30.994 12.8256 30.9484 12.6543 30.8618 12.503C30.7751 12.3517 30.6504 12.2257 30.5 12.1375L16.5 4.1375C16.3494 4.04589 16.1764 3.99744 16 3.99744C15.8237 3.99744 15.6507 4.04589 15.5 4.1375L1.50005 12.1375C1.34967 12.2257 1.22498 12.3517 1.13833 12.503C1.05169 12.6543 1.0061 12.8256 1.0061 13C1.0061 13.1743 1.05169 13.3457 1.13833 13.497C1.22498 13.6483 1.34967 13.7743 1.50005 13.8625Z" fill="#344054"/>
<path d="M29.5 17.1375L16 24.85L2.49997 17.1375C2.27302 17.0286 2.01337 17.0094 1.77284 17.0835C1.53232 17.1577 1.3286 17.3199 1.20237 17.5376C1.07613 17.7554 1.03665 18.0127 1.09182 18.2583C1.14698 18.5039 1.29273 18.7196 1.49997 18.8625L15.5 26.8625C15.6511 26.9528 15.8239 27.0005 16 27.0005C16.176 27.0005 16.3488 26.9528 16.5 26.8625L30.5 18.8625C30.6243 18.8029 30.735 18.7182 30.825 18.6137C30.915 18.5092 30.9825 18.3873 31.0231 18.2555C31.0637 18.1237 31.0767 17.985 31.0611 17.848C31.0455 17.7109 31.0018 17.5786 30.9326 17.4593C30.8635 17.34 30.7704 17.2363 30.6592 17.1547C30.5481 17.0731 30.4212 17.0154 30.2867 16.9852C30.1521 16.9549 30.0128 16.9529 29.8774 16.9791C29.742 17.0053 29.6135 17.0592 29.5 17.1375Z" fill="#344054"/>
</svg>
