<svg width="32" height="32" viewBox="0 0 32 32" fill="none" xmlns="http://www.w3.org/2000/svg">
<path d="M26.4374 16.15C27.2892 15.4195 28.0717 14.6119 28.7749 13.7375C28.8581 13.6362 28.9202 13.5193 28.9576 13.3937C28.9951 13.2682 29.0072 13.1364 28.9933 13.0061C28.9793 12.8758 28.9396 12.7495 28.8763 12.6348C28.8131 12.52 28.7276 12.4189 28.6249 12.3375C28.5244 12.2537 28.4082 12.1907 28.2831 12.1522C28.158 12.1137 28.0264 12.1005 27.8962 12.1133C27.7659 12.1261 27.6395 12.1647 27.5242 12.2268C27.409 12.2888 27.3073 12.3732 27.2249 12.475C26.4425 13.4505 25.549 14.3315 24.5624 15.1H24.5374C22.4749 16.7 19.6624 17.9875 15.9999 17.9875C12.9058 18.0173 9.89252 16.9996 7.44994 15.1H7.43745C6.45094 14.3315 5.5574 13.4505 4.77495 12.475C4.69262 12.3732 4.59088 12.2888 4.47565 12.2268C4.36042 12.1647 4.23399 12.1261 4.10372 12.1133C3.97345 12.1005 3.84193 12.1137 3.71682 12.1522C3.59171 12.1907 3.4755 12.2537 3.37495 12.3375C3.27226 12.4189 3.1868 12.52 3.12356 12.6348C3.06033 12.7495 3.02057 12.8758 3.00661 13.0061C2.99264 13.1364 3.00476 13.2682 3.04225 13.3937C3.07973 13.5193 3.14184 13.6362 3.22494 13.7375C3.92818 14.6119 4.71067 15.4195 5.56245 16.15L3.12495 20.375C3.03732 20.5268 2.99112 20.6989 2.99097 20.8741C2.99081 21.0494 3.03671 21.2216 3.12406 21.3735C3.21141 21.5254 3.33715 21.6517 3.48868 21.7397C3.64021 21.8277 3.81221 21.8744 3.98745 21.875C4.16188 21.872 4.33265 21.8244 4.48358 21.7369C4.63451 21.6494 4.76061 21.5249 4.84994 21.375L7.16245 17.3625C8.51501 18.273 10.0047 18.9609 11.5749 19.4L10.8374 23.525C10.7936 23.7866 10.8542 24.0549 11.0061 24.2723C11.1581 24.4897 11.3892 24.6388 11.6499 24.6875H11.8249C12.0603 24.6882 12.2884 24.6058 12.469 24.4549C12.6496 24.304 12.7713 24.0942 12.8124 23.8625L13.5249 19.8125C14.3445 19.9336 15.1715 19.9962 15.9999 20C16.8239 20.0009 17.6469 19.9424 18.4624 19.825L19.1749 23.875C19.2161 24.1067 19.3377 24.3165 19.5184 24.4674C19.699 24.6183 19.9271 24.7007 20.1624 24.7H20.3374C20.5981 24.6513 20.8293 24.5022 20.9812 24.2848C21.1332 24.0674 21.1938 23.7991 21.1499 23.5375L20.4249 19.425C21.991 18.9792 23.4762 18.2872 24.8249 17.375L27.1249 21.35C27.2135 21.5034 27.3411 21.6304 27.4949 21.7183C27.6486 21.8061 27.8229 21.8516 27.9999 21.85C28.1761 21.8514 28.3493 21.8038 28.4999 21.7125C28.7281 21.5793 28.8942 21.3613 28.9622 21.106C29.0301 20.8507 28.9942 20.5789 28.8624 20.35L26.4374 16.15Z" fill="#344054"/>
</svg>
