<svg width="32" height="32" viewBox="0 0 32 32" fill="none" xmlns="http://www.w3.org/2000/svg">
<path d="M28.5251 19.125L26.1251 12.5375C25.9421 12.0407 25.5696 11.6367 25.0892 11.4141C24.6089 11.1915 24.0599 11.1685 23.5626 11.35L16.0751 14.075L17.4501 6.22501C17.4973 5.9659 17.4929 5.7 17.4372 5.44259C17.3814 5.18518 17.2753 4.94131 17.1251 4.72501C16.8202 4.29231 16.358 3.99617 15.8376 3.90001L8.93755 2.68751C8.41589 2.60013 7.88081 2.72164 7.44804 3.02575C7.01528 3.32985 6.71963 3.7921 6.62505 4.31251L3.60005 21.4625C3.47147 22.1974 3.49035 22.9505 3.65559 23.678C3.82083 24.4054 4.12913 25.0928 4.56255 25.7C4.98031 26.2941 5.51311 26.7983 6.12935 27.1826C6.7456 27.567 7.43275 27.8237 8.15005 27.9375C8.42757 27.9765 8.70733 27.9974 8.98755 28H26.5001C27.0305 28 27.5392 27.7893 27.9143 27.4142C28.2893 27.0391 28.5001 26.5304 28.5001 26V20.5375C28.6834 20.0861 28.6924 19.5826 28.5251 19.125ZM9.00005 24C8.70338 24 8.41337 23.912 8.1667 23.7472C7.92002 23.5824 7.72777 23.3481 7.61423 23.074C7.5007 22.7999 7.471 22.4983 7.52888 22.2074C7.58675 21.9164 7.72961 21.6491 7.93939 21.4393C8.14917 21.2296 8.41645 21.0867 8.70742 21.0288C8.99839 20.9709 9.29999 21.0007 9.57408 21.1142C9.84817 21.2277 10.0824 21.42 10.2473 21.6667C10.4121 21.9133 10.5001 22.2033 10.5001 22.5C10.5001 22.8978 10.342 23.2794 10.0607 23.5607C9.77941 23.842 9.39788 24 9.00005 24ZM26.5001 26H15.4626L26.5001 21.9875V26ZM14.1876 24.3375C14.2889 24.049 14.3642 23.752 14.4126 23.45L15.6751 16.35L24.2501 13.225L26.6376 19.8L14.1876 24.3375Z" fill="#344054"/>
</svg>
