<svg width="32" height="32" viewBox="0 0 32 32" fill="none" xmlns="http://www.w3.org/2000/svg">
<path d="M27.4875 8.33751L16.9875 2.41251C16.6869 2.24038 16.3464 2.14983 16 2.14983C15.6536 2.14983 15.3131 2.24038 15.0125 2.41251L4.5125 8.33751C4.2052 8.51492 3.94992 8.76997 3.77222 9.07711C3.59452 9.38424 3.50065 9.73267 3.5 10.0875V21.9125C3.50065 22.2673 3.59452 22.6158 3.77222 22.9229C3.94992 23.23 4.2052 23.4851 4.5125 23.6625L15.0125 29.5875C15.3131 29.7596 15.6536 29.8502 16 29.8502C16.3464 29.8502 16.6869 29.7596 16.9875 29.5875L27.4875 23.6625C27.7948 23.4851 28.0501 23.23 28.2278 22.9229C28.4055 22.6158 28.4994 22.2673 28.5 21.9125V10.0875C28.4994 9.73267 28.4055 9.38424 28.2278 9.07711C28.0501 8.76997 27.7948 8.51492 27.4875 8.33751Z" fill="#344054"/>
</svg>
