<svg width="32" height="32" viewBox="0 0 32 32" fill="none" xmlns="http://www.w3.org/2000/svg">
<path d="M21.825 10.175C21.494 8.38281 20.6794 6.71515 19.4695 5.35225C18.2595 3.98935 16.7 2.98303 14.9597 2.44205C13.2193 1.90107 11.3642 1.84599 9.59477 2.28276C7.82537 2.71954 6.20898 3.63156 4.92027 4.92027C3.63155 6.20898 2.71953 7.82538 2.28275 9.59478C1.84598 11.3642 1.90106 13.2193 2.44204 14.9597C2.98303 16.7001 3.98934 18.2595 5.35224 19.4695C6.71514 20.6795 8.3828 21.494 10.175 21.825C10.506 23.6172 11.3205 25.2849 12.5305 26.6478C13.7405 28.0107 15.2999 29.017 17.0403 29.558C18.7807 30.0989 20.6358 30.154 22.4052 29.7172C24.1746 29.2805 25.791 28.3684 27.0797 27.0797C28.3684 25.791 29.2805 24.1746 29.7172 22.4052C30.154 20.6358 30.0989 18.7807 29.558 17.0403C29.017 15.3 28.0107 13.7405 26.6478 12.5305C25.2849 11.3206 23.6172 10.506 21.825 10.175ZM4 12C3.99922 10.0512 4.70983 8.1691 5.99841 6.70711C7.287 5.24511 9.06493 4.30375 10.9984 4.05976C12.9319 3.81577 14.888 4.28594 16.4993 5.38199C18.1107 6.47804 19.2666 8.12459 19.75 10.0125C17.1874 10.0759 14.7473 11.1221 12.9347 12.9347C11.1221 14.7473 10.0759 17.1874 10.0125 19.75C8.29438 19.3049 6.77229 18.3028 5.68437 16.9005C4.59645 15.4982 4.0041 13.7748 4 12ZM20 28C18.2252 27.9959 16.5018 27.4035 15.0995 26.3156C13.6972 25.2277 12.6951 23.7056 12.25 21.9875C14.8126 21.9241 17.2527 20.8779 19.0653 19.0653C20.8779 17.2527 21.9241 14.8126 21.9875 12.25C23.8754 12.7334 25.522 13.8893 26.618 15.5007C27.7141 17.112 28.1842 19.0681 27.9402 21.0016C27.6963 22.9351 26.7549 24.713 25.2929 26.0016C23.8309 27.2902 21.9488 28.0008 20 28Z" fill="#344054"/>
</svg>
