<svg width="32" height="32" viewBox="0 0 32 32" fill="none" xmlns="http://www.w3.org/2000/svg">
<path d="M28 9.5875L22.4125 4C22.2277 3.8133 22.0077 3.66509 21.7652 3.56394C21.5228 3.46279 21.2627 3.41071 21 3.41071C20.7373 3.41071 20.4772 3.46279 20.2348 3.56394C19.9923 3.66509 19.7723 3.8133 19.5875 4L16.2875 7.2875L4.5875 19C4.40112 19.185 4.25324 19.405 4.1524 19.6475C4.05157 19.8899 3.99977 20.1499 4 20.4125V26C4 26.5304 4.21071 27.0391 4.58579 27.4142C4.96086 27.7893 5.46957 28 6 28H11.5875C11.8501 28.0002 12.1101 27.9484 12.3525 27.8476C12.595 27.7468 12.815 27.5989 13 27.4125L28 12.4125C28.371 12.036 28.579 11.5286 28.579 11C28.579 10.4714 28.371 9.96403 28 9.5875ZM6.4125 20L18 8.4125L20.0875 10.5L8.5 22.0875L6.4125 20ZM6 22.4125L9.5875 26H6V22.4125ZM12 25.5875L9.9125 23.5L21.5 11.9125L23.5875 14L12 25.5875Z" fill="#344054"/>
</svg>
