<svg width="32" height="32" viewBox="0 0 32 32" fill="none" xmlns="http://www.w3.org/2000/svg">
<path d="M28 9.5875L22.4125 4C22.2277 3.8133 22.0077 3.66509 21.7652 3.56394C21.5228 3.46279 21.2627 3.41071 21 3.41071C20.7373 3.41071 20.4772 3.46279 20.2348 3.56394C19.9923 3.66509 19.7723 3.8133 19.5875 4L4.5875 19C4.38977 19.1941 4.23627 19.4286 4.1375 19.6875L4.1125 19.75C4.0379 19.9629 3.99987 20.1869 4 20.4125V26C4 26.5304 4.21071 27.0391 4.58579 27.4142C4.96086 27.7893 5.46957 28 6 28H27C27.2652 28 27.5196 27.8946 27.7071 27.7071C27.8946 27.5196 28 27.2652 28 27C28 26.7348 27.8946 26.4804 27.7071 26.2929C27.5196 26.1054 27.2652 26 27 26H14.4125L28 12.4125C28.371 12.036 28.579 11.5286 28.579 11C28.579 10.4714 28.371 9.96403 28 9.5875ZM18 8.4125L20.0875 10.5L8.5 22.0875L6.4125 20L18 8.4125ZM6 26V22.4125L9.5875 26H6ZM12 25.5875L9.9125 23.5L21.5 11.9125L23.5875 14L12 25.5875Z" fill="#344054"/>
</svg>
