<svg width="32" height="32" viewBox="0 0 32 32" fill="none" xmlns="http://www.w3.org/2000/svg">
<path d="M25.1875 6.8125C23.9822 5.60383 22.5502 4.64485 20.9737 3.99053C19.3971 3.33621 17.7069 2.9994 16 2.9994C14.293 2.9994 12.6029 3.33621 11.0263 3.99053C9.44975 4.64485 8.0178 5.60383 6.81249 6.8125C5.60381 8.01781 4.64484 9.44977 3.99052 11.0263C3.3362 12.6029 2.99939 14.2931 2.99939 16C2.99939 17.7069 3.3362 19.3971 3.99052 20.9737C4.64484 22.5502 5.60381 23.9822 6.81249 25.1875C8.0178 26.3962 9.44975 27.3552 11.0263 28.0095C12.6029 28.6638 14.293 29.0006 16 29.0006C17.7069 29.0006 19.3971 28.6638 20.9737 28.0095C22.5502 27.3552 23.9822 26.3962 25.1875 25.1875C26.3962 23.9822 27.3551 22.5502 28.0095 20.9737C28.6638 19.3971 29.0006 17.7069 29.0006 16C29.0006 14.2931 28.6638 12.6029 28.0095 11.0263C27.3551 9.44977 26.3962 8.01781 25.1875 6.8125ZM11 25.8V22H21V25.8C19.4494 26.5823 17.7368 26.9899 16 26.9899C14.2632 26.9899 12.5506 26.5823 11 25.8ZM13 17H19V20H13V17ZM23.775 23.775C23.525 24.025 23.2625 24.2625 23 24.4875V22C23 21.4696 22.7893 20.9609 22.4142 20.5858C22.0391 20.2107 21.5304 20 21 20V17C20.999 16.5201 20.8254 16.0566 20.5111 15.694C20.1967 15.3314 19.7624 15.094 19.2875 15.025L17.95 9.1625C17.8493 8.72064 17.6015 8.32607 17.2472 8.04345C16.8929 7.76083 16.4532 7.60691 16 7.60691C15.5468 7.60691 15.107 7.76083 14.7528 8.04345C14.3985 8.32607 14.1507 8.72064 14.05 9.1625L12.7125 15.025C12.2376 15.094 11.8033 15.3314 11.4889 15.694C11.1745 16.0566 11.001 16.5201 11 17V20C10.4696 20 9.96085 20.2107 9.58577 20.5858C9.2107 20.9609 8.99999 21.4696 8.99999 22V24.4875C8.73749 24.2625 8.47499 24.025 8.22499 23.775C6.68571 22.237 5.63717 20.277 5.21201 18.143C4.78684 16.0089 5.00415 13.7967 5.83645 11.7862C6.66875 9.7757 8.07865 8.0572 9.88778 6.84811C11.6969 5.63902 13.824 4.99365 16 4.99365C18.176 4.99365 20.3031 5.63902 22.1122 6.84811C23.9213 8.0572 25.3312 9.7757 26.1635 11.7862C26.9958 13.7967 27.2131 16.0089 26.788 18.143C26.3628 20.277 25.3143 22.237 23.775 23.775Z" fill="#344054"/>
</svg>
