<svg width="32" height="32" viewBox="0 0 32 32" fill="none" xmlns="http://www.w3.org/2000/svg">
<path d="M8.22497 6.81249C8.41198 6.99996 8.517 7.25394 8.517 7.51874C8.517 7.78354 8.41198 8.03753 8.22497 8.22499C6.85804 9.58719 5.87492 11.2861 5.37497 13.15C5.31791 13.3627 5.19307 13.5509 5.01939 13.6863C4.8457 13.8216 4.63263 13.8966 4.41247 13.9L4.14997 13.8625C4.02261 13.8291 3.9031 13.7709 3.7983 13.6911C3.6935 13.6114 3.60547 13.5118 3.53927 13.398C3.47307 13.2842 3.43 13.1584 3.41253 13.0279C3.39506 12.8974 3.40353 12.7647 3.43747 12.6375C4.02706 10.4313 5.19172 8.42121 6.81247 6.81249C6.90444 6.71838 7.0143 6.6436 7.13558 6.59254C7.25686 6.54149 7.38713 6.51518 7.51872 6.51518C7.65031 6.51518 7.78057 6.54149 7.90186 6.59254C8.02314 6.6436 8.13299 6.71838 8.22497 6.81249ZM5.37497 18.85C5.30701 18.5931 5.13976 18.3737 4.91003 18.24C4.6803 18.1064 4.4069 18.0695 4.14997 18.1375C3.89304 18.2055 3.67363 18.3727 3.54001 18.6024C3.40639 18.8322 3.36951 19.1056 3.43747 19.3625C4.03383 21.5695 5.19737 23.582 6.81247 25.2C6.99913 25.3838 7.25048 25.4871 7.51247 25.4875C7.7092 25.4838 7.9006 25.4229 8.06327 25.3122C8.22594 25.2015 8.35282 25.0458 8.42841 24.8641C8.504 24.6824 8.52501 24.4827 8.48888 24.2893C8.45275 24.0958 8.36104 23.9171 8.22497 23.775C6.85757 22.4132 5.87437 20.7141 5.37497 18.85ZM18.85 26.625C16.9829 27.1252 15.017 27.1252 13.15 26.625C12.893 26.557 12.6196 26.5939 12.3899 26.7275C12.1602 26.8612 11.9929 27.0806 11.925 27.3375C11.857 27.5944 11.8939 27.8678 12.0275 28.0976C12.1611 28.3273 12.3805 28.4945 12.6375 28.5625C13.7392 28.8514 14.8734 28.9985 16.0125 29C17.1433 28.9985 18.2692 28.8515 19.3625 28.5625C19.6194 28.4945 19.8388 28.3273 19.9724 28.0976C20.106 27.8678 20.1429 27.5944 20.075 27.3375C20.007 27.0806 19.8398 26.8612 19.61 26.7275C19.3803 26.5939 19.1069 26.557 18.85 26.625ZM27.85 18.1375C27.7227 18.1036 27.5901 18.0951 27.4596 18.1126C27.3291 18.13 27.2033 18.1731 27.0895 18.2393C26.9757 18.3055 26.876 18.3935 26.7963 18.4983C26.7166 18.6031 26.6584 18.7226 26.625 18.85C26.125 20.7139 25.1419 22.4128 23.775 23.775C23.6389 23.9171 23.5472 24.0958 23.5111 24.2893C23.4749 24.4827 23.4959 24.6824 23.5715 24.8641C23.6471 25.0458 23.774 25.2015 23.9367 25.3122C24.0993 25.4229 24.2907 25.4838 24.4875 25.4875C24.6184 25.4877 24.748 25.4613 24.8684 25.4097C24.9888 25.3581 25.0973 25.2825 25.1875 25.1875C26.8082 23.5788 27.9729 21.5687 28.5625 19.3625C28.5964 19.2353 28.6049 19.1026 28.5874 18.9721C28.5699 18.8416 28.5269 18.7158 28.4607 18.602C28.3945 18.4882 28.3064 18.3886 28.2016 18.3088C28.0968 18.2291 27.9773 18.1709 27.85 18.1375ZM26.625 13.15C26.682 13.3627 26.8069 13.5509 26.9805 13.6863C27.1542 13.8216 27.3673 13.8966 27.5875 13.9L27.85 13.8625C27.9773 13.8291 28.0968 13.7709 28.2016 13.6911C28.3064 13.6114 28.3945 13.5118 28.4607 13.398C28.5269 13.2842 28.5699 13.1584 28.5874 13.0279C28.6049 12.8974 28.5964 12.7647 28.5625 12.6375C27.9661 10.4305 26.8026 8.418 25.1875 6.79999C25.0947 6.70669 24.9841 6.63287 24.8624 6.58289C24.7407 6.5329 24.6102 6.50775 24.4786 6.50892C24.347 6.51008 24.217 6.53754 24.0961 6.58967C23.9753 6.6418 23.8661 6.71756 23.775 6.81249C23.588 6.99996 23.4829 7.25394 23.4829 7.51874C23.4829 7.78354 23.588 8.03753 23.775 8.22499C25.1424 9.58683 26.1256 11.2859 26.625 13.15ZM13.15 5.37499C15.017 4.87476 16.9829 4.87476 18.85 5.37499C18.9353 5.3997 19.0236 5.41232 19.1125 5.41249C19.361 5.41989 19.6033 5.33446 19.7922 5.17288C19.9811 5.0113 20.1031 4.78514 20.1343 4.53851C20.1655 4.29189 20.1038 4.04248 19.9611 3.83892C19.8184 3.63536 19.605 3.49225 19.3625 3.43749C17.1593 2.84998 14.8406 2.84998 12.6375 3.43749C12.3805 3.50545 12.1611 3.6727 12.0275 3.90243C11.8939 4.13216 11.857 4.40556 11.925 4.66249C11.9929 4.91942 12.1602 5.13883 12.3899 5.27245C12.6196 5.40607 12.893 5.44295 13.15 5.37499Z" fill="#344054"/>
</svg>
