<svg width="32" height="32" viewBox="0 0 32 32" fill="none" xmlns="http://www.w3.org/2000/svg">
<path d="M32 25.5C32 26.4283 31.6313 27.3185 30.9749 27.9749C30.3185 28.6313 29.4283 29 28.5 29C27.5717 29 26.6815 28.6313 26.0251 27.9749C25.3688 27.3185 25 26.4283 25 25.5C25 22.625 27.675 19.9125 27.7875 19.7875C27.9786 19.6027 28.2341 19.4994 28.5 19.4994C28.7659 19.4994 29.0214 19.6027 29.2125 19.7875C29.325 19.9125 32 22.625 32 25.5ZM16.5625 15.5625C16.7023 15.4231 16.8133 15.2576 16.889 15.0752C16.9647 14.8929 17.0037 14.6974 17.0037 14.5C17.0037 14.3026 16.9647 14.1071 16.889 13.9248C16.8133 13.7424 16.7023 13.5769 16.5625 13.4375C16.2794 13.1581 15.8977 13.0015 15.5 13.0015C15.1023 13.0015 14.7206 13.1581 14.4375 13.4375C14.1557 13.7193 13.9974 14.1015 13.9974 14.5C13.9974 14.8985 14.1557 15.2807 14.4375 15.5625C14.7193 15.8443 15.1015 16.0026 15.5 16.0026C15.8985 16.0026 16.2807 15.8443 16.5625 15.5625ZM28.875 15.4375C28.8718 15.1699 28.7642 14.9142 28.575 14.725L15.1375 1.2875C14.95 1.10049 14.6961 0.995464 14.4313 0.995464C14.1665 0.995464 13.9125 1.10049 13.725 1.2875L8.7125 6.3L13.8375 11.425C14.577 11.0248 15.4358 10.9043 16.2569 11.0853C17.078 11.2664 17.8065 11.737 18.3091 12.4111C18.8117 13.0851 19.0548 13.9176 18.9941 14.7562C18.9333 15.5948 18.5726 16.3835 17.9781 16.9781C17.3835 17.5726 16.5948 17.9333 15.7562 17.9941C14.9176 18.0548 14.0851 17.8117 13.4111 17.3091C12.737 16.8065 12.2664 16.078 12.0853 15.2569C11.9043 14.4358 12.0248 13.577 12.425 12.8375L7.3 7.7125L1.7125 13.3125C1.43283 13.5912 1.21091 13.9224 1.0595 14.287C0.908082 14.6517 0.830139 15.0427 0.830139 15.4375C0.830139 15.8323 0.908082 16.2233 1.0595 16.588C1.21091 16.9526 1.43283 17.2838 1.7125 17.5625L12.3125 28.1625C12.877 28.7243 13.6411 29.0397 14.4375 29.0397C15.2339 29.0397 15.998 28.7243 16.5625 28.1625L28.575 16.1375C28.7634 15.9529 28.8712 15.7013 28.875 15.4375ZM5.4375 3.025C5.24728 2.85264 4.99806 2.76004 4.74144 2.76635C4.48482 2.77267 4.24046 2.87743 4.05895 3.05894C3.87743 3.24046 3.77267 3.48482 3.76636 3.74144C3.76004 3.99806 3.85265 4.24728 4.025 4.4375L7.3 7.7125L8.7125 6.3L5.4375 3.025Z" fill="#344054"/>
</svg>
