<svg width="32" height="32" viewBox="0 0 32 32" fill="none" xmlns="http://www.w3.org/2000/svg">
<path d="M27.5 21.1375L16 27.8375L4.49997 21.1375C4.27302 21.0286 4.01337 21.0094 3.77284 21.0835C3.53232 21.1577 3.3286 21.3199 3.20237 21.5376C3.07613 21.7554 3.03665 22.0127 3.09182 22.2583C3.14698 22.5039 3.29273 22.7196 3.49997 22.8625L15.5 29.8625C15.6511 29.9528 15.8239 30.0005 16 30.0005C16.176 30.0005 16.3488 29.9528 16.5 29.8625L28.5 22.8625C28.6243 22.8029 28.735 22.7182 28.825 22.6137C28.915 22.5092 28.9825 22.3873 29.0231 22.2555C29.0637 22.1237 29.0767 21.985 29.0611 21.848C29.0455 21.7109 29.0018 21.5786 28.9326 21.4593C28.8635 21.34 28.7704 21.2363 28.6592 21.1547C28.5481 21.0731 28.4212 21.0154 28.2867 20.9852C28.1521 20.9549 28.0128 20.9529 27.8774 20.9791C27.742 21.0053 27.6135 21.0592 27.5 21.1375Z" fill="#344054"/>
<path d="M27.5 15.1375L16 21.8375L4.49997 15.1375C4.27302 15.0286 4.01337 15.0094 3.77284 15.0835C3.53232 15.1577 3.3286 15.3199 3.20237 15.5376C3.07613 15.7554 3.03665 16.0127 3.09182 16.2583C3.14698 16.5039 3.29273 16.7196 3.49997 16.8625L15.5 23.8625C15.6511 23.9528 15.8239 24.0005 16 24.0005C16.176 24.0005 16.3488 23.9528 16.5 23.8625L28.5 16.8625C28.6243 16.8029 28.735 16.7182 28.825 16.6137C28.915 16.5092 28.9825 16.3873 29.0231 16.2555C29.0637 16.1237 29.0767 15.985 29.0611 15.848C29.0455 15.7109 29.0018 15.5786 28.9326 15.4593C28.8635 15.34 28.7704 15.2363 28.6592 15.1547C28.5481 15.0731 28.4212 15.0154 28.2867 14.9852C28.1521 14.9549 28.0128 14.9529 27.8774 14.9791C27.742 15.0053 27.6135 15.0592 27.5 15.1375Z" fill="#344054"/>
<path d="M3.49999 10.8625L15.5 17.8625C15.6511 17.9528 15.8239 18.0005 16 18.0005C16.1761 18.0005 16.3488 17.9528 16.5 17.8625L28.5 10.8625C28.6504 10.7743 28.7751 10.6483 28.8617 10.497C28.9483 10.3457 28.9939 10.1743 28.9939 10C28.9939 9.82565 28.9483 9.65433 28.8617 9.50303C28.7751 9.35174 28.6504 9.22573 28.5 9.1375L16.5 2.1375C16.3493 2.04589 16.1763 1.99744 16 1.99744C15.8236 1.99744 15.6507 2.04589 15.5 2.1375L3.49999 9.1375C3.34961 9.22573 3.22491 9.35174 3.13827 9.50303C3.05163 9.65433 3.00604 9.82565 3.00604 10C3.00604 10.1743 3.05163 10.3457 3.13827 10.497C3.22491 10.6483 3.34961 10.7743 3.49999 10.8625Z" fill="#344054"/>
</svg>
