<svg width="32" height="32" viewBox="0 0 32 32" fill="none" xmlns="http://www.w3.org/2000/svg">
<path d="M30.7625 19.3625C30.6125 19.175 27.9 15.975 23.2875 14.1875C23.025 11.9625 22.175 9.9375 20.8375 8.3625C18.9625 6.1625 16.25 5 13 5C6.56247 5 2.36247 10.775 2.18747 11.0125C2.03166 11.228 1.96783 11.4965 2.01002 11.7591C2.05222 12.0216 2.19698 12.2567 2.41247 12.4125C2.62796 12.5683 2.89652 12.6321 3.15907 12.5899C3.42162 12.5478 3.65666 12.403 3.81247 12.1875C3.84997 12.125 7.59997 7 13 7C15.65 7 17.825 7.925 19.3125 9.6625C20.2423 10.7688 20.8747 12.0938 21.15 13.5125C19.7934 13.1692 18.3993 12.9971 17 13C13.7375 13 11.0125 13.85 9.08747 15.4625C7.39997 16.8875 6.42497 18.875 6.42497 20.9C6.41558 21.6905 6.56447 22.4748 6.86287 23.2069C7.16127 23.9389 7.60315 24.6039 8.16247 25.1625C9.36247 26.3625 11.0375 27 13 27C16.15 27 18.8375 25.75 20.7625 23.4C22.2875 21.525 23.2125 19.0125 23.3625 16.4C25.5838 17.4066 27.5813 18.8474 29.2375 20.6375C29.3152 20.7547 29.4168 20.8542 29.5356 20.9294C29.6544 21.0047 29.7877 21.0541 29.9269 21.0743C30.0661 21.0945 30.208 21.0852 30.3433 21.0469C30.4786 21.0085 30.6043 20.9421 30.7122 20.8519C30.8201 20.7617 30.9078 20.6497 30.9694 20.5233C31.0311 20.397 31.0655 20.259 31.0702 20.1184C31.075 19.9779 31.05 19.8379 30.997 19.7076C30.9439 19.5774 30.864 19.4598 30.7625 19.3625ZM13 25C9.83747 25 8.42497 22.95 8.42497 20.9C8.42497 18.0625 11.1125 15 17 15C18.4834 14.9982 19.9585 15.2216 21.375 15.6625V15.7C21.375 20.325 18.5 25 13 25Z" fill="#344054"/>
</svg>
