<svg width="32" height="32" viewBox="0 0 32 32" fill="none" xmlns="http://www.w3.org/2000/svg">
<path d="M21.75 5.97499C20.2048 4.19145 18.4695 2.58192 16.575 1.17499C16.4059 1.05835 16.2054 0.99588 16 0.99588C15.7946 0.99588 15.5941 1.05835 15.425 1.17499C13.5305 2.58192 11.7952 4.19145 10.25 5.97499C6.8125 9.91249 5 14.075 5 18C5 20.9174 6.15893 23.7153 8.22183 25.7782C10.2847 27.8411 13.0826 29 16 29C18.9174 29 21.7153 27.8411 23.7782 25.7782C25.8411 23.7153 27 20.9174 27 18C27 14.075 25.1875 9.91249 21.75 5.97499ZM16 3.24999C17.775 4.63749 23.1125 9.22499 24.6 15H7.4C8.8875 9.22499 14.225 4.63749 16 3.24999Z" fill="#344054"/>
</svg>
