<svg width="32" height="32" viewBox="0 0 32 32" fill="none" xmlns="http://www.w3.org/2000/svg">
<path d="M26 4H6C5.46957 4 4.96086 4.21071 4.58579 4.58579C4.21071 4.96086 4 5.46957 4 6V26C4 26.5304 4.21071 27.0391 4.58579 27.4142C4.96086 27.7893 5.46957 28 6 28H26C26.5304 28 27.0391 27.7893 27.4142 27.4142C27.7893 27.0391 28 26.5304 28 26V6C28 5.46957 27.7893 4.96086 27.4142 4.58579C27.0391 4.21071 26.5304 4 26 4ZM23.4125 23.4125C23.3224 23.5075 23.2138 23.5831 23.0934 23.6347C22.9731 23.6863 22.8434 23.7127 22.7125 23.7125C22.5798 23.7123 22.4484 23.6856 22.3261 23.6341C22.2038 23.5826 22.0929 23.5073 22 23.4125L8.5875 10C8.48711 9.90904 8.40625 9.79864 8.34983 9.67548C8.2934 9.55232 8.26259 9.41899 8.25925 9.28357C8.25592 9.14814 8.28014 9.01345 8.33043 8.88767C8.38073 8.76189 8.45606 8.64763 8.55184 8.55184C8.64763 8.45606 8.76189 8.38073 8.88767 8.33043C9.01345 8.28014 9.14814 8.25592 9.28357 8.25925C9.41899 8.26259 9.55232 8.2934 9.67548 8.34983C9.79864 8.40625 9.90904 8.48711 10 8.5875L23.4125 22C23.5995 22.1875 23.7045 22.4415 23.7045 22.7062C23.7045 22.971 23.5995 23.225 23.4125 23.4125Z" fill="#344054"/>
</svg>
