<svg width="32" height="32" viewBox="0 0 32 32" fill="none" xmlns="http://www.w3.org/2000/svg">
<path d="M29 16C28.999 18.3337 28.3699 20.6241 27.1787 22.6308C25.9874 24.6375 24.2779 26.2865 22.2297 27.4048C20.1814 28.5231 17.8699 29.0695 15.5377 28.9865C13.2055 28.9035 10.9386 28.1942 8.97504 26.9331C7.01144 25.6721 5.42351 23.9057 4.37791 21.8194C3.3323 19.733 2.86758 17.4037 3.03251 15.0759C3.19744 12.7481 3.98595 10.5076 5.31527 8.58951C6.6446 6.67146 8.46572 5.14661 10.5875 4.175C10.8299 4.0686 11.1043 4.06135 11.352 4.1548C11.5996 4.24826 11.8008 4.43499 11.9125 4.675C11.9669 4.7948 11.997 4.92415 12.0013 5.05564C12.0056 5.18713 11.9839 5.31817 11.9375 5.44126C11.891 5.56435 11.8207 5.67706 11.7307 5.77294C11.6406 5.86881 11.5325 5.94598 11.4125 6C9.13164 7.04658 7.2772 8.8416 6.15691 11.0872C5.03663 13.3328 4.71785 15.8939 5.25349 18.3456C5.78912 20.7973 7.14696 22.9921 9.10168 24.5659C11.0564 26.1397 13.4905 26.9977 16 26.9977C18.5095 26.9977 20.9436 26.1397 22.8983 24.5659C24.853 22.9921 26.2109 20.7973 26.7465 18.3456C27.2822 15.8939 26.9634 13.3328 25.8431 11.0872C24.7228 8.8416 22.8684 7.04658 20.5875 6C20.4675 5.94598 20.3594 5.86881 20.2694 5.77294C20.1793 5.67706 20.109 5.56435 20.0625 5.44126C20.0161 5.31817 19.9944 5.18713 19.9987 5.05564C20.003 4.92415 20.0331 4.7948 20.0875 4.675C20.1992 4.43499 20.4004 4.24826 20.648 4.1548C20.8957 4.06135 21.1701 4.0686 21.4125 4.175C23.6734 5.21704 25.589 6.88402 26.9334 8.97925C28.2778 11.0745 28.9949 13.5105 29 16Z" fill="#344054"/>
</svg>
