<svg width="32" height="32" viewBox="0 0 32 32" fill="none" xmlns="http://www.w3.org/2000/svg">
<path d="M28.825 3.175C28.4545 2.8031 28.0143 2.50801 27.5295 2.30666C27.0447 2.10532 26.5249 2.00167 26 2.00167C25.4751 2.00167 24.9553 2.10532 24.4705 2.30666C23.9857 2.50801 23.5455 2.8031 23.175 3.175L23.1375 3.2125L16.275 10.8625L15.125 9.7125C14.8471 9.43132 14.5162 9.20807 14.1515 9.05571C13.7867 8.90334 13.3953 8.82489 13 8.82489C12.6047 8.82489 12.2133 8.90334 11.8485 9.05571C11.4838 9.20807 11.1529 9.43132 10.875 9.7125L1.28751 19.2875C1.09973 19.4771 0.994385 19.7332 0.994385 20C0.994385 20.2668 1.09973 20.5229 1.28751 20.7125L11.2875 30.7125C11.4787 30.8973 11.7341 31.0006 12 31.0006C12.2659 31.0006 12.5214 30.8973 12.7125 30.7125L22.2875 21.125C22.5687 20.8471 22.7919 20.5162 22.9443 20.1515C23.0967 19.7867 23.1751 19.3953 23.1751 19C23.1751 18.6047 23.0967 18.2133 22.9443 17.8485C22.7919 17.4838 22.5687 17.1529 22.2875 16.875L21.1375 15.725L28.7875 8.8625L28.825 8.825C29.1969 8.45453 29.492 8.01427 29.6933 7.52949C29.8947 7.04471 29.9983 6.52494 29.9983 6C29.9983 5.47507 29.8947 4.9553 29.6933 4.47051C29.492 3.98573 29.1969 3.54547 28.825 3.175ZM12 28.5875L10.2375 26.825L13.425 23.625C13.5974 23.4348 13.69 23.1856 13.6837 22.9289C13.6773 22.6723 13.5726 22.428 13.3911 22.2464C13.2096 22.0649 12.9652 21.9602 12.7086 21.9539C12.452 21.9475 12.2027 22.0401 12.0125 22.2125L8.82501 25.4125L6.73751 23.325L9.92501 20.125C10.0974 19.9348 10.19 19.6856 10.1837 19.4289C10.1773 19.1723 10.0726 18.928 9.89107 18.7464C9.70956 18.5649 9.46519 18.4602 9.20857 18.4539C8.95196 18.4475 8.70273 18.5401 8.51251 18.7125L5.32501 21.9125L3.41251 20L9.00001 14.4125L17.5875 23L12 28.5875Z" fill="#344054"/>
</svg>
