<svg width="32" height="32" viewBox="0 0 32 32" fill="none" xmlns="http://www.w3.org/2000/svg">
<path d="M28.5875 11C28.5877 10.7374 28.5359 10.4774 28.4351 10.235C28.3343 9.99252 28.1864 9.77246 28 9.5875L22.4125 4C22.036 3.629 21.5286 3.42103 21 3.42103C20.4714 3.42103 19.964 3.629 19.5875 4L4.5875 19C4.39296 19.1919 4.23981 19.4216 4.1375 19.675L4.1 19.775C4.03441 19.9812 4.00069 20.1961 4 20.4125V26C4 26.5304 4.21071 27.0391 4.58579 27.4142C4.96086 27.7893 5.46957 28 6 28H11.5875C11.8051 28.0013 12.021 27.9632 12.225 27.8875L12.325 27.8625C12.5784 27.7602 12.8081 27.607 13 27.4125L23.4625 16.95L23.8875 18.6875L19.2875 23.2875C19.0997 23.4771 18.9944 23.7332 18.9944 24C18.9944 24.2668 19.0997 24.5229 19.2875 24.7125C19.4786 24.8973 19.7341 25.0006 20 25.0006C20.2659 25.0006 20.5214 24.8973 20.7125 24.7125L25.7125 19.7125C25.8297 19.5871 25.9149 19.4352 25.9606 19.2698C26.0063 19.1043 26.0112 18.9303 25.975 18.7625L25.1125 15.3125L28 12.4125C28.1864 12.2275 28.3343 12.0075 28.4351 11.765C28.5359 11.5226 28.5877 11.2626 28.5875 11ZM24 13.5875L18.4125 8L21 5.4125L26.5875 11L24 13.5875Z" fill="#344054"/>
</svg>
