<svg width="32" height="32" viewBox="0 0 32 32" fill="none" xmlns="http://www.w3.org/2000/svg">
<path d="M30.9125 15.6C30.875 15.5 29.8125 13.15 27.4625 10.7875C24.325 7.6625 20.3625 6 16 6C15.0786 5.99832 14.1588 6.07358 13.25 6.225C13.0744 6.2579 12.9106 6.33668 12.7753 6.45334C12.64 6.57 12.538 6.72038 12.4796 6.88923C12.4212 7.05807 12.4085 7.23935 12.4428 7.41468C12.4771 7.59001 12.5572 7.75313 12.675 7.8875L25.3375 21.8125C25.4311 21.9149 25.5451 21.9966 25.672 22.0526C25.799 22.1085 25.9362 22.1375 26.075 22.1375C26.322 22.1342 26.5604 22.0459 26.75 21.8875C29.6 19.325 30.8625 16.525 30.9125 16.4125C30.9679 16.2842 30.9964 16.146 30.9964 16.0062C30.9964 15.8665 30.9679 15.7283 30.9125 15.6Z" fill="#344054"/>
<path d="M6.73748 4.32501C6.55682 4.136 6.30931 4.02526 6.04799 4.01653C5.78667 4.0078 5.53232 4.10177 5.33944 4.2783C5.14657 4.45484 5.0305 4.69989 5.01612 4.96096C5.00173 5.22203 5.09017 5.47835 5.26248 5.67501L7.66248 8.31251C3.12498 11.1 1.17498 15.4 1.08748 15.6C1.03211 15.7283 1.00354 15.8665 1.00354 16.0063C1.00354 16.146 1.03211 16.2842 1.08748 16.4125C1.12498 16.5 2.18748 18.85 4.53748 21.2125C7.67498 24.3375 11.6375 26 16 26C18.2418 26.0153 20.4614 25.5552 22.5125 24.65L25.2625 27.675C25.3561 27.7774 25.4701 27.8591 25.597 27.9151C25.724 27.971 25.8612 28 26 28C26.2494 27.9976 26.4894 27.9042 26.675 27.7375C26.7733 27.6498 26.853 27.5433 26.9095 27.4242C26.966 27.3052 26.9981 27.1761 27.004 27.0444C27.0098 26.9128 26.9892 26.7813 26.9434 26.6578C26.8977 26.5342 26.8277 26.4211 26.7375 26.325L6.73748 4.32501ZM16 20.5C15.1776 20.4995 14.3712 20.2736 13.6681 19.8469C12.9651 19.4203 12.3925 18.8091 12.0124 18.0799C11.6323 17.3506 11.4593 16.5312 11.5122 15.7105C11.5652 14.8899 11.8419 14.0994 12.3125 13.425L18.2125 19.9125C17.5393 20.299 16.7762 20.5016 16 20.5Z" fill="#344054"/>
</svg>
