<svg width="32" height="32" viewBox="0 0 32 32" fill="none" xmlns="http://www.w3.org/2000/svg">
<path d="M26.825 10.825C26.4559 11.1989 26.0159 11.4954 25.5309 11.6971C25.0458 11.8989 24.5253 12.0019 24 12C23.2844 11.9982 22.5818 11.8085 21.9625 11.45L11.45 21.9625C11.9 22.7275 12.0829 23.6204 11.9697 24.5007C11.8566 25.381 11.4539 26.1987 10.825 26.825C10.4545 27.1969 10.0143 27.492 9.52947 27.6933C9.04469 27.8947 8.52492 27.9983 7.99998 27.9983C7.47505 27.9983 6.95528 27.8947 6.47049 27.6933C5.98571 27.492 5.54545 27.1969 5.17498 26.825C4.80308 26.4545 4.508 26.0143 4.30665 25.5295C4.1053 25.0447 4.00165 24.5249 4.00165 24C4.00165 23.4751 4.1053 22.9553 4.30665 22.4705C4.508 21.9857 4.80308 21.5455 5.17498 21.175C5.80128 20.5461 6.61896 20.1434 7.49926 20.0303C8.37956 19.9171 9.2725 20.1 10.0375 20.55L20.55 10.0375C20.169 9.39361 19.9762 8.65578 19.9936 7.90782C20.011 7.15986 20.2377 6.43177 20.6482 5.80624C21.0586 5.18071 21.6362 4.68283 22.3155 4.36916C22.9947 4.05548 23.7483 3.93858 24.4906 4.03174C25.2329 4.12491 25.9343 4.42439 26.5149 4.89618C27.0956 5.36797 27.5323 5.99315 27.7754 6.7007C28.0185 7.40824 28.0584 8.1698 27.8904 8.89885C27.7224 9.6279 27.3533 10.2952 26.825 10.825Z" fill="#344054"/>
</svg>
