<svg width="32" height="32" viewBox="0 0 32 32" fill="none" xmlns="http://www.w3.org/2000/svg">
<path d="M25.5 4.5H6.5C5.96957 4.5 5.46086 4.71071 5.08579 5.08579C4.71071 5.46086 4.5 5.96957 4.5 6.5V25.5C4.5 26.0304 4.71071 26.5391 5.08579 26.9142C5.46086 27.2893 5.96957 27.5 6.5 27.5H25.5C26.0304 27.5 26.5391 27.2893 26.9142 26.9142C27.2893 26.5391 27.5 26.0304 27.5 25.5V6.5C27.5 5.96957 27.2893 5.46086 26.9142 5.08579C26.5391 4.71071 26.0304 4.5 25.5 4.5ZM25.5 16H16V6.5H25.5V16ZM6.5 16H16V25.5H6.5V16Z" fill="#344054"/>
</svg>
