<svg width="32" height="32" viewBox="0 0 32 32" fill="none" xmlns="http://www.w3.org/2000/svg">
<path d="M25.1875 6.8125C23.9822 5.60382 22.5502 4.64485 20.9737 3.99053C19.3971 3.33621 17.7069 2.9994 16 2.9994C14.293 2.9994 12.6029 3.33621 11.0263 3.99053C9.44975 4.64485 8.0178 5.60382 6.81249 6.8125C5.60381 8.01781 4.64484 9.44976 3.99052 11.0263C3.3362 12.6029 2.99939 14.2931 2.99939 16C2.99939 17.7069 3.3362 19.3971 3.99052 20.9737C4.64484 22.5502 5.60381 23.9822 6.81249 25.1875C8.0178 26.3962 9.44975 27.3551 11.0263 28.0095C12.6029 28.6638 14.293 29.0006 16 29.0006C17.7069 29.0006 19.3971 28.6638 20.9737 28.0095C22.5502 27.3551 23.9822 26.3962 25.1875 25.1875C26.3962 23.9822 27.3551 22.5502 28.0095 20.9737C28.6638 19.3971 29.0006 17.7069 29.0006 16C29.0006 14.2931 28.6638 12.6029 28.0095 11.0263C27.3551 9.44976 26.3962 8.01781 25.1875 6.8125ZM16 21.3625C15.5089 20.8012 14.8702 20.3888 14.1565 20.1722C13.4428 19.9557 12.6827 19.9437 11.9625 20.1375L13.875 16H18.125L20.0375 20.1375C19.3173 19.9437 18.5571 19.9557 17.8434 20.1722C17.1297 20.3888 16.4911 20.8012 16 21.3625ZM21 25.8C19.7509 26.4316 18.3938 26.8217 17 26.95V24C17 23.4696 17.2107 22.9609 17.5858 22.5858C17.9608 22.2107 18.4696 22 19 22C19.5304 22 20.0391 22.2107 20.4142 22.5858C20.7893 22.9609 21 23.4696 21 24V25.8ZM23.775 23.775C23.525 24.025 23.2625 24.2625 23 24.4875V22C22.9963 21.8543 22.9667 21.7103 22.9125 21.575L16.9125 8.575H16.9C16.884 8.53502 16.863 8.49722 16.8375 8.4625C16.8375 8.45 16.8375 8.45 16.825 8.4375L16.7625 8.35H16.75C16.7241 8.31777 16.6947 8.28843 16.6625 8.2625H16.6375L16.55 8.1875H16.525L16.425 8.125H16.4125L16.3 8.0875H16.2625L16.15 8.0625H15.85L15.725 8.0875H15.7L15.6 8.125H15.575L15.4625 8.175H15.45L15.3625 8.25H15.3375L15.25 8.3375H15.2375L15.175 8.425L15.15 8.45C15.134 8.48998 15.113 8.52778 15.0875 8.5625L12.325 14.5625L9.08749 21.575C9.03326 21.7103 9.00363 21.8543 8.99999 22V24.4875C8.73749 24.2625 8.47499 24.025 8.22499 23.775C6.68571 22.237 5.63717 20.277 5.21201 18.1429C4.78684 16.0089 5.00415 13.7967 5.83645 11.7862C6.66875 9.7757 8.07865 8.0572 9.88778 6.84811C11.6969 5.63902 13.824 4.99365 16 4.99365C18.176 4.99365 20.3031 5.63902 22.1122 6.84811C23.9213 8.0572 25.3312 9.7757 26.1635 11.7862C26.9958 13.7967 27.2131 16.0089 26.788 18.1429C26.3628 20.277 25.3143 22.237 23.775 23.775Z" fill="#344054"/>
</svg>
