<svg width="32" height="32" viewBox="0 0 32 32" fill="none" xmlns="http://www.w3.org/2000/svg">
<path d="M31.0001 19C31.0001 19.2652 30.8947 19.5196 30.7072 19.7071C30.5196 19.8946 30.2653 20 30.0001 20H28.0001V22C28.0001 22.2652 27.8947 22.5196 27.7072 22.7071C27.5196 22.8946 27.2653 23 27.0001 23C26.7348 23 26.4805 22.8946 26.2929 22.7071C26.1054 22.5196 26.0001 22.2652 26.0001 22V20H24.0001C23.7348 20 23.4805 19.8946 23.2929 19.7071C23.1054 19.5196 23.0001 19.2652 23.0001 19C23.0001 18.7348 23.1054 18.4804 23.2929 18.2929C23.4805 18.1054 23.7348 18 24.0001 18H26.0001V16C26.0001 15.7348 26.1054 15.4804 26.2929 15.2929C26.4805 15.1054 26.7348 15 27.0001 15C27.2653 15 27.5196 15.1054 27.7072 15.2929C27.8947 15.4804 28.0001 15.7348 28.0001 16V18H30.0001C30.2653 18 30.5196 18.1054 30.7072 18.2929C30.8947 18.4804 31.0001 18.7348 31.0001 19ZM8.00005 8.5H9.50005V10C9.50005 10.2652 9.60541 10.5196 9.79295 10.7071C9.98048 10.8946 10.2348 11 10.5001 11C10.7653 11 11.0196 10.8946 11.2072 10.7071C11.3947 10.5196 11.5001 10.2652 11.5001 10V8.5H13.0001C13.2653 8.5 13.5196 8.39464 13.7072 8.20711C13.8947 8.01957 14.0001 7.76522 14.0001 7.5C14.0001 7.23478 13.8947 6.98043 13.7072 6.79289C13.5196 6.60536 13.2653 6.5 13.0001 6.5H11.5001V5C11.5001 4.73478 11.3947 4.48043 11.2072 4.29289C11.0196 4.10536 10.7653 4 10.5001 4C10.2348 4 9.98048 4.10536 9.79295 4.29289C9.60541 4.48043 9.50005 4.73478 9.50005 5V6.5H8.00005C7.73484 6.5 7.48048 6.60536 7.29295 6.79289C7.10541 6.98043 7.00005 7.23478 7.00005 7.5C7.00005 7.76522 7.10541 8.01957 7.29295 8.20711C7.48048 8.39464 7.73484 8.5 8.00005 8.5ZM23.0001 24H22.0001V23C22.0001 22.7348 21.8947 22.4804 21.7072 22.2929C21.5196 22.1054 21.2653 22 21.0001 22C20.7348 22 20.4805 22.1054 20.2929 22.2929C20.1054 22.4804 20.0001 22.7348 20.0001 23V24H19.0001C18.7348 24 18.4805 24.1054 18.2929 24.2929C18.1054 24.4804 18.0001 24.7348 18.0001 25C18.0001 25.2652 18.1054 25.5196 18.2929 25.7071C18.4805 25.8946 18.7348 26 19.0001 26H20.0001V27C20.0001 27.2652 20.1054 27.5196 20.2929 27.7071C20.4805 27.8946 20.7348 28 21.0001 28C21.2653 28 21.5196 27.8946 21.7072 27.7071C21.8947 27.5196 22.0001 27.2652 22.0001 27V26H23.0001C23.2653 26 23.5196 25.8946 23.7072 25.7071C23.8947 25.5196 24.0001 25.2652 24.0001 25C24.0001 24.7348 23.8947 24.4804 23.7072 24.2929C23.5196 24.1054 23.2653 24 23.0001 24ZM22.7126 14.7125L9.41255 28C9.22774 28.1867 9.00775 28.3349 8.7653 28.4361C8.52285 28.5372 8.26276 28.5893 8.00005 28.5893C7.73735 28.5893 7.47726 28.5372 7.23481 28.4361C6.99236 28.3349 6.77237 28.1867 6.58755 28L4.00005 25.4125C3.81335 25.2277 3.66514 25.0077 3.56399 24.7652C3.46285 24.5228 3.41077 24.2627 3.41077 24C3.41077 23.7373 3.46285 23.4772 3.56399 23.2348C3.66514 22.9923 3.81335 22.7723 4.00005 22.5875L22.5876 4C22.9641 3.629 23.4715 3.42103 24.0001 3.42103C24.5287 3.42103 25.036 3.629 25.4126 4L28.0001 6.5875C28.1868 6.77231 28.335 6.9923 28.4361 7.23475C28.5373 7.4772 28.5893 7.7373 28.5893 8C28.5893 8.2627 28.5373 8.5228 28.4361 8.76525C28.335 9.0077 28.1868 9.22769 28.0001 9.4125L22.7126 14.7125ZM19.4126 10L22.0001 12.5875L26.5876 8L24.0001 5.4125L19.4126 10Z" fill="#344054"/>
</svg>
