<svg width="32" height="32" viewBox="0 0 32 32" fill="none" xmlns="http://www.w3.org/2000/svg">
<path d="M11 9.41249C10.629 9.03597 10.421 8.52859 10.421 7.99999C10.421 7.47139 10.629 6.96402 11 6.58749L14.5875 2.99999C14.7723 2.81329 14.9923 2.66508 15.2347 2.56393C15.4772 2.46279 15.7373 2.41071 16 2.41071C16.2627 2.41071 16.5228 2.46279 16.7652 2.56393C17.0077 2.66508 17.2277 2.81329 17.4125 2.99999L21 6.58749C21.371 6.96402 21.579 7.47139 21.579 7.99999C21.579 8.52859 21.371 9.03597 21 9.41249L17.4125 13C17.2277 13.1867 17.0077 13.3349 16.7652 13.4361C16.5228 13.5372 16.2627 13.5893 16 13.5893C15.7373 13.5893 15.4772 13.5372 15.2347 13.4361C14.9923 13.3349 14.7723 13.1867 14.5875 13L11 9.41249ZM29 14.5875L25.4125 11C25.2277 10.8133 25.0077 10.6651 24.7652 10.5639C24.5228 10.4628 24.2627 10.4107 24 10.4107C23.7373 10.4107 23.4772 10.4628 23.2347 10.5639C22.9923 10.6651 22.7723 10.8133 22.5875 11L19 14.5875C18.629 14.964 18.421 15.4714 18.421 16C18.421 16.5286 18.629 17.036 19 17.4125L22.5875 21C22.7723 21.1867 22.9923 21.3349 23.2347 21.4361C23.4772 21.5372 23.7373 21.5893 24 21.5893C24.2627 21.5893 24.5228 21.5372 24.7652 21.4361C25.0077 21.3349 25.2277 21.1867 25.4125 21L29 17.4125C29.371 17.036 29.579 16.5286 29.579 16C29.579 15.4714 29.371 14.964 29 14.5875ZM13 14.5875L9.41249 11C9.22768 10.8133 9.00769 10.6651 8.76524 10.5639C8.52279 10.4628 8.2627 10.4107 7.99999 10.4107C7.73729 10.4107 7.4772 10.4628 7.23475 10.5639C6.9923 10.6651 6.77231 10.8133 6.58749 11L2.99999 14.5875C2.62899 14.964 2.42102 15.4714 2.42102 16C2.42102 16.5286 2.62899 17.036 2.99999 17.4125L6.58749 21C6.77231 21.1867 6.9923 21.3349 7.23475 21.4361C7.4772 21.5372 7.73729 21.5893 7.99999 21.5893C8.2627 21.5893 8.52279 21.5372 8.76524 21.4361C9.00769 21.3349 9.22768 21.1867 9.41249 21L13 17.4125C13.371 17.036 13.579 16.5286 13.579 16C13.579 15.4714 13.371 14.964 13 14.5875ZM17.4125 19C17.2277 18.8133 17.0077 18.6651 16.7652 18.5639C16.5228 18.4628 16.2627 18.4107 16 18.4107C15.7373 18.4107 15.4772 18.4628 15.2347 18.5639C14.9923 18.6651 14.7723 18.8133 14.5875 19L11 22.5875C10.629 22.964 10.421 23.4714 10.421 24C10.421 24.5286 10.629 25.036 11 25.4125L14.5875 29C14.7723 29.1867 14.9923 29.3349 15.2347 29.4361C15.4772 29.5372 15.7373 29.5893 16 29.5893C16.2627 29.5893 16.5228 29.5372 16.7652 29.4361C17.0077 29.3349 17.2277 29.1867 17.4125 29L21 25.4125C21.371 25.036 21.579 24.5286 21.579 24C21.579 23.4714 21.371 22.964 21 22.5875L17.4125 19Z" fill="#344054"/>
</svg>
