<svg width="32" height="32" viewBox="0 0 32 32" fill="none" xmlns="http://www.w3.org/2000/svg">
<path d="M28.4125 10.025L21.975 3.5875C21.5999 3.21337 21.0923 3.00227 20.5625 3H11.4375C10.9077 3.00227 10.4001 3.21337 10.025 3.5875L3.5875 10.025C3.21337 10.4001 3.00227 10.9077 3 11.4375V20.5625C3.00227 21.0923 3.21337 21.5999 3.5875 21.975L10.025 28.4125C10.4001 28.7866 10.9077 28.9977 11.4375 29H20.5625C21.0923 28.9977 21.5999 28.7866 21.975 28.4125L28.4125 21.975C28.7866 21.5999 28.9977 21.0923 29 20.5625V11.4375C28.9977 10.9077 28.7866 10.4001 28.4125 10.025Z" fill="#344054"/>
</svg>
