<svg width="32" height="32" viewBox="0 0 32 32" fill="none" xmlns="http://www.w3.org/2000/svg">
<path d="M18.5 6C18.5 6.26522 18.3946 6.51957 18.2071 6.70711C18.0196 6.89464 17.7652 7 17.5 7H14.5C14.2348 7 13.9804 6.89464 13.7929 6.70711C13.6054 6.51957 13.5 6.26522 13.5 6C13.5 5.73478 13.6054 5.48043 13.7929 5.29289C13.9804 5.10536 14.2348 5 14.5 5H17.5C17.7652 5 18.0196 5.10536 18.2071 5.29289C18.3946 5.48043 18.5 5.73478 18.5 6ZM17.5 25H14.5C14.2348 25 13.9804 25.1054 13.7929 25.2929C13.6054 25.4804 13.5 25.7348 13.5 26C13.5 26.2652 13.6054 26.5196 13.7929 26.7071C13.9804 26.8946 14.2348 27 14.5 27H17.5C17.7652 27 18.0196 26.8946 18.2071 26.7071C18.3946 26.5196 18.5 26.2652 18.5 26C18.5 25.7348 18.3946 25.4804 18.2071 25.2929C18.0196 25.1054 17.7652 25 17.5 25ZM22.5 7H25V9.5C25 9.76522 25.1054 10.0196 25.2929 10.2071C25.4804 10.3946 25.7348 10.5 26 10.5C26.2652 10.5 26.5196 10.3946 26.7071 10.2071C26.8946 10.0196 27 9.76522 27 9.5V7C27 6.46957 26.7893 5.96086 26.4142 5.58579C26.0391 5.21071 25.5304 5 25 5H22.5C22.2348 5 21.9804 5.10536 21.7929 5.29289C21.6054 5.48043 21.5 5.73478 21.5 6C21.5 6.26522 21.6054 6.51957 21.7929 6.70711C21.9804 6.89464 22.2348 7 22.5 7ZM26 13.5C25.7348 13.5 25.4804 13.6054 25.2929 13.7929C25.1054 13.9804 25 14.2348 25 14.5V17.5C25 17.7652 25.1054 18.0196 25.2929 18.2071C25.4804 18.3946 25.7348 18.5 26 18.5C26.2652 18.5 26.5196 18.3946 26.7071 18.2071C26.8946 18.0196 27 17.7652 27 17.5V14.5C27 14.2348 26.8946 13.9804 26.7071 13.7929C26.5196 13.6054 26.2652 13.5 26 13.5ZM6 18.5C6.26522 18.5 6.51957 18.3946 6.70711 18.2071C6.89464 18.0196 7 17.7652 7 17.5V14.5C7 14.2348 6.89464 13.9804 6.70711 13.7929C6.51957 13.6054 6.26522 13.5 6 13.5C5.73478 13.5 5.48043 13.6054 5.29289 13.7929C5.10536 13.9804 5 14.2348 5 14.5V17.5C5 17.7652 5.10536 18.0196 5.29289 18.2071C5.48043 18.3946 5.73478 18.5 6 18.5ZM9.5 25H7V22.5C7 22.2348 6.89464 21.9804 6.70711 21.7929C6.51957 21.6054 6.26522 21.5 6 21.5C5.73478 21.5 5.48043 21.6054 5.29289 21.7929C5.10536 21.9804 5 22.2348 5 22.5V25C5 25.5304 5.21071 26.0391 5.58579 26.4142C5.96086 26.7893 6.46957 27 7 27H9.5C9.76522 27 10.0196 26.8946 10.2071 26.7071C10.3946 26.5196 10.5 26.2652 10.5 26C10.5 25.7348 10.3946 25.4804 10.2071 25.2929C10.0196 25.1054 9.76522 25 9.5 25ZM9.5 5H7C6.46957 5 5.96086 5.21071 5.58579 5.58579C5.21071 5.96086 5 6.46957 5 7V9.5C5 9.76522 5.10536 10.0196 5.29289 10.2071C5.48043 10.3946 5.73478 10.5 6 10.5C6.26522 10.5 6.51957 10.3946 6.70711 10.2071C6.89464 10.0196 7 9.76522 7 9.5V7H9.5C9.76522 7 10.0196 6.89464 10.2071 6.70711C10.3946 6.51957 10.5 6.26522 10.5 6C10.5 5.73478 10.3946 5.48043 10.2071 5.29289C10.0196 5.10536 9.76522 5 9.5 5ZM29.5 25H27V22.5C27 22.2348 26.8946 21.9804 26.7071 21.7929C26.5196 21.6054 26.2652 21.5 26 21.5C25.7348 21.5 25.4804 21.6054 25.2929 21.7929C25.1054 21.9804 25 22.2348 25 22.5V25H22.5C22.2348 25 21.9804 25.1054 21.7929 25.2929C21.6054 25.4804 21.5 25.7348 21.5 26C21.5 26.2652 21.6054 26.5196 21.7929 26.7071C21.9804 26.8946 22.2348 27 22.5 27H25V29.5C25 29.7652 25.1054 30.0196 25.2929 30.2071C25.4804 30.3946 25.7348 30.5 26 30.5C26.2652 30.5 26.5196 30.3946 26.7071 30.2071C26.8946 30.0196 27 29.7652 27 29.5V27H29.5C29.7652 27 30.0196 26.8946 30.2071 26.7071C30.3946 26.5196 30.5 26.2652 30.5 26C30.5 25.7348 30.3946 25.4804 30.2071 25.2929C30.0196 25.1054 29.7652 25 29.5 25Z" fill="#344054"/>
</svg>
