<svg width="32" height="32" viewBox="0 0 32 32" fill="none" xmlns="http://www.w3.org/2000/svg">
<path d="M4 15V17H2C1.73478 17 1.48043 16.8946 1.29289 16.7071C1.10536 16.5196 1 16.2652 1 16C1 15.7348 1.10536 15.4804 1.29289 15.2929C1.48043 15.1054 1.73478 15 2 15H4ZM4 22.1625C3.9981 22.6314 4.16104 23.0861 4.46035 23.4472C4.75967 23.8082 5.17632 24.0525 5.6375 24.1375L25.6375 27.775L26 27.8C26.4693 27.7968 26.9235 27.6337 27.2875 27.3375C27.5109 27.1484 27.6904 26.9129 27.8135 26.6474C27.9365 26.3819 28.0002 26.0927 28 25.8V17H4V22.1625ZM30 15H28V17H30C30.2652 17 30.5196 16.8946 30.7071 16.7071C30.8946 16.5196 31 16.2652 31 16C31 15.7348 30.8946 15.4804 30.7071 15.2929C30.5196 15.1054 30.2652 15 30 15ZM28 6.2C28.0002 5.90733 27.9365 5.61814 27.8135 5.3526C27.6904 5.08706 27.5109 4.85155 27.2875 4.6625C27.0592 4.47673 26.7941 4.34165 26.5096 4.26622C26.2251 4.19079 25.9278 4.17674 25.6375 4.225L5.6375 7.8625C5.17632 7.94749 4.75967 8.19184 4.46035 8.55285C4.16104 8.91385 3.9981 9.36855 4 9.8375V15H28V6.2Z" fill="#344054"/>
</svg>
