<svg width="32" height="32" viewBox="0 0 32 32" fill="none" xmlns="http://www.w3.org/2000/svg">
<path d="M27 26H14.4125L24.7125 15.7125L28 12.4125C28.1867 12.2277 28.3349 12.0077 28.4361 11.7652C28.5372 11.5228 28.5893 11.2627 28.5893 11C28.5893 10.7373 28.5372 10.4772 28.4361 10.2348C28.3349 9.9923 28.1867 9.77231 28 9.5875L22.4125 4C22.036 3.629 21.5286 3.42103 21 3.42103C20.4714 3.42103 19.964 3.629 19.5875 4L4.5875 19C4.40112 19.185 4.25324 19.405 4.1524 19.6475C4.05157 19.8899 3.99977 20.1499 4 20.4125V26C4 26.5304 4.21071 27.0391 4.58579 27.4142C4.96086 27.7893 5.46957 28 6 28H27C27.2652 28 27.5196 27.8946 27.7071 27.7071C27.8946 27.5196 28 27.2652 28 27C28 26.7348 27.8946 26.4804 27.7071 26.2929C27.5196 26.1054 27.2652 26 27 26ZM6 20.4125L18 8.4125L23.5875 14L11.5875 26H6V20.4125Z" fill="#344054"/>
</svg>
