<svg width="32" height="32" viewBox="0 0 32 32" fill="none" xmlns="http://www.w3.org/2000/svg">
<path d="M19.7125 14.1375C19.5637 13.9186 19.5077 13.6496 19.5569 13.3895C19.6062 13.1294 19.7565 12.8994 19.975 12.75L28.4375 6.9625C28.6564 6.81371 28.9254 6.75779 29.1855 6.80699C29.4455 6.8562 29.6755 7.00652 29.825 7.225C29.9003 7.33285 29.9533 7.45466 29.9809 7.58328C30.0085 7.71189 30.0101 7.84473 29.9856 7.97398C29.9612 8.10323 29.9112 8.2263 29.8385 8.33595C29.7658 8.4456 29.672 8.53962 29.5625 8.6125L21.1125 14.4C20.944 14.5174 20.7428 14.5787 20.5375 14.575C20.3747 14.5747 20.2145 14.5347 20.0708 14.4585C19.927 14.3822 19.804 14.272 19.7125 14.1375ZM29.825 24.775C29.7342 24.9103 29.6114 25.0211 29.4674 25.0974C29.3235 25.1738 29.1629 25.2133 29 25.2125C28.7994 25.2105 28.6038 25.1496 28.4375 25.0375L17 17.2125L11.6875 20.85C11.8931 21.3758 11.9991 21.9354 12 22.5C12.0032 23.537 11.6492 24.5434 10.9976 25.35C10.3459 26.1566 9.43634 26.7142 8.42185 26.9289C7.40737 27.1436 6.34988 27.0024 5.4273 26.529C4.50472 26.0555 3.77334 25.2788 3.3562 24.3295C2.93905 23.3801 2.86161 22.316 3.13688 21.3163C3.41216 20.3165 4.02336 19.4421 4.86767 18.8401C5.71197 18.238 6.73786 17.9452 7.77274 18.0107C8.80763 18.0763 9.78836 18.4963 10.55 19.2L15.225 16L10.55 12.8C9.72367 13.5746 8.63251 14.0039 7.49996 14C6.53791 13.9998 5.60125 13.6913 4.82739 13.1197C4.05353 12.5482 3.48322 11.7437 3.20012 10.8242C2.91702 9.90476 2.93603 8.91879 3.25438 8.01094C3.57272 7.10309 4.17364 6.32116 4.96896 5.77987C5.76428 5.23857 6.71214 4.96641 7.67348 5.00331C8.63481 5.04021 9.55902 5.38423 10.3105 5.9849C11.062 6.58557 11.6012 7.41126 11.849 8.34084C12.0968 9.27043 12.0402 10.255 11.6875 11.15L29.5625 23.3875C29.672 23.4604 29.7658 23.5544 29.8385 23.6641C29.9112 23.7737 29.9612 23.8968 29.9856 24.026C30.0101 24.1553 30.0085 24.2881 29.9809 24.4167C29.9533 24.5453 29.9003 24.6672 29.825 24.775ZM9.99996 22.5C10.0006 22.1719 9.93575 21.847 9.80911 21.5443C9.68246 21.2416 9.4966 20.9673 9.26246 20.7375C9.03219 20.5039 8.7578 20.3185 8.45523 20.1919C8.15266 20.0653 7.82794 20.0001 7.49996 20.0001C7.17197 20.0001 6.84725 20.0653 6.54468 20.1919C6.24211 20.3185 5.96772 20.5039 5.73746 20.7375C5.50389 20.9678 5.31842 21.2422 5.19183 21.5447C5.06524 21.8473 5.00005 22.172 5.00005 22.5C5.00005 22.828 5.06524 23.1527 5.19183 23.4553C5.31842 23.7578 5.50389 24.0322 5.73746 24.2625C5.96857 24.4946 6.24324 24.6787 6.5457 24.8043C6.84815 24.93 7.17244 24.9947 7.49996 24.9947C7.82747 24.9947 8.15176 24.93 8.45422 24.8043C8.75667 24.6787 9.03134 24.4946 9.26246 24.2625C9.4966 24.0327 9.68246 23.7584 9.80911 23.4557C9.93575 23.153 10.0006 22.8281 9.99996 22.5ZM9.26246 11.2625C9.49602 11.0322 9.68149 10.7578 9.80808 10.4553C9.93468 10.1527 9.99987 9.82799 9.99987 9.5C9.99987 9.17202 9.93468 8.8473 9.80808 8.54473C9.68149 8.24216 9.49602 7.96777 9.26246 7.7375C9.03219 7.50394 8.7578 7.31847 8.45523 7.19187C8.15266 7.06528 7.82794 7.00009 7.49996 7.00009C7.17197 7.00009 6.84725 7.06528 6.54468 7.19187C6.24211 7.31847 5.96772 7.50394 5.73746 7.7375C5.50389 7.96777 5.31842 8.24216 5.19183 8.54473C5.06524 8.8473 5.00005 9.17202 5.00005 9.5C5.00005 9.82799 5.06524 10.1527 5.19183 10.4553C5.31842 10.7578 5.50389 11.0322 5.73746 11.2625C5.96857 11.4946 6.24324 11.6787 6.5457 11.8043C6.84815 11.93 7.17244 11.9947 7.49996 11.9947C7.82747 11.9947 8.15176 11.93 8.45422 11.8043C8.75667 11.6787 9.03134 11.4946 9.26246 11.2625Z" fill="#344054"/>
</svg>
