<svg width="32" height="32" viewBox="0 0 32 32" fill="none" xmlns="http://www.w3.org/2000/svg">
<path d="M10 7V6C10 5.46957 10.2107 4.96086 10.5858 4.58579C10.9609 4.21071 11.4696 4 12 4H13C13.2652 4 13.5196 4.10536 13.7071 4.29289C13.8946 4.48043 14 4.73478 14 5C14 5.26522 13.8946 5.51957 13.7071 5.70711C13.5196 5.89464 13.2652 6 13 6H12V7C12 7.26522 11.8946 7.51957 11.7071 7.70711C11.5196 7.89464 11.2652 8 11 8C10.7348 8 10.4804 7.89464 10.2929 7.70711C10.1054 7.51957 10 7.26522 10 7ZM18 6H20C20.2652 6 20.5196 5.89464 20.7071 5.70711C20.8946 5.51957 21 5.26522 21 5C21 4.73478 20.8946 4.48043 20.7071 4.29289C20.5196 4.10536 20.2652 4 20 4H18C17.7348 4 17.4804 4.10536 17.2929 4.29289C17.1054 4.48043 17 4.73478 17 5C17 5.26522 17.1054 5.51957 17.2929 5.70711C17.4804 5.89464 17.7348 6 18 6ZM26 4H25C24.7348 4 24.4804 4.10536 24.2929 4.29289C24.1054 4.48043 24 4.73478 24 5C24 5.26522 24.1054 5.51957 24.2929 5.70711C24.4804 5.89464 24.7348 6 25 6H26V7C26 7.26522 26.1054 7.51957 26.2929 7.70711C26.4804 7.89464 26.7348 8 27 8C27.2652 8 27.5196 7.89464 27.7071 7.70711C27.8946 7.51957 28 7.26522 28 7V6C28 5.46957 27.7893 4.96086 27.4142 4.58579C27.0391 4.21071 26.5304 4 26 4ZM27 11C26.7348 11 26.4804 11.1054 26.2929 11.2929C26.1054 11.4804 26 11.7348 26 12V14C26 14.2652 26.1054 14.5196 26.2929 14.7071C26.4804 14.8946 26.7348 15 27 15C27.2652 15 27.5196 14.8946 27.7071 14.7071C27.8946 14.5196 28 14.2652 28 14V12C28 11.7348 27.8946 11.4804 27.7071 11.2929C27.5196 11.1054 27.2652 11 27 11ZM22 12V26C22 26.5304 21.7893 27.0391 21.4142 27.4142C21.0391 27.7893 20.5304 28 20 28H6C5.46957 28 4.96086 27.7893 4.58579 27.4142C4.21071 27.0391 4 26.5304 4 26V12C4 11.4696 4.21071 10.9609 4.58579 10.5858C4.96086 10.2107 5.46957 10 6 10H20C20.5304 10 21.0391 10.2107 21.4142 10.5858C21.7893 10.9609 22 11.4696 22 12ZM20 12H6V26H20V12ZM27 18C26.7348 18 26.4804 18.1054 26.2929 18.2929C26.1054 18.4804 26 18.7348 26 19V20H25C24.7348 20 24.4804 20.1054 24.2929 20.2929C24.1054 20.4804 24 20.7348 24 21C24 21.2652 24.1054 21.5196 24.2929 21.7071C24.4804 21.8946 24.7348 22 25 22H26C26.5304 22 27.0391 21.7893 27.4142 21.4142C27.7893 21.0391 28 20.5304 28 20V19C28 18.7348 27.8946 18.4804 27.7071 18.2929C27.5196 18.1054 27.2652 18 27 18Z" fill="#344054"/>
</svg>
