<svg width="32" height="32" viewBox="0 0 32 32" fill="none" xmlns="http://www.w3.org/2000/svg">
<path d="M18.5 3H13.5C11.3793 3.00331 9.34637 3.84722 7.8468 5.3468C6.34722 6.84637 5.50331 8.87928 5.5 11V21C5.50331 23.1207 6.34722 25.1536 7.8468 26.6532C9.34637 28.1528 11.3793 28.9967 13.5 29H18.5C20.6207 28.9967 22.6536 28.1528 24.1532 26.6532C25.6528 25.1536 26.4967 23.1207 26.5 21V11C26.4967 8.87928 25.6528 6.84637 24.1532 5.3468C22.6536 3.84722 20.6207 3.00331 18.5 3ZM17 14C17 14.2652 16.8946 14.5196 16.7071 14.7071C16.5196 14.8946 16.2652 15 16 15C15.7348 15 15.4804 14.8946 15.2929 14.7071C15.1054 14.5196 15 14.2652 15 14V8C15 7.73478 15.1054 7.48043 15.2929 7.29289C15.4804 7.10536 15.7348 7 16 7C16.2652 7 16.5196 7.10536 16.7071 7.29289C16.8946 7.48043 17 7.73478 17 8V14Z" fill="#344054"/>
</svg>
