<svg width="32" height="32" viewBox="0 0 32 32" fill="none" xmlns="http://www.w3.org/2000/svg">
<path d="M6.73748 4.32499C6.64884 4.22732 6.54183 4.14807 6.42255 4.09175C6.30328 4.03544 6.17409 4.00317 6.04234 3.99678C5.77628 3.98389 5.51599 4.07722 5.31873 4.25624C5.22106 4.34488 5.14181 4.4519 5.08549 4.57117C5.02918 4.69044 4.99691 4.81963 4.99052 4.95138C4.97763 5.21745 5.07096 5.47774 5.24998 5.67499L5.83748 6.31249C4.45226 6.97445 3.13729 7.77432 1.91248 8.69999C1.69607 8.86112 1.51545 9.06541 1.38205 9.29994C1.24865 9.53447 1.16537 9.79413 1.13748 10.0625C1.10812 10.3376 1.1351 10.6158 1.21676 10.8801C1.29843 11.1445 1.43307 11.3894 1.61248 11.6L14.475 26.75C14.6606 26.9718 14.8925 27.1504 15.1543 27.2733C15.4161 27.3962 15.7016 27.4606 15.9908 27.4617C16.2801 27.4629 16.5661 27.401 16.8289 27.2802C17.0917 27.1594 17.325 26.9827 17.5125 26.7625L20.85 22.825L25.2625 27.675C25.3571 27.7762 25.4712 27.8572 25.5979 27.913C25.7247 27.9689 25.8615 27.9985 26 28C26.2503 28.0024 26.492 27.9084 26.675 27.7375C26.7727 27.6497 26.8521 27.5435 26.9088 27.425C26.9654 27.3065 26.9981 27.1779 27.0051 27.0468C27.0121 26.9156 26.9931 26.7844 26.9493 26.6605C26.9056 26.5367 26.8378 26.4227 26.75 26.325L6.73748 4.32499Z" fill="#344054"/>
<path d="M30.8624 10.0625C30.8345 9.79413 30.7512 9.53448 30.6178 9.29995C30.4844 9.06542 30.3038 8.86113 30.0874 8.7C27.4702 6.73585 24.4717 5.33993 21.2838 4.60162C18.096 3.86331 14.7891 3.7989 11.5749 4.4125C11.4005 4.44997 11.2387 4.53177 11.1051 4.65001C10.9716 4.76825 10.8707 4.91893 10.8124 5.0875C10.7595 5.25644 10.7513 5.43619 10.7886 5.60924C10.8258 5.7823 10.9072 5.94276 11.0249 6.075L22.6999 18.9125C22.7949 19.0131 22.9091 19.0937 23.0358 19.1495C23.1625 19.2054 23.299 19.2353 23.4374 19.2375H23.4624C23.6026 19.2321 23.7403 19.1982 23.867 19.1381C23.9938 19.0779 24.107 18.9927 24.1999 18.8875L30.3999 11.5875C30.5749 11.3771 30.706 11.1337 30.7854 10.8718C30.8648 10.6099 30.891 10.3347 30.8624 10.0625Z" fill="#344054"/>
</svg>
