<svg width="32" height="32" viewBox="0 0 32 32" fill="none" xmlns="http://www.w3.org/2000/svg">
<path d="M28.7126 18.2875C28.9004 18.4771 29.0057 18.7331 29.0057 19C29.0057 19.2668 28.9004 19.5229 28.7126 19.7125C28.5214 19.8973 28.266 20.0006 28.0001 20.0006C27.7342 20.0006 27.4787 19.8973 27.2876 19.7125L25.0001 17.4125L22.7126 19.7125C22.5214 19.8973 22.266 20.0006 22.0001 20.0006C21.7342 20.0006 21.4787 19.8973 21.2876 19.7125C21.0998 19.5229 20.9944 19.2668 20.9944 19C20.9944 18.7331 21.0998 18.4771 21.2876 18.2875L23.5876 16L21.2876 13.7125C21.1281 13.5182 21.0466 13.2715 21.0589 13.0205C21.0713 12.7694 21.1765 12.5319 21.3543 12.3542C21.532 12.1765 21.7695 12.0712 22.0206 12.0589C22.2716 12.0465 22.5183 12.128 22.7126 12.2875L25.0001 14.5875L27.2876 12.2875C27.4819 12.128 27.7285 12.0465 27.9796 12.0589C28.2306 12.0712 28.4681 12.1765 28.6459 12.3542C28.8236 12.5319 28.9289 12.7694 28.9412 13.0205C28.9535 13.2715 28.872 13.5182 28.7126 13.7125L26.4126 16L28.7126 18.2875ZM25.3501 20.6C25.3046 20.5531 25.2502 20.5158 25.1901 20.4904C25.13 20.4649 25.0654 20.4518 25.0001 20.4518C24.9348 20.4518 24.8702 20.4649 24.81 20.4904C24.7499 20.5158 24.6955 20.5531 24.6501 20.6L24.1251 21.125C23.8458 21.4033 23.5143 21.6239 23.1497 21.774C22.7851 21.9242 22.3944 22.001 22.0001 22C21.5985 22.0023 21.2006 21.9225 20.8309 21.7656C20.4612 21.6087 20.1275 21.3779 19.8501 21.0875C18.7001 19.9 18.7626 18 19.9251 16.825L20.7626 16L19.9251 15.175C18.7376 13.975 18.7126 12 19.9251 10.8375C20.4923 10.2957 21.2484 9.99658 22.0327 10.0036C22.817 10.0106 23.5676 10.3232 24.1251 10.875L24.6501 11.4C24.6955 11.4469 24.7499 11.4841 24.81 11.5096C24.8702 11.535 24.9348 11.5481 25.0001 11.5481C25.0654 11.5481 25.13 11.535 25.1901 11.5096C25.2502 11.4841 25.3046 11.4469 25.3501 11.4L25.8751 10.875C25.9161 10.8395 25.9486 10.7952 25.9703 10.7454C25.9919 10.6957 26.0021 10.6417 26.0001 10.5875V5.47499C26.0034 5.08609 25.8973 4.70409 25.694 4.37257C25.4906 4.04105 25.1982 3.77334 24.8501 3.59999C24.478 3.42421 24.0604 3.36828 23.6552 3.43993C23.2499 3.51158 22.8769 3.70727 22.5876 3.99999L2.03757 24.55C1.76124 24.8203 1.5675 25.1636 1.47897 25.5399C1.39043 25.9161 1.41076 26.3098 1.53757 26.675C1.67464 27.0627 1.92858 27.3983 2.2644 27.6356C2.60022 27.8729 3.00137 28.0002 3.41257 28H24.0001C24.5305 28 25.0392 27.7893 25.4143 27.4142C25.7894 27.0391 26.0001 26.5304 26.0001 26V21.4C25.9994 21.348 25.988 21.2967 25.9665 21.2493C25.945 21.202 25.9138 21.1597 25.8751 21.125L25.3501 20.6Z" fill="#344054"/>
</svg>
