<svg width="32" height="32" viewBox="0 0 32 32" fill="none" xmlns="http://www.w3.org/2000/svg">
<path d="M24 3H8C7.20536 3.00329 6.44421 3.32042 5.88232 3.88231C5.32042 4.44421 5.00329 5.20536 5 6V26C5.00329 26.7946 5.32042 27.5558 5.88232 28.1177C6.44421 28.6796 7.20536 28.9967 8 29H24C24.7946 28.9967 25.5558 28.6796 26.1177 28.1177C26.6796 27.5558 26.9967 26.7946 27 26V6C26.9967 5.20536 26.6796 4.44421 26.1177 3.88231C25.5558 3.32042 24.7946 3.00329 24 3ZM16 10C15.7033 10 15.4133 9.91203 15.1666 9.7472C14.92 9.58238 14.7277 9.34811 14.6142 9.07403C14.5006 8.79994 14.4709 8.49834 14.5288 8.20736C14.5867 7.91639 14.7296 7.64912 14.9393 7.43934C15.1491 7.22956 15.4164 7.0867 15.7074 7.02882C15.9983 6.97094 16.2999 7.00065 16.574 7.11418C16.8481 7.22771 17.0824 7.41997 17.2472 7.66664C17.412 7.91332 17.5 8.20333 17.5 8.5C17.5 8.89782 17.342 9.27936 17.0607 9.56066C16.7794 9.84196 16.3978 10 16 10Z" fill="#344054"/>
</svg>
