<svg width="32" height="32" viewBox="0 0 32 32" fill="none" xmlns="http://www.w3.org/2000/svg">
<path d="M32 12V20C32 20.2652 31.8946 20.5196 31.7071 20.7071C31.5196 20.8946 31.2652 21 31 21C30.7348 21 30.4804 20.8946 30.2929 20.7071C30.1054 20.5196 30 20.2652 30 20V12C30 11.7348 30.1054 11.4804 30.2929 11.2929C30.4804 11.1054 30.7348 11 31 11C31.2652 11 31.5196 11.1054 31.7071 11.2929C31.8946 11.4804 32 11.7348 32 12ZM28 9V23C27.9967 23.7946 27.6796 24.5558 27.1177 25.1177C26.5558 25.6796 25.7946 25.9967 25 26H6C5.20536 25.9967 4.44421 25.6796 3.88231 25.1177C3.32042 24.5558 3.00329 23.7946 3 23V9C3.00329 8.20536 3.32042 7.44421 3.88231 6.88232C4.44421 6.32042 5.20536 6.00329 6 6H25C25.7946 6.00329 26.5558 6.32042 27.1177 6.88232C27.6796 7.44421 27.9967 8.20536 28 9ZM14.5 16C14.5 16.2652 14.6054 16.5196 14.7929 16.7071C14.9804 16.8946 15.2348 17 15.5 17C15.7652 17 16.0196 16.8946 16.2071 16.7071C16.3946 16.5196 16.5 16.2652 16.5 16V11C16.5 10.7348 16.3946 10.4804 16.2071 10.2929C16.0196 10.1054 15.7652 10 15.5 10C15.2348 10 14.9804 10.1054 14.7929 10.2929C14.6054 10.4804 14.5 10.7348 14.5 11V16ZM17 20.5C17 20.2033 16.912 19.9133 16.7472 19.6666C16.5824 19.42 16.3481 19.2277 16.074 19.1142C15.7999 19.0007 15.4983 18.9709 15.2074 19.0288C14.9164 19.0867 14.6491 19.2296 14.4393 19.4393C14.2296 19.6491 14.0867 19.9164 14.0288 20.2074C13.9709 20.4983 14.0006 20.7999 14.1142 21.074C14.2277 21.3481 14.42 21.5824 14.6666 21.7472C14.9133 21.912 15.2033 22 15.5 22C15.8978 22 16.2794 21.842 16.5607 21.5607C16.842 21.2794 17 20.8978 17 20.5Z" fill="#344054"/>
</svg>
