<svg width="32" height="32" viewBox="0 0 32 32" fill="none" xmlns="http://www.w3.org/2000/svg">
<path d="M28 6V19C28 19.5304 27.7893 20.0391 27.4142 20.4142C27.0391 20.7893 26.5304 21 26 21H14V23C14.0006 23.1974 13.9428 23.3906 13.8338 23.5552C13.7248 23.7198 13.5695 23.8485 13.3875 23.925C13.2642 23.974 13.1327 23.9994 13 24C12.7345 23.9989 12.4795 23.896 12.2875 23.7125L9.2875 20.7125C9.09972 20.5229 8.99437 20.2668 8.99437 20C8.99437 19.7332 9.09972 19.4771 9.2875 19.2875L12.2875 16.2875C12.4321 16.1518 12.6121 16.0599 12.8068 16.0223C13.0015 15.9847 13.2028 16.003 13.3875 16.075C13.5695 16.1515 13.7248 16.2802 13.8338 16.4448C13.9428 16.6094 14.0006 16.8026 14 17V19H26V6H12V7C12 7.26522 11.8946 7.51957 11.7071 7.70711C11.5196 7.89464 11.2652 8 11 8C10.7348 8 10.4804 7.89464 10.2929 7.70711C10.1054 7.51957 10 7.26522 10 7V6C10 5.46957 10.2107 4.96086 10.5858 4.58579C10.9609 4.21071 11.4696 4 12 4H26C26.5304 4 27.0391 4.21071 27.4142 4.58579C27.7893 4.96086 28 5.46957 28 6ZM21 24C20.7348 24 20.4804 24.1054 20.2929 24.2929C20.1054 24.4804 20 24.7348 20 25V26H6V13H18V15C18.001 15.1971 18.0595 15.3895 18.1683 15.5539C18.2771 15.7182 18.4315 15.8472 18.6125 15.925C18.7358 15.974 18.8673 15.9994 19 16C19.2655 15.9989 19.5205 15.896 19.7125 15.7125L22.7125 12.7125C22.9003 12.5229 23.0056 12.2668 23.0056 12C23.0056 11.7332 22.9003 11.4771 22.7125 11.2875L19.7125 8.2875C19.5695 8.14916 19.3894 8.0554 19.1941 8.01767C18.9988 7.97993 18.7967 7.99985 18.6125 8.075C18.4305 8.1515 18.2752 8.28016 18.1662 8.44477C18.0572 8.60938 17.9994 8.80258 18 9V11H6C5.46957 11 4.96086 11.2107 4.58579 11.5858C4.21071 11.9609 4 12.4696 4 13V26C4 26.5304 4.21071 27.0391 4.58579 27.4142C4.96086 27.7893 5.46957 28 6 28H20C20.5304 28 21.0391 27.7893 21.4142 27.4142C21.7893 27.0391 22 26.5304 22 26V25C22 24.7348 21.8946 24.4804 21.7071 24.2929C21.5196 24.1054 21.2652 24 21 24Z" fill="#344054"/>
</svg>
