<svg width="32" height="32" viewBox="0 0 32 32" fill="none" xmlns="http://www.w3.org/2000/svg">
<path d="M21.0001 28C21.0001 28.2652 20.8947 28.5196 20.7072 28.7071C20.5197 28.8947 20.2653 29 20.0001 29H12.0001C11.7349 29 11.4805 28.8947 11.293 28.7071C11.1055 28.5196 11.0001 28.2652 11.0001 28C11.0001 27.7348 11.1055 27.4804 11.293 27.2929C11.4805 27.1054 11.7349 27 12.0001 27H20.0001C20.2653 27 20.5197 27.1054 20.7072 27.2929C20.8947 27.4804 21.0001 27.7348 21.0001 28ZM25.9751 14C25.9851 11.3621 24.9484 8.82791 23.0925 6.95326C21.2366 5.0786 18.713 4.01654 16.0751 4.00001H16.0001C14.6885 4.00165 13.3901 4.26161 12.179 4.76505C10.9679 5.26848 9.86779 6.00554 8.94153 6.93412C8.01526 7.86271 7.28097 8.96464 6.78057 10.177C6.28017 11.3894 6.02346 12.6884 6.0251 14C6.0251 18.2875 5.1376 20.7125 4.4001 21.9875C4.22277 22.2928 4.12833 22.6391 4.12614 22.9921C4.12395 23.3451 4.21408 23.6926 4.3876 24C4.56261 24.3057 4.81573 24.5594 5.12103 24.7351C5.42633 24.9108 5.77285 25.0023 6.1251 25H25.8751C26.2273 25.0023 26.5739 24.9108 26.8792 24.7351C27.1845 24.5594 27.4376 24.3057 27.6126 24C27.7861 23.6926 27.8763 23.3451 27.8741 22.9921C27.8719 22.6391 27.7774 22.2928 27.6001 21.9875C26.8626 20.7125 25.9751 18.2875 25.9751 14ZM28.5626 7.82501C27.4225 5.49654 25.6565 3.5315 23.4626 2.15001C23.2372 2.00912 22.965 1.96355 22.706 2.02332C22.4469 2.0831 22.2222 2.24333 22.0813 2.46876C21.9405 2.6942 21.8949 2.96637 21.9547 3.2254C22.0144 3.48444 22.1747 3.70912 22.4001 3.85001C24.2746 5.03605 25.7879 6.71359 26.7751 8.70001C26.856 8.86972 26.9837 9.01281 27.1431 9.11245C27.3025 9.21209 27.4871 9.26415 27.6751 9.26251C27.826 9.25791 27.9746 9.22395 28.1126 9.16251C28.3492 9.04439 28.5294 8.83734 28.6138 8.58668C28.6981 8.33601 28.6797 8.06215 28.5626 7.82501ZM5.2251 8.70001C6.21233 6.71359 7.72558 5.03605 9.6001 3.85001C9.71172 3.78025 9.80851 3.68918 9.88494 3.58201C9.96137 3.47484 10.0159 3.35367 10.0455 3.2254C10.0751 3.09714 10.0792 2.96431 10.0574 2.83448C10.0357 2.70466 9.98861 2.58039 9.91885 2.46876C9.84908 2.35714 9.75802 2.26035 9.65085 2.18392C9.54368 2.10749 9.4225 2.05292 9.29424 2.02332C9.0352 1.96355 8.76303 2.00912 8.5376 2.15001C6.34369 3.5315 4.57775 5.49654 3.4376 7.82501C3.3205 8.06215 3.3021 8.33601 3.38644 8.58668C3.47077 8.83734 3.65097 9.04439 3.8876 9.16251C4.02555 9.22395 4.17416 9.25791 4.3251 9.26251C4.5131 9.26415 4.69766 9.21209 4.85709 9.11245C5.01652 9.01281 5.14419 8.86972 5.2251 8.70001Z" fill="#344054"/>
</svg>
