<svg width="32" height="32" viewBox="0 0 32 32" fill="none" xmlns="http://www.w3.org/2000/svg">
<path d="M29.6874 13.0375C29.6564 12.8977 29.5957 12.7662 29.5094 12.6519C29.4232 12.5376 29.3133 12.4432 29.1874 12.375L26.2124 10.725C26.0541 10.4 25.8791 10.0875 25.6874 9.7875L25.7374 6.3875C25.7386 6.24489 25.7103 6.10358 25.6544 5.97238C25.5985 5.84119 25.5161 5.72293 25.4124 5.625C23.9311 4.28196 22.1793 3.2718 20.2749 2.6625C20.1382 2.61986 19.9939 2.60672 19.8517 2.62396C19.7095 2.6412 19.5725 2.68842 19.4499 2.7625L16.5374 4.5125C16.1749 4.5 15.8249 4.5 15.4624 4.5125L12.5499 2.7625C12.4273 2.68842 12.2904 2.6412 12.1482 2.62396C12.0059 2.60672 11.8617 2.61986 11.7249 2.6625C9.81801 3.27226 8.06547 4.28711 6.58743 5.6375C6.48286 5.73207 6.39975 5.84793 6.34369 5.97729C6.28763 6.10666 6.25992 6.24653 6.26243 6.3875L6.32493 9.7875C6.12493 10.0875 5.94993 10.4 5.77493 10.725L2.81243 12.375C2.68494 12.4411 2.57387 12.5349 2.48735 12.6496C2.40083 12.7642 2.34107 12.8968 2.31243 13.0375C1.88739 14.9896 1.88739 17.0104 2.31243 18.9625C2.34348 19.1023 2.40419 19.2338 2.49045 19.3481C2.57671 19.4624 2.68652 19.5568 2.81243 19.625L5.78743 21.275C5.94691 21.5984 6.12643 21.9115 6.32493 22.2125L6.26243 25.6125C6.26129 25.7551 6.28956 25.8964 6.34548 26.0276C6.4014 26.1588 6.48376 26.2771 6.58743 26.375C8.07077 27.7152 9.82193 28.725 11.7249 29.3375C11.8617 29.3801 12.0059 29.3933 12.1482 29.376C12.2904 29.3588 12.4273 29.3116 12.5499 29.2375L15.4624 27.4875H16.5374L19.4624 29.2375C19.6145 29.3375 19.793 29.3897 19.9749 29.3875C20.0766 29.3831 20.1773 29.3663 20.2749 29.3375C22.1819 28.7277 23.9344 27.7129 25.4124 26.3625C25.517 26.2679 25.6001 26.1521 25.6562 26.0227C25.7122 25.8933 25.7399 25.7535 25.7374 25.6125L25.6874 22.2125C25.8749 21.9125 26.0499 21.6 26.2249 21.275L29.1999 19.625C29.324 19.5561 29.4318 19.4613 29.5159 19.3469C29.6001 19.2326 29.6586 19.1015 29.6874 18.9625C30.1125 17.0104 30.1125 14.9896 29.6874 13.0375ZM21.4999 16C21.4999 17.0878 21.1774 18.1512 20.573 19.0556C19.9687 19.9601 19.1097 20.6651 18.1047 21.0813C17.0997 21.4976 15.9938 21.6065 14.9269 21.3943C13.86 21.1821 12.88 20.6583 12.1108 19.8891C11.3417 19.1199 10.8178 18.1399 10.6056 17.073C10.3934 16.0061 10.5023 14.9002 10.9186 13.8952C11.3349 12.8902 12.0398 12.0313 12.9443 11.4269C13.8488 10.8226 14.9121 10.5 15.9999 10.5C17.4586 10.5 18.8576 11.0795 19.889 12.1109C20.9205 13.1424 21.4999 14.5413 21.4999 16Z" fill="#344054"/>
</svg>
