<svg width="32" height="32" viewBox="0 0 32 32" fill="none" xmlns="http://www.w3.org/2000/svg">
<path d="M23.6 21.2L16.6625 16L23.6 10.8C23.7242 10.7069 23.825 10.5861 23.8944 10.4472C23.9639 10.3084 24 10.1552 24 10C24 9.84476 23.9639 9.69164 23.8944 9.55279C23.825 9.41393 23.7242 9.29315 23.6 9.2L15.6 3.2C15.4514 3.08857 15.2748 3.02072 15.0898 3.00404C14.9048 2.98736 14.7189 3.02252 14.5528 3.10557C14.3867 3.18863 14.247 3.31629 14.1494 3.47427C14.0517 3.63225 14 3.81429 14 4V14L7.6 9.2C7.38783 9.04087 7.12113 8.97254 6.85858 9.01005C6.59603 9.04756 6.35913 9.18783 6.2 9.4C6.04087 9.61217 5.97254 9.87887 6.01005 10.1414C6.04756 10.404 6.18783 10.6409 6.4 10.8L13.3375 16L6.4 21.2C6.23209 21.3259 6.10807 21.5015 6.04549 21.7018C5.98291 21.9022 5.98495 22.1171 6.05132 22.3162C6.11769 22.5153 6.24503 22.6885 6.41529 22.8112C6.58556 22.934 6.79012 23 7 23C7.21682 23.0028 7.42824 22.9323 7.6 22.8L14 18V28C14.0015 28.1858 14.0535 28.3676 14.1504 28.5262C14.2472 28.6847 14.3854 28.8139 14.55 28.9C14.6919 28.9627 14.8449 28.9967 15 29C15.2168 29.0028 15.4282 28.9323 15.6 28.8L23.6 22.8C23.7242 22.7069 23.825 22.5861 23.8944 22.4472C23.9639 22.3084 24 22.1552 24 22C24 21.8448 23.9639 21.6916 23.8944 21.5528C23.825 21.4139 23.7242 21.2931 23.6 21.2ZM16 6L21.3375 10L16 14V6ZM16 26V18L21.3375 22L16 26ZM26 16C26 16.2967 25.912 16.5867 25.7472 16.8334C25.5824 17.08 25.3481 17.2723 25.074 17.3858C24.7999 17.4993 24.4983 17.5291 24.2074 17.4712C23.9164 17.4133 23.6491 17.2704 23.4393 17.0607C23.2296 16.8509 23.0867 16.5836 23.0288 16.2926C22.9709 16.0017 23.0007 15.7001 23.1142 15.426C23.2277 15.1519 23.42 14.9176 23.6666 14.7528C23.9133 14.588 24.2033 14.5 24.5 14.5C24.8978 14.5 25.2794 14.658 25.5607 14.9393C25.842 15.2206 26 15.6022 26 16ZM6.5 17.5C6.20333 17.5 5.91332 17.412 5.66665 17.2472C5.41997 17.0824 5.22771 16.8481 5.11418 16.574C5.00065 16.2999 4.97094 15.9983 5.02882 15.7074C5.0867 15.4164 5.22956 15.1491 5.43934 14.9393C5.64912 14.7296 5.91639 14.5867 6.20737 14.5288C6.49834 14.4709 6.79994 14.5006 7.07403 14.6142C7.34811 14.7277 7.58238 14.92 7.74721 15.1666C7.91203 15.4133 8 15.7033 8 16C8 16.3978 7.84197 16.7794 7.56066 17.0607C7.27936 17.342 6.89783 17.5 6.5 17.5Z" fill="#344054"/>
</svg>
