<svg width="32" height="32" viewBox="0 0 32 32" fill="none" xmlns="http://www.w3.org/2000/svg">
<path d="M6.73748 4.32501C6.55682 4.136 6.30931 4.02526 6.04799 4.01653C5.78667 4.0078 5.53232 4.10177 5.33944 4.2783C5.14656 4.45484 5.0305 4.69989 5.01611 4.96096C5.00173 5.22203 5.09017 5.47835 5.26248 5.67501L7.36248 7.98751C6.48456 9.51204 6.02328 11.2408 6.02498 13V14C6.02498 18.2875 5.13748 20.7125 4.39998 21.9875C4.22162 22.2913 4.12669 22.6369 4.12478 22.9892C4.12288 23.3415 4.21408 23.6881 4.38916 23.9938C4.56423 24.2996 4.81696 24.5536 5.12177 24.7303C5.42659 24.907 5.77266 25 6.12498 25H11C11 26.3261 11.5268 27.5979 12.4644 28.5355C13.4021 29.4732 14.6739 30 16 30C17.3261 30 18.5978 29.4732 19.5355 28.5355C20.4732 27.5979 21 26.3261 21 25H22.825L25.2625 27.675C25.3561 27.7774 25.4701 27.8591 25.597 27.9151C25.724 27.971 25.8612 28 26 28C26.2494 27.9976 26.4894 27.9042 26.675 27.7375C26.7733 27.6498 26.853 27.5433 26.9095 27.4242C26.966 27.3052 26.9981 27.1761 27.004 27.0444C27.0098 26.9128 26.9892 26.7813 26.9434 26.6578C26.8977 26.5342 26.8276 26.4211 26.7375 26.325L6.73748 4.32501ZM16 28C15.2053 27.9967 14.4442 27.6796 13.8823 27.1177C13.3204 26.5558 13.0033 25.7946 13 25H19C18.9967 25.7946 18.6796 26.5558 18.1177 27.1177C17.5558 27.6796 16.7946 27.9967 16 28ZM10.825 5.85001C10.7245 5.73854 10.65 5.60613 10.607 5.46235C10.564 5.31858 10.5534 5.16703 10.5762 5.01869C10.5989 4.87034 10.6543 4.7289 10.7384 4.60461C10.8225 4.48031 10.9332 4.37627 11.0625 4.30001C12.5906 3.43518 14.3191 2.98689 16.075 3.00001C21.5375 3.03751 25.975 7.57501 25.975 13.1125V14C25.975 16.7375 26.325 19.0125 27.025 20.8C27.1055 21.016 27.1089 21.2532 27.0346 21.4715C26.9603 21.6897 26.8129 21.8756 26.6174 21.9976C26.4218 22.1197 26.1901 22.1704 25.9614 22.1412C25.7327 22.112 25.5211 22.0047 25.3625 21.8375L10.825 5.85001Z" fill="#344054"/>
</svg>
