<svg width="32" height="32" viewBox="0 0 32 32" fill="none" xmlns="http://www.w3.org/2000/svg">
<path d="M27.4875 8.33751L16.9875 2.41251C16.6869 2.24038 16.3464 2.14983 16 2.14983C15.6536 2.14983 15.3131 2.24038 15.0125 2.41251L4.5125 8.33751C4.2052 8.51492 3.94992 8.76997 3.77222 9.07711C3.59452 9.38424 3.50065 9.73267 3.5 10.0875V21.9125C3.50065 22.2673 3.59452 22.6158 3.77222 22.9229C3.94992 23.23 4.2052 23.4851 4.5125 23.6625L15.0125 29.5875C15.3131 29.7596 15.6536 29.8502 16 29.8502C16.3464 29.8502 16.6869 29.7596 16.9875 29.5875L27.4875 23.6625C27.7948 23.4851 28.0501 23.23 28.2278 22.9229C28.4055 22.6158 28.4994 22.2673 28.5 21.9125V10.0875C28.4994 9.73267 28.4055 9.38424 28.2278 9.07711C28.0501 8.76997 27.7948 8.51492 27.4875 8.33751ZM16 20.5C15.11 20.5 14.24 20.2361 13.4999 19.7416C12.7599 19.2472 12.1831 18.5443 11.8425 17.7221C11.5019 16.8998 11.4128 15.995 11.5865 15.1221C11.7601 14.2492 12.1887 13.4474 12.818 12.818C13.4474 12.1887 14.2492 11.7601 15.1221 11.5865C15.995 11.4128 16.8998 11.502 17.7221 11.8425C18.5443 12.1831 19.2471 12.7599 19.7416 13.4999C20.2361 14.24 20.5 15.11 20.5 16C20.5 17.1935 20.0259 18.3381 19.182 19.182C18.3381 20.0259 17.1935 20.5 16 20.5Z" fill="#344054"/>
</svg>
