<svg width="32" height="32" viewBox="0 0 32 32" fill="none" xmlns="http://www.w3.org/2000/svg">
<path d="M27.6 21.9875C26.8625 20.7125 25.975 18.2875 25.975 14V13.1125C25.975 7.575 21.5375 3.0375 16.075 3H16C14.6884 3.00164 13.39 3.2616 12.1789 3.76503C10.9678 4.26847 9.86767 5.00552 8.94141 5.93411C8.01514 6.86269 7.28085 7.96463 6.78044 9.177C6.28004 10.3894 6.02333 11.6884 6.02498 13V14C6.02498 18.2875 5.13748 20.7125 4.39998 21.9875C4.22265 22.2928 4.12821 22.6391 4.12602 22.9921C4.12382 23.3451 4.21396 23.6926 4.38748 24C4.56249 24.3057 4.81561 24.5594 5.12091 24.7351C5.42621 24.9108 5.77273 25.0022 6.12498 25H11C11 26.3261 11.5268 27.5979 12.4644 28.5355C13.4021 29.4732 14.6739 30 16 30C17.3261 30 18.5978 29.4732 19.5355 28.5355C20.4732 27.5979 21 26.3261 21 25H25.875C26.2272 25.0022 26.5737 24.9108 26.879 24.7351C27.1843 24.5594 27.4375 24.3057 27.6125 24C27.786 23.6926 27.8761 23.3451 27.8739 22.9921C27.8717 22.6391 27.7773 22.2928 27.6 21.9875ZM16 28C15.2053 27.9967 14.4442 27.6796 13.8823 27.1177C13.3204 26.5558 13.0033 25.7946 13 25H19C18.9967 25.7946 18.6796 26.5558 18.1177 27.1177C17.5558 27.6796 16.7946 27.9967 16 28ZM18.5 19H13.5C13.3106 19.0005 13.1251 18.9466 12.9655 18.8447C12.806 18.7427 12.6791 18.597 12.6 18.425C12.5167 18.2538 12.4853 18.062 12.5097 17.8732C12.5341 17.6844 12.6133 17.5068 12.7375 17.3625L16.3625 13H13.5C13.2348 13 12.9804 12.8946 12.7929 12.7071C12.6053 12.5196 12.5 12.2652 12.5 12C12.5 11.7348 12.6053 11.4804 12.7929 11.2929C12.9804 11.1054 13.2348 11 13.5 11H18.5C18.6893 10.9995 18.8748 11.0534 19.0344 11.1553C19.194 11.2573 19.3209 11.403 19.4 11.575C19.4833 11.7462 19.5147 11.938 19.4902 12.1268C19.4658 12.3156 19.3866 12.4932 19.2625 12.6375L15.6375 17H18.5C18.7652 17 19.0195 17.1054 19.2071 17.2929C19.3946 17.4804 19.5 17.7348 19.5 18C19.5 18.2652 19.3946 18.5196 19.2071 18.7071C19.0195 18.8946 18.7652 19 18.5 19Z" fill="#344054"/>
</svg>
