<svg width="32" height="32" viewBox="0 0 32 32" fill="none" xmlns="http://www.w3.org/2000/svg">
<path d="M21.9999 14.5C21.9999 15.9834 21.5601 17.4334 20.736 18.6668C19.9119 19.9001 18.7405 20.8614 17.3701 21.4291C15.9996 21.9968 14.4916 22.1453 13.0368 21.8559C11.5819 21.5665 10.2455 20.8522 9.19665 19.8033C8.14775 18.7544 7.43345 17.418 7.14406 15.9632C6.85467 14.5083 7.0032 13.0003 7.57085 11.6299C8.13851 10.2594 9.0998 9.08809 10.3332 8.26398C11.5665 7.43987 13.0166 7 14.4999 7C16.4891 7 18.3967 7.79018 19.8032 9.1967C21.2098 10.6032 21.9999 12.5109 21.9999 14.5ZM28.6999 28.7125C28.5133 28.8963 28.2619 28.9996 27.9999 29C27.7344 28.9989 27.4794 28.896 27.2874 28.7125L21.8874 23.3C19.6132 25.2103 16.6892 26.1688 13.7255 25.9756C10.7617 25.7825 7.98686 24.4526 5.97976 22.2633C3.97266 20.074 2.88824 17.1944 2.95267 14.225C3.01709 11.2556 4.22539 8.42576 6.32555 6.3256C8.42571 4.22544 11.2556 3.01714 14.225 2.95272C17.1943 2.88829 20.074 3.97272 22.2632 5.97981C24.4525 7.98691 25.7824 10.7617 25.9756 13.7255C26.1687 16.6893 25.2102 19.6132 23.2999 21.8875L28.6999 27.2875C28.7944 27.3806 28.8695 27.4915 28.9207 27.6138C28.9719 27.7361 28.9983 27.8674 28.9983 28C28.9983 28.1326 28.9719 28.2639 28.9207 28.3862C28.8695 28.5085 28.7944 28.6195 28.6999 28.7125ZM14.4999 24C16.3789 24 18.2156 23.4428 19.7779 22.399C21.3401 21.3551 22.5578 19.8714 23.2768 18.1355C23.9958 16.3996 24.184 14.4895 23.8174 12.6466C23.4508 10.8038 22.5461 9.11109 21.2175 7.78249C19.8889 6.45389 18.1961 5.5491 16.3533 5.18254C14.5105 4.81598 12.6004 5.00411 10.8645 5.72315C9.12856 6.44218 7.64486 7.65982 6.60099 9.22209C5.55711 10.7844 4.99995 12.6211 4.99995 14.5C5.00326 17.0185 6.00521 19.433 7.78609 21.2139C9.56697 22.9947 11.9814 23.9967 14.4999 24Z" fill="#344054"/>
</svg>
