<svg width="32" height="32" viewBox="0 0 32 32" fill="none" xmlns="http://www.w3.org/2000/svg">
<path d="M22 2H10C9.20536 2.00329 8.44421 2.32042 7.88232 2.88231C7.32042 3.44421 7.00329 4.20536 7 5V27C7.00329 27.7946 7.32042 28.5558 7.88232 29.1177C8.44421 29.6796 9.20536 29.9967 10 30H22C22.7946 29.9967 23.5558 29.6796 24.1177 29.1177C24.6796 28.5558 24.9967 27.7946 25 27V5C24.9967 4.20536 24.6796 3.44421 24.1177 2.88231C23.5558 2.32042 22.7946 2.00329 22 2ZM16 9C15.7033 9 15.4133 8.91203 15.1666 8.7472C14.92 8.58238 14.7277 8.34811 14.6142 8.07403C14.5006 7.79994 14.4709 7.49834 14.5288 7.20736C14.5867 6.91639 14.7296 6.64912 14.9393 6.43934C15.1491 6.22956 15.4164 6.0867 15.7074 6.02882C15.9983 5.97094 16.2999 6.00065 16.574 6.11418C16.8481 6.22771 17.0824 6.41997 17.2472 6.66664C17.412 6.91332 17.5 7.20333 17.5 7.5C17.5 7.89782 17.342 8.27936 17.0607 8.56066C16.7794 8.84196 16.3978 9 16 9Z" fill="#344054"/>
</svg>
