<svg width="32" height="32" viewBox="0 0 32 32" fill="none" xmlns="http://www.w3.org/2000/svg">
<path d="M26.7375 26.325L22.8125 22.0125L18.9 17.7H18.8875L6.73753 4.32499C6.55687 4.13598 6.30936 4.02525 6.04804 4.01652C5.78672 4.00779 5.53237 4.10176 5.33949 4.27829C5.14661 4.45482 5.03055 4.69987 5.01616 4.96094C5.00178 5.22201 5.09022 5.47834 5.26253 5.67499L14.1125 15.4125L6.40003 21.2C6.23213 21.3259 6.1081 21.5015 6.04552 21.7018C5.98294 21.9022 5.98498 22.1171 6.05135 22.3162C6.11772 22.5153 6.24506 22.6885 6.41532 22.8112C6.58559 22.934 6.79015 23 7.00003 23C7.21685 23.0028 7.42827 22.9323 7.60003 22.8L14 18V28C14.0015 28.1858 14.0535 28.3676 14.1504 28.5262C14.2473 28.6847 14.3854 28.8139 14.55 28.9C14.6915 28.964 14.8447 28.9981 15 29C15.2169 29.0028 15.4283 28.9323 15.6 28.8L21.95 24.0375L25.2625 27.675C25.3562 27.7774 25.4701 27.8591 25.5971 27.9151C25.7241 27.971 25.8613 27.9999 26 28C26.2495 27.9975 26.4895 27.9042 26.675 27.7375C26.7733 27.6498 26.8531 27.5432 26.9096 27.4242C26.9661 27.3052 26.9982 27.176 27.004 27.0444C27.0098 26.9128 26.9893 26.7813 26.9435 26.6578C26.8977 26.5342 26.8277 26.4211 26.7375 26.325ZM16 26V18L17.475 19.1L20.6 22.55L16 26Z" fill="#344054"/>
<path d="M15 9.95C15.2652 9.95 15.5196 9.84464 15.7071 9.65711C15.8946 9.46957 16 9.21522 16 8.95V6L21.3375 10L18.2125 12.3375C18.1061 12.4152 18.0163 12.5135 17.9484 12.6265C17.8805 12.7394 17.836 12.8649 17.8173 12.9953C17.7987 13.1258 17.8063 13.2587 17.8399 13.3862C17.8734 13.5136 17.9321 13.6331 18.0125 13.7375C18.1043 13.8632 18.2248 13.9651 18.3639 14.0346C18.5031 14.1042 18.6569 14.1395 18.8125 14.1375C19.0287 14.1366 19.239 14.0665 19.4125 13.9375L23.6 10.8C23.7242 10.7069 23.825 10.5861 23.8944 10.4472C23.9639 10.3084 24 10.1552 24 10C24 9.84476 23.9639 9.69164 23.8944 9.55279C23.825 9.41393 23.7242 9.29315 23.6 9.2L15.6 3.2C15.4514 3.08857 15.2748 3.02072 15.0898 3.00404C14.9048 2.98736 14.7189 3.02252 14.5528 3.10557C14.3867 3.18863 14.247 3.31629 14.1493 3.47427C14.0517 3.63225 14 3.81429 14 4V8.95C14 9.21522 14.1054 9.46957 14.2929 9.65711C14.4804 9.84464 14.7348 9.95 15 9.95Z" fill="#344054"/>
</svg>
