<svg width="32" height="32" viewBox="0 0 32 32" fill="none" xmlns="http://www.w3.org/2000/svg">
<path d="M22 2H10C9.20536 2.00329 8.44421 2.32042 7.88232 2.88231C7.32042 3.44421 7.00329 4.20536 7 5V27C7.00329 27.7946 7.32042 28.5558 7.88232 29.1177C8.44421 29.6796 9.20536 29.9967 10 30H22C22.7946 29.9967 23.5558 29.6796 24.1177 29.1177C24.6796 28.5558 24.9967 27.7946 25 27V5C24.9967 4.20536 24.6796 3.44421 24.1177 2.88231C23.5558 2.32042 22.7946 2.00329 22 2ZM20 8H12C11.7348 8 11.4804 7.89464 11.2929 7.70711C11.1054 7.51957 11 7.26522 11 7C11 6.73478 11.1054 6.48043 11.2929 6.29289C11.4804 6.10536 11.7348 6 12 6H20C20.2652 6 20.5196 6.10536 20.7071 6.29289C20.8946 6.48043 21 6.73478 21 7C21 7.26522 20.8946 7.51957 20.7071 7.70711C20.5196 7.89464 20.2652 8 20 8Z" fill="#344054"/>
</svg>
