<svg width="32" height="32" viewBox="0 0 32 32" fill="none" xmlns="http://www.w3.org/2000/svg">
<path d="M12 2H20C20.2652 2 20.5196 1.89464 20.7071 1.70711C20.8946 1.51957 21 1.26522 21 1C21 0.734784 20.8946 0.48043 20.7071 0.292893C20.5196 0.105357 20.2652 0 20 0L12 0C11.7348 0 11.4804 0.105357 11.2929 0.292893C11.1054 0.48043 11 0.734784 11 1C11 1.26522 11.1054 1.51957 11.2929 1.70711C11.4804 1.89464 11.7348 2 12 2Z" fill="#344054"/>
<path d="M23 4H9C8.20536 4.00329 7.44421 4.32042 6.88232 4.88232C6.32042 5.44421 6.00329 6.20536 6 7V26C6.00329 26.7946 6.32042 27.5558 6.88232 28.1177C7.44421 28.6796 8.20536 28.9967 9 29H23C23.7946 28.9967 24.5558 28.6796 25.1177 28.1177C25.6796 27.5558 25.9967 26.7946 26 26V7C25.9967 6.20536 25.6796 5.44421 25.1177 4.88232C24.5558 4.32042 23.7946 4.00329 23 4ZM18.925 16.875L16.925 21.875C16.8519 22.0603 16.7244 22.2192 16.5593 22.3308C16.3942 22.4423 16.1992 22.5013 16 22.5C15.8713 22.4994 15.744 22.4739 15.625 22.425C15.5026 22.3769 15.3911 22.3049 15.2969 22.2131C15.2028 22.1214 15.1279 22.0117 15.0766 21.8907C15.0254 21.7696 14.9989 21.6395 14.9986 21.508C14.9983 21.3765 15.0243 21.2463 15.075 21.125L16.525 17.5H14C13.8371 17.5008 13.6765 17.4613 13.5325 17.3849C13.3886 17.3086 13.2657 17.1978 13.175 17.0625C13.0825 16.9265 13.025 16.7698 13.0076 16.6063C12.9901 16.4427 13.0133 16.2774 13.075 16.125L15.075 11.125C15.1184 10.9956 15.1879 10.8765 15.2791 10.775C15.3703 10.6734 15.4813 10.5917 15.6053 10.5346C15.7293 10.4776 15.8637 10.4466 16.0001 10.4435C16.1366 10.4404 16.2722 10.4652 16.3987 10.5165C16.5252 10.5678 16.6398 10.6444 16.7356 10.7417C16.8313 10.8389 16.9062 10.9547 16.9555 11.082C17.0048 11.2093 17.0275 11.3453 17.0223 11.4817C17.017 11.618 16.9839 11.7519 16.925 11.875L15.475 15.5H18C18.1629 15.4992 18.3235 15.5387 18.4675 15.6151C18.6114 15.6914 18.7343 15.8022 18.825 15.9375C18.9175 16.0735 18.975 16.2302 18.9924 16.3937C19.0099 16.5573 18.9867 16.7226 18.925 16.875Z" fill="#344054"/>
</svg>
