<svg width="32" height="32" viewBox="0 0 32 32" fill="none" xmlns="http://www.w3.org/2000/svg">
<path d="M29.7125 2.28749C29.5229 2.09971 29.2669 1.99437 29 1.99437C28.7332 1.99437 28.4771 2.09971 28.2875 2.28749L22 8.58749L21.325 7.91249C20.9545 7.5406 20.5143 7.24551 20.0295 7.04416C19.5447 6.84281 19.0249 6.73916 18.5 6.73916C17.9751 6.73916 17.4553 6.84281 16.9705 7.04416C16.4857 7.24551 16.0455 7.5406 15.675 7.91249L12.5 11.0875L12.2125 10.7875C12.0182 10.628 11.7716 10.5465 11.5205 10.5589C11.2694 10.5712 11.032 10.6765 10.8542 10.8542C10.6765 11.0319 10.5712 11.2694 10.5589 11.5205C10.5466 11.7715 10.628 12.0182 10.7875 12.2125L11.0875 12.5L7.91251 15.675C7.54061 16.0455 7.24552 16.4857 7.04417 16.9705C6.84282 17.4553 6.73918 17.9751 6.73918 18.5C6.73918 19.0249 6.84282 19.5447 7.04417 20.0295C7.24552 20.5143 7.54061 20.9545 7.91251 21.325L8.58751 22L2.28751 28.2875C2.09973 28.4771 1.99438 28.7331 1.99438 29C1.99438 29.2668 2.09973 29.5229 2.28751 29.7125C2.47865 29.8973 2.73413 30.0006 3.00001 30.0006C3.26589 30.0006 3.52137 29.8973 3.71251 29.7125L10 23.4125L10.675 24.0875C11.4265 24.8325 12.4418 25.2505 13.5 25.2505C14.5582 25.2505 15.5735 24.8325 16.325 24.0875L19.5 20.9125L19.7875 21.2125C19.9786 21.3973 20.2341 21.5006 20.5 21.5006C20.7659 21.5006 21.0214 21.3973 21.2125 21.2125C21.4003 21.0229 21.5056 20.7668 21.5056 20.5C21.5056 20.2331 21.4003 19.9771 21.2125 19.7875L20.9125 19.5L24.0875 16.325C24.4594 15.9545 24.7545 15.5143 24.9558 15.0295C25.1572 14.5447 25.2608 14.0249 25.2608 13.5C25.2608 12.9751 25.1572 12.4553 24.9558 11.9705C24.7545 11.4857 24.4594 11.0455 24.0875 10.675L23.4125 9.99999L29.7125 3.71249C29.9003 3.5229 30.0056 3.26684 30.0056 2.99999C30.0056 2.73315 29.9003 2.47709 29.7125 2.28749ZM22.675 14.9125L19.5 18.0875L13.9125 12.5L17.0875 9.32499C17.2723 9.13829 17.4923 8.99008 17.7348 8.88894C17.9772 8.78779 18.2373 8.73571 18.5 8.73571C18.7627 8.73571 19.0228 8.78779 19.2653 8.88894C19.5077 8.99008 19.7277 9.13829 19.9125 9.32499L22.675 12.0875C22.8617 12.2723 23.0099 12.4923 23.1111 12.7347C23.2122 12.9772 23.2643 13.2373 23.2643 13.5C23.2643 13.7627 23.2122 14.0228 23.1111 14.2652C23.0099 14.5077 22.8617 14.7277 22.675 14.9125ZM28.95 20.3125C28.8859 20.5136 28.7591 20.6888 28.5881 20.8125C28.4171 20.9363 28.211 21.002 28 21C27.8937 21.0017 27.788 20.9847 27.6875 20.95L24.6875 19.95C24.5628 19.909 24.4473 19.8437 24.3477 19.7581C24.2482 19.6724 24.1665 19.568 24.1073 19.4508C24.0481 19.3335 24.0126 19.2058 24.0027 19.0748C23.9929 18.9439 24.009 18.8123 24.05 18.6875C24.091 18.5627 24.1563 18.4473 24.2419 18.3477C24.3276 18.2482 24.432 18.1665 24.5492 18.1073C24.6665 18.0481 24.7942 18.0125 24.9252 18.0027C25.0561 17.9929 25.1878 18.009 25.3125 18.05L28.3125 19.05C28.4373 19.091 28.5527 19.1562 28.6523 19.2419C28.7518 19.3275 28.8336 19.432 28.8928 19.5492C28.952 19.6664 28.9875 19.7942 28.9973 19.9252C29.0071 20.0561 28.9911 20.1877 28.95 20.3125ZM3.05001 11.6875C3.09104 11.5627 3.15624 11.4473 3.2419 11.3477C3.32755 11.2482 3.43198 11.1664 3.54921 11.1072C3.66645 11.048 3.7942 11.0125 3.92517 11.0027C4.05614 10.9929 4.18775 11.0089 4.31251 11.05L7.31251 12.05C7.53845 12.1243 7.73053 12.2766 7.85426 12.4797C7.978 12.6828 8.0253 12.9234 7.98766 13.1582C7.95003 13.3931 7.82993 13.6068 7.64892 13.7611C7.46791 13.9153 7.23784 14.0001 7.00001 14C6.89373 14.0017 6.78797 13.9847 6.68751 13.95L3.68751 12.95C3.56275 12.909 3.44729 12.8438 3.34773 12.7581C3.24817 12.6725 3.16646 12.568 3.10726 12.4508C3.04806 12.3336 3.01254 12.2058 3.00271 12.0748C2.99289 11.9439 3.00896 11.8122 3.05001 11.6875ZM11.05 4.31249C11.009 4.18774 10.9929 4.05612 11.0027 3.92516C11.0126 3.79419 11.0481 3.66645 11.1073 3.54921C11.1665 3.43198 11.2482 3.32755 11.3477 3.2419C11.4473 3.15624 11.5628 3.09103 11.6875 3.04999C11.9395 2.96711 12.214 2.98772 12.4508 3.10727C12.6876 3.22683 12.8671 3.43554 12.95 3.68749L13.95 6.68749C13.9911 6.81225 14.0071 6.94387 13.9973 7.07484C13.9875 7.2058 13.952 7.33355 13.8928 7.45079C13.8336 7.56803 13.7519 7.67245 13.6523 7.75811C13.5527 7.84376 13.4373 7.90897 13.3125 7.94999C13.2121 7.98474 13.1063 8.00166 13 7.99999C12.789 8.00195 12.5829 7.93625 12.4119 7.81253C12.2409 7.6888 12.1141 7.51356 12.05 7.31249L11.05 4.31249ZM20.95 27.6875C20.9911 27.8123 21.0071 27.9439 20.9973 28.0748C20.9875 28.2058 20.952 28.3336 20.8928 28.4508C20.8336 28.568 20.7518 28.6725 20.6523 28.7581C20.5527 28.8438 20.4373 28.909 20.3125 28.95C20.212 28.9847 20.1063 29.0017 20 29C19.789 29.002 19.5829 28.9363 19.4119 28.8125C19.2409 28.6888 19.1141 28.5136 19.05 28.3125L18.05 25.3125C18.009 25.1877 17.9929 25.0561 18.0027 24.9252C18.0126 24.7942 18.0481 24.6664 18.1073 24.5492C18.1665 24.432 18.2482 24.3276 18.3477 24.2419C18.4473 24.1562 18.5628 24.091 18.6875 24.05C18.8123 24.009 18.9439 23.9929 19.0748 24.0027C19.2058 24.0125 19.3336 24.0481 19.4508 24.1073C19.568 24.1665 19.6724 24.2482 19.7581 24.3477C19.8438 24.4473 19.909 24.5627 19.95 24.6875L20.95 27.6875Z" fill="#344054"/>
</svg>
