<svg width="32" height="32" viewBox="0 0 32 32" fill="none" xmlns="http://www.w3.org/2000/svg">
<path d="M23.6 21.2L16.6625 16L23.6 10.8C23.7242 10.7069 23.825 10.5861 23.8944 10.4472C23.9639 10.3084 24 10.1552 24 10C24 9.84476 23.9639 9.69164 23.8944 9.55279C23.825 9.41393 23.7242 9.29315 23.6 9.2L15.6 3.2C15.4514 3.08857 15.2748 3.02072 15.0898 3.00404C14.9048 2.98736 14.7189 3.02252 14.5528 3.10557C14.3867 3.18863 14.247 3.31629 14.1493 3.47427C14.0517 3.63225 14 3.81429 14 4V14L7.6 9.2C7.38669 9.04407 7.12087 8.9777 6.8593 9.01507C6.59772 9.05244 6.36112 9.19058 6.2 9.4C6.12121 9.50506 6.06388 9.62461 6.03129 9.75182C5.99869 9.87903 5.99148 10.0114 6.01005 10.1414C6.02862 10.2714 6.07262 10.3965 6.13953 10.5095C6.20643 10.6225 6.29494 10.7212 6.4 10.8L13.3375 16L6.4 21.2C6.23209 21.3259 6.10807 21.5015 6.04549 21.7018C5.98291 21.9022 5.98495 22.1171 6.05132 22.3162C6.11769 22.5153 6.24502 22.6885 6.41529 22.8112C6.58556 22.934 6.79012 23 7 23C7.21682 23.0028 7.42824 22.9323 7.6 22.8L14 18V28C14.0015 28.1858 14.0535 28.3676 14.1504 28.5262C14.2472 28.6847 14.3854 28.8139 14.55 28.9C14.6919 28.9627 14.8449 28.9967 15 29C15.2168 29.0028 15.4282 28.9323 15.6 28.8L23.6 22.8C23.7242 22.7069 23.825 22.5861 23.8944 22.4472C23.9639 22.3084 24 22.1552 24 22C24 21.8448 23.9639 21.6916 23.8944 21.5528C23.825 21.4139 23.7242 21.2931 23.6 21.2ZM16 6L21.3375 10L16 14V6ZM16 26V18L21.3375 22L16 26Z" fill="#344054"/>
</svg>
