<svg width="32" height="32" viewBox="0 0 32 32" fill="none" xmlns="http://www.w3.org/2000/svg">
<path d="M11 1C11 0.734784 11.1054 0.48043 11.2929 0.292893C11.4804 0.105357 11.7348 0 12 0L20 0C20.2652 0 20.5196 0.105357 20.7071 0.292893C20.8946 0.48043 21 0.734784 21 1C21 1.26522 20.8946 1.51957 20.7071 1.70711C20.5196 1.89464 20.2652 2 20 2H12C11.7348 2 11.4804 1.89464 11.2929 1.70711C11.1054 1.51957 11 1.26522 11 1ZM26 7V26C25.9967 26.7946 25.6796 27.5558 25.1177 28.1177C24.5558 28.6796 23.7946 28.9967 23 29H9C8.20536 28.9967 7.44421 28.6796 6.88232 28.1177C6.32042 27.5558 6.00329 26.7946 6 26V7C6.00329 6.20536 6.32042 5.44421 6.88232 4.88232C7.44421 4.32042 8.20536 4.00329 9 4H23C23.7946 4.00329 24.5558 4.32042 25.1177 4.88232C25.6796 5.44421 25.9967 6.20536 26 7ZM15 16.5C15 16.7652 15.1054 17.0196 15.2929 17.2071C15.4804 17.3946 15.7348 17.5 16 17.5C16.2652 17.5 16.5196 17.3946 16.7071 17.2071C16.8946 17.0196 17 16.7652 17 16.5V11.5C17 11.2348 16.8946 10.9804 16.7071 10.7929C16.5196 10.6054 16.2652 10.5 16 10.5C15.7348 10.5 15.4804 10.6054 15.2929 10.7929C15.1054 10.9804 15 11.2348 15 11.5V16.5ZM17.5 21C17.5 20.7033 17.412 20.4133 17.2472 20.1666C17.0824 19.92 16.8481 19.7277 16.574 19.6142C16.2999 19.5007 15.9983 19.4709 15.7074 19.5288C15.4164 19.5867 15.1491 19.7296 14.9393 19.9393C14.7296 20.1491 14.5867 20.4164 14.5288 20.7074C14.4709 20.9983 14.5006 21.2999 14.6142 21.574C14.7277 21.8481 14.92 22.0824 15.1666 22.2472C15.4133 22.412 15.7033 22.5 16 22.5C16.3978 22.5 16.7794 22.342 17.0607 22.0607C17.342 21.7794 17.5 21.3978 17.5 21Z" fill="#344054"/>
</svg>
