<svg width="32" height="32" viewBox="0 0 32 32" fill="none" xmlns="http://www.w3.org/2000/svg">
<path d="M19.2125 11.2125L8.21246 22.2125C8.02132 22.3973 7.76584 22.5006 7.49996 22.5006C7.23408 22.5006 6.9786 22.3973 6.78746 22.2125L1.28746 16.7125C1.128 16.5182 1.04651 16.2716 1.05884 16.0205C1.07117 15.7694 1.17644 15.532 1.35417 15.3542C1.53191 15.1765 1.7694 15.0712 2.02045 15.0589C2.2715 15.0466 2.51817 15.128 2.71246 15.2875L7.49996 20.0875L17.7875 9.78751C17.9818 9.62805 18.2284 9.54656 18.4795 9.55889C18.7305 9.57122 18.968 9.67649 19.1458 9.85422C19.3235 10.032 19.4288 10.2694 19.4411 10.5205C19.4534 10.7716 19.3719 11.0182 19.2125 11.2125ZM30.7125 9.78751C30.5229 9.59973 30.2668 9.49438 30 9.49438C29.7331 9.49438 29.4771 9.59973 29.2875 9.78751L19 20.0875L16.7875 17.875C16.5972 17.7027 16.348 17.61 16.0914 17.6164C15.8348 17.6227 15.5904 17.7274 15.4089 17.909C15.2274 18.0905 15.1226 18.3348 15.1163 18.5914C15.11 18.8481 15.2026 19.0973 15.375 19.2875L18.2875 22.2125C18.4786 22.3973 18.7341 22.5006 19 22.5006C19.2658 22.5006 19.5213 22.3973 19.7125 22.2125L30.7125 11.2125C30.9002 11.0229 31.0056 10.7669 31.0056 10.5C31.0056 10.2332 30.9002 9.9771 30.7125 9.78751Z" fill="#344054"/>
</svg>
