<svg width="32" height="32" viewBox="0 0 32 32" fill="none" xmlns="http://www.w3.org/2000/svg">
<path d="M26.9999 5H8.56241C8.21756 5.00325 7.87925 5.09451 7.57956 5.26514C7.27986 5.43577 7.02871 5.68011 6.84991 5.975L1.13741 15.4875C1.04492 15.6425 0.996094 15.8195 0.996094 16C0.996094 16.1805 1.04492 16.3575 1.13741 16.5125L6.84991 26.025C7.02781 26.3207 7.27876 26.5657 7.57866 26.7364C7.87855 26.9072 8.21732 26.9979 8.56241 27H26.9999C27.5303 27 28.039 26.7893 28.4141 26.4142C28.7892 26.0391 28.9999 25.5304 28.9999 25V7C28.9999 6.46957 28.7892 5.96086 28.4141 5.58579C28.039 5.21071 27.5303 5 26.9999 5ZM20.7124 18.2875C20.9002 18.4771 21.0055 18.7332 21.0055 19C21.0055 19.2668 20.9002 19.5229 20.7124 19.7125C20.5191 19.8939 20.265 19.9964 19.9999 20C19.7344 19.9989 19.4794 19.896 19.2874 19.7125L16.9999 17.4125L14.7124 19.7125C14.5191 19.8939 14.265 19.9964 13.9999 20C13.7344 19.9989 13.4794 19.896 13.2874 19.7125C13.0996 19.5229 12.9943 19.2668 12.9943 19C12.9943 18.7332 13.0996 18.4771 13.2874 18.2875L15.5874 16L13.2874 13.7125C13.1279 13.5182 13.0465 13.2715 13.0588 13.0205C13.0711 12.7694 13.1764 12.5319 13.3541 12.3542C13.5319 12.1765 13.7693 12.0712 14.0204 12.0589C14.2714 12.0465 14.5181 12.128 14.7124 12.2875L16.9999 14.5875L19.2874 12.2875C19.4817 12.128 19.7284 12.0465 19.9794 12.0589C20.2305 12.0712 20.468 12.1765 20.6457 12.3542C20.8234 12.5319 20.9287 12.7694 20.941 13.0205C20.9534 13.2715 20.8719 13.5182 20.7124 13.7125L18.4124 16L20.7124 18.2875Z" fill="#344054"/>
</svg>
