<svg width="32" height="32" viewBox="0 0 32 32" fill="none" xmlns="http://www.w3.org/2000/svg">
<path d="M30.0751 8.7C21.7876 2.4375 10.2126 2.4375 1.92511 8.6875C1.70994 8.85263 1.53037 9.05956 1.39719 9.29585C1.26401 9.53214 1.17996 9.79291 1.15011 10.0625C1.12121 10.3366 1.14722 10.6138 1.22663 10.8778C1.30604 11.1418 1.43725 11.3873 1.61261 11.6L14.4751 26.75C14.6628 26.9718 14.8963 27.1503 15.1595 27.2733C15.4228 27.3963 15.7096 27.4609 16.0001 27.4625C16.2877 27.4614 16.5717 27.3983 16.8327 27.2775C17.0938 27.1567 17.3257 26.9811 17.5126 26.7625L30.3876 11.5875C30.5651 11.3786 30.6977 11.1354 30.7773 10.873C30.8569 10.6107 30.8816 10.3348 30.8501 10.0625C30.8222 9.79413 30.7389 9.53447 30.6055 9.29994C30.4721 9.06542 30.2915 8.86113 30.0751 8.7ZM25.5626 14.1875C24.8896 13.6879 24.1791 13.2408 23.4376 12.85L23.3376 12.8C22.6222 12.425 21.8782 12.1073 21.1126 11.85L20.9251 11.8C20.1755 11.5454 19.4063 11.3531 18.6251 11.225L18.4251 11.2C16.8194 10.9333 15.1808 10.9333 13.5751 11.2L13.3751 11.225C12.5955 11.3548 11.8267 11.5429 11.0751 11.7875L10.8876 11.85C10.1229 12.1096 9.37903 12.4272 8.66261 12.8L8.56261 12.85C7.82344 13.238 7.11695 13.6853 6.45011 14.1875L3.13761 10.2875C10.7126 4.575 21.3001 4.575 28.8626 10.3L25.5626 14.1875Z" fill="#344054"/>
</svg>
