<svg width="32" height="32" viewBox="0 0 32 32" fill="none" xmlns="http://www.w3.org/2000/svg">
<path d="M11 9V6C11 5.73478 11.1054 5.48043 11.2929 5.29289C11.4804 5.10536 11.7348 5 12 5C12.2652 5 12.5196 5.10536 12.7071 5.29289C12.8946 5.48043 13 5.73478 13 6V9C13 9.26522 12.8946 9.51957 12.7071 9.70711C12.5196 9.89464 12.2652 10 12 10C11.7348 10 11.4804 9.89464 11.2929 9.70711C11.1054 9.51957 11 9.26522 11 9ZM20 22C19.7348 22 19.4804 22.1054 19.2929 22.2929C19.1054 22.4804 19 22.7348 19 23V26C19 26.2652 19.1054 26.5196 19.2929 26.7071C19.4804 26.8946 19.7348 27 20 27C20.2652 27 20.5196 26.8946 20.7071 26.7071C20.8946 26.5196 21 26.2652 21 26V23C21 22.7348 20.8946 22.4804 20.7071 22.2929C20.5196 22.1054 20.2652 22 20 22ZM6 13H9C9.26522 13 9.51957 12.8946 9.70711 12.7071C9.89464 12.5196 10 12.2652 10 12C10 11.7348 9.89464 11.4804 9.70711 11.2929C9.51957 11.1054 9.26522 11 9 11H6C5.73478 11 5.48043 11.1054 5.29289 11.2929C5.10536 11.4804 5 11.7348 5 12C5 12.2652 5.10536 12.5196 5.29289 12.7071C5.48043 12.8946 5.73478 13 6 13ZM26 19H23C22.7348 19 22.4804 19.1054 22.2929 19.2929C22.1054 19.4804 22 19.7348 22 20C22 20.2652 22.1054 20.5196 22.2929 20.7071C22.4804 20.8946 22.7348 21 23 21H26C26.2652 21 26.5196 20.8946 26.7071 20.7071C26.8946 20.5196 27 20.2652 27 20C27 19.7348 26.8946 19.4804 26.7071 19.2929C26.5196 19.1054 26.2652 19 26 19ZM15.2375 22.4125L13.825 23.825C13.0641 24.5144 12.0672 24.8849 11.0407 24.8596C10.0143 24.8343 9.03682 24.4153 8.31077 23.6892C7.58472 22.9632 7.16568 21.9857 7.14041 20.9593C7.11513 19.9328 7.48556 18.9359 8.175 18.175L9.5875 16.7625C9.77528 16.5729 9.88063 16.3168 9.88063 16.05C9.88063 15.7832 9.77528 15.5271 9.5875 15.3375C9.40003 15.1505 9.14605 15.0455 8.88125 15.0455C8.61645 15.0455 8.36247 15.1505 8.175 15.3375L6.7625 16.7625C5.63864 17.8864 5.00727 19.4106 5.00727 21C5.00727 22.5894 5.63864 24.1136 6.7625 25.2375C7.88635 26.3614 9.41063 26.9927 11 26.9927C12.5894 26.9927 14.1136 26.3614 15.2375 25.2375L16.6625 23.825C16.8495 23.6375 16.9545 23.3835 16.9545 23.1187C16.9545 22.854 16.8495 22.6 16.6625 22.4125C16.4729 22.2247 16.2168 22.1194 15.95 22.1194C15.6832 22.1194 15.4271 22.2247 15.2375 22.4125ZM23.825 8.175C24.1969 8.54547 24.492 8.98573 24.6933 9.47051C24.8947 9.9553 24.9983 10.4751 24.9983 11C24.9983 11.5249 24.8947 12.0447 24.6933 12.5295C24.492 13.0143 24.1969 13.4545 23.825 13.825L22.4125 15.2375C22.2247 15.4271 22.1194 15.6832 22.1194 15.95C22.1194 16.2168 22.2247 16.4729 22.4125 16.6625C22.6045 16.846 22.8595 16.9489 23.125 16.95C23.387 16.9496 23.6383 16.8463 23.825 16.6625L25.2375 15.2375C26.3614 14.1136 26.9927 12.5894 26.9927 11C26.9927 9.41063 26.3614 7.88635 25.2375 6.7625C24.1136 5.63864 22.5894 5.00727 21 5.00727C19.4106 5.00727 17.8864 5.63864 16.7625 6.7625L15.3375 8.175C15.1505 8.36247 15.0455 8.61645 15.0455 8.88125C15.0455 9.14605 15.1505 9.40003 15.3375 9.5875C15.5271 9.77528 15.7832 9.88063 16.05 9.88063C16.3168 9.88063 16.5729 9.77528 16.7625 9.5875L18.175 8.175C18.5455 7.8031 18.9857 7.50801 19.4705 7.30666C19.9553 7.10531 20.4751 7.00167 21 7.00167C21.5249 7.00167 22.0447 7.10531 22.5295 7.30666C23.0143 7.50801 23.4545 7.8031 23.825 8.175Z" fill="#344054"/>
</svg>
