<svg width="32" height="32" viewBox="0 0 32 32" fill="none" xmlns="http://www.w3.org/2000/svg">
<path d="M9.2875 10.7125C9.12804 10.5182 9.04655 10.2715 9.05888 10.0205C9.07121 9.76944 9.17648 9.53195 9.35421 9.35421C9.53195 9.17648 9.76944 9.07121 10.0205 9.05888C10.2715 9.04655 10.5182 9.12804 10.7125 9.2875L15 13.5875V3C15 2.73478 15.1054 2.48043 15.2929 2.29289C15.4804 2.10536 15.7348 2 16 2C16.2652 2 16.5196 2.10536 16.7071 2.29289C16.8946 2.48043 17 2.73478 17 3V13.5875L21.2875 9.2875C21.4818 9.12804 21.7285 9.04655 21.9795 9.05888C22.2306 9.07121 22.4681 9.17648 22.6458 9.35421C22.8235 9.53195 22.9288 9.76944 22.9411 10.0205C22.9535 10.2715 22.872 10.5182 22.7125 10.7125L16.7125 16.7125C16.5214 16.8973 16.2659 17.0006 16 17.0006C15.7341 17.0006 15.4786 16.8973 15.2875 16.7125L9.2875 10.7125ZM30 17V25C30 25.5304 29.7893 26.0391 29.4142 26.4142C29.0391 26.7893 28.5304 27 28 27H4C3.46957 27 2.96086 26.7893 2.58579 26.4142C2.21071 26.0391 2 25.5304 2 25V17C2 16.4696 2.21071 15.9609 2.58579 15.5858C2.96086 15.2107 3.46957 15 4 15H10.55C10.6158 14.9979 10.6812 15.0102 10.7416 15.0362C10.8021 15.0621 10.8562 15.1009 10.9 15.15L13.875 18.125C14.4395 18.6868 15.2036 19.0022 16 19.0022C16.7964 19.0022 17.5605 18.6868 18.125 18.125L21.1 15.15C21.1438 15.1009 21.1979 15.0621 21.2584 15.0362C21.3188 15.0102 21.3842 14.9979 21.45 15H28C28.5304 15 29.0391 15.2107 29.4142 15.5858C29.7893 15.9609 30 16.4696 30 17ZM25 21C25 20.7033 24.912 20.4133 24.7472 20.1666C24.5824 19.92 24.3481 19.7277 24.074 19.6142C23.7999 19.5007 23.4983 19.4709 23.2074 19.5288C22.9164 19.5867 22.6491 19.7296 22.4393 19.9393C22.2296 20.1491 22.0867 20.4164 22.0288 20.7074C21.9709 20.9983 22.0007 21.2999 22.1142 21.574C22.2277 21.8481 22.42 22.0824 22.6666 22.2472C22.9133 22.412 23.2033 22.5 23.5 22.5C23.8978 22.5 24.2794 22.342 24.5607 22.0607C24.842 21.7794 25 21.3978 25 21Z" fill="#344054"/>
</svg>
