<svg width="32" height="32" viewBox="0 0 32 32" fill="none" xmlns="http://www.w3.org/2000/svg">
<path d="M26 5H6C5.20536 5.00329 4.44421 5.32042 3.88231 5.88232C3.32042 6.44421 3.00329 7.20536 3 8V22C3.00329 22.7946 3.32042 23.5558 3.88231 24.1177C4.44421 24.6796 5.20536 24.9967 6 25H15V27H12C11.7348 27 11.4804 27.1054 11.2929 27.2929C11.1054 27.4804 11 27.7348 11 28C11 28.2652 11.1054 28.5196 11.2929 28.7071C11.4804 28.8946 11.7348 29 12 29H20C20.2652 29 20.5196 28.8946 20.7071 28.7071C20.8946 28.5196 21 28.2652 21 28C21 27.7348 20.8946 27.4804 20.7071 27.2929C20.5196 27.1054 20.2652 27 20 27H17V25H26C26.7946 24.9967 27.5558 24.6796 28.1177 24.1177C28.6796 23.5558 28.9967 22.7946 29 22V8C28.9967 7.20536 28.6796 6.44421 28.1177 5.88232C27.5558 5.32042 26.7946 5.00329 26 5ZM26 23H6C5.73478 23 5.48043 22.8946 5.29289 22.7071C5.10536 22.5196 5 22.2652 5 22V20H27V22C27 22.2652 26.8946 22.5196 26.7071 22.7071C26.5196 22.8946 26.2652 23 26 23Z" fill="#344054"/>
</svg>
