<svg width="32" height="32" viewBox="0 0 32 32" fill="none" xmlns="http://www.w3.org/2000/svg">
<path d="M24 3H8C7.20536 3.00329 6.44421 3.32042 5.88232 3.88231C5.32042 4.44421 5.00329 5.20536 5 6V26C5.00329 26.7946 5.32042 27.5558 5.88232 28.1177C6.44421 28.6796 7.20536 28.9967 8 29H24C24.7946 28.9967 25.5558 28.6796 26.1177 28.1177C26.6796 27.5558 26.9967 26.7946 27 26V6C26.9967 5.20536 26.6796 4.44421 26.1177 3.88231C25.5558 3.32042 24.7946 3.00329 24 3ZM20 9H12C11.7348 9 11.4804 8.89464 11.2929 8.70711C11.1054 8.51957 11 8.26522 11 8C11 7.73478 11.1054 7.48043 11.2929 7.29289C11.4804 7.10536 11.7348 7 12 7H20C20.2652 7 20.5196 7.10536 20.7071 7.29289C20.8946 7.48043 21 7.73478 21 8C21 8.26522 20.8946 8.51957 20.7071 8.70711C20.5196 8.89464 20.2652 9 20 9Z" fill="#344054"/>
</svg>
