<svg width="32" height="32" viewBox="0 0 32 32" fill="none" xmlns="http://www.w3.org/2000/svg">
<path d="M24 3H8C7.20536 3.00329 6.44421 3.32042 5.88232 3.88231C5.32042 4.44421 5.00329 5.20536 5 6V26C5.00329 26.7946 5.32042 27.5558 5.88232 28.1177C6.44421 28.6796 7.20536 28.9967 8 29H24C24.7946 28.9967 25.5558 28.6796 26.1177 28.1177C26.6796 27.5558 26.9967 26.7946 27 26V6C26.9967 5.20536 26.6796 4.44421 26.1177 3.88231C25.5558 3.32042 24.7946 3.00329 24 3ZM8 5H24C24.2652 5 24.5196 5.10536 24.7071 5.29289C24.8946 5.48043 25 5.73478 25 6V7H7V6C7 5.73478 7.10536 5.48043 7.29289 5.29289C7.48043 5.10536 7.73478 5 8 5ZM24 27H8C7.73478 27 7.48043 26.8946 7.29289 26.7071C7.10536 26.5196 7 26.2652 7 26V25H25V26C25 26.2652 24.8946 26.5196 24.7071 26.7071C24.5196 26.8946 24.2652 27 24 27Z" fill="#344054"/>
</svg>
