<svg width="32" height="32" viewBox="0 0 32 32" fill="none" xmlns="http://www.w3.org/2000/svg">
<path d="M15.9999 27.4625C15.7123 27.4614 15.4283 27.3984 15.1673 27.2776C14.9062 27.1568 14.6743 26.9811 14.4874 26.7625L1.61239 11.5875C1.4336 11.3794 1.30014 11.1363 1.22051 10.8737C1.14087 10.6112 1.11683 10.3349 1.14989 10.0625C1.18113 9.79328 1.26577 9.53301 1.39884 9.29691C1.53192 9.06081 1.71076 8.85363 1.92489 8.6875C10.2124 2.4375 21.7874 2.4375 30.0749 8.6875C30.289 8.85363 30.4679 9.06081 30.6009 9.29691C30.734 9.53301 30.8187 9.79328 30.8499 10.0625C30.8814 10.3348 30.8567 10.6107 30.7771 10.8731C30.6975 11.1354 30.5649 11.3786 30.3874 11.5875L17.5124 26.7625C17.3254 26.9811 17.0936 27.1568 16.8325 27.2776C16.5715 27.3984 16.2875 27.4614 15.9999 27.4625ZM3.13739 10.2875L15.9999 25.45L28.8624 10.3V10.275C21.2999 4.575 10.7124 4.575 3.13739 10.2875Z" fill="#344054"/>
</svg>
