<svg width="32" height="32" viewBox="0 0 32 32" fill="none" xmlns="http://www.w3.org/2000/svg">
<path d="M6.73753 4.325C6.55686 4.13599 6.30935 4.02526 6.04803 4.01653C5.78671 4.0078 5.53237 4.10177 5.33949 4.2783C5.14661 4.45483 5.03055 4.69988 5.01616 4.96095C5.00178 5.22202 5.09021 5.47835 5.26253 5.675L10.1625 11.0625L5.27503 16.3125C5.16031 16.4315 5.07731 16.5774 5.03363 16.7369C4.98995 16.8963 4.987 17.0641 5.02503 17.225C5.06416 17.3853 5.14142 17.5338 5.25023 17.6578C5.35904 17.7819 5.49619 17.8778 5.65003 17.9375L12.85 20.6375L11.025 29.8C10.9831 30.0122 11.0102 30.2323 11.1024 30.428C11.1946 30.6238 11.3471 30.7848 11.5375 30.8875C11.6811 30.9599 11.8393 30.9984 12 31C12.137 31.0006 12.2726 30.9718 12.3976 30.9158C12.5227 30.8598 12.6343 30.7777 12.725 30.675L20.4625 22.4L25.2625 27.675C25.3562 27.7774 25.4701 27.8591 25.5971 27.9151C25.7241 27.971 25.8613 28 26 28C26.2495 27.9976 26.4895 27.9042 26.675 27.7375C26.7733 27.6498 26.8531 27.5432 26.9096 27.4242C26.9661 27.3052 26.9982 27.1761 27.004 27.0444C27.0098 26.9128 26.9893 26.7813 26.9435 26.6578C26.8977 26.5342 26.8277 26.4211 26.7375 26.325L6.73753 4.325Z" fill="#344054"/>
<path d="M22.4749 18.6625C22.5672 18.7633 22.6791 18.8442 22.8038 18.9001C22.9285 18.956 23.0633 18.9857 23.1999 18.9875H23.2124C23.3494 18.9881 23.485 18.9593 23.61 18.9033C23.7351 18.8472 23.8467 18.7652 23.9374 18.6625L26.7249 15.675C26.8389 15.5564 26.9214 15.4113 26.9651 15.2527C27.0087 15.0942 27.012 14.9272 26.9748 14.767C26.9375 14.6069 26.8609 14.4585 26.7517 14.3355C26.6426 14.2125 26.5045 14.1186 26.3499 14.0625L19.1499 11.3625L20.9749 2.1875C21.0127 1.97689 20.982 1.75971 20.8872 1.56788C20.7924 1.37604 20.6385 1.21968 20.4483 1.12175C20.258 1.02383 20.0414 0.989512 19.8302 1.02385C19.619 1.05818 19.4244 1.15935 19.2749 1.3125L13.5374 7.4625C13.3644 7.6439 13.2668 7.88433 13.2644 8.13503C13.2621 8.38573 13.3552 8.62793 13.5249 8.8125L22.4749 18.6625Z" fill="#344054"/>
</svg>
