<svg width="32" height="32" viewBox="0 0 32 32" fill="none" xmlns="http://www.w3.org/2000/svg">
<path d="M27.6251 21.9875C26.8876 20.7125 26.0001 18.2875 26.0001 14V13.1125C26.0001 7.57501 21.5501 3.03751 16.0751 3.00001H16.0001C14.6864 2.99836 13.3853 3.2559 12.1713 3.75786C10.9573 4.25983 9.8543 4.99636 8.92538 5.92527C7.99647 6.85418 7.25994 7.95723 6.75797 9.17123C6.25601 10.3852 5.99847 11.6863 6.00012 13V14C6.00012 18.2875 5.11262 20.7125 4.37512 21.9875C4.19284 22.291 4.0955 22.638 4.0933 22.992C4.0911 23.3461 4.18412 23.6942 4.36262 24C4.53763 24.3057 4.79075 24.5594 5.09605 24.7351C5.40135 24.9108 5.74787 25.0023 6.10012 25H25.9001C26.2524 25.0023 26.5989 24.9108 26.9042 24.7351C27.2095 24.5594 27.4626 24.3057 27.6376 24C27.8161 23.6942 27.9091 23.3461 27.9069 22.992C27.9047 22.638 27.8074 22.291 27.6251 21.9875Z" fill="#344054"/>
<path d="M19.9875 27H11.9875C11.7223 27 11.468 27.1054 11.2804 27.2929C11.0929 27.4804 10.9875 27.7348 10.9875 28C10.9875 28.2652 11.0929 28.5196 11.2804 28.7071C11.468 28.8946 11.7223 29 11.9875 29H19.9875C20.2528 29 20.5071 28.8946 20.6947 28.7071C20.8822 28.5196 20.9875 28.2652 20.9875 28C20.9875 27.7348 20.8822 27.4804 20.6947 27.2929C20.5071 27.1054 20.2528 27 19.9875 27Z" fill="#344054"/>
</svg>
