<svg width="32" height="32" viewBox="0 0 32 32" fill="none" xmlns="http://www.w3.org/2000/svg">
<path d="M25.9751 14C25.9851 11.3621 24.9484 8.82791 23.0925 6.95326C21.2366 5.0786 18.713 4.01654 16.0751 4.00001H16.0001C14.6885 4.00165 13.3901 4.26161 12.179 4.76505C10.9679 5.26848 9.86779 6.00554 8.94153 6.93412C8.01526 7.86271 7.28097 8.96464 6.78057 10.177C6.28017 11.3894 6.02346 12.6884 6.0251 14C6.0251 18.2875 5.1376 20.7125 4.4001 21.9875C4.22277 22.2928 4.12833 22.6391 4.12614 22.9921C4.12395 23.3451 4.21408 23.6926 4.3876 24C4.56261 24.3057 4.81573 24.5594 5.12103 24.7351C5.42633 24.9108 5.77285 25.0023 6.1251 25H11.0001C11.0001 26.3261 11.5269 27.5979 12.4646 28.5355C13.4022 29.4732 14.674 30 16.0001 30C17.3262 30 18.598 29.4732 19.5356 28.5355C20.4733 27.5979 21.0001 26.3261 21.0001 25H25.8751C26.2273 25.0023 26.5739 24.9108 26.8792 24.7351C27.1845 24.5594 27.4376 24.3057 27.6126 24C27.7861 23.6926 27.8763 23.3451 27.8741 22.9921C27.8719 22.6391 27.7774 22.2928 27.6001 21.9875C26.8626 20.7125 25.9751 18.2875 25.9751 14ZM16.0001 28C15.2055 27.9967 14.4443 27.6796 13.8824 27.1177C13.3205 26.5558 13.0034 25.7946 13.0001 25H19.0001C18.9968 25.7946 18.6797 26.5558 18.1178 27.1177C17.5559 27.6796 16.7947 27.9967 16.0001 28ZM28.1126 9.16251C27.9746 9.22395 27.826 9.25791 27.6751 9.26251C27.4871 9.26415 27.3025 9.21209 27.1431 9.11245C26.9837 9.01281 26.856 8.86972 26.7751 8.70001C25.7879 6.71359 24.2746 5.03605 22.4001 3.85001C22.2885 3.78025 22.1917 3.68918 22.1153 3.58201C22.0388 3.47484 21.9843 3.35367 21.9547 3.2254C21.9251 3.09714 21.921 2.96431 21.9428 2.83448C21.9645 2.70466 22.0116 2.58039 22.0813 2.46876C22.1511 2.35714 22.2422 2.26035 22.3494 2.18392C22.4565 2.10749 22.5777 2.05292 22.706 2.02332C22.8342 1.99372 22.9671 1.98968 23.0969 2.01142C23.2267 2.03315 23.351 2.08025 23.4626 2.15001C25.6565 3.5315 27.4225 5.49654 28.5626 7.82501C28.6797 8.06215 28.6981 8.33601 28.6138 8.58668C28.5294 8.83734 28.3492 9.04439 28.1126 9.16251ZM4.3251 9.26251C4.17416 9.25791 4.02555 9.22395 3.8876 9.16251C3.65097 9.04439 3.47077 8.83734 3.38644 8.58668C3.3021 8.33601 3.3205 8.06215 3.4376 7.82501C4.57775 5.49654 6.34369 3.5315 8.5376 2.15001C8.76303 2.00912 9.0352 1.96355 9.29424 2.02332C9.4225 2.05292 9.54368 2.10749 9.65085 2.18392C9.75802 2.26035 9.84908 2.35714 9.91885 2.46876C9.98861 2.58039 10.0357 2.70466 10.0574 2.83448C10.0792 2.96431 10.0751 3.09714 10.0455 3.2254C10.0159 3.35367 9.96137 3.47484 9.88494 3.58201C9.80851 3.68918 9.71172 3.78025 9.6001 3.85001C7.72558 5.03605 6.21233 6.71359 5.2251 8.70001C5.14419 8.86972 5.01652 9.01281 4.85709 9.11245C4.69766 9.21209 4.5131 9.26415 4.3251 9.26251Z" fill="#344054"/>
</svg>
