<svg width="32" height="32" viewBox="0 0 32 32" fill="none" xmlns="http://www.w3.org/2000/svg">
<path d="M24.7626 3.56249C24.3976 3.41092 23.9958 3.37159 23.6084 3.44952C23.221 3.52745 22.8656 3.7191 22.5876 3.99999L9.28759 17.2875L2.00009 24.5875C1.72108 24.8672 1.53115 25.2232 1.45426 25.6108C1.37737 25.9983 1.41697 26.3999 1.56807 26.7649C1.71916 27.1299 1.97498 27.442 2.30325 27.6618C2.63151 27.8817 3.01753 27.9993 3.41259 28H24.0001C24.5305 28 25.0392 27.7893 25.4143 27.4142C25.7894 27.0391 26.0001 26.5304 26.0001 26V5.41249C26.0003 5.01622 25.8828 4.62882 25.6625 4.29944C25.4421 3.97007 25.1289 3.71357 24.7626 3.56249ZM24.0001 26H11.0001V18.4125L24.0001 5.41249V26Z" fill="#344054"/>
</svg>
