<svg width="32" height="32" viewBox="0 0 32 32" fill="none" xmlns="http://www.w3.org/2000/svg">
<path d="M9.2875 9.71251C9.09972 9.52292 8.99437 9.26686 8.99437 9.00001C8.99437 8.73316 9.09972 8.4771 9.2875 8.28751L15.2875 2.28751C15.4771 2.09973 15.7332 1.99438 16 1.99438C16.2668 1.99438 16.5229 2.09973 16.7125 2.28751L22.7125 8.28751C22.9003 8.4771 23.0056 8.73316 23.0056 9.00001C23.0056 9.26686 22.9003 9.52292 22.7125 9.71251C22.5214 9.89733 22.2659 10.0006 22 10.0006C21.7341 10.0006 21.4786 9.89733 21.2875 9.71251L17 5.41251V16C17 16.2652 16.8946 16.5196 16.7071 16.7071C16.5196 16.8947 16.2652 17 16 17C15.7348 17 15.4804 16.8947 15.2929 16.7071C15.1054 16.5196 15 16.2652 15 16V5.41251L10.7125 9.71251C10.5229 9.90029 10.2668 10.0056 10 10.0056C9.73315 10.0056 9.47709 9.90029 9.2875 9.71251ZM30 17V25C30 25.5304 29.7893 26.0392 29.4142 26.4142C29.0391 26.7893 28.5304 27 28 27H4C3.46957 27 2.96086 26.7893 2.58579 26.4142C2.21071 26.0392 2 25.5304 2 25V17C2 16.4696 2.21071 15.9609 2.58579 15.5858C2.96086 15.2107 3.46957 15 4 15H12.5C12.6326 15 12.7598 15.0527 12.8536 15.1465C12.9473 15.2402 13 15.3674 13 15.5V15.9375C13 17.6125 14.375 19.0375 16.0625 19C16.8473 18.9837 17.5944 18.6604 18.1435 18.0995C18.6927 17.5387 19.0002 16.7849 19 16V15.5C19 15.3674 19.0527 15.2402 19.1464 15.1465C19.2402 15.0527 19.3674 15 19.5 15H28C28.5304 15 29.0391 15.2107 29.4142 15.5858C29.7893 15.9609 30 16.4696 30 17ZM25 21C25 20.7033 24.912 20.4133 24.7472 20.1667C24.5824 19.92 24.3481 19.7277 24.074 19.6142C23.7999 19.5007 23.4983 19.471 23.2074 19.5288C22.9164 19.5867 22.6491 19.7296 22.4393 19.9394C22.2296 20.1491 22.0867 20.4164 22.0288 20.7074C21.9709 20.9983 22.0007 21.2999 22.1142 21.574C22.2277 21.8481 22.42 22.0824 22.6666 22.2472C22.9133 22.412 23.2033 22.5 23.5 22.5C23.8978 22.5 24.2794 22.342 24.5607 22.0607C24.842 21.7794 25 21.3978 25 21Z" fill="#344054"/>
</svg>
