<svg width="32" height="32" viewBox="0 0 32 32" fill="none" xmlns="http://www.w3.org/2000/svg">
<path d="M24.7625 3.56249C24.3975 3.41092 23.9957 3.37159 23.6083 3.44952C23.2208 3.52745 22.8654 3.7191 22.5875 3.99999L1.99998 24.5875C1.80786 24.776 1.65656 25.002 1.55549 25.2514C1.45442 25.5009 1.40574 25.7684 1.41248 26.0375C1.41046 26.0878 1.41466 26.1382 1.42498 26.1875C1.43948 26.3853 1.48591 26.5795 1.56248 26.7625C1.73321 27.1746 2.0368 27.5178 2.42498 27.7375L2.54998 27.8125L2.82498 27.9125C3.01487 27.9729 3.21323 28.0024 3.41248 28H24C24.5304 28 25.0391 27.7893 25.4142 27.4142C25.7893 27.0391 26 26.5304 26 26V5.41249C26.0002 5.01622 25.8827 4.62882 25.6624 4.29944C25.442 3.97007 25.1288 3.71357 24.7625 3.56249ZM24 26H21V8.41249L24 5.41249V26Z" fill="#344054"/>
</svg>
