<svg width="32" height="32" viewBox="0 0 32 32" fill="none" xmlns="http://www.w3.org/2000/svg">
<path d="M16 3C13.4288 3 10.9154 3.76244 8.77759 5.1909C6.63975 6.61935 4.97351 8.64968 3.98957 11.0251C3.00563 13.4006 2.74819 16.0144 3.2498 18.5362C3.75141 21.0579 4.98953 23.3743 6.80762 25.1924C8.6257 27.0105 10.9421 28.2486 13.4638 28.7502C15.9856 29.2518 18.5995 28.9944 20.9749 28.0104C23.3503 27.0265 25.3807 25.3603 26.8091 23.2224C28.2376 21.0846 29 18.5712 29 16C28.9934 12.5542 27.6216 9.25145 25.1851 6.81491C22.7486 4.37837 19.4458 3.00661 16 3ZM15 7C15 6.73478 15.1054 6.48043 15.2929 6.29289C15.4804 6.10536 15.7348 6 16 6C16.2652 6 16.5196 6.10536 16.7071 6.29289C16.8946 6.48043 17 6.73478 17 7V14.5C17 14.7652 16.8946 15.0196 16.7071 15.2071C16.5196 15.3946 16.2652 15.5 16 15.5C15.7348 15.5 15.4804 15.3946 15.2929 15.2071C15.1054 15.0196 15 14.7652 15 14.5V7ZM16 26C13.8547 26.0008 11.766 25.3116 10.0424 24.0342C8.31881 22.7569 7.05169 20.9591 6.42817 18.9064C5.80466 16.8537 5.8578 14.6549 6.57976 12.6347C7.30172 10.6145 8.65421 8.88008 10.4375 7.6875C10.658 7.53997 10.928 7.48607 11.1882 7.53764C11.4484 7.58921 11.6775 7.74204 11.825 7.9625C11.9725 8.18296 12.0264 8.453 11.9749 8.7132C11.9233 8.97341 11.7705 9.20247 11.55 9.35C10.119 10.3038 9.03278 11.6927 8.45199 13.3114C7.87121 14.9301 7.82666 16.6928 8.32492 18.3388C8.82318 19.9848 9.83782 21.4268 11.2188 22.4516C12.5999 23.4765 14.274 24.0298 15.9938 24.0298C17.7135 24.0298 19.3876 23.4765 20.7687 22.4516C22.1497 21.4268 23.1643 19.9848 23.6626 18.3388C24.1609 16.6928 24.1163 14.9301 23.5355 13.3114C22.9547 11.6927 21.8685 10.3038 20.4375 9.35C20.2196 9.20037 20.0689 8.97149 20.0175 8.71223C19.9662 8.45298 20.0182 8.18391 20.1625 7.9625C20.2355 7.85332 20.3294 7.75959 20.4386 7.68668C20.5479 7.61377 20.6704 7.5631 20.7993 7.53756C20.9281 7.51202 21.0608 7.51212 21.1896 7.53785C21.3184 7.56357 21.4409 7.61443 21.55 7.6875C23.3324 8.87948 24.6845 10.6128 25.4067 12.6318C26.1289 14.6507 26.1831 16.8484 25.5612 18.9004C24.9392 20.9525 23.6742 22.7503 21.9526 24.0287C20.2311 25.307 18.1443 25.9981 16 26Z" fill="#344054"/>
</svg>
