<svg width="32" height="32" viewBox="0 0 32 32" fill="none" xmlns="http://www.w3.org/2000/svg">
<path d="M23.6 21.2L16.6625 16L19.6 13.8C19.7051 13.7212 19.7936 13.6225 19.8605 13.5095C19.9274 13.3965 19.9714 13.2714 19.99 13.1414C20.0085 13.0114 20.0013 12.879 19.9687 12.7518C19.9361 12.6246 19.8788 12.5051 19.8 12.4C19.6389 12.1906 19.4023 12.0524 19.1407 12.0151C18.8791 11.9777 18.6133 12.0441 18.4 12.2L16 14V6L18.4 7.8C18.6122 7.95913 18.8789 8.02746 19.1414 7.98995C19.404 7.95244 19.6409 7.81217 19.8 7.6C19.9559 7.38669 20.0223 7.12087 19.9849 6.8593C19.9476 6.59772 19.8094 6.36112 19.6 6.2L15.6 3.2C15.4514 3.08857 15.2748 3.02072 15.0898 3.00404C14.9048 2.98736 14.7189 3.02252 14.5528 3.10557C14.3867 3.18863 14.247 3.31629 14.1493 3.47427C14.0517 3.63225 14 3.81429 14 4V14L7.6 9.2C7.38669 9.04407 7.12087 8.9777 6.8593 9.01507C6.59772 9.05244 6.36112 9.19058 6.2 9.4C6.12121 9.50506 6.06388 9.62461 6.03129 9.75182C5.99869 9.87903 5.99148 10.0114 6.01005 10.1414C6.02862 10.2714 6.07262 10.3965 6.13953 10.5095C6.20643 10.6225 6.29494 10.7212 6.4 10.8L13.3375 16L6.4 21.2C6.23209 21.3259 6.10807 21.5015 6.04549 21.7018C5.98291 21.9022 5.98495 22.1171 6.05132 22.3162C6.11769 22.5153 6.24502 22.6885 6.41529 22.8112C6.58556 22.934 6.79012 23 7 23C7.21682 23.0028 7.42824 22.9323 7.6 22.8L14 18V28C14.0015 28.1858 14.0535 28.3676 14.1504 28.5262C14.2472 28.6847 14.3854 28.8139 14.55 28.9C14.6919 28.9627 14.8449 28.9967 15 29C15.2168 29.0028 15.4282 28.9323 15.6 28.8L23.6 22.8C23.7242 22.7069 23.825 22.5861 23.8944 22.4472C23.9639 22.3084 24 22.1552 24 22C24 21.8448 23.9639 21.6916 23.8944 21.5528C23.825 21.4139 23.7242 21.2931 23.6 21.2ZM16 26V18L21.3375 22L16 26Z" fill="#344054"/>
<path d="M27.4125 9.99999L29.7125 7.71249C29.872 7.5182 29.9535 7.27153 29.9411 7.02048C29.9288 6.76943 29.8235 6.53194 29.6458 6.3542C29.4681 6.17647 29.2306 6.0712 28.9795 6.05887C28.7285 6.04654 28.4818 6.12803 28.2875 6.28749L26 8.58749L23.7125 6.28749C23.5182 6.12803 23.2716 6.04654 23.0205 6.05887C22.7694 6.0712 22.532 6.17647 22.3542 6.3542C22.1765 6.53194 22.0712 6.76943 22.0589 7.02048C22.0466 7.27153 22.128 7.5182 22.2875 7.71249L24.5875 9.99999L22.2875 12.2875C22.0997 12.4771 21.9944 12.7331 21.9944 13C21.9944 13.2668 22.0997 13.5229 22.2875 13.7125C22.4787 13.8973 22.7341 14.0006 23 14.0006C23.2659 14.0006 23.5214 13.8973 23.7125 13.7125L26 11.4125L28.2875 13.7125C28.4787 13.8973 28.7341 14.0006 29 14.0006C29.2659 14.0006 29.5214 13.8973 29.7125 13.7125C29.9003 13.5229 30.0056 13.2668 30.0056 13C30.0056 12.7331 29.9003 12.4771 29.7125 12.2875L27.4125 9.99999Z" fill="#344054"/>
</svg>
