<svg width="32" height="32" viewBox="0 0 32 32" fill="none" xmlns="http://www.w3.org/2000/svg">
<path d="M17.7125 16.7125L12.4625 21.9625C12.2705 22.146 12.0155 22.2489 11.75 22.25C11.6212 22.2503 11.4937 22.2248 11.375 22.175C11.1907 22.1004 11.0327 21.9726 10.9214 21.8078C10.8101 21.6431 10.7504 21.4489 10.75 21.25V17H3C2.73478 17 2.48043 16.8946 2.29289 16.7071C2.10536 16.5196 2 16.2652 2 16C2 15.7348 2.10536 15.4804 2.29289 15.2929C2.48043 15.1054 2.73478 15 3 15H10.75V10.75C10.7504 10.5511 10.8101 10.3569 10.9214 10.1922C11.0327 10.0274 11.1907 9.89957 11.375 9.825C11.5576 9.75248 11.7571 9.73396 11.9499 9.77163C12.1427 9.80931 12.3207 9.90159 12.4625 10.0375L17.7125 15.2875C17.9003 15.4771 18.0056 15.7332 18.0056 16C18.0056 16.2668 17.9003 16.5229 17.7125 16.7125ZM24 4H17C16.7348 4 16.4804 4.10536 16.2929 4.29289C16.1054 4.48043 16 4.73478 16 5C16 5.26522 16.1054 5.51957 16.2929 5.70711C16.4804 5.89464 16.7348 6 17 6H24V26H17C16.7348 26 16.4804 26.1054 16.2929 26.2929C16.1054 26.4804 16 26.7348 16 27C16 27.2652 16.1054 27.5196 16.2929 27.7071C16.4804 27.8946 16.7348 28 17 28H24C24.5304 28 25.0391 27.7893 25.4142 27.4142C25.7893 27.0391 26 26.5304 26 26V6C26 5.46957 25.7893 4.96086 25.4142 4.58579C25.0391 4.21071 24.5304 4 24 4Z" fill="#344054"/>
</svg>
