<svg width="32" height="32" viewBox="0 0 32 32" fill="none" xmlns="http://www.w3.org/2000/svg">
<path d="M26.2501 5.75C25.6483 5.14416 24.9326 4.66335 24.1442 4.33525C23.3558 4.00715 22.5103 3.83823 21.6563 3.83823C20.8024 3.83823 19.9569 4.00715 19.1685 4.33525C18.3801 4.66335 17.6644 5.14416 17.0626 5.75L14.5876 8.225C14.4152 8.41523 14.3226 8.66445 14.3289 8.92107C14.3353 9.17768 14.44 9.42205 14.6215 9.60356C14.803 9.78507 15.0474 9.88983 15.304 9.89615C15.5606 9.90247 15.8099 9.80986 16.0001 9.6375L18.4751 7.1625C19.3205 6.32208 20.4642 5.85036 21.6563 5.85036C22.8484 5.85036 23.9921 6.32208 24.8376 7.1625C25.2567 7.5795 25.5893 8.07521 25.8163 8.62116C26.0432 9.1671 26.1601 9.75251 26.1601 10.3438C26.1601 10.935 26.0432 11.5204 25.8163 12.0663C25.5893 12.6123 25.2567 13.108 24.8376 13.525L21.3001 17.0625C20.4546 17.9029 19.3109 18.3746 18.1188 18.3746C16.9267 18.3746 15.783 17.9029 14.9376 17.0625C14.8466 16.9621 14.7362 16.8813 14.6131 16.8248C14.4899 16.7684 14.3566 16.7376 14.2211 16.7343C14.0857 16.7309 13.951 16.7551 13.8252 16.8054C13.6995 16.8557 13.5852 16.9311 13.4894 17.0268C13.3936 17.1226 13.3183 17.2369 13.268 17.3627C13.2177 17.4884 13.1935 17.6231 13.1968 17.7586C13.2002 17.894 13.231 18.0273 13.2874 18.1505C13.3438 18.2736 13.4247 18.384 13.5251 18.475C14.7439 19.6925 16.3961 20.3764 18.1188 20.3764C19.8415 20.3764 21.4938 19.6925 22.7126 18.475L26.2501 14.9375C26.8559 14.3357 27.3367 13.62 27.6648 12.8316C27.9929 12.0432 28.1618 11.1977 28.1618 10.3438C28.1618 9.48981 27.9929 8.6443 27.6648 7.85591C27.3367 7.06752 26.8559 6.35181 26.2501 5.75Z" fill="#344054"/>
<path d="M16 22.3625L13.525 24.8375C12.6752 25.6516 11.5404 26.1004 10.3637 26.0878C9.18698 26.0752 8.06202 25.6022 7.22992 24.7701C6.39781 23.9379 5.92476 22.813 5.91216 21.6363C5.89955 20.4596 6.34838 19.3247 7.16247 18.475L10.7 14.9375C11.5454 14.0971 12.6891 13.6254 13.8812 13.6254C15.0733 13.6254 16.217 14.0971 17.0625 14.9375C17.2527 15.1099 17.5019 15.2025 17.7585 15.1961C18.0152 15.1898 18.2595 15.0851 18.441 14.9036C18.6225 14.722 18.7273 14.4777 18.7336 14.2211C18.7399 13.9644 18.6473 13.7152 18.475 13.525C17.2562 12.3075 15.6039 11.6236 13.8812 11.6236C12.1585 11.6236 10.5063 12.3075 9.28747 13.525L5.74997 17.0625C5.11401 17.6583 4.60434 18.3758 4.25126 19.1726C3.89819 19.9693 3.70892 20.8288 3.69471 21.7001C3.6805 22.5715 3.84164 23.4367 4.16855 24.2445C4.49546 25.0523 4.98146 25.7861 5.59765 26.4023C6.21385 27.0185 6.94766 27.5045 7.75545 27.8314C8.56324 28.1583 9.42852 28.3195 10.2998 28.3053C11.1712 28.291 12.0307 28.1018 12.8274 27.7487C13.6241 27.3956 14.3417 26.886 14.9375 26.25L17.4125 23.775C17.5848 23.5848 17.6774 23.3356 17.6711 23.0789C17.6648 22.8223 17.56 22.578 17.3785 22.3964C17.197 22.2149 16.9527 22.1102 16.696 22.1039C16.4394 22.0975 16.1902 22.1901 16 22.3625Z" fill="#344054"/>
</svg>
