<svg width="32" height="32" viewBox="0 0 32 32" fill="none" xmlns="http://www.w3.org/2000/svg">
<path d="M6.7375 4.32501C6.55683 4.136 6.30933 4.02526 6.048 4.01653C5.78668 4.0078 5.53234 4.10177 5.33946 4.2783C5.14658 4.45484 5.03052 4.69989 5.01613 4.96096C5.00175 5.22203 5.09019 5.47835 5.2625 5.67501L10.1625 11.0625V11.0875C9.77796 11.0273 9.38922 10.998 9 11C6.87827 11 4.84344 11.8429 3.34315 13.3432C1.84285 14.8434 1 16.8783 1 19C1 21.1217 1.84285 23.1566 3.34315 24.6569C4.84344 26.1572 6.87827 27 9 27H20C21.3592 27.0022 22.707 26.7521 23.975 26.2625L25.2625 27.675C25.3562 27.7774 25.4701 27.8591 25.5971 27.9151C25.724 27.971 25.8612 28 26 28C26.2494 27.9976 26.4894 27.9042 26.675 27.7375C26.7733 27.6498 26.853 27.5433 26.9095 27.4242C26.966 27.3052 26.9981 27.1761 27.004 27.0444C27.0098 26.9128 26.9892 26.7813 26.9435 26.6578C26.8977 26.5342 26.8277 26.4211 26.7375 26.325L6.7375 4.32501Z" fill="#344054"/>
<path d="M19.9999 4.99999C17.6557 4.99365 15.3719 5.74322 13.4874 7.13749C13.3753 7.21947 13.2817 7.32419 13.2127 7.44481C13.1438 7.56544 13.1011 7.69924 13.0874 7.83749C13.0708 7.97706 13.0845 8.11858 13.1277 8.25234C13.1708 8.38611 13.2424 8.50897 13.3374 8.61249L26.7249 23.3375C26.8191 23.4393 26.9331 23.5206 27.06 23.5765C27.1868 23.6324 27.3238 23.6617 27.4624 23.6625C27.6024 23.6625 27.7407 23.6323 27.8679 23.5741C27.9952 23.5158 28.1084 23.4309 28.1999 23.325C29.613 21.7419 30.538 19.7839 30.8634 17.6871C31.1889 15.5902 30.9009 13.444 30.0342 11.5071C29.1675 9.57016 27.759 7.92529 25.9786 6.77074C24.1982 5.61618 22.1219 5.00122 19.9999 4.99999Z" fill="#344054"/>
</svg>
