<svg width="32" height="32" viewBox="0 0 32 32" fill="none" xmlns="http://www.w3.org/2000/svg">
<path d="M29.7125 3.71249L26.4125 6.99999L27.0875 7.67499C27.4594 8.04546 27.7545 8.48572 27.9558 8.9705C28.1572 9.45529 28.2608 9.97506 28.2608 10.5C28.2608 11.0249 28.1572 11.5447 27.9558 12.0295C27.7545 12.5143 27.4594 12.9545 27.0875 13.325L23.9125 16.5L24.2125 16.7875C24.4003 16.9771 24.5056 17.2331 24.5056 17.5C24.5056 17.7668 24.4003 18.0229 24.2125 18.2125C24.0214 18.3973 23.7659 18.5006 23.5 18.5006C23.2341 18.5006 22.9786 18.3973 22.7875 18.2125L21.7875 17.2125L14.7875 10.2125L13.7875 9.21249C13.628 9.0182 13.5466 8.77153 13.5589 8.52048C13.5712 8.26943 13.6765 8.03194 13.8542 7.8542C14.032 7.67647 14.2694 7.5712 14.5205 7.55887C14.7716 7.54654 15.0182 7.62803 15.2125 7.78749L15.5 8.08749L18.675 4.91249C19.0455 4.54059 19.4857 4.24551 19.9705 4.04416C20.4553 3.84281 20.9751 3.73916 21.5 3.73916C22.0249 3.73916 22.5447 3.84281 23.0295 4.04416C23.5143 4.24551 23.9545 4.54059 24.325 4.91249L25 5.58749L28.2875 2.28749C28.4818 2.12803 28.7285 2.04654 28.9795 2.05887C29.2306 2.0712 29.4681 2.17647 29.6458 2.3542C29.8235 2.53194 29.9288 2.76943 29.9411 3.02048C29.9535 3.27153 29.872 3.5182 29.7125 3.71249ZM17.2875 17.2875L15 19.5875L12.4125 17L14.7125 14.7125C14.872 14.5182 14.9535 14.2715 14.9411 14.0205C14.9288 13.7694 14.8235 13.5319 14.6458 13.3542C14.4681 13.1765 14.2306 13.0712 13.9795 13.0589C13.7285 13.0465 13.4818 13.128 13.2875 13.2875L11 15.5875L10.2125 14.7875L9.21251 13.7875C9.01821 13.628 8.77155 13.5465 8.5205 13.5589C8.26945 13.5712 8.03196 13.6765 7.85422 13.8542C7.67649 14.0319 7.57122 14.2694 7.55889 14.5205C7.54656 14.7715 7.62805 15.0182 7.78751 15.2125L8.08751 15.5L4.91251 18.675C4.54061 19.0455 4.24552 19.4857 4.04417 19.9705C3.84282 20.4553 3.73918 20.9751 3.73918 21.5C3.73918 22.0249 3.84282 22.5447 4.04417 23.0295C4.24552 23.5143 4.54061 23.9545 4.91251 24.325L5.58751 25L2.28751 28.2875C2.09973 28.4771 1.99438 28.7331 1.99438 29C1.99438 29.2668 2.09973 29.5229 2.28751 29.7125C2.47865 29.8973 2.73413 30.0006 3.00001 30.0006C3.26589 30.0006 3.52137 29.8973 3.71251 29.7125L7.00001 26.4125L7.67501 27.0875C8.04548 27.4594 8.48574 27.7545 8.97052 27.9558C9.45531 28.1572 9.97507 28.2608 10.5 28.2608C11.0249 28.2608 11.5447 28.1572 12.0295 27.9558C12.5143 27.7545 12.9545 27.4594 13.325 27.0875L16.5 23.9125L16.7875 24.2125C16.9787 24.3973 17.2341 24.5006 17.5 24.5006C17.7659 24.5006 18.0214 24.3973 18.2125 24.2125C18.4003 24.0229 18.5056 23.7668 18.5056 23.5C18.5056 23.2331 18.4003 22.9771 18.2125 22.7875L17.2125 21.7875L16.4125 21L18.7125 18.7125C18.872 18.5182 18.9535 18.2715 18.9411 18.0205C18.9288 17.7694 18.8235 17.5319 18.6458 17.3542C18.4681 17.1765 18.2306 17.0712 17.9795 17.0589C17.7285 17.0465 17.4818 17.128 17.2875 17.2875Z" fill="#344054"/>
</svg>
