<svg width="32" height="32" viewBox="0 0 32 32" fill="none" xmlns="http://www.w3.org/2000/svg">
<path d="M23.0001 2H9.00007C8.46964 2 7.96093 2.21071 7.58586 2.58579C7.21079 2.96086 7.00007 3.46957 7.00007 4V9.6625C6.99636 10.0958 7.1371 10.5181 7.40007 10.8625L10.0001 14.3375V28C10.0001 28.5304 10.2108 29.0391 10.5859 29.4142C10.9609 29.7893 11.4696 30 12.0001 30H20.0001C20.5305 30 21.0392 29.7893 21.4143 29.4142C21.7894 29.0391 22.0001 28.5304 22.0001 28V14.3375L24.6001 10.8625C24.863 10.5181 25.0038 10.0958 25.0001 9.6625V4C25.0001 3.46957 24.7894 2.96086 24.4143 2.58579C24.0392 2.21071 23.5305 2 23.0001 2ZM17.0001 19C17.0001 19.2652 16.8947 19.5196 16.7072 19.7071C16.5196 19.8946 16.2653 20 16.0001 20C15.7349 20 15.4805 19.8946 15.293 19.7071C15.1054 19.5196 15.0001 19.2652 15.0001 19V15C15.0001 14.7348 15.1054 14.4804 15.293 14.2929C15.4805 14.1054 15.7349 14 16.0001 14C16.2653 14 16.5196 14.1054 16.7072 14.2929C16.8947 14.4804 17.0001 14.7348 17.0001 15V19ZM9.00007 7V4H23.0001V7H9.00007Z" fill="#344054"/>
</svg>
