<svg width="32" height="32" viewBox="0 0 32 32" fill="none" xmlns="http://www.w3.org/2000/svg">
<path d="M30.8501 10.0625C30.8231 9.79215 30.7403 9.53034 30.6069 9.29365C30.4735 9.05697 30.2924 8.85056 30.0751 8.6875C21.7876 2.4375 10.2126 2.4375 1.92511 8.6875C1.70994 8.85264 1.53037 9.05956 1.39719 9.29585C1.26401 9.53214 1.17996 9.79291 1.15011 10.0625C1.12121 10.3366 1.14722 10.6138 1.22663 10.8778C1.30604 11.1418 1.43725 11.3873 1.61261 11.6L14.4751 26.75C14.6179 26.9176 14.7867 27.0611 14.9751 27.175C15.2835 27.364 15.6384 27.4636 16.0001 27.4625C16.5084 27.4625 16.9968 27.2653 17.3626 26.9125C17.4187 26.869 17.4691 26.8186 17.5126 26.7625L30.3876 11.5875C30.5651 11.3786 30.6977 11.1354 30.7773 10.8731C30.8569 10.6107 30.8816 10.3348 30.8501 10.0625ZM28.8626 10.3L22.9751 17.2375C20.9406 15.7819 18.5017 14.9993 16.0001 14.9993C13.4985 14.9993 11.0596 15.7819 9.02511 17.2375L3.13761 10.3C10.7126 4.5875 21.3001 4.5875 28.8626 10.3Z" fill="#344054"/>
</svg>
