<svg width="32" height="32" viewBox="0 0 32 32" fill="none" xmlns="http://www.w3.org/2000/svg">
<path d="M26.7375 26.325C26.8276 26.4211 26.8977 26.5342 26.9434 26.6578C26.9892 26.7813 27.0098 26.9128 27.004 27.0444C26.9981 27.1761 26.966 27.3052 26.9095 27.4242C26.853 27.5433 26.7733 27.6498 26.675 27.7375C26.4894 27.9042 26.2494 27.9976 26 28C25.8612 28 25.724 27.971 25.597 27.9151C25.4701 27.8591 25.3561 27.7774 25.2625 27.675L22.825 25H6.12498C5.77266 25 5.42659 24.907 5.12177 24.7303C4.81696 24.5536 4.56423 24.2996 4.38916 23.9938C4.21408 23.6881 4.12288 23.3415 4.12478 22.9892C4.12669 22.6369 4.22162 22.2913 4.39998 21.9875C5.13748 20.7125 6.02498 18.2875 6.02498 14V13C6.02328 11.2408 6.48456 9.51204 7.36248 7.98751L5.26248 5.67501C5.09017 5.47835 5.00173 5.22203 5.01611 4.96096C5.0305 4.69989 5.14656 4.45484 5.33944 4.2783C5.53232 4.10177 5.78667 4.0078 6.04799 4.01653C6.30931 4.02526 6.55682 4.136 6.73748 4.32501L26.7375 26.325ZM20 27H12C11.7348 27 11.4804 27.1054 11.2929 27.2929C11.1053 27.4804 11 27.7348 11 28C11 28.2652 11.1053 28.5196 11.2929 28.7071C11.4804 28.8946 11.7348 29 12 29H20C20.2652 29 20.5196 28.8946 20.7071 28.7071C20.8946 28.5196 21 28.2652 21 28C21 27.7348 20.8946 27.4804 20.7071 27.2929C20.5196 27.1054 20.2652 27 20 27ZM25.3625 21.8375C25.4561 21.9399 25.5701 22.0216 25.697 22.0776C25.824 22.1335 25.9612 22.1625 26.1 22.1625C26.2856 22.1628 26.4676 22.1109 26.625 22.0125C26.8247 21.8906 26.9754 21.7025 27.0508 21.481C27.1262 21.2594 27.1215 21.0184 27.0375 20.8C26.3375 19.025 25.975 16.725 25.975 14V13.1125C25.975 7.57501 21.5375 3.03751 16.075 3.00001C14.3191 2.98689 12.5906 3.43518 11.0625 4.30001C10.9332 4.37481 10.8222 4.47764 10.7379 4.60094C10.6535 4.72424 10.5979 4.86487 10.575 5.01251C10.5523 5.1619 10.563 5.31445 10.6062 5.45924C10.6495 5.60402 10.7242 5.73746 10.825 5.85001L25.3625 21.8375Z" fill="#344054"/>
</svg>
