<svg width="32" height="32" viewBox="0 0 32 32" fill="none" xmlns="http://www.w3.org/2000/svg">
<path d="M18.5 3H13.5C11.3793 3.00331 9.34637 3.84722 7.8468 5.3468C6.34722 6.84637 5.50331 8.87928 5.5 11V21C5.50331 23.1207 6.34722 25.1536 7.8468 26.6532C9.34637 28.1528 11.3793 28.9967 13.5 29H18.5C20.6207 28.9967 22.6536 28.1528 24.1532 26.6532C25.6528 25.1536 26.4967 23.1207 26.5 21V11C26.4967 8.87928 25.6528 6.84637 24.1532 5.3468C22.6536 3.84722 20.6207 3.00331 18.5 3ZM24.5 11V13H17V5H18.5C20.0913 5 21.6174 5.63214 22.7426 6.75736C23.8679 7.88258 24.5 9.4087 24.5 11ZM13.5 5H15V13H7.5V11C7.5 9.4087 8.13214 7.88258 9.25736 6.75736C10.3826 5.63214 11.9087 5 13.5 5Z" fill="#344054"/>
</svg>
