<svg width="32" height="32" viewBox="0 0 32 32" fill="none" xmlns="http://www.w3.org/2000/svg">
<path d="M24.0001 28H3.41259C3.01753 27.9993 2.63151 27.8817 2.30325 27.6619C1.97498 27.442 1.71916 27.1299 1.56807 26.7649C1.41697 26.3999 1.37737 25.9983 1.45426 25.6108C1.53115 25.2233 1.72108 24.8672 2.00009 24.5875L22.5876 4C22.8673 3.72099 23.2233 3.53106 23.6109 3.45417C23.9984 3.37728 24.4 3.41688 24.765 3.56797C25.13 3.71907 25.4421 3.97488 25.6619 4.30315C25.8818 4.63142 25.9994 5.01744 26.0001 5.4125V26C26.0001 26.5304 25.7894 27.0391 25.4143 27.4142C25.0392 27.7893 24.5305 28 24.0001 28ZM3.41259 26H24.0001V5.4125L3.41259 26Z" fill="#344054"/>
</svg>
