<svg width="32" height="32" viewBox="0 0 32 32" fill="none" xmlns="http://www.w3.org/2000/svg">
<path d="M32 21C32 21.2652 31.8947 21.5196 31.7071 21.7071C31.5196 21.8946 31.2652 22 31 22H1.00003C0.734811 22 0.480457 21.8946 0.292921 21.7071C0.105384 21.5196 2.72697e-05 21.2652 2.72697e-05 21C-0.000668394 20.9029 0.0119491 20.8062 0.0375273 20.7125H0.0500273L2.82503 11.425C2.94913 11.0115 3.20368 10.6493 3.55064 10.3925C3.8976 10.1356 4.31835 9.99796 4.75003 9.99999H15.25C15.6817 9.99796 16.1025 10.1356 16.4494 10.3925C16.7964 10.6493 17.0509 11.0115 17.175 11.425L19.75 20H23.65L21.25 12H20C19.7348 12 19.4805 11.8946 19.2929 11.7071C19.1054 11.5196 19 11.2652 19 11C19 10.7348 19.1054 10.4804 19.2929 10.2929C19.4805 10.1053 19.7348 9.99999 20 9.99999H21.25C21.6817 9.99796 22.1025 10.1356 22.4494 10.3925C22.7964 10.6493 23.0509 11.0115 23.175 11.425L25.75 20H29.65L27.25 12H26C25.7348 12 25.4805 11.8946 25.2929 11.7071C25.1054 11.5196 25 11.2652 25 11C25 10.7348 25.1054 10.4804 25.2929 10.2929C25.4805 10.1053 25.7348 9.99999 26 9.99999H27.25C27.6817 9.99796 28.1025 10.1356 28.4494 10.3925C28.7964 10.6493 29.0509 11.0115 29.175 11.425L31.95 20.7H31.9625C31.9893 20.7977 32.0019 20.8987 32 21Z" fill="#344054"/>
</svg>
