<svg width="32" height="32" viewBox="0 0 32 32" fill="none" xmlns="http://www.w3.org/2000/svg">
<path d="M13 24C12.7349 23.9964 12.4808 23.8938 12.2875 23.7125L5.28746 16.7125C5.128 16.5182 5.04651 16.2715 5.05884 16.0205C5.07117 15.7694 5.17644 15.5319 5.35417 15.3542C5.53191 15.1765 5.7694 15.0712 6.02045 15.0589C6.2715 15.0465 6.51817 15.128 6.71246 15.2875L13 21.5875L26.2875 8.28749C26.4818 8.12803 26.7284 8.04654 26.9795 8.05887C27.2305 8.0712 27.468 8.17647 27.6458 8.3542C27.8235 8.53194 27.9288 8.76943 27.9411 9.02048C27.9534 9.27153 27.8719 9.5182 27.7125 9.71249L13.7125 23.7125C13.5191 23.8938 13.265 23.9964 13 24Z" fill="#344054"/>
</svg>
