<svg width="32" height="32" viewBox="0 0 32 32" fill="none" xmlns="http://www.w3.org/2000/svg">
<path d="M9.825 10.625C9.75248 10.4424 9.73396 10.2429 9.77163 10.0501C9.80931 9.85727 9.90159 9.67936 10.0375 9.53751L15.2875 4.28751C15.4771 4.09973 15.7332 3.99438 16 3.99438C16.2668 3.99438 16.5229 4.09973 16.7125 4.28751L21.9625 9.53751C22.0984 9.67936 22.1907 9.85727 22.2284 10.0501C22.266 10.2429 22.2475 10.4424 22.175 10.625C22.1004 10.8094 21.9726 10.9673 21.8078 11.0786C21.6431 11.1899 21.4489 11.2496 21.25 11.25H17V19C17 19.2652 16.8946 19.5196 16.7071 19.7071C16.5196 19.8947 16.2652 20 16 20C15.7348 20 15.4804 19.8947 15.2929 19.7071C15.1054 19.5196 15 19.2652 15 19V11.25H10.75C10.5511 11.2496 10.3569 11.1899 10.1922 11.0786C10.0274 10.9673 9.89957 10.8094 9.825 10.625ZM27 18C26.7348 18 26.4804 18.1054 26.2929 18.2929C26.1054 18.4804 26 18.7348 26 19V26H6V19C6 18.7348 5.89464 18.4804 5.70711 18.2929C5.51957 18.1054 5.26522 18 5 18C4.73478 18 4.48043 18.1054 4.29289 18.2929C4.10536 18.4804 4 18.7348 4 19V26C4 26.5304 4.21071 27.0392 4.58579 27.4142C4.96086 27.7893 5.46957 28 6 28H26C26.5304 28 27.0391 27.7893 27.4142 27.4142C27.7893 27.0392 28 26.5304 28 26V19C28 18.7348 27.8946 18.4804 27.7071 18.2929C27.5196 18.1054 27.2652 18 27 18Z" fill="#344054"/>
</svg>
