<svg width="32" height="32" viewBox="0 0 32 32" fill="none" xmlns="http://www.w3.org/2000/svg">
<path d="M29.3501 18.8L27.4876 16.325C27.5001 16.1 27.4876 15.8625 27.4876 15.6875L29.3501 13.2C29.4427 13.0789 29.5057 12.9379 29.5339 12.7881C29.5621 12.6383 29.5548 12.484 29.5126 12.3375C29.1976 11.1851 28.7399 10.0765 28.1501 9.0375C28.074 8.90552 27.9695 8.79216 27.844 8.70567C27.7186 8.61917 27.5755 8.56173 27.4251 8.5375L24.3626 8.1L23.9001 7.6375L23.4626 4.575C23.4382 4.42624 23.382 4.28449 23.2978 4.15939C23.2137 4.03429 23.1036 3.92877 22.9751 3.85C21.9307 3.2624 20.8182 2.80483 19.6626 2.4875C19.5161 2.44528 19.3618 2.43799 19.212 2.46621C19.0623 2.49443 18.9212 2.55738 18.8001 2.65L16.3251 4.5H15.6751L13.2001 2.65C13.0791 2.55738 12.938 2.49443 12.7882 2.46621C12.6384 2.43799 12.4841 2.44528 12.3376 2.4875C11.1852 2.80253 10.0766 3.26023 9.03761 3.85C8.90563 3.92609 8.79226 4.03065 8.70577 4.15606C8.61928 4.28148 8.56183 4.42459 8.53761 4.575L8.10011 7.6375L7.63761 8.1L4.57511 8.5375C4.4247 8.56173 4.28158 8.61917 4.15617 8.70567C4.03076 8.79216 3.9262 8.90552 3.85011 9.0375C3.26034 10.0765 2.80263 11.1851 2.48761 12.3375C2.44539 12.484 2.4381 12.6383 2.46632 12.7881C2.49454 12.9379 2.55749 13.0789 2.65011 13.2L4.51261 15.675V16.3125L2.65011 18.8C2.55749 18.9211 2.49454 19.0621 2.46632 19.2119C2.4381 19.3617 2.44539 19.516 2.48761 19.6625C2.80263 20.8149 3.26034 21.9235 3.85011 22.9625C3.9262 23.0945 4.03076 23.2078 4.15617 23.2943C4.28158 23.3808 4.4247 23.4383 4.57511 23.4625L7.63761 23.9L8.10011 24.3625L8.53761 27.425C8.56183 27.5754 8.61928 27.7185 8.70577 27.8439C8.79226 27.9694 8.90563 28.0739 9.03761 28.15C10.0766 28.7398 11.1852 29.1975 12.3376 29.5125C12.4229 29.5372 12.5113 29.5498 12.6001 29.55C12.8169 29.5528 13.0283 29.4823 13.2001 29.35L15.6751 27.5H16.3251L18.8001 29.35C18.9212 29.4426 19.0623 29.5056 19.212 29.5338C19.3618 29.562 19.5161 29.5547 19.6626 29.5125C20.8158 29.1997 21.9247 28.7419 22.9626 28.15C23.0946 28.0739 23.2079 27.9694 23.2944 27.8439C23.3809 27.7185 23.4384 27.5754 23.4626 27.425L23.9001 24.35C24.0501 24.2 24.2251 24.0375 24.3501 23.9L27.4251 23.4625C27.5755 23.4383 27.7186 23.3808 27.844 23.2943C27.9695 23.2078 28.074 23.0945 28.1501 22.9625C28.7399 21.9235 29.1976 20.8149 29.5126 19.6625C29.5548 19.516 29.5621 19.3617 29.5339 19.2119C29.5057 19.0621 29.4427 18.9211 29.3501 18.8ZM16.0001 21.5C14.9123 21.5 13.8489 21.1774 12.9445 20.5731C12.04 19.9687 11.3351 19.1098 10.9188 18.1048C10.5025 17.0998 10.3936 15.9939 10.6058 14.927C10.818 13.8601 11.3418 12.8801 12.111 12.1109C12.8802 11.3417 13.8602 10.8179 14.9271 10.6057C15.994 10.3935 17.0999 10.5024 18.1049 10.9187C19.1099 11.3349 19.9688 12.0399 20.5732 12.9444C21.1775 13.8488 21.5001 14.9122 21.5001 16C21.5001 17.4587 20.9206 18.8576 19.8892 19.8891C18.8577 20.9205 17.4588 21.5 16.0001 21.5Z" fill="#344054"/>
</svg>
