<svg width="32" height="32" viewBox="0 0 32 32" fill="none" xmlns="http://www.w3.org/2000/svg">
<path d="M16.1876 11.75C16.013 11.5588 15.9194 11.3075 15.9264 11.0487C15.9334 10.7899 16.0405 10.544 16.2251 10.3625L22.5876 4C22.8673 3.72099 23.2233 3.53106 23.6109 3.45417C23.9984 3.37728 24.4 3.41688 24.765 3.56797C25.13 3.71907 25.4421 3.97488 25.6619 4.30315C25.8818 4.63142 25.9994 5.01744 26.0001 5.4125V19.95C26.0012 20.1524 25.9409 20.3504 25.827 20.5178C25.7132 20.6852 25.5513 20.8141 25.3626 20.8875C25.2472 20.9324 25.1239 20.9536 25.0001 20.95C24.8612 20.9507 24.7238 20.9222 24.5967 20.8662C24.4696 20.8102 24.3558 20.728 24.2626 20.625L16.1876 11.75ZM26.7376 26.325L6.73759 4.325C6.55854 4.12946 6.30916 4.01303 6.04428 4.00131C5.77941 3.98959 5.52072 4.08354 5.32509 4.2625C5.2268 4.35024 5.14705 4.45676 5.09055 4.57579C5.03405 4.69482 5.00195 4.82395 4.99612 4.95558C4.9903 5.08721 5.01087 5.21867 5.05664 5.34223C5.1024 5.46578 5.17243 5.57893 5.26259 5.675L12.7126 13.875L2.00009 24.5875C1.72108 24.8672 1.53115 25.2233 1.45426 25.6108C1.37737 25.9983 1.41697 26.3999 1.56807 26.7649C1.71916 27.1299 1.97498 27.442 2.30325 27.6619C2.63151 27.8817 3.01753 27.9993 3.41259 28H26.0001C26.2495 27.9976 26.4895 27.9042 26.6751 27.7375C26.8706 27.5584 26.9871 27.3091 26.9988 27.0442C27.0105 26.7793 26.9166 26.5206 26.7376 26.325Z" fill="#344054"/>
</svg>
