<svg width="32" height="32" viewBox="0 0 32 32" fill="none" xmlns="http://www.w3.org/2000/svg">
<path d="M29 16C29 13.4288 28.2376 10.9154 26.8091 8.77759C25.3807 6.63975 23.3503 4.9735 20.9749 3.98956C18.5995 3.00563 15.9856 2.74818 13.4638 3.24979C10.9421 3.7514 8.6257 4.98953 6.80762 6.80761C4.98953 8.62569 3.75141 10.9421 3.2498 13.4638C2.74819 15.9856 3.00563 18.5994 3.98957 20.9749C4.97351 23.3503 6.63975 25.3806 8.77759 26.8091C10.9154 28.2376 13.4288 29 16 29C19.4458 28.9934 22.7486 27.6216 25.1851 25.1851C27.6216 22.7485 28.9934 19.4458 29 16ZM14.5 10C14.5 9.70333 14.588 9.41332 14.7528 9.16664C14.9176 8.91997 15.1519 8.72771 15.426 8.61418C15.7001 8.50065 16.0017 8.47094 16.2926 8.52882C16.5836 8.5867 16.8509 8.72956 17.0607 8.93934C17.2704 9.14912 17.4133 9.41639 17.4712 9.70736C17.5291 9.99833 17.4994 10.2999 17.3858 10.574C17.2723 10.8481 17.08 11.0824 16.8334 11.2472C16.5867 11.412 16.2967 11.5 16 11.5C15.6022 11.5 15.2206 11.342 14.9393 11.0607C14.658 10.7794 14.5 10.3978 14.5 10ZM14.5 16C14.5 15.7033 14.588 15.4133 14.7528 15.1666C14.9176 14.92 15.1519 14.7277 15.426 14.6142C15.7001 14.5006 16.0017 14.4709 16.2926 14.5288C16.5836 14.5867 16.8509 14.7296 17.0607 14.9393C17.2704 15.1491 17.4133 15.4164 17.4712 15.7074C17.5291 15.9983 17.4994 16.2999 17.3858 16.574C17.2723 16.8481 17.08 17.0824 16.8334 17.2472C16.5867 17.412 16.2967 17.5 16 17.5C15.6022 17.5 15.2206 17.342 14.9393 17.0607C14.658 16.7794 14.5 16.3978 14.5 16ZM14.5 22C14.5 21.7033 14.588 21.4133 14.7528 21.1666C14.9176 20.92 15.1519 20.7277 15.426 20.6142C15.7001 20.5006 16.0017 20.4709 16.2926 20.5288C16.5836 20.5867 16.8509 20.7296 17.0607 20.9393C17.2704 21.1491 17.4133 21.4164 17.4712 21.7074C17.5291 21.9983 17.4994 22.2999 17.3858 22.574C17.2723 22.8481 17.08 23.0824 16.8334 23.2472C16.5867 23.412 16.2967 23.5 16 23.5C15.6022 23.5 15.2206 23.342 14.9393 23.0607C14.658 22.7794 14.5 22.3978 14.5 22Z" fill="#344054"/>
</svg>
