<svg width="32" height="32" viewBox="0 0 32 32" fill="none" xmlns="http://www.w3.org/2000/svg">
<path d="M28.6751 12.2625C28.8596 12.4421 28.9697 12.6845 28.9836 12.9416C28.9975 13.1987 28.9141 13.4516 28.7501 13.65C28.6584 13.7598 28.5437 13.8481 28.4141 13.9085C28.2845 13.969 28.1431 14.0003 28.0001 14C27.7346 13.9989 27.4796 13.896 27.2876 13.7125L25.0001 11.4125L22.7126 13.7125C22.5193 13.8939 22.2652 13.9964 22.0001 14C21.8552 14.0004 21.712 13.9693 21.5804 13.9088C21.4487 13.8484 21.3318 13.7601 21.2376 13.65C21.0763 13.4504 20.9947 13.1981 21.0085 12.9419C21.0224 12.6856 21.1307 12.4436 21.3126 12.2625L23.5876 10L21.3251 7.73751C21.1362 7.55137 21.0258 7.29998 21.0165 7.03496C21.0072 6.76995 21.0998 6.51143 21.2751 6.31251C21.3676 6.21599 21.4782 6.13874 21.6007 6.0852C21.7232 6.03166 21.855 6.0029 21.9887 6.00058C22.1223 5.99825 22.2551 6.02241 22.3793 6.07166C22.5036 6.12091 22.6168 6.19427 22.7126 6.28751L25.0001 8.58751L27.2876 6.28751C27.3834 6.19427 27.4966 6.12091 27.6209 6.07166C27.7452 6.02241 27.8779 5.99825 28.0116 6.00058C28.1452 6.0029 28.2771 6.03166 28.3995 6.0852C28.522 6.13874 28.6326 6.21599 28.7251 6.31251C28.9005 6.51143 28.993 6.76995 28.9837 7.03496C28.9744 7.29998 28.864 7.55137 28.6751 7.73751L26.4126 10L28.6751 12.2625ZM25.3501 14.6C25.3047 14.5531 25.2503 14.5159 25.1901 14.4904C25.13 14.465 25.0654 14.4519 25.0001 14.4519C24.9348 14.4519 24.8702 14.465 24.8101 14.4904C24.75 14.5159 24.6956 14.5531 24.6501 14.6L24.1626 15.075C23.8866 15.3637 23.5557 15.5943 23.1894 15.7534C22.8231 15.9124 22.4287 15.9968 22.0294 16.0014C21.63 16.0061 21.2338 15.931 20.8639 15.7805C20.4939 15.63 20.1578 15.4071 19.8751 15.125C19.3163 14.5589 19.003 13.7955 19.003 13C19.003 12.2046 19.3163 11.4411 19.8751 10.875L20.7626 10L19.9251 9.17501C18.8001 8.05001 18.6876 6.22501 19.7376 5.02501C19.7803 4.9761 19.8262 4.93016 19.8751 4.88751C19.9184 4.8407 19.9486 4.7833 19.9626 4.72111C19.9766 4.65891 19.974 4.59411 19.955 4.53326C19.936 4.4724 19.9012 4.41764 19.8543 4.37449C19.8073 4.33134 19.7498 4.30134 19.6876 4.28751C16.5823 3.7932 13.4092 3.92913 10.3576 4.68721C7.30592 5.4453 4.43812 6.81001 1.92511 8.70001C1.7087 8.86114 1.52808 9.06543 1.39468 9.29996C1.26128 9.53449 1.178 9.79415 1.15011 10.0625C1.12121 10.3367 1.14722 10.6138 1.22663 10.8778C1.30604 11.1418 1.43725 11.3873 1.61261 11.6L14.4876 26.7625C14.6742 26.9814 14.9061 27.1572 15.1672 27.2777C15.4283 27.3982 15.7125 27.4606 16.0001 27.4606C16.2877 27.4606 16.5719 27.3982 16.833 27.2777C17.0942 27.1572 17.326 26.9814 17.5126 26.7625L26.4501 16.2375C26.495 16.1832 26.5279 16.1201 26.5466 16.0522C26.5654 15.9843 26.5696 15.9132 26.559 15.8436C26.5484 15.7739 26.5232 15.7073 26.485 15.6481C26.4469 15.5889 26.3966 15.5385 26.3376 15.5C26.1727 15.3889 26.0179 15.2634 25.8751 15.125L25.3501 14.6Z" fill="#344054"/>
</svg>
