<svg width="32" height="32" viewBox="0 0 32 32" fill="none" xmlns="http://www.w3.org/2000/svg">
<path d="M21 28C21 28.2652 20.8946 28.5196 20.7071 28.7071C20.5196 28.8946 20.2652 29 20 29H12C11.7348 29 11.4804 28.8946 11.2929 28.7071C11.1054 28.5196 11 28.2652 11 28C11 27.7348 11.1054 27.4804 11.2929 27.2929C11.4804 27.1054 11.7348 27 12 27H20C20.2652 27 20.5196 27.1054 20.7071 27.2929C20.8946 27.4804 21 27.7348 21 28ZM29 8V22C28.9967 22.7946 28.6796 23.5558 28.1177 24.1177C27.5558 24.6796 26.7946 24.9967 26 25H6C5.20536 24.9967 4.44421 24.6796 3.88231 24.1177C3.32042 23.5558 3.00329 22.7946 3 22V8C3.00329 7.20536 3.32042 6.44421 3.88231 5.88232C4.44421 5.32042 5.20536 5.00329 6 5H26C26.7946 5.00329 27.5558 5.32042 28.1177 5.88232C28.6796 6.44421 28.9967 7.20536 29 8ZM20.5 15C20.5002 14.8327 20.4578 14.668 20.3769 14.5215C20.296 14.375 20.1792 14.2515 20.0375 14.1625L14.5375 10.6625C14.3879 10.5654 14.2147 10.5106 14.0364 10.504C13.8582 10.4974 13.6814 10.5392 13.525 10.625C13.367 10.7103 13.2349 10.8365 13.1425 10.9905C13.0501 11.1445 13.0009 11.3205 13 11.5V18.5C13.0009 18.6795 13.0501 18.8555 13.1425 19.0095C13.2349 19.1635 13.367 19.2897 13.525 19.375C13.6806 19.4635 13.8577 19.5069 14.0366 19.5003C14.2154 19.4936 14.3889 19.4373 14.5375 19.3375L20.0375 15.8375C20.1792 15.7485 20.296 15.625 20.3769 15.4785C20.4578 15.332 20.5002 15.1673 20.5 15Z" fill="#344054"/>
</svg>
