<svg width="32" height="32" viewBox="0 0 32 32" fill="none" xmlns="http://www.w3.org/2000/svg">
<path d="M32 12V20C32 20.2652 31.8946 20.5196 31.7071 20.7071C31.5196 20.8946 31.2652 21 31 21C30.7348 21 30.4804 20.8946 30.2929 20.7071C30.1054 20.5196 30 20.2652 30 20V12C30 11.7348 30.1054 11.4804 30.2929 11.2929C30.4804 11.1054 30.7348 11 31 11C31.2652 11 31.5196 11.1054 31.7071 11.2929C31.8946 11.4804 32 11.7348 32 12ZM28 9V23C27.9967 23.7946 27.6796 24.5558 27.1177 25.1177C26.5558 25.6796 25.7946 25.9967 25 26H6C5.20536 25.9967 4.44421 25.6796 3.88231 25.1177C3.32042 24.5558 3.00329 23.7946 3 23V9C3.00329 8.20536 3.32042 7.44421 3.88231 6.88232C4.44421 6.32042 5.20536 6.00329 6 6H25C25.7946 6.00329 26.5558 6.32042 27.1177 6.88232C27.6796 7.44421 27.9967 8.20536 28 9ZM19.5 16C19.5 15.7348 19.3946 15.4804 19.2071 15.2929C19.0196 15.1054 18.7652 15 18.5 15H16.5V13C16.5 12.7348 16.3946 12.4804 16.2071 12.2929C16.0196 12.1054 15.7652 12 15.5 12C15.2348 12 14.9804 12.1054 14.7929 12.2929C14.6054 12.4804 14.5 12.7348 14.5 13V15H12.5C12.2348 15 11.9804 15.1054 11.7929 15.2929C11.6054 15.4804 11.5 15.7348 11.5 16C11.5 16.2652 11.6054 16.5196 11.7929 16.7071C11.9804 16.8946 12.2348 17 12.5 17H14.5V19C14.5 19.2652 14.6054 19.5196 14.7929 19.7071C14.9804 19.8946 15.2348 20 15.5 20C15.7652 20 16.0196 19.8946 16.2071 19.7071C16.3946 19.5196 16.5 19.2652 16.5 19V17H18.5C18.7652 17 19.0196 16.8946 19.2071 16.7071C19.3946 16.5196 19.5 16.2652 19.5 16Z" fill="#344054"/>
</svg>
