<svg width="32" height="32" viewBox="0 0 32 32" fill="none" xmlns="http://www.w3.org/2000/svg">
<path d="M29.7125 9.71249L25.4125 14L28.7125 17.2875C28.9003 17.4771 29.0056 17.7331 29.0056 18C29.0056 18.2668 28.9003 18.5229 28.7125 18.7125C28.5214 18.8973 28.2659 19.0006 28 19.0006C27.7341 19.0006 27.4786 18.8973 27.2875 18.7125L26.5 17.9125L20.0375 24.375C19.098 25.3108 17.826 25.8363 16.5 25.8363C15.174 25.8363 13.902 25.3108 12.9625 24.375L11 22.4125L4.71251 28.7125C4.52137 28.8973 4.26589 29.0006 4.00001 29.0006C3.73413 29.0006 3.47865 28.8973 3.28751 28.7125C3.09973 28.5229 2.99438 28.2668 2.99438 28C2.99438 27.7331 3.09973 27.4771 3.28751 27.2875L9.58751 21L7.62501 19.0375C6.68918 18.098 6.16374 16.826 6.16374 15.5C6.16374 14.174 6.68918 12.902 7.62501 11.9625L14.0875 5.49999L13.2875 4.71249C13.128 4.5182 13.0466 4.27153 13.0589 4.02048C13.0712 3.76943 13.1765 3.53194 13.3542 3.3542C13.532 3.17647 13.7694 3.0712 14.0205 3.05887C14.2716 3.04654 14.5182 3.12803 14.7125 3.28749L18 6.58749L22.2875 2.28749C22.4818 2.12803 22.7285 2.04654 22.9795 2.05887C23.2306 2.0712 23.4681 2.17647 23.6458 2.3542C23.8235 2.53194 23.9288 2.76943 23.9411 3.02048C23.9535 3.27153 23.872 3.5182 23.7125 3.71249L19.4125 7.99999L24 12.5875L28.2875 8.28749C28.4818 8.12803 28.7285 8.04654 28.9795 8.05887C29.2306 8.0712 29.4681 8.17647 29.6458 8.3542C29.8235 8.53194 29.9288 8.76943 29.9411 9.02048C29.9535 9.27153 29.872 9.5182 29.7125 9.71249Z" fill="#344054"/>
</svg>
