<svg width="32" height="32" viewBox="0 0 32 32" fill="none" xmlns="http://www.w3.org/2000/svg">
<path d="M25.5 4.5H6.5C5.96957 4.5 5.46086 4.71071 5.08579 5.08579C4.71071 5.46086 4.5 5.96957 4.5 6.5V17.9125C4.5 18.1777 4.60536 18.4321 4.79289 18.6196C4.98043 18.8071 5.23478 18.9125 5.5 18.9125C5.76522 18.9125 6.01957 18.8071 6.20711 18.6196C6.39464 18.4321 6.5 18.1777 6.5 17.9125V6.5H25.5V25.5H16.95C16.6848 25.5 16.4304 25.6054 16.2429 25.7929C16.0554 25.9804 15.95 26.2348 15.95 26.5C15.95 26.7652 16.0554 27.0196 16.2429 27.2071C16.4304 27.3946 16.6848 27.5 16.95 27.5H25.5C26.0304 27.5 26.5391 27.2893 26.9142 26.9142C27.2893 26.5391 27.5 26.0304 27.5 25.5V6.5C27.5 5.96957 27.2893 5.46086 26.9142 5.08579C26.5391 4.71071 26.0304 4.5 25.5 4.5Z" fill="#344054"/>
<path d="M16.7125 18.2875C16.5229 18.0997 16.2668 17.9944 16 17.9944C15.7331 17.9944 15.4771 18.0997 15.2875 18.2875L7.99996 25.5875L4.71246 22.2875C4.51817 22.128 4.2715 22.0466 4.02045 22.0589C3.7694 22.0712 3.53191 22.1765 3.35417 22.3542C3.17644 22.532 3.07117 22.7694 3.05884 23.0205C3.04651 23.2716 3.128 23.5182 3.28746 23.7125L7.28746 27.7125C7.4786 27.8973 7.73408 28.0006 7.99996 28.0006C8.26584 28.0006 8.52132 27.8973 8.71246 27.7125L16.7125 19.7125C16.9002 19.5229 17.0056 19.2669 17.0056 19C17.0056 18.7332 16.9002 18.4771 16.7125 18.2875Z" fill="#344054"/>
</svg>
