<svg width="32" height="32" viewBox="0 0 32 32" fill="none" xmlns="http://www.w3.org/2000/svg">
<path d="M30.8626 10.0625C30.8347 9.79413 30.7514 9.53447 30.618 9.29994C30.4846 9.06542 30.304 8.86113 30.0876 8.7C21.7876 2.4375 10.2126 2.4375 1.92511 8.6875C1.70994 8.85263 1.53037 9.05956 1.39719 9.29585C1.26401 9.53214 1.17996 9.79291 1.15011 10.0625C1.12121 10.3366 1.14722 10.6138 1.22663 10.8778C1.30604 11.1418 1.43725 11.3873 1.61261 11.6L14.4876 26.7625C14.6742 26.9814 14.9061 27.1571 15.1672 27.2777C15.4283 27.3982 15.7125 27.4606 16.0001 27.4606C16.2877 27.4606 16.5719 27.3982 16.833 27.2777C17.0942 27.1571 17.326 26.9814 17.5126 26.7625L30.3876 11.5875C30.5648 11.378 30.6982 11.1351 30.7797 10.8732C30.8613 10.6112 30.8895 10.3355 30.8626 10.0625Z" fill="#344054"/>
</svg>
