<svg width="32" height="32" viewBox="0 0 32 32" fill="none" xmlns="http://www.w3.org/2000/svg">
<path d="M22 29C22 29.2652 21.8946 29.5196 21.7071 29.7071C21.5195 29.8946 21.2652 30 21 30H11C10.7348 30 10.4804 29.8946 10.2929 29.7071C10.1053 29.5196 9.99997 29.2652 9.99997 29C9.99997 28.7348 10.1053 28.4804 10.2929 28.2929C10.4804 28.1054 10.7348 28 11 28H21C21.2652 28 21.5195 28.1054 21.7071 28.2929C21.8946 28.4804 22 28.7348 22 29ZM27 13C27.0033 14.6662 26.6268 16.3112 25.899 17.8101C25.1712 19.3089 24.1114 20.6222 22.8 21.65C22.5523 21.837 22.3512 22.0787 22.2124 22.3562C22.0736 22.6338 22.0009 22.9397 22 23.25V24C22 24.5304 21.7893 25.0391 21.4142 25.4142C21.0391 25.7893 20.5304 26 20 26H12C11.4695 26 10.9608 25.7893 10.5858 25.4142C10.2107 25.0391 9.99997 24.5304 9.99997 24V23.25C9.99912 22.944 9.92894 22.6422 9.79471 22.3673C9.66048 22.0923 9.46569 21.8514 9.22497 21.6625C7.91631 20.6418 6.85619 19.3375 6.12438 17.8479C5.39257 16.3583 5.00812 14.7221 4.99997 13.0625C4.96247 7.1 9.78747 2.1375 15.7375 2C17.2044 1.96327 18.6638 2.22075 20.0296 2.75724C21.3954 3.29373 22.6399 4.09837 23.6897 5.12366C24.7394 6.14895 25.5732 7.37413 26.1417 8.7269C26.7103 10.0797 27.0021 11.5326 27 13ZM22.9 11.825C22.6575 10.396 21.9759 9.07806 20.9499 8.0543C19.9239 7.03054 18.6045 6.35183 17.175 6.1125C17.0453 6.09116 16.9127 6.09557 16.7847 6.12548C16.6567 6.15539 16.5359 6.21022 16.4291 6.28683C16.3223 6.36343 16.2317 6.46033 16.1623 6.57197C16.093 6.68361 16.0463 6.80782 16.025 6.9375C16.0036 7.06718 16.008 7.19979 16.038 7.32777C16.0679 7.45574 16.1227 7.57658 16.1993 7.68336C16.2759 7.79015 16.3728 7.8808 16.4844 7.95014C16.5961 8.01949 16.7203 8.06616 16.85 8.0875C17.8689 8.25807 18.8091 8.74238 19.5396 9.47287C20.2701 10.2034 20.7544 11.1436 20.925 12.1625C20.9662 12.3942 21.0878 12.604 21.2684 12.7549C21.449 12.9058 21.6771 12.9882 21.9125 12.9875H22.0875C22.2181 12.9665 22.3431 12.9194 22.4552 12.8491C22.5673 12.7788 22.6641 12.6867 22.7398 12.5783C22.8156 12.4698 22.8689 12.3473 22.8964 12.2179C22.9239 12.0885 22.9251 11.9549 22.9 11.825Z" fill="#344054"/>
</svg>
