<svg width="32" height="32" viewBox="0 0 32 32" fill="none" xmlns="http://www.w3.org/2000/svg">
<path d="M22 2H10C9.20536 2.00329 8.44421 2.32042 7.88232 2.88231C7.32042 3.44421 7.00329 4.20536 7 5V27C7.00329 27.7946 7.32042 28.5558 7.88232 29.1177C8.44421 29.6796 9.20536 29.9967 10 30H22C22.7946 29.9967 23.5558 29.6796 24.1177 29.1177C24.6796 28.5558 24.9967 27.7946 25 27V5C24.9967 4.20536 24.6796 3.44421 24.1177 2.88231C23.5558 2.32042 22.7946 2.00329 22 2ZM10 4H22C22.2652 4 22.5196 4.10536 22.7071 4.29289C22.8946 4.48043 23 4.73478 23 5V6H9V5C9 4.73478 9.10536 4.48043 9.29289 4.29289C9.48043 4.10536 9.73478 4 10 4ZM22 28H10C9.73478 28 9.48043 27.8946 9.29289 27.7071C9.10536 27.5196 9 27.2652 9 27V26H23V27C23 27.2652 22.8946 27.5196 22.7071 27.7071C22.5196 27.8946 22.2652 28 22 28Z" fill="#344054"/>
</svg>
