<svg width="32" height="32" viewBox="0 0 32 32" fill="none" xmlns="http://www.w3.org/2000/svg">
<path d="M22 29C22 29.2652 21.8946 29.5196 21.7071 29.7071C21.5195 29.8946 21.2652 30 21 30H11C10.7348 30 10.4804 29.8946 10.2929 29.7071C10.1053 29.5196 9.99997 29.2652 9.99997 29C9.99997 28.7348 10.1053 28.4804 10.2929 28.2929C10.4804 28.1054 10.7348 28 11 28H21C21.2652 28 21.5195 28.1054 21.7071 28.2929C21.8946 28.4804 22 28.7348 22 29ZM27 13C27.0033 14.6662 26.6268 16.3112 25.899 17.8101C25.1712 19.3089 24.1114 20.6222 22.8 21.65C22.5523 21.837 22.3512 22.0787 22.2124 22.3562C22.0736 22.6338 22.0009 22.9397 22 23.25V24C22 24.5304 21.7893 25.0391 21.4142 25.4142C21.0391 25.7893 20.5304 26 20 26H12C11.4695 26 10.9608 25.7893 10.5858 25.4142C10.2107 25.0391 9.99997 24.5304 9.99997 24V23.25C9.99912 22.944 9.92894 22.6422 9.79471 22.3673C9.66048 22.0923 9.46569 21.8514 9.22497 21.6625C7.91631 20.6418 6.85619 19.3375 6.12438 17.8479C5.39257 16.3583 5.00812 14.7221 4.99997 13.0625C4.96247 7.1 9.78747 2.1375 15.7375 2C17.2044 1.96327 18.6638 2.22075 20.0296 2.75724C21.3954 3.29373 22.6399 4.09837 23.6897 5.12366C24.7394 6.14895 25.5732 7.37413 26.1417 8.7269C26.7103 10.0797 27.0021 11.5326 27 13ZM20.7125 13.2875C20.5229 13.0997 20.2668 12.9944 20 12.9944C19.7331 12.9944 19.4771 13.0997 19.2875 13.2875L16 16.5875L12.7125 13.2875C12.5182 13.128 12.2715 13.0465 12.0205 13.0589C11.7694 13.0712 11.5319 13.1765 11.3542 13.3542C11.1764 13.5319 11.0712 13.7694 11.0588 14.0205C11.0465 14.2715 11.128 14.5182 11.2875 14.7125L15 18.4125V23C15 23.2652 15.1053 23.5196 15.2929 23.7071C15.4804 23.8946 15.7348 24 16 24C16.2652 24 16.5195 23.8946 16.7071 23.7071C16.8946 23.5196 17 23.2652 17 23V18.4125L20.7125 14.7125C20.9003 14.5229 21.0056 14.2668 21.0056 14C21.0056 13.7332 20.9003 13.4771 20.7125 13.2875Z" fill="#344054"/>
</svg>
