<svg width="32" height="32" viewBox="0 0 32 32" fill="none" xmlns="http://www.w3.org/2000/svg">
<path d="M28.6999 27.2875L23.2999 21.8875C25.2102 19.6132 26.1687 16.6893 25.9756 13.7255C25.7824 10.7617 24.4525 7.98691 22.2632 5.97981C20.074 3.97272 17.1943 2.88829 14.225 2.95272C11.2556 3.01714 8.42571 4.22544 6.32555 6.3256C4.22539 8.42576 3.01709 11.2556 2.95267 14.225C2.88824 17.1944 3.97266 20.074 5.97976 22.2633C7.98686 24.4526 10.7617 25.7825 13.7255 25.9756C16.6892 26.1688 19.6132 25.2103 21.8874 23.3L27.2874 28.7125C27.4794 28.896 27.7344 28.9989 27.9999 29C28.1982 28.9997 28.392 28.9404 28.5565 28.8297C28.721 28.719 28.8489 28.5619 28.9239 28.3784C28.999 28.1948 29.0177 27.9931 28.9778 27.7989C28.938 27.6046 28.8412 27.4266 28.6999 27.2875ZM18.4999 15.5H15.4999V18.5C15.4999 18.7652 15.3946 19.0196 15.2071 19.2071C15.0195 19.3946 14.7652 19.5 14.4999 19.5C14.2347 19.5 13.9804 19.3946 13.7928 19.2071C13.6053 19.0196 13.4999 18.7652 13.4999 18.5V15.5H10.4999C10.2347 15.5 9.98038 15.3946 9.79284 15.2071C9.60531 15.0196 9.49995 14.7652 9.49995 14.5C9.49995 14.2348 9.60531 13.9804 9.79284 13.7929C9.98038 13.6054 10.2347 13.5 10.4999 13.5H13.4999V10.5C13.4999 10.2348 13.6053 9.98043 13.7928 9.7929C13.9804 9.60536 14.2347 9.5 14.4999 9.5C14.7652 9.5 15.0195 9.60536 15.2071 9.7929C15.3946 9.98043 15.4999 10.2348 15.4999 10.5V13.5H18.4999C18.7652 13.5 19.0195 13.6054 19.2071 13.7929C19.3946 13.9804 19.4999 14.2348 19.4999 14.5C19.4999 14.7652 19.3946 15.0196 19.2071 15.2071C19.0195 15.3946 18.7652 15.5 18.4999 15.5Z" fill="#344054"/>
</svg>
