<svg width="32" height="32" viewBox="0 0 32 32" fill="none" xmlns="http://www.w3.org/2000/svg">
<path d="M31 11C30.7348 11 30.4804 11.1054 30.2929 11.2929C30.1054 11.4804 30 11.7348 30 12V20C30 20.2652 30.1054 20.5196 30.2929 20.7071C30.4804 20.8946 30.7348 21 31 21C31.2652 21 31.5196 20.8946 31.7071 20.7071C31.8946 20.5196 32 20.2652 32 20V12C32 11.7348 31.8946 11.4804 31.7071 11.2929C31.5196 11.1054 31.2652 11 31 11Z" fill="#344054"/>
<path d="M25 6H6C5.20536 6.00329 4.44421 6.32042 3.88231 6.88232C3.32042 7.44421 3.00329 8.20536 3 9V23C3.00329 23.7946 3.32042 24.5558 3.88231 25.1177C4.44421 25.6796 5.20536 25.9967 6 26H25C25.7946 25.9967 26.5558 25.6796 27.1177 25.1177C27.6796 24.5558 27.9967 23.7946 28 23V9C27.9967 8.20536 27.6796 7.44421 27.1177 6.88232C26.5558 6.32042 25.7946 6.00329 25 6ZM18.425 16.375L16.425 21.375C16.3519 21.5603 16.2244 21.7192 16.0593 21.8308C15.8942 21.9423 15.6992 22.0013 15.5 22C15.3713 21.9994 15.244 21.9739 15.125 21.925C15.0026 21.8769 14.8911 21.8049 14.7969 21.7131C14.7028 21.6214 14.6279 21.5117 14.5766 21.3907C14.5254 21.2696 14.4989 21.1395 14.4986 21.008C14.4983 20.8765 14.5243 20.7463 14.575 20.625L16.025 17H13.5C13.3371 17.0008 13.1765 16.9613 13.0325 16.8849C12.8886 16.8086 12.7657 16.6978 12.675 16.5625C12.5825 16.4265 12.525 16.2698 12.5076 16.1063C12.4901 15.9427 12.5133 15.7774 12.575 15.625L14.575 10.625C14.6184 10.4956 14.6879 10.3765 14.7791 10.275C14.8703 10.1734 14.9813 10.0917 15.1053 10.0346C15.2293 9.97765 15.3637 9.94663 15.5001 9.94351C15.6366 9.94039 15.7722 9.96523 15.8987 10.0165C16.0252 10.0678 16.1398 10.1444 16.2356 10.2417C16.3313 10.3389 16.4062 10.4547 16.4555 10.582C16.5048 10.7093 16.5275 10.8453 16.5223 10.9817C16.517 11.118 16.4839 11.2519 16.425 11.375L14.975 15H17.5C17.6629 14.9992 17.8235 15.0387 17.9675 15.1151C18.1114 15.1914 18.2343 15.3022 18.325 15.4375C18.4175 15.5735 18.475 15.7302 18.4924 15.8937C18.5099 16.0573 18.4867 16.2226 18.425 16.375Z" fill="#344054"/>
</svg>
