<svg width="32" height="32" viewBox="0 0 32 32" fill="none" xmlns="http://www.w3.org/2000/svg">
<path d="M21 28C21 28.2652 20.8946 28.5196 20.7071 28.7071C20.5195 28.8946 20.2652 29 20 29H12C11.7348 29 11.4804 28.8946 11.2929 28.7071C11.1053 28.5196 11 28.2652 11 28C11 27.7348 11.1053 27.4804 11.2929 27.2929C11.4804 27.1054 11.7348 27 12 27H20C20.2652 27 20.5195 27.1054 20.7071 27.2929C20.8946 27.4804 21 27.7348 21 28ZM27.6125 24C27.4375 24.3057 27.1843 24.5594 26.879 24.7351C26.5737 24.9108 26.2272 25.0022 25.875 25H6.12498C5.77273 25.0022 5.42621 24.9108 5.12091 24.7351C4.81561 24.5594 4.56249 24.3057 4.38748 24C4.21396 23.6926 4.12382 23.3451 4.12602 22.9921C4.12821 22.6391 4.22265 22.2928 4.39998 21.9875C5.13748 20.7125 6.02498 18.2875 6.02498 14V13C6.02333 11.6884 6.28004 10.3894 6.78044 9.177C7.28085 7.96463 8.01514 6.86269 8.94141 5.93411C9.86767 5.00552 10.9678 4.26847 12.1789 3.76503C13.39 3.2616 14.6884 3.00164 16 3H16.075C21.5375 3.0375 25.975 7.575 25.975 13.1125V14C25.975 18.2875 26.8625 20.7125 27.6 21.9875C27.7773 22.2928 27.8717 22.6391 27.8739 22.9921C27.8761 23.3451 27.786 23.6926 27.6125 24ZM19.5 18C19.5 17.7348 19.3946 17.4804 19.2071 17.2929C19.0195 17.1054 18.7652 17 18.5 17H15.6375L19.2625 12.6375C19.3866 12.4932 19.4658 12.3156 19.4902 12.1268C19.5147 11.938 19.4833 11.7462 19.4 11.575C19.3209 11.403 19.194 11.2573 19.0344 11.1553C18.8748 11.0534 18.6893 10.9995 18.5 11H13.5C13.2348 11 12.9804 11.1054 12.7929 11.2929C12.6053 11.4804 12.5 11.7348 12.5 12C12.5 12.2652 12.6053 12.5196 12.7929 12.7071C12.9804 12.8946 13.2348 13 13.5 13H16.3625L12.7375 17.3625C12.6133 17.5068 12.5341 17.6844 12.5097 17.8732C12.4853 18.062 12.5167 18.2538 12.6 18.425C12.6791 18.597 12.806 18.7427 12.9655 18.8447C13.1251 18.9466 13.3106 19.0005 13.5 19H18.5C18.7652 19 19.0195 18.8946 19.2071 18.7071C19.3946 18.5196 19.5 18.2652 19.5 18Z" fill="#344054"/>
</svg>
