<svg width="32" height="32" viewBox="0 0 32 32" fill="none" xmlns="http://www.w3.org/2000/svg">
<path d="M31 11C30.7348 11 30.4804 11.1054 30.2929 11.2929C30.1054 11.4804 30 11.7348 30 12V20C30 20.2652 30.1054 20.5196 30.2929 20.7071C30.4804 20.8946 30.7348 21 31 21C31.2652 21 31.5196 20.8946 31.7071 20.7071C31.8946 20.5196 32 20.2652 32 20V12C32 11.7348 31.8946 11.4804 31.7071 11.2929C31.5196 11.1054 31.2652 11 31 11Z" fill="#344054"/>
<path d="M25 6H6C5.20536 6.00329 4.44421 6.32042 3.88231 6.88232C3.32042 7.44421 3.00329 8.20536 3 9V23C3.00329 23.7946 3.32042 24.5558 3.88231 25.1177C4.44421 25.6796 5.20536 25.9967 6 26H25C25.7946 25.9967 26.5558 25.6796 27.1177 25.1177C27.6796 24.5558 27.9967 23.7946 28 23V9C27.9967 8.20536 27.6796 7.44421 27.1177 6.88232C26.5558 6.32042 25.7946 6.00329 25 6ZM26 23C26 23.2652 25.8946 23.5196 25.7071 23.7071C25.5196 23.8946 25.2652 24 25 24H6C5.73478 24 5.48043 23.8946 5.29289 23.7071C5.10536 23.5196 5 23.2652 5 23V9C5 8.73478 5.10536 8.48043 5.29289 8.29289C5.48043 8.10536 5.73478 8 6 8H25C25.2652 8 25.5196 8.10536 25.7071 8.29289C25.8946 8.48043 26 8.73478 26 9V23Z" fill="#344054"/>
</svg>
