<svg width="32" height="32" viewBox="0 0 32 32" fill="none" xmlns="http://www.w3.org/2000/svg">
<path d="M17 4V8C17 8.26522 16.8946 8.51957 16.7071 8.70711C16.5196 8.89464 16.2652 9 16 9C15.7348 9 15.4804 8.89464 15.2929 8.70711C15.1054 8.51957 15 8.26522 15 8V4C15 3.73478 15.1054 3.48043 15.2929 3.29289C15.4804 3.10536 15.7348 3 16 3C16.2652 3 16.5196 3.10536 16.7071 3.29289C16.8946 3.48043 17 3.73478 17 4ZM21.6625 11.3375C21.7924 11.3386 21.9213 11.3138 22.0415 11.2644C22.1617 11.2151 22.2709 11.1422 22.3625 11.05L25.1875 8.225C25.2879 8.13404 25.3687 8.02363 25.4252 7.90048C25.4816 7.77732 25.5124 7.64399 25.5157 7.50857C25.5191 7.37314 25.4949 7.23845 25.4446 7.11267C25.3943 6.98689 25.3189 6.87263 25.2232 6.77684C25.1274 6.68106 25.0131 6.60573 24.8873 6.55543C24.7616 6.50514 24.6269 6.48092 24.4914 6.48425C24.356 6.48759 24.2227 6.5184 24.0995 6.57483C23.9764 6.63125 23.866 6.71211 23.775 6.8125L20.95 9.6375C20.763 9.82497 20.658 10.079 20.658 10.3438C20.658 10.6085 20.763 10.8625 20.95 11.05C21.0431 11.1437 21.1543 11.2175 21.2767 11.2669C21.3992 11.3163 21.5305 11.3403 21.6625 11.3375ZM28 15H24C23.7348 15 23.4804 15.1054 23.2929 15.2929C23.1054 15.4804 23 15.7348 23 16C23 16.2652 23.1054 16.5196 23.2929 16.7071C23.4804 16.8946 23.7348 17 24 17H28C28.2652 17 28.5196 16.8946 28.7071 16.7071C28.8946 16.5196 29 16.2652 29 16C29 15.7348 28.8946 15.4804 28.7071 15.2929C28.5196 15.1054 28.2652 15 28 15ZM22.3625 20.95C22.1723 20.7776 21.9231 20.685 21.6664 20.6914C21.4098 20.6977 21.1655 20.8024 20.9839 20.9839C20.8024 21.1655 20.6977 21.4098 20.6914 21.6664C20.685 21.9231 20.7776 22.1723 20.95 22.3625L23.775 25.1875C23.8679 25.2823 23.9788 25.3576 24.1011 25.4091C24.2234 25.4606 24.3548 25.4873 24.4875 25.4875C24.6184 25.4877 24.7481 25.4613 24.8684 25.4097C24.9888 25.3581 25.0974 25.2825 25.1875 25.1875C25.2816 25.0955 25.3564 24.9857 25.4074 24.8644C25.4585 24.7431 25.4848 24.6128 25.4848 24.4813C25.4848 24.3497 25.4585 24.2194 25.4074 24.0981C25.3564 23.9768 25.2816 23.867 25.1875 23.775L22.3625 20.95ZM16 23C15.7348 23 15.4804 23.1054 15.2929 23.2929C15.1054 23.4804 15 23.7348 15 24V28C15 28.2652 15.1054 28.5196 15.2929 28.7071C15.4804 28.8946 15.7348 29 16 29C16.2652 29 16.5196 28.8946 16.7071 28.7071C16.8946 28.5196 17 28.2652 17 28V24C17 23.7348 16.8946 23.4804 16.7071 23.2929C16.5196 23.1054 16.2652 23 16 23ZM9.6375 20.95L6.8125 23.775C6.71839 23.867 6.64361 23.9768 6.59255 24.0981C6.54149 24.2194 6.51519 24.3497 6.51519 24.4813C6.51519 24.6128 6.54149 24.7431 6.59255 24.8644C6.64361 24.9857 6.71839 25.0955 6.8125 25.1875C6.90263 25.2825 7.0112 25.3581 7.13157 25.4097C7.25193 25.4613 7.38155 25.4877 7.5125 25.4875C7.64523 25.4873 7.77659 25.4606 7.89891 25.4091C8.02124 25.3576 8.13209 25.2823 8.225 25.1875L11.05 22.3625C11.2224 22.1723 11.315 21.9231 11.3086 21.6664C11.3023 21.4098 11.1976 21.1655 11.0161 20.9839C10.8345 20.8024 10.5902 20.6977 10.3336 20.6914C10.0769 20.685 9.82772 20.7776 9.6375 20.95ZM9 16C9 15.7348 8.89464 15.4804 8.70711 15.2929C8.51957 15.1054 8.26522 15 8 15H4C3.73478 15 3.48043 15.1054 3.29289 15.2929C3.10536 15.4804 3 15.7348 3 16C3 16.2652 3.10536 16.5196 3.29289 16.7071C3.48043 16.8946 3.73478 17 4 17H8C8.26522 17 8.51957 16.8946 8.70711 16.7071C8.89464 16.5196 9 16.2652 9 16ZM8.225 6.8125C8.03478 6.64014 7.78555 6.54753 7.52893 6.55385C7.27232 6.56017 7.02795 6.66493 6.84644 6.84644C6.66493 7.02795 6.56017 7.27232 6.55385 7.52893C6.54753 7.78555 6.64014 8.03478 6.8125 8.225L9.6375 11.05C9.82654 11.234 10.0799 11.337 10.3438 11.337C10.6076 11.337 10.861 11.234 11.05 11.05C11.237 10.8625 11.342 10.6085 11.342 10.3438C11.342 10.079 11.237 9.82497 11.05 9.6375L8.225 6.8125Z" fill="#344054"/>
</svg>
