<svg width="32" height="32" viewBox="0 0 32 32" fill="none" xmlns="http://www.w3.org/2000/svg">
<path d="M16 16L28 4" stroke="#344054" stroke-width="1.5" stroke-linecap="round" stroke-linejoin="round"/>
<path d="M24.4875 7.51248C22.3601 5.37867 19.5091 4.1213 16.4989 3.98923C13.4887 3.85715 10.5385 4.86001 8.2324 6.7993C5.92628 8.73858 4.43225 11.473 4.04601 14.4613C3.65978 17.4495 4.40948 20.4739 6.14675 22.9358C7.88401 25.3977 10.4822 27.1177 13.4271 27.7553C16.372 28.393 19.449 27.9018 22.049 26.379C24.649 24.8562 26.5826 22.4128 27.4671 19.5324C28.3516 16.652 28.1224 13.5445 26.825 10.825" stroke="#344054" stroke-width="1.5" stroke-linecap="round" stroke-linejoin="round"/>
<path d="M20.2375 11.7625C19.2465 10.7743 17.9407 10.1644 16.5468 10.0389C15.153 9.9133 13.7592 10.2799 12.6076 11.0751C11.456 11.8702 10.6193 13.0437 10.2428 14.3916C9.86634 15.7395 9.97392 17.1766 10.5469 18.4535C11.1198 19.7303 12.1219 20.7661 13.379 21.3809C14.6362 21.9958 16.0691 22.1508 17.4287 21.8191C18.7883 21.4874 19.9887 20.69 20.8215 19.5653C21.6543 18.4406 22.0669 17.0597 21.9875 15.6625" stroke="#344054" stroke-width="1.5" stroke-linecap="round" stroke-linejoin="round"/>
</svg>
