<svg width="32" height="32" viewBox="0 0 32 32" fill="none" xmlns="http://www.w3.org/2000/svg">
<path d="M18.2625 16C18.5439 15.6849 18.8886 15.4328 19.2742 15.2602C19.6598 15.0876 20.0775 14.9984 20.5 14.9984C20.9224 14.9984 21.3401 15.0876 21.7257 15.2602C22.1113 15.4328 22.456 15.6849 22.7374 16" stroke="#344054" stroke-width="1.5" stroke-linecap="round" stroke-linejoin="round"/>
<path d="M9.26245 16C9.54386 15.6849 9.88864 15.4328 10.2742 15.2602C10.6598 15.0876 11.0775 14.9984 11.5 14.9984C11.9224 14.9984 12.3401 15.0876 12.7257 15.2602C13.1113 15.4328 13.456 15.6849 13.7375 16" stroke="#344054" stroke-width="1.5" stroke-linecap="round" stroke-linejoin="round"/>
<path d="M19.3125 22C18.3308 22.652 17.1785 22.9998 16 22.9998C14.8215 22.9998 13.6692 22.652 12.6875 22" stroke="#344054" stroke-width="1.5" stroke-linecap="round" stroke-linejoin="round"/>
<path d="M26.9999 6.03751C27.0018 5.87442 26.9633 5.71339 26.8878 5.56881C26.8123 5.42424 26.7021 5.30062 26.5672 5.20901C26.4322 5.11739 26.2767 5.06063 26.1145 5.04379C25.9522 5.02695 25.7883 5.05056 25.6374 5.11251C23.7499 5.83751 20.1124 7.00001 15.9999 7.00001C11.8874 7.00001 8.24995 5.83751 6.36245 5.11251C6.21156 5.05056 6.04768 5.02695 5.88544 5.04379C5.7232 5.06063 5.56766 5.11739 5.43271 5.20901C5.29776 5.30062 5.18761 5.42424 5.11209 5.56881C5.03658 5.71339 4.99805 5.87442 4.99994 6.03751V13C4.99994 21.8375 9.92494 29 15.9999 29C22.0749 29 26.9999 21.8375 26.9999 13V6.03751Z" stroke="#344054" stroke-width="1.5" stroke-linecap="round" stroke-linejoin="round"/>
</svg>
