<svg width="32" height="32" viewBox="0 0 32 32" fill="none" xmlns="http://www.w3.org/2000/svg">
<path d="M8.00005 27C7.73483 27 7.48048 26.8946 7.29294 26.7071C7.10541 26.5196 7.00005 26.2652 7.00005 26V20.6625C6.45144 20.9242 5.84342 21.0363 5.23755 20.9875C4.72454 20.9498 4.22615 20.7995 3.77784 20.5473C3.32953 20.295 2.94233 19.9471 2.64379 19.5282C2.34525 19.1093 2.14272 18.6298 2.0506 18.1237C1.95848 17.6176 1.97905 17.0974 2.11083 16.6002C2.24261 16.103 2.48237 15.6409 2.81305 15.2469C3.14373 14.8529 3.55719 14.5366 4.02401 14.3206C4.49083 14.1045 4.99954 13.994 5.51392 13.997C6.0283 13.9999 6.53572 14.1161 7.00005 14.3375V8.99999C7.00005 8.73477 7.10541 8.48042 7.29294 8.29288C7.48048 8.10535 7.73483 7.99999 8.00005 7.99999H13.8376C13.5758 7.45138 13.4637 6.84336 13.5126 6.23749C13.5502 5.72448 13.7006 5.22609 13.9528 4.77778C14.205 4.32947 14.5529 3.94227 14.9718 3.64373C15.3907 3.34519 15.8703 3.14266 16.3764 3.05054C16.8824 2.95842 17.4026 2.97898 17.8998 3.11077C18.397 3.24255 18.8591 3.48231 19.2531 3.81299C19.6471 4.14367 19.9634 4.55713 20.1795 5.02395C20.3955 5.49077 20.506 5.99948 20.5031 6.51386C20.5002 7.02824 20.3839 7.53566 20.1626 7.99999H26.0001C26.2653 7.99999 26.5196 8.10535 26.7072 8.29288C26.8947 8.48042 27.0001 8.73477 27.0001 8.99999V14.3375C26.4514 14.0758 25.8434 13.9637 25.2376 14.0125C24.7245 14.0502 24.2262 14.2005 23.7778 14.4527C23.3295 14.7049 22.9423 15.0529 22.6438 15.4718C22.3453 15.8907 22.1427 16.3702 22.0506 16.8763C21.9585 17.3824 21.979 17.9025 22.1108 18.3998C22.2426 18.897 22.4824 19.359 22.813 19.7531C23.1437 20.1471 23.5572 20.4634 24.024 20.6794C24.4908 20.8955 24.9995 21.0059 25.5139 21.003C26.0283 21.0001 26.5357 20.8838 27.0001 20.6625V26C27.0001 26.2652 26.8947 26.5196 26.7072 26.7071C26.5196 26.8946 26.2653 27 26.0001 27H8.00005Z" stroke="#344054" stroke-width="1.5" stroke-linecap="round" stroke-linejoin="round"/>
</svg>
