<svg width="32" height="32" viewBox="0 0 32 32" fill="none" xmlns="http://www.w3.org/2000/svg">
<path d="M16 28C22.6274 28 28 22.6274 28 16C28 9.37258 22.6274 4 16 4C9.37258 4 4 9.37258 4 16C4 22.6274 9.37258 28 16 28Z" stroke="#344054" stroke-width="1.5" stroke-linecap="round" stroke-linejoin="round"/>
<path d="M21.15 14.125C21.2536 13.467 21.4125 12.8188 21.625 12.1875" stroke="#344054" stroke-width="1.5" stroke-linecap="round" stroke-linejoin="round"/>
<path d="M21.625 19.8125C21.4125 19.1812 21.2536 18.533 21.15 17.875" stroke="#344054" stroke-width="1.5" stroke-linecap="round" stroke-linejoin="round"/>
<path d="M10.85 14.125C10.7465 13.467 10.5876 12.8188 10.375 12.1875" stroke="#344054" stroke-width="1.5" stroke-linecap="round" stroke-linejoin="round"/>
<path d="M10.375 19.8125C10.5876 19.1812 10.7465 18.533 10.85 17.875" stroke="#344054" stroke-width="1.5" stroke-linecap="round" stroke-linejoin="round"/>
<path d="M23.35 8.86252C23.7025 8.39112 24.0867 7.94425 24.5 7.52502" stroke="#344054" stroke-width="1.5" stroke-linecap="round" stroke-linejoin="round"/>
<path d="M24.5 24.475C24.0898 24.053 23.7057 23.6063 23.35 23.1375" stroke="#344054" stroke-width="1.5" stroke-linecap="round" stroke-linejoin="round"/>
<path d="M7.5 24.475C7.91021 24.053 8.29426 23.6063 8.65 23.1375" stroke="#344054" stroke-width="1.5" stroke-linecap="round" stroke-linejoin="round"/>
<path d="M8.65 8.86252C8.29745 8.39112 7.91323 7.94425 7.5 7.52502" stroke="#344054" stroke-width="1.5" stroke-linecap="round" stroke-linejoin="round"/>
</svg>
