<svg width="32" height="32" viewBox="0 0 32 32" fill="none" xmlns="http://www.w3.org/2000/svg">
<path d="M11.8375 3.38749C13.4487 2.83234 15.2134 2.9321 16.7517 3.66529C18.29 4.39848 19.4788 5.70644 20.0622 7.30756C20.6457 8.90867 20.577 10.6749 19.871 12.2258C19.165 13.7768 17.8781 14.9885 16.2875 15.6L11.8375 3.38749Z" stroke="#344054" stroke-width="1.5" stroke-linecap="round" stroke-linejoin="round"/>
<path d="M3.38755 18.1625C2.8324 16.5514 2.93216 14.7867 3.66535 13.2484C4.39854 11.7101 5.7065 10.5212 7.30762 9.93779C8.90873 9.35437 10.6749 9.42306 12.2259 10.1291C13.7769 10.8351 14.9885 12.1219 15.6 13.7125L3.38755 18.1625Z" stroke="#344054" stroke-width="1.5" stroke-linecap="round" stroke-linejoin="round"/>
<path d="M18.1624 26.6125C16.5513 27.1677 14.7866 27.0679 13.2483 26.3347C11.71 25.6015 10.5211 24.2936 9.93773 22.6925C9.35431 21.0913 9.423 19.3252 10.129 17.7742C10.835 16.2232 12.1218 15.0115 13.7124 14.4L18.1624 26.6125Z" stroke="#344054" stroke-width="1.5" stroke-linecap="round" stroke-linejoin="round"/>
<path d="M26.6125 11.8375C27.1677 13.4487 27.0679 15.2134 26.3347 16.7517C25.6015 18.29 24.2936 19.4788 22.6925 20.0622C21.0913 20.6457 19.3252 20.577 17.7742 19.871C16.2232 19.165 15.0115 17.8781 14.4 16.2875L26.6125 11.8375Z" stroke="#344054" stroke-width="1.5" stroke-linecap="round" stroke-linejoin="round"/>
<path d="M20.5625 20.5625L28 28" stroke="#344054" stroke-width="1.5" stroke-linecap="round" stroke-linejoin="round"/>
</svg>
