<svg width="32" height="32" viewBox="0 0 32 32" fill="none" xmlns="http://www.w3.org/2000/svg">
<path d="M15.225 4.95001L4.32498 18.375C4.20752 18.5217 4.13378 18.6985 4.1122 18.8852C4.09063 19.0719 4.12209 19.2609 4.20299 19.4305C4.28388 19.6001 4.41094 19.7435 4.56959 19.8442C4.72824 19.945 4.91206 19.999 5.09998 20H26.9C27.0879 19.999 27.2717 19.945 27.4304 19.8442C27.589 19.7435 27.7161 19.6001 27.797 19.4305C27.8779 19.2609 27.9093 19.0719 27.8878 18.8852C27.8662 18.6985 27.7924 18.5217 27.675 18.375L16.775 4.95001C16.6812 4.835 16.563 4.74231 16.429 4.67865C16.2949 4.615 16.1484 4.58197 16 4.58197C15.8516 4.58197 15.7051 4.615 15.571 4.67865C15.437 4.74231 15.3188 4.835 15.225 4.95001Z" stroke="#344054" stroke-width="1.5" stroke-linecap="round" stroke-linejoin="round"/>
<path d="M28 26H4" stroke="#344054" stroke-width="1.5" stroke-linecap="round" stroke-linejoin="round"/>
</svg>
