<svg width="32" height="32" viewBox="0 0 32 32" fill="none" xmlns="http://www.w3.org/2000/svg">
<path d="M16 25V29" stroke="#344054" stroke-width="1.5" stroke-linecap="round" stroke-linejoin="round"/>
<path d="M6 5L26 27" stroke="#344054" stroke-width="1.5" stroke-linecap="round" stroke-linejoin="round"/>
<path d="M19.3625 19.7C18.4449 20.5406 17.2444 21.0047 16 21V21C14.6739 21 13.4021 20.4732 12.4645 19.5355C11.5268 18.5979 11 17.3261 11 16V10.5" stroke="#344054" stroke-width="1.5" stroke-linecap="round" stroke-linejoin="round"/>
<path d="M22.05 22.6625C20.8228 23.7786 19.3109 24.5338 17.6814 24.8447C16.0519 25.1556 14.3682 25.01 12.8162 24.4242C11.2642 23.8383 9.90438 22.8349 8.88682 21.5247C7.86927 20.2146 7.23361 18.6487 7.05005 17" stroke="#344054" stroke-width="1.5" stroke-linecap="round" stroke-linejoin="round"/>
<path d="M24.9501 17C24.8429 17.9647 24.5812 18.9059 24.175 19.7875" stroke="#344054" stroke-width="1.5" stroke-linecap="round" stroke-linejoin="round"/>
<path d="M11.75 5.37501C12.1955 4.64815 12.8204 4.04799 13.5646 3.63211C14.3088 3.21622 15.1475 2.99856 16 3.00001V3.00001C17.3261 3.00001 18.5979 3.52679 19.5355 4.46447C20.4732 5.40216 21 6.67392 21 8.00001V15.55" stroke="#344054" stroke-width="1.5" stroke-linecap="round" stroke-linejoin="round"/>
</svg>
