<svg width="32" height="32" viewBox="0 0 32 32" fill="none" xmlns="http://www.w3.org/2000/svg">
<path d="M21 19C25.4183 19 29 15.4183 29 11C29 6.58172 25.4183 3 21 3C16.5817 3 13 6.58172 13 11C13 15.4183 16.5817 19 21 19Z" stroke="#344054" stroke-width="1.5" stroke-linecap="round" stroke-linejoin="round"/>
<path d="M26.6625 16.6625L15.3375 5.33752" stroke="#344054" stroke-width="1.5" stroke-linecap="round" stroke-linejoin="round"/>
<path d="M12.5 19.5L11 21" stroke="#344054" stroke-width="1.5" stroke-linecap="round" stroke-linejoin="round"/>
<path d="M13.1 12.2375L3.51254 25.3125C3.36842 25.5043 3.29908 25.7421 3.31749 25.9813C3.33589 26.2206 3.44077 26.4449 3.61254 26.6125L5.38754 28.3875C5.55509 28.5593 5.77944 28.6641 6.01869 28.6825C6.25793 28.7009 6.49569 28.6316 6.68754 28.4875L19.7625 18.9" stroke="#344054" stroke-width="1.5" stroke-linecap="round" stroke-linejoin="round"/>
</svg>
