<svg width="32" height="32" viewBox="0 0 32 32" fill="none" xmlns="http://www.w3.org/2000/svg">
<path d="M20 13H30" stroke="#344054" stroke-width="1.5" stroke-linecap="round" stroke-linejoin="round"/>
<path d="M20 17H30" stroke="#344054" stroke-width="1.5" stroke-linecap="round" stroke-linejoin="round"/>
<path d="M20 21H30" stroke="#344054" stroke-width="1.5" stroke-linecap="round" stroke-linejoin="round"/>
<path d="M9 25H30" stroke="#344054" stroke-width="1.5" stroke-linecap="round" stroke-linejoin="round"/>
<path d="M15.8125 16.45C15.5408 17.5409 14.9681 18.5336 14.1596 19.3148C13.3511 20.0961 12.3393 20.6344 11.2397 20.8685C10.1401 21.1026 8.99677 21.023 7.94017 20.6389C6.88357 20.2547 5.95615 19.5814 5.26366 18.6957C4.57116 17.81 4.14144 16.7476 4.02348 15.6295C3.90552 14.5115 4.10406 13.3827 4.59649 12.372C5.08891 11.3613 5.8554 10.5093 6.80857 9.91313C7.76174 9.31693 8.86324 9.00053 9.98752 9" stroke="#344054" stroke-width="1.5" stroke-linecap="round" stroke-linejoin="round"/>
<path d="M9.98755 14.3125V20.9875" stroke="#344054" stroke-width="1.5" stroke-linecap="round" stroke-linejoin="round"/>
<path d="M13.9874 6.5C14.6505 6.5 15.2864 6.76339 15.7552 7.23223C16.224 7.70107 16.4874 8.33696 16.4874 9C16.4874 9.66304 16.224 10.2989 15.7552 10.7678C15.2864 11.2366 14.6505 11.5 13.9874 11.5L5.98744 6.5C5.3934 6.50133 4.81924 6.71415 4.36784 7.10033C3.91645 7.48651 3.61732 8.02081 3.52405 8.60749C3.43079 9.19417 3.54948 9.79488 3.85886 10.302C4.16824 10.8091 4.6481 11.1895 5.21244 11.375" stroke="#344054" stroke-width="1.5" stroke-linecap="round" stroke-linejoin="round"/>
</svg>
