<svg width="32" height="32" viewBox="0 0 32 32" fill="none" xmlns="http://www.w3.org/2000/svg">
<path d="M15.2625 4.79998L5.55002 15.325C5.41909 15.4681 5.33261 15.6462 5.30111 15.8376C5.26962 16.029 5.29446 16.2254 5.37263 16.4029C5.45079 16.5805 5.5789 16.7314 5.74134 16.8374C5.90379 16.9434 6.09355 16.9999 6.28752 17H25.7125C25.9065 16.9999 26.0963 16.9434 26.2587 16.8374C26.4212 16.7314 26.5493 16.5805 26.6274 16.4029C26.7056 16.2254 26.7304 16.029 26.6989 15.8376C26.6674 15.6462 26.581 15.4681 26.45 15.325L16.7375 4.79998C16.6449 4.69594 16.5313 4.61268 16.4042 4.55567C16.2771 4.49865 16.1393 4.46918 16 4.46918C15.8607 4.46918 15.723 4.49865 15.5959 4.55567C15.4688 4.61268 15.3552 4.69594 15.2625 4.79998V4.79998Z" stroke="#344054" stroke-width="1.5" stroke-linecap="round" stroke-linejoin="round"/>
<path d="M5 22V25C5 25.5523 5.44772 26 6 26H26C26.5523 26 27 25.5523 27 25V22C27 21.4477 26.5523 21 26 21H6C5.44772 21 5 21.4477 5 22Z" stroke="#344054" stroke-width="1.5" stroke-linecap="round" stroke-linejoin="round"/>
</svg>
