<svg width="32" height="32" viewBox="0 0 32 32" fill="none" xmlns="http://www.w3.org/2000/svg">
<path d="M8.39997 15.15L23.475 5.925C23.6273 5.83102 23.8021 5.77965 23.981 5.77624C24.16 5.77284 24.3365 5.81752 24.4923 5.90563C24.6481 5.99374 24.7774 6.12205 24.8667 6.27717C24.956 6.43229 25.002 6.60853 25 6.7875V25.2125C25.002 25.3915 24.956 25.5677 24.8667 25.7228C24.7774 25.8779 24.6481 26.0063 24.4923 26.0944C24.3365 26.1825 24.16 26.2272 23.981 26.2238C23.8021 26.2204 23.6273 26.169 23.475 26.075L8.39997 16.85C8.25526 16.7603 8.13585 16.6352 8.05303 16.4864C7.97022 16.3377 7.92676 16.1702 7.92676 16C7.92676 15.8298 7.97022 15.6623 8.05303 15.5136C8.13585 15.3648 8.25526 15.2397 8.39997 15.15Z" stroke="#344054" stroke-width="1.5" stroke-linecap="round" stroke-linejoin="round"/>
<path d="M7 5V27" stroke="#344054" stroke-width="1.5" stroke-linecap="round" stroke-linejoin="round"/>
</svg>
