<svg width="32" height="32" viewBox="0 0 32 32" fill="none" xmlns="http://www.w3.org/2000/svg">
<path d="M27.3625 9.63751C28.1993 10.4723 28.8632 11.464 29.3162 12.5558C29.7692 13.6476 30.0023 14.818 30.0023 16C30.0023 17.182 29.7692 18.3524 29.3162 19.4442C28.8632 20.536 28.1993 21.5277 27.3625 22.3625" stroke="#344054" stroke-width="1.5" stroke-linecap="round" stroke-linejoin="round"/>
<path d="M10 21H4C3.73478 21 3.48043 20.8946 3.29289 20.7071C3.10536 20.5196 3 20.2652 3 20V12C3 11.7348 3.10536 11.4804 3.29289 11.2929C3.48043 11.1054 3.73478 11 4 11H10L19 4V28L10 21Z" stroke="#344054" stroke-width="1.5" stroke-linecap="round" stroke-linejoin="round"/>
<path d="M10 11V21" stroke="#344054" stroke-width="1.5" stroke-linecap="round" stroke-linejoin="round"/>
<path d="M23.825 13.175C24.1968 13.5455 24.4919 13.9857 24.6933 14.4705C24.8946 14.9553 24.9983 15.4751 24.9983 16C24.9983 16.5249 24.8946 17.0447 24.6933 17.5295C24.4919 18.0143 24.1968 18.4545 23.825 18.825" stroke="#344054" stroke-width="1.5" stroke-linecap="round" stroke-linejoin="round"/>
</svg>
