<svg width="32" height="32" viewBox="0 0 32 32" fill="none" xmlns="http://www.w3.org/2000/svg">
<path d="M23.6 15.15L8.525 5.925C8.37268 5.83102 8.19792 5.77965 8.01897 5.77624C7.84002 5.77284 7.66344 5.81752 7.50765 5.90563C7.35185 5.99374 7.22257 6.12205 7.13327 6.27717C7.04398 6.43229 6.99796 6.60853 7 6.7875V25.2125C6.99796 25.3915 7.04398 25.5677 7.13327 25.7228C7.22257 25.8779 7.35185 26.0063 7.50765 26.0944C7.66344 26.1825 7.84002 26.2272 8.01897 26.2238C8.19792 26.2204 8.37268 26.169 8.525 26.075L23.6 16.85C23.7447 16.7603 23.8641 16.6352 23.9469 16.4864C24.0298 16.3377 24.0732 16.1702 24.0732 16C24.0732 15.8298 24.0298 15.6623 23.9469 15.5136C23.8641 15.3648 23.7447 15.2397 23.6 15.15Z" stroke="#344054" stroke-width="1.5" stroke-linecap="round" stroke-linejoin="round"/>
<path d="M25 5V27" stroke="#344054" stroke-width="1.5" stroke-linecap="round" stroke-linejoin="round"/>
</svg>
