<svg width="32" height="32" viewBox="0 0 32 32" fill="none" xmlns="http://www.w3.org/2000/svg">
<path d="M1.81249 15.1625L12.9625 7.9875C13.1141 7.89084 13.289 7.83685 13.4688 7.83124C13.6485 7.82562 13.8265 7.86858 13.9838 7.95559C14.1412 8.0426 14.2722 8.17043 14.3631 8.32564C14.4539 8.48084 14.5012 8.65767 14.5 8.8375V23.1625C14.5012 23.3423 14.4539 23.5192 14.3631 23.6744C14.2722 23.8296 14.1412 23.9574 13.9838 24.0444C13.8265 24.1314 13.6485 24.1744 13.4688 24.1688C13.289 24.1631 13.1141 24.1092 12.9625 24.0125L1.81249 16.8375C1.67042 16.7487 1.55326 16.6253 1.47204 16.4788C1.39082 16.3323 1.34821 16.1675 1.34821 16C1.34821 15.8325 1.39082 15.6677 1.47204 15.5212C1.55326 15.3747 1.67042 15.2513 1.81249 15.1625V15.1625Z" stroke="#344054" stroke-width="1.5" stroke-linecap="round" stroke-linejoin="round"/>
<path d="M15.8125 15.1625L26.9625 7.9875C27.1141 7.89084 27.289 7.83685 27.4688 7.83124C27.6485 7.82562 27.8265 7.86858 27.9838 7.95559C28.1412 8.0426 28.2722 8.17043 28.3631 8.32564C28.4539 8.48084 28.5012 8.65767 28.5 8.8375V23.1625C28.5012 23.3423 28.4539 23.5192 28.3631 23.6744C28.2722 23.8296 28.1412 23.9574 27.9838 24.0444C27.8265 24.1314 27.6485 24.1744 27.4688 24.1688C27.289 24.1631 27.1141 24.1092 26.9625 24.0125L15.8125 16.8375C15.6704 16.7487 15.5533 16.6253 15.472 16.4788C15.3908 16.3323 15.3482 16.1675 15.3482 16C15.3482 15.8325 15.3908 15.6677 15.472 15.5212C15.5533 15.3747 15.6704 15.2513 15.8125 15.1625V15.1625Z" stroke="#344054" stroke-width="1.5" stroke-linecap="round" stroke-linejoin="round"/>
</svg>
