<svg width="32" height="32" viewBox="0 0 32 32" fill="none" xmlns="http://www.w3.org/2000/svg">
<path d="M29.875 25.775L28.0875 9.77498C28.0349 9.28551 27.8025 8.83299 27.4353 8.50506C27.0681 8.17714 26.5923 7.99716 26.1 7.99998H21.9125C21.6719 6.60634 20.9466 5.3425 19.8649 4.43151C18.7831 3.52051 17.4143 3.02094 16 3.02094C14.5857 3.02094 13.2169 3.52051 12.1351 4.43151C11.0534 5.3425 10.3282 6.60634 10.0875 7.99998H5.9C5.40771 7.99716 4.9319 8.17714 4.56472 8.50506C4.19754 8.83299 3.96513 9.28551 3.9125 9.77498L2.125 25.775C2.09473 26.0559 2.12357 26.34 2.20968 26.6091C2.29579 26.8782 2.43727 27.1263 2.625 27.3375C2.81211 27.5467 3.0414 27.7139 3.29779 27.8281C3.55417 27.9423 3.83184 28.0008 4.1125 28H27.8875C28.1682 28.0008 28.4458 27.9423 28.7022 27.8281C28.9586 27.7139 29.1879 27.5467 29.375 27.3375C29.5627 27.1263 29.7042 26.8782 29.7903 26.6091C29.8764 26.34 29.9053 26.0559 29.875 25.775ZM12 13C12 13.2652 11.8946 13.5196 11.7071 13.7071C11.5196 13.8946 11.2652 14 11 14C10.7348 14 10.4804 13.8946 10.2929 13.7071C10.1054 13.5196 10 13.2652 10 13V11C10 10.7348 10.1054 10.4804 10.2929 10.2929C10.4804 10.1053 10.7348 9.99998 11 9.99998C11.2652 9.99998 11.5196 10.1053 11.7071 10.2929C11.8946 10.4804 12 10.7348 12 11V13ZM12.125 7.99998C12.3453 7.13957 12.8457 6.37694 13.5473 5.83234C14.2489 5.28774 15.1118 4.99214 16 4.99214C16.8882 4.99214 17.7511 5.28774 18.4527 5.83234C19.1543 6.37694 19.6547 7.13957 19.875 7.99998H12.125ZM22 13C22 13.2652 21.8946 13.5196 21.7071 13.7071C21.5196 13.8946 21.2652 14 21 14C20.7348 14 20.4804 13.8946 20.2929 13.7071C20.1054 13.5196 20 13.2652 20 13V11C20 10.7348 20.1054 10.4804 20.2929 10.2929C20.4804 10.1053 20.7348 9.99998 21 9.99998C21.2652 9.99998 21.5196 10.1053 21.7071 10.2929C21.8946 10.4804 22 10.7348 22 11V13Z" fill="#344054"/>
</svg>
