<svg width="32" height="32" viewBox="0 0 32 32" fill="none" xmlns="http://www.w3.org/2000/svg">
<path d="M28.2375 14.3625C28.0056 14.1758 27.7344 14.044 27.4444 13.9769C27.1543 13.9098 26.8528 13.9092 26.5625 13.975C26.1263 14.0762 25.6729 14.078 25.2359 13.9804C24.7989 13.8827 24.3894 13.6881 24.0378 13.4108C23.6861 13.1336 23.4013 12.7809 23.2044 12.3787C23.0074 11.9766 22.9034 11.5353 22.9 11.0875C22.8967 10.5614 22.6863 10.0578 22.3143 9.68575C21.9422 9.31373 21.4386 9.10328 20.9125 9.1C20.4647 9.09659 20.0234 8.99257 19.6213 8.79563C19.2191 8.59869 18.8664 8.31386 18.5892 7.96222C18.3119 7.61057 18.1173 7.2011 18.0196 6.76409C17.922 6.32708 17.9238 5.87371 18.025 5.4375C18.0881 5.14531 18.0854 4.84273 18.017 4.55174C17.9485 4.26075 17.8161 3.98865 17.6294 3.75523C17.4427 3.5218 17.2063 3.33291 16.9374 3.20227C16.6685 3.07164 16.3739 3.00254 16.075 3H16C14.2859 3.00162 12.589 3.34188 11.0068 4.00124C9.42458 4.6606 7.98823 5.62607 6.78025 6.84218C5.57227 8.05829 4.61646 9.50109 3.96773 11.0877C3.31899 12.6743 2.99012 14.3734 3 16.0875C3.02155 19.5353 4.41186 22.8334 6.86507 25.2561C8.07977 26.4557 9.51887 27.4043 11.1002 28.0478C12.6815 28.6912 14.3741 29.0169 16.0813 29.0063C17.7884 28.9956 19.4768 28.6488 21.05 27.9856C22.6231 27.3224 24.0502 26.3559 25.2498 25.1412C26.4495 23.9265 27.3981 22.4874 28.0415 20.9061C28.685 19.3248 29.0107 17.6322 29 15.925C29.0015 15.6235 28.9335 15.3257 28.8012 15.0547C28.669 14.7837 28.4761 14.5469 28.2375 14.3625ZM9.4375 12.4375C9.64749 12.2282 9.91477 12.0859 10.2056 12.0284C10.4964 11.971 10.7978 12.001 11.0715 12.1147C11.3453 12.2284 11.5793 12.4206 11.7439 12.6672C11.9085 12.9137 11.9963 13.2035 11.9963 13.5C11.9963 13.7965 11.9085 14.0863 11.7439 14.3328C11.5793 14.5794 11.3453 14.7716 11.0715 14.8853C10.7978 14.999 10.4964 15.029 10.2056 14.9716C9.91477 14.9141 9.64749 14.7718 9.4375 14.5625C9.29766 14.4231 9.18671 14.2576 9.111 14.0752C9.03529 13.8929 8.99632 13.6974 8.99632 13.5C8.99632 13.3026 9.03529 13.1071 9.111 12.9248C9.18671 12.7424 9.29766 12.5769 9.4375 12.4375ZM12.5625 21.5625C12.3525 21.7718 12.0852 21.9141 11.7944 21.9716C11.5036 22.029 11.2022 21.999 10.9285 21.8853C10.6547 21.7716 10.4207 21.5794 10.2561 21.3328C10.0915 21.0863 10.0037 20.7964 10.0037 20.5C10.0037 20.2036 10.0915 19.9137 10.2561 19.6672C10.4207 19.4206 10.6547 19.2284 10.9285 19.1147C11.2022 19.001 11.5036 18.971 11.7944 19.0284C12.0852 19.0859 12.3525 19.2282 12.5625 19.4375C12.7023 19.5769 12.8133 19.7424 12.889 19.9248C12.9647 20.1071 13.0037 20.3026 13.0037 20.5C13.0037 20.6974 12.9647 20.8929 12.889 21.0752C12.8133 21.2576 12.7023 21.4231 12.5625 21.5625ZM15.9375 16.5625C15.7282 16.3525 15.5859 16.0852 15.5284 15.7944C15.471 15.5036 15.501 15.2022 15.6147 14.9285C15.7284 14.6547 15.9206 14.4207 16.1672 14.2561C16.4138 14.0915 16.7036 14.0037 17 14.0037C17.2965 14.0037 17.5863 14.0915 17.8328 14.2561C18.0794 14.4207 18.2716 14.6547 18.3853 14.9285C18.499 15.2022 18.529 15.5036 18.4716 15.7944C18.4141 16.0852 18.2718 16.3525 18.0625 16.5625C17.9231 16.7023 17.7576 16.8133 17.5752 16.889C17.3929 16.9647 17.1974 17.0037 17 17.0037C16.8026 17.0037 16.6071 16.9647 16.4248 16.889C16.2424 16.8133 16.0769 16.7023 15.9375 16.5625ZM20.5625 22.5625C20.3525 22.7718 20.0852 22.9141 19.7944 22.9716C19.5036 23.029 19.2022 22.999 18.9285 22.8853C18.6547 22.7716 18.4207 22.5794 18.2561 22.3328C18.0915 22.0863 18.0037 21.7964 18.0037 21.5C18.0037 21.2036 18.0915 20.9137 18.2561 20.6672C18.4207 20.4206 18.6547 20.2284 18.9285 20.1147C19.2022 20.001 19.5036 19.971 19.7944 20.0284C20.0852 20.0859 20.3525 20.2282 20.5625 20.4375C20.7023 20.5769 20.8133 20.7424 20.889 20.9248C20.9647 21.1071 21.0037 21.3026 21.0037 21.5C21.0037 21.6974 20.9647 21.8929 20.889 22.0752C20.8133 22.2576 20.7023 22.4231 20.5625 22.5625Z" fill="#344054"/>
</svg>
