<svg width="32" height="32" viewBox="0 0 32 32" fill="none" xmlns="http://www.w3.org/2000/svg">
<path d="M25 2C24.7348 2 24.4804 2.10536 24.2929 2.29289C24.1054 2.48043 24 2.73478 24 3V5H20V3C20 2.73478 19.8946 2.48043 19.7071 2.29289C19.5196 2.10536 19.2652 2 19 2C18.7348 2 18.4804 2.10536 18.2929 2.29289C18.1054 2.48043 18 2.73478 18 3V5H14V3C14 2.73478 13.8946 2.48043 13.7071 2.29289C13.5196 2.10536 13.2652 2 13 2C12.7348 2 12.4804 2.10536 12.2929 2.29289C12.1054 2.48043 12 2.73478 12 3V5H8V3C8 2.73478 7.89464 2.48043 7.70711 2.29289C7.51957 2.10536 7.26522 2 7 2C6.73478 2 6.48043 2.10536 6.29289 2.29289C6.10536 2.48043 6 2.73478 6 3V29C6 29.2652 6.10536 29.5196 6.29289 29.7071C6.48043 29.8946 6.73478 30 7 30C7.26522 30 7.51957 29.8946 7.70711 29.7071C7.89464 29.5196 8 29.2652 8 29V27H12V29C12 29.2652 12.1054 29.5196 12.2929 29.7071C12.4804 29.8946 12.7348 30 13 30C13.2652 30 13.5196 29.8946 13.7071 29.7071C13.8946 29.5196 14 29.2652 14 29V27H18V29C18 29.2652 18.1054 29.5196 18.2929 29.7071C18.4804 29.8946 18.7348 30 19 30C19.2652 30 19.5196 29.8946 19.7071 29.7071C19.8946 29.5196 20 29.2652 20 29V27H24V29C24 29.2652 24.1054 29.5196 24.2929 29.7071C24.4804 29.8946 24.7348 30 25 30C25.2652 30 25.5196 29.8946 25.7071 29.7071C25.8946 29.5196 26 29.2652 26 29V3C26 2.73478 25.8946 2.48043 25.7071 2.29289C25.5196 2.10536 25.2652 2 25 2ZM8 7H24V25H8V7ZM15.1375 21.5125L12.1375 16.5125C12.045 16.3575 11.9962 16.1805 11.9962 16C11.9962 15.8195 12.045 15.6425 12.1375 15.4875L15.1375 10.4875C15.2281 10.3401 15.3549 10.2185 15.5059 10.1341C15.6569 10.0496 15.827 10.0053 16 10.0053C16.173 10.0053 16.3431 10.0496 16.4941 10.1341C16.6451 10.2185 16.7719 10.3401 16.8625 10.4875L19.8625 15.4875C19.955 15.6425 20.0038 15.8195 20.0038 16C20.0038 16.1805 19.955 16.3575 19.8625 16.5125L16.8625 21.5125C16.7719 21.6599 16.6451 21.7815 16.4941 21.8659C16.3431 21.9504 16.173 21.9947 16 21.9947C15.827 21.9947 15.6569 21.9504 15.5059 21.8659C15.3549 21.7815 15.2281 21.6599 15.1375 21.5125Z" fill="#344054"/>
</svg>
