<svg width="32" height="32" viewBox="0 0 32 32" fill="none" xmlns="http://www.w3.org/2000/svg">
<path d="M23.3375 7.45001L23.25 7.31251C23.2057 7.25157 23.1485 7.20116 23.0825 7.16486C23.0164 7.12855 22.9432 7.10726 22.868 7.10248C22.7928 7.09771 22.7175 7.10957 22.6474 7.13723C22.5773 7.16489 22.5142 7.20767 22.4625 7.26251L17.9375 12.3L20.1875 13.175C20.406 13.261 20.5877 13.4202 20.7017 13.6254C20.8158 13.8307 20.8549 14.0691 20.8125 14.3L19.9125 18.9375C19.8665 19.1659 19.7431 19.3714 19.5633 19.5194C19.3834 19.6674 19.158 19.7488 18.925 19.75H18.7375C18.4759 19.6873 18.2484 19.5265 18.1018 19.3009C17.9553 19.0753 17.901 18.802 17.95 18.5375L18.6875 14.75L15.8625 13.6625C15.713 13.6015 15.5798 13.5065 15.4734 13.385C15.3671 13.2635 15.2906 13.1188 15.25 12.9625C15.2131 12.8054 15.2142 12.6418 15.2534 12.4852C15.2925 12.3287 15.3685 12.1837 15.475 12.0625L21.3 5.57501C21.3863 5.48056 21.433 5.35665 21.4307 5.22877C21.4284 5.10089 21.3771 4.97876 21.2875 4.88751C19.525 3.05001 17.6625 2.01251 16 2.01251C13.6875 2.01251 10.9375 4.05001 8.66251 7.46251C6.38751 10.875 5.16251 14.6625 5.01251 18.3125C4.75001 24.625 9.70001 30.0125 16.025 30C18.937 29.9901 21.7266 28.8272 23.7834 26.7657C25.8402 24.7043 26.9967 21.9121 27 19C27 15.15 25.6625 10.9375 23.3375 7.45001Z" fill="#344054"/>
</svg>
