<svg width="32" height="32" viewBox="0 0 32 32" fill="none" xmlns="http://www.w3.org/2000/svg">
<path d="M26.5375 5.46249C25.598 4.52666 24.326 4.00122 23 4.00122C21.674 4.00122 20.402 4.52666 19.4625 5.46249L16.4625 8.46249C16.3183 8.60952 16.2224 8.79702 16.1875 8.99999C15.0875 15.4125 4.50001 26.0875 4.30001 26.2875H4.28751C4.09973 26.4771 3.99438 26.7331 3.99438 27C3.99438 27.2668 4.09973 27.5229 4.28751 27.7125C4.47865 27.8973 4.73413 28.0006 5.00001 28.0006C5.26589 28.0006 5.52137 27.8973 5.71251 27.7125C5.81251 27.6 16.5625 16.9125 23 15.8125C23.203 15.7776 23.3905 15.6817 23.5375 15.5375L26.5375 12.5375C27.4733 11.598 27.9988 10.326 27.9988 8.99999C27.9988 7.67396 27.4733 6.40195 26.5375 5.46249ZM23.7125 9.71249L21.7125 11.7125C21.5214 11.8973 21.2659 12.0006 21 12.0006C20.7341 12.0006 20.4786 11.8973 20.2875 11.7125C20.0997 11.5229 19.9944 11.2668 19.9944 11C19.9944 10.7331 20.0997 10.4771 20.2875 10.2875L22.2875 8.28749C22.4818 8.12803 22.7285 8.04653 22.9795 8.05886C23.2306 8.07119 23.4681 8.17646 23.6458 8.3542C23.8235 8.53193 23.9288 8.76942 23.9411 9.02048C23.9535 9.27153 23.872 9.51819 23.7125 9.71249Z" fill="#344054"/>
</svg>
