<svg width="32" height="32" viewBox="0 0 32 32" fill="none" xmlns="http://www.w3.org/2000/svg">
<path d="M25.75 10H17V8.67502C18.4375 8.03752 19.275 7.11252 19.5125 5.92502C20.025 3.25002 17 0.537524 16.65 0.250024C16.4736 0.0918389 16.2456 0.00332307 16.0086 0.00102255C15.7717 -0.00127796 15.542 0.0827943 15.3625 0.237524C15 0.525024 11.8875 3.21252 12.3875 5.90002C12.6125 7.11252 13.5 8.05002 15 8.68752V10H6.25C5.19015 10.0033 4.17465 10.4258 3.42521 11.1752C2.67578 11.9247 2.2533 12.9402 2.25 14V15.6625C2.25221 16.3769 2.39584 17.0838 2.67259 17.7425C2.94935 18.4011 3.35376 18.9984 3.8625 19.5L4 19.625V26C4 26.5305 4.21071 27.0392 4.58579 27.4142C4.96086 27.7893 5.46957 28 6 28H26C26.5304 28 27.0391 27.7893 27.4142 27.4142C27.7893 27.0392 28 26.5305 28 26V19.625L28.1375 19.5C28.6462 18.9984 29.0506 18.4011 29.3274 17.7425C29.6042 17.0838 29.7478 16.3769 29.75 15.6625V14C29.7467 12.9402 29.3242 11.9247 28.5748 11.1752C27.8254 10.4258 26.8099 10.0033 25.75 10ZM26 26H6V20.775C6.51726 20.9378 7.0579 21.0138 7.6 21C8.41254 20.9817 9.20986 20.7759 9.92974 20.3986C10.6496 20.0213 11.2726 19.4828 11.75 18.825C12.2352 19.4987 12.8736 20.0474 13.6125 20.4258C14.3515 20.8043 15.1698 21.0017 16 21.0017C16.8302 21.0017 17.6485 20.8043 18.3875 20.4258C19.1264 20.0474 19.7648 19.4987 20.25 18.825C20.7274 19.4828 21.3504 20.0213 22.0703 20.3986C22.7901 20.7759 23.5875 20.9817 24.4 21H24.5C25.0084 21.0006 25.5141 20.9247 26 20.775V26Z" fill="#344054"/>
</svg>
