<svg width="32" height="32" viewBox="0 0 32 32" fill="none" xmlns="http://www.w3.org/2000/svg">
<path d="M30 15.8625L16.9375 2.8C16.7063 2.56673 16.4208 2.3944 16.1067 2.29842C15.7926 2.20244 15.4596 2.18581 15.1375 2.25L5.05 4.275C4.85872 4.3132 4.68304 4.40719 4.54511 4.54511C4.40719 4.68304 4.3132 4.85872 4.275 5.05L2.25 15.1375C2.18581 15.4596 2.20244 15.7926 2.29842 16.1067C2.3944 16.4208 2.56673 16.7063 2.8 16.9375L15.8625 30C16.0473 30.1867 16.2673 30.3349 16.5098 30.4361C16.7522 30.5372 17.0123 30.5893 17.275 30.5893C17.5377 30.5893 17.7978 30.5372 18.0402 30.4361C18.2827 30.3349 18.5027 30.1867 18.6875 30L30 18.6875C30.1867 18.5027 30.3349 18.2827 30.4361 18.0402C30.5372 17.7978 30.5893 17.5377 30.5893 17.275C30.5893 17.0123 30.5372 16.7522 30.4361 16.5098C30.3349 16.2673 30.1867 16.0473 30 15.8625ZM10.5 12C10.2033 12 9.91332 11.912 9.66665 11.7472C9.41997 11.5824 9.22771 11.3481 9.11418 11.074C9.00065 10.7999 8.97094 10.4983 9.02882 10.2074C9.0867 9.91639 9.22956 9.64912 9.43934 9.43934C9.64912 9.22956 9.91639 9.0867 10.2074 9.02882C10.4983 8.97094 10.7999 9.00065 11.074 9.11418C11.3481 9.22771 11.5824 9.41997 11.7472 9.66665C11.912 9.91332 12 10.2033 12 10.5C12 10.8978 11.842 11.2794 11.5607 11.5607C11.2794 11.842 10.8978 12 10.5 12Z" fill="#344054"/>
</svg>
