<svg width="32" height="32" viewBox="0 0 32 32" fill="none" xmlns="http://www.w3.org/2000/svg">
<path d="M29 12H26.5C26.5 11.7348 26.3946 11.4804 26.2071 11.2929C26.0196 11.1054 25.7652 11 25.5 11H16.5C16.2348 11 15.9804 11.1054 15.7929 11.2929C15.6054 11.4804 15.5 11.7348 15.5 12H8V6.5C8 6.10218 8.15804 5.72064 8.43934 5.43934C8.72064 5.15804 9.10218 5 9.5 5C9.89782 5 10.2794 5.15804 10.5607 5.43934C10.842 5.72064 11 6.10218 11 6.5C11 6.76522 11.1054 7.01957 11.2929 7.20711C11.4804 7.39464 11.7348 7.5 12 7.5C12.2652 7.5 12.5196 7.39464 12.7071 7.20711C12.8946 7.01957 13 6.76522 13 6.5C13 5.57174 12.6313 4.6815 11.9749 4.02513C11.3185 3.36875 10.4283 3 9.5 3C8.57174 3 7.6815 3.36875 7.02513 4.02513C6.36875 4.6815 6 5.57174 6 6.5V12H3C2.46957 12 1.96086 12.2107 1.58579 12.5858C1.21071 12.9609 1 13.4696 1 14V18C1 19.8565 1.7375 21.637 3.05025 22.9497C4.36301 24.2625 6.14348 25 8 25V27C8 27.2652 8.10536 27.5196 8.29289 27.7071C8.48043 27.8946 8.73478 28 9 28C9.26522 28 9.51957 27.8946 9.70711 27.7071C9.89464 27.5196 10 27.2652 10 27V25H22V27C22 27.2652 22.1054 27.5196 22.2929 27.7071C22.4804 27.8946 22.7348 28 23 28C23.2652 28 23.5196 27.8946 23.7071 27.7071C23.8946 27.5196 24 27.2652 24 27V25C25.8565 25 27.637 24.2625 28.9497 22.9497C30.2625 21.637 31 19.8565 31 18V14C31 13.4696 30.7893 12.9609 30.4142 12.5858C30.0391 12.2107 29.5304 12 29 12ZM24.5 13V17.5H17.5V13H24.5Z" fill="#344054"/>
</svg>
