<svg width="32" height="32" viewBox="0 0 32 32" fill="none" xmlns="http://www.w3.org/2000/svg">
<path d="M30.7125 5.28752L26.7125 1.28752C26.5182 1.12806 26.2715 1.04657 26.0205 1.0589C25.7694 1.07123 25.5319 1.1765 25.3542 1.35423C25.1765 1.53197 25.0712 1.76946 25.0589 2.02051C25.0465 2.27156 25.128 2.51823 25.2875 2.71252L25.475 2.88752L18.5875 8.06252L13.8 9.02502C13.6083 9.06368 13.4309 9.15452 13.2875 9.28752L11.2875 11.2875L4.2875 18.2875L2.7125 19.875C2.43132 20.1529 2.20807 20.4838 2.05571 20.8486C1.90335 21.2133 1.82489 21.6047 1.82489 22C1.82489 22.3953 1.90335 22.7867 2.05571 23.1515C2.20807 23.5163 2.43132 23.8472 2.7125 24.125L7.875 29.2875C8.15286 29.5687 8.48377 29.792 8.84854 29.9443C9.21331 30.0967 9.60469 30.1751 10 30.1751C10.3953 30.1751 10.7867 30.0967 11.1515 29.9443C11.5162 29.792 11.8471 29.5687 12.125 29.2875L13.7125 27.7125L20.7125 20.7125L22.7125 18.7125C22.8455 18.5691 22.9363 18.3918 22.975 18.2L23.9375 13.4125L29.1125 6.52502L29.2875 6.71252C29.4786 6.89734 29.7341 7.00066 30 7.00066C30.2659 7.00066 30.5214 6.89734 30.7125 6.71252C30.9003 6.52293 31.0056 6.26687 31.0056 6.00002C31.0056 5.73318 30.9003 5.47712 30.7125 5.28752ZM9.2875 27.875L4.125 22.7125C4.03052 22.6195 3.95548 22.5086 3.90427 22.3862C3.85305 22.2639 3.82667 22.1326 3.82667 22C3.82667 21.8674 3.85305 21.7361 3.90427 21.6138C3.95548 21.4915 4.03052 21.3806 4.125 21.2875L5 20.4125L11.5875 27L10.7125 27.875C10.5229 28.0628 10.2668 28.1681 10 28.1681C9.73315 28.1681 9.4771 28.0628 9.2875 27.875ZM22.2 12.4C22.114 12.5194 22.0543 12.6558 22.025 12.8L21.075 17.5125L20 18.5875L13.4125 12L14.4875 10.925L19.2 9.97502C19.3442 9.94572 19.4806 9.88607 19.6 9.80002L26.9 4.32502L27.675 5.10002L22.2 12.4Z" fill="#344054"/>
</svg>
