<svg width="32" height="32" viewBox="0 0 32 32" fill="none" xmlns="http://www.w3.org/2000/svg">
<path d="M27 7.99998H21.9125C21.6719 6.60634 20.9466 5.3425 19.8649 4.43151C18.7831 3.52051 17.4143 3.02094 16 3.02094C14.5857 3.02094 13.2169 3.52051 12.1351 4.43151C11.0534 5.3425 10.3281 6.60634 10.0875 7.99998H5C4.46957 7.99998 3.96086 8.2107 3.58579 8.58577C3.21071 8.96084 3 9.46955 3 9.99998V26C3 26.5304 3.21071 27.0391 3.58579 27.4142C3.96086 27.7893 4.46957 28 5 28H27C27.5304 28 28.0391 27.7893 28.4142 27.4142C28.7893 27.0391 29 26.5304 29 26V9.99998C29 9.46955 28.7893 8.96084 28.4142 8.58577C28.0391 8.2107 27.5304 7.99998 27 7.99998ZM12 13C12 13.2652 11.8946 13.5196 11.7071 13.7071C11.5196 13.8946 11.2652 14 11 14C10.7348 14 10.4804 13.8946 10.2929 13.7071C10.1054 13.5196 10 13.2652 10 13V11C10 10.7348 10.1054 10.4804 10.2929 10.2929C10.4804 10.1053 10.7348 9.99998 11 9.99998C11.2652 9.99998 11.5196 10.1053 11.7071 10.2929C11.8946 10.4804 12 10.7348 12 11V13ZM12.125 7.99998C12.3453 7.13957 12.8457 6.37694 13.5473 5.83234C14.2489 5.28774 15.1118 4.99214 16 4.99214C16.8882 4.99214 17.7511 5.28774 18.4527 5.83234C19.1543 6.37694 19.6547 7.13957 19.875 7.99998H12.125ZM22 13C22 13.2652 21.8946 13.5196 21.7071 13.7071C21.5196 13.8946 21.2652 14 21 14C20.7348 14 20.4804 13.8946 20.2929 13.7071C20.1054 13.5196 20 13.2652 20 13V11C20 10.7348 20.1054 10.4804 20.2929 10.2929C20.4804 10.1053 20.7348 9.99998 21 9.99998C21.2652 9.99998 21.5196 10.1053 21.7071 10.2929C21.8946 10.4804 22 10.7348 22 11V13Z" fill="#344054"/>
</svg>
