<svg width="32" height="32" viewBox="0 0 32 32" fill="none" xmlns="http://www.w3.org/2000/svg">
<path d="M30.15 19.1C29.9703 19.3771 29.7239 19.6046 29.4335 19.7619C29.143 19.9191 28.8178 20.001 28.4875 20H26V24C26 24.2652 25.8947 24.5196 25.7071 24.7071C25.5196 24.8947 25.2652 25 25 25C24.7348 25 24.4805 24.8947 24.2929 24.7071C24.1054 24.5196 24 24.2652 24 24V20H17V26H20C20.2652 26 20.5196 26.1054 20.7071 26.2929C20.8947 26.4804 21 26.7348 21 27C21 27.2652 20.8947 27.5196 20.7071 27.7071C20.5196 27.8947 20.2652 28 20 28H12C11.7348 28 11.4805 27.8947 11.2929 27.7071C11.1054 27.5196 11 27.2652 11 27C11 26.7348 11.1054 26.4804 11.2929 26.2929C11.4805 26.1054 11.7348 26 12 26H15V20H3.51253C3.1828 19.9968 2.85892 19.9126 2.56938 19.7548C2.27983 19.597 2.03348 19.3705 1.852 19.0952C1.67052 18.8199 1.55947 18.5042 1.52861 18.176C1.49775 17.8477 1.54803 17.5168 1.67502 17.2125L6.82502 5.21251C6.97775 4.85184 7.23364 4.54433 7.56056 4.32861C7.88748 4.11289 8.27085 3.99857 8.66253 4.00001H23.3375C23.7292 3.99857 24.1126 4.11289 24.4395 4.32861C24.7664 4.54433 25.0223 4.85184 25.175 5.21251L30.325 17.2125C30.4554 17.5168 30.5076 17.8488 30.477 18.1785C30.4465 18.5081 30.3341 18.8249 30.15 19.1Z" fill="#344054"/>
</svg>
