<svg width="32" height="32" viewBox="0 0 32 32" fill="none" xmlns="http://www.w3.org/2000/svg">
<path d="M25.95 7.975C23.35 6.6875 19.9125 6 16 6C12.0875 6 8.65 6.6875 6.05 7.975C3.45 9.2625 2 11.1 2 13V19C2 20.9 3.475 22.7375 6.05 24.025C8.625 25.3125 12.0875 26 16 26C19.9125 26 23.35 25.3125 25.95 24.025C28.55 22.7375 30 20.9 30 19V13C30 11.1 28.525 9.2625 25.95 7.975ZM15 19.9875V23.9875C12.625 23.9 10.625 23.55 9 23.05V19.125C10.7875 19.625 12.8125 19.9125 15 19.9875ZM17 19.9875C19.1875 19.9125 21.2125 19.625 23 19.125V23.05C21.375 23.55 19.375 23.9 17 23.9875V19.9875ZM4 19V16.6875C4.62919 17.2113 5.31714 17.6601 6.05 18.025L7 18.45V22.25C5.025 21.275 4 20.0375 4 19ZM25 22.25V18.45L25.95 18.025C26.6829 17.6601 27.3708 17.2113 28 16.6875V19C28 20.0375 26.975 21.275 25 22.25Z" fill="#344054"/>
</svg>
