<svg width="32" height="32" viewBox="0 0 32 32" fill="none" xmlns="http://www.w3.org/2000/svg">
<path d="M29 9V20.5C28.994 21.9113 28.4457 23.2663 27.4686 24.2847C26.4914 25.303 25.1602 25.9068 23.7504 25.971C22.3405 26.0352 20.9599 25.555 19.8942 24.6298C18.8285 23.7045 18.1593 22.4049 18.025 21H13.975C13.8407 22.4049 13.1715 23.7045 12.1058 24.6298C11.0401 25.555 9.65951 26.0352 8.24964 25.971C6.83977 25.9068 5.50855 25.303 4.5314 24.2847C3.55426 23.2663 3.00598 21.9113 3 20.5V9C3.0033 7.94015 3.42578 6.92465 4.17521 6.17521C4.92465 5.42578 5.94015 5.0033 7 5C7.26522 5 7.51957 5.10536 7.70711 5.29289C7.89464 5.48043 8 5.73478 8 6C8 6.26522 7.89464 6.51957 7.70711 6.70711C7.51957 6.89464 7.26522 7 7 7C6.46957 7 5.96086 7.21071 5.58579 7.58579C5.21071 7.96086 5 8.46957 5 9V16.2625C5.7037 15.6784 6.54222 15.2795 7.43934 15.1019C8.33646 14.9244 9.26373 14.9738 10.1369 15.2458C11.01 15.5178 11.8013 16.0037 12.4389 16.6594C13.0764 17.315 13.54 18.1196 13.7875 19H18.2125C18.46 18.1196 18.9236 17.315 19.5611 16.6594C20.1987 16.0037 20.99 15.5178 21.8631 15.2458C22.7363 14.9738 23.6635 14.9244 24.5607 15.1019C25.4578 15.2795 26.2963 15.6784 27 16.2625V9C27 8.46957 26.7893 7.96086 26.4142 7.58579C26.0391 7.21071 25.5304 7 25 7C24.7348 7 24.4804 6.89464 24.2929 6.70711C24.1054 6.51957 24 6.26522 24 6C24 5.73478 24.1054 5.48043 24.2929 5.29289C24.4804 5.10536 24.7348 5 25 5C26.0599 5.0033 27.0754 5.42578 27.8248 6.17521C28.5742 6.92465 28.9967 7.94015 29 9Z" fill="#344054"/>
</svg>
