<svg width="32" height="32" viewBox="0 0 32 32" fill="none" xmlns="http://www.w3.org/2000/svg">
<path d="M27 5H5.00002C4.46958 5 3.96088 5.21071 3.5858 5.58579C3.21073 5.96086 3.00002 6.46957 3.00002 7V26C2.999 26.1706 3.04222 26.3386 3.12547 26.4876C3.20872 26.6366 3.32915 26.7614 3.47502 26.85C3.61972 26.941 3.78531 26.9933 3.956 27.0021C4.12669 27.0108 4.29677 26.9757 4.45002 26.9L8.00002 25.1125L11.55 26.9C11.6904 26.9676 11.8442 27.0027 12 27.0027C12.1558 27.0027 12.3096 26.9676 12.45 26.9L16 25.1125L19.55 26.9C19.6909 26.9659 19.8445 27 20 27C20.1555 27 20.3091 26.9659 20.45 26.9L24 25.1125L27.55 26.9C27.7033 26.9757 27.8733 27.0108 28.044 27.0021C28.2147 26.9933 28.3803 26.941 28.525 26.85C28.6709 26.7614 28.7913 26.6366 28.8746 26.4876C28.9578 26.3386 29.001 26.1706 29 26V7C29 6.46957 28.7893 5.96086 28.4142 5.58579C28.0392 5.21071 27.5305 5 27 5ZM22.5 18H9.50002C9.2348 18 8.98045 17.8946 8.79291 17.7071C8.60537 17.5196 8.50002 17.2652 8.50002 17C8.50002 16.7348 8.60537 16.4804 8.79291 16.2929C8.98045 16.1054 9.2348 16 9.50002 16H22.5C22.7652 16 23.0196 16.1054 23.2071 16.2929C23.3947 16.4804 23.5 16.7348 23.5 17C23.5 17.2652 23.3947 17.5196 23.2071 17.7071C23.0196 17.8946 22.7652 18 22.5 18ZM22.5 14H9.50002C9.2348 14 8.98045 13.8946 8.79291 13.7071C8.60537 13.5196 8.50002 13.2652 8.50002 13C8.50002 12.7348 8.60537 12.4804 8.79291 12.2929C8.98045 12.1054 9.2348 12 9.50002 12H22.5C22.7652 12 23.0196 12.1054 23.2071 12.2929C23.3947 12.4804 23.5 12.7348 23.5 13C23.5 13.2652 23.3947 13.5196 23.2071 13.7071C23.0196 13.8946 22.7652 14 22.5 14Z" fill="#344054"/>
</svg>
