<svg width="32" height="32" viewBox="0 0 32 32" fill="none" xmlns="http://www.w3.org/2000/svg">
<path d="M26.2125 13.75L22.9625 2.71251C22.9004 2.50578 22.7732 2.32468 22.5997 2.19626C22.4262 2.06784 22.2158 1.99899 22 2.00001H10C9.78416 1.99899 9.57379 2.06784 9.40031 2.19626C9.22682 2.32468 9.09955 2.50578 9.0375 2.71251L5.7875 13.75C5.51035 14.667 5.57701 15.6536 5.975 16.525C6.77749 18.2979 8.03544 19.8264 9.62076 20.955C11.2061 22.0836 13.0621 22.772 15 22.95V28H11C10.7348 28 10.4804 28.1054 10.2929 28.2929C10.1054 28.4804 10 28.7348 10 29C10 29.2652 10.1054 29.5196 10.2929 29.7071C10.4804 29.8947 10.7348 30 11 30H21C21.2652 30 21.5196 29.8947 21.7071 29.7071C21.8946 29.5196 22 29.2652 22 29C22 28.7348 21.8946 28.4804 21.7071 28.2929C21.5196 28.1054 21.2652 28 21 28H17V22.95C18.9379 22.772 20.7939 22.0836 22.3792 20.955C23.9646 19.8264 25.2225 18.2979 26.025 16.525C26.423 15.6536 26.4897 14.667 26.2125 13.75ZM16.45 12.1C13.175 10.475 10.55 10.475 8.7125 10.9125L10.75 4.00001H21.25L23.85 12.8125C22.5125 13.375 19.975 13.8625 16.45 12.1Z" fill="#344054"/>
</svg>
