<svg width="32" height="32" viewBox="0 0 32 32" fill="none" xmlns="http://www.w3.org/2000/svg">
<path d="M28.0125 9.9875L27.975 9.9375C27.8946 9.13794 27.6395 8.3658 27.2279 7.67566C26.8162 6.98551 26.258 6.39419 25.5927 5.9435C24.9274 5.49281 24.1712 5.19374 23.3776 5.06742C22.584 4.94111 21.7723 4.99063 21 5.2125C20.5612 4.25508 19.8568 3.44376 18.9705 2.87496C18.0842 2.30615 17.0531 2.00378 16 2.00378C14.9468 2.00378 13.9158 2.30615 13.0295 2.87496C12.1431 3.44376 11.4387 4.25508 11 5.2125C10.2276 4.99063 9.41597 4.94111 8.62237 5.06742C7.82877 5.19374 7.07259 5.49281 6.40728 5.9435C5.74197 6.39419 5.18377 6.98551 4.77212 7.67566C4.36047 8.3658 4.10541 9.13794 4.02499 9.9375L3.98749 9.9875C3.73139 10.2245 3.54311 10.5255 3.44204 10.8594C3.34097 11.1934 3.33077 11.5483 3.41249 11.8875L6.84999 26.4625C6.95169 26.9 7.19858 27.2902 7.55043 27.5694C7.90227 27.8486 8.33832 28.0004 8.78749 28H23.2125C23.6617 28.0004 24.0977 27.8486 24.4495 27.5694C24.8014 27.2902 25.0483 26.9 25.15 26.4625L28.5875 11.8875C28.6692 11.5483 28.659 11.1934 28.5579 10.8594C28.4569 10.5255 28.2686 10.2245 28.0125 9.9875ZM9.49999 7C10.0717 6.99867 10.6346 7.14048 11.1375 7.4125C11.2746 7.48124 11.4251 7.5191 11.5785 7.52342C11.7318 7.52774 11.8842 7.49841 12.025 7.4375C12.1657 7.37116 12.2895 7.27366 12.387 7.15238C12.4844 7.03109 12.553 6.88921 12.5875 6.7375C12.7637 5.96423 13.1973 5.27374 13.8173 4.77916C14.4373 4.28457 15.2069 4.01521 16 4.01521C16.7931 4.01521 17.5627 4.28457 18.1826 4.77916C18.8026 5.27374 19.2363 5.96423 19.4125 6.7375C19.447 6.88921 19.5155 7.03109 19.613 7.15238C19.7105 7.27366 19.8342 7.37116 19.975 7.4375C20.1158 7.49841 20.2682 7.52774 20.4215 7.52342C20.5748 7.5191 20.7254 7.48124 20.8625 7.4125C21.3653 7.14048 21.9283 6.99867 22.5 7C23.2653 6.99936 24.0098 7.24962 24.6194 7.71243C25.2289 8.17525 25.67 8.82511 25.875 9.5625L21.05 10.95L16.7375 9.225C16.5042 9.12598 16.2534 9.07495 16 9.07495C15.7466 9.07495 15.4958 9.12598 15.2625 9.225L10.95 10.95L6.12499 9.5625C6.32999 8.82511 6.77105 8.17525 7.38061 7.71243C7.99017 7.24962 8.73464 6.99936 9.49999 7ZM5.36249 11.425L10.1 12.7875L11.8625 26H8.78749L5.36249 11.425ZM23.2125 26H20.1375L21.9 12.7875L26.6375 11.425L23.2125 26Z" fill="#344054"/>
</svg>
