<svg width="32" height="32" viewBox="0 0 32 32" fill="none" xmlns="http://www.w3.org/2000/svg">
<path d="M23 11.2V10.5C23 7.3625 18.275 5 12 5C5.725 5 1 7.3625 1 10.5V15.5C1 18.1125 4.275 20.1875 9 20.8125V21.5C9 24.6375 13.725 27 20 27C26.275 27 31 24.6375 31 21.5V16.5C31 13.9125 27.825 11.8375 23 11.2ZM9 18.775V15.8125C9.99484 15.9403 10.997 16.003 12 16C13.003 16.003 14.0052 15.9403 15 15.8125V18.775C14.0076 18.9296 13.0044 19.0049 12 19C10.9956 19.0049 9.99243 18.9296 9 18.775ZM21 13.7375V15.5C21 16.55 19.45 17.675 17 18.3625V15.4375C18.6125 15.05 19.975 14.4625 21 13.7375ZM3 15.5V13.7375C4.025 14.4625 5.3875 15.05 7 15.4375V18.3625C4.55 17.675 3 16.55 3 15.5ZM11 21.5V20.975L12 21C12.4917 21 12.9667 20.9875 13.425 20.9625C13.925 21.1375 14.45 21.2875 15 21.425V24.3625C12.55 23.675 11 22.55 11 21.5ZM17 24.775V21.8C17.9947 21.9305 18.9968 21.9973 20 22C21.003 22.003 22.0052 21.9403 23 21.8125V24.775C21.0112 25.075 18.9888 25.075 17 24.775ZM25 24.3625V21.4375C26.6125 21.05 27.975 20.4625 29 19.7375V21.5C29 22.55 27.45 23.675 25 24.3625Z" fill="#344054"/>
</svg>
