<svg width="32" height="32" viewBox="0 0 32 32" fill="none" xmlns="http://www.w3.org/2000/svg">
<path d="M24 26C24 26.2652 23.8946 26.5196 23.7071 26.7071C23.5196 26.8946 23.2652 27 23 27H7C6.73478 27 6.48043 26.8946 6.29289 26.7071C6.10536 26.5196 6 26.2652 6 26C6 25.7348 6.10536 25.4804 6.29289 25.2929C6.48043 25.1053 6.73478 25 7 25C7.92724 24.9967 8.81557 24.6269 9.47123 23.9712C10.1269 23.3156 10.4967 22.4272 10.5 21.5V17.5H7C6.73478 17.5 6.48043 17.3946 6.29289 17.2071C6.10536 17.0196 6 16.7652 6 16.5C6 16.2348 6.10536 15.9804 6.29289 15.7929C6.48043 15.6054 6.73478 15.5 7 15.5H10.5V10.5C10.4985 9.21331 10.8789 7.95512 11.593 6.8848C12.3071 5.81448 13.3229 4.98018 14.5115 4.48758C15.7002 3.99499 17.0083 3.86625 18.2702 4.11769C19.5321 4.36912 20.6909 4.98941 21.6 5.89999C21.787 6.08746 21.892 6.34145 21.892 6.60624C21.892 6.87104 21.787 7.12503 21.6 7.31249C21.508 7.40661 21.3982 7.48139 21.2769 7.53244C21.1556 7.5835 21.0253 7.6098 20.8937 7.6098C20.7622 7.6098 20.6319 7.5835 20.5106 7.53244C20.3893 7.48139 20.2795 7.40661 20.1875 7.31249C19.5558 6.687 18.7534 6.26203 17.8811 6.09091C17.0087 5.91978 16.1053 6.01014 15.2841 6.35063C14.4629 6.69112 13.7606 7.26657 13.2653 8.00477C12.77 8.74297 12.5037 9.61103 12.5 10.5V15.5H17C17.2652 15.5 17.5196 15.6054 17.7071 15.7929C17.8946 15.9804 18 16.2348 18 16.5C18 16.7652 17.8946 17.0196 17.7071 17.2071C17.5196 17.3946 17.2652 17.5 17 17.5H12.5V21.5C12.5007 22.7783 12.054 24.0165 11.2375 25H23C23.2652 25 23.5196 25.1053 23.7071 25.2929C23.8946 25.4804 24 25.7348 24 26Z" fill="#344054"/>
</svg>
