<svg width="32" height="32" viewBox="0 0 32 32" fill="none" xmlns="http://www.w3.org/2000/svg">
<path d="M29.4625 17.1126L24.125 25.1126C23.943 25.3865 23.6958 25.611 23.4056 25.7659C23.1155 25.9208 22.7914 26.0012 22.4625 26.0001H2.99999C2.81988 26.0019 2.64278 25.9538 2.48833 25.8612C2.33387 25.7685 2.20811 25.6348 2.12499 25.4751C2.03811 25.3167 1.99571 25.1378 2.00232 24.9574C2.00892 24.7769 2.06427 24.6016 2.16249 24.4501L7.79999 16.0001L2.16249 7.55005C2.06427 7.39851 2.00892 7.22319 2.00232 7.04273C1.99571 6.86226 2.03811 6.68337 2.12499 6.52505C2.20811 6.36526 2.33387 6.23162 2.48833 6.13894C2.64278 6.04627 2.81988 5.9982 2.99999 6.00005H22.4625C22.7914 5.99887 23.1155 6.07933 23.4056 6.23423C23.6958 6.38912 23.943 6.61361 24.125 6.88755L29.4625 14.8876C29.6828 15.2167 29.8005 15.6039 29.8005 16.0001C29.8005 16.3962 29.6828 16.7834 29.4625 17.1126Z" fill="#344054"/>
</svg>
