<svg width="32" height="32" viewBox="0 0 32 32" fill="none" xmlns="http://www.w3.org/2000/svg">
<path d="M29.7125 5.7125C29.8482 5.56792 29.9401 5.38788 29.9777 5.19321C30.0153 4.99855 29.997 4.79722 29.925 4.61251C29.8485 4.4305 29.7198 4.27522 29.5552 4.16622C29.3906 4.05722 29.1974 3.99939 29 4H3C2.80257 3.99939 2.60938 4.05722 2.44477 4.16622C2.28016 4.27522 2.1515 4.4305 2.075 4.61251C2.00295 4.79722 1.98467 4.99855 2.02228 5.19321C2.05989 5.38788 2.15184 5.56792 2.2875 5.7125L15 18.4125V26H11C10.7348 26 10.4804 26.1054 10.2929 26.2929C10.1054 26.4804 10 26.7348 10 27C10 27.2652 10.1054 27.5196 10.2929 27.7071C10.4804 27.8946 10.7348 28 11 28H21C21.2652 28 21.5196 27.8946 21.7071 27.7071C21.8946 27.5196 22 27.2652 22 27C22 26.7348 21.8946 26.4804 21.7071 26.2929C21.5196 26.1054 21.2652 26 21 26H17V18.4125L29.7125 5.7125ZM26.5875 6.00001L24.5875 8H7.4125L5.4125 6.00001H26.5875Z" fill="#344054"/>
</svg>
