<svg width="32" height="32" viewBox="0 0 32 32" fill="none" xmlns="http://www.w3.org/2000/svg">
<path d="M29.375 8.66254C29.1879 8.45335 28.9586 8.28615 28.7022 8.17196C28.4458 8.05778 28.1682 7.99918 27.8875 8.00004H21.9125C21.6719 6.6064 20.9466 5.34256 19.8649 4.43157C18.7831 3.52058 17.4143 3.021 16 3.021C14.5857 3.021 13.2169 3.52058 12.1351 4.43157C11.0534 5.34256 10.3282 6.6064 10.0875 8.00004H4.1125C3.83184 7.99918 3.55417 8.05778 3.29779 8.17196C3.0414 8.28615 2.81211 8.45335 2.625 8.66254C2.43727 8.87369 2.29579 9.12179 2.20968 9.39089C2.12357 9.65999 2.09473 9.94413 2.125 10.225L3.9125 26.225C3.96513 26.7145 4.19754 27.167 4.56472 27.495C4.9319 27.8229 5.40771 28.0029 5.9 28H26.1C26.5923 28.0029 27.0681 27.8229 27.4353 27.495C27.8025 27.167 28.0349 26.7145 28.0875 26.225L29.875 10.225C29.9053 9.94413 29.8764 9.65999 29.7903 9.39089C29.7042 9.12179 29.5627 8.87369 29.375 8.66254ZM12 13C12 13.2653 11.8946 13.5196 11.7071 13.7072C11.5196 13.8947 11.2652 14 11 14C10.7348 14 10.4804 13.8947 10.2929 13.7072C10.1054 13.5196 10 13.2653 10 13V11C10 10.7348 10.1054 10.4805 10.2929 10.2929C10.4804 10.1054 10.7348 10 11 10C11.2652 10 11.5196 10.1054 11.7071 10.2929C11.8946 10.4805 12 10.7348 12 11V13ZM12.125 8.00004C12.3453 7.13963 12.8457 6.37701 13.5473 5.8324C14.2489 5.2878 15.1118 4.9922 16 4.9922C16.8882 4.9922 17.7511 5.2878 18.4527 5.8324C19.1543 6.37701 19.6547 7.13963 19.875 8.00004H12.125ZM22 13C22 13.2653 21.8946 13.5196 21.7071 13.7072C21.5196 13.8947 21.2652 14 21 14C20.7348 14 20.4804 13.8947 20.2929 13.7072C20.1054 13.5196 20 13.2653 20 13V11C20 10.7348 20.1054 10.4805 20.2929 10.2929C20.4804 10.1054 20.7348 10 21 10C21.2652 10 21.5196 10.1054 21.7071 10.2929C21.8946 10.4805 22 10.7348 22 11V13Z" fill="#344054"/>
</svg>
