<svg width="32" height="32" viewBox="0 0 32 32" fill="none" xmlns="http://www.w3.org/2000/svg">
<path d="M4.55 12.2625C4.36329 12.028 4.23064 11.7551 4.16149 11.4634C4.09235 11.1717 4.08843 10.8684 4.15 10.575C5.0625 6.1875 10.05 3 16 3C21.95 3 26.9375 6.1875 27.85 10.575C27.9134 10.8665 27.9108 11.1686 27.8423 11.459C27.7738 11.7494 27.6412 12.0208 27.4543 12.2533C27.2673 12.4858 27.0307 12.6736 26.7617 12.8028C26.4928 12.932 26.1984 12.9994 25.9 13H6.1C5.80339 12.9981 5.51083 12.931 5.24299 12.8036C4.97515 12.6762 4.73858 12.4914 4.55 12.2625ZM28.125 19.075L25.6125 20.075L23.5 20.925L18.875 19.075C18.7562 19.0255 18.6287 19 18.5 19C18.3713 19 18.2438 19.0255 18.125 19.075L13.5 20.925L8.875 19.075C8.75618 19.0255 8.62873 19 8.5 19C8.37127 19 8.24382 19.0255 8.125 19.075L5.6125 20.075L3.125 21.075C2.91115 21.1628 2.73434 21.3221 2.62465 21.5256C2.51497 21.7291 2.47918 21.9643 2.52339 22.1912C2.56759 22.4181 2.68906 22.6227 2.86711 22.7702C3.04517 22.9177 3.26882 22.9989 3.5 23C3.62866 22.9994 3.75599 22.9739 3.875 22.925L5 22.475V23C5 24.3261 5.52678 25.5979 6.46447 26.5355C7.40215 27.4732 8.67392 28 10 28H22C23.3261 28 24.5979 27.4732 25.5355 26.5355C26.4732 25.5979 27 24.3261 27 23V21.675L28.875 20.925C29.1047 20.8151 29.2837 20.6217 29.3757 20.3843C29.4677 20.1468 29.4656 19.8833 29.37 19.6473C29.2743 19.4113 29.0923 19.2208 28.8609 19.1144C28.6296 19.0081 28.3664 18.994 28.125 19.075ZM29 15H3C2.73478 15 2.48043 15.1054 2.29289 15.2929C2.10536 15.4804 2 15.7348 2 16C2 16.2652 2.10536 16.5196 2.29289 16.7071C2.48043 16.8946 2.73478 17 3 17H29C29.2652 17 29.5196 16.8946 29.7071 16.7071C29.8946 16.5196 30 16.2652 30 16C30 15.7348 29.8946 15.4804 29.7071 15.2929C29.5196 15.1054 29.2652 15 29 15Z" fill="#344054"/>
</svg>
