<svg width="32" height="32" viewBox="0 0 32 32" fill="none" xmlns="http://www.w3.org/2000/svg">
<path d="M28.4 13.0625C28.8511 12.968 29.2561 12.7216 29.5473 12.3644C29.8385 12.0072 29.9983 11.5609 30 11.1V8C30 7.46957 29.7893 6.96086 29.4142 6.58579C29.0391 6.21071 28.5304 6 28 6H4C3.46957 6 2.96086 6.21071 2.58579 6.58579C2.21071 6.96086 2 7.46957 2 8V11.1C2.00167 11.5609 2.16146 12.0072 2.45269 12.3644C2.74391 12.7216 3.14891 12.968 3.6 13.0625C4.27551 13.2026 4.88209 13.5712 5.31757 14.1063C5.75306 14.6413 5.99083 15.3101 5.99083 16C5.99083 16.6899 5.75306 17.3587 5.31757 17.8937C4.88209 18.4288 4.27551 18.7974 3.6 18.9375C3.14891 19.032 2.74391 19.2784 2.45269 19.6356C2.16146 19.9928 2.00167 20.4391 2 20.9V24C2 24.5304 2.21071 25.0391 2.58579 25.4142C2.96086 25.7893 3.46957 26 4 26H28C28.5304 26 29.0391 25.7893 29.4142 25.4142C29.7893 25.0391 30 24.5304 30 24V20.9C29.9983 20.4391 29.8385 19.9928 29.5473 19.6356C29.2561 19.2784 28.8511 19.032 28.4 18.9375C27.7245 18.7974 27.1179 18.4288 26.6824 17.8937C26.2469 17.3587 26.0092 16.6899 26.0092 16C26.0092 15.3101 26.2469 14.6413 26.6824 14.1063C27.1179 13.5712 27.7245 13.2026 28.4 13.0625ZM4 20.9C5.13029 20.6705 6.14647 20.0573 6.87638 19.1643C7.60628 18.2712 8.00501 17.1534 8.00501 16C8.00501 14.8466 7.60628 13.7288 6.87638 12.8357C6.14647 11.9427 5.13029 11.3295 4 11.1V8H11V24H4V20.9Z" fill="#344054"/>
</svg>
