<svg width="32" height="32" viewBox="0 0 32 32" fill="none" xmlns="http://www.w3.org/2000/svg">
<path d="M30.2 21.4L17.6625 12L20.6 9.8C20.7235 9.70619 20.8238 9.58527 20.8931 9.44656C20.9625 9.30786 20.999 9.15507 21 9C21 7.67392 20.4732 6.40215 19.5355 5.46447C18.5979 4.52678 17.3261 4 16 4C14.6739 4 13.4021 4.52678 12.4645 5.46447C11.5268 6.40215 11 7.67392 11 9C11 9.26522 11.1054 9.51957 11.2929 9.70711C11.4804 9.89464 11.7348 10 12 10C12.2652 10 12.5196 9.89464 12.7071 9.70711C12.8946 9.51957 13 9.26522 13 9C12.9995 8.24522 13.2834 7.51797 13.7953 6.96329C14.3072 6.40861 15.0094 6.06727 15.7618 6.00733C16.5142 5.94739 17.2615 6.17326 17.8547 6.6399C18.448 7.10654 18.8435 7.77965 18.9625 8.525L15.4125 11.1875L15.3875 11.2125L1.8 21.4C1.46419 21.6519 1.21613 22.003 1.09097 22.4037C0.965813 22.8043 0.969892 23.2342 1.10263 23.6325C1.23537 24.0307 1.49005 24.377 1.83058 24.6225C2.17111 24.8679 2.58024 25 3 25H29C29.4198 25 29.8289 24.8679 30.1694 24.6225C30.51 24.377 30.7646 24.0307 30.8974 23.6325C31.0301 23.2342 31.0342 22.8043 30.909 22.4037C30.7839 22.003 30.5358 21.6519 30.2 21.4ZM3 23L16 13.25L29 23H3Z" fill="#344054"/>
</svg>
