<svg width="32" height="32" viewBox="0 0 32 32" fill="none" xmlns="http://www.w3.org/2000/svg">
<path d="M27.7875 15.3875L16.7875 1.38747C16.694 1.26795 16.5744 1.17129 16.438 1.10481C16.3016 1.03833 16.1518 1.00378 16 1.00378C15.8482 1.00378 15.6984 1.03833 15.562 1.10481C15.4256 1.17129 15.306 1.26795 15.2125 1.38747L4.2125 15.3875C4.07247 15.5609 3.99609 15.7771 3.99609 16C3.99609 16.2229 4.07247 16.439 4.2125 16.6125L15.2125 30.6125C15.306 30.732 15.4256 30.8287 15.562 30.8951C15.6984 30.9616 15.8482 30.9962 16 30.9962C16.1518 30.9962 16.3016 30.9616 16.438 30.8951C16.5744 30.8287 16.694 30.732 16.7875 30.6125L27.7875 16.6125C27.9275 16.439 28.0039 16.2229 28.0039 16C28.0039 15.7771 27.9275 15.5609 27.7875 15.3875ZM17 19.45V4.88747L25.425 15.6125L17 19.45ZM15 19.45L6.575 15.6125L15 4.88747V19.45ZM15 21.65V27.1125L8.325 18.6125L15 21.65Z" fill="#344054"/>
</svg>
