<svg width="32" height="32" viewBox="0 0 32 32" fill="none" xmlns="http://www.w3.org/2000/svg">
<path d="M25 5C24.7348 5 24.4804 5.10536 24.2929 5.29289C24.1054 5.48043 24 5.73478 24 6C24 6.26522 24.1054 6.51957 24.2929 6.70711C24.4804 6.89464 24.7348 7 25 7C25.5304 7 26.0391 7.21071 26.4142 7.58579C26.7893 7.96086 27 8.46957 27 9V16.5H5V9C5 8.46957 5.21071 7.96086 5.58579 7.58579C5.96086 7.21071 6.46957 7 7 7C7.26522 7 7.51957 6.89464 7.70711 6.70711C7.89464 6.51957 8 6.26522 8 6C8 5.73478 7.89464 5.48043 7.70711 5.29289C7.51957 5.10536 7.26522 5 7 5C5.94015 5.0033 4.92465 5.42578 4.17521 6.17521C3.42578 6.92465 3.0033 7.94015 3 9V20.5C3 21.9587 3.57946 23.3576 4.61091 24.3891C5.64236 25.4205 7.04131 26 8.5 26C9.95869 26 11.3576 25.4205 12.3891 24.3891C13.4205 23.3576 14 21.9587 14 20.5V18.5H18V20.5C18 21.9587 18.5795 23.3576 19.6109 24.3891C20.6424 25.4205 22.0413 26 23.5 26C24.9587 26 26.3576 25.4205 27.3891 24.3891C28.4205 23.3576 29 21.9587 29 20.5V9C28.9967 7.94015 28.5742 6.92465 27.8248 6.17521C27.0754 5.42578 26.0599 5.0033 25 5ZM10.625 22.125C10.5349 22.22 10.4263 22.2956 10.3059 22.3472C10.1856 22.3988 10.0559 22.4252 9.925 22.425C9.79227 22.4248 9.66091 22.3981 9.53859 22.3466C9.41626 22.2951 9.30541 22.2198 9.2125 22.125L7.2875 20.2125C7.12804 20.0182 7.04655 19.7715 7.05888 19.5205C7.07121 19.2694 7.17648 19.0319 7.35421 18.8542C7.53195 18.6765 7.76944 18.5712 8.02049 18.5589C8.27154 18.5465 8.5182 18.628 8.7125 18.7875L10.625 20.7125C10.7191 20.8045 10.7939 20.9143 10.8449 21.0356C10.896 21.1569 10.9223 21.2872 10.9223 21.4188C10.9223 21.5503 10.896 21.6806 10.8449 21.8019C10.7939 21.9232 10.7191 22.033 10.625 22.125ZM25.625 22.125C25.5349 22.22 25.4263 22.2956 25.3059 22.3472C25.1856 22.3988 25.0559 22.4252 24.925 22.425C24.7923 22.4248 24.6609 22.3981 24.5386 22.3466C24.4163 22.2951 24.3054 22.2198 24.2125 22.125L22.2875 20.2125C22.128 20.0182 22.0465 19.7715 22.0589 19.5205C22.0712 19.2694 22.1765 19.0319 22.3542 18.8542C22.5319 18.6765 22.7694 18.5712 23.0205 18.5589C23.2715 18.5465 23.5182 18.628 23.7125 18.7875L25.625 20.7125C25.7191 20.8045 25.7939 20.9143 25.8449 21.0356C25.896 21.1569 25.9223 21.2872 25.9223 21.4188C25.9223 21.5503 25.896 21.6806 25.8449 21.8019C25.7939 21.9232 25.7191 22.033 25.625 22.125Z" fill="#344054"/>
</svg>
