<svg width="32" height="32" viewBox="0 0 32 32" fill="none" xmlns="http://www.w3.org/2000/svg">
<path d="M29.875 25.775L28.0875 9.77498C28.0349 9.28551 27.8025 8.83299 27.4353 8.50506C27.0681 8.17714 26.5923 7.99716 26.1 7.99998H21.9125C21.6719 6.60634 20.9466 5.3425 19.8649 4.43151C18.7831 3.52051 17.4143 3.02094 16 3.02094C14.5857 3.02094 13.2169 3.52051 12.1351 4.43151C11.0534 5.3425 10.3282 6.60634 10.0875 7.99998H5.9C5.40771 7.99716 4.9319 8.17714 4.56472 8.50506C4.19754 8.83299 3.96513 9.28551 3.9125 9.77498L2.125 25.775C2.09473 26.0559 2.12357 26.34 2.20968 26.6091C2.29579 26.8782 2.43727 27.1263 2.625 27.3375C2.81211 27.5467 3.0414 27.7139 3.29779 27.8281C3.55417 27.9423 3.83184 28.0008 4.1125 28H27.8875C28.1682 28.0008 28.4458 27.9423 28.7022 27.8281C28.9586 27.7139 29.1879 27.5467 29.375 27.3375C29.5627 27.1263 29.7042 26.8782 29.7903 26.6091C29.8764 26.34 29.9053 26.0559 29.875 25.775ZM16 4.99998C16.8866 5.00167 17.7476 5.29695 18.4487 5.8397C19.1497 6.38244 19.6513 7.14209 19.875 7.99998H12.125C12.3487 7.14209 12.8503 6.38244 13.5513 5.8397C14.2524 5.29695 15.1134 5.00167 16 4.99998Z" fill="#344054"/>
</svg>
