<svg width="32" height="32" viewBox="0 0 32 32" fill="none" xmlns="http://www.w3.org/2000/svg">
<path d="M29.65 18.9875C29.65 18.975 29.6375 18.975 29.6375 18.9625C29.5569 18.7354 29.4608 18.514 29.35 18.3L24.1625 6.47501C24.1106 6.36288 24.0385 6.2612 23.95 6.17501C23.5785 5.80273 23.1372 5.50738 22.6513 5.30586C22.1655 5.10434 21.6447 5.00061 21.1187 5.00061C20.5928 5.00061 20.072 5.10434 19.5862 5.30586C19.1003 5.50738 18.659 5.80273 18.2875 6.17501C18.1959 6.26706 18.1234 6.37626 18.074 6.49638C18.0247 6.61649 17.9995 6.74516 18 6.87501V10.5H14V6.87501C14.0005 6.74516 13.9753 6.61649 13.926 6.49638C13.8766 6.37626 13.8041 6.26706 13.7125 6.17501C13.341 5.80273 12.8997 5.50738 12.4138 5.30586C11.928 5.10434 11.4072 5.00061 10.8813 5.00061C10.3553 5.00061 9.83449 5.10434 9.34867 5.30586C8.86285 5.50738 8.42154 5.80273 8.05 6.17501C7.96145 6.2612 7.88943 6.36288 7.8375 6.47501L2.65 18.2875C2.53918 18.5015 2.44312 18.7229 2.3625 18.95C2.3625 18.9625 2.35 18.9625 2.35 18.975C2.05537 19.7994 1.94473 20.6783 2.02583 21.55C2.10693 22.4217 2.37782 23.2651 2.81947 24.0211C3.26113 24.777 3.86286 25.4271 4.58243 25.9257C5.302 26.4244 6.12199 26.7596 6.98484 26.9077C7.84769 27.0558 8.73251 27.0133 9.5772 26.7832C10.4219 26.5531 11.206 26.1409 11.8745 25.5756C12.5429 25.0102 13.0796 24.3055 13.4468 23.5107C13.814 22.716 14.0028 21.8505 14 20.975V12.5H18V20.975C17.9954 21.851 18.1827 22.7174 18.5486 23.5132C18.9146 24.3091 19.4504 25.0152 20.1184 25.5819C20.7864 26.1486 21.5704 26.5622 22.4152 26.7935C23.2601 27.0249 24.1454 27.0684 25.0089 26.9211C25.8725 26.7738 26.6932 26.4392 27.4136 25.9408C28.134 25.4424 28.7365 24.7923 29.1789 24.0362C29.6212 23.2801 29.8926 22.4363 29.974 21.5641C30.0554 20.6919 29.9448 19.8124 29.65 18.9875ZM11.7625 22.3625C11.3906 23.3441 10.6478 24.1402 9.69431 24.5791C8.74079 25.0179 7.65297 25.0644 6.6655 24.7084C5.67802 24.3525 4.87004 23.6226 4.41582 22.6763C3.9616 21.73 3.89756 20.6431 4.2375 19.65L4.4625 19.1375C4.87889 18.3486 5.54706 17.7215 6.3608 17.3559C7.17453 16.9903 8.08712 16.9072 8.9535 17.1198C9.81987 17.3325 10.5903 17.8286 11.1423 18.5294C11.6943 19.2302 11.9962 20.0954 12 20.9875C12.0017 21.4562 11.9214 21.9216 11.7625 22.3625ZM25.3625 24.7625C24.7582 24.9814 24.1101 25.0515 23.4731 24.9669C22.836 24.8822 22.2287 24.6453 21.7026 24.2761C21.1765 23.907 20.747 23.4165 20.4507 22.8463C20.1543 22.276 19.9997 21.6427 20 21C20.0038 20.1079 20.3057 19.2427 20.8577 18.5419C21.4097 17.8411 22.1801 17.345 23.0465 17.1323C23.9129 16.9197 24.8255 17.0028 25.6392 17.3684C26.4529 17.7339 27.1211 18.3611 27.5375 19.15L27.7625 19.6625C28.1166 20.6573 28.063 21.7517 27.6134 22.707C27.1638 23.6624 26.3547 24.4013 25.3625 24.7625Z" fill="#344054"/>
</svg>
