<svg width="32" height="32" viewBox="0 0 32 32" fill="none" xmlns="http://www.w3.org/2000/svg">
<path d="M28.7375 8.85001C28.7342 8.85001 28.731 8.84869 28.7287 8.84635C28.7263 8.844 28.725 8.84082 28.725 8.83751C28.5443 8.5299 28.2856 8.27549 27.975 8.10001L16.975 1.91251C16.677 1.74611 16.3413 1.65875 16 1.65875C15.6587 1.65875 15.323 1.74611 15.025 1.91251L4.02501 8.10001C3.71441 8.27549 3.45568 8.5299 3.27501 8.83751C3.27501 8.84082 3.27369 8.844 3.27135 8.84635C3.269 8.84869 3.26582 8.85001 3.26251 8.85001V8.87501C3.08969 9.16625 2.99898 9.49885 3.00001 9.83751V22.1625C3.00064 22.5188 3.09587 22.8686 3.27595 23.1761C3.45604 23.4835 3.71453 23.7377 4.02501 23.9125L15.025 30.1C15.3019 30.2511 15.6098 30.3366 15.925 30.35H16.1C16.4072 30.3364 16.707 30.2507 16.975 30.1L27.975 23.9125C28.2855 23.7377 28.544 23.4835 28.7241 23.1761C28.9042 22.8686 28.9994 22.5188 29 22.1625V9.83751C29.0018 9.49086 28.9112 9.14999 28.7375 8.85001ZM16 3.65001L25.9625 9.25001L22.1375 11.425L12.05 5.86251L16 3.65001ZM16.1125 14.85L6.05001 9.25001L10 7.02501L20.1 12.5875L16.1125 14.85ZM17.0125 27.7875L17.1125 16.5875L21.125 14.3V19.0625C21.125 19.3277 21.2304 19.5821 21.4179 19.7696C21.6054 19.9571 21.8598 20.0625 22.125 20.0625C22.3902 20.0625 22.6446 19.9571 22.8321 19.7696C23.0197 19.5821 23.125 19.3277 23.125 19.0625V13.1625L27 10.9625V22.1625L17.0125 27.7875Z" fill="#344054"/>
</svg>
