<svg width="32" height="32" viewBox="0 0 32 32" fill="none" xmlns="http://www.w3.org/2000/svg">
<path d="M26 10C26 10.2652 25.8946 10.5196 25.7071 10.7071C25.5196 10.8946 25.2652 11 25 11H20.9875C20.9875 11.1625 21 11.3375 21 11.5C21 13.4891 20.2098 15.3968 18.8033 16.8033C17.3968 18.2098 15.4891 19 13.5 19H11.5875L20.675 27.2625C20.7733 27.3502 20.853 27.4568 20.9095 27.5758C20.966 27.6948 20.9981 27.8239 21.004 27.9556C21.0098 28.0872 20.9892 28.2187 20.9435 28.3422C20.8977 28.4658 20.8277 28.5789 20.7375 28.675C20.6438 28.7774 20.5299 28.8591 20.4029 28.9151C20.276 28.971 20.1388 29 20 29C19.7506 28.9976 19.5106 28.9042 19.325 28.7375L8.325 18.7375C8.1764 18.6014 8.07237 18.4236 8.02655 18.2274C7.98072 18.0312 7.99525 17.8257 8.06822 17.6379C8.14118 17.4501 8.26919 17.2887 8.43546 17.1748C8.60173 17.061 8.7985 17.0001 9 17H13.5C14.9587 17 16.3576 16.4205 17.3891 15.3891C18.4205 14.3576 19 12.9587 19 11.5C19 11.3375 18.9875 11.1625 18.975 11H9C8.73478 11 8.48043 10.8946 8.29289 10.7071C8.10536 10.5196 8 10.2652 8 10C8 9.73478 8.10536 9.48043 8.29289 9.29289C8.48043 9.10536 8.73478 9 9 9H18.4C17.938 8.09779 17.2362 7.34042 16.3717 6.81115C15.5073 6.28189 14.5136 6.00122 13.5 6H9C8.73478 6 8.48043 5.89464 8.29289 5.70711C8.10536 5.51957 8 5.26522 8 5C8 4.73478 8.10536 4.48043 8.29289 4.29289C8.48043 4.10536 8.73478 4 9 4H25C25.2652 4 25.5196 4.10536 25.7071 4.29289C25.8946 4.48043 26 4.73478 26 5C26 5.26522 25.8946 5.51957 25.7071 5.70711C25.5196 5.89464 25.2652 6 25 6H18.5875C19.4829 6.82454 20.1649 7.85397 20.575 9H25C25.2652 9 25.5196 9.10536 25.7071 9.29289C25.8946 9.48043 26 9.73478 26 10Z" fill="#344054"/>
</svg>
