<svg width="32" height="32" viewBox="0 0 32 32" fill="none" xmlns="http://www.w3.org/2000/svg">
<path d="M26 6H6C5.20536 6.00329 4.44421 6.32042 3.88231 6.88232C3.32042 7.44421 3.00329 8.20536 3 9V23C3.00329 23.7946 3.32042 24.5558 3.88231 25.1177C4.44421 25.6796 5.20536 25.9967 6 26H26C26.7946 25.9967 27.5558 25.6796 28.1177 25.1177C28.6796 24.5558 28.9967 23.7946 29 23V9C28.9967 8.20536 28.6796 7.44421 28.1177 6.88232C27.5558 6.32042 26.7946 6.00329 26 6ZM18.9375 15.6C18.7974 16.2755 18.4288 16.8821 17.8937 17.3176C17.3587 17.7531 16.6899 17.9908 16 17.9908C15.3101 17.9908 14.6413 17.7531 14.1063 17.3176C13.5712 16.8821 13.2026 16.2755 13.0625 15.6C12.968 15.1489 12.7216 14.7439 12.3644 14.4527C12.0072 14.1615 11.5609 14.0017 11.1 14H5V12H27V14H20.9C20.4391 14.0017 19.9928 14.1615 19.6356 14.4527C19.2784 14.7439 19.032 15.1489 18.9375 15.6ZM6 8H26C26.2652 8 26.5196 8.10536 26.7071 8.29289C26.8946 8.48043 27 8.73478 27 9V10H5V9C5 8.73478 5.10536 8.48043 5.29289 8.29289C5.48043 8.10536 5.73478 8 6 8Z" fill="#344054"/>
</svg>
