<svg width="32" height="32" viewBox="0 0 32 32" fill="none" xmlns="http://www.w3.org/2000/svg">
<path d="M21.3125 14.4625C22.0712 13.7315 22.6039 12.7979 22.8474 11.7729C23.0909 10.7479 23.0348 9.67447 22.6859 8.68037C22.337 7.68627 21.7099 6.8133 20.8792 6.16529C20.0485 5.51728 19.0491 5.12149 18 5.025V3C18 2.73478 17.8946 2.48043 17.7071 2.29289C17.5196 2.10536 17.2652 2 17 2C16.7348 2 16.4804 2.10536 16.2929 2.29289C16.1054 2.48043 16 2.73478 16 3V5H14V3C14 2.73478 13.8946 2.48043 13.7071 2.29289C13.5196 2.10536 13.2652 2 13 2C12.7348 2 12.4804 2.10536 12.2929 2.29289C12.1054 2.48043 12 2.73478 12 3V5H8C7.73478 5 7.48043 5.10536 7.29289 5.29289C7.10536 5.48043 7 5.73478 7 6C7 6.26522 7.10536 6.51957 7.29289 6.70711C7.48043 6.89464 7.73478 7 8 7H9V24H8C7.73478 24 7.48043 24.1054 7.29289 24.2929C7.10536 24.4804 7 24.7348 7 25C7 25.2652 7.10536 25.5196 7.29289 25.7071C7.48043 25.8946 7.73478 26 8 26H12V28C12 28.2652 12.1054 28.5196 12.2929 28.7071C12.4804 28.8946 12.7348 29 13 29C13.2652 29 13.5196 28.8946 13.7071 28.7071C13.8946 28.5196 14 28.2652 14 28V26H16V28C16 28.2652 16.1054 28.5196 16.2929 28.7071C16.4804 28.8946 16.7348 29 17 29C17.2652 29 17.5196 28.8946 17.7071 28.7071C17.8946 28.5196 18 28.2652 18 28V26H19C20.3871 26.0006 21.7315 25.5206 22.8045 24.6416C23.8775 23.7627 24.6129 22.5392 24.8855 21.1791C25.1581 19.8191 24.9511 18.4067 24.2996 17.1821C23.6482 15.9576 22.5926 14.9965 21.3125 14.4625ZM21 10.5C20.9967 11.4272 20.6269 12.3156 19.9712 12.9712C19.3156 13.6269 18.4272 13.9967 17.5 14H11V7H17.5C18.4272 7.00329 19.3156 7.3731 19.9712 8.02877C20.6269 8.68443 20.9967 9.57276 21 10.5ZM19 24H11V16H19C20.0609 16 21.0783 16.4214 21.8284 17.1716C22.5786 17.9217 23 18.9391 23 20C23 21.0609 22.5786 22.0783 21.8284 22.8284C21.0783 23.5786 20.0609 24 19 24Z" fill="#344054"/>
</svg>
