<svg width="32" height="32" viewBox="0 0 32 32" fill="none" xmlns="http://www.w3.org/2000/svg">
<path d="M29.9125 10C30.1869 9.5682 30.2855 9.04765 30.1878 8.54542C30.0902 8.04319 29.8038 7.59749 29.3875 7.3C25.4837 4.50331 20.8022 2.99939 16 2.99939C11.1978 2.99939 6.51624 4.50331 2.61249 7.3C2.19624 7.59749 1.90982 8.04319 1.81217 8.54542C1.71451 9.04765 1.81304 9.5682 2.08749 10L14.3125 29.2125C14.4931 29.4964 14.7425 29.7302 15.0374 29.8922C15.3324 30.0541 15.6635 30.139 16 30.139C16.3365 30.139 16.6676 30.0541 16.9626 29.8922C17.2575 29.7302 17.5069 29.4964 17.6875 29.2125L24.9875 17.7375H25L29.9125 10ZM16 28.1375L11.9375 21.7625C12.9475 21.4207 13.8034 20.7313 14.3524 19.8172C14.9015 18.9031 15.1082 17.8237 14.9355 16.7715C14.7629 15.7193 14.2222 14.7625 13.4099 14.0718C12.5975 13.381 11.5663 13.0012 10.5 13C9.89223 12.9971 9.29032 13.1187 8.73136 13.3573C8.1724 13.5959 7.66825 13.9465 7.24999 14.3875L5.92499 12.3125C8.84327 10.1604 12.374 8.9993 16 8.9993C19.626 8.9993 23.1567 10.1604 26.075 12.3125L23.9125 15.7C23.4135 15.3832 22.8569 15.1678 22.2747 15.066C21.6924 14.9643 21.0958 14.9783 20.5189 15.1071C19.3538 15.3673 18.3398 16.0797 17.7 17.0875C17.3832 17.5865 17.1678 18.1431 17.066 18.7253C16.9643 19.3076 16.9783 19.9042 17.1071 20.4811C17.3673 21.6462 18.0797 22.6602 19.0875 23.3L16 28.1375Z" fill="#344054"/>
</svg>
