<svg width="32" height="32" viewBox="0 0 32 32" fill="none" xmlns="http://www.w3.org/2000/svg">
<path d="M29.925 16.625L25.925 6.625L25.8625 6.5125L25.7875 6.4125C25.775 6.4 25.775 6.4 25.775 6.3875L25.675 6.2875C25.6717 6.2875 25.6685 6.28618 25.6662 6.28384C25.6638 6.28149 25.6625 6.27832 25.6625 6.275L25.575 6.2125L25.55 6.1875L25.4375 6.125H25.4125L25.3125 6.0875H25.2875L25.1625 6.0625H24.7875L17 7.75V5C17 4.73478 16.8946 4.48043 16.7071 4.29289C16.5196 4.10536 16.2652 4 16 4C15.7348 4 15.4804 4.10536 15.2929 4.29289C15.1054 4.48043 15 4.73478 15 5V8.2L6.7875 10.025H6.7L6.575 10.075H6.55L6.45 10.125C6.45 10.1266 6.44968 10.1283 6.44905 10.1298C6.44842 10.1313 6.4475 10.1327 6.44634 10.1338C6.44518 10.135 6.4438 10.1359 6.44228 10.1365C6.44077 10.1372 6.43914 10.1375 6.4375 10.1375L6.325 10.225C6.325 10.2283 6.32368 10.2315 6.32134 10.2338C6.31899 10.2362 6.31581 10.2375 6.3125 10.2375L6.2375 10.325H6.225C6.19176 10.3563 6.16611 10.3948 6.15 10.4375L6.125 10.4625L6.075 10.575H6.0625L2.075 20.625C2.02611 20.744 2.00064 20.8713 2 21C2 23.9125 5.0625 25 7 25C8.9375 25 12 23.9125 12 21C11.9994 20.8713 11.9739 20.744 11.925 20.625L8.3625 11.725L15 10.25V26H13C12.7348 26 12.4804 26.1054 12.2929 26.2929C12.1054 26.4804 12 26.7348 12 27C12 27.2652 12.1054 27.5196 12.2929 27.7071C12.4804 27.8946 12.7348 28 13 28H19C19.2652 28 19.5196 27.8946 19.7071 27.7071C19.8946 27.5196 20 27.2652 20 27C20 26.7348 19.8946 26.4804 19.7071 26.2929C19.5196 26.1054 19.2652 26 19 26H17V9.8L23.3625 8.3875L20.075 16.625C20.0261 16.744 20.0006 16.8713 20 17C20 19.9125 23.0625 21 25 21C26.9375 21 30 19.9125 30 17C29.9994 16.8713 29.9739 16.744 29.925 16.625ZM4.075 21L7 13.6875L9.925 21H4.075ZM22.075 17L25 9.6875L27.925 17H22.075Z" fill="#344054"/>
</svg>
