<svg width="32" height="32" viewBox="0 0 32 32" fill="none" xmlns="http://www.w3.org/2000/svg">
<path d="M27 17H25V15H27C27.2652 15 27.5196 14.8946 27.7071 14.7071C27.8946 14.5196 28 14.2652 28 14C28 13.7348 27.8946 13.4804 27.7071 13.2929C27.5196 13.1054 27.2652 13 27 13H25V5.75C25 5.48478 24.8946 5.23043 24.7071 5.04289C24.5196 4.85536 24.2652 4.75 24 4.75C23.7348 4.75 23.4804 4.85536 23.2929 5.04289C23.1054 5.23043 23 5.48478 23 5.75V13H14.925L8.7875 5.1375C8.65943 4.97385 8.48356 4.85417 8.28433 4.79508C8.08511 4.73599 7.87242 4.74044 7.67584 4.8078C7.47925 4.87516 7.30854 5.00209 7.18742 5.17095C7.0663 5.3398 7.00079 5.5422 7 5.75V13H5C4.73478 13 4.48043 13.1054 4.29289 13.2929C4.10536 13.4804 4 13.7348 4 14C4 14.2652 4.10536 14.5196 4.29289 14.7071C4.48043 14.8946 4.73478 15 5 15H7V17H5C4.73478 17 4.48043 17.1054 4.29289 17.2929C4.10536 17.4804 4 17.7348 4 18C4 18.2652 4.10536 18.5196 4.29289 18.7071C4.48043 18.8946 4.73478 19 5 19H7V26.25C7 26.5152 7.10536 26.7696 7.29289 26.9571C7.48043 27.1446 7.73478 27.25 8 27.25C8.26522 27.25 8.51957 27.1446 8.70711 26.9571C8.89464 26.7696 9 26.5152 9 26.25V19H17.075L23.2125 26.8625C23.3408 27.0262 23.5164 27.1464 23.7155 27.2068C23.9145 27.2672 24.1274 27.2648 24.325 27.2C24.5217 27.1305 24.6921 27.0019 24.8129 26.8319C24.9337 26.6618 24.9991 26.4586 25 26.25V19H27C27.2652 19 27.5196 18.8946 27.7071 18.7071C27.8946 18.5196 28 18.2652 28 18C28 17.7348 27.8946 17.4804 27.7071 17.2929C27.5196 17.1054 27.2652 17 27 17ZM23 15V17H18.05L16.4875 15H23ZM9 8.6625L12.3875 13H9V8.6625ZM9 17V15H13.95L15.5125 17H9ZM23 23.3375L19.6125 19H23V23.3375Z" fill="#344054"/>
</svg>
