<svg width="32" height="32" viewBox="0 0 32 32" fill="none" xmlns="http://www.w3.org/2000/svg">
<path d="M16 7C14.22 7 12.4799 7.52784 10.9999 8.51677C9.51983 9.50571 8.36628 10.9113 7.68509 12.5558C7.0039 14.2004 6.82567 16.01 7.17294 17.7558C7.52021 19.5016 8.37737 21.1053 9.63604 22.364C10.8947 23.6226 12.4984 24.4798 14.2442 24.8271C15.99 25.1743 17.7996 24.9961 19.4442 24.3149C21.0887 23.6337 22.4943 22.4802 23.4832 21.0001C24.4722 19.5201 25 17.78 25 16C24.9967 13.6141 24.0474 11.3268 22.3603 9.63969C20.6732 7.95258 18.3859 7.00331 16 7ZM19.5625 20.825C19.3962 20.9371 19.2006 20.998 19 21C18.8373 20.9997 18.6771 20.9597 18.5333 20.8835C18.3895 20.8072 18.2665 20.697 18.175 20.5625L16.4125 18H14.5V20C14.5 20.2652 14.3946 20.5196 14.2071 20.7071C14.0196 20.8946 13.7652 21 13.5 21C13.2348 21 12.9804 20.8946 12.7929 20.7071C12.6054 20.5196 12.5 20.2652 12.5 20V12C12.5 11.7348 12.6054 11.4804 12.7929 11.2929C12.9804 11.1054 13.2348 11 13.5 11H16.5C17.2509 11.0007 17.9817 11.243 18.5844 11.691C19.1871 12.1389 19.6298 12.7688 19.847 13.4877C20.0641 14.2065 20.0444 14.9762 19.7906 15.6829C19.5368 16.3897 19.0624 16.9961 18.4375 17.4125L19.825 19.4375C19.9003 19.5453 19.9533 19.6672 19.9809 19.7958C20.0085 19.9244 20.0101 20.0572 19.9857 20.1865C19.9612 20.3157 19.9112 20.4388 19.8385 20.5484C19.7659 20.6581 19.672 20.7521 19.5625 20.825ZM18 14.5C18 14.8978 17.842 15.2794 17.5607 15.5607C17.2794 15.842 16.8978 16 16.5 16H14.5V13H16.5C16.8978 13 17.2794 13.158 17.5607 13.4393C17.842 13.7206 18 14.1022 18 14.5ZM16 2.5C13.33 2.5 10.7199 3.29176 8.49981 4.77516C6.27974 6.25856 4.54942 8.36697 3.52763 10.8338C2.50585 13.3006 2.2385 16.015 2.7594 18.6337C3.28031 21.2525 4.56606 23.6579 6.45406 25.5459C8.34207 27.434 10.7475 28.7197 13.3663 29.2406C15.985 29.7615 18.6994 29.4942 21.1662 28.4724C23.633 27.4506 25.7414 25.7203 27.2248 23.5002C28.7082 21.2801 29.5 18.67 29.5 16C29.4967 12.4206 28.0733 8.98874 25.5423 6.45771C23.0113 3.92669 19.5794 2.50331 16 2.5ZM16 27C13.8244 27 11.6977 26.3549 9.88873 25.1462C8.07979 23.9375 6.6699 22.2195 5.83733 20.2095C5.00477 18.1995 4.78693 15.9878 5.21137 13.854C5.63581 11.7202 6.68345 9.7602 8.22183 8.22183C9.76021 6.68345 11.7202 5.6358 13.854 5.21136C15.9878 4.78692 18.1995 5.00476 20.2095 5.83733C22.2195 6.66989 23.9375 8.07979 25.1462 9.88873C26.3549 11.6977 27 13.8244 27 16C26.9967 18.9164 25.8367 21.7123 23.7745 23.7745C21.7123 25.8367 18.9164 26.9967 16 27Z" fill="#344054"/>
</svg>
