<svg width="32" height="32" viewBox="0 0 32 32" fill="none" xmlns="http://www.w3.org/2000/svg">
<path d="M30 16H27.2375L29.925 9.37499C29.9839 9.25188 30.017 9.11802 30.0223 8.98164C30.0275 8.84526 30.0048 8.70925 29.9555 8.58199C29.9062 8.45473 29.8313 8.3389 29.7356 8.24165C29.6398 8.1444 29.5252 8.06777 29.3987 8.0165C29.2722 7.96522 29.1366 7.94038 29.0001 7.9435C28.8637 7.94662 28.7293 7.97763 28.6053 8.03464C28.4813 8.09164 28.3703 8.17343 28.2791 8.27495C28.1879 8.37648 28.1184 8.4956 28.075 8.62499L25.075 16H19.925L16.925 8.62499C16.8497 8.44158 16.7215 8.2847 16.5568 8.1743C16.3921 8.0639 16.1983 8.00495 16 8.00495C15.8017 8.00495 15.6079 8.0639 15.4432 8.1743C15.2785 8.2847 15.1503 8.44158 15.075 8.62499L12.075 16H6.925L3.925 8.62499C3.88157 8.4956 3.81211 8.37648 3.7209 8.27495C3.62969 8.17343 3.51867 8.09164 3.39466 8.03464C3.27066 7.97763 3.1363 7.94662 2.99985 7.9435C2.86341 7.94038 2.72777 7.96522 2.60129 8.0165C2.47481 8.06777 2.36016 8.1444 2.26441 8.24165C2.16866 8.3389 2.09382 8.45473 2.04452 8.58199C1.99522 8.70925 1.97249 8.84526 1.97773 8.98164C1.98297 9.11802 2.01607 9.25188 2.075 9.37499L4.7625 16H2C1.73478 16 1.48043 16.1053 1.29289 16.2929C1.10536 16.4804 1 16.7348 1 17C1 17.2652 1.10536 17.5196 1.29289 17.7071C1.48043 17.8946 1.73478 18 2 18H5.575L8.575 25.375C8.65034 25.5584 8.77851 25.7153 8.94321 25.8257C9.10791 25.9361 9.30172 25.995 9.5 25.995C9.69828 25.995 9.89209 25.9361 10.0568 25.8257C10.2215 25.7153 10.3497 25.5584 10.425 25.375L13.425 18H18.575L21.575 25.375C21.6503 25.5584 21.7785 25.7153 21.9432 25.8257C22.1079 25.9361 22.3017 25.995 22.5 25.995C22.6983 25.995 22.8921 25.9361 23.0568 25.8257C23.2215 25.7153 23.3497 25.5584 23.425 25.375L26.425 18H30C30.2652 18 30.5196 17.8946 30.7071 17.7071C30.8946 17.5196 31 17.2652 31 17C31 16.7348 30.8946 16.4804 30.7071 16.2929C30.5196 16.1053 30.2652 16 30 16ZM9.5 22.3375L7.7375 18H11.2625L9.5 22.3375ZM14.2375 16L16 11.6625L17.7625 16H14.2375ZM22.5 22.3375L20.7375 18H24.2625L22.5 22.3375Z" fill="#344054"/>
</svg>
