<svg width="32" height="32" viewBox="0 0 32 32" fill="none" xmlns="http://www.w3.org/2000/svg">
<path d="M16 2C13.0836 2.00331 10.2877 3.1633 8.22548 5.22548C6.1633 7.28766 5.00331 10.0836 5 13C5 15.925 6.175 19.175 8.1375 21.6875C9.625 23.5875 11.4125 24.9 13.3 25.55L12.075 28.625C12.0133 28.7774 11.9901 28.9427 12.0076 29.1063C12.025 29.2698 12.0825 29.4265 12.175 29.5625C12.2657 29.6978 12.3886 29.8086 12.5325 29.8849C12.6765 29.9613 12.8371 30.0008 13 30H19C19.1629 30.0008 19.3235 29.9613 19.4675 29.8849C19.6114 29.8086 19.7343 29.6978 19.825 29.5625C19.9175 29.4265 19.975 29.2698 19.9924 29.1063C20.0099 28.9427 19.9867 28.7774 19.925 28.625L18.7 25.55C20.5875 24.9 22.375 23.5875 23.8625 21.6875C25.825 19.175 27 15.925 27 13C26.9967 10.0836 25.8367 7.28766 23.7745 5.22548C21.7123 3.1633 18.9164 2.00331 16 2ZM22.0875 12.9875H21.9125C21.676 12.9852 21.4478 12.9002 21.2674 12.7472C21.087 12.5943 20.9659 12.383 20.925 12.15C20.7561 11.1271 20.271 10.1828 19.5378 9.44965C18.8047 8.71654 17.8604 8.23145 16.8375 8.0625C16.5745 8.01663 16.3403 7.86875 16.1858 7.65104C16.0312 7.43332 15.969 7.1634 16.0125 6.9C16.0336 6.77066 16.0803 6.64682 16.1498 6.5357C16.2193 6.42458 16.3102 6.3284 16.4172 6.25278C16.5243 6.17715 16.6453 6.12359 16.7733 6.09522C16.9012 6.06684 17.0335 6.06422 17.1625 6.0875C18.597 6.32773 19.9209 7.00963 20.9494 8.03813C21.9779 9.06663 22.6598 10.3905 22.9 11.825C22.9251 11.9549 22.9239 12.0885 22.8964 12.2179C22.8689 12.3473 22.8157 12.4698 22.7399 12.5783C22.6641 12.6867 22.5673 12.7788 22.4552 12.8491C22.3432 12.9194 22.2181 12.9665 22.0875 12.9875Z" fill="#344054"/>
</svg>
