<svg width="32" height="32" viewBox="0 0 32 32" fill="none" xmlns="http://www.w3.org/2000/svg">
<path d="M30.675 7.6625L24.5 4.1375C24.3483 4.0485 24.1759 4.00107 24 4H20C19.7348 4 19.4804 4.10536 19.2929 4.29289C19.1054 4.48043 19 4.73478 19 5C19 5.79565 18.6839 6.55871 18.1213 7.12132C17.5587 7.68393 16.7957 8 16 8C15.2044 8 14.4413 7.68393 13.8787 7.12132C13.3161 6.55871 13 5.79565 13 5C13 4.73478 12.8946 4.48043 12.7071 4.29289C12.5196 4.10536 12.2652 4 12 4H8.00001C7.82415 4.00107 7.65168 4.0485 7.50001 4.1375L1.32501 7.6625C0.879765 7.9133 0.548233 8.32595 0.399259 8.81477C0.250286 9.30359 0.295318 9.83101 0.525006 10.2875L2.82501 14.9C2.99178 15.231 3.24724 15.5091 3.56287 15.7033C3.8785 15.8976 4.2419 16.0003 4.61251 16H7.00001V26C7.00001 26.5304 7.21072 27.0391 7.58579 27.4142C7.96087 27.7893 8.46957 28 9.00001 28H23C23.5304 28 24.0391 27.7893 24.4142 27.4142C24.7893 27.0391 25 26.5304 25 26V16H27.3875C27.7581 16.0003 28.1215 15.8976 28.4371 15.7033C28.7528 15.5091 29.0082 15.231 29.175 14.9L31.475 10.2875C31.7047 9.83101 31.7497 9.30359 31.6008 8.81477C31.4518 8.32595 31.1202 7.9133 30.675 7.6625ZM4.61251 14L2.31251 9.4L7.00001 6.725V14H4.61251ZM27.3875 14H25V6.725L29.6875 9.4L27.3875 14Z" fill="#344054"/>
</svg>
