<svg width="32" height="32" viewBox="0 0 32 32" fill="none" xmlns="http://www.w3.org/2000/svg">
<path d="M9 28.5C9 28.7967 8.91203 29.0867 8.74721 29.3334C8.58238 29.58 8.34811 29.7723 8.07403 29.8858C7.79994 29.9993 7.49834 30.0291 7.20737 29.9712C6.91639 29.9133 6.64912 29.7704 6.43934 29.5607C6.22956 29.3509 6.0867 29.0836 6.02882 28.7926C5.97094 28.5017 6.00065 28.2001 6.11418 27.926C6.22771 27.6519 6.41997 27.4176 6.66665 27.2528C6.91332 27.088 7.20333 27 7.5 27C7.89783 27 8.27936 27.158 8.56066 27.4393C8.84197 27.7206 9 28.1022 9 28.5ZM11 23.5C10.7033 23.5 10.4133 23.588 10.1666 23.7528C9.91997 23.9176 9.72771 24.1519 9.61418 24.426C9.50065 24.7001 9.47094 25.0017 9.52882 25.2926C9.5867 25.5836 9.72956 25.8509 9.93934 26.0607C10.1491 26.2704 10.4164 26.4133 10.7074 26.4712C10.9983 26.5291 11.2999 26.4993 11.574 26.3858C11.8481 26.2723 12.0824 26.08 12.2472 25.8334C12.412 25.5867 12.5 25.2967 12.5 25C12.5 24.6022 12.342 24.2206 12.0607 23.9393C11.7794 23.658 11.3978 23.5 11 23.5ZM3.5 23C3.20333 23 2.91332 23.088 2.66665 23.2528C2.41997 23.4176 2.22771 23.6519 2.11418 23.926C2.00065 24.2001 1.97094 24.5017 2.02882 24.7926C2.0867 25.0836 2.22956 25.3509 2.43934 25.5607C2.64912 25.7704 2.91639 25.9133 3.20737 25.9712C3.49834 26.0291 3.79994 25.9993 4.07403 25.8858C4.34811 25.7723 4.58238 25.58 4.7472 25.3334C4.91203 25.0867 5 24.7967 5 24.5C5 24.1022 4.84197 23.7206 4.56066 23.4393C4.27936 23.158 3.89783 23 3.5 23ZM8.5 21C8.5 20.7033 8.41203 20.4133 8.24721 20.1666C8.08238 19.92 7.84811 19.7277 7.57403 19.6142C7.29994 19.5007 6.99834 19.4709 6.70737 19.5288C6.41639 19.5867 6.14912 19.7296 5.93934 19.9393C5.72956 20.1491 5.5867 20.4164 5.52882 20.7074C5.47094 20.9983 5.50065 21.2999 5.61418 21.574C5.72771 21.8481 5.91997 22.0824 6.16665 22.2472C6.41332 22.412 6.70333 22.5 7 22.5C7.39783 22.5 7.77936 22.342 8.06066 22.0607C8.34197 21.7794 8.5 21.3978 8.5 21ZM31 4H27.4125C27.1499 3.99977 26.8899 4.05157 26.6475 4.1524C26.405 4.25324 26.185 4.40112 26 4.5875L22.525 8.0625L6.75 10.7C6.38608 10.7565 6.04538 10.9142 5.76686 11.1551C5.48835 11.396 5.28324 11.7105 5.175 12.0625C5.06488 12.4105 5.05209 12.782 5.13802 13.1368C5.22396 13.4915 5.40533 13.816 5.6625 14.075L17.925 26.3375C18.2963 26.7097 18.7993 26.9208 19.325 26.925C19.5331 26.9233 19.7397 26.8896 19.9375 26.825C20.2895 26.7168 20.604 26.5117 20.8449 26.2331C21.0858 25.9546 21.2435 25.6139 21.3 25.25L23.9375 9.475L27.4125 6H31C31.2652 6 31.5196 5.89464 31.7071 5.70711C31.8946 5.51957 32 5.26522 32 5C32 4.73478 31.8946 4.48043 31.7071 4.29289C31.5196 4.10536 31.2652 4 31 4Z" fill="#344054"/>
</svg>
