<svg width="32" height="32" viewBox="0 0 32 32" fill="none" xmlns="http://www.w3.org/2000/svg">
<path d="M28.975 4.02498C28.3148 3.36942 27.4215 3.00255 26.4912 3.00489C25.5608 3.00724 24.6694 3.3786 24.0125 4.03748L2.2875 26.3C2.16298 26.4267 2.07448 26.5843 2.03109 26.7566C1.98771 26.9289 1.99101 27.1097 2.04066 27.2803C2.09031 27.4508 2.18452 27.6051 2.31358 27.7272C2.44265 27.8493 2.60192 27.9349 2.775 27.975C4.20942 28.3083 5.67735 28.4761 7.15 28.475C11.325 28.475 15.5 27.1125 19.4375 24.45C21.8386 22.8287 23.9833 20.8568 25.8 18.6C25.9441 18.4066 26.0145 18.1682 25.9984 17.9276C25.9824 17.687 25.881 17.46 25.7125 17.2875L23.3625 14.95L28.9875 8.96248C29.6385 8.30495 30.0026 7.41641 30.0003 6.49115C29.9979 5.56588 29.6293 4.6792 28.975 4.02498ZM23.65 18.0625C22.0642 19.8764 20.2538 21.481 18.2625 22.8375C13.95 25.7375 9.5125 26.9125 5.0375 26.35L18.325 12.7375L21.2375 15.65C21.25 15.6625 21.2625 15.6875 21.2875 15.7H21.3L23.65 18.0625Z" fill="#344054"/>
</svg>
