<svg width="32" height="32" viewBox="0 0 32 32" fill="none" xmlns="http://www.w3.org/2000/svg">
<path d="M30.8375 15.45L25.125 6.88751C24.943 6.61357 24.6958 6.38908 24.4056 6.23419C24.1155 6.07929 23.7914 5.99883 23.4625 6.00001H5C4.46957 6.00001 3.96086 6.21073 3.58579 6.5858C3.21071 6.96087 3 7.46958 3 8.00001V24C3 24.5304 3.21071 25.0392 3.58579 25.4142C3.96086 25.7893 4.46957 26 5 26H23.4625C23.7914 26.0012 24.1155 25.9207 24.4056 25.7658C24.6958 25.6109 24.943 25.3865 25.125 25.1125L30.8375 16.55C30.942 16.3856 30.9976 16.1948 30.9976 16C30.9976 15.8052 30.942 15.6144 30.8375 15.45Z" fill="#344054"/>
</svg>
