<svg width="32" height="32" viewBox="0 0 32 32" fill="none" xmlns="http://www.w3.org/2000/svg">
<path d="M26.5 4V28C26.5 28.2652 26.3946 28.5196 26.2071 28.7071C26.0196 28.8946 25.7652 29 25.5 29C25.2348 29 24.9804 28.8946 24.7929 28.7071C24.6054 28.5196 24.5 28.2652 24.5 28V21H18.5C18.3585 20.9986 18.2188 20.9679 18.0897 20.9098C17.9606 20.8517 17.8449 20.7675 17.75 20.6625C17.657 20.5577 17.5867 20.4346 17.5437 20.3012C17.5006 20.1678 17.4858 20.0269 17.5 19.8875C17.8098 17.3839 18.3028 14.9065 18.975 12.475C20.475 7.175 22.5625 4 25.1625 3.0625C25.3131 3.00539 25.4754 2.986 25.6352 3.00599C25.795 3.02599 25.9475 3.08477 26.0794 3.17722C26.2113 3.26966 26.3186 3.39296 26.3919 3.53637C26.4652 3.67979 26.5023 3.83895 26.5 4ZM15.9875 9.8375L14.9875 3.8375C14.9662 3.70782 14.9195 3.58361 14.8502 3.47197C14.7808 3.36032 14.6902 3.26343 14.5834 3.18682C14.4766 3.11022 14.3558 3.05539 14.2278 3.02548C14.0998 2.99557 13.9672 2.99116 13.8375 3.0125C13.5756 3.05559 13.3416 3.20097 13.1868 3.41663C13.0321 3.6323 12.9694 3.9006 13.0125 4.1625L13.825 9H11.5V4C11.5 3.73478 11.3946 3.48043 11.2071 3.29289C11.0196 3.10535 10.7652 3 10.5 3C10.2348 3 9.98044 3.10535 9.7929 3.29289C9.60536 3.48043 9.50001 3.73478 9.50001 4V9H7.17501L7.98751 4.1625C8.00885 4.03282 8.00443 3.9002 7.97452 3.77223C7.94461 3.64425 7.88979 3.52342 7.81318 3.41663C7.73657 3.30985 7.63968 3.21919 7.52804 3.14985C7.41639 3.08051 7.29219 3.03384 7.16251 3.0125C7.03283 2.99116 6.90021 2.99557 6.77224 3.02548C6.64426 3.05539 6.52343 3.11022 6.41664 3.18682C6.30986 3.26343 6.2192 3.36032 6.14986 3.47197C6.08052 3.58361 6.03385 3.70782 6.01251 3.8375L5.01251 9.8375C5.00112 9.89086 4.99692 9.94552 5.00001 10C5.00146 11.2853 5.45198 12.5297 6.27367 13.518C7.09537 14.5063 8.23659 15.1764 9.50001 15.4125V28C9.50001 28.2652 9.60536 28.5196 9.7929 28.7071C9.98044 28.8946 10.2348 29 10.5 29C10.7652 29 11.0196 28.8946 11.2071 28.7071C11.3946 28.5196 11.5 28.2652 11.5 28V15.4125C12.7634 15.1764 13.9046 14.5063 14.7263 13.518C15.548 12.5297 15.9986 11.2853 16 10C16.002 9.94967 15.9978 9.89929 15.9875 9.85V9.8375Z" fill="#344054"/>
</svg>
