<svg width="32" height="32" viewBox="0 0 32 32" fill="none" xmlns="http://www.w3.org/2000/svg">
<path d="M26.9375 26.6625L20.5625 9.125L21.7 6H23C23.2652 6 23.5195 5.89464 23.7071 5.70711C23.8946 5.51957 24 5.26522 24 5C24 4.73478 23.8946 4.48043 23.7071 4.29289C23.5195 4.10536 23.2652 4 23 4H11C10.7348 4 10.4804 4.10536 10.2929 4.29289C10.1053 4.48043 9.99998 4.73478 9.99998 5C9.99998 5.26522 10.1053 5.51957 10.2929 5.70711C10.4804 5.89464 10.7348 6 11 6H11.575L4.06248 26.6625C4.01693 26.7855 3.99635 26.9164 4.00193 27.0475C4.00752 27.1785 4.03917 27.3072 4.09503 27.4259C4.15089 27.5446 4.22984 27.6509 4.32727 27.7388C4.42469 27.8266 4.53865 27.8942 4.66248 27.9375C4.7709 27.9763 4.88486 27.9974 4.99998 28C5.2058 28.001 5.4068 27.9378 5.57488 27.819C5.74297 27.7002 5.86974 27.5319 5.93748 27.3375L7.14998 24H13.025L12.0625 26.6625C12.0169 26.7855 11.9963 26.9164 12.0019 27.0475C12.0075 27.1785 12.0392 27.3072 12.095 27.4259C12.1509 27.5446 12.2298 27.6509 12.3273 27.7388C12.4247 27.8266 12.5387 27.8942 12.6625 27.9375C12.7709 27.9763 12.8849 27.9974 13 28C13.2058 28.001 13.4068 27.9378 13.5749 27.819C13.743 27.7002 13.8697 27.5319 13.9375 27.3375L16.25 21H22.75L25.0625 27.3375C25.1302 27.5319 25.257 27.7002 25.4251 27.819C25.5932 27.9378 25.7942 28.001 26 28C26.1151 27.9974 26.229 27.9763 26.3375 27.9375C26.4613 27.8942 26.5753 27.8266 26.6727 27.7388C26.7701 27.6509 26.8491 27.5446 26.9049 27.4259C26.9608 27.3072 26.9924 27.1785 26.998 27.0475C27.0036 26.9164 26.983 26.7855 26.9375 26.6625ZM15.9375 16H10.0625L11.5125 12H17.3875L15.9375 16ZM19.575 6L18.5625 8.7875L18.1125 10H12.25L13.7 6H19.575ZM7.88748 22L9.33748 18H15.2125L13.75 22H7.88748ZM16.975 19L19.5 12.05L22.025 19H16.975Z" fill="#344054"/>
</svg>
