<svg width="32" height="32" viewBox="0 0 32 32" fill="none" xmlns="http://www.w3.org/2000/svg">
<path d="M25.775 6.63747L18.1125 16H22C22.2652 16 22.5195 16.1053 22.7071 16.2929C22.8946 16.4804 23 16.7348 23 17C23 17.2652 22.8946 17.5195 22.7071 17.7071C22.5195 17.8946 22.2652 18 22 18H17V20H22C22.2652 20 22.5195 20.1053 22.7071 20.2929C22.8946 20.4804 23 20.7348 23 21C23 21.2652 22.8946 21.5195 22.7071 21.7071C22.5195 21.8946 22.2652 22 22 22H17V27C17 27.2652 16.8946 27.5195 16.7071 27.7071C16.5195 27.8946 16.2652 28 16 28C15.7348 28 15.4804 27.8946 15.2929 27.7071C15.1053 27.5195 15 27.2652 15 27V22H9.99997C9.73475 22 9.4804 21.8946 9.29286 21.7071C9.10533 21.5195 8.99997 21.2652 8.99997 21C8.99997 20.7348 9.10533 20.4804 9.29286 20.2929C9.4804 20.1053 9.73475 20 9.99997 20H15V18H9.99997C9.73475 18 9.4804 17.8946 9.29286 17.7071C9.10533 17.5195 8.99997 17.2652 8.99997 17C8.99997 16.7348 9.10533 16.4804 9.29286 16.2929C9.4804 16.1053 9.73475 16 9.99997 16H13.8875L6.22497 6.63747C6.14125 6.5357 6.0784 6.41843 6.04 6.29237C6.0016 6.1663 5.98841 6.03391 6.00118 5.90275C6.02697 5.63785 6.15693 5.39405 6.36247 5.22497C6.56801 5.0559 6.8323 4.9754 7.0972 5.00118C7.36209 5.02697 7.60589 5.15693 7.77497 5.36247L16 15.425L24.225 5.36247C24.394 5.15693 24.6378 5.02697 24.9027 5.00118C25.1676 4.9754 25.4319 5.0559 25.6375 5.22497C25.843 5.39405 25.973 5.63785 25.9988 5.90275C26.0245 6.16764 25.944 6.43193 25.775 6.63747Z" fill="#344054"/>
</svg>
