<svg width="32" height="32" viewBox="0 0 32 32" fill="none" xmlns="http://www.w3.org/2000/svg">
<path d="M28 11C28.0009 8.67528 27.3279 6.40015 26.0625 4.45C25.9696 4.31293 25.8449 4.20039 25.6991 4.12203C25.5532 4.04366 25.3906 4.00179 25.225 4H6.775C6.60944 4.00179 6.44678 4.04366 6.30092 4.12203C6.15507 4.20039 6.03038 4.31293 5.9375 4.45C4.80674 6.19114 4.14653 8.19562 4.02128 10.2679C3.89602 12.3403 4.30998 14.4097 5.2228 16.2743C6.13561 18.139 7.51611 19.7352 9.22966 20.9074C10.9432 22.0796 12.9313 22.7876 15 22.9625V27H11C10.7348 27 10.4804 27.1054 10.2929 27.2929C10.1054 27.4804 10 27.7348 10 28C10 28.2652 10.1054 28.5196 10.2929 28.7071C10.4804 28.8946 10.7348 29 11 29H21C21.2652 29 21.5196 28.8946 21.7071 28.7071C21.8946 28.5196 22 28.2652 22 28C22 27.7348 21.8946 27.4804 21.7071 27.2929C21.5196 27.1054 21.2652 27 21 27H17V22.9625C19.9976 22.7061 22.7902 21.3353 24.8266 19.1207C26.863 16.9061 27.9953 14.0086 28 11ZM7.3375 6H24.6625C25.3744 7.2252 25.8136 8.58958 25.95 10H6.05C6.18646 8.58958 6.62562 7.2252 7.3375 6Z" fill="#344054"/>
</svg>
