<svg width="32" height="32" viewBox="0 0 32 32" fill="none" xmlns="http://www.w3.org/2000/svg">
<path d="M29.375 8.66254C29.1879 8.45335 28.9586 8.28615 28.7022 8.17196C28.4458 8.05778 28.1682 7.99918 27.8875 8.00004H21.9125C21.6719 6.6064 20.9466 5.34256 19.8649 4.43157C18.7831 3.52058 17.4143 3.021 16 3.021C14.5857 3.021 13.2169 3.52058 12.1351 4.43157C11.0534 5.34256 10.3282 6.6064 10.0875 8.00004H4.1125C3.83184 7.99918 3.55417 8.05778 3.29779 8.17196C3.0414 8.28615 2.81211 8.45335 2.625 8.66254C2.43727 8.87369 2.29579 9.12179 2.20968 9.39089C2.12357 9.65999 2.09473 9.94413 2.125 10.225L3.9125 26.225C3.96513 26.7145 4.19754 27.167 4.56472 27.495C4.9319 27.8229 5.40771 28.0029 5.9 28H26.1C26.5923 28.0029 27.0681 27.8229 27.4353 27.495C27.8025 27.167 28.0349 26.7145 28.0875 26.225L29.875 10.225C29.9053 9.94413 29.8764 9.65999 29.7903 9.39089C29.7042 9.12179 29.5627 8.87369 29.375 8.66254ZM16 5.00004C16.8866 5.00174 17.7476 5.29701 18.4487 5.83976C19.1497 6.3825 19.6513 7.14215 19.875 8.00004H12.125C12.3487 7.14215 12.8503 6.3825 13.5513 5.83976C14.2524 5.29701 15.1134 5.00174 16 5.00004Z" fill="#344054"/>
</svg>
