<svg width="32" height="32" viewBox="0 0 32 32" fill="none" xmlns="http://www.w3.org/2000/svg">
<path d="M24.075 23.6625C24.262 23.85 24.367 24.104 24.367 24.3688C24.367 24.6335 24.262 24.8875 24.075 25.075C22.7367 26.4146 21.0455 27.3467 19.1981 27.7628C17.3508 28.1789 15.4233 28.062 13.6399 27.4256C11.8564 26.7892 10.2903 25.6595 9.12369 24.168C7.9571 22.6764 7.23798 20.8843 7.05 19H5C4.73478 19 4.48043 18.8946 4.29289 18.7071C4.10536 18.5196 4 18.2652 4 18C4 17.7348 4.10536 17.4804 4.29289 17.2929C4.48043 17.1054 4.73478 17 5 17H7V15H5C4.73478 15 4.48043 14.8946 4.29289 14.7071C4.10536 14.5196 4 14.2652 4 14C4 13.7348 4.10536 13.4804 4.29289 13.2929C4.48043 13.1054 4.73478 13 5 13H7.05C7.23798 11.1158 7.9571 9.32361 9.12369 7.83203C10.2903 6.34046 11.8564 5.21077 13.6399 4.57438C15.4233 3.93799 17.3508 3.82106 19.1981 4.23719C21.0455 4.65331 22.7367 5.58539 24.075 6.925C24.262 7.11247 24.367 7.36646 24.367 7.63125C24.367 7.89605 24.262 8.15004 24.075 8.3375C23.983 8.43161 23.8732 8.5064 23.7519 8.55745C23.6306 8.60851 23.5003 8.63481 23.3687 8.63481C23.2372 8.63481 23.1069 8.60851 22.9856 8.55745C22.8643 8.5064 22.7545 8.43161 22.6625 8.3375C21.6019 7.2819 20.2669 6.5444 18.8086 6.20854C17.3504 5.87267 15.8273 5.95187 14.4118 6.43715C12.9963 6.92243 11.7449 7.79441 10.7995 8.95432C9.85408 10.1142 9.25236 11.5157 9.0625 13H17C17.2652 13 17.5196 13.1054 17.7071 13.2929C17.8946 13.4804 18 13.7348 18 14C18 14.2652 17.8946 14.5196 17.7071 14.7071C17.5196 14.8946 17.2652 15 17 15H9V17H15C15.2652 17 15.5196 17.1054 15.7071 17.2929C15.8946 17.4804 16 17.7348 16 18C16 18.2652 15.8946 18.5196 15.7071 18.7071C15.5196 18.8946 15.2652 19 15 19H9.0625C9.25236 20.4843 9.85408 21.8858 10.7995 23.0457C11.7449 24.2056 12.9963 25.0776 14.4118 25.5629C15.8273 26.0481 17.3504 26.1273 18.8086 25.7915C20.2669 25.4556 21.6019 24.7181 22.6625 23.6625C22.7545 23.5684 22.8643 23.4936 22.9856 23.4426C23.1069 23.3915 23.2372 23.3652 23.3687 23.3652C23.5003 23.3652 23.6306 23.3915 23.7519 23.4426C23.8732 23.4936 23.983 23.5684 24.075 23.6625Z" fill="#344054"/>
</svg>
