<svg width="32" height="32" viewBox="0 0 32 32" fill="none" xmlns="http://www.w3.org/2000/svg">
<path d="M27 8.99999H22.625C23.2549 8.20459 23.5589 7.19956 23.4756 6.18841C23.3923 5.17725 22.9279 4.23552 22.1764 3.55391C21.4249 2.8723 20.4424 2.50173 19.4279 2.51725C18.4135 2.53277 17.4428 2.93321 16.7125 3.63749C16.4179 3.93571 16.1769 4.28245 16 4.66249C15.8231 4.28245 15.5821 3.93571 15.2875 3.63749C14.5572 2.93321 13.5865 2.53277 12.5721 2.51725C11.5576 2.50173 10.5751 2.8723 9.82361 3.55391C9.07209 4.23552 8.60766 5.17725 8.52437 6.18841C8.44108 7.19956 8.74514 8.20459 9.375 8.99999H5C4.46957 8.99999 3.96086 9.21071 3.58579 9.58578C3.21071 9.96085 3 10.4696 3 11V15C3 15.5304 3.21071 16.0391 3.58579 16.4142C3.96086 16.7893 4.46957 17 5 17V25C5 25.5304 5.21071 26.0391 5.58579 26.4142C5.96086 26.7893 6.46957 27 7 27H25C25.5304 27 26.0391 26.7893 26.4142 26.4142C26.7893 26.0391 27 25.5304 27 25V17C27.5304 17 28.0391 16.7893 28.4142 16.4142C28.7893 16.0391 29 15.5304 29 15V11C29 10.4696 28.7893 9.96085 28.4142 9.58578C28.0391 9.21071 27.5304 8.99999 27 8.99999ZM18.125 5.04999C18.3069 4.84922 18.5277 4.6875 18.774 4.57465C19.0203 4.4618 19.287 4.40017 19.5579 4.3935C19.8287 4.38683 20.0981 4.43526 20.3497 4.53586C20.6012 4.63645 20.8297 4.7871 21.0213 4.97868C21.2129 5.17026 21.3635 5.39876 21.4641 5.65033C21.5647 5.90189 21.6132 6.17127 21.6065 6.44212C21.5998 6.71297 21.5382 6.97964 21.4253 7.22595C21.3125 7.47226 21.1508 7.69308 20.95 7.87499C20.3375 8.49999 18.55 8.83749 17.0375 8.96249C17.1625 7.44999 17.5 5.66249 18.125 5.04999ZM11.05 5.04999C11.4265 4.67899 11.9339 4.47102 12.4625 4.47102C12.9911 4.47102 13.4985 4.67899 13.875 5.04999C14.5 5.66249 14.8375 7.44999 14.9625 8.96249C13.45 8.83749 11.6625 8.49999 11.05 7.87499C10.679 7.49847 10.471 6.99109 10.471 6.46249C10.471 5.93389 10.679 5.42652 11.05 5.04999ZM27 15H17V24C17 24.2652 16.8946 24.5196 16.7071 24.7071C16.5196 24.8946 16.2652 25 16 25C15.7348 25 15.4804 24.8946 15.2929 24.7071C15.1054 24.5196 15 24.2652 15 24V15H5V11H15V15H17V11H27V15Z" fill="#344054"/>
</svg>
