<svg width="32" height="32" viewBox="0 0 32 32" fill="none" xmlns="http://www.w3.org/2000/svg">
<path d="M30 26H28V17V16.9375C28.0003 16.92 27.996 16.9028 27.9875 16.8875L26.1125 3.7375C26.049 3.25804 25.814 2.81783 25.4508 2.49837C25.0877 2.17891 24.6211 2.00186 24.1375 2H21.8625C21.3826 2.00101 20.9191 2.17455 20.5565 2.48893C20.1939 2.80332 19.9565 3.23759 19.8875 3.7125L18.4375 13.8375L13.6 10.2C13.4514 10.0886 13.2748 10.0207 13.0898 10.004C12.9048 9.98736 12.7189 10.0225 12.5528 10.1056C12.3867 10.1886 12.247 10.3163 12.1493 10.4743C12.0517 10.6322 12 10.8143 12 11V15L5.6 10.2C5.45143 10.0886 5.27477 10.0207 5.08981 10.004C4.90484 9.98736 4.71889 10.0225 4.55279 10.1056C4.38668 10.1886 4.24698 10.3163 4.14935 10.4743C4.05171 10.6322 4 10.8143 4 11V26H2C1.73478 26 1.48043 26.1054 1.29289 26.2929C1.10536 26.4804 1 26.7348 1 27C1 27.2652 1.10536 27.5196 1.29289 27.7071C1.48043 27.8946 1.73478 28 2 28H30C30.2652 28 30.5196 27.8946 30.7071 27.7071C30.8946 27.5196 31 27.2652 31 27C31 26.7348 30.8946 26.4804 30.7071 26.2929C30.5196 26.1054 30.2652 26 30 26ZM12.5 23H9C8.73478 23 8.48043 22.8946 8.29289 22.7071C8.10536 22.5196 8 22.2652 8 22C8 21.7348 8.10536 21.4804 8.29289 21.2929C8.48043 21.1054 8.73478 21 9 21H12.5C12.7652 21 13.0196 21.1054 13.2071 21.2929C13.3946 21.4804 13.5 21.7348 13.5 22C13.5 22.2652 13.3946 22.5196 13.2071 22.7071C13.0196 22.8946 12.7652 23 12.5 23ZM23 23H19.5C19.2348 23 18.9804 22.8946 18.7929 22.7071C18.6054 22.5196 18.5 22.2652 18.5 22C18.5 21.7348 18.6054 21.4804 18.7929 21.2929C18.9804 21.1054 19.2348 21 19.5 21H23C23.2652 21 23.5196 21.1054 23.7071 21.2929C23.8946 21.4804 24 21.7348 24 22C24 22.2652 23.8946 22.5196 23.7071 22.7071C23.5196 22.8946 23.2652 23 23 23ZM21.3375 16L20.2625 15.2L21.8625 4H24.1375L25.85 16H21.3375Z" fill="#344054"/>
</svg>
