<svg width="32" height="32" viewBox="0 0 32 32" fill="none" xmlns="http://www.w3.org/2000/svg">
<path d="M27 19.875V25C27 25.5304 26.7893 26.0391 26.4142 26.4142C26.0391 26.7893 25.5304 27 25 27H7C6.46957 27 5.96086 26.7893 5.58579 26.4142C5.21071 26.0391 5 25.5304 5 25V19.875C4.2757 19.688 3.61836 19.3016 3.10263 18.7598C2.58689 18.2179 2.23343 17.5423 2.08239 16.8097C1.93135 16.077 1.98877 15.3167 2.24815 14.6151C2.50752 13.9134 2.95845 13.2986 3.54971 12.8404C4.14098 12.3821 4.8489 12.0989 5.59307 12.0228C6.33724 11.9467 7.08783 12.0808 7.75961 12.4098C8.4314 12.7389 8.99744 13.2498 9.39347 13.8844C9.78949 14.519 9.99962 15.252 10 16V21C10 21.2652 10.1054 21.5196 10.2929 21.7071C10.4804 21.8946 10.7348 22 11 22C11.2652 22 11.5196 21.8946 11.7071 21.7071C11.8946 21.5196 12 21.2652 12 21V17H20V21C20 21.2652 20.1054 21.5196 20.2929 21.7071C20.4804 21.8946 20.7348 22 21 22C21.2652 22 21.5196 21.8946 21.7071 21.7071C21.8946 21.5196 22 21.2652 22 21V16C22.0004 15.252 22.2105 14.519 22.6065 13.8844C23.0026 13.2498 23.5686 12.7389 24.2404 12.4098C24.9122 12.0808 25.6628 11.9467 26.4069 12.0228C27.1511 12.0989 27.859 12.3821 28.4503 12.8404C29.0416 13.2986 29.4925 13.9134 29.7519 14.6151C30.0112 15.3167 30.0687 16.077 29.9176 16.8097C29.7666 17.5423 29.4131 18.2179 28.8974 18.7598C28.3816 19.3016 27.7243 19.688 27 19.875ZM11.9125 15H20.0875C20.3237 13.6025 21.047 12.3338 22.1292 11.4186C23.2114 10.5034 24.5827 10.0008 26 10H26.4625C26.5306 10.007 26.5994 9.99962 26.6644 9.97829C26.7295 9.95695 26.7893 9.92216 26.84 9.87617C26.8907 9.83018 26.9312 9.77403 26.9587 9.71137C26.9863 9.64871 27.0004 9.58095 27 9.5125V9C27 7.67392 26.4732 6.40215 25.5355 5.46447C24.5979 4.52678 23.3261 4 22 4H10C8.67392 4 7.40215 4.52678 6.46447 5.46447C5.52678 6.40215 5 7.67392 5 9V9.525C4.99964 9.59345 5.0137 9.66121 5.04126 9.72387C5.06883 9.78653 5.10928 9.84268 5.15998 9.88867C5.21069 9.93466 5.27051 9.96945 5.33555 9.99079C5.4006 10.0121 5.46941 10.0195 5.5375 10.0125H6C7.41549 10.0128 8.78529 10.5136 9.86724 11.4263C10.9492 12.339 11.6736 13.6048 11.9125 15Z" fill="#344054"/>
</svg>
