<svg width="32" height="32" viewBox="0 0 32 32" fill="none" xmlns="http://www.w3.org/2000/svg">
<path d="M20.15 27.2125C20.2028 27.2876 20.2339 27.3759 20.2399 27.4675C20.2458 27.5591 20.2264 27.6507 20.1838 27.732C20.1412 27.8134 20.077 27.8814 19.9983 27.9287C19.9195 27.976 19.8293 28.0006 19.7375 28H12.2625C12.1706 28.0006 12.0804 27.976 12.0017 27.9287C11.9229 27.8814 11.8587 27.8134 11.8161 27.732C11.7735 27.6507 11.7541 27.5591 11.7601 27.4675C11.7661 27.3759 11.7972 27.2876 11.85 27.2125C12.3074 26.5319 12.9251 25.9742 13.6488 25.5886C14.3725 25.203 15.18 25.0013 16 25.0013C16.82 25.0013 17.6274 25.203 18.3511 25.5886C19.0748 25.9742 19.6926 26.5319 20.15 27.2125ZM28.725 27.6875C28.6279 27.788 28.5112 27.8675 28.3823 27.9212C28.2533 27.975 28.1147 28.0018 27.975 28H23.075C22.9709 27.9986 22.8697 27.9656 22.7848 27.9053C22.7 27.845 22.6355 27.7603 22.6 27.6625C22.1176 26.2975 21.2239 25.1156 20.0418 24.2797C18.8598 23.4438 17.4477 22.9949 16 22.9949C14.5522 22.9949 13.1401 23.4438 11.9581 24.2797C10.7761 25.1156 9.88236 26.2975 9.39998 27.6625C9.36445 27.7603 9.29996 27.845 9.21511 27.9053C9.13026 27.9656 9.02906 27.9986 8.92498 28H4.02498C3.88506 28.0033 3.74601 27.9772 3.61681 27.9234C3.48762 27.8695 3.37116 27.7892 3.27498 27.6875C3.1254 27.5318 3.03096 27.3314 3.00613 27.1169C2.98129 26.9025 3.02743 26.6858 3.13748 26.5C3.17498 26.4375 6.99998 19.625 6.99998 12C7.00161 10.8133 7.23758 9.6386 7.69436 8.54332C8.15114 7.44805 8.81974 6.45377 9.66176 5.61755C10.5038 4.78133 11.5027 4.11964 12.6011 3.67045C13.6995 3.22126 14.8758 2.99342 16.0625 3C21.0125 3.0375 24.9875 7.1125 25 12.0625C25.025 19.6625 28.825 26.4375 28.8625 26.5C28.9725 26.6858 29.0187 26.9025 28.9938 27.1169C28.969 27.3314 28.8746 27.5318 28.725 27.6875ZM11 13.5C11 13.7967 11.088 14.0867 11.2528 14.3334C11.4176 14.58 11.6519 14.7723 11.926 14.8858C12.2 14.9994 12.5016 15.0291 12.7926 14.9712C13.0836 14.9133 13.3509 14.7704 13.5606 14.5607C13.7704 14.3509 13.9133 14.0836 13.9712 13.7926C14.029 13.5017 13.9993 13.2001 13.8858 12.926C13.7723 12.6519 13.58 12.4176 13.3333 12.2528C13.0867 12.088 12.7967 12 12.5 12C12.1022 12 11.7206 12.158 11.4393 12.4393C11.158 12.7206 11 13.1022 11 13.5ZM20.9 17.55C20.777 17.3148 20.5676 17.1365 20.3158 17.0526C20.064 16.9686 19.7895 16.9856 19.55 17.1L16 18.8875L12.45 17.1C12.3318 17.0409 12.2031 17.0057 12.0713 16.9963C11.9395 16.9869 11.8071 17.0036 11.6818 17.0454C11.5564 17.0872 11.4405 17.1533 11.3407 17.2398C11.2409 17.3264 11.1591 17.4318 11.1 17.55C11.0409 17.6682 11.0056 17.7969 10.9963 17.9287C10.9869 18.0605 11.0036 18.1928 11.0454 18.3182C11.0872 18.4436 11.1532 18.5595 11.2398 18.6593C11.3264 18.7591 11.4318 18.8409 11.55 18.9L15.55 20.9C15.6909 20.9659 15.8445 21 16 21C16.1555 21 16.3091 20.9659 16.45 20.9L20.45 18.9C20.6852 18.777 20.8635 18.5676 20.9474 18.3158C21.0314 18.064 21.0143 17.7895 20.9 17.55ZM21 13.5C21 13.2033 20.912 12.9133 20.7472 12.6666C20.5824 12.42 20.3481 12.2277 20.074 12.1142C19.7999 12.0007 19.4983 11.9709 19.2073 12.0288C18.9164 12.0867 18.6491 12.2296 18.4393 12.4393C18.2295 12.6491 18.0867 12.9164 18.0288 13.2074C17.9709 13.4983 18.0006 13.7999 18.1142 14.074C18.2277 14.3481 18.42 14.5824 18.6666 14.7472C18.9133 14.912 19.2033 15 19.5 15C19.8978 15 20.2793 14.842 20.5606 14.5607C20.8419 14.2794 21 13.8978 21 13.5Z" fill="#344054"/>
</svg>
