<svg width="32" height="32" viewBox="0 0 32 32" fill="none" xmlns="http://www.w3.org/2000/svg">
<path d="M16.3375 3.7C16.7038 2.76032 17.3443 1.95259 18.1759 1.38188C19.0074 0.811176 19.9915 0.503893 21 0.5C21.2652 0.5 21.5196 0.605357 21.7071 0.792893C21.8946 0.98043 22 1.23478 22 1.5C22 1.76522 21.8946 2.01957 21.7071 2.20711C21.5196 2.39464 21.2652 2.5 21 2.5C20.3938 2.50188 19.8022 2.68662 19.3027 3.03006C18.8031 3.3735 18.4188 3.85966 18.2 4.425C18.1266 4.61366 17.9977 4.77561 17.8303 4.88944C17.6629 5.00327 17.4649 5.06362 17.2625 5.0625C17.1433 5.05994 17.0252 5.03885 16.9125 5C16.789 4.95296 16.676 4.8819 16.5801 4.79092C16.4842 4.69994 16.4073 4.59085 16.3538 4.46996C16.3003 4.34906 16.2714 4.21877 16.2686 4.08661C16.2658 3.95445 16.2892 3.82305 16.3375 3.7ZM27.75 19.475C26.9508 19.0736 26.274 18.4652 25.7899 17.7133C25.3059 16.9613 25.0324 16.0933 24.9979 15.1996C24.9634 14.306 25.1693 13.4195 25.594 12.6325C26.0186 11.8455 26.6466 11.1868 27.4125 10.725C27.5314 10.6496 27.6334 10.5505 27.7123 10.4339C27.7912 10.3173 27.8452 10.1857 27.871 10.0474C27.8968 9.90897 27.8939 9.76675 27.8623 9.62957C27.8307 9.49239 27.7712 9.36318 27.6875 9.25C26.3287 7.51881 24.3514 6.38212 22.1717 6.07905C19.9919 5.77597 17.7795 6.33015 16 7.625C14.7319 6.7026 13.2334 6.14895 11.6702 6.02532C10.1069 5.90169 8.54001 6.21289 7.14268 6.92449C5.74535 7.63609 4.57211 8.72036 3.75273 10.0573C2.93336 11.3943 2.49979 12.9319 2.5 14.5C2.53009 17.7968 3.52523 21.0125 5.3625 23.75C7.1625 26.4125 9.45 28 11.5 28H20.5C23.3125 28 26.4875 25.0125 28.2375 20.75C28.336 20.5156 28.3403 20.2522 28.2495 20.0147C28.1587 19.7772 27.9798 19.5839 27.75 19.475Z" fill="#344054"/>
</svg>
