<svg width="32" height="32" viewBox="0 0 32 32" fill="none" xmlns="http://www.w3.org/2000/svg">
<path d="M27.4125 10H26.85C27.2763 9.32708 27.5017 8.54655 27.5 7.75C27.4998 6.99916 27.3006 6.26178 26.9229 5.61291C26.5451 4.96404 26.0021 4.42683 25.3493 4.05595C24.6964 3.68507 23.957 3.49377 23.2062 3.50151C22.4554 3.50924 21.7201 3.71574 21.075 4.1C20.4605 3.23568 19.5871 2.58915 18.581 2.25382C17.5749 1.9185 16.4882 1.91176 15.478 2.23457C14.4678 2.55738 13.5865 3.19303 12.9613 4.04965C12.3361 4.90627 11.9994 5.93949 12 7C12.0017 7.33574 12.0352 7.67056 12.1 8H5C4.46957 8 3.96086 8.21071 3.58579 8.58578C3.21071 8.96086 3 9.46956 3 10V22C3 22.5304 3.21071 23.0391 3.58579 23.4142C3.96086 23.7893 4.46957 24 5 24H9.5875C10.1868 25.4779 11.214 26.7429 12.5374 27.6327C13.8608 28.5225 15.42 28.9965 17.0147 28.9938C18.6094 28.9911 20.167 28.5119 21.4873 27.6176C22.8077 26.7234 23.8307 25.4549 24.425 23.975C25.6718 23.8686 26.8334 23.2986 27.6804 22.3776C28.5274 21.4565 28.9983 20.2513 29 19V11.5875C29 11.379 28.9589 11.1726 28.8792 10.98C28.7994 10.7874 28.6824 10.6124 28.535 10.465C28.3876 10.3175 28.2126 10.2006 28.02 10.1208C27.8274 10.0411 27.621 10 27.4125 10ZM17 4C17.7946 4.00329 18.5558 4.32041 19.1177 4.88231C19.6796 5.44421 19.9967 6.20536 20 7C19.9974 7.59654 19.8191 8.1791 19.4875 8.675C19.3015 8.46352 19.0727 8.29398 18.8163 8.17762C18.5599 8.06125 18.2816 8.0007 18 8H14.175C14.0614 7.67872 14.0023 7.34074 14 7C14.0033 6.20536 14.3204 5.44421 14.8823 4.88231C15.4442 4.32041 16.2054 4.00329 17 4ZM10.5 19V14H9.25C8.98478 14 8.73043 13.8946 8.54289 13.7071C8.35536 13.5196 8.25 13.2652 8.25 13C8.25 12.7348 8.35536 12.4804 8.54289 12.2929C8.73043 12.1054 8.98478 12 9.25 12H13.75C14.0152 12 14.2696 12.1054 14.4571 12.2929C14.6446 12.4804 14.75 12.7348 14.75 13C14.75 13.2652 14.6446 13.5196 14.4571 13.7071C14.2696 13.8946 14.0152 14 13.75 14H12.5V19C12.5 19.2652 12.3946 19.5196 12.2071 19.7071C12.0196 19.8946 11.7652 20 11.5 20C11.2348 20 10.9804 19.8946 10.7929 19.7071C10.6054 19.5196 10.5 19.2652 10.5 19ZM23 21C23 22.5913 22.3679 24.1174 21.2426 25.2426C20.1174 26.3679 18.5913 27 17 27C15.9474 26.9944 14.9144 26.7149 14.0026 26.1888C13.0908 25.6628 12.3317 24.9085 11.8 24H18C18.5304 24 19.0391 23.7893 19.4142 23.4142C19.7893 23.0391 20 22.5304 20 22V12H23V21ZM23.25 10C22.9143 9.99979 22.5829 9.92447 22.2801 9.77955C21.9773 9.63464 21.7107 9.4238 21.5 9.1625C21.8299 8.4894 22.0009 7.74958 22 7C22.001 6.65106 21.9633 6.3031 21.8875 5.9625C22.2775 5.66083 22.757 5.49805 23.25 5.5C23.8467 5.5 24.419 5.73705 24.841 6.15901C25.2629 6.58096 25.5 7.15326 25.5 7.75C25.5 8.34673 25.2629 8.91903 24.841 9.34099C24.419 9.76294 23.8467 10 23.25 10ZM27 19C26.9983 19.628 26.7996 20.2397 26.4318 20.7487C26.064 21.2578 25.5457 21.6386 24.95 21.8375C24.9857 21.5598 25.0024 21.28 25 21V12H27V19Z" fill="#344054"/>
</svg>
