<svg width="32" height="32" viewBox="0 0 32 32" fill="none" xmlns="http://www.w3.org/2000/svg">
<path d="M22.9875 18.5C22.9875 18.7967 22.8995 19.0867 22.7347 19.3334C22.5699 19.58 22.3356 19.7723 22.0615 19.8858C21.7874 19.9994 21.4858 20.0291 21.1949 19.9712C20.9039 19.9133 20.6366 19.7704 20.4268 19.5607C20.2171 19.3509 20.0742 19.0836 20.0163 18.7926C19.9584 18.5017 19.9881 18.2001 20.1017 17.926C20.2152 17.6519 20.4075 17.4176 20.6541 17.2528C20.9008 17.088 21.1908 17 21.4875 17C21.8853 17 22.2669 17.158 22.5482 17.4393C22.8295 17.7206 22.9875 18.1022 22.9875 18.5ZM26.6625 20.6625C26.0744 23.0472 24.7024 25.1653 22.7667 26.6772C20.831 28.189 18.4436 29.007 15.9875 29C14.5002 29.0041 13.028 28.702 11.6625 28.1125L11.5125 28.05C9.78837 27.277 8.29127 26.0747 7.16423 24.5581C6.0372 23.0416 5.31788 21.2613 5.075 19.3875C5.02055 18.9311 4.99134 18.4721 4.9875 18.0125C4.98196 15.8919 5.59442 13.8156 6.75 12.0375C5.83729 11.5883 5.10371 10.8431 4.66889 9.9235C4.23406 9.00387 4.12366 7.96404 4.35568 6.9736C4.5877 5.98316 5.14845 5.10056 5.94649 4.46973C6.74452 3.83891 7.73275 3.49708 8.75 3.5C8.90129 3.50181 9.05045 3.5359 9.1875 3.6L23.4625 10.4875C24.098 10.4243 24.6852 10.1204 25.1037 9.638C25.5221 9.15561 25.7401 8.53137 25.713 7.89334C25.6858 7.25531 25.4155 6.65188 24.9575 6.20683C24.4995 5.76179 23.8885 5.50888 23.25 5.5C22.9848 5.5 22.7304 5.39465 22.5429 5.20711C22.3554 5.01957 22.25 4.76522 22.25 4.5C22.25 4.23479 22.3554 3.98043 22.5429 3.7929C22.7304 3.60536 22.9848 3.5 23.25 3.5C24.4435 3.5 25.5881 3.97411 26.432 4.81802C27.2759 5.66194 27.75 6.80653 27.75 8C27.75 9.19348 27.2759 10.3381 26.432 11.182C25.5881 12.0259 24.4435 12.5 23.25 12.5C23.0987 12.4982 22.9495 12.4641 22.8125 12.4L15.7875 9C13.4958 9.05553 11.3113 9.98226 9.67881 11.5916C8.04628 13.2009 7.08835 15.3718 7 17.6625L11.5125 15.25L15.525 13.1125C15.6775 13.033 15.8479 12.9941 16.0198 12.9996C16.1917 13.0052 16.3593 13.055 16.5063 13.1442C16.6533 13.2334 16.7748 13.3591 16.8591 13.509C16.9434 13.6589 16.9876 13.828 16.9875 14V26.9375C18.815 26.7398 20.5376 25.985 21.9217 24.7753C23.3058 23.5656 24.2844 21.9596 24.725 20.175C24.7992 19.9287 24.9654 19.7204 25.1892 19.5935C25.413 19.4665 25.6771 19.4307 25.9265 19.4935C26.176 19.5563 26.3917 19.7128 26.5288 19.9305C26.6659 20.1482 26.7137 20.4104 26.6625 20.6625ZM14.9875 15.6625L12.9875 16.7375V26.4875C13.6347 26.7137 14.3058 26.8647 14.9875 26.9375V15.6625ZM8.05 10.4C9.32636 9.06031 10.9221 8.06674 12.6875 7.5125L8.5375 5.5125C7.95788 5.56407 7.41441 5.81622 7.00075 6.22549C6.58709 6.63476 6.32916 7.17551 6.2714 7.75454C6.21365 8.33357 6.35969 8.91461 6.68436 9.39752C7.00903 9.88043 7.49199 10.235 8.05 10.4ZM10.9875 25.475V17.8L7.175 19.8375C7.66021 22.1427 9.02873 24.1663 10.9875 25.475Z" fill="#344054"/>
</svg>
