<svg width="32" height="32" viewBox="0 0 32 32" fill="none" xmlns="http://www.w3.org/2000/svg">
<path d="M27.95 14.275L6.98751 2.2625C6.67857 2.08666 6.32879 1.99525 5.97333 1.99744C5.61787 1.99964 5.26925 2.09536 4.96251 2.275C4.66196 2.44852 4.41244 2.69817 4.23908 2.99881C4.06572 3.29945 3.97464 3.64046 3.97501 3.9875V28.0125C3.97831 28.5408 4.19048 29.0463 4.56519 29.4186C4.93991 29.791 5.44673 30 5.97501 30C6.32918 29.9988 6.67735 29.9085 6.98751 29.7375L27.95 17.725C28.2606 17.5565 28.5199 17.3073 28.7006 17.0037C28.8813 16.7001 28.9767 16.3533 28.9767 16C28.9767 15.6467 28.8813 15.2999 28.7006 14.9963C28.5199 14.6927 28.2606 14.4435 27.95 14.275ZM18 17.4125L20.3625 19.775L9.33751 26.075L18 17.4125ZM9.33751 5.9125L20.3625 12.225L18 14.5875L9.33751 5.9125ZM22.15 18.7375L19.4125 16L22.15 13.2625L26.95 16L22.15 18.7375Z" fill="#344054"/>
</svg>
