<svg width="32" height="32" viewBox="0 0 32 32" fill="none" xmlns="http://www.w3.org/2000/svg">
<path d="M25 3H9C8.46957 3 7.96086 3.21071 7.58579 3.58579C7.21071 3.96086 7 4.46957 7 5V8H5C4.46957 8 3.96086 8.21071 3.58579 8.58579C3.21071 8.96086 3 9.46957 3 10V22C3 22.5304 3.21071 23.0391 3.58579 23.4142C3.96086 23.7893 4.46957 24 5 24H7V27C7 27.5304 7.21071 28.0391 7.58579 28.4142C7.96086 28.7893 8.46957 29 9 29H25C25.5304 29 26.0391 28.7893 26.4142 28.4142C26.7893 28.0391 27 27.5304 27 27V5C27 4.46957 26.7893 3.96086 26.4142 3.58579C26.0391 3.21071 25.5304 3 25 3ZM8.65 19.8C8.43783 19.6409 8.29756 19.404 8.26005 19.1414C8.22254 18.8789 8.29087 18.6122 8.45 18.4L10.25 16L8.45 13.6C8.37121 13.4949 8.31388 13.3754 8.28129 13.2482C8.24869 13.121 8.24148 12.9886 8.26005 12.8586C8.27862 12.7286 8.32262 12.6035 8.38953 12.4905C8.45643 12.3775 8.54494 12.2788 8.65 12.2C8.75506 12.1212 8.87461 12.0639 9.00182 12.0313C9.12903 11.9987 9.26142 11.9915 9.39142 12.0101C9.52142 12.0286 9.64649 12.0726 9.75949 12.1395C9.87249 12.2064 9.97121 12.2949 10.05 12.4L11.5 14.3375L12.95 12.4C13.1091 12.1878 13.346 12.0476 13.6086 12.0101C13.8711 11.9725 14.1378 12.0409 14.35 12.2C14.5622 12.3591 14.7024 12.596 14.7399 12.8586C14.7775 13.1211 14.7091 13.3878 14.55 13.6L12.75 16L14.55 18.4C14.7091 18.6122 14.7775 18.8789 14.7399 19.1414C14.7024 19.404 14.5622 19.6409 14.35 19.8C14.1782 19.9323 13.9668 20.0028 13.75 20C13.5948 20 13.4416 19.9639 13.3028 19.8944C13.1639 19.825 13.0431 19.7242 12.95 19.6L11.5 17.6625L10.05 19.6C9.95685 19.7242 9.83607 19.825 9.69721 19.8944C9.55836 19.9639 9.40525 20 9.25 20C9.03318 20.0028 8.82176 19.9323 8.65 19.8ZM16 27H9V24H16V27ZM16 8H9V5H16V8ZM25 27H18V24C18.5304 24 19.0391 23.7893 19.4142 23.4142C19.7893 23.0391 20 22.5304 20 22V21H25V27ZM25 19H20V13H25V19ZM25 11H20V10C20 9.46957 19.7893 8.96086 19.4142 8.58579C19.0391 8.21071 18.5304 8 18 8V5H25V11Z" fill="#344054"/>
</svg>
