<svg width="32" height="32" viewBox="0 0 32 32" fill="none" xmlns="http://www.w3.org/2000/svg">
<path d="M16 3C13.4288 3 10.9154 3.76244 8.77759 5.1909C6.63975 6.61935 4.97351 8.64968 3.98957 11.0251C3.00563 13.4006 2.74819 16.0144 3.2498 18.5362C3.75141 21.0579 4.98953 23.3743 6.80762 25.1924C8.6257 27.0105 10.9421 28.2486 13.4638 28.7502C15.9856 29.2518 18.5995 28.9944 20.9749 28.0104C23.3503 27.0265 25.3807 25.3603 26.8091 23.2224C28.2376 21.0846 29 18.5712 29 16C28.9934 12.5542 27.6216 9.25145 25.1851 6.81491C22.7486 4.37837 19.4458 3.00661 16 3ZM16 5C17.9304 5.00149 19.8266 5.5104 21.4983 6.47571C23.1701 7.44103 24.5587 8.82883 25.525 10.5H16C14.8796 10.5004 13.7861 10.843 12.8658 11.4819C11.9454 12.1208 11.2421 13.0255 10.85 14.075L7.76251 8.725C8.79123 7.55345 10.0583 6.61509 11.4789 5.97269C12.8995 5.33029 14.4409 4.99866 16 5ZM5.00001 16C4.99862 14.0687 5.50746 12.1714 6.47501 10.5L11.2375 18.75L11.2625 18.7875C11.8267 19.7473 12.6688 20.5133 13.6776 20.9843C14.6865 21.4552 15.8145 21.6089 16.9125 21.425L13.8125 26.7875C11.3276 26.2761 9.09468 24.9242 7.48963 22.9595C5.88459 20.9947 5.00539 18.537 5.00001 16ZM16 27L20.7625 18.75C20.775 18.7375 20.775 18.7125 20.7875 18.7C21.3362 17.733 21.5775 16.6218 21.4793 15.5142C21.381 14.4067 20.9479 13.3553 20.2375 12.5H26.425C26.808 13.6271 27.0023 14.8096 27 16C26.9967 18.9164 25.8367 21.7123 23.7745 23.7745C21.7123 25.8367 18.9164 26.9967 16 27Z" fill="#344054"/>
</svg>
