<svg width="32" height="32" viewBox="0 0 32 32" fill="none" xmlns="http://www.w3.org/2000/svg">
<path d="M26 4H6C5.46957 4 4.96086 4.21071 4.58579 4.58579C4.21071 4.96086 4 5.46957 4 6V26C4 26.5304 4.21071 27.0391 4.58579 27.4142C4.96086 27.7893 5.46957 28 6 28H26C26.5304 28 27.0391 27.7893 27.4142 27.4142C27.7893 27.0391 28 26.5304 28 26V6C28 5.46957 27.7893 4.96086 27.4142 4.58579C27.0391 4.21071 26.5304 4 26 4ZM16 23C12.9125 23 10.4875 21.2375 10.4875 19C10.4875 18.7348 10.5929 18.4804 10.7804 18.2929C10.9679 18.1054 11.2223 18 11.4875 18C11.7527 18 12.0071 18.1054 12.1946 18.2929C12.3821 18.4804 12.4875 18.7348 12.4875 19C12.4875 19.95 13.9375 21 16 21C17.6625 21 19.5125 20.175 19.5125 19C19.5125 17.825 17.9875 17.325 15.6625 16.725C14.575 16.45 13.45 16.1625 12.5625 15.7C11.35 15.05 10.7375 14.15 10.7375 13C10.7375 10.725 13 9 16 9C18.15 9 19.9875 9.9 20.8125 11.3375C20.9433 11.568 20.9772 11.8409 20.9069 12.0963C20.8366 12.3518 20.6678 12.5689 20.4375 12.7C20.3238 12.7664 20.198 12.8094 20.0674 12.8265C19.9369 12.8436 19.8042 12.8344 19.6773 12.7995C19.5503 12.7645 19.4316 12.7046 19.3282 12.6231C19.2248 12.5416 19.1387 12.4402 19.075 12.325C18.6125 11.525 17.4125 11 16 11C14.175 11 12.7375 11.875 12.7375 13C12.7375 13.85 14.0875 14.2625 16.15 14.7875C18.5375 15.4 21.5125 16.1625 21.5125 19C21.5125 21.2375 19.0875 23 16 23Z" fill="#344054"/>
</svg>
