<svg width="32" height="32" viewBox="0 0 32 32" fill="none" xmlns="http://www.w3.org/2000/svg">
<path d="M30 12.625V20.625C30.0003 20.8033 29.953 20.9784 29.8629 21.1323C29.7728 21.2861 29.6432 21.4131 29.4875 21.5L17.75 28.1625C17.6737 28.2066 17.587 28.2297 17.4989 28.2295C17.4107 28.2293 17.3242 28.2058 17.248 28.1614C17.1719 28.117 17.1089 28.0532 17.0653 27.9766C17.0217 27.8999 16.9992 27.8131 17 27.725V20.5875L23.975 16.625L28 18.9125V14.3375L23.975 16.625L21.95 15.475L26.975 12.625L17 6.9625V12.6625L21.95 15.475L16 18.85L10.05 15.475L15 12.6625V6.9625L5.025 12.625L10.05 15.475L8.025 16.625L4 14.3375V18.9125L8.025 16.625L15 20.5875V27.725C15.0008 27.8131 14.9783 27.8999 14.9347 27.9766C14.8911 28.0532 14.8281 28.117 14.752 28.1614C14.6758 28.2058 14.5893 28.2293 14.5011 28.2295C14.413 28.2297 14.3263 28.2066 14.25 28.1625L2.5125 21.5C2.35683 21.4131 2.22723 21.2861 2.13712 21.1323C2.04701 20.9784 1.99967 20.8033 2 20.625V12.625C1.99967 12.4467 2.04701 12.2716 2.13712 12.1177C2.22723 11.9639 2.35683 11.8369 2.5125 11.75L15.0125 4.6625C15.3131 4.49037 15.6536 4.39982 16 4.39982C16.3464 4.39982 16.6869 4.49037 16.9875 4.6625L29.4875 11.75C29.6432 11.8369 29.7728 11.9639 29.8629 12.1177C29.953 12.2716 30.0003 12.4467 30 12.625Z" fill="#344054"/>
</svg>
