<svg width="32" height="32" viewBox="0 0 32 32" fill="none" xmlns="http://www.w3.org/2000/svg">
<path d="M11.6625 4.6125C11.5814 4.56293 11.5162 4.49128 11.4744 4.40595C11.4325 4.32063 11.4159 4.22515 11.4264 4.13071C11.4369 4.03627 11.4741 3.94677 11.5336 3.8727C11.5931 3.79864 11.6725 3.74306 11.7625 3.7125C13.5844 3.08224 15.5239 2.86629 17.4398 3.08036C19.3557 3.29444 21.1997 3.93316 22.8375 4.95C22.8984 4.98637 22.9509 5.03529 22.9915 5.09352C23.0321 5.15174 23.0598 5.21794 23.0728 5.2877C23.0858 5.35746 23.0838 5.42919 23.0669 5.49813C23.0501 5.56706 23.0187 5.63161 22.975 5.6875C21.5217 7.53174 19.7474 9.09852 17.7375 10.3125C16.1109 8.02811 14.0458 6.09044 11.6625 4.6125ZM15.95 11.25C14.1199 8.7634 11.7192 6.75283 8.95 5.3875C8.86824 5.35046 8.7785 5.33449 8.68898 5.34104C8.59946 5.34759 8.513 5.37645 8.4375 5.425C6.19692 7.03877 4.52178 9.31749 3.65 11.9375C3.62937 12.004 3.62286 12.0741 3.63088 12.1432C3.63891 12.2124 3.66129 12.2791 3.69659 12.3391C3.73189 12.3992 3.77934 12.4511 3.83589 12.4917C3.89244 12.5324 3.95685 12.5607 4.025 12.575C5.33124 12.8569 6.6637 12.9993 8 13C10.7459 13.0035 13.4593 12.4062 15.95 11.25ZM28.925 14.5875C28.6053 11.6881 27.3197 8.98042 25.275 6.9C25.2245 6.85083 25.1644 6.8126 25.0985 6.7877C25.0326 6.76279 24.9622 6.75176 24.8918 6.75528C24.8214 6.7588 24.7525 6.7768 24.6894 6.80815C24.6263 6.8395 24.5703 6.88354 24.525 6.9375C22.9443 8.95473 21.0084 10.6662 18.8125 11.9875C19.4974 13.1761 20.0667 14.4276 20.5125 15.725C22.3015 15.2413 24.1468 14.9975 26 15C26.7936 15.0018 27.5865 15.0477 28.375 15.1375C28.4492 15.1454 28.5241 15.1366 28.5944 15.1117C28.6648 15.0868 28.7286 15.0466 28.7813 14.9938C28.8341 14.9411 28.8743 14.8773 28.8992 14.8069C28.9241 14.7366 28.9329 14.6617 28.925 14.5875ZM21.0625 17.65C21.4297 19.2278 21.6143 20.8425 21.6125 22.4625C21.6116 24.01 21.4397 25.5527 21.1 27.0625C21.0777 27.1553 21.0825 27.2526 21.1138 27.3428C21.145 27.433 21.2014 27.5124 21.2764 27.5716C21.3513 27.6307 21.4416 27.6672 21.5366 27.6767C21.6316 27.6861 21.7274 27.6682 21.8125 27.625C23.7093 26.6763 25.3454 25.2784 26.5785 23.5529C27.8116 21.8275 28.6042 19.8268 28.8875 17.725C28.8962 17.6593 28.8918 17.5924 28.8745 17.5284C28.8571 17.4644 28.8273 17.4045 28.7865 17.3521C28.7458 17.2998 28.6951 17.2561 28.6373 17.2235C28.5795 17.1909 28.5159 17.1702 28.45 17.1625C27.6381 17.0516 26.8194 16.9973 26 17C24.3327 16.9979 22.6725 17.2165 21.0625 17.65ZM18.6 16.35C18.2039 15.1655 17.6844 14.0259 17.05 12.95C14.2251 14.3028 11.1322 15.0034 8 15C6.53364 14.9992 5.07143 14.8442 3.6375 14.5375C3.56804 14.5231 3.49631 14.5236 3.42708 14.5391C3.35784 14.5545 3.29268 14.5845 3.23593 14.6271C3.17918 14.6696 3.13214 14.7238 3.09793 14.7859C3.06371 14.8481 3.04312 14.9168 3.0375 14.9875C3.0125 15.3208 3 15.6583 3 16C2.99937 17.7799 3.36529 19.5408 4.07498 21.1731C4.78467 22.8054 5.8229 24.274 7.125 25.4875C7.17866 25.539 7.2434 25.5776 7.31426 25.6002C7.38512 25.6229 7.46023 25.629 7.53383 25.6182C7.60743 25.6073 7.67756 25.5797 7.73886 25.5376C7.80017 25.4954 7.85101 25.4398 7.8875 25.375C10.3265 21.2346 14.1057 18.0507 18.6 16.35ZM9.4625 26.65C9.42915 26.7073 9.40753 26.7707 9.39891 26.8365C9.39029 26.9022 9.39484 26.969 9.41229 27.033C9.42974 27.097 9.45974 27.1569 9.50055 27.2091C9.54136 27.2614 9.59216 27.305 9.65 27.3375C11.5873 28.4315 13.7752 29.0043 16 29C16.7587 29.0033 17.5161 28.9364 18.2625 28.8C18.3489 28.7857 18.4296 28.7477 18.4958 28.6904C18.562 28.633 18.611 28.5585 18.6375 28.475C19.2859 26.5368 19.6152 24.5062 19.6125 22.4625C19.6118 21.054 19.4567 19.6497 19.15 18.275C15.0554 19.8723 11.6349 22.8294 9.4625 26.65Z" fill="#344054"/>
</svg>
