<svg width="32" height="32" viewBox="0 0 32 32" fill="none" xmlns="http://www.w3.org/2000/svg">
<path d="M29 16.4C28.7875 23.2125 23.275 28.7625 16.4625 28.9875C15.2598 29.0332 14.0566 28.9112 12.8875 28.625C12.7595 28.5897 12.6502 28.5062 12.5826 28.3919C12.515 28.2777 12.4943 28.1417 12.525 28.0125L13.6375 23.5875C14.6505 24.2011 15.8158 24.5173 17 24.5C21.625 24.5 25.3375 20.3125 24.975 15.325C24.65 10.8375 20.975 7.25 16.475 7.0125C15.2548 6.94802 14.0343 7.13267 12.8877 7.55521C11.7412 7.97775 10.6928 8.62933 9.80624 9.47024C8.91972 10.3111 8.21372 11.3238 7.73126 12.4464C7.2488 13.569 7 14.7781 7 16C7.00184 17.1559 7.22238 18.3011 7.65 19.375C7.74946 19.622 7.94295 19.8193 8.18792 19.9237C8.43289 20.028 8.70927 20.0307 8.95625 19.9313C9.20323 19.8318 9.40059 19.6383 9.50491 19.3933C9.60923 19.1484 9.61196 18.872 9.5125 18.625C9.18703 17.8266 9.01323 16.9746 9 16.1125C8.98508 14.256 9.70827 12.4696 11.0105 11.1463C12.3127 9.82298 14.0872 9.07117 15.9438 9.05625C17.8003 9.04134 19.5867 9.76453 20.91 11.0667C22.2333 12.3689 22.9851 14.1435 23 16C23 19.5875 20.3125 22.5 17 22.5C15.6875 22.5 14.775 22.0375 14.15 21.5L15.975 14.2375C16.0062 14.1095 16.0119 13.9765 15.9917 13.8463C15.9715 13.7161 15.9259 13.5911 15.8574 13.4785C15.7889 13.3659 15.6989 13.2679 15.5925 13.1901C15.4862 13.1123 15.3655 13.0562 15.2375 13.025C15.1095 12.9938 14.9765 12.9882 14.8463 13.0083C14.7161 13.0285 14.5911 13.0742 14.4785 13.1426C14.2511 13.2809 14.088 13.5039 14.025 13.7625L10.675 27.1875C10.6569 27.2606 10.6225 27.3286 10.5744 27.3865C10.5263 27.4445 10.4657 27.4908 10.3972 27.522C10.3287 27.5533 10.254 27.5686 10.1788 27.567C10.1035 27.5653 10.0296 27.5467 9.9625 27.5125C7.90763 26.4335 6.17909 24.8241 4.95638 22.8514C3.73367 20.8787 3.06138 18.6146 3.00934 16.2942C2.9573 13.9739 3.5274 11.6819 4.66043 9.65635C5.79346 7.63078 7.44811 5.94548 9.45254 4.77546C11.457 3.60544 13.7381 2.99338 16.059 3.00282C18.3799 3.01227 20.6559 3.64289 22.6508 4.82918C24.6456 6.01548 26.2865 7.7142 27.403 9.74892C28.5195 11.7836 29.0709 14.0802 29 16.4Z" fill="#344054"/>
</svg>
