<svg width="32" height="32" viewBox="0 0 32 32" fill="none" xmlns="http://www.w3.org/2000/svg">
<path d="M16 3C13.4288 3 10.9154 3.76244 8.77759 5.1909C6.63975 6.61935 4.97351 8.64968 3.98957 11.0251C3.00563 13.4006 2.74819 16.0144 3.2498 18.5362C3.75141 21.0579 4.98953 23.3743 6.80762 25.1924C8.6257 27.0105 10.9421 28.2486 13.4638 28.7502C15.9856 29.2518 18.5995 28.9944 20.9749 28.0104C23.3503 27.0265 25.3807 25.3603 26.8091 23.2224C28.2376 21.0846 29 18.5712 29 16C28.9934 12.5542 27.6216 9.25145 25.1851 6.81491C22.7486 4.37837 19.4458 3.00661 16 3ZM16 26C14.3561 25.9987 12.7378 25.5921 11.2884 24.8163C9.8391 24.0404 8.60338 22.9193 7.69067 21.552C6.77797 20.1847 6.21642 18.6134 6.05575 16.9774C5.89508 15.3413 6.14024 13.6908 6.76952 12.1721C7.3988 10.6534 8.39281 9.31321 9.66353 8.27023C10.9343 7.22726 12.4425 6.51365 14.0548 6.19258C15.6671 5.87151 17.3337 5.95287 18.907 6.42947C20.4803 6.90607 21.9119 7.76321 23.075 8.925C23.262 9.11247 23.367 9.36645 23.367 9.63125C23.367 9.89605 23.262 10.15 23.075 10.3375C22.983 10.4316 22.8732 10.5064 22.7519 10.5575C22.6306 10.6085 22.5003 10.6348 22.3688 10.6348C22.2372 10.6348 22.1069 10.6085 21.9856 10.5575C21.8643 10.5064 21.7545 10.4316 21.6625 10.3375C20.3838 9.055 18.7084 8.2435 16.9094 8.03531C15.1104 7.82712 13.2939 8.23452 11.7562 9.19109C10.2184 10.1477 9.05002 11.597 8.44157 13.3027C7.83312 15.0085 7.82048 16.87 8.40569 18.5839C8.99091 20.2977 10.1395 21.7628 11.6641 22.7402C13.1887 23.7175 14.9995 24.1496 16.8012 23.9659C18.6029 23.7821 20.2892 22.9935 21.5851 21.7284C22.8811 20.4634 23.7103 18.7967 23.9375 17H16C15.7348 17 15.4804 16.8946 15.2929 16.7071C15.1054 16.5196 15 16.2652 15 16C15 15.7348 15.1054 15.4804 15.2929 15.2929C15.4804 15.1054 15.7348 15 16 15H25C25.2652 15 25.5196 15.1054 25.7071 15.2929C25.8946 15.4804 26 15.7348 26 16C25.9967 18.6511 24.9421 21.1928 23.0674 23.0674C21.1928 24.9421 18.6512 25.9967 16 26Z" fill="#344054"/>
</svg>
