<svg width="32" height="32" viewBox="0 0 32 32" fill="none" xmlns="http://www.w3.org/2000/svg">
<path d="M12.75 15C12.75 14.7348 12.6446 14.4804 12.4571 14.2929C12.2696 14.1054 12.0152 14 11.75 14H10.75V16H11.75C12.0152 16 12.2696 15.8946 12.4571 15.7071C12.6446 15.5196 12.75 15.2652 12.75 15Z" fill="#344054"/>
<path d="M17 3C15.0246 3.00415 13.0759 3.45626 11.3005 4.32231C9.52511 5.18836 7.96925 6.4458 6.75 8H5C4.46957 8 3.96086 8.21071 3.58579 8.58579C3.21071 8.96086 3 9.46957 3 10V22C3 22.5304 3.21071 23.0391 3.58579 23.4142C3.96086 23.7893 4.46957 24 5 24H6.75C8.10701 25.7382 9.88386 27.1026 11.9134 27.9649C13.943 28.8272 16.1585 29.159 18.3517 28.9292C20.5448 28.6994 22.6434 27.9155 24.4502 26.6513C26.2569 25.387 27.7124 23.6839 28.6796 21.7022C29.6469 19.7206 30.0941 17.5254 29.9793 15.3232C29.8645 13.1211 29.1914 10.9843 28.0234 9.11396C26.8553 7.24358 25.2307 5.70107 23.3023 4.63151C21.3739 3.56196 19.2051 3.00052 17 3ZM8.75 19V13C8.75 12.7348 8.85536 12.4804 9.04289 12.2929C9.23043 12.1054 9.48478 12 9.75 12H11.75C12.5456 12 13.3087 12.3161 13.8713 12.8787C14.4339 13.4413 14.75 14.2044 14.75 15C14.75 15.7956 14.4339 16.5587 13.8713 17.1213C13.3087 17.6839 12.5456 18 11.75 18H10.75V19C10.75 19.2652 10.6446 19.5196 10.4571 19.7071C10.2696 19.8946 10.0152 20 9.75 20C9.48478 20 9.23043 19.8946 9.04289 19.7071C8.85536 19.5196 8.75 19.2652 8.75 19ZM16 26.95C13.5498 26.7208 11.2455 25.683 9.45 24H16V26.95ZM16 8H9.45C11.2455 6.31702 13.5498 5.27919 16 5.05V8ZM18 5.05C20.5597 5.28463 22.9565 6.4083 24.7741 8.2259C26.5917 10.0435 27.7154 12.4403 27.95 15H20V10C20 9.46957 19.7893 8.96086 19.4142 8.58579C19.0391 8.21071 18.5304 8 18 8V5.05ZM18 26.95V24C18.5304 24 19.0391 23.7893 19.4142 23.4142C19.7893 23.0391 20 22.5304 20 22V17H27.95C27.7154 19.5597 26.5917 21.9565 24.7741 23.7741C22.9565 25.5917 20.5597 26.7154 18 26.95Z" fill="#344054"/>
</svg>
