<svg width="32" height="32" viewBox="0 0 32 32" fill="none" xmlns="http://www.w3.org/2000/svg">
<path d="M30.9125 21.225L26.6625 7.075C26.5808 6.78881 26.4347 6.52511 26.2354 6.30411C26.0361 6.08311 25.7888 5.91067 25.5125 5.8H25.4375L25.5125 5.775C24.118 5.21624 22.6742 4.78937 21.2 4.5C21.0711 4.47453 20.9385 4.47469 20.8097 4.50049C20.6809 4.52628 20.5585 4.5772 20.4494 4.65033C20.3402 4.72346 20.2466 4.81737 20.1738 4.9267C20.101 5.03602 20.0504 5.15863 20.025 5.2875C19.9977 5.41561 19.9961 5.54788 20.0204 5.67661C20.0446 5.80534 20.0943 5.92795 20.1664 6.03731C20.2385 6.14666 20.3317 6.24057 20.4405 6.31357C20.5493 6.38657 20.6715 6.43719 20.8 6.4625C21.3625 6.575 21.9125 6.7125 22.45 6.8625C22.648 6.96526 22.8059 7.13126 22.8987 7.33411C22.9915 7.53695 23.0138 7.76499 22.962 7.98197C22.9103 8.19894 22.7875 8.39239 22.6132 8.53156C22.4389 8.67072 22.223 8.74761 22 8.75H21.9C19.9737 8.24763 17.9907 7.99556 16 8C14.0561 7.9942 12.1194 8.23786 10.2375 8.725C9.99803 8.78818 9.74363 8.76026 9.52357 8.64662C9.30351 8.53299 9.13345 8.34174 9.04631 8.1099C8.95918 7.87807 8.96118 7.62214 9.05192 7.3917C9.14267 7.16125 9.3157 6.97268 9.53751 6.8625H9.55001C10.0875 6.7125 10.6375 6.575 11.2 6.4625C11.3289 6.43708 11.4515 6.38652 11.5608 6.3137C11.6701 6.24089 11.764 6.14725 11.8372 6.03814C11.9103 5.92902 11.9612 5.80657 11.987 5.67777C12.0128 5.54898 12.013 5.41636 11.9875 5.2875C11.9332 5.02885 11.7799 4.80169 11.5603 4.65454C11.3408 4.5074 11.0724 4.45194 10.8125 4.5C9.33304 4.79585 7.88491 5.23112 6.48751 5.8C6.21123 5.91067 5.96396 6.08311 5.76462 6.30411C5.56529 6.52511 5.41919 6.78881 5.33751 7.075L1.08751 21.225C0.977251 21.5949 0.976415 21.9889 1.0851 22.3593C1.19378 22.7297 1.40734 23.0608 1.70001 23.3125C1.815 23.4233 1.93601 23.5276 2.06251 23.625H2.07501C4.10001 25.275 6.76251 26.5375 9.76251 27.2625C9.83929 27.2871 9.91939 27.2997 10 27.3C10.2472 27.3039 10.4872 27.2161 10.6735 27.0535C10.8597 26.8909 10.9792 26.665 11.0087 26.4195C11.0382 26.174 10.9757 25.9263 10.8333 25.7241C10.6909 25.522 10.4786 25.3798 10.2375 25.325C8.88882 24.9992 7.57762 24.5342 6.32501 23.9375C6.15356 23.7769 6.04416 23.561 6.01598 23.3277C5.9878 23.0945 6.04264 22.8588 6.17089 22.6619C6.29915 22.4651 6.49261 22.3196 6.71736 22.2512C6.94211 22.1827 7.18379 22.1956 7.40001 22.2875C9.77501 23.3375 12.7625 24 16 24C19.2375 24 22.225 23.3375 24.6 22.2875C24.8162 22.1956 25.0579 22.1827 25.2826 22.2512C25.5074 22.3196 25.7009 22.4651 25.8291 22.6619C25.9574 22.8588 26.0122 23.0945 25.984 23.3277C25.9559 23.561 25.8464 23.7769 25.675 23.9375C24.4224 24.5342 23.1112 24.9992 21.7625 25.325C21.5214 25.3798 21.3091 25.522 21.1667 25.7241C21.0243 25.9263 20.9618 26.174 20.9913 26.4195C21.0208 26.665 21.1403 26.8909 21.3266 27.0535C21.5128 27.2161 21.7528 27.3039 22 27.3C22.0806 27.2997 22.1607 27.2871 22.2375 27.2625C25.2375 26.5375 27.9 25.275 29.925 23.625H29.9375C30.064 23.5276 30.185 23.4233 30.3 23.3125C30.5927 23.0608 30.8062 22.7297 30.9149 22.3593C31.0236 21.9889 31.0228 21.5949 30.9125 21.225ZM12 19.5C11.7033 19.5 11.4133 19.412 11.1667 19.2472C10.92 19.0824 10.7277 18.8481 10.6142 18.574C10.5007 18.2999 10.471 17.9983 10.5288 17.7074C10.5867 17.4164 10.7296 17.1491 10.9393 16.9393C11.1491 16.7296 11.4164 16.5867 11.7074 16.5288C11.9983 16.4709 12.2999 16.5006 12.574 16.6142C12.8481 16.7277 13.0824 16.92 13.2472 17.1666C13.412 17.4133 13.5 17.7033 13.5 18C13.5 18.3978 13.342 18.7794 13.0607 19.0607C12.7794 19.342 12.3978 19.5 12 19.5ZM20 19.5C19.7033 19.5 19.4133 19.412 19.1667 19.2472C18.92 19.0824 18.7277 18.8481 18.6142 18.574C18.5007 18.2999 18.4709 17.9983 18.5288 17.7074C18.5867 17.4164 18.7296 17.1491 18.9393 16.9393C19.1491 16.7296 19.4164 16.5867 19.7074 16.5288C19.9983 16.4709 20.2999 16.5006 20.574 16.6142C20.8481 16.7277 21.0824 16.92 21.2472 17.1666C21.412 17.4133 21.5 17.7033 21.5 18C21.5 18.3978 21.342 18.7794 21.0607 19.0607C20.7794 19.342 20.3978 19.5 20 19.5Z" fill="#344054"/>
</svg>
