<svg width="32" height="32" viewBox="0 0 32 32" fill="none" xmlns="http://www.w3.org/2000/svg">
<path d="M28 28C28 28.2652 27.8946 28.5196 27.7071 28.7071C27.5196 28.8946 27.2652 29 27 29C25.9401 28.9967 24.9246 28.5742 24.1752 27.8248C23.4258 27.0754 23.0033 26.0599 23 25V24C23 23.4696 22.7893 22.9609 22.4142 22.5858C22.0391 22.2107 21.5304 22 21 22H19.5V27C19.5 27.5304 19.7107 28.0391 20.0858 28.4142C20.4609 28.7893 20.9696 29 21.5 29C21.7652 29 22.0196 29.1054 22.2071 29.2929C22.3946 29.4804 22.5 29.7348 22.5 30C22.5 30.2652 22.3946 30.5196 22.2071 30.7071C22.0196 30.8946 21.7652 31 21.5 31C20.4401 30.9967 19.4246 30.5742 18.6752 29.8248C17.9258 29.0754 17.5033 28.0599 17.5 27V22H14.5V27C14.4967 28.0599 14.0742 29.0754 13.3248 29.8248C12.5754 30.5742 11.5599 30.9967 10.5 31C10.2348 31 9.98043 30.8946 9.79289 30.7071C9.60536 30.5196 9.5 30.2652 9.5 30C9.5 29.7348 9.60536 29.4804 9.79289 29.2929C9.98043 29.1054 10.2348 29 10.5 29C11.0304 29 11.5391 28.7893 11.9142 28.4142C12.2893 28.0391 12.5 27.5304 12.5 27V22H11C10.4696 22 9.96086 22.2107 9.58579 22.5858C9.21071 22.9609 9 23.4696 9 24V25C8.9967 26.0599 8.57422 27.0754 7.82479 27.8248C7.07535 28.5742 6.05985 28.9967 5 29C4.73478 29 4.48043 28.8946 4.29289 28.7071C4.10536 28.5196 4 28.2652 4 28C4 27.7348 4.10536 27.4804 4.29289 27.2929C4.48043 27.1054 4.73478 27 5 27C5.53043 27 6.03914 26.7893 6.41421 26.4142C6.78929 26.0391 7 25.5304 7 25V24C7.00082 23.3275 7.17067 22.666 7.49393 22.0762C7.8172 21.4865 8.2835 20.9875 8.85 20.625C7.96658 19.9771 7.2482 19.1302 6.75305 18.153C6.2579 17.1757 5.99992 16.0955 6 15V14C6.01248 12.7578 6.34391 11.5397 6.9625 10.4625C6.65776 9.47583 6.56041 8.43678 6.67658 7.41067C6.79274 6.38457 7.1199 5.39358 7.6375 4.5C7.72297 4.34676 7.84821 4.21943 8.00001 4.13143C8.15181 4.04343 8.32455 3.99802 8.5 4C9.66485 3.99707 10.8142 4.26688 11.8561 4.78781C12.898 5.30875 13.8034 6.06636 14.5 7H17.5C18.1966 6.06636 19.102 5.30875 20.1439 4.78781C21.1858 4.26688 22.3351 3.99707 23.5 4C23.6755 3.99802 23.8482 4.04343 24 4.13143C24.1518 4.21943 24.277 4.34676 24.3625 4.5C24.8801 5.39358 25.2073 6.38457 25.3234 7.41067C25.4396 8.43678 25.3422 9.47583 25.0375 10.4625C25.6561 11.5397 25.9875 12.7578 26 14V15C26.0001 16.0955 25.7421 17.1757 25.247 18.153C24.7518 19.1302 24.0334 19.9771 23.15 20.625C23.7165 20.9875 24.1828 21.4865 24.5061 22.0762C24.8293 22.666 24.9992 23.3275 25 24V25C25 25.5304 25.2107 26.0391 25.5858 26.4142C25.9609 26.7893 26.4696 27 27 27C27.2652 27 27.5196 27.1054 27.7071 27.2929C27.8946 27.4804 28 27.7348 28 28Z" fill="#344054"/>
</svg>
