<svg width="32" height="32" viewBox="0 0 32 32" fill="none" xmlns="http://www.w3.org/2000/svg">
<path d="M8.0375 25.5125L6.8625 27.5125C6.77254 27.6608 6.64598 27.7836 6.49495 27.8689C6.34392 27.9543 6.17349 27.9994 6 28C5.82043 27.9972 5.64436 27.9499 5.4875 27.8625C5.26062 27.7249 5.09683 27.5037 5.03137 27.2466C4.96592 26.9894 5.00403 26.7168 5.1375 26.4875L6.325 24.4875C6.38751 24.3659 6.4743 24.2583 6.58002 24.1715C6.68574 24.0848 6.80813 24.0206 6.93963 23.983C7.07114 23.9454 7.20895 23.9352 7.34456 23.953C7.48016 23.9708 7.61067 24.0162 7.72803 24.0865C7.84538 24.1567 7.94708 24.2503 8.02683 24.3614C8.10658 24.4725 8.1627 24.5988 8.1917 24.7324C8.22071 24.8661 8.22199 25.0043 8.19547 25.1385C8.16894 25.2726 8.11518 25.3999 8.0375 25.5125ZM29 20H23.025L19.1875 13.5C19.1205 13.3864 19.0317 13.2872 18.9262 13.2081C18.8207 13.1289 18.7006 13.0714 18.5728 13.0389C18.445 13.0064 18.3121 12.9994 18.1816 13.0185C18.0511 13.0376 17.9256 13.0823 17.8125 13.15C17.6993 13.2158 17.6004 13.3034 17.5214 13.4078C17.4424 13.5122 17.385 13.6312 17.3524 13.758C17.3198 13.8848 17.3128 14.0168 17.3317 14.1463C17.3506 14.2758 17.3951 14.4003 17.4625 14.5125L25.1375 27.5125C25.2275 27.6608 25.354 27.7836 25.5051 27.8689C25.6561 27.9543 25.8265 27.9994 26 28C26.1796 27.9972 26.3556 27.9499 26.5125 27.8625C26.7394 27.7249 26.9032 27.5037 26.9686 27.2466C27.0341 26.9894 26.996 26.7168 26.8625 26.4875L24.2125 22H29C29.2652 22 29.5196 21.8946 29.7071 21.7071C29.8946 21.5196 30 21.2652 30 21C30 20.7348 29.8946 20.4804 29.7071 20.2929C29.5196 20.1054 29.2652 20 29 20ZM17.8125 20H11.3L16.85 10.6H16.8625L19.8625 5.525C19.9984 5.29625 20.0379 5.02287 19.9723 4.76501C19.9066 4.50715 19.7412 4.28592 19.5125 4.15C19.2838 4.01408 19.0104 3.97459 18.7525 4.04023C18.4946 4.10587 18.2734 4.27125 18.1375 4.5L16 8.1125L13.8625 4.4875C13.7952 4.37423 13.7062 4.27533 13.6007 4.19645C13.4952 4.11756 13.3752 4.06023 13.2475 4.02773C13.1198 3.99523 12.987 3.98819 12.8566 4.00703C12.7262 4.02586 12.6008 4.0702 12.4875 4.1375C12.3742 4.2048 12.2753 4.29375 12.1964 4.39928C12.1176 4.5048 12.0602 4.62483 12.0277 4.75251C11.9952 4.88019 11.9882 5.01302 12.007 5.14342C12.0259 5.27382 12.0702 5.39923 12.1375 5.5125L14.8375 10.075L8.975 20H3C2.73478 20 2.48043 20.1054 2.29289 20.2929C2.10536 20.4804 2 20.7348 2 21C2 21.2652 2.10536 21.5196 2.29289 21.7071C2.48043 21.8946 2.73478 22 3 22H17.8125C18.0777 22 18.3321 21.8946 18.5196 21.7071C18.7071 21.5196 18.8125 21.2652 18.8125 21C18.8125 20.7348 18.7071 20.4804 18.5196 20.2929C18.3321 20.1054 18.0777 20 17.8125 20Z" fill="#344054"/>
</svg>
