<svg width="32" height="32" viewBox="0 0 32 32" fill="none" xmlns="http://www.w3.org/2000/svg">
<path d="M28.9125 3.96251C28.635 3.72742 28.2991 3.57189 27.9403 3.51247C27.5816 3.45304 27.2134 3.49193 26.875 3.62501L3.79999 12.6875C3.39525 12.8417 3.05243 13.1247 2.82431 13.4928C2.59618 13.861 2.4954 14.2939 2.53749 14.725C2.57503 15.1559 2.75125 15.563 3.03973 15.8853C3.3282 16.2076 3.71337 16.4276 4.13749 16.5125L9.99999 17.675V25C9.99978 25.3963 10.1173 25.7837 10.3376 26.1131C10.5579 26.4424 10.8711 26.6989 11.2375 26.85C11.4799 26.9476 11.7386 26.9985 12 27C12.2627 27.0009 12.5229 26.9495 12.7654 26.8486C13.008 26.7477 13.2279 26.5994 13.4125 26.4125L16.6625 23.175L21.575 27.5C21.9377 27.8199 22.4039 27.9975 22.8875 28C23.1001 28.0044 23.3118 27.9705 23.5125 27.9C23.8423 27.7956 24.1392 27.607 24.3738 27.3527C24.6084 27.0983 24.7725 26.7872 24.85 26.45L29.55 5.92501C29.6321 5.57084 29.6162 5.20098 29.5039 4.8552C29.3915 4.50941 29.1871 4.20079 28.9125 3.96251ZM22.9 26L12.6 16.9375L27.4375 6.22501L22.9 26Z" fill="#344054"/>
</svg>
