<svg width="32" height="32" viewBox="0 0 32 32" fill="none" xmlns="http://www.w3.org/2000/svg">
<path d="M26 12.5V4C26 3.73478 25.8947 3.48043 25.7071 3.29289C25.5196 3.10536 25.2652 3 25 3H7.00001C6.80015 3.00025 6.60495 3.06038 6.43959 3.17263C6.27424 3.28489 6.14631 3.44411 6.07232 3.62977C5.99832 3.81543 5.98166 4.019 6.02447 4.21422C6.06728 4.40944 6.16761 4.58735 6.31251 4.725L13.4875 11.5H7.00001C6.73479 11.5 6.48044 11.6054 6.2929 11.7929C6.10537 11.9804 6.00001 12.2348 6.00001 12.5V21C5.99943 21.1358 6.02688 21.2703 6.08066 21.3951C6.13443 21.5198 6.21336 21.6321 6.31251 21.725L15.3125 30.225C15.4994 30.3991 15.7446 30.4972 16 30.5C16.1382 30.5011 16.2749 30.4712 16.4 30.4125C16.5787 30.3363 16.7309 30.209 16.8376 30.0467C16.9444 29.8844 17.0008 29.6943 17 29.5V22H25C25.1999 21.9998 25.3951 21.9396 25.5604 21.8274C25.7258 21.7151 25.8537 21.5559 25.9277 21.3702C26.0017 21.1846 26.0184 20.981 25.9755 20.7858C25.9327 20.5906 25.8324 20.4127 25.6875 20.275L18.5125 13.5H25C25.2652 13.5 25.5196 13.3946 25.7071 13.2071C25.8947 13.0196 26 12.7652 26 12.5Z" fill="#344054"/>
</svg>
