<svg width="32" height="32" viewBox="0 0 32 32" fill="none" xmlns="http://www.w3.org/2000/svg">
<path d="M17.75 3H8.5C8.23478 3 7.98043 3.10536 7.79289 3.29289C7.60536 3.48043 7.5 3.73478 7.5 4V20.5C7.50331 22.9522 8.47892 25.3031 10.2129 27.0371C11.9469 28.7711 14.2978 29.7467 16.75 29.75C17.0152 29.75 17.2696 29.6446 17.4571 29.4571C17.6446 29.2696 17.75 29.0152 17.75 28.75V21.5C20.2033 21.5 22.556 20.5254 24.2907 18.7907C26.0254 17.056 27 14.7033 27 12.25C27 9.79675 26.0254 7.44397 24.2907 5.70926C22.556 3.97455 20.2033 3 17.75 3ZM15.75 27.6875C14.1885 27.4665 12.7413 26.7431 11.6273 25.6269C10.5133 24.5106 9.79287 23.062 9.575 21.5H15.75V27.6875ZM15.75 16.2625L10.1125 5H15.75V16.2625ZM17.75 19.5V5C19.6728 5 21.5169 5.76384 22.8765 7.12348C24.2362 8.48311 25 10.3272 25 12.25C25 14.1728 24.2362 16.0169 22.8765 17.3765C21.5169 18.7362 19.6728 19.5 17.75 19.5Z" fill="#344054"/>
</svg>
