<svg width="32" height="32" viewBox="0 0 32 32" fill="none" xmlns="http://www.w3.org/2000/svg">
<path d="M16 18C15.3078 18 14.6311 17.7947 14.0555 17.4101C13.4799 17.0256 13.0313 16.4789 12.7664 15.8394C12.5015 15.1999 12.4322 14.4961 12.5672 13.8172C12.7023 13.1383 13.0356 12.5146 13.5251 12.0251C14.0146 11.5356 14.6382 11.2023 15.3172 11.0673C15.9961 10.9322 16.6998 11.0015 17.3394 11.2664C17.9789 11.5313 18.5255 11.9799 18.9101 12.5555C19.2947 13.1311 19.5 13.8078 19.5 14.5C19.4967 15.4272 19.1269 16.3156 18.4712 16.9712C17.8156 17.6269 16.9272 17.9967 16 18ZM17.5625 18H14.4375C14.0691 18.0001 13.7053 18.0819 13.3724 18.2397C13.0395 18.3976 12.7458 18.6273 12.5125 18.9125C12.2737 19.1961 12.1023 19.5302 12.0114 19.8896C11.9205 20.2491 11.9123 20.6244 11.9875 20.9875L13.1875 26.9875C13.3024 27.5534 13.6087 28.0625 14.055 28.429C14.5012 28.7955 15.06 28.9972 15.6375 29H16.3625C16.9399 28.9972 17.4988 28.7955 17.945 28.429C18.3912 28.0625 18.6976 27.5534 18.8125 26.9875L20.0125 20.9875C20.0877 20.6244 20.0795 20.2491 19.9886 19.8896C19.8976 19.5302 19.7263 19.1961 19.4875 18.9125C19.2542 18.6273 18.9605 18.3976 18.6276 18.2397C18.2947 18.0819 17.9309 18.0001 17.5625 18ZM22.525 18.5375C22.4401 18.782 22.4533 19.0499 22.5618 19.2848C22.6703 19.5198 22.8657 19.7035 23.1069 19.7974C23.3481 19.8913 23.6163 19.888 23.8551 19.7883C24.0939 19.6885 24.2848 19.5 24.3875 19.2625C24.7959 18.2235 25.0037 17.1164 25 16C25 13.6131 24.0518 11.3239 22.3639 9.63604C20.6761 7.94821 18.3869 7 16 7C13.613 7 11.3239 7.94821 9.63603 9.63604C7.9482 11.3239 6.99999 13.6131 6.99999 16C6.99503 17.1165 7.20291 18.2238 7.61249 19.2625C7.68509 19.4492 7.81208 19.6098 7.97701 19.7234C8.14193 19.8371 8.33719 19.8986 8.53749 19.9C8.66221 19.9004 8.78566 19.8748 8.89999 19.825C9.14647 19.7299 9.3453 19.5411 9.45303 19.2998C9.56077 19.0586 9.56866 18.7845 9.47499 18.5375C9.06292 17.4767 8.9157 16.3314 9.04608 15.2009C9.17645 14.0704 9.5805 12.9887 10.2232 12.0495C10.8659 11.1104 11.7279 10.3421 12.7345 9.81121C13.7411 9.28032 14.862 9.00287 16 9.00287C17.138 9.00287 18.2589 9.28032 19.2655 9.81121C20.2721 10.3421 21.1341 11.1104 21.7768 12.0495C22.4195 12.9887 22.8235 14.0704 22.9539 15.2009C23.0843 16.3314 22.9371 17.4767 22.525 18.5375ZM16 3C13.186 2.99727 10.447 3.90771 8.1946 5.59457C5.9422 7.28143 4.29797 9.6536 3.5089 12.3547C2.71983 15.0559 2.82854 17.9401 3.8187 20.5742C4.80886 23.2083 6.627 25.45 8.99999 26.9625C9.22376 27.1067 9.49566 27.1561 9.75587 27.0999C10.0161 27.0436 10.2433 26.8863 10.3875 26.6625C10.5317 26.4387 10.5811 26.1668 10.5248 25.9066C10.4686 25.6464 10.3113 25.4192 10.0875 25.275C8.08037 23.9957 6.54236 22.0998 5.70433 19.872C4.86631 17.6442 4.77349 15.2047 5.43981 12.9197C6.10612 10.6347 7.49562 8.62746 9.39973 7.1993C11.3038 5.77113 13.6198 4.9991 16 4.9991C18.3802 4.9991 20.6961 5.77113 22.6003 7.1993C24.5044 8.62746 25.8939 10.6347 26.5602 12.9197C27.2265 15.2047 27.1337 17.6442 26.2956 19.872C25.4576 22.0998 23.9196 23.9957 21.9125 25.275C21.7318 25.3929 21.594 25.5661 21.5199 25.7687C21.4457 25.9714 21.439 26.1925 21.5009 26.3993C21.5628 26.606 21.6899 26.7871 21.8632 26.9157C22.0365 27.0442 22.2467 27.1133 22.4625 27.1125C22.6516 27.1095 22.8367 27.0579 23 26.9625C25.373 25.45 27.1911 23.2083 28.1813 20.5742C29.1714 17.9401 29.2801 15.0559 28.4911 12.3547C27.702 9.6536 26.0578 7.28143 23.8054 5.59457C21.553 3.90771 18.814 2.99727 16 3Z" fill="#344054"/>
</svg>
