<svg width="32" height="32" viewBox="0 0 32 32" fill="none" xmlns="http://www.w3.org/2000/svg">
<path d="M25.8875 11.0875L25.6 10.8125L28.7125 7.7125C28.872 7.5182 28.9535 7.27154 28.9411 7.02049C28.9288 6.76944 28.8235 6.53195 28.6458 6.35421C28.4681 6.17648 28.2306 6.07121 27.9795 6.05888C27.7285 6.04655 27.4818 6.12804 27.2875 6.2875L24.05 9.5375C21.6959 7.88129 18.8868 6.99453 16.0085 6.999C13.1302 7.00348 10.3239 7.89898 7.975 9.5625L4.7125 6.2875C4.51821 6.12804 4.27154 6.04655 4.02049 6.05888C3.76944 6.07121 3.53195 6.17648 3.35421 6.35421C3.17648 6.53195 3.07121 6.76944 3.05888 7.02049C3.04655 7.27154 3.12804 7.5182 3.2875 7.7125L6.425 10.8375C5.02589 12.1633 3.91186 13.7605 3.15103 15.5315C2.3902 17.3025 1.99854 19.21 2 21.1375V24C2 24.5304 2.21072 25.0391 2.58579 25.4142C2.96086 25.7893 3.46957 26 4 26H28C28.5304 26 29.0391 25.7893 29.4142 25.4142C29.7893 25.0391 30 24.5304 30 24V21C30.0056 19.1577 29.645 17.3326 28.939 15.6309C28.233 13.9291 27.1957 12.3848 25.8875 11.0875ZM11.5 21C11.2033 21 10.9133 20.912 10.6666 20.7472C10.42 20.5824 10.2277 20.3481 10.1142 20.074C10.0007 19.7999 9.97095 19.4983 10.0288 19.2074C10.0867 18.9164 10.2296 18.6491 10.4393 18.4393C10.6491 18.2296 10.9164 18.0867 11.2074 18.0288C11.4983 17.9709 11.7999 18.0007 12.074 18.1142C12.3481 18.2277 12.5824 18.42 12.7472 18.6666C12.912 18.9133 13 19.2033 13 19.5C13 19.8978 12.842 20.2794 12.5607 20.5607C12.2794 20.842 11.8978 21 11.5 21ZM20.5 21C20.2033 21 19.9133 20.912 19.6666 20.7472C19.42 20.5824 19.2277 20.3481 19.1142 20.074C19.0007 19.7999 18.9709 19.4983 19.0288 19.2074C19.0867 18.9164 19.2296 18.6491 19.4393 18.4393C19.6491 18.2296 19.9164 18.0867 20.2074 18.0288C20.4983 17.9709 20.7999 18.0007 21.074 18.1142C21.3481 18.2277 21.5824 18.42 21.7472 18.6666C21.912 18.9133 22 19.2033 22 19.5C22 19.8978 21.842 20.2794 21.5607 20.5607C21.2794 20.842 20.8978 21 20.5 21Z" fill="#344054"/>
</svg>
