<svg width="32" height="32" viewBox="0 0 32 32" fill="none" xmlns="http://www.w3.org/2000/svg">
<path d="M29 16C28.9936 19.1761 27.8279 22.2406 25.722 24.6182C23.616 26.9957 20.7146 28.5227 17.5625 28.9125C17.4922 28.9194 17.4211 28.9117 17.3539 28.8898C17.2867 28.868 17.2247 28.8325 17.1719 28.7855C17.1191 28.7385 17.0765 28.6812 17.047 28.617C17.0174 28.5528 17.0014 28.4832 17 28.4125V19H20C20.1368 19.0003 20.2721 18.9725 20.3977 18.9184C20.5233 18.8643 20.6364 18.7849 20.7302 18.6854C20.8239 18.5858 20.8962 18.468 20.9426 18.3394C20.989 18.2108 21.0085 18.074 21 17.9375C20.9779 17.6789 20.8585 17.4384 20.6659 17.2644C20.4734 17.0904 20.222 16.9959 19.9625 17H17V14C17 13.4696 17.2107 12.9609 17.5858 12.5858C17.9609 12.2107 18.4696 12 19 12H21C21.1368 12.0003 21.2721 11.9725 21.3977 11.9184C21.5233 11.8643 21.6364 11.785 21.7302 11.6854C21.8239 11.5858 21.8962 11.468 21.9426 11.3394C21.989 11.2108 22.0085 11.074 22 10.9375C21.9779 10.6789 21.8585 10.4384 21.6659 10.2644C21.4734 10.0904 21.222 9.99589 20.9625 10H19C17.9391 10 16.9217 10.4214 16.1716 11.1716C15.4214 11.9217 15 12.9391 15 14V17H12C11.8633 16.9997 11.7279 17.0275 11.6023 17.0816C11.4767 17.1358 11.3636 17.2151 11.2698 17.3146C11.1761 17.4142 11.1038 17.532 11.0574 17.6606C11.011 17.7892 10.9915 17.926 11 18.0625C11.0221 18.3211 11.1415 18.5616 11.3341 18.7356C11.5266 18.9096 11.778 19.0041 12.0375 19H15V28.4125C15.0004 28.4826 14.986 28.552 14.9578 28.6161C14.9296 28.6803 14.8882 28.7378 14.8363 28.785C14.7845 28.8321 14.7233 28.8678 14.6567 28.8898C14.5902 28.9118 14.5197 28.9195 14.45 28.9125C7.85 28.1125 2.75 22.375 3.0125 15.5125C3.15986 12.1235 4.62607 8.92629 7.09817 6.60338C9.57027 4.28048 12.8524 3.01587 16.2441 3.07949C19.6357 3.14311 22.8681 4.52993 25.2513 6.94392C27.6346 9.35791 28.9799 12.6078 29 16Z" fill="#344054"/>
</svg>
