<svg width="32" height="32" viewBox="0 0 32 32" fill="none" xmlns="http://www.w3.org/2000/svg">
<path d="M28.3875 8.075L16.3875 3.075C16.1389 2.97489 15.8611 2.97489 15.6125 3.075L3.6125 8.075C3.41056 8.16277 3.24274 8.31398 3.13446 8.50571C3.02619 8.69745 2.98337 8.91925 3.0125 9.1375L5.0125 24.1375C5.03439 24.2984 5.09465 24.4516 5.1882 24.5843C5.28174 24.7171 5.40583 24.8253 5.55 24.9L15.55 29.9C15.6909 29.9659 15.8445 30 16 30C16.1555 30 16.3091 29.9659 16.45 29.9L26.45 24.9C26.5942 24.8253 26.7183 24.7171 26.8118 24.5843C26.9053 24.4516 26.9656 24.2984 26.9875 24.1375L28.9875 9.1375C29.0166 8.91925 28.9738 8.69745 28.8655 8.50571C28.7573 8.31398 28.5894 8.16277 28.3875 8.075ZM20.95 20.9C20.8081 20.9627 20.6551 20.9967 20.5 21C20.3139 20.9999 20.1315 20.9485 19.9727 20.8514C19.814 20.7544 19.685 20.6155 19.6 20.45L18.55 18.3375H13.45L12.4 20.45C12.2807 20.6887 12.0714 20.8702 11.8182 20.9546C11.565 21.039 11.2887 21.0193 11.05 20.9C10.8113 20.7807 10.6298 20.5714 10.5454 20.3182C10.461 20.065 10.4807 19.7887 10.6 19.55L15.1 10.55C15.1852 10.3847 15.3142 10.2461 15.473 10.1493C15.6317 10.0525 15.8141 10.0014 16 10.0014C16.1859 10.0014 16.3683 10.0525 16.527 10.1493C16.6858 10.2461 16.8148 10.3847 16.9 10.55L21.4 19.55C21.5144 19.7895 21.5314 20.064 21.4474 20.3158C21.3635 20.5676 21.1852 20.777 20.95 20.9ZM16 13.2375L17.55 16.3375H14.45L16 13.2375Z" fill="#344054"/>
</svg>
