<svg width="32" height="32" viewBox="0 0 32 32" fill="none" xmlns="http://www.w3.org/2000/svg">
<path d="M16 3C13.4288 3 10.9154 3.76244 8.77759 5.1909C6.63975 6.61935 4.97351 8.64968 3.98957 11.0251C3.00563 13.4006 2.74819 16.0144 3.2498 18.5362C3.75141 21.0579 4.98953 23.3743 6.80762 25.1924C8.6257 27.0105 10.9421 28.2486 13.4638 28.7502C15.9856 29.2518 18.5995 28.9944 20.9749 28.0104C23.3503 27.0265 25.3807 25.3603 26.8091 23.2224C28.2376 21.0846 29 18.5712 29 16C28.9934 12.5542 27.6216 9.25145 25.1851 6.81491C22.7486 4.37837 19.4458 3.00661 16 3ZM19.575 21.0875C19.4547 21.3219 19.2467 21.4994 18.9962 21.5813C18.7458 21.6633 18.4731 21.643 18.2375 21.525C17.5432 21.1769 16.7767 20.997 16 21C15.2178 20.9965 14.4462 21.1809 13.75 21.5375C13.609 21.603 13.4555 21.6371 13.3 21.6375C13.077 21.6351 12.8611 21.5582 12.6868 21.4191C12.5125 21.2799 12.3897 21.0864 12.338 20.8695C12.2862 20.6525 12.3085 20.4245 12.4013 20.2216C12.4941 20.0188 12.652 19.8528 12.85 19.75C13.8258 19.2541 14.9054 18.9971 16 19C17.0889 18.9989 18.1631 19.2514 19.1375 19.7375C19.3728 19.8603 19.5505 20.0705 19.6323 20.323C19.7142 20.5755 19.6936 20.85 19.575 21.0875ZM21.425 17.55C21.3656 17.6662 21.2837 17.7694 21.1841 17.8538C21.0846 17.9381 20.9693 18.0019 20.8449 18.0414C20.7205 18.081 20.5895 18.0954 20.4595 18.084C20.3295 18.0726 20.2031 18.0356 20.0875 17.975C18.8206 17.3316 17.4194 16.9973 15.9985 16.9995C14.5776 17.0017 13.1774 17.3402 11.9125 17.9875C11.769 18.0599 11.6108 18.0984 11.45 18.1C11.2655 18.1004 11.0845 18.0491 10.9276 17.9519C10.7708 17.8547 10.6443 17.7154 10.5625 17.55C10.5021 17.4327 10.4655 17.3047 10.4549 17.1732C10.4442 17.0417 10.4596 16.9094 10.5003 16.7839C10.541 16.6585 10.606 16.5423 10.6918 16.442C10.7776 16.3418 10.8823 16.2596 11 16.2C12.5464 15.411 14.2577 14.9996 15.9938 14.9996C17.7298 14.9996 19.4411 15.411 20.9875 16.2C21.1052 16.2596 21.2099 16.3418 21.2957 16.442C21.3815 16.5423 21.4466 16.6585 21.4872 16.7839C21.5279 16.9094 21.5433 17.0417 21.5326 17.1732C21.522 17.3047 21.4854 17.4327 21.425 17.55ZM23.275 14C23.2156 14.1162 23.1337 14.2194 23.0341 14.3038C22.9346 14.3881 22.8193 14.4519 22.6949 14.4914C22.5705 14.531 22.4395 14.5454 22.3095 14.534C22.1795 14.5226 22.0531 14.4856 21.9375 14.425C20.099 13.4867 18.0641 12.9983 16 13C13.9301 12.9949 11.8893 13.4879 10.05 14.4375C9.91142 14.5111 9.75693 14.5497 9.60001 14.55C9.3759 14.5504 9.15816 14.4755 8.98172 14.3373C8.80529 14.1991 8.68038 14.0057 8.62704 13.788C8.57371 13.5703 8.59503 13.3411 8.6876 13.137C8.78017 12.9329 8.93861 12.7658 9.13751 12.6625C11.2582 11.5725 13.6078 11.0029 15.9922 11.0007C18.3767 10.9985 20.7273 11.5639 22.85 12.65C22.9666 12.7107 23.0701 12.7937 23.1546 12.8944C23.2391 12.9951 23.3029 13.1115 23.3424 13.2369C23.3819 13.3623 23.3962 13.4942 23.3847 13.6252C23.3731 13.7561 23.3358 13.8835 23.275 14Z" fill="#344054"/>
</svg>
