<svg width="32" height="32" viewBox="0 0 32 32" fill="none" xmlns="http://www.w3.org/2000/svg">
<path d="M17 3V6C17 6.26522 16.8946 6.51957 16.7071 6.70711C16.5196 6.89464 16.2652 7 16 7C15.7348 7 15.4804 6.89464 15.2929 6.70711C15.1054 6.51957 15 6.26522 15 6V3C15 2.73478 15.1054 2.48043 15.2929 2.29289C15.4804 2.10536 15.7348 2 16 2C16.2652 2 16.5196 2.10536 16.7071 2.29289C16.8946 2.48043 17 2.73478 17 3ZM22 7.5C21.7348 7.5 21.4804 7.60536 21.2929 7.79289C21.1054 7.98043 21 8.23478 21 8.5V11.5C21 11.7652 21.1054 12.0196 21.2929 12.2071C21.4804 12.3946 21.7348 12.5 22 12.5C22.2652 12.5 22.5196 12.3946 22.7071 12.2071C22.8946 12.0196 23 11.7652 23 11.5V8.5C23 8.23478 22.8946 7.98043 22.7071 7.79289C22.5196 7.60536 22.2652 7.5 22 7.5ZM16 25C15.7348 25 15.4804 25.1054 15.2929 25.2929C15.1054 25.4804 15 25.7348 15 26V29C15 29.2652 15.1054 29.5196 15.2929 29.7071C15.4804 29.8946 15.7348 30 16 30C16.2652 30 16.5196 29.8946 16.7071 29.7071C16.8946 29.5196 17 29.2652 17 29V26C17 25.7348 16.8946 25.4804 16.7071 25.2929C16.5196 25.1054 16.2652 25 16 25ZM16 9C15.7348 9 15.4804 9.10536 15.2929 9.29289C15.1054 9.48043 15 9.73478 15 10V22C15 22.2652 15.1054 22.5196 15.2929 22.7071C15.4804 22.8946 15.7348 23 16 23C16.2652 23 16.5196 22.8946 16.7071 22.7071C16.8946 22.5196 17 22.2652 17 22V10C17 9.73478 16.8946 9.48043 16.7071 9.29289C16.5196 9.10536 16.2652 9 16 9ZM10 7.5C9.73478 7.5 9.48043 7.60536 9.29289 7.79289C9.10536 7.98043 9 8.23478 9 8.5V16.5C9 16.7652 9.10536 17.0196 9.29289 17.2071C9.48043 17.3946 9.73478 17.5 10 17.5C10.2652 17.5 10.5196 17.3946 10.7071 17.2071C10.8946 17.0196 11 16.7652 11 16.5V8.5C11 8.23478 10.8946 7.98043 10.7071 7.79289C10.5196 7.60536 10.2652 7.5 10 7.5ZM22 14.5C21.7348 14.5 21.4804 14.6054 21.2929 14.7929C21.1054 14.9804 21 15.2348 21 15.5V23.5C21 23.7652 21.1054 24.0196 21.2929 24.2071C21.4804 24.3946 21.7348 24.5 22 24.5C22.2652 24.5 22.5196 24.3946 22.7071 24.2071C22.8946 24.0196 23 23.7652 23 23.5V15.5C23 15.2348 22.8946 14.9804 22.7071 14.7929C22.5196 14.6054 22.2652 14.5 22 14.5ZM4 13.5C3.73478 13.5 3.48043 13.6054 3.29289 13.7929C3.10536 13.9804 3 14.2348 3 14.5V17.5C3 17.7652 3.10536 18.0196 3.29289 18.2071C3.48043 18.3946 3.73478 18.5 4 18.5C4.26522 18.5 4.51957 18.3946 4.70711 18.2071C4.89464 18.0196 5 17.7652 5 17.5V14.5C5 14.2348 4.89464 13.9804 4.70711 13.7929C4.51957 13.6054 4.26522 13.5 4 13.5ZM10 19.5C9.73478 19.5 9.48043 19.6054 9.29289 19.7929C9.10536 19.9804 9 20.2348 9 20.5V23.5C9 23.7652 9.10536 24.0196 9.29289 24.2071C9.48043 24.3946 9.73478 24.5 10 24.5C10.2652 24.5 10.5196 24.3946 10.7071 24.2071C10.8946 24.0196 11 23.7652 11 23.5V20.5C11 20.2348 10.8946 19.9804 10.7071 19.7929C10.5196 19.6054 10.2652 19.5 10 19.5ZM28 13.5C27.7348 13.5 27.4804 13.6054 27.2929 13.7929C27.1054 13.9804 27 14.2348 27 14.5V17.5C27 17.7652 27.1054 18.0196 27.2929 18.2071C27.4804 18.3946 27.7348 18.5 28 18.5C28.2652 18.5 28.5196 18.3946 28.7071 18.2071C28.8946 18.0196 29 17.7652 29 17.5V14.5C29 14.2348 28.8946 13.9804 28.7071 13.7929C28.5196 13.6054 28.2652 13.5 28 13.5Z" fill="#344054"/>
</svg>
