<svg width="32" height="32" viewBox="0 0 32 32" fill="none" xmlns="http://www.w3.org/2000/svg">
<path d="M20 10C20 9.73478 20.1054 9.48043 20.2929 9.29289C20.4804 9.10536 20.7348 9 21 9H29C29.2652 9 29.5196 9.10536 29.7071 9.29289C29.8946 9.48043 30 9.73478 30 10C30 10.2652 29.8946 10.5196 29.7071 10.7071C29.5196 10.8946 29.2652 11 29 11H21C20.7348 11 20.4804 10.8946 20.2929 10.7071C20.1054 10.5196 20 10.2652 20 10ZM31 19C31 19.2652 30.8946 19.5196 30.7071 19.7071C30.5196 19.8946 30.2652 20 30 20H21.125C21.3487 20.8579 21.8503 21.6175 22.5513 22.1603C23.2524 22.703 24.1134 22.9983 25 23C25.5255 23.0026 26.0461 22.8999 26.5313 22.6981C27.0165 22.4963 27.4563 22.1994 27.825 21.825C28.0125 21.638 28.2665 21.533 28.5312 21.533C28.796 21.533 29.05 21.638 29.2375 21.825C29.3316 21.917 29.4064 22.0268 29.4575 22.1481C29.5085 22.2694 29.5348 22.3997 29.5348 22.5312C29.5348 22.6628 29.5085 22.7931 29.4575 22.9144C29.4064 23.0357 29.3316 23.1455 29.2375 23.2375C28.6839 23.7983 28.0239 24.2431 27.2963 24.5457C26.5687 24.8483 25.788 25.0028 25 25C23.8133 25 22.6533 24.6481 21.6666 23.9888C20.6799 23.3295 19.9108 22.3925 19.4567 21.2961C19.0026 20.1997 18.8838 18.9933 19.1153 17.8295C19.3468 16.6656 19.9182 15.5965 20.7574 14.7574C21.5965 13.9182 22.6656 13.3468 23.8295 13.1153C24.9933 12.8838 26.1997 13.0026 27.2961 13.4567C28.3925 13.9108 29.3295 14.6799 29.9888 15.6666C30.6481 16.6533 31 17.8133 31 19ZM28.875 18C28.6547 17.1396 28.1543 16.377 27.4527 15.8324C26.7511 15.2878 25.8882 14.9922 25 14.9922C24.1118 14.9922 23.2489 15.2878 22.5473 15.8324C21.8457 16.377 21.3453 17.1396 21.125 18H28.875ZM17.5 19.75C17.5 21.1424 16.9469 22.4777 15.9623 23.4623C14.9777 24.4469 13.6424 25 12.25 25H4C3.73478 25 3.48043 24.8946 3.29289 24.7071C3.10536 24.5196 3 24.2652 3 24V8C3 7.73478 3.10536 7.48043 3.29289 7.29289C3.48043 7.10536 3.73478 7 4 7H10.75C11.6659 7.00128 12.5619 7.26734 13.3301 7.76613C14.0983 8.26492 14.7059 8.97516 15.0797 9.81131C15.4535 10.6475 15.5776 11.5739 15.4371 12.4789C15.2965 13.384 14.8973 14.2291 14.2875 14.9125C15.2395 15.3134 16.052 15.9862 16.6235 16.8467C17.1949 17.7071 17.4998 18.7171 17.5 19.75ZM5 14.5H10.75C11.4793 14.5 12.1788 14.2103 12.6945 13.6945C13.2103 13.1788 13.5 12.4793 13.5 11.75C13.5 11.0207 13.2103 10.3212 12.6945 9.80546C12.1788 9.28973 11.4793 9 10.75 9H5V14.5ZM15.5 19.75C15.4967 18.8891 15.1532 18.0643 14.5445 17.4555C13.9357 16.8468 13.1109 16.5033 12.25 16.5H5V23H12.25C13.1109 22.9967 13.9357 22.6532 14.5445 22.0445C15.1532 21.4357 15.4967 20.6109 15.5 19.75Z" fill="#344054"/>
</svg>
