<svg width="32" height="32" viewBox="0 0 32 32" fill="none" xmlns="http://www.w3.org/2000/svg">
<path d="M30.7125 9.71249L26.9375 13.475C26.1875 22.2125 18.8125 29 10 29C8.1875 29 6.6875 28.7125 5.55 28.15C4.6375 27.6875 4.2625 27.2 4.1625 27.05C4.07976 26.9243 4.02645 26.7816 4.00653 26.6325C3.98661 26.4833 4.0006 26.3316 4.04746 26.1887C4.09431 26.0457 4.17283 25.9151 4.27716 25.8067C4.38148 25.6983 4.50893 25.6148 4.65 25.5625C4.675 25.55 7.625 24.425 9.5375 22.2625C8.35142 21.418 7.30894 20.3882 6.45 19.2125C4.7375 16.8875 2.925 12.85 4.0125 6.82499C4.04668 6.64588 4.12861 6.47932 4.24962 6.34291C4.37063 6.20649 4.52623 6.10529 4.7 6.05C4.87431 5.99292 5.06097 5.98488 5.23955 6.02677C5.41813 6.06866 5.58174 6.15886 5.7125 6.2875C5.75 6.33749 9.9125 10.4375 15 11.7625V11C15.0049 10.2071 15.1659 9.42301 15.4739 8.69238C15.7819 7.96175 16.2307 7.29894 16.7948 6.74179C17.3589 6.18463 18.0273 5.74405 18.7617 5.44519C19.4961 5.14633 20.2821 4.99506 21.075 5C22.1156 5.01484 23.1346 5.29897 24.0328 5.82472C24.9309 6.35047 25.6776 7.0999 26.2 8H30C30.1974 7.99938 30.3906 8.05721 30.5552 8.16621C30.7198 8.27521 30.8485 8.43049 30.925 8.6125C30.997 8.79721 31.0153 8.99854 30.9777 9.1932C30.9401 9.38787 30.8482 9.56791 30.7125 9.71249Z" fill="#344054"/>
</svg>
