<svg width="32" height="32" viewBox="0 0 32 32" fill="none" xmlns="http://www.w3.org/2000/svg">
<path d="M31 13C30.9993 12.2343 30.7787 11.4849 30.3647 10.8408C29.9506 10.1968 29.3603 9.68507 28.664 9.36654C27.9677 9.04801 27.1946 8.93602 26.4366 9.04388C25.6785 9.15173 24.9673 9.4749 24.3875 9.975C22.2875 8.8625 19.7875 8.1875 17.175 8.0375L17.825 4.13749L20.55 4.56249C20.6778 5.26533 21.0503 5.90024 21.6014 6.35479C22.1525 6.80934 22.8466 7.0542 23.561 7.04599C24.2753 7.03778 24.9636 6.77703 25.5041 6.30993C26.0446 5.84284 26.4024 5.19953 26.514 4.49394C26.6257 3.78836 26.484 3.06603 26.1141 2.45488C25.7442 1.84374 25.17 1.38322 24.4931 1.15488C23.8162 0.92654 23.0804 0.945122 22.4158 1.20733C21.7513 1.46954 21.2011 1.95846 20.8625 2.5875L17.15 2.0125C16.89 1.97279 16.6248 2.03711 16.4119 2.19153C16.199 2.34595 16.0555 2.57803 16.0125 2.8375L15.15 8.02499C12.425 8.1375 9.80001 8.8125 7.61251 9.975C6.81525 9.31583 5.79362 8.99118 4.76209 9.06919C3.73057 9.14719 2.76938 9.6218 2.08031 10.3934C1.39124 11.1649 1.02788 12.1734 1.06651 13.2072C1.10515 14.2409 1.54277 15.2195 2.28751 15.9375C2.09842 16.6087 2.0017 17.3026 2.00001 18C2.00001 20.7375 3.50002 23.3 6.23751 25.1875C8.97501 27.075 12.325 28 16 28C19.675 28 23.1375 27 25.7625 25.1875C28.3875 23.375 30 20.7375 30 18C29.9992 17.3067 29.9025 16.6168 29.7125 15.95C30.1173 15.5724 30.4405 15.1158 30.6619 14.6084C30.8834 14.101 30.9984 13.5536 31 13ZM9.00001 16.5C9.00001 16.1044 9.11731 15.7178 9.33708 15.3889C9.55684 15.06 9.8692 14.8036 10.2346 14.6522C10.6001 14.5009 11.0022 14.4613 11.3902 14.5384C11.7782 14.6156 12.1345 14.8061 12.4142 15.0858C12.6939 15.3655 12.8844 15.7219 12.9616 16.1098C13.0388 16.4978 12.9991 16.8999 12.8478 17.2654C12.6964 17.6308 12.4401 17.9432 12.1112 18.1629C11.7823 18.3827 11.3956 18.5 11 18.5C10.4696 18.5 9.96087 18.2893 9.5858 17.9142C9.21073 17.5391 9.00001 17.0304 9.00001 16.5ZM20.5875 22.8875C19.1689 23.6187 17.596 24.0003 16 24.0003C14.404 24.0003 12.8311 23.6187 11.4125 22.8875C11.1946 22.757 11.0345 22.5484 10.9647 22.3042C10.8949 22.0599 10.9208 21.7983 11.0369 21.5723C11.153 21.3464 11.3508 21.1732 11.59 21.0878C11.8293 21.0024 12.0921 21.0112 12.325 21.1125C13.4616 21.698 14.7215 22.0034 16 22.0034C17.2785 22.0034 18.5385 21.698 19.675 21.1125C19.908 21.0112 20.1707 21.0024 20.41 21.0878C20.6492 21.1732 20.847 21.3464 20.9631 21.5723C21.0793 21.7983 21.1051 22.0599 21.0353 22.3042C20.9656 22.5484 20.8055 22.757 20.5875 22.8875ZM21 18.5C20.6045 18.5 20.2178 18.3827 19.8889 18.1629C19.56 17.9432 19.3036 17.6308 19.1523 17.2654C19.0009 16.8999 18.9613 16.4978 19.0384 16.1098C19.1156 15.7219 19.3061 15.3655 19.5858 15.0858C19.8655 14.8061 20.2219 14.6156 20.6098 14.5384C20.9978 14.4613 21.3999 14.5009 21.7654 14.6522C22.1308 14.8036 22.4432 15.06 22.663 15.3889C22.8827 15.7178 23 16.1044 23 16.5C23 17.0304 22.7893 17.5391 22.4142 17.9142C22.0392 18.2893 21.5304 18.5 21 18.5Z" fill="#344054"/>
</svg>
