<svg width="32" height="32" viewBox="0 0 32 32" fill="none" xmlns="http://www.w3.org/2000/svg">
<path d="M30.75 12.3375L23.75 4.3375C23.656 4.23129 23.5406 4.14627 23.4113 4.08808C23.282 4.02989 23.1418 3.99987 23 4H8.99999C8.85819 3.99987 8.71799 4.02989 8.58868 4.08808C8.45938 4.14627 8.34392 4.23129 8.24999 4.3375L1.24999 12.3375C1.08735 12.5262 0.999986 12.7682 1.0046 13.0173C1.00921 13.2663 1.10548 13.505 1.27499 13.6875L15.275 28.6875C15.3684 28.7858 15.4809 28.8641 15.6055 28.9177C15.7301 28.9712 15.8643 28.9988 16 28.9988C16.1356 28.9988 16.2698 28.9712 16.3945 28.9177C16.5191 28.8641 16.6316 28.7858 16.725 28.6875L30.725 13.6875C30.8945 13.505 30.9908 13.2663 30.9954 13.0173C31 12.7682 30.9126 12.5262 30.75 12.3375ZM27.8 12H22.625L18.025 6H22.55L27.8 12ZM9.18748 14L13.0125 23.325L4.29999 14H9.18748ZM22.8125 14H27.7L18.9875 23.325L22.8125 14ZM9.44998 6H13.975L9.37498 12H4.19999L9.44998 6Z" fill="#344054"/>
</svg>
