<svg width="32" height="32" viewBox="0 0 32 32" fill="none" xmlns="http://www.w3.org/2000/svg">
<path d="M17 16C17 20.6875 13.4125 24.5 9 24.5C4.5875 24.5 1 20.6875 1 16C1 11.3125 4.5875 7.5 9 7.5C13.4125 7.5 17 11.3125 17 16ZM23 8C22.2875 8 20.95 8.35 19.9625 10.6625C19.3375 12.1 19 14 19 16C19 18 19.3375 19.9 19.9625 21.3375C20.95 23.65 22.2875 24 23 24C23.7125 24 25.05 23.65 26.0375 21.3375C26.6625 19.9 27 18 27 16C27 14 26.6625 12.1 26.0375 10.6625C25.05 8.35 23.7125 8 23 8ZM30 8C29.7348 8 29.4804 8.10536 29.2929 8.29289C29.1054 8.48043 29 8.73478 29 9V23C29 23.2652 29.1054 23.5196 29.2929 23.7071C29.4804 23.8946 29.7348 24 30 24C30.2652 24 30.5196 23.8946 30.7071 23.7071C30.8946 23.5196 31 23.2652 31 23V9C31 8.73478 30.8946 8.48043 30.7071 8.29289C30.5196 8.10536 30.2652 8 30 8Z" fill="#344054"/>
</svg>
