<svg width="32" height="32" viewBox="0 0 32 32" fill="none" xmlns="http://www.w3.org/2000/svg">
<path d="M23.325 11.75C24.2223 11.0992 24.8906 10.1812 25.2342 9.12728C25.5778 8.07341 25.579 6.93783 25.2376 5.88324C24.8963 4.82864 24.2299 3.90915 23.3339 3.2565C22.438 2.60385 21.3584 2.25152 20.25 2.25H11.75C10.6415 2.25152 9.56198 2.60385 8.66603 3.2565C7.77007 3.90915 7.10368 4.82864 6.76233 5.88324C6.42097 6.93783 6.42217 8.07341 6.76575 9.12728C7.10933 10.1812 7.77766 11.0992 8.67499 11.75C8.0013 12.2352 7.45261 12.8736 7.07416 13.6125C6.69571 14.3515 6.49835 15.1698 6.49835 16C6.49835 16.8302 6.69571 17.6485 7.07416 18.3875C7.45261 19.1264 8.0013 19.7648 8.67499 20.25C7.94628 20.7766 7.36502 21.4815 6.98689 22.2972C6.60877 23.1129 6.44645 24.012 6.51549 24.9084C6.58453 25.8048 6.88263 26.6685 7.3812 27.4166C7.87978 28.1648 8.56213 28.7723 9.36288 29.1811C10.1636 29.5899 11.0559 29.7862 11.9543 29.7512C12.8527 29.7162 13.7271 29.4511 14.4936 28.9813C15.2601 28.5114 15.8931 27.8526 16.332 27.068C16.7709 26.2833 17.0009 25.3991 17 24.5V20.1125C17.5449 20.5723 18.1778 20.9163 18.86 21.1235C19.5423 21.3306 20.2595 21.3967 20.9681 21.3176C21.6767 21.2385 22.3618 21.0158 22.9815 20.6633C23.6012 20.3107 24.1427 19.8356 24.5728 19.267C25.0029 18.6983 25.3126 18.048 25.4832 17.3557C25.6537 16.6634 25.6815 15.9436 25.5647 15.2403C25.448 14.5369 25.1891 13.8647 24.8041 13.2646C24.419 12.6645 23.9158 12.1492 23.325 11.75ZM23.5 7.5C23.4967 8.36094 23.1532 9.18568 22.5444 9.79446C21.9357 10.4032 21.1109 10.7467 20.25 10.75H17V4.25H20.25C21.1109 4.25329 21.9357 4.59676 22.5444 5.20554C23.1532 5.81432 23.4967 6.63906 23.5 7.5ZM20.25 19.25C19.388 19.25 18.5614 18.9076 17.9519 18.2981C17.3424 17.6886 17 16.862 17 16C17 15.138 17.3424 14.3114 17.9519 13.7019C18.5614 13.0924 19.388 12.75 20.25 12.75C21.1119 12.75 21.9386 13.0924 22.5481 13.7019C23.1576 14.3114 23.5 15.138 23.5 16C23.5 16.862 23.1576 17.6886 22.5481 18.2981C21.9386 18.9076 21.1119 19.25 20.25 19.25Z" fill="#344054"/>
</svg>
