<svg width="32" height="32" viewBox="0 0 32 32" fill="none" xmlns="http://www.w3.org/2000/svg">
<path d="M25 3H9C8.46957 3 7.96086 3.21071 7.58579 3.58579C7.21071 3.96086 7 4.46957 7 5V8H5C4.46957 8 3.96086 8.21071 3.58579 8.58579C3.21071 8.96086 3 9.46957 3 10V22C3 22.5304 3.21071 23.0391 3.58579 23.4142C3.96086 23.7893 4.46957 24 5 24H7V27C7 27.5304 7.21071 28.0391 7.58579 28.4142C7.96086 28.7893 8.46957 29 9 29H25C25.5304 29 26.0391 28.7893 26.4142 28.4142C26.7893 28.0391 27 27.5304 27 27V5C27 4.46957 26.7893 3.96086 26.4142 3.58579C26.0391 3.21071 25.5304 3 25 3ZM8.525 19.2375L7.025 13.2375C6.99381 13.1095 6.98815 12.9765 7.00833 12.8463C7.02851 12.7161 7.07415 12.5911 7.14263 12.4785C7.21112 12.3659 7.30111 12.2679 7.40746 12.1901C7.51382 12.1123 7.63446 12.0562 7.7625 12.025C8.02109 11.962 8.2941 12.0043 8.52149 12.1426C8.63408 12.2111 8.73208 12.3011 8.8099 12.4075C8.88771 12.5138 8.94381 12.6345 8.975 12.7625L9.7625 15.9375L10.5875 14.1C10.6664 13.924 10.7945 13.7746 10.9564 13.6697C11.1183 13.5649 11.3071 13.5091 11.5 13.5091C11.6929 13.5091 11.8817 13.5649 12.0436 13.6697C12.2055 13.7746 12.3336 13.924 12.4125 14.1L13.2375 15.9375L14.025 12.7625C14.0562 12.6345 14.1123 12.5138 14.1901 12.4075C14.2679 12.3011 14.3659 12.2111 14.4785 12.1426C14.5911 12.0742 14.7161 12.0285 14.8463 12.0083C14.9765 11.9881 15.1095 11.9938 15.2375 12.025C15.3655 12.0562 15.4862 12.1123 15.5925 12.1901C15.6989 12.2679 15.7889 12.3659 15.8574 12.4785C15.9258 12.5911 15.9715 12.7161 15.9917 12.8463C16.0119 12.9765 16.0062 13.1095 15.975 13.2375L14.475 19.2375C14.4242 19.4408 14.3115 19.6234 14.1525 19.7599C13.9936 19.8965 13.7962 19.9804 13.5875 20H13.5C13.3057 20.0008 13.1156 19.9443 12.9533 19.8376C12.791 19.7309 12.6637 19.5787 12.5875 19.4L11.5 16.9625L10.4125 19.4C10.3295 19.592 10.1884 19.7532 10.009 19.8609C9.82963 19.9685 9.621 20.0172 9.4125 20C9.20385 19.9804 9.00642 19.8965 8.84746 19.7599C8.68849 19.6234 8.57583 19.4408 8.525 19.2375ZM25 27H9V24H18C18.5304 24 19.0391 23.7893 19.4142 23.4142C19.7893 23.0391 20 22.5304 20 22V21H25V27ZM25 19H20V13H25V19ZM25 11H20V10C20 9.46957 19.7893 8.96086 19.4142 8.58579C19.0391 8.21071 18.5304 8 18 8H9V5H25V11Z" fill="#344054"/>
</svg>
