<svg width="32" height="32" viewBox="0 0 32 32" fill="none" xmlns="http://www.w3.org/2000/svg">
<path d="M29 15.5H23.375C24.4361 14.0493 25.0055 12.2973 25 10.5C24.9967 8.24668 24.1001 6.08659 22.5068 4.49324C20.9134 2.8999 18.7533 2.00331 16.5 2C16.2348 2 15.9804 2.10536 15.7929 2.29289C15.6054 2.48043 15.5 2.73478 15.5 3V8.625C14.0493 7.56386 12.2973 6.99446 10.5 7C8.24668 7.00331 6.08659 7.8999 4.49324 9.49324C2.8999 11.0866 2.00331 13.2467 2 15.5C2 15.7652 2.10536 16.0196 2.29289 16.2071C2.48043 16.3946 2.73478 16.5 3 16.5H8.625C7.56386 17.9507 6.99446 19.7027 7 21.5C7.00331 23.7533 7.8999 25.9134 9.49324 27.5068C11.0866 29.1001 13.2467 29.9967 15.5 30C15.7652 30 16.0196 29.8946 16.2071 29.7071C16.3946 29.5196 16.5 29.2652 16.5 29V23.375C17.9507 24.4361 19.7027 25.0055 21.5 25C23.7533 24.9967 25.9134 24.1001 27.5068 22.5068C29.1001 20.9134 29.9967 18.7533 30 16.5C30 16.2348 29.8946 15.9804 29.7071 15.7929C29.5196 15.6054 29.2652 15.5 29 15.5ZM10.5 9C11.4556 8.99604 12.4001 9.20488 13.2649 9.61135C14.1298 10.0178 14.8932 10.6117 15.5 11.35V14.5H4.075C4.31603 12.9685 5.09547 11.5733 6.27321 10.5651C7.45094 9.55695 8.94969 9.00198 10.5 9ZM21.5 23C20.5444 23.004 19.5999 22.7951 18.7351 22.3886C17.8702 21.9822 17.1068 21.3883 16.5 20.65V17.5H27.925C27.684 19.0315 26.9045 20.4267 25.7268 21.4349C24.5491 22.4431 23.0503 22.998 21.5 23Z" fill="#344054"/>
</svg>
