<svg width="32" height="32" viewBox="0 0 32 32" fill="none" xmlns="http://www.w3.org/2000/svg">
<path d="M27.6375 16C28.2463 15.4631 28.6774 14.7536 28.8734 13.9658C29.0694 13.178 29.0211 12.3493 28.7349 11.5896C28.4486 10.83 27.9381 10.1754 27.271 9.71285C26.6038 9.2503 25.8118 9.00167 25 9C24.2979 9.00165 23.6084 9.18695 23 9.5375V7C22.9983 6.18822 22.7497 5.39616 22.2871 4.72905C21.8246 4.06193 21.17 3.55135 20.4104 3.26513C19.6507 2.9789 18.822 2.93058 18.0342 3.12659C17.2464 3.3226 16.5369 3.75366 16 4.3625C15.4631 3.75366 14.7536 3.3226 13.9658 3.12659C13.178 2.93058 12.3493 2.9789 11.5896 3.26513C10.83 3.55135 10.1754 4.06193 9.71285 4.72905C9.2503 5.39616 9.00167 6.18822 9 7C9.00165 7.70214 9.18695 8.39163 9.5375 9H7C6.18822 9.00167 5.39616 9.2503 4.72905 9.71285C4.06193 10.1754 3.55135 10.83 3.26513 11.5896C2.9789 12.3493 2.93058 13.178 3.12659 13.9658C3.3226 14.7536 3.75366 15.4631 4.3625 16C3.75366 16.5369 3.3226 17.2464 3.12659 18.0342C2.93058 18.822 2.9789 19.6507 3.26513 20.4104C3.55135 21.17 4.06193 21.8246 4.72905 22.2871C5.39616 22.7497 6.18822 22.9983 7 23C7.70214 22.9983 8.39163 22.813 9 22.4625V25C9.00167 25.8118 9.2503 26.6038 9.71285 27.271C10.1754 27.9381 10.83 28.4486 11.5896 28.7349C12.3493 29.0211 13.178 29.0694 13.9658 28.8734C14.7536 28.6774 15.4631 28.2463 16 27.6375C16.5369 28.2463 17.2464 28.6774 18.0342 28.8734C18.822 29.0694 19.6507 29.0211 20.4104 28.7349C21.17 28.4486 21.8246 27.9381 22.2871 27.271C22.7497 26.6038 22.9983 25.8118 23 25C22.9983 24.2979 22.813 23.6084 22.4625 23H25C25.8118 22.9983 26.6038 22.7497 27.271 22.2871C27.9381 21.8246 28.4486 21.17 28.7349 20.4104C29.0211 19.6507 29.0694 18.822 28.8734 18.0342C28.6774 17.2464 28.2463 16.5369 27.6375 16ZM11 7C11 6.46957 11.2107 5.96086 11.5858 5.58579C11.9609 5.21071 12.4696 5 13 5C13.5304 5 14.0391 5.21071 14.4142 5.58579C14.7893 5.96086 15 6.46957 15 7V9H13C12.4696 9 11.9609 8.78929 11.5858 8.41421C11.2107 8.03914 11 7.53043 11 7ZM5 13C5 12.4696 5.21071 11.9609 5.58579 11.5858C5.96086 11.2107 6.46957 11 7 11H13C13.5304 11 14.0391 11.2107 14.4142 11.5858C14.7893 11.9609 15 12.4696 15 13V15H7C6.46957 15 5.96086 14.7893 5.58579 14.4142C5.21071 14.0391 5 13.5304 5 13ZM21 25C21 25.5304 20.7893 26.0391 20.4142 26.4142C20.0391 26.7893 19.5304 27 19 27C18.4696 27 17.9609 26.7893 17.5858 26.4142C17.2107 26.0391 17 25.5304 17 25V23H19C19.5304 23 20.0391 23.2107 20.4142 23.5858C20.7893 23.9609 21 24.4696 21 25ZM25 21H19C18.4696 21 17.9609 20.7893 17.5858 20.4142C17.2107 20.0391 17 19.5304 17 19V17H25C25.5304 17 26.0391 17.2107 26.4142 17.5858C26.7893 17.9609 27 18.4696 27 19C27 19.5304 26.7893 20.0391 26.4142 20.4142C26.0391 20.7893 25.5304 21 25 21Z" fill="#344054"/>
</svg>
