<svg width="32" height="32" viewBox="0 0 32 32" fill="none" xmlns="http://www.w3.org/2000/svg">
<path d="M29 15.85V9.8375C29.0018 9.49085 28.9112 9.14998 28.7375 8.85H28.725C28.5478 8.53971 28.2882 8.28447 27.975 8.1125L16.975 1.925C16.677 1.7586 16.3413 1.67125 16 1.67125C15.6587 1.67125 15.323 1.7586 15.025 1.925L4.025 8.1125C3.7144 8.28798 3.45567 8.5424 3.275 8.85C3.275 8.85331 3.27368 8.85649 3.27134 8.85884C3.26899 8.86118 3.26582 8.8625 3.2625 8.8625V8.8875C3.09185 9.17509 3.00122 9.50309 3 9.8375V15.85V22.1625C3.00063 22.5188 3.09586 22.8686 3.27594 23.1761C3.45603 23.4835 3.71452 23.7377 4.025 23.9125L9.525 27L15.025 30.1C15.3019 30.2511 15.6098 30.3366 15.925 30.35H16.0875C16.3987 30.3365 16.7025 30.2509 16.975 30.1L22.475 27L27.975 23.9125C28.2855 23.7377 28.544 23.4835 28.7241 23.1761C28.9041 22.8686 28.9994 22.5188 29 22.1625V15.85ZM10.4875 18.375L5 15.275V10.95L15.1125 16.5875L15.0125 27.8L11 25.5375V19.2375C10.9994 19.0611 10.9516 18.888 10.8614 18.7363C10.7713 18.5846 10.6422 18.4599 10.4875 18.375ZM9.875 7.0875L15.5125 10.25C15.6594 10.3394 15.828 10.3867 16 10.3867C16.172 10.3867 16.3406 10.3394 16.4875 10.25L22.125 7.0875L25.9625 9.25L16.1125 14.85L6.05 9.25L9.875 7.0875ZM17.1125 16.5875L27 10.9625V15.275L21.5125 18.375C21.3578 18.4599 21.2287 18.5846 21.1386 18.7363C21.0484 18.888 21.0006 19.0611 21 19.2375V25.5375L17.0125 27.7875L17.1125 16.5875Z" fill="#344054"/>
</svg>
