<svg width="32" height="32" viewBox="0 0 32 32" fill="none" xmlns="http://www.w3.org/2000/svg">
<path d="M14 18V24.45C13.9998 24.5978 13.9673 24.7438 13.9046 24.8777C13.842 25.0116 13.7508 25.1301 13.6375 25.225C13.4586 25.3736 13.2325 25.4534 13 25.45H12.825L4.825 24C4.59112 23.9585 4.37967 23.835 4.2285 23.6518C4.07734 23.4686 3.99634 23.2375 4 23V18C4 17.7348 4.10535 17.4804 4.29289 17.2929C4.48043 17.1054 4.73478 17 5 17H13C13.2652 17 13.5196 17.1054 13.7071 17.2929C13.8946 17.4804 14 17.7348 14 18ZM13.6375 6.775C13.5256 6.68279 13.3949 6.61602 13.2546 6.57932C13.1143 6.54263 12.9677 6.53689 12.825 6.5625L4.825 8.0125C4.59326 8.05369 4.38347 8.1753 4.23257 8.35593C4.08166 8.53656 3.99931 8.76463 4 9V14C4 14.2652 4.10535 14.5196 4.29289 14.7071C4.48043 14.8946 4.73478 15 5 15H13C13.2652 15 13.5196 14.8946 13.7071 14.7071C13.8946 14.5196 14 14.2652 14 14V7.55C13.9998 7.40219 13.9673 7.25622 13.9046 7.12233C13.842 6.98844 13.7508 6.86989 13.6375 6.775ZM27 17H17C16.7348 17 16.4804 17.1054 16.2929 17.2929C16.1054 17.4804 16 17.7348 16 18V25.1875C16.0022 25.4207 16.0859 25.6458 16.2366 25.8239C16.3872 26.0019 16.5954 26.1217 16.825 26.1625L26.825 27.9875H27C27.235 27.9922 27.4629 27.9073 27.6375 27.75C27.7489 27.6589 27.8391 27.5446 27.9017 27.4151C27.9643 27.2855 27.9979 27.1439 28 27V18C28 17.7348 27.8946 17.4804 27.7071 17.2929C27.5196 17.1054 27.2652 17 27 17ZM27.6375 4.2375C27.528 4.1408 27.398 4.07029 27.2572 4.03131C27.1164 3.99233 26.9686 3.98589 26.825 4.0125L16.825 5.8375C16.5954 5.87831 16.3872 5.99809 16.2366 6.17614C16.0859 6.35418 16.0022 6.57928 16 6.8125V14C16 14.2652 16.1054 14.5196 16.2929 14.7071C16.4804 14.8946 16.7348 15 17 15H27C27.2652 15 27.5196 14.8946 27.7071 14.7071C27.8946 14.5196 28 14.2652 28 14V5C27.9997 4.85401 27.967 4.70991 27.9043 4.57806C27.8417 4.44621 27.7505 4.3299 27.6375 4.2375Z" fill="#344054"/>
</svg>
