<svg width="32" height="32" viewBox="0 0 32 32" fill="none" xmlns="http://www.w3.org/2000/svg">
<path d="M29.7875 19.0625L26.375 6.25C26.2951 5.9398 26.1179 5.66334 25.8695 5.4611C25.6211 5.25886 25.3144 5.14146 24.9944 5.12609C24.6745 5.11072 24.358 5.19819 24.0913 5.37569C23.8247 5.55319 23.6218 5.81139 23.5125 6.1125L20.9375 13H11.0625L8.4875 6.1125C8.37819 5.81139 8.17536 5.55319 7.90869 5.37569C7.64202 5.19819 7.32554 5.11072 7.00557 5.12609C6.6856 5.14146 6.37896 5.25886 6.13053 5.4611C5.88211 5.66334 5.70495 5.9398 5.625 6.25L2.2125 19.0625C2.10822 19.4615 2.12903 19.8829 2.27211 20.2697C2.4152 20.6565 2.67365 20.9899 3.0125 21.225L14.8625 29.425C15.1258 29.6094 15.4308 29.7254 15.75 29.7625H16.25C16.5693 29.7254 16.8742 29.6094 17.1375 29.425L28.9875 21.225C29.3264 20.9899 29.5848 20.6565 29.7279 20.2697C29.871 19.8829 29.8918 19.4615 29.7875 19.0625ZM4.15 19.575L5.3625 15H9.6875L13.9375 26.3625L4.15 19.575ZM18.0625 26.3625L22.3125 15H26.6375L27.85 19.575L18.0625 26.3625Z" fill="#344054"/>
</svg>
