<svg width="32" height="32" viewBox="0 0 32 32" fill="none" xmlns="http://www.w3.org/2000/svg">
<path d="M27 19V27C27 27.2652 26.8946 27.5196 26.7071 27.7071C26.5196 27.8946 26.2652 28 26 28H6C5.73478 28 5.48043 27.8946 5.29289 27.7071C5.10536 27.5196 5 27.2652 5 27V19C5 18.7348 5.10536 18.4804 5.29289 18.2929C5.48043 18.1053 5.73478 18 6 18C6.26522 18 6.51957 18.1053 6.70711 18.2929C6.89464 18.4804 7 18.7348 7 19V26H25V19C25 18.7348 25.1054 18.4804 25.2929 18.2929C25.4804 18.1053 25.7348 18 26 18C26.2652 18 26.5196 18.1053 26.7071 18.2929C26.8946 18.4804 27 18.7348 27 19ZM11 23H21C21.2652 23 21.5196 22.8946 21.7071 22.7071C21.8946 22.5196 22 22.2652 22 22C22 21.7348 21.8946 21.4804 21.7071 21.2929C21.5196 21.1053 21.2652 21 21 21H11C10.7348 21 10.4804 21.1053 10.2929 21.2929C10.1054 21.4804 10 21.7348 10 22C10 22.2652 10.1054 22.5196 10.2929 22.7071C10.4804 22.8946 10.7348 23 11 23ZM11.6125 16.3625L21.275 18.95C21.3558 18.9757 21.4402 18.9883 21.525 18.9875C21.7658 18.9854 21.9977 18.8965 22.1782 18.7372C22.3587 18.5779 22.4756 18.3587 22.5075 18.1201C22.5394 17.8815 22.4842 17.6393 22.3519 17.4382C22.2197 17.237 22.0192 17.0903 21.7875 17.025L12.125 14.4375C11.9946 14.39 11.8556 14.3701 11.7171 14.3792C11.5786 14.3883 11.4435 14.4262 11.3204 14.4904C11.1973 14.5546 11.0889 14.6437 11.0021 14.752C10.9153 14.8604 10.8521 14.9857 10.8164 15.1198C10.7806 15.254 10.7733 15.3941 10.7947 15.5313C10.8161 15.6684 10.8658 15.7996 10.9407 15.9165C11.0156 16.0334 11.114 16.1335 11.2296 16.2102C11.3453 16.287 11.4757 16.3389 11.6125 16.3625ZM13.9125 10.1125L22.575 15.1125C22.7249 15.2057 22.8985 15.2535 23.075 15.25C23.2507 15.2533 23.424 15.2085 23.576 15.1204C23.7281 15.0322 23.8531 14.9041 23.9375 14.75C24.0044 14.6371 24.0482 14.5119 24.0662 14.3819C24.0841 14.2518 24.076 14.1195 24.0423 13.9926C24.0085 13.8658 23.9498 13.7469 23.8696 13.643C23.7893 13.5391 23.6892 13.4522 23.575 13.3875L14.9125 8.38749C14.6856 8.27864 14.4259 8.25937 14.1854 8.33354C13.9448 8.40771 13.7411 8.56985 13.6149 8.78761C13.4887 9.00537 13.4492 9.26272 13.5043 9.50831C13.5595 9.75389 13.7053 9.96964 13.9125 10.1125ZM24.8375 11.75C25.0242 11.9338 25.2755 12.0371 25.5375 12.0375C25.803 12.0364 26.058 11.9335 26.25 11.75C26.437 11.5625 26.542 11.3085 26.542 11.0437C26.542 10.7789 26.437 10.525 26.25 10.3375L19.175 3.26249C18.9848 3.09013 18.7356 2.99753 18.4789 3.00384C18.2223 3.01016 17.978 3.11492 17.7964 3.29643C17.6149 3.47795 17.5102 3.72231 17.5039 3.97893C17.4975 4.23555 17.5901 4.48477 17.7625 4.67499L24.8375 11.75Z" fill="#344054"/>
</svg>
