<svg width="32" height="32" viewBox="0 0 32 32" fill="none" xmlns="http://www.w3.org/2000/svg">
<path d="M25 9.00003C23.6077 8.99619 22.2459 9.40839 21.0895 10.1838C19.933 10.9591 19.0346 12.0623 18.5094 13.3518C17.9842 14.6413 17.8562 16.0582 18.1418 17.421C18.4275 18.7837 19.1137 20.03 20.1125 21H11.8875C13.0436 19.8656 13.7697 18.3648 13.9416 16.7543C14.1136 15.1437 13.7206 13.5234 12.8301 12.1705C11.9395 10.8176 10.6066 9.81615 9.05925 9.33733C7.51193 8.85851 5.84633 8.93211 4.34727 9.54553C2.84822 10.159 1.60882 11.2741 0.841041 12.7003C0.0732582 14.1265 -0.175222 15.7751 0.138092 17.3642C0.451406 18.9533 1.30705 20.3842 2.55871 21.4122C3.81037 22.4402 5.38028 23.0015 6.99999 23H25C26.8565 23 28.637 22.2625 29.9497 20.9498C31.2625 19.637 32 17.8565 32 16C32 14.1435 31.2625 12.363 29.9497 11.0503C28.637 9.73752 26.8565 9.00003 25 9.00003ZM1.99999 16C1.99999 15.0111 2.29324 14.0444 2.84264 13.2222C3.39205 12.3999 4.17294 11.7591 5.08657 11.3806C6.0002 11.0022 7.00554 10.9032 7.97544 11.0961C8.94535 11.289 9.83626 11.7652 10.5355 12.4645C11.2348 13.1638 11.711 14.0547 11.9039 15.0246C12.0968 15.9945 11.9978 16.9998 11.6194 17.9134C11.241 18.8271 10.6001 19.608 9.77784 20.1574C8.9556 20.7068 7.9889 21 6.99999 21C5.67391 21 4.40214 20.4732 3.46446 19.5356C2.52678 18.5979 1.99999 17.3261 1.99999 16ZM25 21C24.0111 21 23.0444 20.7068 22.2221 20.1574C21.3999 19.608 20.759 18.8271 20.3806 17.9134C20.0022 16.9998 19.9031 15.9945 20.0961 15.0246C20.289 14.0547 20.7652 13.1638 21.4645 12.4645C22.1637 11.7652 23.0546 11.289 24.0245 11.0961C24.9944 10.9032 25.9998 11.0022 26.9134 11.3806C27.827 11.7591 28.6079 12.3999 29.1573 13.2222C29.7067 14.0444 30 15.0111 30 16C30 17.3261 29.4732 18.5979 28.5355 19.5356C27.5978 20.4732 26.3261 21 25 21Z" fill="#344054"/>
</svg>
