<svg width="32" height="32" viewBox="0 0 32 32" fill="none" xmlns="http://www.w3.org/2000/svg">
<path d="M16 3C13.7423 2.99983 11.5234 3.58766 9.56187 4.70562C7.60035 5.82357 5.9638 7.43311 4.81335 9.37575C3.6629 11.3184 3.03822 13.5272 3.00081 15.7846C2.9634 18.042 3.51456 20.2703 4.60001 22.25L3.53751 26C3.43839 26.3417 3.43282 26.7038 3.52138 27.0484C3.60993 27.393 3.78937 27.7075 4.04096 27.9591C4.29254 28.2106 4.60705 28.3901 4.95165 28.4786C5.29625 28.5672 5.6583 28.5616 6.00001 28.4625L9.75001 27.4C11.4879 28.3525 13.4205 28.8951 15.4002 28.9862C17.3798 29.0774 19.3541 28.7148 21.1722 27.926C22.9902 27.1373 24.6039 25.9433 25.8898 24.4354C27.1757 22.9275 28.0999 21.1456 28.5916 19.2258C29.0834 17.306 29.1297 15.2992 28.7271 13.3588C28.3244 11.4183 27.4835 9.59563 26.2685 8.02999C25.0535 6.46435 23.4967 5.19721 21.717 4.32542C19.9373 3.45363 17.9818 3.00027 16 3Z" fill="#344054"/>
</svg>
