<svg width="32" height="32" viewBox="0 0 32 32" fill="none" xmlns="http://www.w3.org/2000/svg">
<path d="M28.55 11.1625L16.55 3.1625C16.3856 3.05796 16.1949 3.00244 16 3.00244C15.8052 3.00244 15.6144 3.05796 15.45 3.1625L3.45004 11.1625C3.31062 11.253 3.19628 11.3771 3.11762 11.5235C3.03896 11.6699 2.99852 11.8338 3.00004 12V25C3.00004 25.5304 3.21076 26.0391 3.58583 26.4142C3.9609 26.7893 4.46961 27 5.00004 27H27C27.5305 27 28.0392 26.7893 28.4143 26.4142C28.7893 26.0391 29 25.5304 29 25V12C29.0016 11.8338 28.9611 11.6699 28.8825 11.5235C28.8038 11.3771 28.6895 11.253 28.55 11.1625ZM12.0875 19L5.00004 24V13.9375L12.0875 19ZM14.1375 20H17.8625L24.9375 25H7.06254L14.1375 20ZM19.9125 19L27 13.9375V24L19.9125 19Z" fill="#344054"/>
</svg>
