<svg width="32" height="32" viewBox="0 0 32 32" fill="none" xmlns="http://www.w3.org/2000/svg">
<path d="M26.025 20.6375L18 16L26.025 11.3625C26.1494 11.3029 26.26 11.2182 26.35 11.1137C26.4401 11.0092 26.5075 10.8873 26.5482 10.7555C26.5888 10.6237 26.6017 10.485 26.5862 10.348C26.5706 10.2109 26.5269 10.0786 26.4577 9.95932C26.3885 9.84002 26.2954 9.73631 26.1843 9.65471C26.0731 9.57311 25.9463 9.51538 25.8117 9.48516C25.6772 9.45494 25.5378 9.45287 25.4025 9.47909C25.2671 9.5053 25.1386 9.55924 25.025 9.6375L17 14.2625V5C17 4.73478 16.8947 4.48043 16.7071 4.29289C16.5196 4.10536 16.2652 4 16 4C15.7348 4 15.4805 4.10536 15.2929 4.29289C15.1054 4.48043 15 4.73478 15 5V14.2625L6.97503 9.6375C6.74808 9.52865 6.48843 9.50938 6.2479 9.58355C6.00737 9.65772 5.80366 9.81986 5.67742 10.0376C5.55118 10.2554 5.51171 10.5127 5.56687 10.7583C5.62204 11.0039 5.76779 11.2196 5.97503 11.3625L14 16L5.97503 20.6375C5.74689 20.7707 5.58073 20.9887 5.51281 21.244C5.44489 21.4993 5.48074 21.7711 5.61253 22C5.69694 22.1541 5.82195 22.2822 5.97399 22.3704C6.12604 22.4585 6.29931 22.5033 6.47503 22.5C6.65148 22.5035 6.82516 22.4557 6.97503 22.3625L15 17.7375V27C15 27.2652 15.1054 27.5196 15.2929 27.7071C15.4805 27.8946 15.7348 28 16 28C16.2652 28 16.5196 27.8946 16.7071 27.7071C16.8947 27.5196 17 27.2652 17 27V17.7375L25.025 22.3625C25.1749 22.4557 25.3486 22.5035 25.525 22.5C25.7007 22.5033 25.874 22.4585 26.0261 22.3704C26.1781 22.2822 26.3031 22.1541 26.3875 22C26.5193 21.7711 26.5552 21.4993 26.4872 21.244C26.4193 20.9887 26.2532 20.7707 26.025 20.6375Z" fill="#344054"/>
</svg>
