<svg width="32" height="32" viewBox="0 0 32 32" fill="none" xmlns="http://www.w3.org/2000/svg">
<path d="M29.8875 26.55L22.8875 12.55C22.8057 12.3846 22.6793 12.2453 22.5224 12.1481C22.3655 12.0509 22.1845 11.9996 22 12C21.8136 11.9987 21.6306 12.0495 21.4716 12.1467C21.3126 12.2439 21.1839 12.3836 21.1 12.55L18.3875 17.975C16.2611 17.8597 14.2147 17.1254 12.5 15.8625C14.511 13.7092 15.7317 10.9372 15.9625 8H19C19.2652 8 19.5196 7.89464 19.7071 7.70711C19.8946 7.51957 20 7.26522 20 7C20 6.73478 19.8946 6.48043 19.7071 6.29289C19.5196 6.10536 19.2652 6 19 6H12V4C12 3.73478 11.8946 3.48043 11.7071 3.29289C11.5196 3.10536 11.2652 3 11 3C10.7348 3 10.4804 3.10536 10.2929 3.29289C10.1054 3.48043 10 3.73478 10 4V6H3C2.73478 6 2.48043 6.10536 2.29289 6.29289C2.10536 6.48043 2 6.73478 2 7C2 7.26522 2.10536 7.51957 2.29289 7.70711C2.48043 7.89464 2.73478 8 3 8H13.95C13.7294 10.4488 12.6902 12.7519 11 14.5375C9.94455 13.4273 9.13525 12.1069 8.625 10.6625C8.5347 10.4145 8.34998 10.2122 8.11113 10.0998C7.87229 9.98738 7.59869 9.97398 7.35 10.0625C7.22505 10.1045 7.10979 10.1712 7.01101 10.2585C6.91223 10.3458 6.83193 10.452 6.77484 10.5708C6.71776 10.6897 6.68504 10.8187 6.67863 10.9504C6.67222 11.0821 6.69223 11.2137 6.7375 11.3375C7.33708 13.0199 8.27754 14.5604 9.5 15.8625C7.61934 17.255 5.34007 18.0045 3 18C2.73478 18 2.48043 18.1054 2.29289 18.2929C2.10536 18.4804 2 18.7348 2 19C2 19.2652 2.10536 19.5196 2.29289 19.7071C2.48043 19.8946 2.73478 20 3 20C5.90048 19.9992 8.71706 19.0266 11 17.2375C12.8588 18.6942 15.0806 19.615 17.425 19.9L14.1 26.55C13.9807 26.787 13.9604 27.0618 14.0436 27.3138C14.1268 27.5658 14.3067 27.7744 14.5437 27.8937C14.7808 28.0131 15.0555 28.0334 15.3075 27.9502C15.5595 27.867 15.7682 27.687 15.8875 27.45L17.6125 24H26.375L28.1 27.45C28.1839 27.6164 28.3126 27.7561 28.4716 27.8533C28.6306 27.9505 28.8136 28.0013 29 28C29.1551 27.9967 29.3081 27.9627 29.45 27.9C29.6853 27.7772 29.863 27.567 29.9448 27.3145C30.0267 27.062 30.0061 26.7875 29.8875 26.55ZM18.6125 22L22 15.2375L25.375 22H18.6125Z" fill="#344054"/>
</svg>
