<svg width="32" height="32" viewBox="0 0 32 32" fill="none" xmlns="http://www.w3.org/2000/svg">
<path d="M26.7 23.3625C28.2018 21.2014 29.0046 18.6317 29 16C29 12.5522 27.6304 9.24558 25.1924 6.80761C22.7544 4.36964 19.4478 3 16 3C12.5522 3 9.2456 4.36964 6.80763 6.80761C4.36966 9.24558 3.00002 12.5522 3.00002 16C2.99545 18.6317 3.79822 21.2014 5.30002 23.3625L5.35002 23.4625L5.40002 23.5125C6.59985 25.2073 8.18856 26.5897 10.0329 27.5437C11.8773 28.4978 13.9235 28.9957 16 28.9957C18.0765 28.9957 20.1228 28.4978 21.9671 27.5437C23.8115 26.5897 25.4002 25.2073 26.6 23.5125L26.65 23.4625C26.6716 23.4319 26.6884 23.3981 26.7 23.3625ZM27 16C27.0036 17.9164 26.5036 19.8001 25.55 21.4625L17 15.475V5.05C19.7311 5.30216 22.2698 6.56435 24.1193 8.58959C25.9688 10.6148 26.9961 13.2573 27 16ZM15 5.05V15.475L6.45002 21.4625C5.53606 19.8633 5.03832 18.0602 5.00246 16.2186C4.9666 14.377 5.39376 12.5559 6.24477 10.9223C7.09577 9.28871 8.34336 7.89499 9.87309 6.86897C11.4028 5.84296 13.1657 5.21751 15 5.05ZM7.60002 23.1L15 17.925V26.95C12.1232 26.6893 9.4647 25.3062 7.60002 23.1ZM17 26.95V17.925L24.4 23.1C22.5353 25.3062 19.8769 26.6893 17 26.95Z" fill="#344054"/>
</svg>
