<svg width="32" height="32" viewBox="0 0 32 32" fill="none" xmlns="http://www.w3.org/2000/svg">
<path d="M30 15C30 13.4087 29.3679 11.8826 28.2427 10.7573C27.1175 9.63212 25.5913 8.99998 24 8.99998H19C18.9375 8.99998 12.4501 8.91248 6.28755 3.73748C5.99543 3.49095 5.63843 3.33388 5.25931 3.28511C4.88019 3.23633 4.49505 3.29792 4.15005 3.46248C3.80305 3.62026 3.5095 3.87569 3.30528 4.19756C3.10106 4.51943 2.995 4.89382 3.00005 5.27498V24.725C2.995 25.1061 3.10106 25.4805 3.30528 25.8024C3.5095 26.1243 3.80305 26.3797 4.15005 26.5375C4.4167 26.6601 4.70656 26.724 5.00005 26.725C5.47043 26.728 5.92664 26.5641 6.28755 26.2625C11.0251 22.2875 15.9376 21.3125 18.0001 21.075V25.4625C17.9989 25.7914 18.0793 26.1154 18.2342 26.4056C18.3891 26.6958 18.6136 26.9429 18.8876 27.125L20.2626 28.05C20.5333 28.2213 20.8396 28.3283 21.1581 28.363C21.4766 28.3977 21.7988 28.359 22.1 28.25C22.3991 28.1338 22.6657 27.9469 22.8768 27.7052C23.088 27.4636 23.2375 27.1744 23.3125 26.8625L24.8 20.95C26.2383 20.7512 27.5563 20.0397 28.5117 18.9465C29.4671 17.8533 29.9957 16.4518 30 15ZM21.375 26.375L20 25.4625V21H22.725L21.375 26.375ZM24 19H20V11H24C25.0609 11 26.0783 11.4214 26.8285 12.1715C27.5786 12.9217 28 13.9391 28 15C28 16.0608 27.5786 17.0783 26.8285 17.8284C26.0783 18.5785 25.0609 19 24 19Z" fill="#344054"/>
</svg>
