<svg width="32" height="32" viewBox="0 0 32 32" fill="none" xmlns="http://www.w3.org/2000/svg">
<path d="M27.75 19.8L21.8875 17.3C21.585 17.1644 21.253 17.1082 20.9227 17.1366C20.5924 17.1651 20.2749 17.2772 20 17.4625L16.8625 19.55C14.9503 18.6213 13.4021 17.0819 12.4625 15.175L14.5375 12C14.7216 11.7249 14.834 11.4081 14.8645 11.0785C14.8951 10.7488 14.8428 10.4168 14.7125 10.1125L12.2 4.25001C12.0247 3.85415 11.7278 3.52443 11.3525 3.30866C10.9771 3.0929 10.5428 3.0023 10.1125 3.05001C8.42449 3.27114 6.87421 4.09773 5.7499 5.37608C4.62559 6.65444 4.00375 8.29758 4 10C4 19.925 12.075 28 22 28C23.7024 27.9963 25.3456 27.3744 26.6239 26.2501C27.9023 25.1258 28.7289 23.5755 28.95 21.8875C28.9977 21.4572 28.9071 21.0229 28.6913 20.6475C28.4756 20.2722 28.1459 19.9753 27.75 19.8Z" fill="#344054"/>
</svg>
