<svg width="32" height="32" viewBox="0 0 32 32" fill="none" xmlns="http://www.w3.org/2000/svg">
<path d="M29.9 12.175C29.7749 11.7812 29.5337 11.4344 29.208 11.1802C28.8823 10.9259 28.4874 10.7759 28.075 10.75L20.7 10.275C20.6892 10.2737 20.6788 10.2695 20.67 10.2629C20.6612 10.2564 20.6544 10.2476 20.65 10.2375L17.9 3.29999C17.7516 2.91669 17.4907 2.58724 17.1516 2.35493C16.8125 2.12261 16.4111 1.99829 16 1.99829C15.589 1.99829 15.1876 2.12261 14.8485 2.35493C14.5094 2.58724 14.2485 2.91669 14.1 3.29999L11.35 10.2375C11.3457 10.2476 11.3388 10.2564 11.3301 10.2629C11.3213 10.2695 11.3109 10.2737 11.3 10.275L3.92504 10.75C3.51267 10.7759 3.11776 10.9259 2.7921 11.1802C2.46643 11.4344 2.2252 11.7812 2.10004 12.175C1.96997 12.5739 1.96237 13.0026 2.07823 13.4059C2.19408 13.8091 2.42808 14.1685 2.75005 14.4375L8.40004 19.1375C8.4129 19.1503 8.42202 19.1664 8.42642 19.184C8.43083 19.2016 8.43035 19.2201 8.42505 19.2375L6.73755 25.875C6.62253 26.3241 6.64438 26.7973 6.8003 27.2338C6.95621 27.6704 7.23907 28.0504 7.61255 28.325C7.97633 28.5861 8.40976 28.7327 8.85734 28.7461C9.30493 28.7594 9.74633 28.6389 10.125 28.4L15.9875 24.6875H16.0125L22.325 28.675C22.6489 28.8854 23.0264 28.9982 23.4125 29C23.8385 28.9943 24.2527 28.8591 24.6 28.6125C24.9394 28.3664 25.1963 28.0233 25.3369 27.6284C25.4775 27.2334 25.4951 26.8052 25.3875 26.4L23.575 19.2375C23.5697 19.2201 23.5693 19.2016 23.5737 19.184C23.5781 19.1664 23.5872 19.1503 23.6 19.1375L29.25 14.4375C29.572 14.1685 29.806 13.8091 29.9219 13.4059C30.0377 13.0026 30.0301 12.5739 29.9 12.175ZM27.975 12.9L22.3125 17.6C22.0119 17.8551 21.7891 18.1897 21.6697 18.5655C21.5504 18.9413 21.5392 19.3431 21.6375 19.725L23.45 26.8875C23.4625 26.9375 23.4625 26.95 23.45 26.9625C23.4417 26.9786 23.4286 26.9917 23.4125 27H23.3875L17.0875 23C16.7627 22.7933 16.3851 22.6848 16 22.6875V3.99999C16.0125 3.99999 16.025 3.99999 16.0375 4.03749L18.8 10.975C18.9409 11.3361 19.1812 11.65 19.4931 11.8801C19.8051 12.1102 20.1759 12.2471 20.5625 12.275L27.95 12.75C27.9625 12.75 27.975 12.75 27.9875 12.8C28 12.85 27.9875 12.8875 27.975 12.9Z" fill="#344054"/>
</svg>
