<svg width="32" height="32" viewBox="0 0 32 32" fill="none" xmlns="http://www.w3.org/2000/svg">
<path d="M27.925 14.25L6.86248 2.46253C6.51153 2.25788 6.10741 2.16281 5.70203 2.18954C5.29665 2.21626 4.90852 2.36357 4.58748 2.61253C4.25961 2.87121 4.02156 3.22661 3.90712 3.62825C3.79269 4.0299 3.80768 4.45739 3.94998 4.85003L7.46248 14.6625C7.49801 14.7604 7.56249 14.8451 7.64734 14.9054C7.7322 14.9656 7.8334 14.9987 7.93748 15H16.9625C17.222 14.9959 17.4734 15.0904 17.6659 15.2644C17.8585 15.4384 17.9779 15.679 18 15.9375C18.0085 16.074 17.989 16.2108 17.9426 16.3394C17.8962 16.4681 17.8239 16.5858 17.7301 16.6854C17.6364 16.785 17.5233 16.8643 17.3977 16.9184C17.2721 16.9725 17.1367 17.0003 17 17H7.93748C7.8334 17.0014 7.7322 17.0344 7.64734 17.0947C7.56249 17.155 7.49801 17.2397 7.46248 17.3375L3.94998 27.15C3.84458 27.4523 3.81283 27.7754 3.85734 28.0924C3.90186 28.4094 4.02136 28.7113 4.20593 28.9728C4.3905 29.2344 4.63481 29.4482 4.91857 29.5964C5.20232 29.7446 5.51735 29.823 5.83748 29.825C6.17814 29.8235 6.51311 29.7376 6.81248 29.575L27.925 17.75C28.2343 17.5744 28.4915 17.3199 28.6704 17.0125C28.8494 16.7051 28.9437 16.3557 28.9437 16C28.9437 15.6443 28.8494 15.295 28.6704 14.9876C28.4915 14.6802 28.2343 14.4257 27.925 14.25Z" fill="#344054"/>
</svg>
