<svg width="32" height="32" viewBox="0 0 32 32" fill="none" xmlns="http://www.w3.org/2000/svg">
<path d="M28.725 11.275C21.7125 4.24998 10.2875 4.24998 3.27505 11.275C2.07194 12.4807 1.34882 14.0831 1.24071 15.783C1.1326 17.4829 1.64689 19.164 2.68755 20.5125C2.87635 20.7493 3.11586 20.9407 3.38843 21.0726C3.66101 21.2046 3.95971 21.2737 4.26255 21.275C4.51456 21.273 4.76424 21.2264 5.00005 21.1375L10.925 18.7625C11.2326 18.6383 11.5044 18.4397 11.716 18.1844C11.9277 17.9291 12.0725 17.6252 12.1375 17.3L12.875 13.6125C14.8864 12.9151 17.0734 12.9107 19.0875 13.6L19.8625 17.3125C19.9284 17.6358 20.0737 17.9377 20.2854 18.1908C20.4971 18.444 20.7685 18.6404 21.075 18.7625L27 21.1375C27.4016 21.2948 27.8431 21.319 28.2594 21.2065C28.6758 21.094 29.0449 20.8507 29.3125 20.5125C30.3532 19.164 30.8675 17.4829 30.7594 15.783C30.6513 14.0831 29.9282 12.4807 28.725 11.275Z" fill="#344054"/>
<path d="M27 24H5C4.73478 24 4.48043 24.1054 4.29289 24.2929C4.10536 24.4804 4 24.7348 4 25C4 25.2652 4.10536 25.5196 4.29289 25.7071C4.48043 25.8946 4.73478 26 5 26H27C27.2652 26 27.5196 25.8946 27.7071 25.7071C27.8946 25.5196 28 25.2652 28 25C28 24.7348 27.8946 24.4804 27.7071 24.2929C27.5196 24.1054 27.2652 24 27 24Z" fill="#344054"/>
</svg>
