<svg width="32" height="32" viewBox="0 0 32 32" fill="none" xmlns="http://www.w3.org/2000/svg">
<path d="M16.5 3C13.1868 3.00661 10.0112 4.32569 7.66846 6.66846C5.32569 9.01124 4.00661 12.1868 4 15.5V26.0375C4 26.558 4.20676 27.0572 4.5748 27.4252C4.94284 27.7932 5.44201 28 5.9625 28H16.5C19.8152 28 22.9946 26.683 25.3388 24.3388C27.683 21.9946 29 18.8152 29 15.5C29 12.1848 27.683 9.00537 25.3388 6.66117C22.9946 4.31696 19.8152 3 16.5 3ZM20 19H12.5C12.2348 19 11.9804 18.8946 11.7929 18.7071C11.6054 18.5196 11.5 18.2652 11.5 18C11.5 17.7348 11.6054 17.4804 11.7929 17.2929C11.9804 17.1054 12.2348 17 12.5 17H20C20.2652 17 20.5196 17.1054 20.7071 17.2929C20.8946 17.4804 21 17.7348 21 18C21 18.2652 20.8946 18.5196 20.7071 18.7071C20.5196 18.8946 20.2652 19 20 19ZM20 15H12.5C12.2348 15 11.9804 14.8946 11.7929 14.7071C11.6054 14.5196 11.5 14.2652 11.5 14C11.5 13.7348 11.6054 13.4804 11.7929 13.2929C11.9804 13.1054 12.2348 13 12.5 13H20C20.2652 13 20.5196 13.1054 20.7071 13.2929C20.8946 13.4804 21 13.7348 21 14C21 14.2652 20.8946 14.5196 20.7071 14.7071C20.5196 14.8946 20.2652 15 20 15Z" fill="#344054"/>
</svg>
