<svg width="32" height="32" viewBox="0 0 32 32" fill="none" xmlns="http://www.w3.org/2000/svg">
<path d="M27.75 19.8L21.8875 17.3C21.585 17.1644 21.253 17.1082 20.9227 17.1366C20.5924 17.1651 20.2749 17.2772 20 17.4625L16.8625 19.55C14.9503 18.6213 13.4021 17.0819 12.4625 15.175L14.5375 12C14.7216 11.7249 14.834 11.4081 14.8645 11.0785C14.8951 10.7488 14.8428 10.4168 14.7125 10.1125L12.2 4.25001C12.0247 3.85415 11.7278 3.52443 11.3525 3.30866C10.9771 3.0929 10.5428 3.0023 10.1125 3.05001C8.42449 3.27114 6.87421 4.09773 5.7499 5.37608C4.62559 6.65444 4.00375 8.29758 4 10C4 19.925 12.075 28 22 28C23.7024 27.9963 25.3456 27.3744 26.6239 26.2501C27.9023 25.1258 28.7289 23.5755 28.95 21.8875C28.9977 21.4572 28.9071 21.0229 28.6913 20.6475C28.4756 20.2722 28.1459 19.9753 27.75 19.8Z" fill="#344054"/>
<path d="M19.675 5.96252C21.1972 6.37838 22.5846 7.18393 23.7003 8.2997C24.8161 9.41547 25.6217 10.8029 26.0375 12.325C26.0927 12.5387 26.217 12.7282 26.3911 12.8638C26.5652 12.9995 26.7793 13.0738 27 13.075C27.0888 13.0749 27.1772 13.0622 27.2625 13.0375C27.3896 13.0043 27.5088 12.946 27.6131 12.866C27.7174 12.7861 27.8047 12.6862 27.8699 12.5721C27.9351 12.458 27.9769 12.3321 27.9928 12.2017C28.0087 12.0712 27.9984 11.9389 27.9625 11.8125C27.4625 9.94838 26.4809 8.24859 25.1162 6.88386C23.7514 5.51913 22.0517 4.53749 20.1875 4.03752C20.0571 3.99 19.9182 3.97016 19.7796 3.97926C19.6411 3.98837 19.506 4.02622 19.3829 4.0904C19.2598 4.15459 19.1514 4.2437 19.0646 4.35207C18.9779 4.46044 18.9146 4.58568 18.8789 4.71984C18.8432 4.854 18.8358 4.99412 18.8572 5.13129C18.8786 5.26846 18.9283 5.39967 19.0032 5.51656C19.0781 5.63346 19.1765 5.73348 19.2922 5.81026C19.4078 5.88704 19.5382 5.93889 19.675 5.96252Z" fill="#344054"/>
<path d="M18.6375 9.82501C19.4836 10.0566 20.2548 10.5046 20.8751 11.1249C21.4954 11.7452 21.9434 12.5164 22.175 13.3625C22.2282 13.5773 22.352 13.768 22.5265 13.904C22.7011 14.04 22.9162 14.1134 23.1375 14.1125C23.2223 14.1133 23.3067 14.1007 23.3875 14.075C23.5157 14.0431 23.6363 13.9858 23.742 13.9065C23.8476 13.8272 23.9363 13.7274 24.0028 13.6132C24.0692 13.499 24.1121 13.3725 24.1288 13.2415C24.1455 13.1104 24.1357 12.9773 24.1 12.85C23.7843 11.6619 23.1602 10.5783 22.2909 9.70905C21.4217 8.83978 20.3381 8.21569 19.15 7.90001C19.0195 7.85249 18.8806 7.83265 18.7421 7.84175C18.6036 7.85086 18.4685 7.88871 18.3454 7.95289C18.2223 8.01707 18.1139 8.10619 18.0271 8.21455C17.9403 8.32292 17.8771 8.44817 17.8413 8.58233C17.8056 8.71648 17.7982 8.85661 17.8196 8.99378C17.841 9.13094 17.8908 9.26215 17.9657 9.37905C18.0406 9.49595 18.139 9.59597 18.2546 9.67275C18.3703 9.74953 18.5007 9.80138 18.6375 9.82501Z" fill="#344054"/>
</svg>
