<svg width="32" height="32" viewBox="0 0 32 32" fill="none" xmlns="http://www.w3.org/2000/svg">
<path d="M29.55 25.1875L17.725 4.07499C17.5511 3.7654 17.2979 3.50769 16.9914 3.32833C16.685 3.14898 16.3363 3.05444 15.9812 3.05444C15.6261 3.05444 15.2774 3.14898 14.971 3.32833C14.6645 3.50769 14.4114 3.7654 14.2375 4.07499L2.41246 25.1875C2.21047 25.5413 2.12361 25.9492 2.16393 26.3546C2.20425 26.7601 2.36974 27.1429 2.63746 27.45C2.89825 27.7637 3.24927 27.9895 3.64285 28.0969C4.03643 28.2042 4.4535 28.1879 4.83746 28.05L14.65 24.5375C14.7478 24.502 14.8325 24.4375 14.8928 24.3526C14.9531 24.2678 14.9861 24.1666 14.9875 24.0625V15.0375C14.9831 14.78 15.0758 14.5302 15.2472 14.338C15.4186 14.1457 15.6561 14.0251 15.9125 14C16.0499 13.9896 16.1881 14.0078 16.3182 14.0535C16.4483 14.0991 16.5676 14.1711 16.6686 14.265C16.7695 14.3589 16.85 14.4727 16.9048 14.5992C16.9597 14.7256 16.9878 14.8621 16.9875 15V24.0625C16.9861 24.1655 17.0166 24.2664 17.0748 24.3514C17.1329 24.4365 17.2159 24.5014 17.3125 24.5375L27.1375 28.05C27.3549 28.1237 27.5829 28.1617 27.8125 28.1625C28.1604 28.161 28.5018 28.0687 28.8032 27.8949C29.1045 27.721 29.3553 27.4716 29.5308 27.1712C29.7062 26.8707 29.8003 26.5297 29.8036 26.1819C29.807 25.834 29.7196 25.4912 29.55 25.1875Z" fill="#344054"/>
</svg>
