<svg width="32" height="32" viewBox="0 0 32 32" fill="none" xmlns="http://www.w3.org/2000/svg">
<path d="M27 6H4.99998C4.46955 6 3.96084 6.21071 3.58577 6.58579C3.2107 6.96086 2.99998 7.46957 2.99998 8V27.85C2.996 28.2325 3.10392 28.6079 3.31046 28.9299C3.51699 29.2519 3.81314 29.5066 4.16248 29.6625C4.42187 29.7946 4.70892 29.8631 4.99998 29.8625C5.47174 29.861 5.92777 29.6927 6.28748 29.3875L10.2625 26.05L27 26C27.5304 26 28.0391 25.7893 28.4142 25.4142C28.7893 25.0391 29 24.5304 29 24V8C29 7.46957 28.7893 6.96086 28.4142 6.58579C28.0391 6.21071 27.5304 6 27 6ZM9.99998 17.5C9.70331 17.5 9.4133 17.412 9.16663 17.2472C8.91996 17.0824 8.7277 16.8481 8.61416 16.574C8.50063 16.2999 8.47093 15.9983 8.52881 15.7074C8.58668 15.4164 8.72955 15.1491 8.93932 14.9393C9.1491 14.7296 9.41638 14.5867 9.70735 14.5288C9.99832 14.4709 10.2999 14.5006 10.574 14.6142C10.8481 14.7277 11.0824 14.92 11.2472 15.1666C11.412 15.4133 11.5 15.7033 11.5 16C11.5 16.3978 11.3419 16.7794 11.0606 17.0607C10.7793 17.342 10.3978 17.5 9.99998 17.5ZM16 17.5C15.7033 17.5 15.4133 17.412 15.1666 17.2472C14.92 17.0824 14.7277 16.8481 14.6142 16.574C14.5006 16.2999 14.4709 15.9983 14.5288 15.7074C14.5867 15.4164 14.7295 15.1491 14.9393 14.9393C15.1491 14.7296 15.4164 14.5867 15.7073 14.5288C15.9983 14.4709 16.2999 14.5006 16.574 14.6142C16.8481 14.7277 17.0824 14.92 17.2472 15.1666C17.412 15.4133 17.5 15.7033 17.5 16C17.5 16.3978 17.3419 16.7794 17.0606 17.0607C16.7793 17.342 16.3978 17.5 16 17.5ZM22 17.5C21.7033 17.5 21.4133 17.412 21.1666 17.2472C20.92 17.0824 20.7277 16.8481 20.6142 16.574C20.5006 16.2999 20.4709 15.9983 20.5288 15.7074C20.5867 15.4164 20.7295 15.1491 20.9393 14.9393C21.1491 14.7296 21.4164 14.5867 21.7073 14.5288C21.9983 14.4709 22.2999 14.5006 22.574 14.6142C22.8481 14.7277 23.0824 14.92 23.2472 15.1666C23.412 15.4133 23.5 15.7033 23.5 16C23.5 16.3978 23.3419 16.7794 23.0606 17.0607C22.7793 17.342 22.3978 17.5 22 17.5Z" fill="#344054"/>
</svg>
