<svg width="32" height="32" viewBox="0 0 32 32" fill="none" xmlns="http://www.w3.org/2000/svg">
<path d="M28 11H21.925L22.9875 5.17502C23.0105 5.04534 23.0077 4.9124 22.9793 4.7838C22.9509 4.6552 22.8975 4.53345 22.822 4.4255C22.6696 4.20749 22.4369 4.05893 22.175 4.01252C21.9131 3.96611 21.6435 4.02564 21.4255 4.17801C21.2075 4.33038 21.0589 4.56312 21.0125 4.82502L19.8875 11H13.925L14.9875 5.17502C15.0339 4.91312 14.9744 4.64351 14.822 4.4255C14.6696 4.20749 14.4369 4.05893 14.175 4.01252C13.9131 3.96611 13.6435 4.02564 13.4255 4.17801C13.2075 4.33038 13.0589 4.56312 13.0125 4.82502L11.8875 11H5.45C5.18478 11 4.93043 11.1054 4.74289 11.2929C4.55536 11.4805 4.45 11.7348 4.45 12C4.45 12.2652 4.55536 12.5196 4.74289 12.7071C4.93043 12.8947 5.18478 13 5.45 13H11.525L10.4375 19H4C3.73478 19 3.48043 19.1054 3.29289 19.2929C3.10536 19.4805 3 19.7348 3 20C3 20.2652 3.10536 20.5196 3.29289 20.7071C3.48043 20.8947 3.73478 21 4 21H10.075L9.0125 26.825C8.98912 26.9547 8.99162 27.0878 9.01986 27.2166C9.04809 27.3453 9.10149 27.4672 9.177 27.5752C9.25251 27.6833 9.34864 27.7753 9.45984 27.8461C9.57105 27.9168 9.69515 27.9649 9.825 27.9875H10C10.2354 27.9882 10.4634 27.9059 10.6441 27.755C10.8247 27.604 10.9463 27.3943 10.9875 27.1625L12.1125 20.9875H18.075L17.0125 26.8125C16.9891 26.9422 16.9916 27.0753 17.0199 27.2041C17.0481 27.3328 17.1015 27.4547 17.177 27.5627C17.2525 27.6708 17.3486 27.7628 17.4598 27.8336C17.571 27.9043 17.6951 27.9524 17.825 27.975H18C18.2354 27.9757 18.4634 27.8934 18.6441 27.7425C18.8247 27.5915 18.9463 27.3818 18.9875 27.15L20.1125 20.975H26.55C26.8152 20.975 27.0696 20.8697 27.2571 20.6821C27.4446 20.4946 27.55 20.2402 27.55 19.975C27.55 19.7098 27.4446 19.4555 27.2571 19.2679C27.0696 19.0804 26.8152 18.975 26.55 18.975H20.475L21.5625 12.975H28C28.2652 12.975 28.5196 12.8697 28.7071 12.6821C28.8946 12.4946 29 12.2402 29 11.975C29 11.7098 28.8946 11.4555 28.7071 11.2679C28.5196 11.0804 28.2652 10.975 28 10.975V11ZM18.4375 19H12.475L13.5625 13H19.525L18.4375 19Z" fill="#344054"/>
</svg>
