<svg width="32" height="32" viewBox="0 0 32 32" fill="none" xmlns="http://www.w3.org/2000/svg">
<path d="M26.775 13.55L17.6125 16.525L23.275 24.3125C23.3633 24.4175 23.429 24.5395 23.4681 24.671C23.5072 24.8025 23.5188 24.9406 23.5023 25.0767C23.4857 25.2129 23.4413 25.3442 23.3718 25.4624C23.3024 25.5807 23.2093 25.6834 23.0985 25.7642C22.9876 25.845 22.8613 25.9021 22.7275 25.932C22.5936 25.9619 22.455 25.9639 22.3203 25.938C22.1857 25.912 22.0578 25.8586 21.9446 25.7811C21.8314 25.7036 21.7354 25.6037 21.6625 25.4875L16 17.7L10.3375 25.4875C10.2646 25.6037 10.1686 25.7036 10.0554 25.7811C9.94223 25.8586 9.81432 25.912 9.67964 25.938C9.54496 25.9639 9.40637 25.9619 9.27251 25.932C9.13864 25.9021 9.01236 25.845 8.90151 25.7642C8.79065 25.6834 8.6976 25.5807 8.62814 25.4624C8.55868 25.3442 8.51429 25.2129 8.49773 25.0767C8.48118 24.9406 8.49281 24.8025 8.53191 24.671C8.571 24.5395 8.63673 24.4175 8.72499 24.3125L14.3875 16.525L5.22499 13.55C4.97304 13.4671 4.76433 13.2875 4.64477 13.0508C4.52522 12.814 4.50461 12.5395 4.58749 12.2875C4.67037 12.0355 4.84995 11.8268 5.08671 11.7073C5.32348 11.5877 5.59804 11.5671 5.84999 11.65L15 14.625V5C15 4.73478 15.1054 4.48043 15.2929 4.29289C15.4804 4.10536 15.7348 4 16 4C16.2652 4 16.5196 4.10536 16.7071 4.29289C16.8946 4.48043 17 4.73478 17 5V14.625L26.15 11.65C26.4019 11.5671 26.6765 11.5877 26.9133 11.7073C27.15 11.8268 27.3296 12.0355 27.4125 12.2875C27.4954 12.5395 27.4748 12.814 27.3552 13.0508C27.2357 13.2875 27.0269 13.4671 26.775 13.55Z" fill="#344054"/>
</svg>
