<svg width="32" height="32" viewBox="0 0 32 32" fill="none" xmlns="http://www.w3.org/2000/svg">
<path d="M21 4H11C9.14348 4 7.36301 4.7375 6.05025 6.05025C4.7375 7.36301 4 9.14348 4 11V21C4 22.8565 4.7375 24.637 6.05025 25.9497C7.36301 27.2625 9.14348 28 11 28H17C17.1064 28.0028 17.2123 27.9858 17.3125 27.95C20.6 26.85 26.85 20.6 27.95 17.3125C27.9858 17.2123 28.0028 17.1064 28 17V11C28 9.14348 27.2625 7.36301 25.9497 6.05025C24.637 4.7375 22.8565 4 21 4ZM17 25.925V22C17 20.6739 17.5268 19.4021 18.4645 18.4645C19.4021 17.5268 20.6739 17 22 17H25.925C24.775 19.7 19.7 24.775 17 25.925Z" fill="#344054"/>
</svg>
