<svg width="32" height="32" viewBox="0 0 32 32" fill="none" xmlns="http://www.w3.org/2000/svg">
<path d="M16 3C14.2504 3.00207 12.5192 3.35696 10.9099 4.04344C9.30053 4.72992 7.84618 5.73389 6.63376 6.99532C5.42133 8.25675 4.47575 9.74974 3.85355 11.385C3.23135 13.0202 2.94531 14.7642 3.01254 16.5125C3.27504 23.35 8.88754 28.8625 15.7375 29C18.033 29.0447 20.2994 28.4807 22.3062 27.3653C24.3129 26.25 25.9885 24.623 27.1625 22.65C27.2117 22.568 27.2363 22.4736 27.2334 22.3781C27.2306 22.2825 27.2004 22.1898 27.1465 22.1109C27.0926 22.0319 27.0171 21.9701 26.9291 21.9327C26.8411 21.8954 26.7443 21.884 26.65 21.9C26.2704 21.967 25.8856 22.0005 25.5 22C23.2125 22 21.9375 21 21.2625 20.1625C21.1067 19.9642 20.9647 19.7554 20.8375 19.5375C20.2324 20.3665 19.4247 21.0265 18.4916 21.4542C17.5586 21.8819 16.5315 22.0631 15.5084 21.9805C14.4853 21.8979 13.5005 21.5542 12.6482 20.9823C11.7959 20.4105 11.1045 19.6295 10.6403 18.7141C10.176 17.7987 9.95426 16.7795 9.99635 15.754C10.0384 14.7284 10.3429 13.7308 10.8806 12.8566C11.4184 11.9823 12.1714 11.2606 13.0677 10.7605C13.964 10.2603 14.9736 9.9985 16 10C17.4785 9.99549 18.9052 10.5439 20 11.5375V11.0375C19.9959 10.778 20.0904 10.5266 20.2644 10.3341C20.4384 10.1415 20.679 10.0221 20.9375 10C21.074 9.99145 21.2108 10.011 21.3394 10.0574C21.4681 10.1038 21.5858 10.1761 21.6854 10.2698C21.785 10.3636 21.8643 10.4767 21.9184 10.6023C21.9725 10.7279 22.0003 10.8632 22 11V16C22 17.825 22.6125 20 25.5 20C28.3875 20 28.95 17.975 29 16.1875V16C28.9967 12.5532 27.626 9.24852 25.1888 6.81127C22.7515 4.37401 19.4468 3.00331 16 3Z" fill="#344054"/>
<path d="M16 20C18.2091 20 20 18.2091 20 16C20 13.7909 18.2091 12 16 12C13.7909 12 12 13.7909 12 16C12 18.2091 13.7909 20 16 20Z" fill="#344054"/>
</svg>
