<svg width="32" height="32" viewBox="0 0 32 32" fill="none" xmlns="http://www.w3.org/2000/svg">
<path d="M28.95 21.8875C28.7289 23.5755 27.9023 25.1258 26.6239 26.2501C25.3456 27.3744 23.7024 27.9963 22 28C12.075 28 4 19.925 4 10C4.00375 8.29758 4.62559 6.65444 5.7499 5.37608C6.87421 4.09773 8.42449 3.27114 10.1125 3.05001C10.5428 3.0023 10.9771 3.0929 11.3525 3.30866C11.7278 3.52443 12.0247 3.85415 12.2 4.25001L14.7125 10.1125C14.8428 10.4168 14.8951 10.7488 14.8645 11.0785C14.834 11.4081 14.7216 11.7249 14.5375 12L12.4625 15.175C13.4021 17.0819 14.9503 18.6213 16.8625 19.55L20 17.4625C20.2749 17.2772 20.5924 17.1651 20.9227 17.1366C21.253 17.1082 21.585 17.1644 21.8875 17.3L27.75 19.8C28.1459 19.9753 28.4756 20.2722 28.6913 20.6475C28.9071 21.0229 28.9977 21.4572 28.95 21.8875ZM20 13C20.265 12.9964 20.5192 12.8939 20.7125 12.7125L25 8.41251V11C25 11.2652 25.1054 11.5196 25.2929 11.7071C25.4804 11.8947 25.7348 12 26 12C26.2652 12 26.5196 11.8947 26.7071 11.7071C26.8946 11.5196 27 11.2652 27 11V6.00001C27 5.73479 26.8946 5.48044 26.7071 5.2929C26.5196 5.10537 26.2652 5.00001 26 5.00001H21C20.7348 5.00001 20.4804 5.10537 20.2929 5.2929C20.1054 5.48044 20 5.73479 20 6.00001C20 6.26523 20.1054 6.51958 20.2929 6.70712C20.4804 6.89465 20.7348 7.00001 21 7.00001H23.5875L19.2875 11.2875C19.0997 11.4771 18.9944 11.7332 18.9944 12C18.9944 12.2669 19.0997 12.5229 19.2875 12.7125C19.4808 12.8939 19.735 12.9964 20 13Z" fill="#344054"/>
</svg>
