<svg width="32" height="32" viewBox="0 0 32 32" fill="none" xmlns="http://www.w3.org/2000/svg">
<path d="M17 11H15V4.41251L11.4625 7.95001C11.2752 8.13898 11.0205 8.2458 10.7544 8.24697C10.4884 8.24814 10.2327 8.14357 10.0437 7.95626C9.85478 7.76895 9.74796 7.51425 9.74679 7.24818C9.74562 6.98211 9.85019 6.72648 10.0375 6.53751L15.2875 1.28751C15.4771 1.09973 15.7332 0.994385 16 0.994385C16.2668 0.994385 16.5229 1.09973 16.7125 1.28751L21.9625 6.53751C22.1495 6.72498 22.2545 6.97896 22.2545 7.24376C22.2545 7.50856 22.1495 7.76254 21.9625 7.95001C21.8694 8.04449 21.7585 8.11953 21.6362 8.17075C21.5139 8.22196 21.3826 8.24834 21.25 8.24834C21.1174 8.24834 20.9861 8.22196 20.8638 8.17075C20.7415 8.11953 20.6305 8.04449 20.5375 7.95001L17 4.41251V11ZM25 11H17V16C17 16.2652 16.8946 16.5196 16.7071 16.7071C16.5196 16.8947 16.2652 17 16 17C15.7348 17 15.4804 16.8947 15.2929 16.7071C15.1054 16.5196 15 16.2652 15 16V11H7C6.46957 11 5.96086 11.2107 5.58579 11.5858C5.21071 11.9609 5 12.4696 5 13V26C5 26.5304 5.21071 27.0392 5.58579 27.4142C5.96086 27.7893 6.46957 28 7 28H25C25.5304 28 26.0391 27.7893 26.4142 27.4142C26.7893 27.0392 27 26.5304 27 26V13C27 12.4696 26.7893 11.9609 26.4142 11.5858C26.0391 11.2107 25.5304 11 25 11Z" fill="#344054"/>
</svg>
