<svg width="32" height="32" viewBox="0 0 32 32" fill="none" xmlns="http://www.w3.org/2000/svg">
<path d="M28.7125 13.7125L22.7125 19.7125C22.5205 19.896 22.2655 19.9989 22 20C21.8673 19.9994 21.7358 19.974 21.6125 19.925C21.4305 19.8485 21.2752 19.7198 21.1662 19.5552C21.0572 19.3906 20.9994 19.1974 21 19V14C18.5609 13.998 16.1905 14.8077 14.2623 16.3013C12.3341 17.795 10.9577 19.8878 10.35 22.25C10.2924 22.4647 10.1657 22.6545 9.98945 22.79C9.81324 22.9256 9.59731 22.9994 9.375 23L9.125 22.9625C8.87053 22.8949 8.65299 22.7297 8.5196 22.5027C8.38621 22.2757 8.34772 22.0052 8.4125 21.75C9.13108 18.9584 10.758 16.4851 13.0369 14.7199C15.3159 12.9547 18.1174 11.9978 21 12V7.00001C20.9994 6.80259 21.0572 6.6094 21.1662 6.44479C21.2752 6.28018 21.4305 6.15151 21.6125 6.07501C21.7972 6.00297 21.9985 5.98469 22.1932 6.0223C22.3879 6.0599 22.5679 6.15185 22.7125 6.28751L28.7125 12.2875C28.9003 12.4771 29.0056 12.7332 29.0056 13C29.0056 13.2669 28.9003 13.5229 28.7125 13.7125ZM24 26H5V11C5 10.7348 4.89464 10.4804 4.70711 10.2929C4.51957 10.1054 4.26522 10 4 10C3.73478 10 3.48043 10.1054 3.29289 10.2929C3.10536 10.4804 3 10.7348 3 11V26C3 26.5304 3.21071 27.0392 3.58579 27.4142C3.96086 27.7893 4.46957 28 5 28H24C24.2652 28 24.5196 27.8947 24.7071 27.7071C24.8946 27.5196 25 27.2652 25 27C25 26.7348 24.8946 26.4804 24.7071 26.2929C24.5196 26.1054 24.2652 26 24 26Z" fill="#344054"/>
</svg>
