<svg width="32" height="32" viewBox="0 0 32 32" fill="none" xmlns="http://www.w3.org/2000/svg">
<path d="M17.5 10C17.5 10.2967 17.412 10.5867 17.2472 10.8334C17.0824 11.08 16.8481 11.2723 16.574 11.3858C16.2999 11.4994 15.9983 11.5291 15.7074 11.4712C15.4164 11.4133 15.1491 11.2704 14.9393 11.0607C14.7296 10.8509 14.5867 10.5836 14.5288 10.2926C14.471 10.0017 14.5007 9.70006 14.6142 9.42597C14.7277 9.15189 14.92 8.91762 15.1667 8.7528C15.4133 8.58797 15.7033 8.5 16 8.5C16.3978 8.5 16.7794 8.65804 17.0607 8.93934C17.342 9.22064 17.5 9.60218 17.5 10ZM29 16C29 18.5712 28.2376 21.0846 26.8091 23.2224C25.3807 25.3603 23.3503 27.0265 20.9749 28.0104C18.5995 28.9944 15.9856 29.2518 13.4638 28.7502C10.9421 28.2486 8.6257 27.0105 6.80762 25.1924C4.98953 23.3743 3.75141 21.0579 3.2498 18.5362C2.74819 16.0144 3.00563 13.4006 3.98957 11.0251C4.97351 8.64968 6.63975 6.61935 8.77759 5.1909C10.9154 3.76244 13.4288 3 16 3C19.4458 3.00661 22.7486 4.37837 25.1851 6.81491C27.6216 9.25145 28.9934 12.5542 29 16ZM17.5 22C17.5 21.7033 17.412 21.4133 17.2472 21.1666C17.0824 20.92 16.8481 20.7277 16.574 20.6142C16.2999 20.5007 15.9983 20.4709 15.7074 20.5288C15.4164 20.5867 15.1491 20.7296 14.9393 20.9393C14.7296 21.1491 14.5867 21.4164 14.5288 21.7074C14.471 21.9983 14.5007 22.2999 14.6142 22.574C14.7277 22.8481 14.92 23.0824 15.1667 23.2472C15.4133 23.412 15.7033 23.5 16 23.5C16.3978 23.5 16.7794 23.342 17.0607 23.0607C17.342 22.7794 17.5 22.3978 17.5 22ZM21.5 10.5C21.5 9.04131 20.9205 7.64236 19.8891 6.61091C18.8576 5.57946 17.4587 5 16 5C13.617 5.0026 11.2993 5.77899 9.39556 7.21236C7.49184 8.64573 6.10507 10.6585 5.44389 12.948C4.78271 15.2374 4.88289 17.6797 5.72936 19.9073C6.57582 22.1349 8.12278 24.0274 10.1375 25.3C9.71524 24.4272 9.49723 23.4696 9.50001 22.5C9.50001 20.7761 10.1848 19.1228 11.4038 17.9038C12.6228 16.6848 14.2761 16 16 16C17.4587 16 18.8576 15.4205 19.8891 14.3891C20.9205 13.3576 21.5 11.9587 21.5 10.5Z" fill="#344054"/>
</svg>
