<svg width="32" height="32" viewBox="0 0 32 32" fill="none" xmlns="http://www.w3.org/2000/svg">
<path d="M20 14C20 14.5933 19.8241 15.1734 19.4944 15.6667C19.1648 16.1601 18.6962 16.5446 18.1481 16.7716C17.5999 16.9987 16.9967 17.0581 16.4147 16.9424C15.8328 16.8266 15.2982 16.5409 14.8787 16.1213C14.4591 15.7018 14.1734 15.1672 14.0576 14.5853C13.9419 14.0033 14.0013 13.4001 14.2284 12.8519C14.4554 12.3038 14.8399 11.8352 15.3333 11.5056C15.8266 11.1759 16.4067 11 17 11C17.7946 11.0033 18.5558 11.3204 19.1177 11.8823C19.6796 12.4442 19.9967 13.2054 20 14ZM28 5V27C28 27.5304 27.7893 28.0391 27.4142 28.4142C27.0391 28.7893 26.5304 29 26 29H8C7.46957 29 6.96086 28.7893 6.58579 28.4142C6.21071 28.0391 6 27.5304 6 27V24.5H4C3.73478 24.5 3.48043 24.3946 3.29289 24.2071C3.10536 24.0196 3 23.7652 3 23.5C3 23.2348 3.10536 22.9804 3.29289 22.7929C3.48043 22.6054 3.73478 22.5 4 22.5H6V19.5H4C3.73478 19.5 3.48043 19.3946 3.29289 19.2071C3.10536 19.0196 3 18.7652 3 18.5C3 18.2348 3.10536 17.9804 3.29289 17.7929C3.48043 17.6054 3.73478 17.5 4 17.5H6V14.5H4C3.73478 14.5 3.48043 14.3946 3.29289 14.2071C3.10536 14.0196 3 13.7652 3 13.5C3 13.2348 3.10536 12.9804 3.29289 12.7929C3.48043 12.6054 3.73478 12.5 4 12.5H6V9.5H4C3.73478 9.5 3.48043 9.39464 3.29289 9.20711C3.10536 9.01957 3 8.76522 3 8.5C3 8.23478 3.10536 7.98043 3.29289 7.79289C3.48043 7.60536 3.73478 7.5 4 7.5H6V5C6 4.46957 6.21071 3.96086 6.58579 3.58579C6.96086 3.21071 7.46957 3 8 3H26C26.5304 3 27.0391 3.21071 27.4142 3.58579C27.7893 3.96086 28 4.46957 28 5ZM23.8 20.4C22.915 19.212 21.7341 18.2768 20.375 17.6875C21.1186 17.0072 21.6393 16.1181 21.8687 15.1367C22.0981 14.1553 22.0257 13.1275 21.6608 12.1881C21.2959 11.2486 20.6556 10.4414 19.8239 9.87218C18.9921 9.30298 18.0078 8.99841 17 8.99841C15.9922 8.99841 15.0079 9.30298 14.1761 9.87218C13.3444 10.4414 12.7041 11.2486 12.3392 12.1881C11.9743 13.1275 11.9019 14.1553 12.1313 15.1367C12.3607 16.1181 12.8814 17.0072 13.625 17.6875C12.2659 18.2768 11.085 19.212 10.2 20.4C10.0409 20.6122 9.97254 20.8789 10.0101 21.1414C10.0476 21.404 10.1878 21.6409 10.4 21.8C10.5718 21.9323 10.7832 22.0028 11 22C11.1552 22 11.3084 21.9639 11.4472 21.8944C11.5861 21.825 11.7069 21.7242 11.8 21.6C12.4055 20.7927 13.1906 20.1375 14.0931 19.6862C14.9957 19.2349 15.9909 19 17 19C18.0091 19 19.0043 19.2349 19.9069 19.6862C20.8095 20.1375 21.5945 20.7927 22.2 21.6C22.3611 21.8094 22.5977 21.9476 22.8593 21.9849C23.1209 22.0223 23.3867 21.9559 23.6 21.8C23.7051 21.7212 23.7936 21.6225 23.8605 21.5095C23.9274 21.3965 23.9714 21.2714 23.99 21.1414C24.0085 21.0114 24.0013 20.879 23.9687 20.7518C23.9361 20.6246 23.8788 20.5051 23.8 20.4Z" fill="#344054"/>
</svg>
