<svg width="32" height="32" viewBox="0 0 32 32" fill="none" xmlns="http://www.w3.org/2000/svg">
<path d="M27 5H5C4.46957 5 3.96086 5.21071 3.58579 5.58579C3.21071 5.96086 3 6.46957 3 7V23C3 23.5304 3.21071 24.0391 3.58579 24.4142C3.96086 24.7893 4.46957 25 5 25H12.4375L14.2875 28.0875C14.4655 28.3825 14.7167 28.6266 15.0167 28.796C15.3167 28.9654 15.6554 29.0544 16 29.0544C16.3446 29.0544 16.6833 28.9654 16.9833 28.796C17.2833 28.6266 17.5345 28.3825 17.7125 28.0875L19.5625 25H27C27.5304 25 28.0391 24.7893 28.4142 24.4142C28.7893 24.0391 29 23.5304 29 23V7C29 6.46957 28.7893 5.96086 28.4142 5.58579C28.0391 5.21071 27.5304 5 27 5Z" fill="#344054"/>
</svg>
