<svg width="32" height="32" viewBox="0 0 32 32" fill="none" xmlns="http://www.w3.org/2000/svg">
<path d="M27.75 19.8L21.8875 17.3C21.585 17.1644 21.253 17.1082 20.9227 17.1366C20.5924 17.1651 20.2749 17.2772 20 17.4625L16.8625 19.55C14.9503 18.6213 13.4021 17.0819 12.4625 15.175L14.5375 12C14.7216 11.7249 14.834 11.4081 14.8645 11.0785C14.8951 10.7488 14.8428 10.4168 14.7125 10.1125L12.2 4.25001C12.0247 3.85415 11.7278 3.52443 11.3525 3.30866C10.9771 3.0929 10.5428 3.0023 10.1125 3.05001C8.42449 3.27114 6.87421 4.09773 5.7499 5.37608C4.62559 6.65444 4.00375 8.29758 4 10C4 19.925 12.075 28 22 28C23.7024 27.9963 25.3456 27.3744 26.6239 26.2501C27.9023 25.1258 28.7289 23.5755 28.95 21.8875C28.9977 21.4572 28.9071 21.0229 28.6913 20.6475C28.4756 20.2722 28.1459 19.9753 27.75 19.8Z" fill="#344054"/>
<path d="M19.0125 12.1375C19.0106 12.1591 19.0149 12.1808 19.025 12.2V12.2375C19.0335 12.2528 19.0378 12.27 19.0375 12.2875L19.0625 12.3375C19.0625 12.35 19.075 12.3625 19.075 12.3875L19.1 12.425C19.1 12.4375 19.1125 12.45 19.1125 12.475L19.1375 12.5125L19.175 12.55L19.2 12.5875C19.2034 12.6062 19.2121 12.6236 19.225 12.6375C19.2375 12.65 19.2625 12.6625 19.275 12.6875C19.2822 12.6939 19.2867 12.7029 19.2875 12.7125H19.3125L19.3625 12.7625L19.4125 12.7875L19.45 12.825L19.4875 12.85L19.525 12.875H19.575L19.6125 12.9H19.6625L19.7125 12.925H25C25.2652 12.925 25.5196 12.8197 25.7071 12.6321C25.8946 12.4446 26 12.1902 26 11.925C26 11.6598 25.8946 11.4054 25.7071 11.2179C25.5196 11.0304 25.2652 10.925 25 10.925H22.4125L26.7125 6.63751C26.872 6.44322 26.9535 6.19655 26.9411 5.9455C26.9288 5.69445 26.8235 5.45696 26.6458 5.27922C26.4681 5.10149 26.2306 4.99622 25.9795 4.98389C25.7285 4.97156 25.4818 5.05305 25.2875 5.21251L21 9.58751V7.00001C21 6.73479 20.8946 6.48044 20.7071 6.2929C20.5196 6.10537 20.2652 6.00001 20 6.00001C19.7348 6.00001 19.4804 6.10537 19.2929 6.2929C19.1054 6.48044 19 6.73479 19 7.00001V12.1C19.0045 12.1051 19.008 12.111 19.0101 12.1175C19.0123 12.1239 19.0131 12.1307 19.0125 12.1375Z" fill="#344054"/>
</svg>
