<svg width="32" height="32" viewBox="0 0 32 32" fill="none" xmlns="http://www.w3.org/2000/svg">
<path d="M16 3C13.7423 2.99983 11.5234 3.58766 9.56187 4.70562C7.60035 5.82357 5.9638 7.43311 4.81335 9.37575C3.6629 11.3184 3.03822 13.5272 3.00081 15.7846C2.9634 18.042 3.51456 20.2703 4.60001 22.25L3.53751 25.9875C3.43758 26.3314 3.43124 26.6958 3.51913 27.0429C3.60703 27.3901 3.78598 27.7076 4.03751 27.9625C4.28903 28.2152 4.60427 28.3952 4.9498 28.4832C5.29532 28.5712 5.65822 28.5641 6.00001 28.4625L9.75001 27.4C11.4879 28.3525 13.4205 28.8951 15.4002 28.9862C17.3798 29.0774 19.3541 28.7148 21.1722 27.926C22.9902 27.1373 24.6039 25.9433 25.8898 24.4354C27.1757 22.9275 28.0999 21.1456 28.5916 19.2258C29.0834 17.306 29.1297 15.2992 28.7271 13.3588C28.3244 11.4183 27.4835 9.59563 26.2685 8.02999C25.0535 6.46435 23.4967 5.19721 21.717 4.32542C19.9373 3.45363 17.9818 3.00027 16 3ZM20 19H12C11.7348 19 11.4804 18.8946 11.2929 18.7071C11.1054 18.5196 11 18.2652 11 18C11 17.7348 11.1054 17.4804 11.2929 17.2929C11.4804 17.1054 11.7348 17 12 17H20C20.2652 17 20.5196 17.1054 20.7071 17.2929C20.8947 17.4804 21 17.7348 21 18C21 18.2652 20.8947 18.5196 20.7071 18.7071C20.5196 18.8946 20.2652 19 20 19ZM20 15H12C11.7348 15 11.4804 14.8946 11.2929 14.7071C11.1054 14.5196 11 14.2652 11 14C11 13.7348 11.1054 13.4804 11.2929 13.2929C11.4804 13.1054 11.7348 13 12 13H20C20.2652 13 20.5196 13.1054 20.7071 13.2929C20.8947 13.4804 21 13.7348 21 14C21 14.2652 20.8947 14.5196 20.7071 14.7071C20.5196 14.8946 20.2652 15 20 15Z" fill="#344054"/>
</svg>
