<svg width="32" height="32" viewBox="0 0 32 32" fill="none" xmlns="http://www.w3.org/2000/svg">
<path d="M16 21C18.7614 21 21 18.7614 21 16C21 13.2386 18.7614 11 16 11C13.2386 11 11 13.2386 11 16C11 18.7614 13.2386 21 16 21Z" fill="#344054"/>
<path d="M10.3375 10.3375C10.4316 10.2455 10.5064 10.1356 10.5575 10.0144C10.6085 9.89308 10.6348 9.76281 10.6348 9.63122C10.6348 9.49963 10.6085 9.36937 10.5575 9.24808C10.5064 9.1268 10.4316 9.01695 10.3375 8.92497C10.15 8.73796 9.89606 8.63293 9.63126 8.63293C9.36647 8.63293 9.11248 8.73796 8.92501 8.92497C8.0134 9.8395 7.28753 10.9219 6.78751 12.1125C6.2677 13.3426 5.99988 14.6645 5.99988 16C5.99988 17.3354 6.2677 18.6573 6.78751 19.8875C7.28753 21.078 8.0134 22.1604 8.92501 23.075C9.11697 23.2585 9.37197 23.3614 9.63751 23.3625C9.8995 23.362 10.1508 23.2588 10.3375 23.075C10.4316 22.983 10.5064 22.8731 10.5575 22.7519C10.6085 22.6306 10.6348 22.5003 10.6348 22.3687C10.6348 22.2371 10.6085 22.1069 10.5575 21.9856C10.5064 21.8643 10.4316 21.7544 10.3375 21.6625C9.61068 20.9283 9.0296 20.063 8.62501 19.1125C8.21246 18.1266 8 17.0686 8 16C8 14.9313 8.21246 13.8733 8.62501 12.8875C9.0296 11.9369 9.61068 11.0716 10.3375 10.3375Z" fill="#344054"/>
<path d="M26 16C26.0046 14.6641 25.7366 13.3413 25.2125 12.1125C24.7125 10.9219 23.9867 9.8395 23.075 8.92497C22.8876 8.73796 22.6336 8.63293 22.3688 8.63293C22.104 8.63293 21.85 8.73796 21.6625 8.92497C21.5684 9.01695 21.4936 9.1268 21.4426 9.24808C21.3915 9.36937 21.3652 9.49963 21.3652 9.63122C21.3652 9.76281 21.3915 9.89308 21.4426 10.0144C21.4936 10.1356 21.5684 10.2455 21.6625 10.3375C22.3894 11.0716 22.9705 11.9369 23.375 12.8875C23.7876 13.8733 24.0001 14.9313 24.0001 16C24.0001 17.0686 23.7876 18.1266 23.375 19.1125C22.9705 20.063 22.3894 20.9283 21.6625 21.6625C21.5684 21.7544 21.4936 21.8643 21.4426 21.9856C21.3915 22.1069 21.3652 22.2371 21.3652 22.3687C21.3652 22.5003 21.3915 22.6306 21.4426 22.7519C21.4936 22.8731 21.5684 22.983 21.6625 23.075C21.8492 23.2588 22.1006 23.362 22.3625 23.3625C22.6281 23.3614 22.8831 23.2585 23.075 23.075C23.9867 22.1604 24.7125 21.078 25.2125 19.8875C25.7366 18.6587 26.0046 17.3359 26 16Z" fill="#344054"/>
<path d="M4.02505 21.0625C3.34847 19.4605 2.99989 17.739 2.99989 16C2.99989 14.2609 3.34847 12.5395 4.02505 10.9375C4.67209 9.39159 5.61957 7.98949 6.81255 6.8125C6.97201 6.6182 7.05351 6.37154 7.04118 6.12049C7.02885 5.86944 6.92357 5.63194 6.74584 5.45421C6.56811 5.27647 6.33061 5.1712 6.07956 5.15887C5.82851 5.14654 5.58185 5.22804 5.38755 5.3875C4.02289 6.76046 2.93258 8.38108 2.17505 10.1625C1.39946 12.011 1 13.9954 1 16C1 18.0046 1.39946 19.989 2.17505 21.8375C2.93258 23.6189 4.02289 25.2395 5.38755 26.6125C5.58087 26.7939 5.835 26.8964 6.10005 26.9C6.36559 26.8989 6.62059 26.796 6.81255 26.6125C7.00033 26.4229 7.10568 26.1668 7.10568 25.9C7.10568 25.6332 7.00033 25.3771 6.81255 25.1875C5.61957 24.0105 4.67209 22.6084 4.02505 21.0625Z" fill="#344054"/>
<path d="M29.825 10.1625C29.0675 8.38107 27.9772 6.76045 26.6125 5.38749C26.5229 5.27824 26.4113 5.18898 26.2851 5.12544C26.1589 5.06189 26.0207 5.02549 25.8795 5.01855C25.7384 5.01162 25.5973 5.03432 25.4655 5.08518C25.3336 5.13605 25.2139 5.21395 25.1139 5.31389C25.014 5.41382 24.9361 5.53357 24.8852 5.66543C24.8344 5.79729 24.8117 5.93834 24.8186 6.0795C24.8255 6.22066 24.8619 6.35881 24.9255 6.48505C24.989 6.61129 25.0783 6.72283 25.1875 6.81249C26.3978 8.01661 27.3577 9.44835 28.0121 11.0252C28.6664 12.602 29.0022 14.2928 29 16C29.0022 17.7072 28.6664 19.398 28.0121 20.9748C27.3577 22.5516 26.3978 23.9834 25.1875 25.1875C24.9998 25.3771 24.8944 25.6331 24.8944 25.9C24.8944 26.1668 24.9998 26.4229 25.1875 26.6125C25.3795 26.796 25.6345 26.8989 25.9 26.9C26.1651 26.8964 26.4192 26.7938 26.6125 26.6125C27.9772 25.2395 29.0675 23.6189 29.825 21.8375C30.6006 19.989 31.0001 18.0046 31.0001 16C31.0001 13.9954 30.6006 12.0109 29.825 10.1625Z" fill="#344054"/>
</svg>
