<svg width="32" height="32" viewBox="0 0 32 32" fill="none" xmlns="http://www.w3.org/2000/svg">
<path d="M15.1125 13.5375H15.1L11.225 9.25002H11.2125L6.73755 4.32502C6.55688 4.13601 6.30937 4.02528 6.04805 4.01655C5.78673 4.00782 5.53238 4.10179 5.33951 4.27832C5.14663 4.45485 5.03056 4.6999 5.01618 4.96097C5.00179 5.22205 5.09023 5.47837 5.26255 5.67502L8.75005 9.51252C6.70727 10.4159 4.85061 11.6918 3.27505 13.275C2.07194 14.4808 1.34882 16.0832 1.24071 17.7831C1.1326 19.483 1.64689 21.1641 2.68755 22.5125C2.87635 22.7493 3.11586 22.9407 3.38843 23.0727C3.66101 23.2046 3.95971 23.2738 4.26255 23.275C4.51456 23.273 4.76424 23.2265 5.00005 23.1375L10.925 20.7625C11.2326 20.6384 11.5044 20.4397 11.716 20.1844C11.9277 19.9291 12.0725 19.6252 12.1375 19.3L12.875 15.6125C13.247 15.4836 13.627 15.3792 14.0125 15.3L25.2625 27.675C25.3562 27.7774 25.4701 27.8592 25.5971 27.9151C25.7241 27.9711 25.8613 28 26 28C26.2495 27.9976 26.4895 27.9042 26.675 27.7375C26.7733 27.6498 26.8531 27.5433 26.9096 27.4242C26.9661 27.3052 26.9982 27.1761 27.004 27.0444C27.0098 26.9128 26.9893 26.7814 26.9435 26.6578C26.8977 26.5342 26.8277 26.4211 26.7375 26.325L15.1125 13.5375Z" fill="#344054"/>
<path d="M28.7251 13.275C26.9349 11.488 24.7891 10.0971 22.4268 9.19268C20.0645 8.28825 17.5385 7.89043 15.0126 8.02502C14.8228 8.03437 14.6397 8.09756 14.4846 8.20719C14.3295 8.31683 14.2088 8.46838 14.1367 8.6441C14.0645 8.81983 14.044 9.01246 14.0773 9.19946C14.1107 9.38645 14.1966 9.56008 14.3251 9.70002L26.1251 22.675C26.2233 22.7871 26.3479 22.873 26.4876 22.925L27.0001 23.1375C27.2359 23.2265 27.4855 23.273 27.7376 23.275C28.0404 23.2738 28.3391 23.2046 28.6117 23.0727C28.8842 22.9407 29.1238 22.7493 29.3126 22.5125C30.3532 21.1641 30.8675 19.483 30.7594 17.7831C30.6513 16.0832 29.9282 14.4808 28.7251 13.275Z" fill="#344054"/>
</svg>
