<svg width="32" height="32" viewBox="0 0 32 32" fill="none" xmlns="http://www.w3.org/2000/svg">
<path d="M12.3625 19.6375C13.2005 20.4713 13.8651 21.4629 14.3178 22.5549C14.7705 23.6469 15.0024 24.8179 15 26C15 26.2652 14.8946 26.5196 14.7071 26.7071C14.5196 26.8947 14.2652 27 14 27C13.7348 27 13.4804 26.8947 13.2929 26.7071C13.1054 26.5196 13 26.2652 13 26C13 24.1435 12.2625 22.363 10.9497 21.0503C9.63699 19.7375 7.85652 19 6 19C5.73478 19 5.48043 18.8947 5.29289 18.7071C5.10536 18.5196 5 18.2652 5 18C5 17.7348 5.10536 17.4804 5.29289 17.2929C5.48043 17.1054 5.73478 17 6 17C7.18216 16.9977 8.35307 17.2295 9.44512 17.6822C10.5372 18.1349 11.5287 18.7995 12.3625 19.6375ZM6 11C5.73478 11 5.48043 11.1054 5.29289 11.2929C5.10536 11.4805 5 11.7348 5 12C5 12.2652 5.10536 12.5196 5.29289 12.7071C5.48043 12.8947 5.73478 13 6 13C7.70782 12.9937 9.3998 13.3276 10.9772 13.9822C12.5546 14.6368 13.9859 15.5989 15.1875 16.8125C16.4011 18.0141 17.3633 19.4454 18.0178 21.0228C18.6724 22.6002 19.0063 24.2922 19 26C19 26.2652 19.1054 26.5196 19.2929 26.7071C19.4804 26.8947 19.7348 27 20 27C20.2652 27 20.5196 26.8947 20.7071 26.7071C20.8946 26.5196 21 26.2652 21 26C21.0054 24.0279 20.6193 22.0744 19.864 20.2526C19.1087 18.4309 17.9992 16.7772 16.6 15.3875C15.2103 13.9926 13.5581 12.8867 11.7388 12.1337C9.91946 11.3806 7.96901 10.9953 6 11ZM20.85 11.15C18.9044 9.19392 16.5901 7.64316 14.041 6.58751C11.492 5.53186 8.75895 4.99229 6 5.00002C5.73478 5.00002 5.48043 5.10538 5.29289 5.29291C5.10536 5.48045 5 5.7348 5 6.00002C5 6.26524 5.10536 6.51959 5.29289 6.70713C5.48043 6.89466 5.73478 7.00002 6 7.00002C8.49627 6.99321 10.9691 7.4813 13.2756 8.43607C15.5821 9.39084 17.6764 10.7934 19.4375 12.5625C21.2067 14.3236 22.6092 16.4179 23.5639 18.7244C24.5187 21.0309 25.0068 23.5038 25 26C25 26.2652 25.1054 26.5196 25.2929 26.7071C25.4804 26.8947 25.7348 27 26 27C26.2652 27 26.5196 26.8947 26.7071 26.7071C26.8946 26.5196 27 26.2652 27 26C27.0077 23.2411 26.4682 20.508 25.4125 17.959C24.3569 15.41 22.8061 13.0957 20.85 11.15ZM6.5 24C6.20333 24 5.91332 24.088 5.66665 24.2528C5.41997 24.4176 5.22771 24.6519 5.11418 24.926C5.00065 25.2001 4.97094 25.5017 5.02882 25.7927C5.0867 26.0836 5.22956 26.3509 5.43934 26.5607C5.64912 26.7705 5.91639 26.9133 6.20737 26.9712C6.49834 27.0291 6.79994 26.9994 7.07403 26.8858C7.34811 26.7723 7.58238 26.58 7.74721 26.3334C7.91203 26.0867 8 25.7967 8 25.5C8 25.1022 7.84197 24.7207 7.56066 24.4394C7.27936 24.1581 6.89783 24 6.5 24Z" fill="#344054"/>
</svg>
