<svg width="32" height="32" viewBox="0 0 32 32" fill="none" xmlns="http://www.w3.org/2000/svg">
<path d="M22 20C21.333 19.999 20.6727 20.1323 20.0585 20.3922C19.4442 20.6521 18.8887 21.0331 18.425 21.5125L12.6625 17.8125C13.1123 16.646 13.1123 15.354 12.6625 14.1875L18.425 10.4875C19.2356 11.3166 20.3093 11.8381 21.4621 11.9629C22.6149 12.0876 23.7752 11.8078 24.7444 11.1714C25.7137 10.5349 26.4316 9.58136 26.7753 8.47393C27.119 7.36651 27.0671 6.17405 26.6285 5.10066C26.1899 4.02728 25.3919 3.1397 24.371 2.58983C23.3502 2.03997 22.1699 1.86201 21.0323 2.08642C19.8947 2.31083 18.8705 2.92365 18.1349 3.82C17.3993 4.71635 16.9981 5.84049 17 7.00002C17.002 7.61962 17.1164 8.23372 17.3375 8.81252L11.575 12.5125C10.8812 11.7998 9.99063 11.3101 9.0171 11.1062C8.04357 10.9023 7.03135 10.9934 6.10986 11.3678C5.18837 11.7422 4.3995 12.383 3.84411 13.2082C3.28873 14.0333 2.99207 15.0054 2.99207 16C2.99207 16.9947 3.28873 17.9667 3.84411 18.7919C4.3995 19.617 5.18837 20.2578 6.10986 20.6322C7.03135 21.0067 8.04357 21.0977 9.0171 20.8938C9.99063 20.6899 10.8812 20.2003 11.575 19.4875L17.3375 23.1875C17.1164 23.7663 17.002 24.3804 17 25C17 25.9889 17.2932 26.9556 17.8426 27.7779C18.392 28.6001 19.1729 29.241 20.0866 29.6194C21.0002 29.9979 22.0055 30.0969 22.9754 29.9039C23.9453 29.711 24.8363 29.2348 25.5355 28.5356C26.2348 27.8363 26.711 26.9454 26.9039 25.9755C27.0968 25.0056 26.9978 24.0002 26.6194 23.0866C26.2409 22.173 25.6001 21.3921 24.7778 20.8427C23.9556 20.2933 22.9889 20 22 20Z" fill="#344054"/>
</svg>
