<svg width="32" height="32" viewBox="0 0 32 32" fill="none" xmlns="http://www.w3.org/2000/svg">
<path d="M28.8125 23.725C29.5806 22.2914 29.9874 20.692 29.9977 19.0656C30.0079 17.4392 29.6213 15.8348 28.8714 14.3916C28.1215 12.9484 27.0308 11.7098 25.694 10.7834C24.3572 9.85695 22.8146 9.27054 21.2 9.07502C20.6684 7.83507 19.8913 6.71551 18.9157 5.78374C17.94 4.85197 16.7859 4.12726 15.5228 3.65323C14.2597 3.1792 12.9137 2.96566 11.5659 3.02545C10.2181 3.08525 8.89638 3.41715 7.68022 4.00118C6.46406 4.5852 5.37866 5.40927 4.48934 6.42379C3.60002 7.4383 2.92518 8.62227 2.50545 9.90444C2.08571 11.1866 1.92976 12.5404 2.04697 13.8845C2.16419 15.2285 2.55215 16.5349 3.1875 17.725L2.4125 20.425C2.32268 20.7254 2.31578 21.0444 2.39255 21.3484C2.46932 21.6523 2.62688 21.9298 2.84855 22.1515C3.07022 22.3731 3.34773 22.5307 3.65167 22.6075C3.95561 22.6842 4.27466 22.6773 4.575 22.5875L7.275 21.8125C8.37156 22.397 9.56657 22.7742 10.8 22.925C11.3448 24.2019 12.1495 25.3513 13.1629 26.3001C14.1762 27.2489 15.376 27.9764 16.6859 28.4361C17.9958 28.8959 19.387 29.0779 20.7711 28.9705C22.1551 28.8631 23.5017 28.4688 24.725 27.8125L27.425 28.5875C27.7253 28.6773 28.0444 28.6842 28.3483 28.6075C28.6523 28.5307 28.9298 28.3731 29.1515 28.1515C29.3731 27.9298 29.5307 27.6523 29.6075 27.3484C29.6842 27.0444 29.6773 26.7254 29.5875 26.425L28.8125 23.725ZM26.8875 23.0875C26.8147 23.2013 26.7671 23.3293 26.7477 23.4629C26.7283 23.5965 26.7376 23.7328 26.775 23.8625L27.55 26.55L24.8625 25.775C24.7327 25.7376 24.5965 25.7283 24.4629 25.7477C24.3292 25.7671 24.2013 25.8148 24.0875 25.8875C23.1711 26.4282 22.1564 26.7813 21.1024 26.9262C20.0483 27.0711 18.9759 27.0049 17.9477 26.7316C16.9194 26.4582 15.9558 25.9831 15.1128 25.3339C14.2698 24.6847 13.5644 23.8744 13.0375 22.95C15.4952 22.6881 17.7695 21.5274 19.4237 19.691C21.078 17.8545 21.9954 15.4717 22 13C21.9972 12.4006 21.9428 11.8026 21.8375 11.2125C23.5918 11.6265 25.1549 12.6208 26.2734 14.0343C27.3919 15.4478 28.0003 17.1975 28 19C27.9983 20.4371 27.6144 21.8478 26.8875 23.0875Z" fill="#344054"/>
</svg>
