<svg width="32" height="32" viewBox="0 0 32 32" fill="none" xmlns="http://www.w3.org/2000/svg">
<path d="M27 25C27 25.2652 26.8946 25.5196 26.7071 25.7071C26.5196 25.8946 26.2652 26 26 26C25.7348 26 25.4804 25.8946 25.2929 25.7071C25.1054 25.5196 25 25.2652 25 25C25 15.075 16.925 7 7 7C6.73478 7 6.48043 6.89464 6.29289 6.70711C6.10536 6.51957 6 6.26522 6 6C6 5.73478 6.10536 5.48043 6.29289 5.29289C6.48043 5.10536 6.73478 5 7 5C18.025 5 27 13.975 27 25ZM7 14C6.73478 14 6.48043 14.1054 6.29289 14.2929C6.10536 14.4804 6 14.7348 6 15C6 15.2652 6.10536 15.5196 6.29289 15.7071C6.48043 15.8946 6.73478 16 7 16C9.38593 16.0033 11.6732 16.9526 13.3603 18.6397C15.0474 20.3268 15.9967 22.6141 16 25C16 25.2652 16.1054 25.5196 16.2929 25.7071C16.4804 25.8946 16.7348 26 17 26C17.2652 26 17.5196 25.8946 17.7071 25.7071C17.8946 25.5196 18 25.2652 18 25C17.9967 22.0836 16.8367 19.2877 14.7745 17.2255C12.7123 15.1633 9.91637 14.0033 7 14ZM7 23.5C6.70333 23.5 6.41332 23.588 6.16665 23.7528C5.91997 23.9176 5.72771 24.1519 5.61418 24.426C5.50065 24.7001 5.47094 25.0017 5.52882 25.2926C5.5867 25.5836 5.72956 25.8509 5.93934 26.0607C6.14912 26.2704 6.41639 26.4133 6.70737 26.4712C6.99834 26.5291 7.29994 26.4993 7.57403 26.3858C7.84811 26.2723 8.08238 26.08 8.24721 25.8334C8.41203 25.5867 8.5 25.2967 8.5 25C8.5 24.6022 8.34197 24.2206 8.06066 23.9393C7.77936 23.658 7.39783 23.5 7 23.5Z" fill="#344054"/>
</svg>
