<svg width="32" height="32" viewBox="0 0 32 32" fill="none" xmlns="http://www.w3.org/2000/svg">
<path d="M27.5625 10.825L17.3 7.83749H17.2875L5.56247 4.41249C5.26387 4.32384 4.94854 4.30707 4.64223 4.36356C4.33592 4.42004 4.04731 4.54817 3.79997 4.73749C3.54938 4.92171 3.34616 5.16285 3.20706 5.44103C3.06797 5.71922 2.99699 6.02648 2.99997 6.33749V23.6625C2.99996 24.1908 3.20895 24.6976 3.58133 25.0723C3.9537 25.447 4.4592 25.6592 4.98747 25.6625C5.1816 25.663 5.37495 25.6377 5.56247 25.5875L16 22.5375V24C16 24.5304 16.2107 25.0391 16.5858 25.4142C16.9608 25.7893 17.4695 26 18 26H22C22.5304 26 23.0391 25.7893 23.4142 25.4142C23.7893 25.0391 24 24.5304 24 24V20.2125L27.5625 19.175C27.9772 19.0513 28.341 18.7973 28.6 18.4505C28.8589 18.1038 28.9992 17.6828 29 17.25V12.75C28.9992 12.3172 28.8589 11.8962 28.6 11.5494C28.341 11.2027 27.9772 10.9486 27.5625 10.825ZM22 24H18V21.9625L22 20.7875V24ZM27 17.25L22.7 18.5L18 19.875V10.125L27 12.75V17.25Z" fill="#344054"/>
</svg>
