<svg width="32" height="32" viewBox="0 0 32 32" fill="none" xmlns="http://www.w3.org/2000/svg">
<path d="M27 9H10.8125L24.2875 4.9625C24.4139 4.92475 24.5316 4.86247 24.6339 4.77922C24.7363 4.69597 24.8212 4.59338 24.8839 4.4773C24.9466 4.36123 24.9858 4.23395 24.9993 4.10272C25.0127 3.9715 25.0003 3.8389 24.9625 3.7125C24.9247 3.58611 24.8625 3.46838 24.7792 3.36606C24.696 3.26373 24.5934 3.1788 24.4773 3.11612C24.3612 3.05344 24.2339 3.01424 24.1027 3.00075C23.9715 2.98726 23.8389 2.99975 23.7125 3.0375L3.7125 9.03751L3.625 9.075H3.6125L3.55 9.1125H3.5C3.39917 9.16507 3.30991 9.23733 3.2375 9.325C3.2375 9.32832 3.23618 9.3315 3.23384 9.33384C3.23149 9.33619 3.22832 9.3375 3.225 9.3375C3.2125 9.35 3.2125 9.3625 3.2 9.3875L3.175 9.41251C3.16777 9.41892 3.16329 9.42787 3.1625 9.4375C3.10311 9.52462 3.0607 9.62216 3.0375 9.72501C3.025 9.7375 3.025 9.75 3.025 9.775H3.0125C3.01356 9.80468 3.00933 9.83431 3 9.8625V10V25C3 25.5304 3.21071 26.0391 3.58579 26.4142C3.96086 26.7893 4.46957 27 5 27H27C27.5304 27 28.0391 26.7893 28.4142 26.4142C28.7893 26.0391 29 25.5304 29 25V11C29 10.4696 28.7893 9.96086 28.4142 9.58579C28.0391 9.21072 27.5304 9 27 9ZM12 23H7C6.73478 23 6.48043 22.8946 6.29289 22.7071C6.10536 22.5196 6 22.2652 6 22C6 21.7348 6.10536 21.4804 6.29289 21.2929C6.48043 21.1054 6.73478 21 7 21H12C12.2652 21 12.5196 21.1054 12.7071 21.2929C12.8946 21.4804 13 21.7348 13 22C13 22.2652 12.8946 22.5196 12.7071 22.7071C12.5196 22.8946 12.2652 23 12 23ZM12 19H7C6.73478 19 6.48043 18.8946 6.29289 18.7071C6.10536 18.5196 6 18.2652 6 18C6 17.7348 6.10536 17.4804 6.29289 17.2929C6.48043 17.1054 6.73478 17 7 17H12C12.2652 17 12.5196 17.1054 12.7071 17.2929C12.8946 17.4804 13 17.7348 13 18C13 18.2652 12.8946 18.5196 12.7071 18.7071C12.5196 18.8946 12.2652 19 12 19ZM12 15H7C6.73478 15 6.48043 14.8946 6.29289 14.7071C6.10536 14.5196 6 14.2652 6 14C6 13.7348 6.10536 13.4804 6.29289 13.2929C6.48043 13.1054 6.73478 13 7 13H12C12.2652 13 12.5196 13.1054 12.7071 13.2929C12.8946 13.4804 13 13.7348 13 14C13 14.2652 12.8946 14.5196 12.7071 14.7071C12.5196 14.8946 12.2652 15 12 15ZM21 21.5C20.3078 21.5 19.6311 21.2947 19.0555 20.9101C18.4799 20.5256 18.0313 19.9789 17.7664 19.3394C17.5015 18.6999 17.4322 17.9961 17.5673 17.3172C17.7023 16.6383 18.0356 16.0146 18.5251 15.5251C19.0146 15.0356 19.6383 14.7023 20.3172 14.5673C20.9961 14.4322 21.6999 14.5015 22.3394 14.7664C22.9789 15.0313 23.5256 15.4799 23.9101 16.0555C24.2947 16.6311 24.5 17.3078 24.5 18C24.4967 18.9272 24.1269 19.8156 23.4712 20.4712C22.8156 21.1269 21.9272 21.4967 21 21.5Z" fill="#344054"/>
</svg>
