<svg width="32" height="32" viewBox="0 0 32 32" fill="none" xmlns="http://www.w3.org/2000/svg">
<path d="M27 6H4.99998C4.46955 6 3.96084 6.21071 3.58577 6.58579C3.2107 6.96086 2.99998 7.46957 2.99998 8V27.85C2.996 28.2325 3.10392 28.6079 3.31046 28.9299C3.51699 29.2519 3.81314 29.5066 4.16248 29.6625C4.5063 29.8229 4.88865 29.8823 5.26492 29.8336C5.64119 29.7849 5.99584 29.6302 6.28748 29.3875L10.25 26.05L27 26C27.5304 26 28.0391 25.7893 28.4142 25.4142C28.7893 25.0391 29 24.5304 29 24V8C29 7.46957 28.7893 6.96086 28.4142 6.58579C28.0391 6.21071 27.5304 6 27 6Z" fill="#344054"/>
</svg>
