<svg width="32" height="32" viewBox="0 0 32 32" fill="none" xmlns="http://www.w3.org/2000/svg">
<path d="M29.7125 19.625L28.2125 7.625C28.1186 6.90136 27.7653 6.23638 27.2182 5.75359C26.671 5.2708 25.9672 5.00302 25.2375 5H4C3.46957 5 2.96086 5.21071 2.58579 5.58579C2.21071 5.96086 2 6.46957 2 7V18C2 18.5304 2.21071 19.0391 2.58579 19.4142C2.96086 19.7893 3.46957 20 4 20H9.375L14.1 29.45C14.1861 29.6146 14.3153 29.7528 14.4738 29.8496C14.6324 29.9465 14.8142 29.9985 15 30C16.3251 29.9967 17.5949 29.4689 18.5319 28.5319C19.4689 27.5949 19.9967 26.3251 20 25V23H26.7375C27.1636 23.0018 27.5852 22.9125 27.9739 22.7379C28.3627 22.5634 28.7096 22.3077 28.9914 21.988C29.2731 21.6684 29.4833 21.2921 29.6076 20.8846C29.732 20.477 29.7678 20.0475 29.7125 19.625ZM9 18H4V7H9V18Z" fill="#344054"/>
</svg>
