<svg width="32" height="32" viewBox="0 0 32 32" fill="none" xmlns="http://www.w3.org/2000/svg">
<path d="M27 5H5C4.46957 5 3.96086 5.21071 3.58579 5.58579C3.21071 5.96086 3 6.46957 3 7V23C3 23.5304 3.21071 24.0391 3.58579 24.4142C3.96086 24.7893 4.46957 25 5 25H12.4375L14.2875 28.0875C14.4655 28.3825 14.7167 28.6266 15.0167 28.796C15.3167 28.9654 15.6554 29.0544 16 29.0544C16.3446 29.0544 16.6833 28.9654 16.9833 28.796C17.2833 28.6266 17.5345 28.3825 17.7125 28.0875L19.5625 25H27C27.5304 25 28.0391 24.7893 28.4142 24.4142C28.7893 24.0391 29 23.5304 29 23V7C29 6.46957 28.7893 5.96086 28.4142 5.58579C28.0391 5.21071 27.5304 5 27 5ZM10 16.5C9.70333 16.5 9.41332 16.412 9.16665 16.2472C8.91997 16.0824 8.72771 15.8481 8.61418 15.574C8.50065 15.2999 8.47094 14.9983 8.52882 14.7074C8.5867 14.4164 8.72956 14.1491 8.93934 13.9393C9.14912 13.7296 9.41639 13.5867 9.70736 13.5288C9.99834 13.4709 10.2999 13.5006 10.574 13.6142C10.8481 13.7277 11.0824 13.92 11.2472 14.1666C11.412 14.4133 11.5 14.7033 11.5 15C11.5 15.3978 11.342 15.7794 11.0607 16.0607C10.7794 16.342 10.3978 16.5 10 16.5ZM16 16.5C15.7033 16.5 15.4133 16.412 15.1666 16.2472C14.92 16.0824 14.7277 15.8481 14.6142 15.574C14.5006 15.2999 14.4709 14.9983 14.5288 14.7074C14.5867 14.4164 14.7296 14.1491 14.9393 13.9393C15.1491 13.7296 15.4164 13.5867 15.7074 13.5288C15.9983 13.4709 16.2999 13.5006 16.574 13.6142C16.8481 13.7277 17.0824 13.92 17.2472 14.1666C17.412 14.4133 17.5 14.7033 17.5 15C17.5 15.3978 17.342 15.7794 17.0607 16.0607C16.7794 16.342 16.3978 16.5 16 16.5ZM22 16.5C21.7033 16.5 21.4133 16.412 21.1666 16.2472C20.92 16.0824 20.7277 15.8481 20.6142 15.574C20.5007 15.2999 20.4709 14.9983 20.5288 14.7074C20.5867 14.4164 20.7296 14.1491 20.9393 13.9393C21.1491 13.7296 21.4164 13.5867 21.7074 13.5288C21.9983 13.4709 22.2999 13.5006 22.574 13.6142C22.8481 13.7277 23.0824 13.92 23.2472 14.1666C23.412 14.4133 23.5 14.7033 23.5 15C23.5 15.3978 23.342 15.7794 23.0607 16.0607C22.7794 16.342 22.3978 16.5 22 16.5Z" fill="#344054"/>
</svg>
