<svg width="32" height="32" viewBox="0 0 32 32" fill="none" xmlns="http://www.w3.org/2000/svg">
<path d="M28.4625 6.03751L21.9125 29.275C21.8033 29.6685 21.5755 30.0188 21.2602 30.2782C20.9448 30.5377 20.5572 30.6937 20.15 30.725H19.975C19.5983 30.7242 19.2295 30.6169 18.9111 30.4157C18.5926 30.2145 18.3375 29.9274 18.175 29.5875L13.7125 20.1625C13.6687 20.0679 13.6548 19.9621 13.6727 19.8594C13.6906 19.7566 13.7394 19.6618 13.8125 19.5875L20.225 13.175C20.3254 13.084 20.4063 12.9736 20.4627 12.8505C20.5191 12.7273 20.55 12.594 20.5533 12.4586C20.5566 12.3231 20.5324 12.1885 20.4821 12.0627C20.4318 11.9369 20.3565 11.8226 20.2607 11.7269C20.1649 11.6311 20.0507 11.5557 19.9249 11.5054C19.7991 11.4551 19.6644 11.4309 19.529 11.4343C19.3936 11.4376 19.2602 11.4684 19.1371 11.5248C19.0139 11.5813 18.9035 11.6621 18.8125 11.7625L12.4 18.1875C12.3258 18.2607 12.2309 18.3095 12.1282 18.3273C12.0254 18.3452 11.9197 18.3313 11.825 18.2875L2.45004 13.85C2.08311 13.6767 1.77505 13.3996 1.56399 13.053C1.35292 12.7064 1.24812 12.3055 1.26254 11.9C1.28467 11.4825 1.43792 11.0825 1.7005 10.7571C1.96307 10.4317 2.32159 10.1974 2.72504 10.0875L26.0125 3.52501C26.4198 3.40869 26.8536 3.42469 27.2512 3.57071C27.6488 3.71673 27.9898 3.98523 28.225 4.33751C28.3829 4.58784 28.4857 4.86888 28.5266 5.16197C28.5676 5.45505 28.5457 5.7535 28.4625 6.03751Z" fill="#344054"/>
</svg>
