<svg width="32" height="32" viewBox="0 0 32 32" fill="none" xmlns="http://www.w3.org/2000/svg">
<path d="M25 5.41251V26C25 26.2652 24.8947 26.5196 24.7071 26.7071C24.5196 26.8947 24.2652 27 24 27H3.41251C3.21422 26.9997 3.02051 26.9404 2.85598 26.8297C2.69146 26.719 2.56356 26.5619 2.48853 26.3784C2.4135 26.1948 2.39474 25.9931 2.43462 25.7989C2.4745 25.6046 2.57123 25.4266 2.71251 25.2875L23.2875 4.71251C23.4267 4.57123 23.6046 4.4745 23.7989 4.43462C23.9931 4.39474 24.1948 4.4135 24.3784 4.48853C24.5619 4.56356 24.719 4.69146 24.8297 4.85598C24.9404 5.02051 24.9997 5.21422 25 5.41251Z" stroke="#344054" stroke-width="1.5" stroke-linecap="round" stroke-linejoin="round"/>
<path d="M15 13V27" stroke="#344054" stroke-width="1.5" stroke-linecap="round" stroke-linejoin="round"/>
</svg>
