<svg width="32" height="32" viewBox="0 0 32 32" fill="none" xmlns="http://www.w3.org/2000/svg">
<path d="M26.5 16.5L19.325 23.675C18.9545 24.0469 18.5143 24.342 18.0295 24.5433C17.5447 24.7447 17.0249 24.8483 16.5 24.8483C15.9751 24.8483 15.4553 24.7447 14.9705 24.5433C14.4857 24.342 14.0455 24.0469 13.675 23.675L8.32501 18.325C7.95311 17.9545 7.65802 17.5143 7.45667 17.0295C7.25532 16.5447 7.15167 16.0249 7.15167 15.5C7.15167 14.9751 7.25532 14.4553 7.45667 13.9705C7.65802 13.4857 7.95311 13.0455 8.32501 12.675L15.5 5.5" stroke="#344054" stroke-width="1.5" stroke-linecap="round" stroke-linejoin="round"/>
<path d="M11 21L4 28" stroke="#344054" stroke-width="1.5" stroke-linecap="round" stroke-linejoin="round"/>
<path d="M18 8L23 3" stroke="#344054" stroke-width="1.5" stroke-linecap="round" stroke-linejoin="round"/>
<path d="M29 9L24 14" stroke="#344054" stroke-width="1.5" stroke-linecap="round" stroke-linejoin="round"/>
<path d="M28 18L14 4" stroke="#344054" stroke-width="1.5" stroke-linecap="round" stroke-linejoin="round"/>
</svg>
