<svg width="32" height="32" viewBox="0 0 32 32" fill="none" xmlns="http://www.w3.org/2000/svg">
<path d="M27.3625 8.87501C28.0185 10.4066 28.179 12.105 27.8217 13.7324C27.4644 15.3598 26.6072 16.8348 25.37 17.9508C24.1327 19.0667 22.5775 19.7679 20.922 19.956C19.2665 20.1442 17.5936 19.8099 16.1375 19V19L9.125 27.125C8.56142 27.6886 7.79703 28.0052 7 28.0052C6.20297 28.0052 5.43859 27.6886 4.875 27.125C4.31142 26.5614 3.9948 25.797 3.9948 25C3.9948 24.203 4.31142 23.4386 4.875 22.875L13 15.8625C12.1901 14.4064 11.8558 12.7335 12.044 11.078C12.2321 9.4225 12.9333 7.86726 14.0493 6.63005C15.1652 5.39283 16.6402 4.53556 18.2676 4.17827C19.895 3.82099 21.5934 3.98156 23.125 4.63751L17.875 9.87501L18.5875 13.4125L22.125 14.125L27.3625 8.87501Z" stroke="#344054" stroke-width="1.5" stroke-linecap="round" stroke-linejoin="round"/>
</svg>
