<svg width="32" height="32" viewBox="0 0 32 32" fill="none" xmlns="http://www.w3.org/2000/svg">
<path d="M11.6125 20.7625C12.7926 19.6303 14.3646 18.9982 16 18.9982C17.6353 18.9982 19.2074 19.6303 20.3875 20.7625" stroke="#344054" stroke-width="1.5" stroke-linecap="round" stroke-linejoin="round"/>
<path d="M28 7L22 13" stroke="#344054" stroke-width="1.5" stroke-linecap="round" stroke-linejoin="round"/>
<path d="M28 13L22 7" stroke="#344054" stroke-width="1.5" stroke-linecap="round" stroke-linejoin="round"/>
<path d="M3.13751 12.275C6.55809 8.88392 11.1834 6.98704 16 7C16.6683 6.99975 17.336 7.03731 18 7.11251" stroke="#344054" stroke-width="1.5" stroke-linecap="round" stroke-linejoin="round"/>
<path d="M7.375 16.5125C9.67397 14.2496 12.7742 12.987 16 13C16.6701 12.9967 17.3392 13.051 18 13.1625" stroke="#344054" stroke-width="1.5" stroke-linecap="round" stroke-linejoin="round"/>
<path d="M16 26.25C16.6904 26.25 17.25 25.6904 17.25 25C17.25 24.3096 16.6904 23.75 16 23.75C15.3096 23.75 14.75 24.3096 14.75 25C14.75 25.6904 15.3096 26.25 16 26.25Z" fill="#344054"/>
</svg>
