<svg width="32" height="32" viewBox="0 0 32 32" fill="none" xmlns="http://www.w3.org/2000/svg">
<path d="M6 5L26 27" stroke="#344054" stroke-width="1.5" stroke-linecap="round" stroke-linejoin="round"/>
<path d="M12 24V25C12 26.0609 12.4214 27.0783 13.1716 27.8284C13.9217 28.5786 14.9391 29 16 29C17.0609 29 18.0783 28.5786 18.8284 27.8284C19.5786 27.0783 20 26.0609 20 25V24" stroke="#344054" stroke-width="1.5" stroke-linecap="round" stroke-linejoin="round"/>
<path d="M23.275 24H6.12499C5.94975 23.9994 5.77775 23.9527 5.62622 23.8647C5.47469 23.7767 5.34895 23.6504 5.2616 23.4985C5.17425 23.3466 5.12835 23.1744 5.12851 22.9991C5.12867 22.8239 5.17487 22.6518 5.26249 22.5C6.08749 21.075 7.02499 18.475 7.02499 14V13C7.02396 11.1705 7.57746 9.3836 8.61249 7.875" stroke="#344054" stroke-width="1.5" stroke-linecap="round" stroke-linejoin="round"/>
<path d="M11.5625 5.175C12.9309 4.38914 14.4846 3.98347 16.0625 4C21.0125 4.0375 24.975 8.15 24.975 13.1125V14C24.975 17.3375 25.5 19.625 26.1 21.1625" stroke="#344054" stroke-width="1.5" stroke-linecap="round" stroke-linejoin="round"/>
</svg>
