<svg width="32" height="32" viewBox="0 0 32 32" fill="none" xmlns="http://www.w3.org/2000/svg">
<path d="M15.2875 8.925L17.7625 6.45C18.8104 5.49491 20.186 4.9803 21.6034 5.01311C23.0209 5.04593 24.3712 5.62365 25.3738 6.62621C26.3763 7.62878 26.9541 8.97909 26.9869 10.3965C27.0197 11.814 26.5051 13.1896 25.55 14.2375L22.0125 17.7625C21.5027 18.2742 20.8968 18.6803 20.2297 18.9573C19.5626 19.2344 18.8473 19.377 18.125 19.377C17.4026 19.377 16.6874 19.2344 16.0203 18.9573C15.3532 18.6803 14.7473 18.2742 14.2375 17.7625" stroke="#344054" stroke-width="1.5" stroke-linecap="round" stroke-linejoin="round"/>
<path d="M16.7125 23.075L14.2375 25.55C13.1896 26.5051 11.814 27.0197 10.3965 26.9869C8.97908 26.9541 7.62877 26.3764 6.6262 25.3738C5.62364 24.3712 5.04592 23.0209 5.01311 21.6034C4.98029 20.186 5.4949 18.8104 6.44999 17.7625L9.98749 14.2375C10.4973 13.7258 11.1032 13.3197 11.7703 13.0427C12.4374 12.7656 13.1526 12.623 13.875 12.623C14.5973 12.623 15.3126 12.7656 15.9797 13.0427C16.6468 13.3197 17.2527 13.7258 17.7625 14.2375" stroke="#344054" stroke-width="1.5" stroke-linecap="round" stroke-linejoin="round"/>
</svg>
