<svg width="32" height="32" viewBox="0 0 32 32" fill="none" xmlns="http://www.w3.org/2000/svg">
<path d="M6 5L26 27" stroke="#344054" stroke-width="1.5" stroke-linecap="round" stroke-linejoin="round"/>
<path d="M24.2375 25.0625C22.9105 25.6811 21.4641 26.0011 20 26H9C7.14348 26 5.36301 25.2625 4.05025 23.9497C2.7375 22.637 2 20.8565 2 19C2 17.1435 2.7375 15.363 4.05025 14.0503C5.36301 12.7375 7.14348 12 9 12C9.58566 11.9998 10.1692 12.0711 10.7375 12.2125" stroke="#344054" stroke-width="1.5" stroke-linecap="round" stroke-linejoin="round"/>
<path d="M14.075 7.9375C16.0668 6.4597 18.5367 5.77478 21.0051 6.01572C23.4735 6.25667 25.7643 7.4063 27.4327 9.24138C29.1011 11.0765 30.028 13.4661 30.0335 15.9462C30.0391 18.4263 29.1227 20.82 27.4625 22.6625" stroke="#344054" stroke-width="1.5" stroke-linecap="round" stroke-linejoin="round"/>
<path d="M9.99998 16C9.99503 14.214 10.4745 12.4601 11.3875 10.925" stroke="#344054" stroke-width="1.5" stroke-linecap="round" stroke-linejoin="round"/>
</svg>
