<svg width="32" height="32" viewBox="0 0 32 32" fill="none" xmlns="http://www.w3.org/2000/svg">
<path d="M6 5L26 27" stroke="#344054" stroke-width="1.5" stroke-linecap="round" stroke-linejoin="round"/>
<path d="M16.925 11.075L23.2875 4.71251C23.4266 4.57123 23.6046 4.4745 23.7989 4.43462C23.9931 4.39474 24.1948 4.4135 24.3784 4.48853C24.5619 4.56356 24.719 4.69146 24.8297 4.85598C24.9404 5.02051 24.9997 5.21422 25 5.41251V19.95" stroke="#344054" stroke-width="1.5" stroke-linecap="round" stroke-linejoin="round"/>
<path d="M26 27H3.4125C3.21421 26.9997 3.02049 26.9404 2.85597 26.8297C2.69145 26.719 2.56354 26.5619 2.48852 26.3784C2.41349 26.1948 2.39472 25.9931 2.43461 25.7989C2.47449 25.6046 2.57122 25.4266 2.7125 25.2875L14.1 13.9" stroke="#344054" stroke-width="1.5" stroke-linecap="round" stroke-linejoin="round"/>
</svg>
