<svg width="32" height="32" viewBox="0 0 32 32" fill="none" xmlns="http://www.w3.org/2000/svg">
<path d="M6 5L26 27" stroke="#344054" stroke-width="1.5" stroke-linecap="round" stroke-linejoin="round"/>
<path d="M13.3875 7.1875C14.2526 7.06156 15.1258 6.99889 16 7C20.8166 6.98704 25.4419 8.88392 28.8625 12.275" stroke="#344054" stroke-width="1.5" stroke-linecap="round" stroke-linejoin="round"/>
<path d="M3.13751 12.275C4.83302 10.5961 6.84191 9.26675 9.05001 8.36249" stroke="#344054" stroke-width="1.5" stroke-linecap="round" stroke-linejoin="round"/>
<path d="M19.0125 13.375C21.1305 13.8996 23.0688 14.9831 24.625 16.5125" stroke="#344054" stroke-width="1.5" stroke-linecap="round" stroke-linejoin="round"/>
<path d="M7.375 16.5125C9.06078 14.8591 11.1873 13.7264 13.5 13.25" stroke="#344054" stroke-width="1.5" stroke-linecap="round" stroke-linejoin="round"/>
<path d="M11.6125 20.7625C12.7398 19.6862 14.2229 19.0611 15.7804 19.0058C17.338 18.9505 18.8617 19.4689 20.0625 20.4625" stroke="#344054" stroke-width="1.5" stroke-linecap="round" stroke-linejoin="round"/>
<path d="M16 26.25C16.6904 26.25 17.25 25.6904 17.25 25C17.25 24.3096 16.6904 23.75 16 23.75C15.3096 23.75 14.75 24.3096 14.75 25C14.75 25.6904 15.3096 26.25 16 26.25Z" fill="#344054"/>
</svg>
