<svg width="32" height="32" viewBox="0 0 32 32" fill="none" xmlns="http://www.w3.org/2000/svg">
<path d="M16 22C19.3137 22 22 19.3137 22 16C22 12.6863 19.3137 10 16 10C12.6863 10 10 12.6863 10 16C10 19.3137 12.6863 22 16 22Z" stroke="#344054" stroke-width="1.5" stroke-linecap="round" stroke-linejoin="round"/>
<path d="M22.9625 8.1375C23.2792 8.42917 23.5792 8.72917 23.8625 9.0375L27.275 9.525C27.831 10.4906 28.2596 11.5242 28.55 12.6L26.475 15.3625C26.475 15.3625 26.5125 16.2125 26.475 16.6375L28.55 19.4C28.2609 20.4762 27.8323 21.51 27.275 22.475L23.8625 22.9625C23.8625 22.9625 23.275 23.575 22.9625 23.8625L22.475 27.275C21.5094 27.831 20.4758 28.2596 19.4 28.55L16.6375 26.475C16.2133 26.5125 15.7867 26.5125 15.3625 26.475L12.6 28.55C11.5238 28.2609 10.49 27.8323 9.52501 27.275L9.03751 23.8625C8.72918 23.5708 8.42918 23.2708 8.13751 22.9625L4.72501 22.475C4.16899 21.5094 3.74042 20.4758 3.45001 19.4L5.52501 16.6375C5.52501 16.6375 5.48751 15.7875 5.52501 15.3625L3.45001 12.6C3.73908 11.5238 4.16771 10.49 4.72501 9.525L8.13751 9.0375C8.42918 8.72917 8.72918 8.42917 9.03751 8.1375L9.52501 4.725C10.4906 4.16898 11.5242 3.74041 12.6 3.45L15.3625 5.525C15.7867 5.48749 16.2133 5.48749 16.6375 5.525L19.4 3.45C20.4762 3.73907 21.51 4.1677 22.475 4.725L22.9625 8.1375Z" stroke="#344054" stroke-width="1.5" stroke-linecap="round" stroke-linejoin="round"/>
</svg>
