<svg width="32" height="32" viewBox="0 0 32 32" fill="none" xmlns="http://www.w3.org/2000/svg">
<path d="M18.125 22.3625L14.5875 25.9C14.0302 26.4573 13.3686 26.8994 12.6404 27.201C11.9123 27.5026 11.1319 27.6578 10.3437 27.6578C8.75202 27.6578 7.22549 27.0255 6.09998 25.9C4.97447 24.7745 4.34216 23.248 4.34216 21.6562C4.34216 20.0645 4.97447 18.538 6.09998 17.4125L9.63748 13.875" stroke="#344054" stroke-width="1.5" stroke-linecap="round" stroke-linejoin="round"/>
<path d="M22.3625 18.125L25.9 14.5875C27.0255 13.462 27.6578 11.9355 27.6578 10.3437C27.6578 8.75203 27.0255 7.22551 25.9 6.1C24.7745 4.97448 23.248 4.34218 21.6562 4.34218C20.0645 4.34218 18.538 4.97448 17.4125 6.1L13.875 9.6375" stroke="#344054" stroke-width="1.5" stroke-linecap="round" stroke-linejoin="round"/>
</svg>
