<svg width="32" height="32" viewBox="0 0 32 32" fill="none" xmlns="http://www.w3.org/2000/svg">
<path d="M7.02499 14C7.02499 12.8214 7.25713 11.6543 7.70817 10.5654C8.1592 9.47651 8.8203 8.48712 9.6537 7.65371C10.4871 6.8203 11.4765 6.15921 12.5654 5.70817C13.6543 5.25714 14.8214 5.02499 16 5.02499C17.1786 5.02499 18.3457 5.25714 19.4346 5.70817C20.5235 6.15921 21.5129 6.8203 22.3463 7.65371C23.1797 8.48712 23.8408 9.47651 24.2918 10.5654C24.7428 11.6543 24.975 12.8214 24.975 14V14C24.975 18.475 25.9125 21.075 26.7375 22.5C26.8251 22.6518 26.8713 22.8239 26.8715 22.9991C26.8716 23.1744 26.8257 23.3466 26.7384 23.4985C26.651 23.6504 26.5253 23.7767 26.3738 23.8647C26.2222 23.9527 26.0502 23.9994 25.875 24H6.12499C5.94975 23.9994 5.77775 23.9527 5.62622 23.8647C5.47469 23.7767 5.34895 23.6504 5.2616 23.4985C5.17425 23.3466 5.12835 23.1744 5.12851 22.9991C5.12867 22.8239 5.17487 22.6518 5.26249 22.5C6.08749 21.075 7.02499 18.475 7.02499 14Z" stroke="#344054" stroke-width="1.5" stroke-linecap="round" stroke-linejoin="round"/>
<path d="M12 24V25C12 26.0609 12.4214 27.0783 13.1716 27.8284C13.9217 28.5786 14.9391 29 16 29C17.0609 29 18.0783 28.5786 18.8284 27.8284C19.5786 27.0783 20 26.0609 20 25V24" stroke="#344054" stroke-width="1.5" stroke-linecap="round" stroke-linejoin="round"/>
<path d="M22.925 3C24.9611 4.28526 26.6043 6.10584 27.675 8.2625" stroke="#344054" stroke-width="1.5" stroke-linecap="round" stroke-linejoin="round"/>
<path d="M4.32501 8.2625C5.39567 6.10584 7.03895 4.28526 9.07501 3" stroke="#344054" stroke-width="1.5" stroke-linecap="round" stroke-linejoin="round"/>
</svg>
