<svg width="32" height="32" viewBox="0 0 32 32" fill="none" xmlns="http://www.w3.org/2000/svg">
<path d="M7.02499 13C7.02332 11.8145 7.25622 10.6403 7.71027 9.54519C8.16432 8.45006 8.83055 7.45558 9.67058 6.61903C10.5106 5.78248 11.5079 5.12039 12.6049 4.6709C13.7019 4.2214 14.877 3.99339 16.0625 3.99999C21.0125 4.03749 24.975 8.14999 24.975 13.1125V14C24.975 18.475 25.9125 21.075 26.7375 22.5C26.8251 22.6517 26.8713 22.8239 26.8715 22.9991C26.8716 23.1743 26.8257 23.3465 26.7384 23.4985C26.651 23.6504 26.5253 23.7767 26.3738 23.8647C26.2222 23.9527 26.0502 23.9994 25.875 24H6.12499C5.94975 23.9994 5.77775 23.9527 5.62622 23.8647C5.47469 23.7767 5.34895 23.6504 5.2616 23.4985C5.17425 23.3465 5.12835 23.1743 5.12851 22.9991C5.12867 22.8239 5.17487 22.6517 5.26249 22.5C6.08749 21.075 7.02499 18.475 7.02499 14V13Z" stroke="#344054" stroke-width="1.5" stroke-linecap="round" stroke-linejoin="round"/>
<path d="M12 24V25C12 26.0609 12.4214 27.0783 13.1716 27.8284C13.9217 28.5786 14.9391 29 16 29C17.0609 29 18.0783 28.5786 18.8284 27.8284C19.5786 27.0783 20 26.0609 20 25V24" stroke="#344054" stroke-width="1.5" stroke-linecap="round" stroke-linejoin="round"/>
<path d="M13.5 12H18.5L13.5 18H18.5" stroke="#344054" stroke-width="1.5" stroke-linecap="round" stroke-linejoin="round"/>
</svg>
