<svg width="32" height="32" viewBox="0 0 32 32" fill="none" xmlns="http://www.w3.org/2000/svg">
<path d="M12 28H20" stroke="#344054" stroke-width="1.5" stroke-linecap="round" stroke-linejoin="round"/>
<path d="M7.02502 13C7.02335 11.8145 7.25625 10.6403 7.7103 9.54519C8.16435 8.45006 8.83058 7.45558 9.67061 6.61903C10.5106 5.78248 11.5079 5.12039 12.6049 4.6709C13.7019 4.2214 14.877 3.99339 16.0625 3.99999C21.0125 4.03749 24.975 8.14999 24.975 13.1125V14C24.975 18.475 25.9125 21.075 26.7375 22.5C26.8251 22.6517 26.8713 22.8239 26.8715 22.9991C26.8716 23.1743 26.8258 23.3465 26.7384 23.4985C26.651 23.6504 26.5253 23.7767 26.3738 23.8647C26.2223 23.9527 26.0503 23.9994 25.875 24H6.12502C5.94978 23.9994 5.77778 23.9527 5.62625 23.8647C5.47472 23.7767 5.34899 23.6504 5.26163 23.4985C5.17428 23.3465 5.12839 23.1743 5.12854 22.9991C5.1287 22.8239 5.1749 22.6517 5.26252 22.5C6.08752 21.075 7.02502 18.475 7.02502 14V13Z" stroke="#344054" stroke-width="1.5" stroke-linecap="round" stroke-linejoin="round"/>
<path d="M13.5 12H18.5L13.5 18H18.5" stroke="#344054" stroke-width="1.5" stroke-linecap="round" stroke-linejoin="round"/>
</svg>
