<svg width="32" height="32" viewBox="0 0 32 32" fill="none" xmlns="http://www.w3.org/2000/svg">
<path d="M17.1471 21.761H4.20591C3.51947 21.761 2.86114 21.4883 2.37575 21.003C1.89036 20.5176 1.61768 19.8592 1.61768 19.1728V7.52574C1.61768 6.83929 1.89036 6.18097 2.37575 5.69558C2.86114 5.21019 3.51947 4.9375 4.20591 4.9375H11.1471" stroke="#344054" stroke-width="1.5" stroke-linecap="round" stroke-linejoin="round"/>
<path d="M25.1471 7.52574C25.1471 6.83929 24.8744 6.18097 24.389 5.69558C23.9036 5.21019 23.2453 4.9375 22.5589 4.9375H10.6177" stroke="#344054" stroke-width="1.5" stroke-linecap="round" stroke-linejoin="round"/>
<path d="M2.91174 16.5846H17.147" stroke="#344054" stroke-width="1.5" stroke-linecap="round" stroke-linejoin="round"/>
<path d="M17.147 26.9375H9.38232" stroke="#344054" stroke-width="1.5" stroke-linecap="round" stroke-linejoin="round"/>
<path d="M13.2646 21.761V26.9375" stroke="#344054" stroke-width="1.5" stroke-linecap="round" stroke-linejoin="round"/>
<path d="M30.3823 25.8125V12.0625C30.3823 11.3722 29.8227 10.8125 29.1323 10.8125H21.6323C20.942 10.8125 20.3823 11.3722 20.3823 12.0625V25.8125C20.3823 26.5029 20.942 27.0625 21.6323 27.0625H29.1323C29.8227 27.0625 30.3823 26.5029 30.3823 25.8125Z" stroke="#344054" stroke-width="1.5" stroke-linecap="round" stroke-linejoin="round"/>
<path d="M22.8823 13.3125H27.8823" stroke="#344054" stroke-width="1.5" stroke-linecap="round" stroke-linejoin="round"/>
</svg>
