<svg width="32" height="32" viewBox="0 0 32 32" fill="none" xmlns="http://www.w3.org/2000/svg">
<path d="M26.7125 10.2875L19.7125 3.2875C19.522 3.10178 19.266 2.9985 19 3H7C6.46957 3 5.96086 3.21071 5.58579 3.58579C5.21071 3.96086 5 4.46957 5 5V27C5 27.5304 5.21071 28.0391 5.58579 28.4142C5.96086 28.7893 6.46957 29 7 29H25C25.5304 29 26.0391 28.7893 26.4142 28.4142C26.7893 28.0391 27 27.5304 27 27V11C27.0015 10.734 26.8982 10.478 26.7125 10.2875ZM13.7125 21.2875C13.9003 21.4771 14.0056 21.7332 14.0056 22C14.0056 22.2668 13.9003 22.5229 13.7125 22.7125C13.5214 22.8973 13.2659 23.0006 13 23.0006C12.7341 23.0006 12.4786 22.8973 12.2875 22.7125L9.2875 19.7125C9.09972 19.5229 8.99437 19.2668 8.99437 19C8.99437 18.7332 9.09972 18.4771 9.2875 18.2875L12.2875 15.2875C12.4818 15.128 12.7285 15.0465 12.9795 15.0589C13.2306 15.0712 13.4681 15.1765 13.6458 15.3542C13.8235 15.5319 13.9288 15.7694 13.9411 16.0205C13.9535 16.2715 13.872 16.5182 13.7125 16.7125L11.4125 19L13.7125 21.2875ZM22.7125 19.7125L19.7125 22.7125C19.5214 22.8973 19.2659 23.0006 19 23.0006C18.7341 23.0006 18.4786 22.8973 18.2875 22.7125C18.0997 22.5229 17.9944 22.2668 17.9944 22C17.9944 21.7332 18.0997 21.4771 18.2875 21.2875L20.5875 19L18.2875 16.7125C18.128 16.5182 18.0465 16.2715 18.0589 16.0205C18.0712 15.7694 18.1765 15.5319 18.3542 15.3542C18.5319 15.1765 18.7694 15.0712 19.0205 15.0589C19.2715 15.0465 19.5182 15.128 19.7125 15.2875L22.7125 18.2875C22.9003 18.4771 23.0056 18.7332 23.0056 19C23.0056 19.2668 22.9003 19.5229 22.7125 19.7125ZM19 11V5.5L24.5 11H19Z" fill="#344054"/>
</svg>
