<svg width="32" height="32" viewBox="0 0 32 32" fill="none" xmlns="http://www.w3.org/2000/svg">
<path d="M26.2126 15.2875C26.3987 15.4787 26.5018 15.7357 26.4995 16.0026C26.4972 16.2694 26.3896 16.5246 26.2001 16.7125L15.9501 26.95C14.6373 28.2628 12.8567 29.0004 11.0001 29.0004C9.1435 29.0004 7.36293 28.2628 6.05011 26.95C4.73729 25.6372 3.99976 23.8566 3.99976 22C3.99976 20.1434 4.73729 18.3628 6.05011 17.05L18.4626 4.475C18.9219 3.99077 19.4734 3.60338 20.0847 3.33566C20.6961 3.06794 21.3548 2.92531 22.0221 2.91618C22.6894 2.90705 23.3518 3.03161 23.9702 3.2825C24.5886 3.5334 25.1506 3.90556 25.6229 4.37705C26.0952 4.84854 26.4684 5.40982 26.7204 6.02779C26.9724 6.64576 27.0981 7.30793 27.0901 7.97526C27.0822 8.64259 26.9407 9.30158 26.6741 9.91337C26.4074 10.5252 26.021 11.0774 25.5376 11.5375L13.1251 24.1125C12.8477 24.3942 12.5168 24.6178 12.152 24.7702C11.7871 24.9226 11.3955 25.0007 11.0001 25C10.4057 25.0015 9.82425 24.8263 9.32954 24.4968C8.83484 24.1672 8.44918 23.6981 8.22151 23.1491C7.99384 22.6 7.93442 21.9956 8.05079 21.4127C8.16716 20.8298 8.45407 20.2946 8.87511 19.875L19.2876 9.3C19.3777 9.19894 19.4874 9.11722 19.61 9.05981C19.7327 9.0024 19.8657 8.97049 20.001 8.96602C20.1363 8.96154 20.2711 8.98459 20.3973 9.03377C20.5234 9.08296 20.6383 9.15724 20.7349 9.25213C20.8314 9.34702 20.9078 9.46054 20.9592 9.5858C21.0106 9.71106 21.036 9.84545 21.0339 9.98083C21.0318 10.1162 21.0023 10.2498 20.9471 10.3734C20.8918 10.497 20.8121 10.6081 20.7126 10.7L10.3001 21.2875C10.2053 21.3804 10.13 21.4913 10.0785 21.6136C10.027 21.7359 10.0003 21.8673 10.0001 22C10.0038 22.1967 10.0647 22.3881 10.1754 22.5508C10.2861 22.7135 10.4418 22.8404 10.6235 22.9159C10.8052 22.9915 11.0049 23.0125 11.1984 22.9764C11.3918 22.9403 11.5705 22.8486 11.7126 22.7125L24.1126 10.125C24.3943 9.84755 24.6179 9.51673 24.7703 9.15186C24.9227 8.78699 25.0008 8.39541 25.0001 8C25.0016 7.40559 24.8264 6.82414 24.4969 6.32943C24.1673 5.83473 23.6983 5.44907 23.1492 5.2214C22.6001 4.99373 21.9957 4.93431 21.4128 5.05068C20.8299 5.16705 20.2947 5.45396 19.8751 5.875L7.47511 18.4625C6.99088 18.9218 6.60349 19.4733 6.33576 20.0846C6.06804 20.6959 5.92542 21.3547 5.91629 22.022C5.90716 22.6893 6.03171 23.3517 6.28261 23.9701C6.53351 24.5885 6.90567 25.1505 7.37716 25.6228C7.84865 26.0951 8.40992 26.4683 9.0279 26.7203C9.64587 26.9723 10.308 27.098 10.9754 27.09C11.6427 27.0821 12.3017 26.9406 12.9135 26.674C13.5253 26.4073 14.0775 26.0209 14.5376 25.5375L24.7876 15.2875C24.9772 15.0997 25.2333 14.9944 25.5001 14.9944C25.767 14.9944 26.023 15.0997 26.2126 15.2875Z" fill="#344054"/>
</svg>
