<svg width="32" height="32" viewBox="0 0 32 32" fill="none" xmlns="http://www.w3.org/2000/svg">
<path d="M28.9999 13.4125L21.6874 20.725C22.2499 22.3125 22.4874 24.9625 20.0374 28.225C19.8638 28.4539 19.6438 28.6435 19.3917 28.7814C19.1397 28.9193 18.8613 29.0023 18.5749 29.025H18.4374C17.9076 29.0227 17.4 28.8116 17.0249 28.4375L10.9999 22.4125L6.7124 26.7125C6.52126 26.8973 6.26578 27.0006 5.9999 27.0006C5.73401 27.0006 5.47854 26.8973 5.2874 26.7125C5.09961 26.5229 4.99427 26.2668 4.99427 26C4.99427 25.7331 5.09961 25.4771 5.2874 25.2875L9.5874 21L3.5374 14.95C3.3367 14.7522 3.18034 14.5141 3.07869 14.2513C2.97704 13.9886 2.93242 13.7072 2.94778 13.4258C2.96315 13.1445 3.03815 12.8697 3.16782 12.6195C3.29749 12.3694 3.47886 12.1497 3.6999 11.975C6.8749 9.41249 9.9124 9.92499 11.2499 10.3375L18.5874 2.99999C18.9639 2.62899 19.4713 2.42102 19.9999 2.42102C20.5285 2.42102 21.0359 2.62899 21.4124 2.99999L28.9999 10.5875C29.1866 10.7723 29.3348 10.9923 29.436 11.2347C29.5371 11.4772 29.5892 11.7373 29.5892 12C29.5892 12.2627 29.5371 12.5228 29.436 12.7652C29.3348 13.0077 29.1866 13.2277 28.9999 13.4125Z" fill="#344054"/>
</svg>
