<svg width="32" height="32" viewBox="0 0 32 32" fill="none" xmlns="http://www.w3.org/2000/svg">
<path d="M15.075 25H5V11H27V15C27 15.2652 27.1054 15.5196 27.2929 15.7071C27.4804 15.8946 27.7348 16 28 16C28.2652 16 28.5196 15.8946 28.7071 15.7071C28.8946 15.5196 29 15.2652 29 15V11C29 10.4696 28.7893 9.96086 28.4142 9.58579C28.0391 9.21071 27.5304 9 27 9H16.4125L13 5.5875C12.815 5.40112 12.595 5.25324 12.3525 5.1524C12.1101 5.05157 11.8501 4.99977 11.5875 5H5C4.46957 5 3.96086 5.21071 3.58579 5.58579C3.21071 5.96086 3 6.46957 3 7V25.075C3 25.5855 3.20281 26.0752 3.56382 26.4362C3.92483 26.7972 4.41446 27 4.925 27H15.075C15.3402 27 15.5946 26.8946 15.7821 26.7071C15.9696 26.5196 16.075 26.2652 16.075 26C16.075 25.7348 15.9696 25.4804 15.7821 25.2929C15.5946 25.1054 15.3402 25 15.075 25ZM11.5875 7L13.5875 9H5V7H11.5875ZM30.1375 20.975L27.325 23.3L28.175 26.7625C28.2228 26.9531 28.2127 27.1537 28.1459 27.3385C28.0791 27.5233 27.9586 27.684 27.8 27.8C27.633 27.9323 27.4255 28.003 27.2125 28C27.0329 27.9972 26.8569 27.9499 26.7 27.8625L23.5 25.975L20.3 27.8625C20.1307 27.961 19.9362 28.0075 19.7406 27.9964C19.5451 27.9853 19.3571 27.917 19.2 27.8C19.0414 27.684 18.9209 27.5233 18.8541 27.3385C18.7873 27.1537 18.7772 26.9531 18.825 26.7625L19.675 23.3L16.8625 20.975C16.7122 20.8456 16.6033 20.6749 16.5491 20.4842C16.495 20.2934 16.498 20.0909 16.558 19.9019C16.6179 19.7128 16.732 19.5455 16.8861 19.4208C17.0402 19.296 17.2276 19.2192 17.425 19.2L21.15 18.9125L22.5875 15.6C22.6664 15.424 22.7945 15.2746 22.9564 15.1697C23.1183 15.0649 23.3071 15.0091 23.5 15.0091C23.6929 15.0091 23.8817 15.0649 24.0436 15.1697C24.2055 15.2746 24.3336 15.424 24.4125 15.6L25.85 18.9125L29.575 19.2C29.7724 19.2192 29.9598 19.296 30.1139 19.4208C30.268 19.5455 30.3821 19.7128 30.442 19.9019C30.502 20.0909 30.505 20.2934 30.4509 20.4842C30.3967 20.6749 30.2878 20.8456 30.1375 20.975Z" fill="#344054"/>
</svg>
