<svg width="32" height="32" viewBox="0 0 32 32" fill="none" xmlns="http://www.w3.org/2000/svg">
<path d="M29 11V13C29 13.2652 28.8946 13.5196 28.7071 13.7071C28.5196 13.8947 28.2652 14 28 14C27.7348 14 27.4804 13.8947 27.2929 13.7071C27.1054 13.5196 27 13.2652 27 13V11H16.3375C15.9042 11.0037 15.4819 10.863 15.1375 10.6L11.6625 8.00001H5V25H14C14.2652 25 14.5196 25.1054 14.7071 25.2929C14.8946 25.4804 15 25.7348 15 26C15 26.2652 14.8946 26.5196 14.7071 26.7071C14.5196 26.8947 14.2652 27 14 27H5C4.46957 27 3.96086 26.7893 3.58579 26.4142C3.21071 26.0392 3 25.5304 3 25V8.00001C3 7.46958 3.21071 6.96087 3.58579 6.5858C3.96086 6.21072 4.46957 6.00001 5 6.00001H11.6625C12.0958 5.9963 12.5181 6.13704 12.8625 6.40001L16.3375 9.00001H27C27.5304 9.00001 28.0391 9.21072 28.4142 9.5858C28.7893 9.96087 29 10.4696 29 11ZM29 20.5V26C29 26.2652 28.8946 26.5196 28.7071 26.7071C28.5196 26.8947 28.2652 27 28 27H19C18.7348 27 18.4804 26.8947 18.2929 26.7071C18.1054 26.5196 18 26.2652 18 26V20.5C18 20.2348 18.1054 19.9804 18.2929 19.7929C18.4804 19.6054 18.7348 19.5 19 19.5H20V19C20 18.0718 20.3687 17.1815 21.0251 16.5251C21.6815 15.8688 22.5717 15.5 23.5 15.5C24.4283 15.5 25.3185 15.8688 25.9749 16.5251C26.6313 17.1815 27 18.0718 27 19V19.5H28C28.2652 19.5 28.5196 19.6054 28.7071 19.7929C28.8946 19.9804 29 20.2348 29 20.5ZM25 19C25 18.6022 24.842 18.2207 24.5607 17.9394C24.2794 17.658 23.8978 17.5 23.5 17.5C23.1022 17.5 22.7206 17.658 22.4393 17.9394C22.158 18.2207 22 18.6022 22 19V19.5H25V19Z" fill="#344054"/>
</svg>
