<svg width="32" height="32" viewBox="0 0 32 32" fill="none" xmlns="http://www.w3.org/2000/svg">
<path d="M26.7125 10.2875L19.7125 3.2875C19.522 3.10178 19.266 2.9985 19 3H7C6.46957 3 5.96086 3.21071 5.58579 3.58579C5.21071 3.96086 5 4.46957 5 5V16C5 16.2652 5.10536 16.5196 5.29289 16.7071C5.48043 16.8946 5.73478 17 6 17C6.26522 17 6.51957 16.8946 6.70711 16.7071C6.89464 16.5196 7 16.2652 7 16V5H18V11C18 11.2652 18.1054 11.5196 18.2929 11.7071C18.4804 11.8946 18.7348 12 19 12H25V27H21C20.7348 27 20.4804 27.1054 20.2929 27.2929C20.1054 27.4804 20 27.7348 20 28C20 28.2652 20.1054 28.5196 20.2929 28.7071C20.4804 28.8946 20.7348 29 21 29H25C25.5304 29 26.0391 28.7893 26.4142 28.4142C26.7893 28.0391 27 27.5304 27 27V11C27.0015 10.734 26.8982 10.478 26.7125 10.2875ZM20 6.4125L23.5875 10H20V6.4125ZM16 21.5H15V21C15 20.0717 14.6313 19.1815 13.9749 18.5251C13.3185 17.8687 12.4283 17.5 11.5 17.5C10.5717 17.5 9.6815 17.8687 9.02513 18.5251C8.36875 19.1815 8 20.0717 8 21V21.5H7C6.73478 21.5 6.48043 21.6054 6.29289 21.7929C6.10536 21.9804 6 22.2348 6 22.5V28C6 28.2652 6.10536 28.5196 6.29289 28.7071C6.48043 28.8946 6.73478 29 7 29H16C16.2652 29 16.5196 28.8946 16.7071 28.7071C16.8946 28.5196 17 28.2652 17 28V22.5C17 22.2348 16.8946 21.9804 16.7071 21.7929C16.5196 21.6054 16.2652 21.5 16 21.5ZM13 21.5H10V21C10 20.6022 10.158 20.2206 10.4393 19.9393C10.7206 19.658 11.1022 19.5 11.5 19.5C11.8978 19.5 12.2794 19.658 12.5607 19.9393C12.842 20.2206 13 20.6022 13 21V21.5Z" fill="#344054"/>
</svg>
