<svg width="32" height="32" viewBox="0 0 32 32" fill="none" xmlns="http://www.w3.org/2000/svg">
<path d="M19 7V22C19 22.2652 18.8946 22.5196 18.7071 22.7071C18.5196 22.8946 18.2652 23 18 23C17.7348 23 17.4804 22.8946 17.2929 22.7071C17.1054 22.5196 17 22.2652 17 22V15.5H6V22C6 22.2652 5.89464 22.5196 5.70711 22.7071C5.51957 22.8946 5.26522 23 5 23C4.73478 23 4.48043 22.8946 4.29289 22.7071C4.10536 22.5196 4 22.2652 4 22V7C4 6.73478 4.10536 6.48043 4.29289 6.29289C4.48043 6.10536 4.73478 6 5 6C5.26522 6 5.51957 6.10536 5.70711 6.29289C5.89464 6.48043 6 6.73478 6 7V13.5H17V7C17 6.73478 17.1054 6.48043 17.2929 6.29289C17.4804 6.10536 17.7348 6 18 6C18.2652 6 18.5196 6.10536 18.7071 6.29289C18.8946 6.48043 19 6.73478 19 7ZM30 24H26L30.2875 18.275L30.3125 18.2375C30.761 17.5776 31.0006 16.7979 31 16C31.0029 15.0753 30.6853 14.1781 30.1013 13.4612C29.5173 12.7442 28.7029 12.2517 27.7967 12.0676C26.8905 11.8834 25.9485 12.0188 25.131 12.4509C24.3134 12.883 23.6708 13.585 23.3125 14.4375C23.2081 14.6828 23.2054 14.9596 23.305 15.2069C23.4046 15.4542 23.5984 15.6518 23.8438 15.7563C24.0891 15.8607 24.3658 15.8634 24.6131 15.7637C24.8605 15.6641 25.0581 15.4703 25.1625 15.225C25.3133 14.862 25.5684 14.5518 25.8954 14.3338C26.2225 14.1158 26.6069 13.9996 27 14C27.3614 13.9992 27.7164 14.0963 28.027 14.281C28.3377 14.4658 28.5924 14.7313 28.7642 15.0493C28.9361 15.3672 29.0185 15.7259 29.0028 16.087C28.9871 16.448 28.8738 16.7981 28.675 17.1L23.2125 24.3875C23.0711 24.5599 22.9957 24.7771 23 25C23 25.2106 23.0664 25.4158 23.1899 25.5864C23.3133 25.7569 23.4875 25.8842 23.6875 25.95C23.788 25.9847 23.8937 26.0017 24 26H30C30.2652 26 30.5196 25.8946 30.7071 25.7071C30.8946 25.5196 31 25.2652 31 25C31 24.7348 30.8946 24.4804 30.7071 24.2929C30.5196 24.1054 30.2652 24 30 24Z" fill="#344054"/>
</svg>
