<svg width="32" height="32" viewBox="0 0 32 32" fill="none" xmlns="http://www.w3.org/2000/svg">
<path d="M28 16C28 16.2652 27.8947 16.5196 27.7071 16.7071C27.5196 16.8947 27.2652 17 27 17H15C14.7348 17 14.4804 16.8947 14.2929 16.7071C14.1054 16.5196 14 16.2652 14 16C14 15.7348 14.1054 15.4804 14.2929 15.2929C14.4804 15.1054 14.7348 15 15 15H27C27.2652 15 27.5196 15.1054 27.7071 15.2929C27.8947 15.4804 28 15.7348 28 16ZM15 9.00001H27C27.2652 9.00001 27.5196 8.89466 27.7071 8.70712C27.8947 8.51958 28 8.26523 28 8.00001C28 7.7348 27.8947 7.48044 27.7071 7.29291C27.5196 7.10537 27.2652 7.00001 27 7.00001H15C14.7348 7.00001 14.4804 7.10537 14.2929 7.29291C14.1054 7.48044 14 7.7348 14 8.00001C14 8.26523 14.1054 8.51958 14.2929 8.70712C14.4804 8.89466 14.7348 9.00001 15 9.00001ZM27 23H5.00001C4.73479 23 4.48044 23.1054 4.2929 23.2929C4.10537 23.4804 4.00001 23.7348 4.00001 24C4.00001 24.2652 4.10537 24.5196 4.2929 24.7071C4.48044 24.8947 4.73479 25 5.00001 25H27C27.2652 25 27.5196 24.8947 27.7071 24.7071C27.8947 24.5196 28 24.2652 28 24C28 23.7348 27.8947 23.4804 27.7071 23.2929C27.5196 23.1054 27.2652 23 27 23ZM9.00001 18C9.13273 17.9994 9.26416 17.974 9.38751 17.925C9.56951 17.8485 9.7248 17.7198 9.83379 17.5552C9.94279 17.3906 10.0006 17.1974 10 17V7.00001C10.0006 6.80259 9.94279 6.6094 9.83379 6.44479C9.7248 6.28018 9.56951 6.15151 9.38751 6.07501C9.2028 6.00297 9.00147 5.98469 8.8068 6.0223C8.61214 6.0599 8.4321 6.15185 8.28751 6.28751L3.28751 11.2875C3.09973 11.4771 2.99438 11.7332 2.99438 12C2.99438 12.2669 3.09973 12.5229 3.28751 12.7125L8.28751 17.7125C8.47947 17.896 8.73447 17.9989 9.00001 18Z" fill="#344054"/>
</svg>
