<svg width="32" height="32" viewBox="0 0 32 32" fill="none" xmlns="http://www.w3.org/2000/svg">
<path d="M28.925 11.375C28.8504 11.5594 28.7226 11.7173 28.5578 11.8286C28.3931 11.9399 28.1989 11.9996 28 12H24V18C24 18.2652 23.8946 18.5196 23.7071 18.7071C23.5196 18.8947 23.2652 19 23 19C22.7348 19 22.4804 18.8947 22.2929 18.7071C22.1054 18.5196 22 18.2652 22 18V12H18C17.8029 11.999 17.6105 11.9405 17.4461 11.8317C17.2818 11.7229 17.1529 11.5685 17.075 11.3875C17.003 11.2028 16.9847 11.0015 17.0223 10.8068C17.0599 10.6121 17.1518 10.4321 17.2875 10.2875L22.2875 5.28751C22.4771 5.09973 22.7332 4.99438 23 4.99438C23.2668 4.99438 23.5229 5.09973 23.7125 5.28751L28.7125 10.2875C28.8484 10.4294 28.9407 10.6073 28.9784 10.8001C29.016 10.9929 28.9975 11.1924 28.925 11.375ZM6 17H15C15.2652 17 15.5196 16.8947 15.7071 16.7071C15.8946 16.5196 16 16.2652 16 16C16 15.7348 15.8946 15.4804 15.7071 15.2929C15.5196 15.1054 15.2652 15 15 15H6C5.73478 15 5.48043 15.1054 5.29289 15.2929C5.10536 15.4804 5 15.7348 5 16C5 16.2652 5.10536 16.5196 5.29289 16.7071C5.48043 16.8947 5.73478 17 6 17ZM6 9.00001H13C13.2652 9.00001 13.5196 8.89465 13.7071 8.70712C13.8946 8.51958 14 8.26523 14 8.00001C14 7.73479 13.8946 7.48044 13.7071 7.2929C13.5196 7.10537 13.2652 7.00001 13 7.00001H6C5.73478 7.00001 5.48043 7.10537 5.29289 7.2929C5.10536 7.48044 5 7.73479 5 8.00001C5 8.26523 5.10536 8.51958 5.29289 8.70712C5.48043 8.89465 5.73478 9.00001 6 9.00001ZM23 23H6C5.73478 23 5.48043 23.1054 5.29289 23.2929C5.10536 23.4804 5 23.7348 5 24C5 24.2652 5.10536 24.5196 5.29289 24.7071C5.48043 24.8947 5.73478 25 6 25H23C23.2652 25 23.5196 24.8947 23.7071 24.7071C23.8946 24.5196 24 24.2652 24 24C24 23.7348 23.8946 23.4804 23.7071 23.2929C23.5196 23.1054 23.2652 23 23 23Z" fill="#344054"/>
</svg>
