<svg width="32" height="32" viewBox="0 0 32 32" fill="none" xmlns="http://www.w3.org/2000/svg">
<path d="M7.5 20H5.5C5.23478 20 4.98043 20.1054 4.79289 20.2929C4.60536 20.4804 4.5 20.7348 4.5 21V27C4.5 27.2652 4.60536 27.5196 4.79289 27.7071C4.98043 27.8946 5.23478 28 5.5 28C5.76522 28 6.01957 27.8946 6.20711 27.7071C6.39464 27.5196 6.5 27.2652 6.5 27V26H7.5C8.29565 26 9.05871 25.6839 9.62132 25.1213C10.1839 24.5587 10.5 23.7956 10.5 23C10.5 22.2044 10.1839 21.4413 9.62132 20.8787C9.05871 20.3161 8.29565 20 7.5 20ZM7.5 24H6.5V22H7.5C7.76522 22 8.01957 22.1054 8.20711 22.2929C8.39464 22.4804 8.5 22.7348 8.5 23C8.5 23.2652 8.39464 23.5196 8.20711 23.7071C8.01957 23.8946 7.76522 24 7.5 24ZM19 21V27C19 27.2106 18.9336 27.4158 18.8101 27.5864C18.6867 27.7569 18.5125 27.8842 18.3125 27.95C18.212 27.9847 18.1063 28.0017 18 28C17.8444 28.002 17.6906 27.9667 17.5514 27.8971C17.4123 27.8276 17.2918 27.7257 17.2 27.6L14.5 24V27C14.5 27.2652 14.3946 27.5196 14.2071 27.7071C14.0196 27.8946 13.7652 28 13.5 28C13.2348 28 12.9804 27.8946 12.7929 27.7071C12.6054 27.5196 12.5 27.2652 12.5 27V21C12.5 20.7894 12.5664 20.5842 12.6899 20.4136C12.8133 20.2431 12.9875 20.1158 13.1875 20.05C13.3861 19.9827 13.6009 19.9803 13.8009 20.0432C14.0009 20.1062 14.1757 20.2311 14.3 20.4L17 24V21C17 20.7348 17.1054 20.4804 17.2929 20.2929C17.4804 20.1054 17.7348 20 18 20C18.2652 20 18.5196 20.1054 18.7071 20.2929C18.8946 20.4804 19 20.7348 19 21ZM28 25.725C28.002 25.9166 27.9453 26.1041 27.8375 26.2625C27.511 26.7888 27.0567 27.2241 26.5169 27.5279C25.9772 27.8316 25.3694 27.994 24.75 28C22.6875 28 21 26.2 21 24C21 21.8 22.6875 20 24.75 20C25.4954 20.0016 26.2213 20.2377 26.825 20.675C27.0132 20.8374 27.1341 21.0641 27.1643 21.3109C27.1944 21.5576 27.1315 21.8068 26.9879 22.0097C26.8443 22.2126 26.6303 22.3548 26.3875 22.4085C26.1448 22.4621 25.8908 22.4235 25.675 22.3C25.406 22.1049 25.0823 21.9999 24.75 22C23.7875 22 23 22.9 23 24C23 25.1 23.7875 26 24.75 26C24.9893 25.9958 25.2248 25.9401 25.4405 25.8365C25.6563 25.733 25.8471 25.5841 26 25.4V25.25H25.5C25.2348 25.25 24.9804 25.1446 24.7929 24.9571C24.6054 24.7696 24.5 24.5152 24.5 24.25C24.5 23.9848 24.6054 23.7304 24.7929 23.5429C24.9804 23.3554 25.2348 23.25 25.5 23.25H27C27.2652 23.25 27.5196 23.3554 27.7071 23.5429C27.8946 23.7304 28 23.9848 28 24.25V25.725ZM6 17H26C26.2652 17 26.5196 16.8946 26.7071 16.7071C26.8946 16.5196 27 16.2652 27 16V11C27.0015 10.734 26.8982 10.478 26.7125 10.2875L19.7125 3.2875C19.522 3.10178 19.266 2.9985 19 3H7C6.46957 3 5.96086 3.21071 5.58579 3.58579C5.21071 3.96086 5 4.46957 5 5V16C5 16.2652 5.10536 16.5196 5.29289 16.7071C5.48043 16.8946 5.73478 17 6 17ZM19 5.5L24.5 11H19V5.5Z" fill="#344054"/>
</svg>
