<svg width="32" height="32" viewBox="0 0 32 32" fill="none" xmlns="http://www.w3.org/2000/svg">
<path d="M27.425 21.3875L24.925 27.3875C24.8497 27.5709 24.7215 27.7278 24.5568 27.8382C24.3921 27.9486 24.1983 28.0075 24 28.0075C23.8017 28.0075 23.6079 27.9486 23.4432 27.8382C23.2785 27.7278 23.1503 27.5709 23.075 27.3875L20.575 21.3875C20.5241 21.266 20.4977 21.1357 20.4971 21.004C20.4966 20.8723 20.522 20.7418 20.5719 20.6199C20.6218 20.4981 20.6953 20.3872 20.788 20.2937C20.8808 20.2002 20.991 20.1259 21.1125 20.075C21.234 20.0241 21.3643 19.9977 21.496 19.9971C21.6277 19.9966 21.7582 20.022 21.8801 20.0719C22.0019 20.1218 22.1128 20.1953 22.2063 20.288C22.2998 20.3808 22.3741 20.491 22.425 20.6125L24 24.4L25.575 20.6125C25.6259 20.491 25.7002 20.3808 25.7937 20.288C25.8872 20.1953 25.9981 20.1218 26.1199 20.0719C26.2418 20.022 26.3723 19.9966 26.504 19.9971C26.6357 19.9977 26.766 20.0241 26.8875 20.075C27.009 20.1259 27.1192 20.2002 27.212 20.2937C27.3047 20.3872 27.3782 20.4981 27.4281 20.6199C27.478 20.7418 27.5034 20.8723 27.5029 21.004C27.5023 21.1357 27.4759 21.266 27.425 21.3875ZM8.25 22C8.64854 22.0039 9.0315 22.1553 9.325 22.425C9.42188 22.5144 9.53568 22.5835 9.6597 22.6282C9.78371 22.673 9.91542 22.6924 10.0471 22.6854C10.1787 22.6784 10.3076 22.6451 10.4262 22.5875C10.5448 22.5299 10.6506 22.4492 10.7375 22.35C10.9165 22.1544 11.0104 21.8957 10.9987 21.6308C10.987 21.3659 10.8705 21.1166 10.675 20.9375C10.0085 20.339 9.14578 20.0054 8.25 20C6.1875 20 4.5 21.8 4.5 24C4.5 26.2 6.1875 28 8.25 28C9.14578 27.9946 10.0085 27.661 10.675 27.0625C10.8705 26.8834 10.987 26.6341 10.9987 26.3692C11.0104 26.1043 10.9165 25.8456 10.7375 25.65C10.6506 25.5508 10.5448 25.4701 10.4262 25.4125C10.3076 25.3549 10.1787 25.3216 10.0471 25.3146C9.91542 25.3076 9.78371 25.327 9.6597 25.3718C9.53568 25.4165 9.42188 25.4856 9.325 25.575C9.0315 25.8447 8.64854 25.9961 8.25 26C7.2875 26 6.5 25.1 6.5 24C6.5 22.9 7.2875 22 8.25 22ZM16.2125 22.975C15.825 22.875 15.1375 22.6875 15 22.525V22.5C15 22.0875 15.3 21.875 15.875 21.875C16.3217 21.8841 16.756 22.0231 17.125 22.275H17.1125C17.2939 22.4191 17.5183 22.4983 17.75 22.5C18.0152 22.5 18.2696 22.3946 18.4571 22.2071C18.6446 22.0196 18.75 21.7652 18.75 21.5C18.7524 21.3536 18.721 21.2085 18.6581 21.0763C18.5952 20.944 18.5026 20.8281 18.3875 20.7375C17.6662 20.1841 16.7841 19.8813 15.875 19.875C14.1875 19.875 13 20.95 13 22.5C13 24.05 14.625 24.625 15.7 24.9125C16.125 25.025 16.575 25.1375 16.85 25.3C17.125 25.4625 17 25.425 17 25.5C17 25.575 17 26.125 15.875 26.125C15.4283 26.1159 14.994 25.9769 14.625 25.725H14.6375C14.4561 25.5809 14.2317 25.5017 14 25.5C13.7348 25.5 13.4804 25.6054 13.2929 25.7929C13.1054 25.9804 13 26.2348 13 26.5C12.9976 26.6464 13.029 26.7915 13.0919 26.9237C13.1548 27.056 13.2474 27.1719 13.3625 27.2625C14.0838 27.8159 14.9659 28.1187 15.875 28.125C17.8375 28.125 19 27.1375 19 25.5C19 23.8625 17.25 23.25 16.2125 22.975ZM5 16V5C5 4.46957 5.21071 3.96086 5.58579 3.58579C5.96086 3.21071 6.46957 3 7 3H19C19.266 2.9985 19.522 3.10178 19.7125 3.2875L26.7125 10.2875C26.8982 10.478 27.0015 10.734 27 11V16C27 16.2652 26.8946 16.5196 26.7071 16.7071C26.5196 16.8946 26.2652 17 26 17H6C5.73478 17 5.48043 16.8946 5.29289 16.7071C5.10536 16.5196 5 16.2652 5 16ZM19 11H24.5L19 5.5V11Z" fill="#344054"/>
</svg>
