<svg width="32" height="32" viewBox="0 0 32 32" fill="none" xmlns="http://www.w3.org/2000/svg">
<path d="M28 16C28 16.2652 27.8946 16.5196 27.7071 16.7071C27.5196 16.8947 27.2652 17 27 17H15C14.7348 17 14.4804 16.8947 14.2929 16.7071C14.1054 16.5196 14 16.2652 14 16C14 15.7348 14.1054 15.4804 14.2929 15.2929C14.4804 15.1054 14.7348 15 15 15H27C27.2652 15 27.5196 15.1054 27.7071 15.2929C27.8946 15.4804 28 15.7348 28 16ZM15 9.00001H27C27.2652 9.00001 27.5196 8.89466 27.7071 8.70712C27.8946 8.51958 28 8.26523 28 8.00001C28 7.7348 27.8946 7.48044 27.7071 7.29291C27.5196 7.10537 27.2652 7.00001 27 7.00001H15C14.7348 7.00001 14.4804 7.10537 14.2929 7.29291C14.1054 7.48044 14 7.7348 14 8.00001C14 8.26523 14.1054 8.51958 14.2929 8.70712C14.4804 8.89466 14.7348 9.00001 15 9.00001ZM27 23H5C4.73479 23 4.48043 23.1054 4.2929 23.2929C4.10536 23.4804 4 23.7348 4 24C4 24.2652 4.10536 24.5196 4.2929 24.7071C4.48043 24.8947 4.73479 25 5 25H27C27.2652 25 27.5196 24.8947 27.7071 24.7071C27.8946 24.5196 28 24.2652 28 24C28 23.7348 27.8946 23.4804 27.7071 23.2929C27.5196 23.1054 27.2652 23 27 23ZM4.61251 17.925C4.73585 17.974 4.86729 17.9994 5 18C5.26555 17.9989 5.52055 17.896 5.7125 17.7125L10.7125 12.7125C10.9003 12.5229 11.0056 12.2669 11.0056 12C11.0056 11.7332 10.9003 11.4771 10.7125 11.2875L5.7125 6.28751C5.56792 6.15185 5.38788 6.0599 5.19321 6.0223C4.99855 5.98469 4.79722 6.00297 4.61251 6.07501C4.4305 6.15151 4.27522 6.28018 4.16622 6.44479C4.05722 6.6094 3.99939 6.80259 4 7.00001V17C3.99939 17.1974 4.05722 17.3906 4.16622 17.5552C4.27522 17.7198 4.4305 17.8485 4.61251 17.925Z" fill="#344054"/>
</svg>
