<svg width="32" height="32" viewBox="0 0 32 32" fill="none" xmlns="http://www.w3.org/2000/svg">
<path d="M10 21V25C10 25.7956 9.68393 26.5587 9.12132 27.1213C8.55871 27.6839 7.79565 28 7 28C6.20435 28 5.44129 27.6839 4.87868 27.1213C4.31607 26.5587 4 25.7956 4 25C4 24.7348 4.10536 24.4804 4.29289 24.2929C4.48043 24.1054 4.73478 24 5 24C5.26522 24 5.51957 24.1054 5.70711 24.2929C5.89464 24.4804 6 24.7348 6 25C6 25.2652 6.10536 25.5196 6.29289 25.7071C6.48043 25.8946 6.73478 26 7 26C7.26522 26 7.51957 25.8946 7.70711 25.7071C7.89464 25.5196 8 25.2652 8 25V21C8 20.7348 8.10536 20.4804 8.29289 20.2929C8.48043 20.1054 8.73478 20 9 20C9.26522 20 9.51957 20.1054 9.70711 20.2929C9.89464 20.4804 10 20.7348 10 21ZM15.2125 22.975C14.825 22.875 14.1375 22.6875 14 22.525V22.5C14 22.0875 14.3 21.875 14.875 21.875C15.3217 21.8841 15.756 22.0231 16.125 22.275H16.1125C16.2939 22.4191 16.5183 22.4983 16.75 22.5C17.0152 22.5 17.2696 22.3946 17.4571 22.2071C17.6446 22.0196 17.75 21.7652 17.75 21.5C17.7524 21.3536 17.721 21.2085 17.6581 21.0763C17.5952 20.944 17.5026 20.8281 17.3875 20.7375C16.6662 20.1841 15.7841 19.8813 14.875 19.875C13.1875 19.875 12 20.95 12 22.5C12 24.05 13.625 24.625 14.7 24.9125C15.125 25.025 15.575 25.1375 15.85 25.3C16.125 25.4625 16 25.425 16 25.5C16 25.575 16 26.125 14.875 26.125C14.4283 26.1159 13.994 25.9769 13.625 25.725H13.6375C13.4561 25.5809 13.2317 25.5017 13 25.5C12.7348 25.5 12.4804 25.6054 12.2929 25.7929C12.1054 25.9804 12 26.2348 12 26.5C11.9976 26.6464 12.029 26.7915 12.0919 26.9237C12.1548 27.056 12.2474 27.1719 12.3625 27.2625C13.0838 27.8159 13.9659 28.1187 14.875 28.125C16.8375 28.125 18 27.1375 18 25.5C18 23.8625 16.25 23.25 15.2125 22.975ZM25.6 20.2C25.3878 20.0409 25.1211 19.9725 24.8586 20.01C24.596 20.0476 24.3591 20.1878 24.2 20.4L22.75 22.3375L21.3 20.4C21.2212 20.2949 21.1225 20.2064 21.0095 20.1395C20.8965 20.0726 20.7714 20.0286 20.6414 20.01C20.5114 19.9915 20.379 19.9987 20.2518 20.0313C20.1246 20.0639 20.0051 20.1212 19.9 20.2C19.7949 20.2788 19.7064 20.3775 19.6395 20.4905C19.5726 20.6035 19.5286 20.7286 19.51 20.8586C19.4915 20.9886 19.4987 21.121 19.5313 21.2482C19.5639 21.3754 19.6212 21.4949 19.7 21.6L21.5 24L19.7 26.4C19.6212 26.5051 19.5639 26.6246 19.5313 26.7518C19.4987 26.879 19.4915 27.0114 19.51 27.1414C19.5286 27.2714 19.5726 27.3965 19.6395 27.5095C19.7064 27.6225 19.7949 27.7212 19.9 27.8C20.0718 27.9323 20.2832 28.0028 20.5 28C20.6552 28 20.8084 27.9639 20.9472 27.8944C21.0861 27.825 21.2069 27.7242 21.3 27.6L22.75 25.6625L24.2 27.6C24.2931 27.7242 24.4139 27.825 24.5528 27.8944C24.6916 27.9639 24.8448 28 25 28C25.2168 28.0028 25.4282 27.9323 25.6 27.8C25.7051 27.7212 25.7936 27.6225 25.8605 27.5095C25.9274 27.3965 25.9714 27.2714 25.99 27.1414C26.0085 27.0114 26.0013 26.879 25.9687 26.7518C25.9361 26.6246 25.8788 26.5051 25.8 26.4L24 24L25.8 21.6C25.8788 21.4949 25.9361 21.3754 25.9687 21.2482C26.0013 21.121 26.0085 20.9886 25.99 20.8586C25.9714 20.7286 25.9274 20.6035 25.8605 20.4905C25.7936 20.3775 25.7051 20.2788 25.6 20.2ZM27 11V16C27 16.2652 26.8946 16.5196 26.7071 16.7071C26.5196 16.8946 26.2652 17 26 17H6C5.73478 17 5.48043 16.8946 5.29289 16.7071C5.10536 16.5196 5 16.2652 5 16V5C5 4.46957 5.21071 3.96086 5.58579 3.58579C5.96086 3.21071 6.46957 3 7 3H19C19.266 2.9985 19.522 3.10178 19.7125 3.2875L26.7125 10.2875C26.8982 10.478 27.0015 10.734 27 11ZM24.5 11L19 5.5V11H24.5Z" fill="#344054"/>
</svg>
