<svg width="32" height="32" viewBox="0 0 32 32" fill="none" xmlns="http://www.w3.org/2000/svg">
<path d="M21.3126 14.4625C22.1026 13.702 22.6473 12.7228 22.8767 11.6504C23.106 10.5781 23.0096 9.46172 22.5998 8.4446C22.19 7.42747 21.4855 6.55607 20.5768 5.94229C19.6681 5.32851 18.5967 5.00037 17.5001 5.00002H8.00008C7.86829 4.99834 7.7375 5.02306 7.61542 5.07272C7.49333 5.12238 7.38243 5.19598 7.28923 5.28917C7.19604 5.38237 7.12244 5.49327 7.07278 5.61536C7.02312 5.73744 6.9984 5.86823 7.00008 6.00002V25C7.00008 25.2652 7.10544 25.5196 7.29297 25.7071C7.48051 25.8947 7.73486 26 8.00008 26H19.0001C20.3871 26.0006 21.7315 25.5206 22.8046 24.6417C23.8776 23.7627 24.613 22.5392 24.8856 21.1792C25.1582 19.8192 24.9511 18.4067 24.2997 17.1822C23.6483 15.9576 22.5927 14.9965 21.3126 14.4625ZM9.00008 7.00002H17.5001C18.4283 7.00002 19.3186 7.36877 19.975 8.02515C20.6313 8.68152 21.0001 9.57176 21.0001 10.5C21.0001 11.4283 20.6313 12.3185 19.975 12.9749C19.3186 13.6313 18.4283 14 17.5001 14H9.00008V7.00002ZM19.0001 24H9.00008V16H19.0001C20.0609 16 21.0784 16.4214 21.8285 17.1716C22.5787 17.9217 23.0001 18.9392 23.0001 20C23.0001 21.0609 22.5787 22.0783 21.8285 22.8284C21.0784 23.5786 20.0609 24 19.0001 24Z" fill="#344054"/>
</svg>
