<svg width="32" height="32" viewBox="0 0 32 32" fill="none" xmlns="http://www.w3.org/2000/svg">
<path d="M27 9H16.4125L13 5.5875C12.6249 5.21337 12.1173 5.00227 11.5875 5H5C4.46957 5 3.96086 5.21071 3.58579 5.58579C3.21071 5.96086 3 6.46957 3 7V25.075C3 25.5855 3.20281 26.0752 3.56382 26.4362C3.92483 26.7972 4.41446 27 4.925 27H27.1125C27.6121 26.9967 28.0903 26.7968 28.4435 26.4435C28.7968 26.0903 28.9967 25.6121 29 25.1125V11C29 10.4696 28.7893 9.96086 28.4142 9.58579C28.0391 9.21071 27.5304 9 27 9ZM5 7H11.5875L13.5875 9H5V7Z" fill="#344054"/>
</svg>
