<svg width="32" height="32" viewBox="0 0 32 32" fill="none" xmlns="http://www.w3.org/2000/svg">
<path d="M30.2375 13.825C30.0499 13.5701 29.8053 13.3626 29.5231 13.2194C29.2408 13.0761 28.929 13.001 28.6125 13H27V11C27 10.4696 26.7893 9.96085 26.4142 9.58578C26.0391 9.21071 25.5304 9 25 9H16.3375L12.8625 6.4C12.5181 6.13703 12.0958 5.99629 11.6625 6H5C4.46957 6 3.96086 6.21071 3.58579 6.58578C3.21071 6.96085 3 7.46956 3 8V26C3.00204 26.2006 3.06288 26.3962 3.175 26.5625C3.26575 26.6978 3.38857 26.8086 3.53252 26.8849C3.67647 26.9613 3.83707 27.0008 4 27H26C26.2106 27 26.4158 26.9336 26.5864 26.8101C26.7569 26.6867 26.8842 26.5125 26.95 26.3125L30.5125 15.6375C30.6115 15.3349 30.6381 15.0133 30.5904 14.6986C30.5426 14.3838 30.4218 14.0846 30.2375 13.825ZM11.6625 8L15.1375 10.6C15.4819 10.863 15.9042 11.0037 16.3375 11H25V13H18.3C17.9039 12.9999 17.5167 13.1173 17.1875 13.3375L14.7 15H8.675C8.27467 14.9966 7.88289 15.1158 7.55221 15.3414C7.22153 15.5671 6.96778 15.8885 6.825 16.2625L5 20.8125V8H11.6625Z" fill="#344054"/>
</svg>
