<svg width="32" height="32" viewBox="0 0 32 32" fill="none" xmlns="http://www.w3.org/2000/svg">
<path d="M16.2125 22.975C15.825 22.875 15.1375 22.6875 15 22.525V22.5C15 22.0875 15.3 21.875 15.875 21.875C16.3217 21.8841 16.756 22.0231 17.125 22.275H17.1125C17.2939 22.4191 17.5183 22.4983 17.75 22.5C18.0152 22.5 18.2696 22.3946 18.4571 22.2071C18.6446 22.0196 18.75 21.7652 18.75 21.5C18.7524 21.3536 18.721 21.2085 18.6581 21.0763C18.5952 20.944 18.5026 20.8281 18.3875 20.7375C17.6662 20.1841 16.7841 19.8813 15.875 19.875C14.1875 19.875 13 20.95 13 22.5C13 24.05 14.625 24.625 15.7 24.9125C16.125 25.025 16.575 25.1375 16.85 25.3C17.125 25.4625 17 25.425 17 25.5C17 25.575 17 26.125 15.875 26.125C15.4283 26.1159 14.994 25.9769 14.625 25.725H14.6375C14.4561 25.5809 14.2317 25.5017 14 25.5C13.7348 25.5 13.4804 25.6054 13.2929 25.7929C13.1054 25.9804 13 26.2348 13 26.5C12.9976 26.6464 13.029 26.7915 13.0919 26.9237C13.1548 27.056 13.2474 27.1719 13.3625 27.2625C14.0838 27.8159 14.9659 28.1187 15.875 28.125C17.8375 28.125 19 27.1375 19 25.5C19 23.8625 17.25 23.25 16.2125 22.975ZM6.5 24C6.5 25.1 7.2875 26 8.25 26C8.64854 25.9961 9.0315 25.8447 9.325 25.575C9.42188 25.4856 9.53568 25.4165 9.6597 25.3718C9.78371 25.327 9.91542 25.3076 10.0471 25.3146C10.1787 25.3216 10.3076 25.3549 10.4262 25.4125C10.5448 25.4701 10.6506 25.5508 10.7375 25.65C10.9165 25.8456 11.0104 26.1043 10.9987 26.3692C10.987 26.6341 10.8705 26.8834 10.675 27.0625C10.0085 27.661 9.14578 27.9946 8.25 28C6.1875 28 4.5 26.2 4.5 24C4.5 21.8 6.1875 20 8.25 20C9.14578 20.0054 10.0085 20.339 10.675 20.9375C10.8705 21.1166 10.987 21.3659 10.9987 21.6308C11.0104 21.8957 10.9165 22.1544 10.7375 22.35C10.6506 22.4492 10.5448 22.5299 10.4262 22.5875C10.3076 22.6451 10.1787 22.6784 10.0471 22.6854C9.91542 22.6924 9.78371 22.673 9.6597 22.6282C9.53568 22.5835 9.42188 22.5144 9.325 22.425C9.0315 22.1553 8.64854 22.0039 8.25 22C7.2875 22 6.5 22.9 6.5 24ZM24.2125 22.975C23.825 22.875 23.1375 22.6875 23 22.525V22.5C23 22.0875 23.3 21.875 23.875 21.875C24.3217 21.8841 24.756 22.0231 25.125 22.275H25.1125C25.2939 22.4191 25.5183 22.4983 25.75 22.5C26.0152 22.5 26.2696 22.3946 26.4571 22.2071C26.6446 22.0196 26.75 21.7652 26.75 21.5C26.7524 21.3536 26.721 21.2085 26.6581 21.0763C26.5952 20.944 26.5026 20.8281 26.3875 20.7375C25.6662 20.1841 24.7841 19.8813 23.875 19.875C22.1875 19.875 21 20.95 21 22.5C21 24.05 22.625 24.625 23.7 24.9125C24.125 25.025 24.575 25.1375 24.85 25.3C25.125 25.4625 25 25.425 25 25.5C25 25.575 25 26.125 23.875 26.125C23.4283 26.1159 22.994 25.9769 22.625 25.725H22.6375C22.4561 25.5809 22.2317 25.5017 22 25.5C21.7348 25.5 21.4804 25.6054 21.2929 25.7929C21.1054 25.9804 21 26.2348 21 26.5C20.9976 26.6464 21.029 26.7915 21.0919 26.9237C21.1548 27.056 21.2474 27.1719 21.3625 27.2625C22.0838 27.8159 22.9659 28.1187 23.875 28.125C25.8375 28.125 27 27.1375 27 25.5C27 23.8625 25.25 23.25 24.2125 22.975ZM26.7125 10.2875L19.7125 3.2875C19.522 3.10178 19.266 2.9985 19 3H7C6.46957 3 5.96086 3.21071 5.58579 3.58579C5.21071 3.96086 5 4.46957 5 5V16C5 16.2652 5.10536 16.5196 5.29289 16.7071C5.48043 16.8946 5.73478 17 6 17H26C26.2652 17 26.5196 16.8946 26.7071 16.7071C26.8946 16.5196 27 16.2652 27 16V11C27.0015 10.734 26.8982 10.478 26.7125 10.2875ZM19 11V5.5L24.5 11H19Z" fill="#344054"/>
</svg>
