<svg width="32" height="32" viewBox="0 0 32 32" fill="none" xmlns="http://www.w3.org/2000/svg">
<path d="M19 7V22C19 22.2652 18.8946 22.5196 18.7071 22.7071C18.5196 22.8946 18.2652 23 18 23C17.7348 23 17.4804 22.8946 17.2929 22.7071C17.1054 22.5196 17 22.2652 17 22V15.5H6V22C6 22.2652 5.89464 22.5196 5.70711 22.7071C5.51957 22.8946 5.26522 23 5 23C4.73478 23 4.48043 22.8946 4.29289 22.7071C4.10536 22.5196 4 22.2652 4 22V7C4 6.73478 4.10536 6.48043 4.29289 6.29289C4.48043 6.10536 4.73478 6 5 6C5.26522 6 5.51957 6.10536 5.70711 6.29289C5.89464 6.48043 6 6.73478 6 7V13.5H17V7C17 6.73478 17.1054 6.48043 17.2929 6.29289C17.4804 6.10536 17.7348 6 18 6C18.2652 6 18.5196 6.10536 18.7071 6.29289C18.8946 6.48043 19 6.73478 19 7ZM29.6875 18.8125C29.255 18.3907 28.7459 18.0555 28.1875 17.825L30.825 14.075C30.9295 13.9244 30.9906 13.748 31.0016 13.565C31.0127 13.382 30.9732 13.1996 30.8875 13.0375C30.8018 12.8762 30.6741 12.7411 30.5178 12.6464C30.3616 12.5518 30.1827 12.5012 30 12.5H24C23.7348 12.5 23.4804 12.6054 23.2929 12.7929C23.1054 12.9804 23 13.2348 23 13.5C23 13.7652 23.1054 14.0196 23.2929 14.2071C23.4804 14.3946 23.7348 14.5 24 14.5H28.075L25.675 17.925C25.5705 18.0756 25.5094 18.252 25.4984 18.435C25.4873 18.618 25.5268 18.8004 25.6125 18.9625C25.6982 19.1238 25.8259 19.2589 25.9822 19.3536C26.1384 19.4482 26.3173 19.4988 26.5 19.5C26.9119 19.4983 27.3178 19.5983 27.6817 19.7913C28.0456 19.9843 28.3562 20.2641 28.5858 20.6061C28.8155 20.948 28.9571 21.3413 28.9981 21.7512C29.0391 22.161 28.9782 22.5746 28.8208 22.9553C28.6634 23.3359 28.4144 23.6717 28.0959 23.9329C27.7775 24.1942 27.3994 24.3726 26.9953 24.4525C26.5913 24.5324 26.1737 24.5112 25.7798 24.3908C25.3859 24.2704 25.0279 24.0546 24.7375 23.7625C24.5432 23.603 24.2965 23.5215 24.0455 23.5339C23.7944 23.5462 23.5569 23.6515 23.3792 23.8292C23.2015 24.0069 23.0962 24.2444 23.0839 24.4955C23.0715 24.7465 23.153 24.9932 23.3125 25.1875C24.1702 25.9703 25.2965 26.3923 26.4574 26.3658C27.6183 26.3393 28.7242 25.8664 29.5453 25.0453C30.3664 24.2242 30.8393 23.1183 30.8658 21.9574C30.8923 20.7965 30.4703 19.6702 29.6875 18.8125Z" fill="#344054"/>
</svg>
