<svg width="32" height="32" viewBox="0 0 32 32" fill="none" xmlns="http://www.w3.org/2000/svg">
<path d="M28 19.5H27V19C27 18.0717 26.6313 17.1815 25.9749 16.5251C25.3185 15.8687 24.4283 15.5 23.5 15.5C22.5717 15.5 21.6815 15.8687 21.0251 16.5251C20.3687 17.1815 20 18.0717 20 19V19.5H19C18.7348 19.5 18.4804 19.6054 18.2929 19.7929C18.1054 19.9804 18 20.2348 18 20.5V26C18 26.2652 18.1054 26.5196 18.2929 26.7071C18.4804 26.8946 18.7348 27 19 27H28C28.2652 27 28.5196 26.8946 28.7071 26.7071C28.8946 26.5196 29 26.2652 29 26V20.5C29 20.2348 28.8946 19.9804 28.7071 19.7929C28.5196 19.6054 28.2652 19.5 28 19.5ZM22 19C22 18.6022 22.158 18.2206 22.4393 17.9393C22.7206 17.658 23.1022 17.5 23.5 17.5C23.8978 17.5 24.2794 17.658 24.5607 17.9393C24.842 18.2206 25 18.6022 25 19V19.5H22V19ZM27 9H16.4125L13 5.5875C12.815 5.40112 12.595 5.25324 12.3525 5.1524C12.1101 5.05157 11.8501 4.99977 11.5875 5H5C4.46957 5 3.96086 5.21071 3.58579 5.58579C3.21071 5.96086 3 6.46957 3 7V25.075C3 25.5855 3.20281 26.0752 3.56382 26.4362C3.92483 26.7972 4.41446 27 4.925 27H14.075C14.3402 27 14.5946 26.8946 14.7821 26.7071C14.9696 26.5196 15.075 26.2652 15.075 26C15.075 25.7348 14.9696 25.4804 14.7821 25.2929C14.5946 25.1054 14.3402 25 14.075 25H5V11H27V13C27 13.2652 27.1054 13.5196 27.2929 13.7071C27.4804 13.8946 27.7348 14 28 14C28.2652 14 28.5196 13.8946 28.7071 13.7071C28.8946 13.5196 29 13.2652 29 13V11C29 10.4696 28.7893 9.96086 28.4142 9.58579C28.0391 9.21071 27.5304 9 27 9ZM11.5875 7L13.5875 9H5V7H11.5875Z" fill="#344054"/>
</svg>
