<svg width="32" height="32" viewBox="0 0 32 32" fill="none" xmlns="http://www.w3.org/2000/svg">
<path d="M28 8.00001H19.3375L15.8625 5.40001C15.5181 5.13704 15.0958 4.9963 14.6625 5.00001H9C8.46957 5.00001 7.96086 5.21072 7.58579 5.5858C7.21071 5.96087 7 6.46958 7 7.00001V9.00001H5C4.46957 9.00001 3.96086 9.21072 3.58579 9.5858C3.21071 9.96087 3 10.4696 3 11V25C3 25.5304 3.21071 26.0392 3.58579 26.4142C3.96086 26.7893 4.46957 27 5 27H24.1125C24.6121 26.9967 25.0903 26.7968 25.4435 26.4436C25.7968 26.0903 25.9967 25.6121 26 25.1125V23H28.1125C28.6121 22.9967 29.0903 22.7968 29.4435 22.4436C29.7968 22.0903 29.9967 21.6121 30 21.1125V10C30 9.46958 29.7893 8.96087 29.4142 8.5858C29.0391 8.21072 28.5304 8.00001 28 8.00001ZM28 21H26V14C26 13.4696 25.7893 12.9609 25.4142 12.5858C25.0391 12.2107 24.5304 12 24 12H15.3375L11.8625 9.40001C11.5181 9.13704 11.0958 8.9963 10.6625 9.00001H9V7.00001H14.6625L18.1375 9.60001C18.4819 9.86298 18.9042 10.0037 19.3375 10H28V21Z" fill="#344054"/>
</svg>
