<svg width="32" height="32" viewBox="0 0 32 32" fill="none" xmlns="http://www.w3.org/2000/svg">
<path d="M11.8 21.6L10 24L11.8 26.4C11.9591 26.6122 12.0275 26.8789 11.9899 27.1414C11.9524 27.404 11.8122 27.6409 11.6 27.8C11.4282 27.9323 11.2168 28.0028 11 28C10.8448 28 10.6916 27.9639 10.5528 27.8944C10.4139 27.825 10.2931 27.7242 10.2 27.6L8.75 25.6625L7.3 27.6C7.20685 27.7242 7.08607 27.825 6.94721 27.8944C6.80836 27.9639 6.65525 28 6.5 28C6.28318 28.0028 6.07176 27.9323 5.9 27.8C5.68783 27.6409 5.54756 27.404 5.51005 27.1414C5.47254 26.8789 5.54087 26.6122 5.7 26.4L7.5 24L5.7 21.6C5.62121 21.4949 5.56388 21.3754 5.53129 21.2482C5.49869 21.121 5.49148 20.9886 5.51005 20.8586C5.52862 20.7286 5.57262 20.6035 5.63953 20.4905C5.70643 20.3775 5.79494 20.2788 5.9 20.2C6.00506 20.1212 6.12461 20.0639 6.25182 20.0313C6.37903 19.9987 6.51142 19.9915 6.64142 20.01C6.77142 20.0286 6.89649 20.0726 7.00949 20.1395C7.12249 20.2064 7.22121 20.2949 7.3 20.4L8.75 22.3375L10.2 20.4C10.3591 20.1878 10.596 20.0476 10.8586 20.01C11.1211 19.9725 11.3878 20.0409 11.6 20.2C11.8122 20.3591 11.9524 20.596 11.9899 20.8586C12.0275 21.1211 11.9591 21.3878 11.8 21.6ZM18.5 26H16V21C16 20.7348 15.8946 20.4804 15.7071 20.2929C15.5196 20.1054 15.2652 20 15 20C14.7348 20 14.4804 20.1054 14.2929 20.2929C14.1054 20.4804 14 20.7348 14 21V27C14 27.2652 14.1054 27.5196 14.2929 27.7071C14.4804 27.8946 14.7348 28 15 28H18.5C18.7652 28 19.0196 27.8946 19.2071 27.7071C19.3946 27.5196 19.5 27.2652 19.5 27C19.5 26.7348 19.3946 26.4804 19.2071 26.2929C19.0196 26.1054 18.7652 26 18.5 26ZM24.2125 22.975C23.825 22.875 23.1375 22.6875 23 22.525V22.5C23 22.0875 23.3 21.875 23.875 21.875C24.3217 21.8841 24.756 22.0231 25.125 22.275H25.1125C25.2939 22.4191 25.5183 22.4983 25.75 22.5C26.0152 22.5 26.2696 22.3946 26.4571 22.2071C26.6446 22.0196 26.75 21.7652 26.75 21.5C26.7524 21.3536 26.721 21.2085 26.6581 21.0763C26.5952 20.944 26.5026 20.8281 26.3875 20.7375C25.6662 20.1841 24.7841 19.8813 23.875 19.875C22.1875 19.875 21 20.95 21 22.5C21 24.05 22.625 24.625 23.7 24.9125C24.125 25.025 24.575 25.1375 24.85 25.3C25.125 25.4625 25 25.425 25 25.5C25 25.575 25 26.125 23.875 26.125C23.4283 26.1159 22.994 25.9769 22.625 25.725H22.6375C22.4561 25.5809 22.2317 25.5017 22 25.5C21.7348 25.5 21.4804 25.6054 21.2929 25.7929C21.1054 25.9804 21 26.2348 21 26.5C20.9976 26.6464 21.029 26.7915 21.0919 26.9237C21.1548 27.056 21.2474 27.1719 21.3625 27.2625C22.0838 27.8159 22.9659 28.1187 23.875 28.125C25.8375 28.125 27 27.1375 27 25.5C27 23.8625 25.25 23.25 24.2125 22.975ZM27 11V16C27 16.2652 26.8946 16.5196 26.7071 16.7071C26.5196 16.8946 26.2652 17 26 17H6C5.73478 17 5.48043 16.8946 5.29289 16.7071C5.10536 16.5196 5 16.2652 5 16V5C5 4.46957 5.21071 3.96086 5.58579 3.58579C5.96086 3.21071 6.46957 3 7 3H19C19.266 2.9985 19.522 3.10178 19.7125 3.2875L26.7125 10.2875C26.8982 10.478 27.0015 10.734 27 11ZM24.5 11L19 5.5V11H24.5Z" fill="#344054"/>
</svg>
