<svg width="32" height="32" viewBox="0 0 32 32" fill="none" xmlns="http://www.w3.org/2000/svg">
<path d="M25 3.99999H20.4625C19.902 3.37043 19.2146 2.8666 18.4454 2.5216C17.6763 2.1766 16.8429 1.99825 16 1.99825C15.1571 1.99825 14.3237 2.1766 13.5546 2.5216C12.7854 2.8666 12.098 3.37043 11.5375 3.99999H7C6.46957 3.99999 5.96086 4.21071 5.58579 4.58578C5.21071 4.96085 5 5.46956 5 5.99999V27C5 27.5304 5.21071 28.0391 5.58579 28.4142C5.96086 28.7893 6.46957 29 7 29H25C25.5304 29 26.0391 28.7893 26.4142 28.4142C26.7893 28.0391 27 27.5304 27 27V5.99999C27 5.46956 26.7893 4.96085 26.4142 4.58578C26.0391 4.21071 25.5304 3.99999 25 3.99999ZM16 3.99999C17.0599 4.00329 18.0754 4.42578 18.8248 5.17521C19.5742 5.92464 19.9967 6.94014 20 7.99999H12C12.0033 6.94014 12.4258 5.92464 13.1752 5.17521C13.9246 4.42578 14.9401 4.00329 16 3.99999Z" fill="#344054"/>
</svg>
