<svg width="32" height="32" viewBox="0 0 32 32" fill="none" xmlns="http://www.w3.org/2000/svg">
<path d="M17.2375 18.525L10.8875 6.53748C10.8031 6.37496 10.6757 6.23874 10.5192 6.14365C10.3627 6.04857 10.1831 5.99829 9.99996 5.99829C9.81684 5.99829 9.63723 6.04857 9.48073 6.14365C9.32423 6.23874 9.19684 6.37496 9.11246 6.53748L2.76246 18.525L0.112457 23.5375C-0.00706964 23.7734 -0.0295219 24.0468 0.0499026 24.2991C0.129327 24.5514 0.304322 24.7626 0.537457 24.8875C0.773405 25.007 1.04676 25.0295 1.29905 24.95C1.55134 24.8706 1.76253 24.6956 1.88746 24.4625L4.24996 20H15.75L18.1125 24.4625C18.196 24.6256 18.3232 24.7623 18.4799 24.8572C18.6367 24.9521 18.8167 25.0016 19 25C19.1719 25.0001 19.3411 24.9559 19.491 24.8716C19.6409 24.7873 19.7665 24.6658 19.8557 24.5188C19.945 24.3717 19.9948 24.2042 20.0003 24.0323C20.0059 23.8604 19.967 23.69 19.8875 23.5375L17.2375 18.525ZM5.31246 18L9.99996 9.13748L14.6875 18H5.31246ZM26 11.8625C24.6208 11.849 23.2917 12.3789 22.3 13.3375C22.1989 13.4276 22.1172 13.5373 22.0598 13.6599C22.0024 13.7825 21.9704 13.9155 21.966 14.0509C21.9615 14.1862 21.9845 14.321 22.0337 14.4472C22.0829 14.5733 22.1572 14.6881 22.2521 14.7847C22.347 14.8813 22.4605 14.9576 22.5858 15.009C22.711 15.0604 22.8454 15.0859 22.9808 15.0838C23.1162 15.0817 23.2497 15.0522 23.3733 14.9969C23.497 14.9417 23.6081 14.8619 23.7 14.7625C24.3183 14.1715 25.1447 13.8481 26 13.8625C27.65 13.8625 29 14.9875 29 16.3625V17.2625C28.1115 16.6713 27.0671 16.358 26 16.3625C23.2375 16.3625 21 18.375 21 20.8625C21 23.35 23.2375 25.3625 26 25.3625C27.1036 25.367 28.1819 25.0309 29.0875 24.4C29.1637 24.5787 29.2909 24.7309 29.4532 24.8376C29.6155 24.9443 29.8057 25.0008 30 25C30.2652 25 30.5195 24.8946 30.7071 24.7071C30.8946 24.5196 31 24.2652 31 24V16.3625C31 13.875 28.7625 11.8625 26 11.8625ZM26 23.3625C24.35 23.3625 23 22.2375 23 20.8625C23 19.4875 24.35 18.3625 26 18.3625C27.65 18.3625 29 19.4875 29 20.8625C29 22.2375 27.65 23.3625 26 23.3625Z" fill="#344054"/>
</svg>
