<svg width="32" height="32" viewBox="0 0 32 32" fill="none" xmlns="http://www.w3.org/2000/svg">
<path d="M5 8.00001V25H15C15.2652 25 15.5196 25.1054 15.7071 25.2929C15.8946 25.4804 16 25.7348 16 26C16 26.2652 15.8946 26.5196 15.7071 26.7071C15.5196 26.8947 15.2652 27 15 27H5C4.46957 27 3.96086 26.7893 3.58579 26.4142C3.21071 26.0392 3 25.5304 3 25V8.00001C3 7.46958 3.21071 6.96087 3.58579 6.5858C3.96086 6.21072 4.46957 6.00001 5 6.00001H11.6625C12.0958 5.9963 12.5181 6.13704 12.8625 6.40001L16.3375 9.00001H27C27.5304 9.00001 28.0391 9.21072 28.4142 9.5858C28.7893 9.96087 29 10.4696 29 11V15C29 15.2652 28.8946 15.5196 28.7071 15.7071C28.5196 15.8947 28.2652 16 28 16C27.7348 16 27.4804 15.8947 27.2929 15.7071C27.1054 15.5196 27 15.2652 27 15V11H16.3375C15.9042 11.0037 15.4819 10.863 15.1375 10.6L11.6625 8.00001H5ZM30.45 19.9C30.3893 19.7102 30.2738 19.5425 30.1182 19.4179C29.9625 19.2934 29.7736 19.2176 29.575 19.2L25.85 18.9125L24.4125 15.6C24.3336 15.424 24.2055 15.2746 24.0436 15.1697C23.8817 15.0649 23.6929 15.0091 23.5 15.0091C23.3071 15.0091 23.1183 15.0649 22.9564 15.1697C22.7945 15.2746 22.6664 15.424 22.5875 15.6L21.15 18.9125L17.425 19.2C17.2276 19.2192 17.0402 19.296 16.8861 19.4208C16.732 19.5455 16.6179 19.7128 16.558 19.9019C16.498 20.0909 16.495 20.2934 16.5491 20.4842C16.6033 20.6749 16.7122 20.8456 16.8625 20.975L19.675 23.3L18.825 26.7625C18.7772 26.9531 18.7873 27.1537 18.8541 27.3385C18.9209 27.5233 19.0414 27.684 19.2 27.8C19.3571 27.917 19.5451 27.9853 19.7406 27.9964C19.9362 28.0075 20.1307 27.961 20.3 27.8625L23.5 25.975L26.7 27.8625C26.8569 27.95 27.0329 27.9972 27.2125 28C27.4255 28.003 27.633 27.9323 27.8 27.8C27.9586 27.684 28.0791 27.5233 28.1459 27.3385C28.2127 27.1537 28.2228 26.9531 28.175 26.7625L27.325 23.3L30.1375 20.975C30.2909 20.8474 30.4026 20.6769 30.4583 20.4853C30.514 20.2938 30.5111 20.0899 30.45 19.9Z" fill="#344054"/>
</svg>
