<svg width="32" height="32" viewBox="0 0 32 32" fill="none" xmlns="http://www.w3.org/2000/svg">
<path d="M26.7125 8.2875L21.7125 3.2875C21.522 3.10178 21.266 2.9985 21 3H11C10.4696 3 9.96086 3.21071 9.58579 3.58579C9.21071 3.96086 9 4.46957 9 5V7H7C6.46957 7 5.96086 7.21071 5.58579 7.58579C5.21071 7.96086 5 8.46957 5 9V27C5 27.5304 5.21071 28.0391 5.58579 28.4142C5.96086 28.7893 6.46957 29 7 29H21C21.5304 29 22.0391 28.7893 22.4142 28.4142C22.7893 28.0391 23 27.5304 23 27V25H25C25.5304 25 26.0391 24.7893 26.4142 24.4142C26.7893 24.0391 27 23.5304 27 23V9C27.0015 8.73395 26.8982 8.478 26.7125 8.2875ZM17 24H11C10.7348 24 10.4804 23.8946 10.2929 23.7071C10.1054 23.5196 10 23.2652 10 23C10 22.7348 10.1054 22.4804 10.2929 22.2929C10.4804 22.1054 10.7348 22 11 22H17C17.2652 22 17.5196 22.1054 17.7071 22.2929C17.8946 22.4804 18 22.7348 18 23C18 23.2652 17.8946 23.5196 17.7071 23.7071C17.5196 23.8946 17.2652 24 17 24ZM17 20H11C10.7348 20 10.4804 19.8946 10.2929 19.7071C10.1054 19.5196 10 19.2652 10 19C10 18.7348 10.1054 18.4804 10.2929 18.2929C10.4804 18.1054 10.7348 18 11 18H17C17.2652 18 17.5196 18.1054 17.7071 18.2929C17.8946 18.4804 18 18.7348 18 19C18 19.2652 17.8946 19.5196 17.7071 19.7071C17.5196 19.8946 17.2652 20 17 20ZM25 23H23V13C23.0015 12.734 22.8982 12.478 22.7125 12.2875L17.7125 7.2875C17.522 7.10178 17.266 6.9985 17 7H11V5H20.5875L25 9.4125V23Z" fill="#344054"/>
</svg>
