<svg width="32" height="32" viewBox="0 0 32 32" fill="none" xmlns="http://www.w3.org/2000/svg">
<path d="M3.5 15H28.5C28.6326 15 28.7598 15.0527 28.8536 15.1464C28.9473 15.2402 29 15.3674 29 15.5V20.5C29 20.6326 28.9473 20.7598 28.8536 20.8535C28.7598 20.9473 28.6326 21 28.5 21H3.5C3.36739 21 3.24021 20.9473 3.14645 20.8535C3.05268 20.7598 3 20.6326 3 20.5V15.5C3 15.3674 3.05268 15.2402 3.14645 15.1464C3.24021 15.0527 3.36739 15 3.5 15ZM3 26C3 26.5304 3.21071 27.0391 3.58579 27.4142C3.96086 27.7893 4.46957 28 5 28H27C27.5304 28 28.0391 27.7893 28.4142 27.4142C28.7893 27.0391 29 26.5304 29 26V23.5C29 23.3674 28.9473 23.2402 28.8536 23.1464C28.7598 23.0527 28.6326 23 28.5 23H3.5C3.36739 23 3.24021 23.0527 3.14645 23.1464C3.05268 23.2402 3 23.3674 3 23.5V26ZM29 10V12.5C29 12.6326 28.9473 12.7598 28.8536 12.8535C28.7598 12.9473 28.6326 13 28.5 13H3.5C3.36739 13 3.24021 12.9473 3.14645 12.8535C3.05268 12.7598 3 12.6326 3 12.5V10C3 9.46956 3.21071 8.96086 3.58579 8.58578C3.96086 8.21071 4.46957 8 5 8H10V7C9.99835 6.60557 10.0748 6.21472 10.225 5.84999C10.3752 5.48527 10.5961 5.15389 10.875 4.87499C11.1539 4.59608 11.4853 4.37517 11.85 4.22499C12.2147 4.07481 12.6056 3.99834 13 4H19C19.3944 3.99834 19.7853 4.07481 20.15 4.22499C20.5147 4.37517 20.8461 4.59608 21.125 4.87499C21.4039 5.15389 21.6248 5.48527 21.775 5.84999C21.9252 6.21472 22.0017 6.60557 22 7V8H27C27.5304 8 28.0391 8.21071 28.4142 8.58578C28.7893 8.96086 29 9.46956 29 10ZM20 7C20 6.73478 19.8946 6.48043 19.7071 6.29289C19.5196 6.10535 19.2652 6 19 6H13C12.7348 6 12.4804 6.10535 12.2929 6.29289C12.1054 6.48043 12 6.73478 12 7V8H20V7Z" fill="#344054"/>
</svg>
