<svg width="32" height="32" viewBox="0 0 32 32" fill="none" xmlns="http://www.w3.org/2000/svg">
<path d="M19 7V22C19 22.2652 18.8946 22.5196 18.7071 22.7071C18.5196 22.8946 18.2652 23 18 23C17.7348 23 17.4804 22.8946 17.2929 22.7071C17.1054 22.5196 17 22.2652 17 22V15.5H6V22C6 22.2652 5.89464 22.5196 5.70711 22.7071C5.51957 22.8946 5.26522 23 5 23C4.73478 23 4.48043 22.8946 4.29289 22.7071C4.10536 22.5196 4 22.2652 4 22V7C4 6.73478 4.10536 6.48043 4.29289 6.29289C4.48043 6.10536 4.73478 6 5 6C5.26522 6 5.51957 6.10536 5.70711 6.29289C5.89464 6.48043 6 6.73478 6 7V13.5H17V7C17 6.73478 17.1054 6.48043 17.2929 6.29289C17.4804 6.10536 17.7348 6 18 6C18.2652 6 18.5196 6.10536 18.7071 6.29289C18.8946 6.48043 19 6.73478 19 7ZM29.5 16C29.2348 16 28.9804 16.1054 28.7929 16.2929C28.6054 16.4804 28.5 16.7348 28.5 17V20H24.9125L27.4375 12.8375C27.5021 12.5954 27.4734 12.3379 27.3572 12.116C27.241 11.894 27.0457 11.7237 26.81 11.6389C26.5743 11.554 26.3153 11.5607 26.0843 11.6577C25.8532 11.7547 25.667 11.9348 25.5625 12.1625L22.5625 20.6625C22.5076 20.8133 22.4903 20.9752 22.5121 21.1342C22.5339 21.2932 22.5941 21.4445 22.6875 21.575C22.7792 21.7055 22.9008 21.8122 23.0422 21.8861C23.1835 21.96 23.3405 21.9991 23.5 22H28.5V25C28.5 25.2652 28.6054 25.5196 28.7929 25.7071C28.9804 25.8946 29.2348 26 29.5 26C29.7652 26 30.0196 25.8946 30.2071 25.7071C30.3946 25.5196 30.5 25.2652 30.5 25V17C30.5 16.7348 30.3946 16.4804 30.2071 16.2929C30.0196 16.1054 29.7652 16 29.5 16Z" fill="#344054"/>
</svg>
