<svg width="32" height="32" viewBox="0 0 32 32" fill="none" xmlns="http://www.w3.org/2000/svg">
<path d="M26.7125 10.2875L19.7125 3.2875C19.522 3.10178 19.266 2.9985 19 3H7C6.46957 3 5.96086 3.21071 5.58579 3.58579C5.21071 3.96086 5 4.46957 5 5V16C5 16.2652 5.10536 16.5196 5.29289 16.7071C5.48043 16.8946 5.73478 17 6 17C6.26522 17 6.51957 16.8946 6.70711 16.7071C6.89464 16.5196 7 16.2652 7 16V5H18V11C18 11.2652 18.1054 11.5196 18.2929 11.7071C18.4804 11.8946 18.7348 12 19 12H25V27H21C20.7348 27 20.4804 27.1054 20.2929 27.2929C20.1054 27.4804 20 27.7348 20 28C20 28.2652 20.1054 28.5196 20.2929 28.7071C20.4804 28.8946 20.7348 29 21 29H25C25.5304 29 26.0391 28.7893 26.4142 28.4142C26.7893 28.0391 27 27.5304 27 27V11C27.0015 10.734 26.8982 10.478 26.7125 10.2875ZM20 10V6.4125L23.5875 10H20ZM13 19V28C13.0005 28.1894 12.9466 28.3749 12.8447 28.5344C12.7427 28.694 12.597 28.8209 12.425 28.9C12.2945 28.9698 12.148 29.0042 12 29C11.7653 29.0034 11.5378 28.9187 11.3625 28.7625L8.6375 26.5H6C5.73478 26.5 5.48043 26.3946 5.29289 26.2071C5.10536 26.0196 5 25.7652 5 25.5V21.5C5 21.2348 5.10536 20.9804 5.29289 20.7929C5.48043 20.6054 5.73478 20.5 6 20.5H8.6375L11.3625 18.2375C11.5068 18.1133 11.6844 18.0342 11.8732 18.0097C12.062 17.9853 12.2538 18.0167 12.425 18.1C12.597 18.1791 12.7427 18.306 12.8447 18.4656C12.9466 18.6251 13.0005 18.8106 13 19ZM18.5 23.5C18.5013 24.2493 18.3334 24.9892 18.0087 25.6645C17.6841 26.3398 17.2111 26.9331 16.625 27.4C16.4489 27.5449 16.2281 27.6244 16 27.625C15.8507 27.626 15.7032 27.5927 15.5689 27.5277C15.4345 27.4627 15.3169 27.3677 15.225 27.25C15.0596 27.042 14.9827 26.7773 15.0108 26.513C15.0388 26.2488 15.1696 26.0062 15.375 25.8375C15.7265 25.5577 16.0104 25.2022 16.2056 24.7975C16.4007 24.3928 16.5021 23.9493 16.5021 23.5C16.5021 23.0507 16.4007 22.6072 16.2056 22.2025C16.0104 21.7978 15.7265 21.4423 15.375 21.1625C15.1678 20.9967 15.0349 20.7555 15.0056 20.4917C14.9763 20.228 15.053 19.9635 15.2188 19.7563C15.3845 19.549 15.6258 19.4162 15.8895 19.3869C16.1532 19.3576 16.4178 19.4342 16.625 19.6C17.2111 20.0669 17.6841 20.6602 18.0087 21.3355C18.3334 22.0108 18.5013 22.7507 18.5 23.5Z" fill="#344054"/>
</svg>
