<svg width="32" height="32" viewBox="0 0 32 32" fill="none" xmlns="http://www.w3.org/2000/svg">
<path d="M26.7374 26.325C26.8276 26.4211 26.8976 26.5342 26.9434 26.6578C26.9891 26.7813 27.0097 26.9128 27.0039 27.0444C26.998 27.176 26.9659 27.3052 26.9094 27.4242C26.8529 27.5432 26.7732 27.6498 26.6749 27.7375C26.4893 27.9042 26.2493 27.9975 25.9999 28C25.8611 27.9999 25.7239 27.971 25.597 27.9151C25.47 27.8591 25.3561 27.7774 25.2624 27.675L21.9624 24.0375C21.6499 25.8125 20.7249 27.3125 20.0374 28.225C19.8638 28.4539 19.6438 28.6435 19.3917 28.7814C19.1397 28.9193 18.8613 29.0023 18.5749 29.025H18.4374C17.9076 29.0227 17.4 28.8116 17.0249 28.4375L10.9999 22.4125L6.7124 26.7125C6.52126 26.8973 6.26578 27.0006 5.9999 27.0006C5.73401 27.0006 5.47854 26.8973 5.2874 26.7125C5.09961 26.5229 4.99427 26.2668 4.99427 26C4.99427 25.7331 5.09961 25.4771 5.2874 25.2875L9.5874 21L3.5374 14.95C3.3367 14.7522 3.18034 14.5141 3.07869 14.2513C2.97704 13.9886 2.93242 13.7072 2.94778 13.4258C2.96315 13.1445 3.03815 12.8697 3.16782 12.6195C3.29749 12.3694 3.47886 12.1497 3.6999 11.975C5.7249 10.35 7.6874 9.96249 9.1874 9.99999L5.2624 5.67499C5.09008 5.47834 5.00164 5.22202 5.01603 4.96095C5.03041 4.69988 5.14648 4.45482 5.33936 4.27829C5.53223 4.10176 5.78658 4.00779 6.0479 4.01652C6.30922 4.02525 6.55673 4.13598 6.7374 4.32499L26.7374 26.325ZM28.9999 10.5875L21.4124 2.99999C21.0359 2.62899 20.5285 2.42102 19.9999 2.42102C19.4713 2.42102 18.9639 2.62899 18.5874 2.99999L13.8374 7.74999C13.6564 7.93087 13.5517 8.17425 13.5447 8.43002C13.5377 8.6858 13.629 8.93452 13.7999 9.12499L22.3749 18.55C22.4651 18.651 22.5746 18.733 22.6969 18.7909C22.8193 18.8489 22.9521 18.8817 23.0874 18.8875H23.1124C23.2451 18.8873 23.3765 18.8606 23.4988 18.8091C23.6211 18.7576 23.732 18.6823 23.8249 18.5875L28.9999 13.4125C29.1866 13.2277 29.3348 13.0077 29.436 12.7652C29.5371 12.5228 29.5892 12.2627 29.5892 12C29.5892 11.7373 29.5371 11.4772 29.436 11.2347C29.3348 10.9923 29.1866 10.7723 28.9999 10.5875Z" fill="#344054"/>
</svg>
