<svg width="32" height="32" viewBox="0 0 32 32" fill="none" xmlns="http://www.w3.org/2000/svg">
<path d="M8 20H6C5.73478 20 5.48043 20.1054 5.29289 20.2929C5.10536 20.4804 5 20.7348 5 21V27C5 27.2652 5.10536 27.5196 5.29289 27.7071C5.48043 27.8946 5.73478 28 6 28C6.26522 28 6.51957 27.8946 6.70711 27.7071C6.89464 27.5196 7 27.2652 7 27V26H8C8.79565 26 9.55871 25.6839 10.1213 25.1213C10.6839 24.5587 11 23.7956 11 23C11 22.2044 10.6839 21.4413 10.1213 20.8787C9.55871 20.3161 8.79565 20 8 20ZM8 24H7V22H8C8.26522 22 8.51957 22.1054 8.70711 22.2929C8.89464 22.4804 9 22.7348 9 23C9 23.2652 8.89464 23.5196 8.70711 23.7071C8.51957 23.8946 8.26522 24 8 24ZM24.5 22V23.5H26.5C26.7652 23.5 27.0196 23.6054 27.2071 23.7929C27.3946 23.9804 27.5 24.2348 27.5 24.5C27.5 24.7652 27.3946 25.0196 27.2071 25.2071C27.0196 25.3946 26.7652 25.5 26.5 25.5H24.5V27C24.5 27.2652 24.3946 27.5196 24.2071 27.7071C24.0196 27.8946 23.7652 28 23.5 28C23.2348 28 22.9804 27.8946 22.7929 27.7071C22.6054 27.5196 22.5 27.2652 22.5 27V21C22.5 20.7348 22.6054 20.4804 22.7929 20.2929C22.9804 20.1054 23.2348 20 23.5 20H27C27.2652 20 27.5196 20.1054 27.7071 20.2929C27.8946 20.4804 28 20.7348 28 21C28 21.2652 27.8946 21.5196 27.7071 21.7071C27.5196 21.8946 27.2652 22 27 22H24.5ZM16 20H14.25C13.9848 20 13.7304 20.1054 13.5429 20.2929C13.3554 20.4804 13.25 20.7348 13.25 21V27C13.25 27.2652 13.3554 27.5196 13.5429 27.7071C13.7304 27.8946 13.9848 28 14.25 28H16C17.0609 28 18.0783 27.5786 18.8284 26.8284C19.5786 26.0783 20 25.0609 20 24C20 22.9391 19.5786 21.9217 18.8284 21.1716C18.0783 20.4214 17.0609 20 16 20ZM16 26H15.25V22H16C16.5304 22 17.0391 22.2107 17.4142 22.5858C17.7893 22.9609 18 23.4696 18 24C18 24.5304 17.7893 25.0391 17.4142 25.4142C17.0391 25.7893 16.5304 26 16 26ZM6 17H26C26.2652 17 26.5196 16.8946 26.7071 16.7071C26.8946 16.5196 27 16.2652 27 16V11C27.0015 10.734 26.8982 10.478 26.7125 10.2875L19.7125 3.2875C19.522 3.10178 19.266 2.9985 19 3H7C6.46957 3 5.96086 3.21071 5.58579 3.58579C5.21071 3.96086 5 4.46957 5 5V16C5 16.2652 5.10536 16.5196 5.29289 16.7071C5.48043 16.8946 5.73478 17 6 17ZM19 5.5L24.5 11H19V5.5Z" fill="#344054"/>
</svg>
