<svg width="32" height="32" viewBox="0 0 32 32" fill="none" xmlns="http://www.w3.org/2000/svg">
<path d="M28.3375 27.25C28.3755 27.3973 28.3795 27.5514 28.349 27.7004C28.3185 27.8495 28.2544 27.9896 28.1616 28.1101C28.0688 28.2307 27.9497 28.3284 27.8134 28.396C27.6771 28.4636 27.5271 28.4991 27.375 28.5H19.625C19.4729 28.4991 19.3229 28.4636 19.1866 28.396C19.0503 28.3284 18.9312 28.2307 18.8384 28.1101C18.7456 27.9896 18.6815 27.8495 18.651 27.7004C18.6205 27.5514 18.6245 27.3973 18.6625 27.25C18.9669 26.068 19.6912 25.0371 20.7 24.35C20.1326 23.7938 19.7437 23.0813 19.5828 22.3032C19.422 21.5251 19.4965 20.7168 19.7969 19.9812C20.0973 19.2456 20.6099 18.6162 21.2694 18.1731C21.9289 17.7301 22.7055 17.4934 23.5 17.4934C24.2945 17.4934 25.0711 17.7301 25.7306 18.1731C26.3901 18.6162 26.9027 19.2456 27.2031 19.9812C27.5035 20.7168 27.578 21.5251 27.4172 22.3032C27.2563 23.0813 26.8674 23.7938 26.3 24.35C27.3088 25.0371 28.0331 26.068 28.3375 27.25ZM27 9.00001H16.3375L12.8625 6.40001C12.5181 6.13704 12.0958 5.9963 11.6625 6.00001H5C4.46957 6.00001 3.96086 6.21072 3.58579 6.5858C3.21071 6.96087 3 7.46958 3 8.00001V25C3 25.5304 3.21071 26.0392 3.58579 26.4142C3.96086 26.7893 4.46957 27 5 27H15C15.2652 27 15.5196 26.8947 15.7071 26.7071C15.8946 26.5196 16 26.2652 16 26C16 25.7348 15.8946 25.4804 15.7071 25.2929C15.5196 25.1054 15.2652 25 15 25H5V8.00001H11.6625L15.1375 10.6C15.4819 10.863 15.9042 11.0037 16.3375 11H27V15C27 15.2652 27.1054 15.5196 27.2929 15.7071C27.4804 15.8947 27.7348 16 28 16C28.2652 16 28.5196 15.8947 28.7071 15.7071C28.8946 15.5196 29 15.2652 29 15V11C29 10.4696 28.7893 9.96087 28.4142 9.5858C28.0391 9.21072 27.5304 9.00001 27 9.00001Z" fill="#344054"/>
</svg>
