<svg width="32" height="32" viewBox="0 0 32 32" fill="none" xmlns="http://www.w3.org/2000/svg">
<path d="M27.9999 16C27.9999 16.2652 27.8945 16.5196 27.707 16.7071C27.5195 16.8946 27.2651 17 26.9999 17H12.9999C12.7347 17 12.4803 16.8946 12.2928 16.7071C12.1052 16.5196 11.9999 16.2652 11.9999 16C11.9999 15.7348 12.1052 15.4804 12.2928 15.2929C12.4803 15.1054 12.7347 15 12.9999 15H26.9999C27.2651 15 27.5195 15.1054 27.707 15.2929C27.8945 15.4804 27.9999 15.7348 27.9999 16ZM12.9999 8.99999H26.9999C27.2651 8.99999 27.5195 8.89464 27.707 8.7071C27.8945 8.51956 27.9999 8.26521 27.9999 7.99999C27.9999 7.73478 27.8945 7.48042 27.707 7.29289C27.5195 7.10535 27.2651 6.99999 26.9999 6.99999H12.9999C12.7347 6.99999 12.4803 7.10535 12.2928 7.29289C12.1052 7.48042 11.9999 7.73478 11.9999 7.99999C11.9999 8.26521 12.1052 8.51956 12.2928 8.7071C12.4803 8.89464 12.7347 8.99999 12.9999 8.99999ZM26.9999 23H12.9999C12.7347 23 12.4803 23.1053 12.2928 23.2929C12.1052 23.4804 11.9999 23.7348 11.9999 24C11.9999 24.2652 12.1052 24.5196 12.2928 24.7071C12.4803 24.8946 12.7347 25 12.9999 25H26.9999C27.2651 25 27.5195 24.8946 27.707 24.7071C27.8945 24.5196 27.9999 24.2652 27.9999 24C27.9999 23.7348 27.8945 23.4804 27.707 23.2929C27.5195 23.1053 27.2651 23 26.9999 23ZM5.44988 8.39999L5.99988 8.11249V13.5C5.99988 13.7652 6.10524 14.0196 6.29278 14.2071C6.48031 14.3946 6.73467 14.5 6.99988 14.5C7.2651 14.5 7.51945 14.3946 7.70699 14.2071C7.89453 14.0196 7.99988 13.7652 7.99988 13.5V6.49999C8.0009 6.32935 7.95768 6.16135 7.87443 6.01238C7.79119 5.86341 7.67076 5.73856 7.52488 5.64999C7.38019 5.55903 7.21459 5.50668 7.0439 5.49793C6.87321 5.48917 6.70313 5.52431 6.54988 5.59999L4.54988 6.59999C4.43169 6.65909 4.3263 6.74088 4.23972 6.84071C4.15314 6.94053 4.08708 7.05644 4.04529 7.18179C3.9609 7.43497 3.98054 7.7113 4.09988 7.94999C4.21923 8.18869 4.42851 8.3702 4.68169 8.45459C4.93486 8.53898 5.21119 8.51934 5.44988 8.39999ZM9.02488 21.2875C9.33654 20.8355 9.5023 20.299 9.49988 19.75C9.50338 19.1132 9.28576 18.4949 8.88416 18.0007C8.48256 17.5064 7.92188 17.1669 7.29782 17.04C6.67376 16.9131 6.02501 17.0068 5.46231 17.305C4.8996 17.6031 4.45783 18.0874 4.21238 18.675C4.10795 18.9203 4.10526 19.1971 4.20489 19.4444C4.30452 19.6917 4.49831 19.8893 4.74363 19.9937C4.98896 20.0982 5.26572 20.1009 5.51303 20.0012C5.76035 19.9016 5.95795 19.7078 6.06238 19.4625C6.116 19.3244 6.21064 19.206 6.33355 19.1234C6.45647 19.0407 6.60176 18.9976 6.74988 19C6.9488 19 7.13956 19.079 7.28021 19.2197C7.42087 19.3603 7.49988 19.5511 7.49988 19.75C7.50296 19.8915 7.46379 20.0308 7.38738 20.15L4.19988 24.4C4.08846 24.5486 4.0206 24.7252 4.00392 24.9102C3.98725 25.0951 4.0224 25.2811 4.10546 25.4472C4.18851 25.6133 4.31618 25.753 4.47415 25.8506C4.63213 25.9483 4.81417 26 4.99988 26H8.49988C8.7651 26 9.01945 25.8946 9.20699 25.7071C9.39453 25.5196 9.49988 25.2652 9.49988 25C9.49988 24.7348 9.39453 24.4804 9.20699 24.2929C9.01945 24.1053 8.7651 24 8.49988 24H6.99988L8.99988 21.325L9.02488 21.2875Z" fill="#344054"/>
</svg>
