<svg width="32" height="32" viewBox="0 0 32 32" fill="none" xmlns="http://www.w3.org/2000/svg">
<path d="M28.3375 27.25C28.3755 27.3973 28.3795 27.5513 28.349 27.7004C28.3185 27.8494 28.2544 27.9896 28.1616 28.1101C28.0688 28.2306 27.9497 28.3284 27.8134 28.396C27.6771 28.4636 27.5271 28.4991 27.375 28.5H19.625C19.4729 28.4991 19.3229 28.4636 19.1866 28.396C19.0503 28.3284 18.9312 28.2306 18.8384 28.1101C18.7456 27.9896 18.6815 27.8494 18.651 27.7004C18.6205 27.5513 18.6245 27.3973 18.6625 27.25C18.9669 26.068 19.6912 25.0371 20.7 24.35C20.1326 23.7938 19.7437 23.0813 19.5828 22.3032C19.422 21.5251 19.4965 20.7168 19.7969 19.9812C20.0973 19.2456 20.6099 18.6162 21.2694 18.1731C21.9289 17.73 22.7055 17.4934 23.5 17.4934C24.2945 17.4934 25.0711 17.73 25.7306 18.1731C26.3901 18.6162 26.9027 19.2456 27.2031 19.9812C27.5035 20.7168 27.578 21.5251 27.4172 22.3032C27.2563 23.0813 26.8674 23.7938 26.3 24.35C27.3088 25.0371 28.0331 26.068 28.3375 27.25ZM29 11V15C29 15.2652 28.8946 15.5196 28.7071 15.7071C28.5196 15.8946 28.2652 16 28 16C27.7348 16 27.4804 15.8946 27.2929 15.7071C27.1054 15.5196 27 15.2652 27 15V11H5V25H15.075C15.3402 25 15.5946 25.1054 15.7821 25.2929C15.9696 25.4804 16.075 25.7348 16.075 26C16.075 26.2652 15.9696 26.5196 15.7821 26.7071C15.5946 26.8946 15.3402 27 15.075 27H4.925C4.41446 27 3.92483 26.7972 3.56382 26.4362C3.20281 26.0752 3 25.5855 3 25.075V7C3 6.46957 3.21071 5.96086 3.58579 5.58579C3.96086 5.21071 4.46957 5 5 5H11.5875C11.8501 4.99977 12.1101 5.05157 12.3525 5.1524C12.595 5.25324 12.815 5.40112 13 5.5875L16.4125 9H27C27.5304 9 28.0391 9.21071 28.4142 9.58579C28.7893 9.96086 29 10.4696 29 11ZM5 7V9H13.5875L11.5875 7H5Z" fill="#344054"/>
</svg>
