<svg width="32" height="32" viewBox="0 0 32 32" fill="none" xmlns="http://www.w3.org/2000/svg">
<path d="M24.0001 23H5.7501C3.0501 23 0.850098 20.7625 0.850098 18C0.850098 15.2375 3.0501 13 5.7501 13H23.7501C24.5457 13 25.3088 13.3161 25.8714 13.8787C26.434 14.4413 26.7501 15.2044 26.7501 16C26.7501 16.7956 26.434 17.5587 25.8714 18.1213C25.3088 18.6839 24.5457 19 23.7501 19H9.7501C9.48488 19 9.23053 18.8946 9.04299 18.7071C8.85545 18.5196 8.7501 18.2652 8.7501 18C8.7501 17.7348 8.85545 17.4804 9.04299 17.2929C9.23053 17.1054 9.48488 17 9.7501 17H23.7501C24.0153 17 24.2697 16.8946 24.4572 16.7071C24.6447 16.5196 24.7501 16.2652 24.7501 16C24.7501 15.7348 24.6447 15.4804 24.4572 15.2929C24.2697 15.1054 24.0153 15 23.7501 15H5.7501C4.1501 15 2.8501 16.35 2.8501 18C2.8501 19.65 4.1501 21 5.7501 21H24.0001C25.3262 21 26.5979 20.4732 27.5356 19.5355C28.4733 18.5979 29.0001 17.3261 29.0001 16C29.0001 14.6739 28.4733 13.4021 27.5356 12.4645C26.5979 11.5268 25.3262 11 24.0001 11H10.0001C9.73488 11 9.48053 10.8946 9.29299 10.7071C9.10545 10.5196 9.0001 10.2652 9.0001 10C9.0001 9.73478 9.10545 9.48043 9.29299 9.29289C9.48053 9.10536 9.73488 9 10.0001 9H24.0001C25.8566 9 27.6371 9.7375 28.9498 11.0503C30.2626 12.363 31.0001 14.1435 31.0001 16C31.0001 17.8565 30.2626 19.637 28.9498 20.9497C27.6371 22.2625 25.8566 23 24.0001 23Z" fill="#344054"/>
</svg>
