<svg width="32" height="32" viewBox="0 0 32 32" fill="none" xmlns="http://www.w3.org/2000/svg">
<path d="M26.7 10.2875L19.7125 3.2875L19.675 3.2625L19.6375 3.225L19.6 3.2L19.5625 3.175C19.55 3.1625 19.5375 3.1625 19.5375 3.15L19.475 3.1125H19.45L19.3875 3.075H19.375L19.2875 3.0375H7C6.476 3.03741 5.97289 3.24296 5.59888 3.60997C5.22487 3.97697 5.00982 4.47609 5 5V27C5 27.5304 5.21071 28.0391 5.58579 28.4142C5.96086 28.7893 6.46957 29 7 29H25C25.5304 29 26.0391 28.7893 26.4142 28.4142C26.7893 28.0391 27 27.5304 27 27V11C27.0012 10.8671 26.9752 10.7353 26.9236 10.6127C26.872 10.4902 26.7959 10.3795 26.7 10.2875ZM20.675 23.6875C20.4883 23.8713 20.237 23.9746 19.975 23.975C19.7095 23.9739 19.4545 23.871 19.2625 23.6875L17.9 22.3125C17.1787 22.7585 16.3481 22.9965 15.5 23C14.61 23 13.74 22.7361 12.9999 22.2416C12.2599 21.7471 11.6831 21.0443 11.3425 20.2221C11.0019 19.3998 10.9128 18.495 11.0865 17.6221C11.2601 16.7492 11.6887 15.9474 12.318 15.318C12.9474 14.6887 13.7492 14.2601 14.6221 14.0865C15.495 13.9128 16.3998 14.0019 17.2221 14.3425C18.0443 14.6831 18.7471 15.2599 19.2416 15.9999C19.7361 16.74 20 17.61 20 18.5C20.0031 19.349 19.7647 20.1814 19.3125 20.9L20.675 22.2625C20.7695 22.3555 20.8445 22.4665 20.8957 22.5888C20.947 22.7111 20.9733 22.8424 20.9733 22.975C20.9733 23.1076 20.947 23.2389 20.8957 23.3612C20.8445 23.4835 20.7695 23.5944 20.675 23.6875ZM19 11V5.4125L24.5875 11H19Z" fill="#344054"/>
<path d="M15.4999 16C15.172 16.0007 14.8475 16.0662 14.545 16.1928C14.2426 16.3194 13.9681 16.5045 13.7374 16.7375C13.5038 16.9678 13.3184 17.2422 13.1918 17.5447C13.0652 17.8473 13 18.172 13 18.5C13 18.828 13.0652 19.1527 13.1918 19.4553C13.3184 19.7578 13.5038 20.0322 13.7374 20.2625C13.9685 20.4946 14.2432 20.6787 14.5456 20.8043C14.8481 20.93 15.1724 20.9947 15.4999 20.9947C15.8274 20.9947 16.1517 20.93 16.4542 20.8043C16.7566 20.6787 17.0313 20.4946 17.2624 20.2625C17.496 20.0322 17.6814 19.7578 17.808 19.4553C17.9346 19.1527 17.9998 18.828 17.9998 18.5C17.9998 18.172 17.9346 17.8473 17.808 17.5447C17.6814 17.2422 17.496 16.9678 17.2624 16.7375C17.0317 16.5045 16.7573 16.3194 16.4548 16.1928C16.1523 16.0662 15.8278 16.0007 15.4999 16Z" fill="#344054"/>
</svg>
