<svg width="32" height="32" viewBox="0 0 32 32" fill="none" xmlns="http://www.w3.org/2000/svg">
<path d="M3 10V8.00001C3 7.46958 3.21071 6.96087 3.58579 6.5858C3.96086 6.21072 4.46957 6.00001 5 6.00001H11.6625C12.0958 5.9963 12.5181 6.13704 12.8625 6.40001L16.6 9.20001C16.7679 9.32594 16.8919 9.50151 16.9545 9.70184C17.0171 9.90218 17.0151 10.1171 16.9487 10.3162C16.8823 10.5154 16.755 10.6885 16.5847 10.8113C16.4144 10.934 16.2099 11 16 11C15.7832 11.0028 15.5718 10.9324 15.4 10.8L11.6625 8.00001H5V10C5 10.2652 4.89464 10.5196 4.70711 10.7071C4.51957 10.8947 4.26522 11 4 11C3.73478 11 3.48043 10.8947 3.29289 10.7071C3.10536 10.5196 3 10.2652 3 10ZM11 25H5V24C5 23.7348 4.89464 23.4804 4.70711 23.2929C4.51957 23.1054 4.26522 23 4 23C3.73478 23 3.48043 23.1054 3.29289 23.2929C3.10536 23.4804 3 23.7348 3 24V25.075C3 25.5856 3.20281 26.0752 3.56382 26.4362C3.92483 26.7972 4.41446 27 4.925 27H11C11.2652 27 11.5196 26.8947 11.7071 26.7071C11.8946 26.5196 12 26.2652 12 26C12 25.7348 11.8946 25.4804 11.7071 25.2929C11.5196 25.1054 11.2652 25 11 25ZM20 25H16C15.7348 25 15.4804 25.1054 15.2929 25.2929C15.1054 25.4804 15 25.7348 15 26C15 26.2652 15.1054 26.5196 15.2929 26.7071C15.4804 26.8947 15.7348 27 16 27H20C20.2652 27 20.5196 26.8947 20.7071 26.7071C20.8946 26.5196 21 26.2652 21 26C21 25.7348 20.8946 25.4804 20.7071 25.2929C20.5196 25.1054 20.2652 25 20 25ZM28 18C27.7348 18 27.4804 18.1054 27.2929 18.2929C27.1054 18.4804 27 18.7348 27 19V25H25C24.7348 25 24.4804 25.1054 24.2929 25.2929C24.1054 25.4804 24 25.7348 24 26C24 26.2652 24.1054 26.5196 24.2929 26.7071C24.4804 26.8947 24.7348 27 25 27H27.1125C27.6121 26.9967 28.0903 26.7968 28.4435 26.4436C28.7968 26.0903 28.9967 25.6121 29 25.1125V19C29 18.7348 28.8946 18.4804 28.7071 18.2929C28.5196 18.1054 28.2652 18 28 18ZM27 9.00001H21C20.7348 9.00001 20.4804 9.10537 20.2929 9.2929C20.1054 9.48044 20 9.73479 20 10C20 10.2652 20.1054 10.5196 20.2929 10.7071C20.4804 10.8947 20.7348 11 21 11H27V14C27 14.2652 27.1054 14.5196 27.2929 14.7071C27.4804 14.8947 27.7348 15 28 15C28.2652 15 28.5196 14.8947 28.7071 14.7071C28.8946 14.5196 29 14.2652 29 14V11C29 10.4696 28.7893 9.96087 28.4142 9.5858C28.0391 9.21072 27.5304 9.00001 27 9.00001ZM4 20C4.26522 20 4.51957 19.8947 4.70711 19.7071C4.89464 19.5196 5 19.2652 5 19V15C5 14.7348 4.89464 14.4804 4.70711 14.2929C4.51957 14.1054 4.26522 14 4 14C3.73478 14 3.48043 14.1054 3.29289 14.2929C3.10536 14.4804 3 14.7348 3 15V19C3 19.2652 3.10536 19.5196 3.29289 19.7071C3.48043 19.8947 3.73478 20 4 20Z" fill="#344054"/>
</svg>
