<svg width="32" height="32" viewBox="0 0 32 32" fill="none" xmlns="http://www.w3.org/2000/svg">
<path d="M28 27C28 27.2652 27.8946 27.5196 27.7071 27.7071C27.5196 27.8946 27.2652 28 27 28H5C4.73478 28 4.48043 27.8946 4.29289 27.7071C4.10536 27.5196 4 27.2652 4 27C4 26.7348 4.10536 26.4804 4.29289 26.2929C4.48043 26.1054 4.73478 26 5 26H27C27.2652 26 27.5196 26.1054 27.7071 26.2929C27.8946 26.4804 28 26.7348 28 27ZM16 24C18.3859 23.9967 20.6732 23.0474 22.3603 21.3603C24.0474 19.6732 24.9967 17.3859 25 15V7C25 6.73478 24.8946 6.48043 24.7071 6.29289C24.5196 6.10536 24.2652 6 24 6C23.7348 6 23.4804 6.10536 23.2929 6.29289C23.1054 6.48043 23 6.73478 23 7V15C23 16.8565 22.2625 18.637 20.9497 19.9497C19.637 21.2625 17.8565 22 16 22C14.1435 22 12.363 21.2625 11.0503 19.9497C9.7375 18.637 9 16.8565 9 15V7C9 6.73478 8.89464 6.48043 8.70711 6.29289C8.51957 6.10536 8.26522 6 8 6C7.73478 6 7.48043 6.10536 7.29289 6.29289C7.10536 6.48043 7 6.73478 7 7V15C7.00331 17.3859 7.95258 19.6732 9.63969 21.3603C11.3268 23.0474 13.6141 23.9967 16 24Z" fill="#344054"/>
</svg>
