<svg width="32" height="32" viewBox="0 0 32 32" fill="none" xmlns="http://www.w3.org/2000/svg">
<path d="M26.7125 10.2875L19.7125 3.2875C19.522 3.10178 19.2661 2.9985 19 3H7.00004C6.46961 3 5.9609 3.21071 5.58582 3.58579C5.21075 3.96086 5.00004 4.46957 5.00004 5V16C5.00004 16.2652 5.1054 16.5196 5.29293 16.7071C5.48047 16.8946 5.73482 17 6.00004 17C6.26525 17 6.51961 16.8946 6.70714 16.7071C6.89468 16.5196 7.00004 16.2652 7.00004 16V5H18V11C18 11.2652 18.1054 11.5196 18.2929 11.7071C18.4805 11.8946 18.7348 12 19 12H25V27H22C21.7348 27 21.4805 27.1054 21.2929 27.2929C21.1054 27.4804 21 27.7348 21 28C21 28.2652 21.1054 28.5196 21.2929 28.7071C21.4805 28.8946 21.7348 29 22 29H25C25.5305 29 26.0392 28.7893 26.4143 28.4142C26.7893 28.0391 27 27.5304 27 27V11C27.0015 10.734 26.8983 10.478 26.7125 10.2875ZM20 6.4125L23.5875 10H20V6.4125ZM20 22.5C20 24.2239 19.3152 25.8772 18.0962 27.0962C16.8772 28.3152 15.2239 29 13.5 29H7.50004C6.40737 28.9995 5.35223 28.6014 4.5315 27.8801C3.71077 27.1587 3.18053 26.1634 3.03973 25.0799C2.89892 23.9963 3.15718 22.8985 3.7663 21.9914C4.37542 21.0843 5.2938 20.4298 6.35004 20.15C6.11938 20.9121 6.00147 21.7038 6.00004 22.5C6.00004 22.7652 6.1054 23.0196 6.29293 23.2071C6.48047 23.3946 6.73482 23.5 7.00004 23.5C7.26525 23.5 7.51961 23.3946 7.70714 23.2071C7.89468 23.0196 8.00004 22.7652 8.00004 22.5C7.99902 21.6365 8.18673 20.7833 8.55004 20C9.12192 18.758 10.1009 17.7486 11.3248 17.1389C12.5486 16.5292 13.9441 16.3559 15.2799 16.6476C16.6158 16.9392 17.812 17.6784 18.6704 18.7428C19.5288 19.8071 19.9979 21.1327 20 22.5Z" fill="#344054"/>
</svg>
