<svg width="32" height="32" viewBox="0 0 32 32" fill="none" xmlns="http://www.w3.org/2000/svg">
<path d="M19 20.5V26.65C18.9987 26.8374 18.9454 27.0207 18.8461 27.1796C18.7468 27.3385 18.6054 27.4667 18.4375 27.55C18.3005 27.6141 18.1513 27.6482 18 27.65C17.7777 27.6501 17.5619 27.5752 17.3875 27.4375L15 25.5625V26C15 26.5304 14.7893 27.0391 14.4142 27.4142C14.0391 27.7893 13.5304 28 13 28H6C5.46957 28 4.96086 27.7893 4.58579 27.4142C4.21071 27.0391 4 26.5304 4 26V21C4 20.4696 4.21071 19.9609 4.58579 19.5858C4.96086 19.2107 5.46957 19 6 19H13C13.5304 19 14.0391 19.2107 14.4142 19.5858C14.7893 19.9609 15 20.4696 15 21V21.5L17.4 19.7C17.5486 19.5886 17.7252 19.5207 17.9102 19.504C18.0952 19.4874 18.2811 19.5225 18.4472 19.6056C18.6133 19.6886 18.753 19.8163 18.8507 19.9743C18.9483 20.1322 19 20.3143 19 20.5ZM27 11V27C27 27.5304 26.7893 28.0391 26.4142 28.4142C26.0391 28.7893 25.5304 29 25 29H21C20.7348 29 20.4804 28.8946 20.2929 28.7071C20.1054 28.5196 20 28.2652 20 28C20 27.7348 20.1054 27.4804 20.2929 27.2929C20.4804 27.1054 20.7348 27 21 27H25V12H19C18.7348 12 18.4804 11.8946 18.2929 11.7071C18.1054 11.5196 18 11.2652 18 11V5H7V15C7 15.2652 6.89464 15.5196 6.70711 15.7071C6.51957 15.8946 6.26522 16 6 16C5.73478 16 5.48043 15.8946 5.29289 15.7071C5.10536 15.5196 5 15.2652 5 15V5C5 4.46957 5.21071 3.96086 5.58579 3.58579C5.96086 3.21071 6.46957 3 7 3H19C19.266 2.9985 19.522 3.10178 19.7125 3.2875L26.7125 10.2875C26.8982 10.478 27.0015 10.734 27 11ZM23.5875 10L20 6.4125V10H23.5875Z" fill="#344054"/>
</svg>
