<svg width="32" height="32" viewBox="0 0 32 32" fill="none" xmlns="http://www.w3.org/2000/svg">
<path d="M15 21H11C10.7348 21 10.4804 21.1054 10.2929 21.2929C10.1054 21.4804 10 21.7348 10 22C10 22.2652 10.1054 22.5196 10.2929 22.7071C10.4804 22.8946 10.7348 23 11 23H12V27C12 27.2652 12.1054 27.5196 12.2929 27.7071C12.4804 27.8946 12.7348 28 13 28C13.2652 28 13.5196 27.8946 13.7071 27.7071C13.8946 27.5196 14 27.2652 14 27V23H15C15.2652 23 15.5196 22.8946 15.7071 22.7071C15.8946 22.5196 16 22.2652 16 22C16 21.7348 15.8946 21.4804 15.7071 21.2929C15.5196 21.1054 15.2652 21 15 21Z" fill="#344054"/>
<path d="M8 21C7.73478 21 7.48043 21.1054 7.29289 21.2929C7.10536 21.4804 7 21.7348 7 22V23.5H5.5V22C5.5 21.7348 5.39464 21.4804 5.20711 21.2929C5.01957 21.1054 4.76522 21 4.5 21C4.23478 21 3.98043 21.1054 3.79289 21.2929C3.60536 21.4804 3.5 21.7348 3.5 22V27C3.5 27.2652 3.60536 27.5196 3.79289 27.7071C3.98043 27.8946 4.23478 28 4.5 28C4.76522 28 5.01957 27.8946 5.20711 27.7071C5.39464 27.5196 5.5 27.2652 5.5 27V25.5H7V27C7 27.2652 7.10536 27.5196 7.29289 27.7071C7.48043 27.8946 7.73478 28 8 28C8.26522 28 8.51957 27.8946 8.70711 27.7071C8.89464 27.5196 9 27.2652 9 27V22C9 21.7348 8.89464 21.4804 8.70711 21.2929C8.51957 21.1054 8.26522 21 8 21Z" fill="#344054"/>
<path d="M29.5 26H27.5V22C27.5 21.7348 27.3946 21.4804 27.2071 21.2929C27.0196 21.1054 26.7652 21 26.5 21C26.2348 21 25.9804 21.1054 25.7929 21.2929C25.6054 21.4804 25.5 21.7348 25.5 22V27C25.5 27.2652 25.6054 27.5196 25.7929 27.7071C25.9804 27.8946 26.2348 28 26.5 28H29.5C29.7652 28 30.0196 27.8946 30.2071 27.7071C30.3946 27.5196 30.5 27.2652 30.5 27C30.5 26.7348 30.3946 26.4804 30.2071 26.2929C30.0196 26.1054 29.7652 26 29.5 26Z" fill="#344054"/>
<path d="M23.3 21.05C23.099 20.9832 22.8817 20.9836 22.681 21.0513C22.4803 21.1189 22.307 21.2501 22.1875 21.425L20.5 23.775L18.8125 21.425C18.6895 21.2535 18.5154 21.1254 18.3151 21.0589C18.1149 20.9924 17.8987 20.9909 17.6976 21.0547C17.4964 21.1185 17.3206 21.2443 17.1953 21.4141C17.07 21.5839 17.0017 21.789 17 22V27C17 27.2652 17.1054 27.5196 17.2929 27.7071C17.4804 27.8946 17.7348 28 18 28C18.2652 28 18.5196 27.8946 18.7071 27.7071C18.8946 27.5196 19 27.2652 19 27V25.125L19.6875 26.075C19.7783 26.2065 19.8997 26.314 20.0412 26.3882C20.1828 26.4625 20.3402 26.5013 20.5 26.5013C20.6598 26.5013 20.8172 26.4625 20.9588 26.3882C21.1003 26.314 21.2217 26.2065 21.3125 26.075L22 25.125V27C22 27.2652 22.1054 27.5196 22.2929 27.7071C22.4804 27.8946 22.7348 28 23 28C23.2652 28 23.5196 27.8946 23.7071 27.7071C23.8946 27.5196 24 27.2652 24 27V22C24.0032 21.7869 23.9365 21.5786 23.81 21.4071C23.6836 21.2355 23.5045 21.1101 23.3 21.05Z" fill="#344054"/>
<path d="M6 17H26C26.2652 17 26.5196 16.8946 26.7071 16.7071C26.8946 16.5196 27 16.2652 27 16V11C27.0015 10.734 26.8982 10.478 26.7125 10.2875L19.7125 3.2875C19.522 3.10178 19.266 2.9985 19 3H7C6.46957 3 5.96086 3.21071 5.58579 3.58579C5.21071 3.96086 5 4.46957 5 5V16C5 16.2652 5.10536 16.5196 5.29289 16.7071C5.48043 16.8946 5.73478 17 6 17ZM19 5.5L24.5 11H19V5.5Z" fill="#344054"/>
</svg>
