<svg width="32" height="32" viewBox="0 0 32 32" fill="none" xmlns="http://www.w3.org/2000/svg">
<path d="M28.0001 16C28.0001 16.2652 27.8947 16.5196 27.7072 16.7071C27.5197 16.8946 27.2653 17 27.0001 17H16.0001C15.7349 17 15.4805 16.8946 15.293 16.7071C15.1055 16.5196 15.0001 16.2652 15.0001 16C15.0001 15.7348 15.1055 15.4804 15.293 15.2929C15.4805 15.1054 15.7349 15 16.0001 15H27.0001C27.2653 15 27.5197 15.1054 27.7072 15.2929C27.8947 15.4804 28.0001 15.7348 28.0001 16ZM16.0001 9H27.0001C27.2653 9 27.5197 8.89464 27.7072 8.70711C27.8947 8.51957 28.0001 8.26522 28.0001 8C28.0001 7.73478 27.8947 7.48043 27.7072 7.29289C27.5197 7.10536 27.2653 7 27.0001 7H16.0001C15.7349 7 15.4805 7.10536 15.293 7.29289C15.1055 7.48043 15.0001 7.73478 15.0001 8C15.0001 8.26522 15.1055 8.51957 15.293 8.70711C15.4805 8.89464 15.7349 9 16.0001 9ZM27.0001 23H16.0001C15.7349 23 15.4805 23.1054 15.293 23.2929C15.1055 23.4804 15.0001 23.7348 15.0001 24C15.0001 24.2652 15.1055 24.5196 15.293 24.7071C15.4805 24.8946 15.7349 25 16.0001 25H27.0001C27.2653 25 27.5197 24.8946 27.7072 24.7071C27.8947 24.5196 28.0001 24.2652 28.0001 24C28.0001 23.7348 27.8947 23.4804 27.7072 23.2929C27.5197 23.1054 27.2653 23 27.0001 23ZM10.8251 5.2625L7.1626 8.6375L5.6751 7.2625C5.47845 7.09018 5.22213 7.00175 4.96106 7.01613C4.69998 7.03052 4.45493 7.14658 4.2784 7.33946C4.10187 7.53234 4.0079 7.78668 4.01663 8.048C4.02536 8.30932 4.13609 8.55683 4.3251 8.7375L6.4876 10.7375C6.6719 10.9063 6.91271 10.9999 7.1626 11C7.41636 11.0006 7.66133 10.9071 7.8501 10.7375L12.1751 6.7375C12.2752 6.64975 12.3569 6.54289 12.4151 6.42319C12.4734 6.30348 12.5072 6.17334 12.5146 6.0404C12.5219 5.90746 12.5026 5.77439 12.4578 5.64901C12.413 5.52362 12.3436 5.40844 12.2537 5.31022C12.1639 5.21201 12.0553 5.13273 11.9343 5.07704C11.8134 5.02136 11.6825 4.99038 11.5495 4.98594C11.4164 4.98149 11.2838 5.00367 11.1594 5.05116C11.035 5.09865 10.9213 5.1705 10.8251 5.2625ZM10.8251 13.2625L7.1626 16.6375L5.6751 15.2625C5.57885 15.1705 5.4652 15.0986 5.34082 15.0512C5.21643 15.0037 5.08381 14.9815 4.95074 14.9859C4.81767 14.9904 4.68683 15.0214 4.56589 15.077C4.44495 15.1327 4.33635 15.212 4.24646 15.3102C4.15656 15.4084 4.08719 15.5236 4.0424 15.649C3.99762 15.7744 3.97832 15.9075 3.98565 16.0404C3.99297 16.1733 4.02677 16.3035 4.08506 16.4232C4.14335 16.5429 4.22496 16.6498 4.3251 16.7375L6.4876 18.7375C6.6719 18.9063 6.91271 18.9999 7.1626 19C7.41636 19.0006 7.66133 18.9071 7.8501 18.7375L12.1751 14.7375C12.2752 14.6498 12.3569 14.5429 12.4151 14.4232C12.4734 14.3035 12.5072 14.1733 12.5146 14.0404C12.5219 13.9075 12.5026 13.7744 12.4578 13.649C12.413 13.5236 12.3436 13.4084 12.2537 13.3102C12.1639 13.212 12.0553 13.1327 11.9343 13.077C11.8134 13.0214 11.6825 12.9904 11.5495 12.9859C11.4164 12.9815 11.2838 13.0037 11.1594 13.0512C11.035 13.0986 10.9213 13.1705 10.8251 13.2625ZM10.8251 21.2625L7.1626 24.6375L5.6751 23.2625C5.57885 23.1705 5.4652 23.0986 5.34082 23.0512C5.21643 23.0037 5.08381 22.9815 4.95074 22.9859C4.81767 22.9904 4.68683 23.0214 4.56589 23.077C4.44495 23.1327 4.33635 23.212 4.24646 23.3102C4.15656 23.4084 4.08719 23.5236 4.0424 23.649C3.99762 23.7744 3.97832 23.9075 3.98565 24.0404C3.99297 24.1733 4.02677 24.3035 4.08506 24.4232C4.14335 24.5429 4.22496 24.6498 4.3251 24.7375L6.4876 26.7375C6.6719 26.9063 6.91271 26.9999 7.1626 27C7.41636 27.0006 7.66133 26.9071 7.8501 26.7375L12.1751 22.7375C12.3641 22.5568 12.4748 22.3093 12.4836 22.048C12.4923 21.7867 12.3983 21.5323 12.2218 21.3395C12.0453 21.1466 11.8002 21.0305 11.5391 21.0161C11.2781 21.0017 11.0218 21.0902 10.8251 21.2625Z" fill="#344054"/>
</svg>
