<svg width="32" height="32" viewBox="0 0 32 32" fill="none" xmlns="http://www.w3.org/2000/svg">
<path d="M26.7126 10.2875L19.7126 3.2875C19.5221 3.10178 19.2661 2.9985 19.0001 3H7.0001C6.46966 3 5.96095 3.21071 5.58588 3.58579C5.21081 3.96086 5.0001 4.46957 5.0001 5V17C5.0001 17.2652 5.10545 17.5196 5.29299 17.7071C5.48053 17.8946 5.73488 18 6.0001 18C6.26531 18 6.51967 17.8946 6.7072 17.7071C6.89474 17.5196 7.0001 17.2652 7.0001 17V5H18.0001V11C18.0001 11.2652 18.1055 11.5196 18.293 11.7071C18.4805 11.8946 18.7349 12 19.0001 12H25.0001V27H24.0001C23.7349 27 23.4805 27.1054 23.293 27.2929C23.1055 27.4804 23.0001 27.7348 23.0001 28C23.0001 28.2652 23.1055 28.5196 23.293 28.7071C23.4805 28.8946 23.7349 29 24.0001 29H25.0001C25.5305 29 26.0392 28.7893 26.4143 28.4142C26.7894 28.0391 27.0001 27.5304 27.0001 27V11C27.0016 10.734 26.8983 10.478 26.7126 10.2875ZM20.0001 10V6.4125L23.5876 10H20.0001ZM19.8376 27.45C19.9341 27.6019 19.9894 27.7762 19.9982 27.9559C20.007 28.1356 19.9689 28.3145 19.8876 28.475C19.8013 28.6349 19.6731 28.7682 19.5167 28.8607C19.3604 28.9532 19.1818 29.0014 19.0001 29H3.0001C2.82055 28.9991 2.64456 28.9499 2.49059 28.8575C2.33663 28.7651 2.21038 28.633 2.1251 28.475C2.03931 28.3186 1.99749 28.1418 2.00409 27.9636C2.0107 27.7853 2.06547 27.6121 2.1626 27.4625L6.2376 21.1125C6.37335 20.9009 6.56011 20.7268 6.78072 20.6063C7.00132 20.4857 7.24869 20.4225 7.5001 20.4225C7.7515 20.4225 7.99887 20.4857 8.21947 20.6063C8.44008 20.7268 8.62684 20.9009 8.7626 21.1125L9.5626 22.3625L11.7501 19.075C11.8869 18.8687 12.0727 18.6995 12.2908 18.5825C12.5089 18.4654 12.7526 18.4042 13.0001 18.4042C13.2476 18.4042 13.4913 18.4654 13.7094 18.5825C13.9275 18.6995 14.1133 18.8687 14.2501 19.075L19.8376 27.45Z" fill="#344054"/>
</svg>
