<svg width="32" height="32" viewBox="0 0 32 32" fill="none" xmlns="http://www.w3.org/2000/svg">
<path d="M26 4H6C5.46957 4 4.96086 4.21071 4.58579 4.58579C4.21071 4.96086 4 5.46957 4 6V19.9875V26C4 26.5304 4.21071 27.0391 4.58579 27.4142C4.96086 27.7893 5.46957 28 6 28H26C26.5304 28 27.0391 27.7893 27.4142 27.4142C27.7893 27.0391 28 26.5304 28 26V6C28 5.46957 27.7893 4.96086 27.4142 4.58579C27.0391 4.21071 26.5304 4 26 4ZM26 26H6V21H9.5875L12 23.4125C12.185 23.5989 12.405 23.7468 12.6475 23.8476C12.8899 23.9484 13.1499 24.0002 13.4125 24H18.5875C18.8501 24.0002 19.1101 23.9484 19.3525 23.8476C19.595 23.7468 19.815 23.5989 20 23.4125L22.4125 21H26V26Z" fill="#344054"/>
</svg>
