<svg width="32" height="32" viewBox="0 0 32 32" fill="none" xmlns="http://www.w3.org/2000/svg">
<path d="M23.5 22V23H25.5C25.7652 23 26.0195 23.1054 26.2071 23.2929C26.3946 23.4804 26.5 23.7348 26.5 24C26.5 24.2652 26.3946 24.5196 26.2071 24.7071C26.0195 24.8946 25.7652 25 25.5 25H23.5V26H26C26.2652 26 26.5195 26.1054 26.7071 26.2929C26.8946 26.4804 27 26.7348 27 27C27 27.2652 26.8946 27.5196 26.7071 27.7071C26.5195 27.8946 26.2652 28 26 28H22.5C22.2347 28 21.9804 27.8946 21.7928 27.7071C21.6053 27.5196 21.5 27.2652 21.5 27V21C21.5 20.7348 21.6053 20.4804 21.7928 20.2929C21.9804 20.1054 22.2347 20 22.5 20H26C26.2652 20 26.5195 20.1054 26.7071 20.2929C26.8946 20.4804 27 20.7348 27 21C27 21.2652 26.8946 21.5196 26.7071 21.7071C26.5195 21.8946 26.2652 22 26 22H23.5ZM10.8875 20.075C10.766 20.0237 10.6357 19.997 10.5039 19.9962C10.3721 19.9955 10.2414 20.0209 10.1194 20.0708C9.99746 20.1208 9.88656 20.1943 9.79312 20.2873C9.69968 20.3803 9.62553 20.4908 9.57496 20.6125L7.99996 24.4L6.42496 20.6125C6.32219 20.3672 6.12617 20.1727 5.88003 20.0719C5.63389 19.9711 5.35778 19.9722 5.11246 20.075C4.86713 20.1778 4.67268 20.3738 4.57188 20.6199C4.47108 20.8661 4.47219 21.1422 4.57496 21.3875L7.07496 27.3875C7.1503 27.5709 7.27846 27.7278 7.44317 27.8382C7.60787 27.9486 7.80168 28.0075 7.99996 28.0075C8.19824 28.0075 8.39205 27.9486 8.55675 27.8382C8.72145 27.7278 8.84962 27.5709 8.92496 27.3875L11.425 21.3875C11.4762 21.2661 11.503 21.1357 11.5037 21.0039C11.5044 20.8721 11.4791 20.7415 11.4291 20.6195C11.3792 20.4975 11.3056 20.3866 11.2127 20.2932C11.1197 20.1997 11.0092 20.1256 10.8875 20.075ZM18.5 20C18.2347 20 17.9804 20.1054 17.7928 20.2929C17.6053 20.4804 17.5 20.7348 17.5 21V24.75C17.5 25.0815 17.3683 25.3995 17.1338 25.6339C16.8994 25.8683 16.5815 26 16.25 26C15.9184 26 15.6005 25.8683 15.3661 25.6339C15.1317 25.3995 15 25.0815 15 24.75V21C15 20.7348 14.8946 20.4804 14.7071 20.2929C14.5195 20.1054 14.2652 20 14 20C13.7347 20 13.4804 20.1054 13.2929 20.2929C13.1053 20.4804 13 20.7348 13 21V24.75C13 25.612 13.3424 26.4386 13.9519 27.0481C14.5614 27.6576 15.388 28 16.25 28C17.1119 28 17.9386 27.6576 18.5481 27.0481C19.1575 26.4386 19.5 25.612 19.5 24.75V21C19.5 20.7348 19.3946 20.4804 19.2071 20.2929C19.0195 20.1054 18.7652 20 18.5 20ZM27 11V16C27 16.2652 26.8946 16.5196 26.7071 16.7071C26.5195 16.8946 26.2652 17 26 17H5.99996C5.73474 17 5.48039 16.8946 5.29285 16.7071C5.10531 16.5196 4.99996 16.2652 4.99996 16V5C4.99996 4.46957 5.21067 3.96086 5.58574 3.58579C5.96082 3.21071 6.46952 3 6.99996 3H19C19.266 2.9985 19.522 3.10178 19.7125 3.2875L26.7125 10.2875C26.8982 10.478 27.0015 10.734 27 11ZM24.5 11L19 5.5V11H24.5Z" fill="#344054"/>
</svg>
