<svg width="32" height="32" viewBox="0 0 32 32" fill="none" xmlns="http://www.w3.org/2000/svg">
<path d="M19 7V22C19 22.2652 18.8946 22.5196 18.7071 22.7071C18.5196 22.8946 18.2652 23 18 23C17.7348 23 17.4804 22.8946 17.2929 22.7071C17.1054 22.5196 17 22.2652 17 22V15.5H6V22C6 22.2652 5.89464 22.5196 5.70711 22.7071C5.51957 22.8946 5.26522 23 5 23C4.73478 23 4.48043 22.8946 4.29289 22.7071C4.10536 22.5196 4 22.2652 4 22V7C4 6.73478 4.10536 6.48043 4.29289 6.29289C4.48043 6.10536 4.73478 6 5 6C5.26522 6 5.51957 6.10536 5.70711 6.29289C5.89464 6.48043 6 6.73478 6 7V13.5H17V7C17 6.73478 17.1054 6.48043 17.2929 6.29289C17.4804 6.10536 17.7348 6 18 6C18.2652 6 18.5196 6.10536 18.7071 6.29289C18.8946 6.48043 19 6.73478 19 7ZM27.975 12.6125C27.8145 12.5312 27.6356 12.4931 27.4559 12.5019C27.2762 12.5107 27.1019 12.566 26.95 12.6625L23.95 14.6625C23.7279 14.8084 23.5728 15.0365 23.5189 15.2967C23.465 15.5569 23.5166 15.8279 23.6625 16.05C23.8084 16.2721 24.0365 16.4272 24.2967 16.4811C24.5569 16.535 24.8279 16.4834 25.05 16.3375L26.5 15.3625V25C26.5 25.2652 26.6054 25.5196 26.7929 25.7071C26.9804 25.8946 27.2348 26 27.5 26C27.7652 26 28.0196 25.8946 28.2071 25.7071C28.3946 25.5196 28.5 25.2652 28.5 25V13.5C28.5014 13.3183 28.4532 13.1397 28.3607 12.9834C28.2682 12.827 28.1349 12.6988 27.975 12.6125Z" fill="#344054"/>
</svg>
