<svg width="32" height="32" viewBox="0 0 32 32" fill="none" xmlns="http://www.w3.org/2000/svg">
<path d="M19 7V22C19 22.2652 18.8946 22.5196 18.7071 22.7071C18.5196 22.8946 18.2652 23 18 23C17.7348 23 17.4804 22.8946 17.2929 22.7071C17.1054 22.5196 17 22.2652 17 22V15.5H6V22C6 22.2652 5.89464 22.5196 5.70711 22.7071C5.51957 22.8946 5.26522 23 5 23C4.73478 23 4.48043 22.8946 4.29289 22.7071C4.10536 22.5196 4 22.2652 4 22V7C4 6.73478 4.10536 6.48043 4.29289 6.29289C4.48043 6.10536 4.73478 6 5 6C5.26522 6 5.51957 6.10536 5.70711 6.29289C5.89464 6.48043 6 6.73478 6 7V13.5H17V7C17 6.73478 17.1054 6.48043 17.2929 6.29289C17.4804 6.10536 17.7348 6 18 6C18.2652 6 18.5196 6.10536 18.7071 6.29289C18.8946 6.48043 19 6.73478 19 7ZM31.5 21C31.5021 21.6884 31.3461 22.3681 31.0442 22.9869C30.7423 23.6056 30.3025 24.1467 29.7586 24.5688C29.2147 24.9908 28.5812 25.2824 27.9069 25.4211C27.2326 25.5599 26.5355 25.542 25.8691 25.369C25.2028 25.196 24.585 24.8724 24.0634 24.4232C23.5418 23.9739 23.1302 23.411 22.8603 22.7777C22.5904 22.1443 22.4694 21.4575 22.5066 20.7701C22.5438 20.0827 22.7383 19.413 23.075 18.8125L23.1125 18.7375L27.1375 11.9875C27.2734 11.7588 27.4946 11.5934 27.7525 11.5277C28.0104 11.4621 28.2838 11.5016 28.5125 11.6375C28.7412 11.7734 28.9066 11.9947 28.9723 12.2525C29.0379 12.5104 28.9984 12.7838 28.8625 13.0125L26.775 16.5H27C28.1935 16.5 29.3381 16.9741 30.182 17.818C31.0259 18.6619 31.5 19.8065 31.5 21ZM29.5 21C29.5 20.5055 29.3534 20.0222 29.0787 19.6111C28.804 19.2 28.4135 18.8795 27.9567 18.6903C27.4999 18.5011 26.9972 18.4516 26.5123 18.548C26.0273 18.6445 25.5819 18.8826 25.2322 19.2322C24.8826 19.5819 24.6445 20.0273 24.548 20.5123C24.4516 20.9972 24.5011 21.4999 24.6903 21.9567C24.8795 22.4135 25.2 22.804 25.6111 23.0787C26.0222 23.3534 26.5055 23.5 27 23.5C27.662 23.4967 28.296 23.2323 28.7641 22.7641C29.2323 22.296 29.4967 21.662 29.5 21Z" fill="#344054"/>
</svg>
