<svg width="32" height="32" viewBox="0 0 32 32" fill="none" xmlns="http://www.w3.org/2000/svg">
<path d="M26.7125 10.2875L19.7125 3.2875C19.522 3.10178 19.266 2.9985 19 3H7C6.46957 3 5.96086 3.21071 5.58579 3.58579C5.21071 3.96086 5 4.46957 5 5V16C5 16.2652 5.10536 16.5196 5.29289 16.7071C5.48043 16.8946 5.73478 17 6 17H26C26.2652 17 26.5196 16.8946 26.7071 16.7071C26.8946 16.5196 27 16.2652 27 16V11C27.0015 10.734 26.8982 10.478 26.7125 10.2875ZM19 11V5.5L24.5 11H19ZM8 20H6C5.73478 20 5.48043 20.1054 5.29289 20.2929C5.10536 20.4804 5 20.7348 5 21V27C5 27.2652 5.10536 27.5196 5.29289 27.7071C5.48043 27.8946 5.73478 28 6 28C6.26522 28 6.51957 27.8946 6.70711 27.7071C6.89464 27.5196 7 27.2652 7 27V26H8C8.79565 26 9.55871 25.6839 10.1213 25.1213C10.6839 24.5587 11 23.7956 11 23C11 22.2044 10.6839 21.4413 10.1213 20.8787C9.55871 20.3161 8.79565 20 8 20ZM8 24H7V22H8C8.26522 22 8.51957 22.1054 8.70711 22.2929C8.89464 22.4804 9 22.7348 9 23C9 23.2652 8.89464 23.5196 8.70711 23.7071C8.51957 23.8946 8.26522 24 8 24ZM16 20H14C13.7348 20 13.4804 20.1054 13.2929 20.2929C13.1054 20.4804 13 20.7348 13 21V27C13 27.2652 13.1054 27.5196 13.2929 27.7071C13.4804 27.8946 13.7348 28 14 28C14.2652 28 14.5196 27.8946 14.7071 27.7071C14.8946 27.5196 15 27.2652 15 27V26H16C16.7956 26 17.5587 25.6839 18.1213 25.1213C18.6839 24.5587 19 23.7956 19 23C19 22.2044 18.6839 21.4413 18.1213 20.8787C17.5587 20.3161 16.7956 20 16 20ZM16 24H15V22H16C16.2652 22 16.5196 22.1054 16.7071 22.2929C16.8946 22.4804 17 22.7348 17 23C17 23.2652 16.8946 23.5196 16.7071 23.7071C16.5196 23.8946 16.2652 24 16 24ZM27 21C27 21.2652 26.8946 21.5196 26.7071 21.7071C26.5196 21.8946 26.2652 22 26 22H24.75V27C24.75 27.2652 24.6446 27.5196 24.4571 27.7071C24.2696 27.8946 24.0152 28 23.75 28C23.4848 28 23.2304 27.8946 23.0429 27.7071C22.8554 27.5196 22.75 27.2652 22.75 27V22H21.5C21.2348 22 20.9804 21.8946 20.7929 21.7071C20.6054 21.5196 20.5 21.2652 20.5 21C20.5 20.7348 20.6054 20.4804 20.7929 20.2929C20.9804 20.1054 21.2348 20 21.5 20H26C26.2652 20 26.5196 20.1054 26.7071 20.2929C26.8946 20.4804 27 20.7348 27 21Z" fill="#344054"/>
</svg>
