<svg width="32" height="32" viewBox="0 0 32 32" fill="none" xmlns="http://www.w3.org/2000/svg">
<path d="M26.7125 10.2875L19.7125 3.2875C19.522 3.10178 19.266 2.9985 19 3H7C6.46957 3 5.96086 3.21071 5.58579 3.58579C5.21071 3.96086 5 4.46957 5 5V16C5 16.2652 5.10536 16.5196 5.29289 16.7071C5.48043 16.8946 5.73478 17 6 17H26C26.2652 17 26.5196 16.8946 26.7071 16.7071C26.8946 16.5196 27 16.2652 27 16V11C27.0015 10.734 26.8982 10.478 26.7125 10.2875ZM19 11V5.5L24.5 11H19ZM11.5 21C11.5 21.2652 11.3946 21.5196 11.2071 21.7071C11.0196 21.8946 10.7652 22 10.5 22H9.25V27C9.25 27.2652 9.14464 27.5196 8.95711 27.7071C8.76957 27.8946 8.51522 28 8.25 28C7.98478 28 7.73043 27.8946 7.54289 27.7071C7.35536 27.5196 7.25 27.2652 7.25 27V22H6C5.73478 22 5.48043 21.8946 5.29289 21.7071C5.10536 21.5196 5 21.2652 5 21C5 20.7348 5.10536 20.4804 5.29289 20.2929C5.48043 20.1054 5.73478 20 6 20H10.5C10.7652 20 11.0196 20.1054 11.2071 20.2929C11.3946 20.4804 11.5 20.7348 11.5 21ZM26.8 21.6L25 24L26.8 26.4C26.8788 26.5051 26.9361 26.6246 26.9687 26.7518C27.0013 26.879 27.0085 27.0114 26.99 27.1414C26.9714 27.2714 26.9274 27.3965 26.8605 27.5095C26.7936 27.6225 26.7051 27.7212 26.6 27.8C26.4282 27.9323 26.2168 28.0028 26 28C25.8448 28 25.6916 27.9639 25.5528 27.8944C25.4139 27.825 25.2931 27.7242 25.2 27.6L23.75 25.6625L22.3 27.6C22.2069 27.7242 22.0861 27.825 21.9472 27.8944C21.8084 27.9639 21.6552 28 21.5 28C21.2832 28.0028 21.0718 27.9323 20.9 27.8C20.6906 27.6389 20.5524 27.4023 20.5151 27.1407C20.4777 26.8791 20.5441 26.6133 20.7 26.4L22.5 24L20.7 21.6C20.5441 21.3867 20.4777 21.1209 20.5151 20.8593C20.5524 20.5977 20.6906 20.3611 20.9 20.2C21.1122 20.0409 21.3789 19.9725 21.6414 20.01C21.904 20.0476 22.1409 20.1878 22.3 20.4L23.75 22.3375L25.2 20.4C25.2788 20.2949 25.3775 20.2064 25.4905 20.1395C25.6035 20.0726 25.7286 20.0286 25.8586 20.01C25.9886 19.9915 26.121 19.9987 26.2482 20.0313C26.3754 20.0639 26.4949 20.1212 26.6 20.2C26.7051 20.2788 26.7936 20.3775 26.8605 20.4905C26.9274 20.6035 26.9714 20.7286 26.99 20.8586C27.0085 20.9886 27.0013 21.121 26.9687 21.2482C26.9361 21.3754 26.8788 21.4949 26.8 21.6ZM19 25.5C19 27.1375 17.8375 28.125 15.875 28.125C14.9674 28.1223 14.0853 27.8239 13.3625 27.275C13.2457 27.1832 13.152 27.0652 13.0891 26.9306C13.0261 26.796 12.9956 26.6485 13 26.5C13 26.2348 13.1054 25.9804 13.2929 25.7929C13.4804 25.6054 13.7348 25.5 14 25.5C14.2317 25.5017 14.4561 25.5809 14.6375 25.725H14.625C14.994 25.9769 15.4283 26.1159 15.875 26.125C17 26.125 17 25.75 17 25.5C17 25.25 17 25.3875 16.85 25.3C16.7 25.2125 16.125 25.025 15.7 24.9125C14.625 24.625 13 24.1875 13 22.5C13 20.8125 14.1875 19.875 15.875 19.875C16.7826 19.8777 17.6647 20.1761 18.3875 20.725C18.5043 20.8168 18.598 20.9348 18.6609 21.0694C18.7239 21.204 18.7544 21.3515 18.75 21.5C18.75 21.7652 18.6446 22.0196 18.4571 22.2071C18.2696 22.3946 18.0152 22.5 17.75 22.5C17.5183 22.4983 17.2939 22.4191 17.1125 22.275H17.125C16.756 22.0231 16.3217 21.8841 15.875 21.875C15.3 21.875 15 22.0875 15 22.5V22.525C15.1375 22.6875 15.825 22.875 16.2125 22.975C17.25 23.25 19 23.7125 19 25.5Z" fill="#344054"/>
</svg>
