<svg width="32" height="32" viewBox="0 0 32 32" fill="none" xmlns="http://www.w3.org/2000/svg">
<path d="M30.2376 13.825C30.05 13.5701 29.8053 13.3626 29.5231 13.2194C29.2409 13.0761 28.9291 13.001 28.6126 13H27.0001V11C27.0001 10.4696 26.7894 9.96085 26.4143 9.58578C26.0392 9.21071 25.5305 9 25.0001 9H16.3376L12.8626 6.4C12.5181 6.13703 12.0959 5.99629 11.6626 6H5.00008C4.46965 6 3.96094 6.21071 3.58587 6.58578C3.21079 6.96085 3.00008 7.46956 3.00008 8V26C2.9984 26.1318 3.02312 26.2626 3.07278 26.3847C3.12244 26.5067 3.19604 26.6176 3.28923 26.7108C3.38243 26.804 3.49334 26.8776 3.61542 26.9273C3.7375 26.977 3.86829 27.0017 4.00008 27H26.0001C26.2106 27 26.4158 26.9336 26.5864 26.8101C26.757 26.6867 26.8843 26.5125 26.9501 26.3125L30.5126 15.6375C30.6115 15.3349 30.6382 15.0133 30.5904 14.6986C30.5427 14.3838 30.4218 14.0846 30.2376 13.825ZM11.6626 8L15.1376 10.6C15.482 10.863 15.9042 11.0037 16.3376 11H25.0001V13H8.72508C8.30549 12.9991 7.89623 13.1302 7.55525 13.3747C7.21427 13.6192 6.95882 13.9648 6.82508 14.3625L5.00008 19.8375V8H11.6626Z" fill="#344054"/>
</svg>
