<svg width="32" height="32" viewBox="0 0 32 32" fill="none" xmlns="http://www.w3.org/2000/svg">
<path d="M28 16C28 16.2652 27.8946 16.5196 27.7071 16.7071C27.5196 16.8946 27.2652 17 27 17H21.9875C23.1375 17.8875 24 19.15 24 21C24 22.85 23.125 24.2125 21.525 25.35C19.925 26.4875 18.075 27 16 27C13.925 27 11.9625 26.4125 10.475 25.35C8.9875 24.2875 8 22.6625 8 21C8 20.7348 8.10536 20.4804 8.29289 20.2929C8.48043 20.1054 8.73478 20 9 20C9.26522 20 9.51957 20.1054 9.70711 20.2929C9.89464 20.4804 10 20.7348 10 21C10 23.1625 12.75 25 16 25C19.25 25 22 23.1625 22 21C22 19.1375 20.6875 18.05 17.15 17H5C4.73478 17 4.48043 16.8946 4.29289 16.7071C4.10536 16.5196 4 16.2652 4 16C4 15.7348 4.10536 15.4804 4.29289 15.2929C4.48043 15.1054 4.73478 15 5 15H27C27.2652 15 27.5196 15.1054 27.7071 15.2929C27.8946 15.4804 28 15.7348 28 16ZM9.5375 13C9.64386 13.0028 9.74981 12.9858 9.85 12.95C9.97476 12.909 10.0902 12.8438 10.1898 12.7581C10.2893 12.6725 10.3711 12.568 10.4303 12.4508C10.4894 12.3336 10.525 12.2058 10.5348 12.0748C10.5446 11.9439 10.5285 11.8123 10.4875 11.6875C10.421 11.4644 10.3873 11.2328 10.3875 11C10.3875 8.725 12.8 7 16 7C18.4375 7 20.5125 8.0375 21.2875 9.625C21.4059 9.8615 21.6121 10.0423 21.862 10.1287C22.112 10.2152 22.3858 10.2004 22.625 10.0875C22.7444 10.0314 22.8514 9.952 22.9396 9.85391C23.0278 9.75581 23.0954 9.64104 23.1385 9.51637C23.1817 9.39169 23.1993 9.25964 23.1906 9.12802C23.1818 8.99639 23.1468 8.86786 23.0875 8.75C21.9625 6.4375 19.25 5 16 5C11.6625 5 8.3875 7.575 8.3875 11C8.38891 11.445 8.45631 11.8873 8.5875 12.3125C8.6533 12.5125 8.78056 12.6867 8.95115 12.8101C9.12173 12.9336 9.32693 13 9.5375 13Z" fill="#344054"/>
</svg>
