<svg width="32" height="32" viewBox="0 0 32 32" fill="none" xmlns="http://www.w3.org/2000/svg">
<path d="M26.7125 10.2875L19.7125 3.2875C19.522 3.10178 19.266 2.9985 19 3H7C6.46957 3 5.96086 3.21071 5.58579 3.58579C5.21071 3.96086 5 4.46957 5 5V27C5 27.5304 5.21071 28.0391 5.58579 28.4142C5.96086 28.7893 6.46957 29 7 29H25C25.5304 29 26.0391 28.7893 26.4142 28.4142C26.7893 28.0391 27 27.5304 27 27V11C27.0015 10.734 26.8982 10.478 26.7125 10.2875ZM19.7125 21.2875C19.9003 21.4771 20.0056 21.7332 20.0056 22C20.0056 22.2668 19.9003 22.5229 19.7125 22.7125C19.5214 22.8973 19.2659 23.0006 19 23.0006C18.7341 23.0006 18.4786 22.8973 18.2875 22.7125L16 20.4125L13.7125 22.7125C13.5214 22.8973 13.2659 23.0006 13 23.0006C12.7341 23.0006 12.4786 22.8973 12.2875 22.7125C12.0997 22.5229 11.9944 22.2668 11.9944 22C11.9944 21.7332 12.0997 21.4771 12.2875 21.2875L14.5875 19L12.2875 16.7125C12.128 16.5182 12.0465 16.2715 12.0589 16.0205C12.0712 15.7694 12.1765 15.5319 12.3542 15.3542C12.5319 15.1765 12.7694 15.0712 13.0205 15.0589C13.2715 15.0465 13.5182 15.128 13.7125 15.2875L16 17.5875L18.2875 15.2875C18.4818 15.128 18.7285 15.0465 18.9795 15.0589C19.2306 15.0712 19.4681 15.1765 19.6458 15.3542C19.8235 15.5319 19.9288 15.7694 19.9411 16.0205C19.9535 16.2715 19.872 16.5182 19.7125 16.7125L17.4125 19L19.7125 21.2875ZM19 11V5.5L24.5 11H19Z" fill="#344054"/>
</svg>
