<svg width="32" height="32" viewBox="0 0 32 32" fill="none" xmlns="http://www.w3.org/2000/svg">
<path d="M26 4H6C5.46957 4 4.96086 4.21071 4.58579 4.58579C4.21071 4.96086 4 5.46957 4 6V26C4 26.5304 4.21071 27.0391 4.58579 27.4142C4.96086 27.7893 5.46957 28 6 28H19.5875C19.8501 28.0002 20.1101 27.9484 20.3525 27.8476C20.595 27.7468 20.815 27.5989 21 27.4125L27.4125 21C27.5989 20.815 27.7468 20.595 27.8476 20.3525C27.9484 20.1101 28.0002 19.8501 28 19.5875V6C28 5.46957 27.7893 4.96086 27.4142 4.58579C27.0391 4.21071 26.5304 4 26 4ZM20 25.5875V20H25.5875L20 25.5875Z" fill="#344054"/>
</svg>
