<svg width="32" height="32" viewBox="0 0 32 32" fill="none" xmlns="http://www.w3.org/2000/svg">
<path d="M27 8H22V7C21.9967 6.20536 21.6796 5.44421 21.1177 4.88232C20.5558 4.32042 19.7946 4.00329 19 4H13C12.2054 4.00329 11.4442 4.32042 10.8823 4.88232C10.3204 5.44421 10.0033 6.20536 10 7V8H5C4.46957 8 3.96086 8.21071 3.58579 8.58579C3.21071 8.96086 3 9.46957 3 10V26C3 26.5304 3.21071 27.0391 3.58579 27.4142C3.96086 27.7893 4.46957 28 5 28H27C27.5304 28 28.0391 27.7893 28.4142 27.4142C28.7893 27.0391 29 26.5304 29 26V10C29 9.46957 28.7893 8.96086 28.4142 8.58579C28.0391 8.21071 27.5304 8 27 8ZM12 7C12 6.73478 12.1054 6.48043 12.2929 6.29289C12.4804 6.10536 12.7348 6 13 6H19C19.2652 6 19.5196 6.10536 19.7071 6.29289C19.8946 6.48043 20 6.73478 20 7V8H12V7ZM27 10V15.2C23.6256 17.0397 19.8433 18.0024 16 18C12.1567 18.0024 8.37438 17.0397 5 15.2V10H27ZM13.5 15C13.5 14.7348 13.6054 14.4804 13.7929 14.2929C13.9804 14.1054 14.2348 14 14.5 14H17.5C17.7652 14 18.0196 14.1054 18.2071 14.2929C18.3946 14.4804 18.5 14.7348 18.5 15C18.5 15.2652 18.3946 15.5196 18.2071 15.7071C18.0196 15.8946 17.7652 16 17.5 16H14.5C14.2348 16 13.9804 15.8946 13.7929 15.7071C13.6054 15.5196 13.5 15.2652 13.5 15Z" fill="#344054"/>
</svg>
