<svg width="32" height="32" viewBox="0 0 32 32" fill="none" xmlns="http://www.w3.org/2000/svg">
<path d="M26.7125 10.2875L19.7125 3.2875C19.522 3.10178 19.266 2.9985 19 3H7C6.46957 3 5.96086 3.21071 5.58579 3.58579C5.21071 3.96086 5 4.46957 5 5V27C5 27.5304 5.21071 28.0391 5.58579 28.4142C5.96086 28.7893 6.46957 29 7 29H25C25.5304 29 26.0391 28.7893 26.4142 28.4142C26.7893 28.0391 27 27.5304 27 27V11C27.0015 10.734 26.8982 10.478 26.7125 10.2875ZM20.2125 20.2125L16.7125 23.7125C16.5214 23.8973 16.2659 24.0006 16 24.0006C15.7341 24.0006 15.4786 23.8973 15.2875 23.7125L11.7875 20.2125C11.628 20.0182 11.5465 19.7715 11.5589 19.5205C11.5712 19.2694 11.6765 19.0319 11.8542 18.8542C12.0319 18.6765 12.2694 18.5712 12.5205 18.5589C12.7715 18.5465 13.0182 18.628 13.2125 18.7875L15 20.5875V15C15 14.7348 15.1054 14.4804 15.2929 14.2929C15.4804 14.1054 15.7348 14 16 14C16.2652 14 16.5196 14.1054 16.7071 14.2929C16.8946 14.4804 17 14.7348 17 15V20.5875L18.7875 18.7875C18.9818 18.628 19.2285 18.5465 19.4795 18.5589C19.7306 18.5712 19.9681 18.6765 20.1458 18.8542C20.3235 19.0319 20.4288 19.2694 20.4411 19.5205C20.4535 19.7715 20.372 20.0182 20.2125 20.2125ZM19 11V5.5L24.5 11H19Z" fill="#344054"/>
</svg>
