<svg width="32" height="32" viewBox="0 0 32 32" fill="none" xmlns="http://www.w3.org/2000/svg">
<path d="M11.5 21C11.5 21.2652 11.3946 21.5196 11.2071 21.7071C11.0196 21.8946 10.7652 22 10.5 22H9.25V27C9.25 27.2652 9.14464 27.5196 8.95711 27.7071C8.76957 27.8946 8.51522 28 8.25 28C7.98478 28 7.73043 27.8946 7.54289 27.7071C7.35536 27.5196 7.25 27.2652 7.25 27V22H6C5.73478 22 5.48043 21.8946 5.29289 21.7071C5.10536 21.5196 5 21.2652 5 21C5 20.7348 5.10536 20.4804 5.29289 20.2929C5.48043 20.1054 5.73478 20 6 20H10.5C10.7652 20 11.0196 20.1054 11.2071 20.2929C11.3946 20.4804 11.5 20.7348 11.5 21ZM16.2125 22.975C15.825 22.875 15.1375 22.6875 15 22.525V22.5C15 22.0875 15.3 21.875 15.875 21.875C16.3217 21.8841 16.756 22.0231 17.125 22.275H17.1125C17.2939 22.4191 17.5183 22.4983 17.75 22.5C18.0152 22.5 18.2696 22.3946 18.4571 22.2071C18.6446 22.0196 18.75 21.7652 18.75 21.5C18.7524 21.3536 18.721 21.2085 18.6581 21.0763C18.5952 20.944 18.5026 20.8281 18.3875 20.7375C17.6662 20.1841 16.7841 19.8813 15.875 19.875C14.1875 19.875 13 20.95 13 22.5C13 24.05 14.625 24.625 15.7 24.9125C16.125 25.025 16.575 25.1375 16.85 25.3C17.125 25.4625 17 25.425 17 25.5C17 25.575 17 26.125 15.875 26.125C15.4283 26.1159 14.994 25.9769 14.625 25.725H14.6375C14.4561 25.5809 14.2317 25.5017 14 25.5C13.7348 25.5 13.4804 25.6054 13.2929 25.7929C13.1054 25.9804 13 26.2348 13 26.5C12.9976 26.6464 13.029 26.7915 13.0919 26.9237C13.1548 27.056 13.2474 27.1719 13.3625 27.2625C14.0838 27.8159 14.9659 28.1187 15.875 28.125C17.8375 28.125 19 27.1375 19 25.5C19 23.8625 17.25 23.25 16.2125 22.975ZM27 11V27C27 27.5304 26.7893 28.0391 26.4142 28.4142C26.0391 28.7893 25.5304 29 25 29H23C22.7348 29 22.4804 28.8946 22.2929 28.7071C22.1054 28.5196 22 28.2652 22 28V18C22 17.7348 21.8946 17.4804 21.7071 17.2929C21.5196 17.1054 21.2652 17 21 17H6C5.73478 17 5.48043 16.8946 5.29289 16.7071C5.10536 16.5196 5 16.2652 5 16V5C5 4.46957 5.21071 3.96086 5.58579 3.58579C5.96086 3.21071 6.46957 3 7 3H19C19.266 2.9985 19.522 3.10178 19.7125 3.2875L26.7125 10.2875C26.8982 10.478 27.0015 10.734 27 11ZM24.5 11L19 5.5V11H24.5Z" fill="#344054"/>
</svg>
