<svg width="32" height="32" viewBox="0 0 32 32" fill="none" xmlns="http://www.w3.org/2000/svg">
<path d="M26 4H21.5C21.3674 4 21.2402 4.05268 21.1464 4.14645C21.0527 4.24022 21 4.36739 21 4.5V10C21 10.2652 20.8946 10.5196 20.7071 10.7071C20.5196 10.8946 20.2652 11 20 11H12.0375C11.778 11.0041 11.5266 10.9096 11.3341 10.7356C11.1415 10.5616 11.0221 10.3211 11 10.0625C10.9915 9.92602 11.011 9.78923 11.0574 9.6606C11.1038 9.53196 11.1761 9.41422 11.2698 9.31463C11.3636 9.21505 11.4767 9.13575 11.6023 9.08163C11.7279 9.02752 11.8633 8.99973 12 9H19V4.5C19 4.36739 18.9473 4.24022 18.8536 4.14645C18.7598 4.05268 18.6326 4 18.5 4H11.4125C11.1499 3.99977 10.8899 4.05157 10.6475 4.1524C10.405 4.25324 10.185 4.40112 10 4.5875L4.5875 10C4.40112 10.185 4.25324 10.405 4.1524 10.6475C4.05157 10.8899 3.99977 11.1499 4 11.4125V26C4 26.5304 4.21071 27.0391 4.58579 27.4142C4.96086 27.7893 5.46957 28 6 28H26C26.5304 28 27.0391 27.7893 27.4142 27.4142C27.7893 27.0391 28 26.5304 28 26V6C28 5.46957 27.7893 4.96086 27.4142 4.58579C27.0391 4.21071 26.5304 4 26 4ZM16 22C15.3078 22 14.6311 21.7947 14.0555 21.4101C13.4799 21.0256 13.0313 20.4789 12.7664 19.8394C12.5015 19.1999 12.4322 18.4961 12.5673 17.8172C12.7023 17.1383 13.0356 16.5146 13.5251 16.0251C14.0146 15.5356 14.6383 15.2023 15.3172 15.0673C15.9961 14.9322 16.6999 15.0015 17.3394 15.2664C17.9789 15.5313 18.5256 15.9799 18.9101 16.5555C19.2947 17.1311 19.5 17.8078 19.5 18.5C19.4967 19.4272 19.1269 20.3156 18.4712 20.9712C17.8156 21.6269 16.9272 21.9967 16 22Z" fill="#344054"/>
</svg>
