<svg width="32" height="32" viewBox="0 0 32 32" fill="none" xmlns="http://www.w3.org/2000/svg">
<path d="M27 9H16.3375L12.8625 6.4C12.5181 6.13703 12.0958 5.99629 11.6625 6H5C4.46957 6 3.96086 6.21071 3.58579 6.58578C3.21071 6.96085 3 7.46956 3 8V25C3 25.5304 3.21071 26.0391 3.58579 26.4142C3.96086 26.7893 4.46957 27 5 27H27.1125C27.6121 26.9967 28.0903 26.7968 28.4435 26.4435C28.7968 26.0903 28.9967 25.6121 29 25.1125V11C29 10.4696 28.7893 9.96085 28.4142 9.58578C28.0391 9.21071 27.5304 9 27 9Z" fill="#344054"/>
</svg>
