<svg width="32" height="32" viewBox="0 0 32 32" fill="none" xmlns="http://www.w3.org/2000/svg">
<path d="M15 20H13C12.7348 20 12.4804 20.1054 12.2929 20.2929C12.1054 20.4804 12 20.7348 12 21V27C12 27.2652 12.1054 27.5196 12.2929 27.7071C12.4804 27.8946 12.7348 28 13 28C13.2652 28 13.5196 27.8946 13.7071 27.7071C13.8946 27.5196 14 27.2652 14 27V26H15C15.7956 26 16.5587 25.6839 17.1213 25.1213C17.6839 24.5587 18 23.7956 18 23C18 22.2044 17.6839 21.4413 17.1213 20.8787C16.5587 20.3161 15.7956 20 15 20ZM15 24H14V22H15C15.2652 22 15.5196 22.1054 15.7071 22.2929C15.8946 22.4804 16 22.7348 16 23C16 23.2652 15.8946 23.5196 15.7071 23.7071C15.5196 23.8946 15.2652 24 15 24ZM10 21V25C10 25.7956 9.68393 26.5587 9.12132 27.1213C8.55871 27.6839 7.79565 28 7 28C6.20435 28 5.44129 27.6839 4.87868 27.1213C4.31607 26.5587 4 25.7956 4 25C4 24.7348 4.10536 24.4804 4.29289 24.2929C4.48043 24.1054 4.73478 24 5 24C5.26522 24 5.51957 24.1054 5.70711 24.2929C5.89464 24.4804 6 24.7348 6 25C6 25.2652 6.10536 25.5196 6.29289 25.7071C6.48043 25.8946 6.73478 26 7 26C7.26522 26 7.51957 25.8946 7.70711 25.7071C7.89464 25.5196 8 25.2652 8 25V21C8 20.7348 8.10536 20.4804 8.29289 20.2929C8.48043 20.1054 8.73478 20 9 20C9.26522 20 9.51957 20.1054 9.70711 20.2929C9.89464 20.4804 10 20.7348 10 21ZM26 24.25V25.725C26.002 25.9166 25.9453 26.1041 25.8375 26.2625C25.511 26.7888 25.0567 27.2241 24.5169 27.5279C23.9772 27.8316 23.3694 27.994 22.75 28C20.6875 28 19 26.2 19 24C19 21.8 20.6875 20 22.75 20C23.4954 20.0016 24.2213 20.2377 24.825 20.675C25.0132 20.8374 25.1341 21.0641 25.1643 21.3109C25.1944 21.5576 25.1315 21.8068 24.9879 22.0097C24.8443 22.2126 24.6303 22.3548 24.3875 22.4085C24.1448 22.4621 23.8908 22.4235 23.675 22.3C23.406 22.1049 23.0823 21.9999 22.75 22C21.7875 22 21 22.9 21 24C21 25.1 21.7875 26 22.75 26C22.9893 25.9958 23.2248 25.9401 23.4405 25.8365C23.6563 25.733 23.8471 25.5841 24 25.4V25.25H23.5C23.2348 25.25 22.9804 25.1446 22.7929 24.9571C22.6054 24.7696 22.5 24.5152 22.5 24.25C22.5 23.9848 22.6054 23.7304 22.7929 23.5429C22.9804 23.3554 23.2348 23.25 23.5 23.25H25C25.2652 23.25 25.5196 23.3554 25.7071 23.5429C25.8946 23.7304 26 23.9848 26 24.25ZM26.7125 10.2875L19.7125 3.2875C19.522 3.10178 19.266 2.9985 19 3H7C6.46957 3 5.96086 3.21071 5.58579 3.58579C5.21071 3.96086 5 4.46957 5 5V16C5 16.2652 5.10536 16.5196 5.29289 16.7071C5.48043 16.8946 5.73478 17 6 17H26C26.2652 17 26.5196 16.8946 26.7071 16.7071C26.8946 16.5196 27 16.2652 27 16V11C27.0015 10.734 26.8982 10.478 26.7125 10.2875ZM19 11V5.5L24.5 11H19Z" fill="#344054"/>
</svg>
