<svg width="32" height="32" viewBox="0 0 32 32" fill="none" xmlns="http://www.w3.org/2000/svg">
<path d="M26.675 27.7375C26.4894 27.9042 26.2494 27.9976 26 28C25.8612 28 25.724 27.971 25.5971 27.9151C25.4701 27.8591 25.3562 27.7774 25.2625 27.675L21.0125 23H17V30C17 30.2652 16.8946 30.5196 16.7071 30.7071C16.5196 30.8946 16.2652 31 16 31C15.7348 31 15.4804 30.8946 15.2929 30.7071C15.1054 30.5196 15 30.2652 15 30V23H5C4.73478 23 4.48043 22.8946 4.29289 22.7071C4.10536 22.5196 4 22.2652 4 22C4 21.7348 4.10536 21.4804 4.29289 21.2929C4.48043 21.1054 4.73478 21 5 21H6.1625L8.275 9L5.2625 5.675C5.09019 5.47835 5.00175 5.22202 5.01613 4.96095C5.03052 4.69988 5.14658 4.45483 5.33946 4.2783C5.53234 4.10177 5.78668 4.0078 6.048 4.01653C6.30933 4.02526 6.55683 4.13599 6.7375 4.325L16.1375 14.675L22.2 21.325L26.7375 26.325C26.8277 26.4211 26.8977 26.5342 26.9435 26.6578C26.9892 26.7813 27.0098 26.9128 27.004 27.0444C26.9981 27.1761 26.966 27.3052 26.9095 27.4242C26.853 27.5432 26.7733 27.6498 26.675 27.7375ZM23.8125 20.1375C23.9057 20.2405 24.0195 20.3227 24.1466 20.3787C24.2737 20.4347 24.4111 20.4632 24.55 20.4625C24.7013 20.4607 24.8504 20.4266 24.9875 20.3625C25.1825 20.2661 25.3412 20.1096 25.4403 19.916C25.5393 19.7224 25.5734 19.502 25.5375 19.2875L23.1875 6H24C24.2652 6 24.5196 5.89464 24.7071 5.70711C24.8946 5.51957 25 5.26522 25 5C25 4.73478 24.8946 4.48043 24.7071 4.29289C24.5196 4.10536 24.2652 4 24 4H11.4C11.1604 4.00276 10.9297 4.09148 10.75 4.25C10.7053 4.28847 10.6635 4.33025 10.625 4.375C10.5002 4.53741 10.4263 4.73313 10.4125 4.9375C10.3999 4.96965 10.3999 5.00535 10.4125 5.0375C10.4171 5.27302 10.5058 5.49912 10.6625 5.675L23.8125 20.1375Z" fill="#344054"/>
</svg>
