<svg width="32" height="32" viewBox="0 0 32 32" fill="none" xmlns="http://www.w3.org/2000/svg">
<path d="M27 9H16.3375L12.8625 6.4C12.5181 6.13703 12.0958 5.99629 11.6625 6H5C4.46957 6 3.96086 6.21071 3.58579 6.58578C3.21071 6.96085 3 7.46956 3 8V25C3 25.5304 3.21071 26.0391 3.58579 26.4142C3.96086 26.7893 4.46957 27 5 27H27C27.5304 27 28.0391 26.7893 28.4142 26.4142C28.7893 26.0391 29 25.5304 29 25V11C29 10.4696 28.7893 9.96085 28.4142 9.58578C28.0391 9.21071 27.5304 9 27 9ZM5 12V8H11.6625L14.3375 10L11.6625 12H5ZM19 19.5H17V21.5C17 21.7652 16.8946 22.0196 16.7071 22.2071C16.5196 22.3946 16.2652 22.5 16 22.5C15.7348 22.5 15.4804 22.3946 15.2929 22.2071C15.1054 22.0196 15 21.7652 15 21.5V19.5H13C12.7348 19.5 12.4804 19.3946 12.2929 19.2071C12.1054 19.0196 12 18.7652 12 18.5C12 18.2348 12.1054 17.9804 12.2929 17.7929C12.4804 17.6054 12.7348 17.5 13 17.5H15V15.5C15 15.2348 15.1054 14.9804 15.2929 14.7929C15.4804 14.6054 15.7348 14.5 16 14.5C16.2652 14.5 16.5196 14.6054 16.7071 14.7929C16.8946 14.9804 17 15.2348 17 15.5V17.5H19C19.2652 17.5 19.5196 17.6054 19.7071 17.7929C19.8946 17.9804 20 18.2348 20 18.5C20 18.7652 19.8946 19.0196 19.7071 19.2071C19.5196 19.3946 19.2652 19.5 19 19.5Z" fill="#344054"/>
</svg>
