<svg width="32" height="32" viewBox="0 0 32 32" fill="none" xmlns="http://www.w3.org/2000/svg">
<path d="M7.25 20H5.5C5.23478 20 4.98043 20.1054 4.79289 20.2929C4.60536 20.4804 4.5 20.7348 4.5 21V27C4.5 27.2652 4.60536 27.5196 4.79289 27.7071C4.98043 27.8946 5.23478 28 5.5 28H7.25C8.31087 28 9.32828 27.5786 10.0784 26.8284C10.8286 26.0783 11.25 25.0609 11.25 24C11.25 22.9391 10.8286 21.9217 10.0784 21.1716C9.32828 20.4214 8.31087 20 7.25 20ZM7.25 26H6.5V22H7.25C7.78043 22 8.28914 22.2107 8.66421 22.5858C9.03929 22.9609 9.25 23.4696 9.25 24C9.25 24.5304 9.03929 25.0391 8.66421 25.4142C8.28914 25.7893 7.78043 26 7.25 26ZM16.25 20C14.1875 20 12.5 21.8 12.5 24C12.5 26.2 14.1875 28 16.25 28C18.3125 28 20 26.2 20 24C20 21.8 18.3125 20 16.25 20ZM16.25 26C15.2875 26 14.5 25.1 14.5 24C14.5 22.9 15.2875 22 16.25 22C17.2125 22 18 22.9 18 24C18 25.1 17.2125 26 16.25 26ZM27.2375 25.65C27.4165 25.8456 27.5104 26.1043 27.4987 26.3692C27.487 26.6341 27.3705 26.8834 27.175 27.0625C26.5085 27.661 25.6458 27.9946 24.75 28C22.6875 28 21 26.2 21 24C21 21.8 22.6875 20 24.75 20C25.6458 20.0054 26.5085 20.339 27.175 20.9375C27.3705 21.1166 27.487 21.3659 27.4987 21.6308C27.5104 21.8957 27.4165 22.1544 27.2375 22.35C27.1506 22.4492 27.0448 22.5299 26.9262 22.5875C26.8076 22.6451 26.6787 22.6784 26.5471 22.6854C26.4154 22.6924 26.2837 22.673 26.1597 22.6282C26.0357 22.5835 25.9219 22.5144 25.825 22.425C25.5315 22.1553 25.1485 22.0039 24.75 22C23.7875 22 23 22.9 23 24C23 25.1 23.7875 26 24.75 26C25.1485 25.9961 25.5315 25.8447 25.825 25.575C25.9219 25.4856 26.0357 25.4165 26.1597 25.3718C26.2837 25.327 26.4154 25.3076 26.5471 25.3146C26.6787 25.3216 26.8076 25.3549 26.9262 25.4125C27.0448 25.4701 27.1506 25.5508 27.2375 25.65ZM6 17H26C26.2652 17 26.5196 16.8946 26.7071 16.7071C26.8946 16.5196 27 16.2652 27 16V11C27.0015 10.734 26.8982 10.478 26.7125 10.2875L19.7125 3.2875C19.522 3.10178 19.266 2.9985 19 3H7C6.46957 3 5.96086 3.21071 5.58579 3.58579C5.21071 3.96086 5 4.46957 5 5V16C5 16.2652 5.10536 16.5196 5.29289 16.7071C5.48043 16.8946 5.73478 17 6 17ZM19 5.5L24.5 11H19V5.5Z" fill="#344054"/>
</svg>
