<svg width="32" height="32" viewBox="0 0 32 32" fill="none" xmlns="http://www.w3.org/2000/svg">
<path d="M26 4H6C5.46957 4 4.96086 4.21071 4.58579 4.58579C4.21071 4.96086 4 5.46957 4 6V19.9875V26C4 26.5304 4.21071 27.0391 4.58579 27.4142C4.96086 27.7893 5.46957 28 6 28H26C26.5304 28 27.0391 27.7893 27.4142 27.4142C27.7893 27.0391 28 26.5304 28 26V6C28 5.46957 27.7893 4.96086 27.4142 4.58579C27.0391 4.21071 26.5304 4 26 4ZM11.05 14.05C11.2375 13.863 11.4915 13.758 11.7563 13.758C12.021 13.758 12.275 13.863 12.4625 14.05L15 16.5875V9C15 8.73478 15.1054 8.48043 15.2929 8.29289C15.4804 8.10536 15.7348 8 16 8C16.2652 8 16.5196 8.10536 16.7071 8.29289C16.8946 8.48043 17 8.73478 17 9V16.5875L19.5375 14.05C19.7277 13.8776 19.9769 13.785 20.2336 13.7914C20.4902 13.7977 20.7345 13.9024 20.9161 14.0839C21.0976 14.2655 21.2023 14.5098 21.2086 14.7664C21.215 15.0231 21.1224 15.2723 20.95 15.4625L16.7125 19.7125H16.6875L16.6375 19.7625H16.6125L16.55 19.8C16.55 19.8125 16.5375 19.8125 16.5375 19.825L16.475 19.8625H16.45L16.3875 19.9H16.375L16.2875 19.9375H15.7125L15.625 19.9H15.6125L15.55 19.8625H15.525L15.4625 19.825C15.4625 19.8125 15.45 19.8125 15.45 19.8L15.3875 19.7625H15.3625L15.3125 19.7125H15.2875L11.05 15.4625C10.863 15.275 10.758 15.021 10.758 14.7563C10.758 14.4915 10.863 14.2375 11.05 14.05ZM26 26H6V21H9.5875L12 23.4125C12.185 23.5989 12.405 23.7468 12.6475 23.8476C12.8899 23.9484 13.1499 24.0002 13.4125 24H18.5875C18.8501 24.0002 19.1101 23.9484 19.3525 23.8476C19.595 23.7468 19.815 23.5989 20 23.4125L22.4125 21H26V26Z" fill="#344054"/>
</svg>
