<svg width="32" height="32" viewBox="0 0 32 32" fill="none" xmlns="http://www.w3.org/2000/svg">
<path d="M10.0125 25.225C10.4621 24.8184 10.7779 24.2851 10.9185 23.6955C11.059 23.1058 11.0176 22.4874 10.7997 21.9217C10.5818 21.356 10.1977 20.8696 9.69793 20.5266C9.19815 20.1836 8.60618 20 8 20H6C5.73478 20 5.48043 20.1054 5.29289 20.2929C5.10536 20.4804 5 20.7348 5 21V27C5 27.2652 5.10536 27.5196 5.29289 27.7071C5.48043 27.8946 5.73478 28 6 28C6.26522 28 6.51957 27.8946 6.70711 27.7071C6.89464 27.5196 7 27.2652 7 27V26H8.125L9.1625 27.55C9.25295 27.6894 9.37713 27.8038 9.52353 27.8824C9.66993 27.9611 9.83381 28.0015 10 28C10.1955 28.0022 10.3871 27.9456 10.55 27.8375C10.6592 27.7645 10.7529 27.6706 10.8258 27.5614C10.8987 27.4521 10.9494 27.3296 10.9749 27.2007C11.0005 27.0719 11.0004 26.9393 10.9747 26.8104C10.9489 26.6816 10.8981 26.5592 10.825 26.45L10.0125 25.225ZM8 24H7V22H8C8.26522 22 8.51957 22.1054 8.70711 22.2929C8.89464 22.4804 9 22.7348 9 23C9 23.2652 8.89464 23.5196 8.70711 23.7071C8.51957 23.8946 8.26522 24 8 24ZM19 25.5C19 27.1375 17.8375 28.125 15.875 28.125C14.9674 28.1223 14.0853 27.8239 13.3625 27.275C13.2457 27.1832 13.152 27.0652 13.0891 26.9306C13.0261 26.796 12.9956 26.6485 13 26.5C13 26.2348 13.1054 25.9804 13.2929 25.7929C13.4804 25.6054 13.7348 25.5 14 25.5C14.2317 25.5017 14.4561 25.5809 14.6375 25.725H14.625C14.994 25.9769 15.4283 26.1159 15.875 26.125C17 26.125 17 25.75 17 25.5C17 25.25 17 25.3875 16.85 25.3C16.7 25.2125 16.125 25.025 15.7 24.9125C14.625 24.625 13 24.1875 13 22.5C13 20.8125 14.1875 19.875 15.875 19.875C16.7826 19.8777 17.6647 20.1761 18.3875 20.725C18.5043 20.8168 18.598 20.9348 18.6609 21.0694C18.7239 21.204 18.7544 21.3515 18.75 21.5C18.75 21.7652 18.6446 22.0196 18.4571 22.2071C18.2696 22.3946 18.0152 22.5 17.75 22.5C17.5183 22.4983 17.2939 22.4191 17.1125 22.275H17.125C16.756 22.0231 16.3217 21.8841 15.875 21.875C15.3 21.875 15 22.0875 15 22.5V22.525C15.1375 22.6875 15.825 22.875 16.2125 22.975C17.25 23.25 19 23.7125 19 25.5ZM26.7125 10.2875L19.7125 3.2875C19.522 3.10178 19.266 2.9985 19 3H7C6.46957 3 5.96086 3.21071 5.58579 3.58579C5.21071 3.96086 5 4.46957 5 5V16C5 16.2652 5.10536 16.5196 5.29289 16.7071C5.48043 16.8946 5.73478 17 6 17H21C21.2652 17 21.5196 17.1054 21.7071 17.2929C21.8946 17.4804 22 17.7348 22 18V28C22 28.2652 22.1054 28.5196 22.2929 28.7071C22.4804 28.8946 22.7348 29 23 29H25C25.5304 29 26.0391 28.7893 26.4142 28.4142C26.7893 28.0391 27 27.5304 27 27V11C27.0015 10.734 26.8982 10.478 26.7125 10.2875ZM19 11V5.5L24.5 11H19Z" fill="#344054"/>
</svg>
