<svg width="32" height="32" viewBox="0 0 32 32" fill="none" xmlns="http://www.w3.org/2000/svg">
<path d="M26.7 10.2875L19.7125 3.2875L19.675 3.2625L19.6375 3.225L19.6 3.2L19.5625 3.175C19.55 3.1625 19.5375 3.1625 19.5375 3.15L19.475 3.1125H19.45L19.3875 3.075H19.375L19.2875 3.0375H7C6.476 3.03741 5.97289 3.24296 5.59888 3.60997C5.22487 3.97697 5.00982 4.47609 5 5V27C5 27.5304 5.21071 28.0391 5.58579 28.4142C5.96086 28.7893 6.46957 29 7 29H25C25.5304 29 26.0391 28.7893 26.4142 28.4142C26.7893 28.0391 27 27.5304 27 27V11C27.0012 10.8671 26.9752 10.7353 26.9236 10.6127C26.872 10.4902 26.7959 10.3795 26.7 10.2875ZM20.2125 19.2125C20.0229 19.4003 19.7668 19.5056 19.5 19.5056C19.2332 19.5056 18.9771 19.4003 18.7875 19.2125L17 17.4125V23C17 23.2652 16.8946 23.5196 16.7071 23.7071C16.5196 23.8946 16.2652 24 16 24C15.7348 24 15.4804 23.8946 15.2929 23.7071C15.1054 23.5196 15 23.2652 15 23V17.4125L13.2125 19.2125C13.0182 19.372 12.7715 19.4535 12.5205 19.4411C12.2694 19.4288 12.0319 19.3235 11.8542 19.1458C11.6765 18.9681 11.5712 18.7306 11.5589 18.4795C11.5465 18.2285 11.628 17.9818 11.7875 17.7875L15.2875 14.2875H15.3L15.3625 14.225L15.4 14.2L15.45 14.1625L15.4875 14.1375L15.525 14.1125H15.575L15.6125 14.0875H15.6625L15.7125 14.0625H16.2875L16.3375 14.0875H16.3875L16.425 14.1125H16.475L16.5125 14.1375L16.55 14.1625L16.6 14.2L16.6375 14.225L16.7 14.2875H16.7125L20.2125 17.7875C20.4003 17.9771 20.5056 18.2332 20.5056 18.5C20.5056 18.7668 20.4003 19.0229 20.2125 19.2125ZM19 11V5.4125L24.5875 11H19Z" fill="#344054"/>
</svg>
