<svg width="32" height="32" viewBox="0 0 32 32" fill="none" xmlns="http://www.w3.org/2000/svg">
<path d="M28.7125 21.7125L23.7125 26.7125C23.5214 26.8973 23.2659 27.0006 23 27.0006C22.7341 27.0006 22.4786 26.8973 22.2875 26.7125L17.2875 21.7125C17.1518 21.5679 17.0599 21.3879 17.0223 21.1932C16.9847 20.9985 17.003 20.7972 17.075 20.6125C17.1515 20.4305 17.2802 20.2752 17.4448 20.1662C17.6094 20.0572 17.8026 19.9994 18 20H22V14C22 13.7348 22.1054 13.4804 22.2929 13.2929C22.4804 13.1054 22.7348 13 23 13C23.2652 13 23.5196 13.1054 23.7071 13.2929C23.8946 13.4804 24 13.7348 24 14V20H28C28.1974 19.9994 28.3906 20.0572 28.5552 20.1662C28.7198 20.2752 28.8485 20.4305 28.925 20.6125C28.997 20.7972 29.0153 20.9985 28.9777 21.1932C28.9401 21.3879 28.8482 21.5679 28.7125 21.7125ZM15 15H6C5.73478 15 5.48043 15.1054 5.29289 15.2929C5.10536 15.4804 5 15.7348 5 16C5 16.2652 5.10536 16.5196 5.29289 16.7071C5.48043 16.8946 5.73478 17 6 17H15C15.2652 17 15.5196 16.8946 15.7071 16.7071C15.8946 16.5196 16 16.2652 16 16C16 15.7348 15.8946 15.4804 15.7071 15.2929C15.5196 15.1054 15.2652 15 15 15ZM6 9H23C23.2652 9 23.5196 8.89464 23.7071 8.70711C23.8946 8.51957 24 8.26522 24 8C24 7.73478 23.8946 7.48043 23.7071 7.29289C23.5196 7.10536 23.2652 7 23 7H6C5.73478 7 5.48043 7.10536 5.29289 7.29289C5.10536 7.48043 5 7.73478 5 8C5 8.26522 5.10536 8.51957 5.29289 8.70711C5.48043 8.89464 5.73478 9 6 9ZM13 23H6C5.73478 23 5.48043 23.1054 5.29289 23.2929C5.10536 23.4804 5 23.7348 5 24C5 24.2652 5.10536 24.5196 5.29289 24.7071C5.48043 24.8946 5.73478 25 6 25H13C13.2652 25 13.5196 24.8946 13.7071 24.7071C13.8946 24.5196 14 24.2652 14 24C14 23.7348 13.8946 23.4804 13.7071 23.2929C13.5196 23.1054 13.2652 23 13 23Z" fill="#344054"/>
</svg>
