<svg width="32" height="32" viewBox="0 0 32 32" fill="none" xmlns="http://www.w3.org/2000/svg">
<path d="M19 7V22C19 22.2652 18.8946 22.5196 18.7071 22.7071C18.5196 22.8946 18.2652 23 18 23C17.7348 23 17.4804 22.8946 17.2929 22.7071C17.1054 22.5196 17 22.2652 17 22V15.5H6V22C6 22.2652 5.89464 22.5196 5.70711 22.7071C5.51957 22.8946 5.26522 23 5 23C4.73478 23 4.48043 22.8946 4.29289 22.7071C4.10536 22.5196 4 22.2652 4 22V7C4 6.73478 4.10536 6.48043 4.29289 6.29289C4.48043 6.10536 4.73478 6 5 6C5.26522 6 5.51957 6.10536 5.70711 6.29289C5.89464 6.48043 6 6.73478 6 7V13.5H17V7C17 6.73478 17.1054 6.48043 17.2929 6.29289C17.4804 6.10536 17.7348 6 18 6C18.2652 6 18.5196 6.10536 18.7071 6.29289C18.8946 6.48043 19 6.73478 19 7ZM26.4875 17.5C26.091 17.4998 25.6962 17.5502 25.3125 17.65L25.825 14.5H30C30.2652 14.5 30.5196 14.3946 30.7071 14.2071C30.8946 14.0196 31 13.7652 31 13.5C31 13.2348 30.8946 12.9804 30.7071 12.7929C30.5196 12.6054 30.2652 12.5 30 12.5H24.975C24.7378 12.4998 24.5083 12.5839 24.3274 12.7373C24.1465 12.8908 24.026 13.1035 23.9875 13.3375L23.0125 19.3625C22.9785 19.5706 23.011 19.7841 23.1056 19.9725C23.2002 20.1609 23.3519 20.3147 23.5391 20.4117C23.7262 20.5088 23.9393 20.5442 24.1478 20.5129C24.3563 20.4816 24.5496 20.3852 24.7 20.2375C24.9345 20.0026 25.2132 19.8165 25.52 19.6899C25.8268 19.5633 26.1556 19.4988 26.4875 19.5C26.8175 19.499 27.1444 19.5638 27.4491 19.6904C27.7538 19.817 28.0303 20.003 28.2625 20.2375C28.4961 20.4678 28.6815 20.7422 28.8081 21.0447C28.9347 21.3473 28.9999 21.672 28.9999 22C28.9999 22.328 28.9347 22.6527 28.8081 22.9553C28.6815 23.2578 28.4961 23.5322 28.2625 23.7625C28.0303 23.997 27.7538 24.183 27.4491 24.3096C27.1444 24.4362 26.8175 24.501 26.4875 24.5C26.1556 24.5012 25.8268 24.4367 25.52 24.3101C25.2132 24.1835 24.9345 23.9974 24.7 23.7625C24.6081 23.663 24.497 23.5833 24.3734 23.5281C24.2498 23.4728 24.1162 23.4433 23.9808 23.4412C23.8454 23.4391 23.7111 23.4645 23.5858 23.5159C23.4605 23.5674 23.347 23.6437 23.2521 23.7402C23.1572 23.8368 23.083 23.9517 23.0338 24.0778C22.9846 24.204 22.9615 24.3388 22.966 24.4741C22.9705 24.6095 23.0024 24.7425 23.0598 24.8651C23.1172 24.9877 23.1989 25.0974 23.3 25.1875C23.8234 25.7161 24.4693 26.107 25.1803 26.3257C25.8912 26.5443 26.6452 26.5837 27.3752 26.4406C28.1051 26.2974 28.7883 25.976 29.364 25.505C29.9397 25.0339 30.39 24.4279 30.6749 23.7408C30.9598 23.0537 31.0704 22.3068 30.9969 21.5666C30.9235 20.8264 30.6681 20.1159 30.2537 19.4982C29.8392 18.8805 29.2785 18.3749 28.6215 18.0263C27.9644 17.6777 27.2313 17.4969 26.4875 17.5Z" fill="#344054"/>
</svg>
