<svg width="32" height="32" viewBox="0 0 32 32" fill="none" xmlns="http://www.w3.org/2000/svg">
<path d="M18 25.5C18 27.1375 16.8375 28.125 14.875 28.125C13.9674 28.1223 13.0853 27.8239 12.3625 27.275C12.2457 27.1832 12.152 27.0652 12.0891 26.9306C12.0261 26.796 11.9956 26.6485 12 26.5C12 26.2348 12.1054 25.9804 12.2929 25.7929C12.4804 25.6054 12.7348 25.5 13 25.5C13.2317 25.5017 13.4561 25.5809 13.6375 25.725H13.625C13.994 25.9769 14.4283 26.1159 14.875 26.125C16 26.125 16 25.75 16 25.5C16 25.25 16 25.3875 15.85 25.3C15.7 25.2125 15.125 25.025 14.7 24.9125C13.625 24.625 12 24.1875 12 22.5C12 20.8125 13.1875 19.875 14.875 19.875C15.7826 19.8777 16.6647 20.1761 17.3875 20.725C17.5043 20.8168 17.598 20.9348 17.6609 21.0694C17.7239 21.204 17.7544 21.3515 17.75 21.5C17.75 21.7652 17.6446 22.0196 17.4571 22.2071C17.2696 22.3946 17.0152 22.5 16.75 22.5C16.5183 22.4983 16.2939 22.4191 16.1125 22.275H16.125C15.756 22.0231 15.3217 21.8841 14.875 21.875C14.3 21.875 14 22.0875 14 22.5V22.525C14.1375 22.6875 14.825 22.875 15.2125 22.975C16.25 23.25 18 23.7125 18 25.5ZM9 20C8.73478 20 8.48043 20.1054 8.29289 20.2929C8.10536 20.4804 8 20.7348 8 21V25C8 25.2652 7.89464 25.5196 7.70711 25.7071C7.51957 25.8946 7.26522 26 7 26C6.73478 26 6.48043 25.8946 6.29289 25.7071C6.10536 25.5196 6 25.2652 6 25C6 24.7348 5.89464 24.4804 5.70711 24.2929C5.51957 24.1054 5.26522 24 5 24C4.73478 24 4.48043 24.1054 4.29289 24.2929C4.10536 24.4804 4 24.7348 4 25C4 25.7956 4.31607 26.5587 4.87868 27.1213C5.44129 27.6839 6.20435 28 7 28C7.79565 28 8.55871 27.6839 9.12132 27.1213C9.68393 26.5587 10 25.7956 10 25V21C10 20.7348 9.89464 20.4804 9.70711 20.2929C9.51957 20.1054 9.26522 20 9 20ZM27 11V27C27 27.5304 26.7893 28.0391 26.4142 28.4142C26.0391 28.7893 25.5304 29 25 29H22C21.7348 29 21.4804 28.8946 21.2929 28.7071C21.1054 28.5196 21 28.2652 21 28V18C21 17.7348 20.8946 17.4804 20.7071 17.2929C20.5196 17.1054 20.2652 17 20 17H6C5.73478 17 5.48043 16.8946 5.29289 16.7071C5.10536 16.5196 5 16.2652 5 16V5C5 4.46957 5.21071 3.96086 5.58579 3.58579C5.96086 3.21071 6.46957 3 7 3H19C19.266 2.9985 19.522 3.10178 19.7125 3.2875L26.7125 10.2875C26.8982 10.478 27.0015 10.734 27 11ZM24.5 11L19 5.5V11H24.5Z" fill="#344054"/>
</svg>
