<svg width="32" height="32" viewBox="0 0 32 32" fill="none" xmlns="http://www.w3.org/2000/svg">
<path d="M5.67509 22.125C4.1862 19.613 3.66541 16.6439 4.21048 13.7752C4.75555 10.9064 6.329 8.33525 8.63545 6.54438C10.9419 4.75352 13.8227 3.86611 16.7371 4.04875C19.6514 4.2314 22.3989 5.47153 24.4637 7.53634C26.5285 9.60115 27.7687 12.3486 27.9513 15.263C28.134 18.1774 27.2465 21.0582 25.4557 23.3646C23.6648 25.6711 21.0937 27.2445 18.2249 27.7896C15.3561 28.3347 12.3871 27.8139 9.87509 26.325V26.325L5.72509 27.5C5.55507 27.5497 5.37479 27.5528 5.20317 27.5089C5.03154 27.465 4.87488 27.3757 4.74962 27.2504C4.62435 27.1252 4.53509 26.9685 4.49119 26.7969C4.44729 26.6253 4.45036 26.445 4.50009 26.275L5.67509 22.125Z" stroke="#344054" stroke-width="1.5" stroke-linecap="round" stroke-linejoin="round"/>
<path d="M16 17.25C16.6904 17.25 17.25 16.6904 17.25 16C17.25 15.3096 16.6904 14.75 16 14.75C15.3096 14.75 14.75 15.3096 14.75 16C14.75 16.6904 15.3096 17.25 16 17.25Z" fill="#344054"/>
<path d="M22 17.25C22.6904 17.25 23.25 16.6904 23.25 16C23.25 15.3096 22.6904 14.75 22 14.75C21.3096 14.75 20.75 15.3096 20.75 16C20.75 16.6904 21.3096 17.25 22 17.25Z" fill="#344054"/>
<path d="M10 17.25C10.6904 17.25 11.25 16.6904 11.25 16C11.25 15.3096 10.6904 14.75 10 14.75C9.30964 14.75 8.75 15.3096 8.75 16C8.75 16.6904 9.30964 17.25 10 17.25Z" fill="#344054"/>
</svg>
