<svg width="32" height="32" viewBox="0 0 32 32" fill="none" xmlns="http://www.w3.org/2000/svg">
<path d="M6 7V25C6 25.2652 5.89464 25.5196 5.70711 25.7071C5.51957 25.8946 5.26522 26 5 26C4.73478 26 4.48043 25.8946 4.29289 25.7071C4.10536 25.5196 4 25.2652 4 25V7C4 6.73478 4.10536 6.48043 4.29289 6.29289C4.48043 6.10536 4.73478 6 5 6C5.26522 6 5.51957 6.10536 5.70711 6.29289C5.89464 6.48043 6 6.73478 6 7ZM16.5 13.8125L14 14.625V12C14 11.7348 13.8946 11.4804 13.7071 11.2929C13.5196 11.1054 13.2652 11 13 11C12.7348 11 12.4804 11.1054 12.2929 11.2929C12.1054 11.4804 12 11.7348 12 12V14.625L9.5 13.8125C9.37617 13.7699 9.24503 13.7526 9.11439 13.7618C8.98375 13.7709 8.8563 13.8063 8.73963 13.8658C8.62297 13.9253 8.51949 14.0077 8.43537 14.1081C8.35124 14.2084 8.2882 14.3247 8.25 14.45C8.20721 14.5747 8.18981 14.7066 8.19883 14.8382C8.20786 14.9697 8.24311 15.098 8.30252 15.2157C8.36194 15.3333 8.44431 15.4379 8.54477 15.5232C8.64524 15.6086 8.76177 15.6729 8.8875 15.7125L11.3875 16.525L9.8375 18.65C9.76001 18.7566 9.70434 18.8774 9.6737 19.0056C9.64306 19.1337 9.63805 19.2667 9.65896 19.3968C9.67987 19.5269 9.72628 19.6516 9.79554 19.7637C9.86479 19.8758 9.95552 19.9731 10.0625 20.05C10.2788 20.2033 10.5467 20.2656 10.8085 20.2235C11.0702 20.1814 11.3051 20.0383 11.4625 19.825L13 17.7L14.5375 19.825C14.6949 20.0383 14.9298 20.1814 15.1915 20.2235C15.4533 20.2656 15.7212 20.2033 15.9375 20.05C16.0445 19.9731 16.1352 19.8758 16.2045 19.7637C16.2737 19.6516 16.3201 19.5269 16.341 19.3968C16.3619 19.2667 16.3569 19.1337 16.3263 19.0056C16.2957 18.8774 16.24 18.7566 16.1625 18.65L14.6125 16.525L17.1125 15.7125C17.2382 15.6729 17.3548 15.6086 17.4552 15.5232C17.5557 15.4379 17.6381 15.3333 17.6975 15.2157C17.7569 15.098 17.7921 14.9697 17.8012 14.8382C17.8102 14.7066 17.7928 14.5747 17.75 14.45C17.7118 14.3247 17.6488 14.2084 17.5646 14.1081C17.4805 14.0077 17.377 13.9253 17.2604 13.8658C17.1437 13.8063 17.0162 13.7709 16.8856 13.7618C16.755 13.7526 16.6238 13.7699 16.5 13.8125ZM29.75 14.45C29.7118 14.3247 29.6488 14.2084 29.5646 14.1081C29.4805 14.0077 29.377 13.9253 29.2604 13.8658C29.1437 13.8063 29.0162 13.7709 28.8856 13.7618C28.755 13.7526 28.6238 13.7699 28.5 13.8125L26 14.625V12C26 11.7348 25.8946 11.4804 25.7071 11.2929C25.5196 11.1054 25.2652 11 25 11C24.7348 11 24.4804 11.1054 24.2929 11.2929C24.1054 11.4804 24 11.7348 24 12V14.625L21.5 13.8125C21.3762 13.7699 21.245 13.7526 21.1144 13.7618C20.9838 13.7709 20.8563 13.8063 20.7396 13.8658C20.623 13.9253 20.5195 14.0077 20.4354 14.1081C20.3512 14.2084 20.2882 14.3247 20.25 14.45C20.2072 14.5747 20.1898 14.7066 20.1988 14.8382C20.2079 14.9697 20.2431 15.098 20.3025 15.2157C20.3619 15.3333 20.4443 15.4379 20.5448 15.5232C20.6452 15.6086 20.7618 15.6729 20.8875 15.7125L23.3875 16.525L21.8375 18.65C21.76 18.7566 21.7043 18.8774 21.6737 19.0056C21.6431 19.1337 21.6381 19.2667 21.659 19.3968C21.6799 19.5269 21.7263 19.6516 21.7955 19.7637C21.8648 19.8758 21.9555 19.9731 22.0625 20.05C22.2788 20.2033 22.5467 20.2656 22.8085 20.2235C23.0702 20.1814 23.3051 20.0383 23.4625 19.825L25 17.7L26.5375 19.825C26.6949 20.0383 26.9298 20.1814 27.1915 20.2235C27.4533 20.2656 27.7212 20.2033 27.9375 20.05C28.0445 19.9731 28.1352 19.8758 28.2045 19.7637C28.2737 19.6516 28.3201 19.5269 28.341 19.3968C28.3619 19.2667 28.3569 19.1337 28.3263 19.0056C28.2957 18.8774 28.24 18.7566 28.1625 18.65L26.6125 16.525L29.1125 15.7125C29.2382 15.6729 29.3548 15.6086 29.4552 15.5232C29.5557 15.4379 29.6381 15.3333 29.6975 15.2157C29.7569 15.098 29.7921 14.9697 29.8012 14.8382C29.8102 14.7066 29.7928 14.5747 29.75 14.45Z" fill="#344054"/>
</svg>
