<svg width="32" height="32" viewBox="0 0 32 32" fill="none" xmlns="http://www.w3.org/2000/svg">
<path d="M28.2375 12.85C27.7625 12.3625 27.275 11.85 27.0875 11.4125C26.9 10.975 26.9125 10.325 26.9 9.6625C26.8875 8.45 26.8625 7.0625 25.9 6.1C24.9375 5.1375 23.55 5.1125 22.3375 5.1C21.675 5.0875 21 5.075 20.5875 4.9125C20.175 4.75 19.6375 4.2375 19.15 3.7625C18.2875 2.9375 17.3 2 16 2C14.7 2 13.7125 2.9375 12.85 3.7625C12.3625 4.2375 11.85 4.725 11.4125 4.9125C10.975 5.1 10.325 5.0875 9.6625 5.1C8.45 5.1125 7.0625 5.1375 6.1 6.1C5.1375 7.0625 5.1125 8.45 5.1 9.6625C5.0875 10.325 5.075 11 4.9125 11.4125C4.75 11.825 4.2375 12.3625 3.7625 12.85C2.9375 13.7125 2 14.7 2 16C2 17.3 2.9375 18.2875 3.7625 19.15C4.2375 19.6375 4.725 20.15 4.9125 20.5875C5.1 21.025 5.0875 21.675 5.1 22.3375C5.1125 23.55 5.1375 24.9375 6.1 25.9C7.0625 26.8625 8.45 26.8875 9.6625 26.9C10.325 26.9125 11 26.925 11.4125 27.0875C11.825 27.25 12.3625 27.7625 12.85 28.2375C13.7125 29.0625 14.7 30 16 30C17.3 30 18.2875 29.0625 19.15 28.2375C19.6375 27.7625 20.15 27.275 20.5875 27.0875C21.025 26.9 21.675 26.9125 22.3375 26.9C23.55 26.8875 24.9375 26.8625 25.9 25.9C26.8625 24.9375 26.8875 23.55 26.9 22.3375C26.9125 21.675 26.925 21 27.0875 20.5875C27.25 20.175 27.7625 19.6375 28.2375 19.15C29.0625 18.2875 30 17.3 30 16C30 14.7 29.0625 13.7125 28.2375 12.85ZM16 24C15.7033 24 15.4133 23.912 15.1666 23.7472C14.92 23.5824 14.7277 23.3481 14.6142 23.074C14.5006 22.7999 14.4709 22.4983 14.5288 22.2074C14.5867 21.9164 14.7296 21.6491 14.9393 21.4393C15.1491 21.2296 15.4164 21.0867 15.7074 21.0288C15.9983 20.9709 16.2999 21.0007 16.574 21.1142C16.8481 21.2277 17.0824 21.42 17.2472 21.6666C17.412 21.9133 17.5 22.2033 17.5 22.5C17.5 22.8978 17.342 23.2794 17.0607 23.5607C16.7794 23.842 16.3978 24 16 24ZM17 17.8875V18C17 18.2652 16.8946 18.5196 16.7071 18.7071C16.5196 18.8946 16.2652 19 16 19C15.7348 19 15.4804 18.8946 15.2929 18.7071C15.1054 18.5196 15 18.2652 15 18V17C15 16.7348 15.1054 16.4804 15.2929 16.2929C15.4804 16.1054 15.7348 16 16 16C16.4945 16 16.9778 15.8534 17.3889 15.5787C17.8 15.304 18.1205 14.9135 18.3097 14.4567C18.4989 13.9999 18.5484 13.4972 18.452 13.0123C18.3555 12.5273 18.1174 12.0819 17.7678 11.7322C17.4181 11.3826 16.9727 11.1445 16.4877 11.048C16.0028 10.9516 15.5001 11.0011 15.0433 11.1903C14.5865 11.3795 14.196 11.7 13.9213 12.1111C13.6466 12.5222 13.5 13.0055 13.5 13.5C13.5 13.7652 13.3946 14.0196 13.2071 14.2071C13.0196 14.3946 12.7652 14.5 12.5 14.5C12.2348 14.5 11.9804 14.3946 11.7929 14.2071C11.6054 14.0196 11.5 13.7652 11.5 13.5C11.5 12.6529 11.7391 11.823 12.1898 11.1057C12.6406 10.3885 13.2846 9.81299 14.0478 9.4455C14.8111 9.07801 15.6626 8.93343 16.5044 9.02837C17.3461 9.12332 18.144 9.45394 18.8062 9.98221C19.4685 10.5105 19.9681 11.2149 20.2478 12.0146C20.5274 12.8142 20.5756 13.6765 20.3869 14.5024C20.1983 15.3282 19.7803 16.084 19.1811 16.6829C18.582 17.2817 17.8259 17.6993 17 17.8875Z" fill="#344054"/>
</svg>
