<svg width="32" height="32" viewBox="0 0 32 32" fill="none" xmlns="http://www.w3.org/2000/svg">
<path d="M21.9999 15C21.7347 15 21.4804 15.1054 21.2928 15.2929C21.1053 15.4804 20.9999 15.7348 20.9999 16C21.0095 19.7825 20.2703 23.5295 18.8249 27.025C18.7636 27.1766 18.7404 27.341 18.7573 27.5037C18.7743 27.6664 18.8309 27.8225 18.9222 27.9582C19.0135 28.0939 19.1367 28.2052 19.281 28.2822C19.4254 28.3592 19.5864 28.3997 19.7499 28.4C19.9492 28.4013 20.1441 28.3423 20.3092 28.2308C20.4743 28.1192 20.6018 27.9603 20.6749 27.775C22.2143 24.0403 23.0043 20.0395 22.9999 16C22.9999 15.7348 22.8946 15.4804 22.707 15.2929C22.5195 15.1054 22.2651 15 21.9999 15Z" fill="#344054"/>
<path d="M15.9999 11C16.7023 11.0028 17.3963 11.1521 18.0377 11.4384C18.6791 11.7246 19.2537 12.1416 19.7249 12.6625C19.8118 12.761 19.9174 12.8415 20.0354 12.8993C20.1535 12.957 20.2818 12.9909 20.413 12.9991C20.5442 13.0072 20.6757 12.9894 20.8 12.9466C20.9243 12.9039 21.0389 12.8371 21.1374 12.75C21.2351 12.6622 21.3145 12.556 21.3712 12.4375C21.4278 12.3189 21.4605 12.1904 21.4675 12.0593C21.4745 11.9281 21.4555 11.7968 21.4118 11.673C21.368 11.5491 21.3002 11.4351 21.2124 11.3375C20.2671 10.2829 19.0242 9.53985 17.6478 9.20645C16.2714 8.87305 14.8262 8.96498 13.5032 9.4701C12.1801 9.97522 11.0414 10.8698 10.2374 12.0356C9.43334 13.2015 9.00186 14.5838 8.99989 16C8.99896 18.8812 8.26787 21.7153 6.87489 24.2375C6.74909 24.4683 6.71923 24.7393 6.79174 24.992C6.86426 25.2446 7.03334 25.4585 7.26239 25.5875C7.41178 25.6695 7.57946 25.7125 7.74989 25.7125C7.92845 25.7141 8.10412 25.6674 8.2582 25.5771C8.41228 25.4869 8.539 25.3565 8.62489 25.2C10.1819 22.3835 10.9991 19.2182 10.9999 16C11.0032 14.6749 11.531 13.4051 12.468 12.4681C13.405 11.5311 14.6748 11.0033 15.9999 11Z" fill="#344054"/>
<path d="M8.66241 7.79998C8.76008 7.71215 8.8395 7.60595 8.89613 7.48744C8.95276 7.36893 8.98549 7.24042 8.99245 7.10926C8.99941 6.9781 8.98048 6.84685 8.93672 6.723C8.89296 6.59916 8.82523 6.48515 8.73741 6.38748C8.64959 6.2898 8.54339 6.21039 8.42488 6.15376C8.30636 6.09713 8.17786 6.0644 8.0467 6.05744C7.91553 6.05047 7.78428 6.06941 7.66044 6.11317C7.53659 6.15693 7.42258 6.22465 7.32491 6.31248C5.96463 7.53336 4.87654 9.02688 4.13139 10.6959C3.38625 12.365 3.00073 14.1722 2.99991 16C3.0022 17.5835 2.66102 19.1486 1.99991 20.5875C1.89266 20.8283 1.88359 21.1015 1.97463 21.349C2.06567 21.5964 2.24963 21.7986 2.48741 21.9125C2.62133 21.9713 2.76616 22.0011 2.91241 22C3.10349 22.001 3.29067 21.9459 3.45067 21.8414C3.61068 21.737 3.73647 21.5878 3.81241 21.4125C4.5987 19.7167 5.00403 17.8692 4.99991 16C5.00159 14.4528 5.32851 12.9233 5.95946 11.5106C6.59042 10.098 7.51132 8.83375 8.66241 7.79998Z" fill="#344054"/>
<path d="M16 3C14.5229 2.99882 13.0562 3.24819 11.6625 3.7375C11.4142 3.82804 11.2111 4.01208 11.0967 4.25031C10.9822 4.48855 10.9655 4.76208 11.05 5.0125C11.0935 5.13645 11.1609 5.25062 11.2485 5.34849C11.3362 5.44636 11.4422 5.52601 11.5606 5.58289C11.679 5.63977 11.8074 5.67276 11.9386 5.67999C12.0698 5.68722 12.2011 5.66853 12.325 5.625C13.9849 5.03962 15.761 4.86065 17.5044 5.1031C19.2477 5.34555 20.9076 6.00234 22.3448 7.01844C23.7821 8.03454 24.9548 9.38035 25.7648 10.9431C26.5747 12.5058 26.9983 14.2399 27 16C26.9979 18.6161 26.7045 21.2239 26.125 23.775C26.0722 24.0348 26.1222 24.3049 26.2644 24.5287C26.4065 24.7524 26.6299 24.9124 26.8875 24.975L27.1125 25C27.3371 24.9996 27.555 24.9226 27.7299 24.7817C27.9049 24.6408 28.0266 24.4444 28.075 24.225C28.6897 21.5265 28.9999 18.7676 29 16C28.9934 12.5542 27.6216 9.25146 25.1851 6.81491C22.7485 4.37837 19.4458 3.00661 16 3Z" fill="#344054"/>
<path d="M14.2375 25.0875C13.9951 24.9811 13.7207 24.9738 13.473 25.0673C13.2254 25.1607 13.0242 25.3475 12.9125 25.5875C12.675 26.1125 12.4 26.6375 12.125 27.1375C11.9986 27.3702 11.9684 27.6431 12.0408 27.8978C12.1133 28.1525 12.2826 28.3686 12.5125 28.5C12.6613 28.5836 12.8294 28.6267 13 28.625C13.178 28.624 13.3527 28.5761 13.5063 28.4862C13.6599 28.3962 13.7871 28.2673 13.875 28.1125C14.175 27.5625 14.4625 26.9875 14.725 26.4125C14.8356 26.1721 14.8464 25.8976 14.755 25.6493C14.6636 25.4009 14.4775 25.1989 14.2375 25.0875Z" fill="#344054"/>
<path d="M16 15C15.7348 15 15.4804 15.1054 15.2929 15.2929C15.1053 15.4804 15 15.7348 15 16C14.9984 17.9394 14.7549 19.871 14.275 21.75C14.2411 21.8772 14.2326 22.0099 14.2501 22.1404C14.2675 22.2709 14.3106 22.3967 14.3768 22.5105C14.443 22.6243 14.531 22.7239 14.6358 22.8036C14.7406 22.8834 14.8601 22.9416 14.9875 22.975L15.2375 23C15.4598 22.9994 15.6757 22.9256 15.8519 22.79C16.0282 22.6545 16.1549 22.4647 16.2125 22.25C16.7377 20.2083 17.0023 18.1082 17 16C17 15.7348 16.8946 15.4804 16.7071 15.2929C16.5196 15.1054 16.2652 15 16 15Z" fill="#344054"/>
</svg>
