<svg width="32" height="32" viewBox="0 0 32 32" fill="none" xmlns="http://www.w3.org/2000/svg">
<path d="M26 5H6C5.46957 5 4.96086 5.21071 4.58579 5.58579C4.21071 5.96086 4 6.46957 4 7V14.3375C4 25.5125 13.475 29.225 15.375 29.85C15.7781 30.0004 16.2219 30.0004 16.625 29.85C18.525 29.225 28 25.5125 28 14.3375V7C28 6.46957 27.7893 5.96086 27.4142 5.58579C27.0391 5.21071 26.5304 5 26 5ZM6 7H26V14.3375C26.021 16.2841 25.6468 18.2147 24.9 20.0125L16.575 14.175C16.4059 14.0584 16.2054 13.9959 16 13.9959C15.7946 13.9959 15.5941 14.0584 15.425 14.175L7.1 20.0125C6.35318 18.2147 5.97896 16.2841 6 14.3375V7Z" fill="#344054"/>
</svg>
