<svg width="32" height="32" viewBox="0 0 32 32" fill="none" xmlns="http://www.w3.org/2000/svg">
<path d="M16 3C13.4288 3 10.9154 3.76244 8.77759 5.1909C6.63975 6.61935 4.97351 8.64968 3.98957 11.0251C3.00563 13.4006 2.74819 16.0144 3.2498 18.5362C3.75141 21.0579 4.98953 23.3743 6.80762 25.1924C8.6257 27.0105 10.9421 28.2486 13.4638 28.7502C15.9856 29.2518 18.5995 28.9944 20.9749 28.0104C23.3503 27.0265 25.3807 25.3603 26.8091 23.2224C28.2376 21.0846 29 18.5712 29 16C28.9934 12.5542 27.6216 9.25145 25.1851 6.81491C22.7486 4.37837 19.4458 3.00661 16 3ZM16 27C13.8244 27 11.6977 26.3549 9.88873 25.1462C8.07979 23.9375 6.66989 22.2195 5.83733 20.2095C5.00477 18.1995 4.78693 15.9878 5.21137 13.854C5.63581 11.7202 6.68345 9.7602 8.22183 8.22183C9.76021 6.68345 11.7202 5.6358 13.854 5.21136C15.9878 4.78692 18.1995 5.00476 20.2095 5.83733C22.2195 6.66989 23.9375 8.07979 25.1462 9.88873C26.3549 11.6977 27 13.8244 27 16C26.9967 18.9164 25.8367 21.7123 23.7745 23.7745C21.7123 25.8367 18.9164 26.9967 16 27ZM18.3 16.775L19.8625 20.4125C19.9594 20.6402 19.9985 20.8884 19.9763 21.1348C19.954 21.3813 19.8712 21.6185 19.735 21.8251C19.5989 22.0318 19.4137 22.2016 19.1961 22.3193C18.9784 22.4371 18.735 22.4991 18.4875 22.5H13.5125C13.265 22.4991 13.0216 22.4371 12.8039 22.3193C12.5863 22.2016 12.4011 22.0318 12.265 21.8251C12.1289 21.6185 12.046 21.3813 12.0237 21.1348C12.0015 20.8884 12.0406 20.6402 12.1375 20.4125L13.7 16.775C13.206 16.4285 12.7968 15.9747 12.503 15.4476C12.2093 14.9206 12.0386 14.3338 12.0037 13.7314C11.9688 13.129 12.0707 12.5266 12.3017 11.9691C12.5327 11.4117 12.8868 10.9137 13.3375 10.5125C13.7608 10.1392 14.2575 9.85859 14.7957 9.68853C15.3338 9.51848 15.9016 9.46277 16.4625 9.525C17.2687 9.61778 18.0276 9.95358 18.6384 10.4878C19.2493 11.022 19.6832 11.7294 19.8826 12.516C20.0819 13.3027 20.0373 14.1313 19.7547 14.892C19.472 15.6527 18.9647 16.3094 18.3 16.775Z" fill="#344054"/>
</svg>
