<svg width="32" height="32" viewBox="0 0 32 32" fill="none" xmlns="http://www.w3.org/2000/svg">
<path d="M16 3C13.4288 3 10.9154 3.76244 8.77759 5.1909C6.63975 6.61935 4.97351 8.64968 3.98957 11.0251C3.00563 13.4006 2.74819 16.0144 3.2498 18.5362C3.75141 21.0579 4.98953 23.3743 6.80762 25.1924C8.6257 27.0105 10.9421 28.2486 13.4638 28.7502C15.9856 29.2518 18.5995 28.9944 20.9749 28.0104C23.3503 27.0265 25.3807 25.3603 26.8091 23.2224C28.2376 21.0846 29 18.5712 29 16C28.9934 12.5542 27.6216 9.25145 25.1851 6.81491C22.7486 4.37837 19.4458 3.00661 16 3ZM18.825 20.2375L11.7625 13.175C11.5901 12.9848 11.4975 12.7356 11.5039 12.4789C11.5102 12.2223 11.6149 11.978 11.7964 11.7964C11.978 11.6149 12.2223 11.5102 12.4789 11.5039C12.7356 11.4975 12.9848 11.5901 13.175 11.7625L20.2375 18.825C20.4099 19.0152 20.5025 19.2644 20.4962 19.5211C20.4898 19.7777 20.3851 20.022 20.2036 20.2036C20.0221 20.3851 19.7777 20.4898 19.5211 20.4961C19.2645 20.5025 19.0152 20.4099 18.825 20.2375Z" fill="#344054"/>
</svg>
