<svg width="32" height="32" viewBox="0 0 32 32" fill="none" xmlns="http://www.w3.org/2000/svg">
<path d="M26 5H6C5.46957 5 4.96086 5.21071 4.58579 5.58579C4.21071 5.96086 4 6.46957 4 7V14.3375C4 25.5125 13.475 29.225 15.375 29.85C15.781 29.9836 16.219 29.9836 16.625 29.85C18.525 29.225 28 25.5125 28 14.3375V7C28 6.46957 27.7893 5.96086 27.4142 5.58579C27.0391 5.21071 26.5304 5 26 5ZM16 27.95C14.4125 27.425 6.9625 24.5 6.0875 16H16V7H26V14.3375C26.003 14.8929 25.9738 15.448 25.9125 16H16V27.95Z" fill="#344054"/>
</svg>
