<svg width="32" height="32" viewBox="0 0 32 32" fill="none" xmlns="http://www.w3.org/2000/svg">
<path d="M27 22.5C27 23.6064 26.5925 24.674 25.8552 25.4989C25.1179 26.3238 24.1026 26.8482 23.0032 26.9719C21.9037 27.0956 20.7973 26.8099 19.8951 26.1695C18.9929 25.5291 18.3583 24.5787 18.1125 23.5H13.8875C13.6416 24.5787 13.007 25.529 12.1049 26.1695C11.2027 26.8099 10.0963 27.0955 8.99686 26.9718C7.89745 26.8481 6.88213 26.3237 6.14486 25.4988C5.40758 24.674 5.00002 23.6064 5.00002 22.5C5.00002 21.3937 5.40758 20.3261 6.14486 19.5012C6.88213 18.6763 7.89745 18.152 8.99686 18.0282C10.0963 17.9045 11.2027 18.1902 12.1049 18.8306C13.007 19.471 13.6416 20.4213 13.8875 21.5H18.1125C18.3583 20.4213 18.9929 19.471 19.8951 18.8306C20.7973 18.1901 21.9037 17.9045 23.0032 18.0282C24.1026 18.1519 25.1179 18.6763 25.8552 19.5012C26.5925 20.3261 27 21.3937 27 22.5ZM31 14H27.525L21.6625 5.62503C21.4744 5.35896 21.2245 5.14254 20.9343 4.99438C20.6441 4.84621 20.3222 4.77073 19.9964 4.77442C19.6706 4.77811 19.3505 4.86086 19.0637 5.01556C18.777 5.17025 18.532 5.39227 18.35 5.66253L16 9.20003L13.65 5.66253C13.468 5.39227 13.223 5.17025 12.9363 5.01556C12.6495 4.86086 12.3294 4.77811 12.0036 4.77442C11.6778 4.77073 11.3559 4.84621 11.0657 4.99438C10.7755 5.14254 10.5256 5.35896 10.3375 5.62503L4.475 14H1C0.734784 14 0.48043 14.1054 0.292893 14.2929C0.105357 14.4805 0 14.7348 0 15C0 15.2652 0.105357 15.5196 0.292893 15.7071C0.48043 15.8947 0.734784 16 1 16H31C31.2652 16 31.5196 15.8947 31.7071 15.7071C31.8946 15.5196 32 15.2652 32 15C32 14.7348 31.8946 14.4805 31.7071 14.2929C31.5196 14.1054 31.2652 14 31 14Z" fill="#344054"/>
</svg>
