<svg width="32" height="32" viewBox="0 0 32 32" fill="none" xmlns="http://www.w3.org/2000/svg">
<path d="M26 10H12.5V6.5C12.5 5.57174 12.8687 4.6815 13.5251 4.02513C14.1815 3.36875 15.0717 3 16 3C16.9283 3 17.8185 3.36875 18.4749 4.02513C19.1313 4.6815 19.5 5.57174 19.5 6.5C19.5 6.76522 19.6054 7.01957 19.7929 7.20711C19.9804 7.39464 20.2348 7.5 20.5 7.5C20.7652 7.5 21.0196 7.39464 21.2071 7.20711C21.3946 7.01957 21.5 6.76522 21.5 6.5C21.5 5.04131 20.9205 3.64236 19.8891 2.61091C18.8576 1.57946 17.4587 1 16 1C14.5413 1 13.1424 1.57946 12.1109 2.61091C11.0795 3.64236 10.5 5.04131 10.5 6.5V10H6C5.46957 10 4.96086 10.2107 4.58579 10.5858C4.21071 10.9609 4 11.4696 4 12V26C4 26.5304 4.21071 27.0391 4.58579 27.4142C4.96086 27.7893 5.46957 28 6 28H26C26.5304 28 27.0391 27.7893 27.4142 27.4142C27.7893 27.0391 28 26.5304 28 26V12C28 11.4696 27.7893 10.9609 27.4142 10.5858C27.0391 10.2107 26.5304 10 26 10ZM23 24H9C8.73478 24 8.48043 23.8946 8.29289 23.7071C8.10536 23.5196 8 23.2652 8 23C8 22.7348 8.10536 22.4804 8.29289 22.2929C8.48043 22.1054 8.73478 22 9 22H23C23.2652 22 23.5196 22.1054 23.7071 22.2929C23.8946 22.4804 24 22.7348 24 23C24 23.2652 23.8946 23.5196 23.7071 23.7071C23.5196 23.8946 23.2652 24 23 24ZM23 20H9C8.73478 20 8.48043 19.8946 8.29289 19.7071C8.10536 19.5196 8 19.2652 8 19C8 18.7348 8.10536 18.4804 8.29289 18.2929C8.48043 18.1054 8.73478 18 9 18H23C23.2652 18 23.5196 18.1054 23.7071 18.2929C23.8946 18.4804 24 18.7348 24 19C24 19.2652 23.8946 19.5196 23.7071 19.7071C23.5196 19.8946 23.2652 20 23 20ZM23 16H9C8.73478 16 8.48043 15.8946 8.29289 15.7071C8.10536 15.5196 8 15.2652 8 15C8 14.7348 8.10536 14.4804 8.29289 14.2929C8.48043 14.1054 8.73478 14 9 14H23C23.2652 14 23.5196 14.1054 23.7071 14.2929C23.8946 14.4804 24 14.7348 24 15C24 15.2652 23.8946 15.5196 23.7071 15.7071C23.5196 15.8946 23.2652 16 23 16Z" fill="#344054"/>
</svg>
