<svg width="32" height="32" viewBox="0 0 32 32" fill="none" xmlns="http://www.w3.org/2000/svg">
<path d="M30 16C30 17.3 29.0625 18.2875 28.2375 19.15C27.7625 19.6375 27.275 20.15 27.0875 20.5875C26.9 21.025 26.9125 21.675 26.9 22.3375C26.8875 23.55 26.8625 24.9375 25.9 25.9C24.9375 26.8625 23.55 26.8875 22.3375 26.9C21.675 26.9125 21 26.925 20.5875 27.0875C20.175 27.25 19.6375 27.7625 19.15 28.2375C18.2875 29.0625 17.3 30 16 30C14.7 30 13.7125 29.0625 12.85 28.2375C12.3625 27.7625 11.85 27.275 11.4125 27.0875C10.975 26.9 10.325 26.9125 9.6625 26.9C8.45 26.8875 7.0625 26.8625 6.1 25.9C5.1375 24.9375 5.1125 23.55 5.1 22.3375C5.0875 21.675 5.075 21 4.9125 20.5875C4.75 20.175 4.2375 19.6375 3.7625 19.15C2.9375 18.2875 2 17.3 2 16C2 14.7 2.9375 13.7125 3.7625 12.85C4.2375 12.3625 4.725 11.85 4.9125 11.4125C5.1 10.975 5.0875 10.325 5.1 9.6625C5.1125 8.45 5.1375 7.0625 6.1 6.1C7.0625 5.1375 8.45 5.1125 9.6625 5.1C10.325 5.0875 11 5.075 11.4125 4.9125C11.825 4.75 12.3625 4.2375 12.85 3.7625C13.7125 2.9375 14.7 2 16 2C17.3 2 18.2875 2.9375 19.15 3.7625C19.6375 4.2375 20.15 4.725 20.5875 4.9125C21.025 5.1 21.675 5.0875 22.3375 5.1C23.55 5.1125 24.9375 5.1375 25.9 6.1C26.8625 7.0625 26.8875 8.45 26.9 9.6625C26.9125 10.325 26.925 11 27.0875 11.4125C27.25 11.825 27.7625 12.3625 28.2375 12.85C29.0625 13.7125 30 14.7 30 16Z" fill="#344054"/>
</svg>
