<svg width="32" height="32" viewBox="0 0 32 32" fill="none" xmlns="http://www.w3.org/2000/svg">
<path d="M25 16C25.004 18.0418 24.3068 20.0231 23.025 21.6125L10.3875 8.975C11.9769 7.6932 13.9582 6.99599 16 7C18.3859 7.00331 20.6732 7.95258 22.3603 9.63969C24.0474 11.3268 24.9967 13.6141 25 16ZM7.00001 16C7.00331 18.3859 7.95259 20.6732 9.6397 22.3603C11.3268 24.0474 13.6141 24.9967 16 25C18.0418 25.004 20.0231 24.3068 21.6125 23.025L8.97501 10.3875C7.6932 11.9769 6.996 13.9582 7.00001 16ZM29.5 16C29.5 18.67 28.7082 21.2801 27.2248 23.5002C25.7414 25.7203 23.633 27.4506 21.1662 28.4724C18.6994 29.4942 15.985 29.7615 13.3663 29.2406C10.7475 28.7197 8.34207 27.434 6.45406 25.5459C4.56606 23.6579 3.28031 21.2525 2.7594 18.6337C2.2385 16.015 2.50585 13.3006 3.52763 10.8338C4.54942 8.36697 6.27974 6.25856 8.49981 4.77516C10.7199 3.29176 13.33 2.5 16 2.5C19.5794 2.50331 23.0113 3.92669 25.5423 6.45771C28.0733 8.98874 29.4967 12.4206 29.5 16ZM27 16C27 13.8244 26.3549 11.6977 25.1462 9.88873C23.9375 8.07979 22.2195 6.66989 20.2095 5.83733C18.1995 5.00476 15.9878 4.78692 13.854 5.21136C11.7202 5.6358 9.76021 6.68345 8.22183 8.22183C6.68345 9.7602 5.63581 11.7202 5.21137 13.854C4.78693 15.9878 5.00477 18.1995 5.83733 20.2095C6.6699 22.2195 8.07979 23.9375 9.88873 25.1462C11.6977 26.3549 13.8244 27 16 27C18.9164 26.9967 21.7123 25.8367 23.7745 23.7745C25.8367 21.7123 26.9967 18.9164 27 16Z" fill="#344054"/>
</svg>
