<svg width="32" height="32" viewBox="0 0 32 32" fill="none" xmlns="http://www.w3.org/2000/svg">
<path d="M28.4125 10.025L21.975 3.5875C21.5999 3.21337 21.0923 3.00227 20.5625 3H11.4375C10.9077 3.00227 10.4001 3.21337 10.025 3.5875L3.5875 10.025C3.21337 10.4001 3.00227 10.9077 3 11.4375V20.5625C3.00227 21.0923 3.21337 21.5999 3.5875 21.975L10.025 28.4125C10.4001 28.7866 10.9077 28.9977 11.4375 29H20.5625C21.0923 28.9977 21.5999 28.7866 21.975 28.4125L28.4125 21.975C28.7866 21.5999 28.9977 21.0923 29 20.5625V11.4375C28.9977 10.9077 28.7866 10.4001 28.4125 10.025ZM15 10C15 9.73478 15.1054 9.48043 15.2929 9.29289C15.4804 9.10536 15.7348 9 16 9C16.2652 9 16.5196 9.10536 16.7071 9.29289C16.8946 9.48043 17 9.73478 17 10V17C17 17.2652 16.8946 17.5196 16.7071 17.7071C16.5196 17.8946 16.2652 18 16 18C15.7348 18 15.4804 17.8946 15.2929 17.7071C15.1054 17.5196 15 17.2652 15 17V10ZM16 23C15.7033 23 15.4133 22.912 15.1666 22.7472C14.92 22.5824 14.7277 22.3481 14.6142 22.074C14.5006 21.7999 14.4709 21.4983 14.5288 21.2074C14.5867 20.9164 14.7296 20.6491 14.9393 20.4393C15.1491 20.2296 15.4164 20.0867 15.7074 20.0288C15.9983 19.9709 16.2999 20.0007 16.574 20.1142C16.8481 20.2277 17.0824 20.42 17.2472 20.6666C17.412 20.9133 17.5 21.2033 17.5 21.5C17.5 21.8978 17.342 22.2794 17.0607 22.5607C16.7794 22.842 16.3978 23 16 23Z" fill="#344054"/>
</svg>
