<svg width="32" height="32" viewBox="0 0 32 32" fill="none" xmlns="http://www.w3.org/2000/svg">
<path d="M26 5H6C5.46957 5 4.96086 5.21071 4.58579 5.58579C4.21071 5.96086 4 6.46957 4 7V14.3375C4 25.5125 13.475 29.225 15.375 29.85C15.781 29.9836 16.219 29.9836 16.625 29.85C18.525 29.225 28 25.5125 28 14.3375V7C28 6.46957 27.7893 5.96086 27.4142 5.58579C27.0391 5.21071 26.5304 5 26 5ZM22.1875 13.725L14.8625 20.725C14.6731 20.9031 14.4225 21.0016 14.1625 21C13.9063 21.001 13.6598 20.9024 13.475 20.725L9.8125 17.225C9.71092 17.1364 9.6283 17.0281 9.56962 16.9067C9.51094 16.7854 9.47741 16.6534 9.47104 16.5187C9.46466 16.3841 9.48559 16.2495 9.53255 16.1231C9.5795 15.9968 9.65153 15.8812 9.74429 15.7834C9.83706 15.6856 9.94864 15.6075 10.0723 15.5539C10.196 15.5003 10.3293 15.4723 10.4641 15.4715C10.5989 15.4707 10.7325 15.4972 10.8568 15.5493C10.9811 15.6015 11.0936 15.6783 11.1875 15.775L14.1625 18.6125L20.8125 12.275C21.0069 12.1054 21.2594 12.0174 21.5172 12.0296C21.7749 12.0418 22.018 12.1532 22.1955 12.3404C22.3731 12.5277 22.4714 12.7763 22.4699 13.0343C22.4684 13.2924 22.3672 13.5398 22.1875 13.725Z" fill="#344054"/>
</svg>
