<svg width="32" height="32" viewBox="0 0 32 32" fill="none" xmlns="http://www.w3.org/2000/svg">
<path d="M16 19C16.8284 19 17.5 18.3284 17.5 17.5C17.5 16.6716 16.8284 16 16 16C15.1716 16 14.5 16.6716 14.5 17.5C14.5 18.3284 15.1716 19 16 19Z" fill="#344054"/>
<path d="M26 10H21.5V6.5C21.5 5.04131 20.9205 3.64236 19.8891 2.61091C18.8576 1.57946 17.4587 1 16 1C14.5413 1 13.1424 1.57946 12.1109 2.61091C11.0795 3.64236 10.5 5.04131 10.5 6.5V10H6C5.46957 10 4.96086 10.2107 4.58579 10.5858C4.21071 10.9609 4 11.4696 4 12V26C4 26.5304 4.21071 27.0391 4.58579 27.4142C4.96086 27.7893 5.46957 28 6 28H26C26.5304 28 27.0391 27.7893 27.4142 27.4142C27.7893 27.0391 28 26.5304 28 26V12C28 11.4696 27.7893 10.9609 27.4142 10.5858C27.0391 10.2107 26.5304 10 26 10ZM17 20.85V23C17 23.2652 16.8946 23.5196 16.7071 23.7071C16.5196 23.8946 16.2652 24 16 24C15.7348 24 15.4804 23.8946 15.2929 23.7071C15.1054 23.5196 15 23.2652 15 23V20.85C14.1943 20.6098 13.5021 20.0876 13.0497 19.379C12.5974 18.6703 12.4153 17.8225 12.5367 16.9906C12.658 16.1587 13.0748 15.3983 13.7107 14.8484C14.3467 14.2985 15.1593 13.9959 16 13.9959C16.8407 13.9959 17.6533 14.2985 18.2893 14.8484C18.9252 15.3983 19.342 16.1587 19.4633 16.9906C19.5847 17.8225 19.4026 18.6703 18.9503 19.379C18.4979 20.0876 17.8057 20.6098 17 20.85ZM19.5 10H12.5V6.5C12.5 5.57174 12.8687 4.6815 13.5251 4.02513C14.1815 3.36875 15.0717 3 16 3C16.9283 3 17.8185 3.36875 18.4749 4.02513C19.1313 4.6815 19.5 5.57174 19.5 6.5V10Z" fill="#344054"/>
</svg>
