<svg width="32" height="32" viewBox="0 0 32 32" fill="none" xmlns="http://www.w3.org/2000/svg">
<path d="M26 4H6C5.46957 4 4.96086 4.21071 4.58579 4.58579C4.21071 4.96086 4 5.46957 4 6V26C4 26.5304 4.21071 27.0391 4.58579 27.4142C4.96086 27.7893 5.46957 28 6 28H26C26.5304 28 27.0391 27.7893 27.4142 27.4142C27.7893 27.0391 28 26.5304 28 26V6C28 5.46957 27.7893 4.96086 27.4142 4.58579C27.0391 4.21071 26.5304 4 26 4ZM20.5 19.5C20.5 19.7652 20.3946 20.0196 20.2071 20.2071C20.0196 20.3946 19.7652 20.5 19.5 20.5H13.5C13.2348 20.5 12.9804 20.3946 12.7929 20.2071C12.6054 20.0196 12.5 19.7652 12.5 19.5C12.5 19.2348 12.6054 18.9804 12.7929 18.7929C12.9804 18.6054 13.2348 18.5 13.5 18.5H17.0875L11.7875 13.2125C11.628 13.0182 11.5465 12.7715 11.5589 12.5205C11.5712 12.2694 11.6765 12.0319 11.8542 11.8542C12.0319 11.6765 12.2694 11.5712 12.5205 11.5589C12.7715 11.5465 13.0182 11.628 13.2125 11.7875L18.5 17.0875V13.5C18.5 13.2348 18.6054 12.9804 18.7929 12.7929C18.9804 12.6054 19.2348 12.5 19.5 12.5C19.7652 12.5 20.0196 12.6054 20.2071 12.7929C20.3946 12.9804 20.5 13.2348 20.5 13.5V19.5Z" fill="#344054"/>
</svg>
