<svg width="32" height="32" viewBox="0 0 32 32" fill="none" xmlns="http://www.w3.org/2000/svg">
<path d="M28 16C28 16.2652 27.8946 16.5196 27.7071 16.7071C27.5196 16.8946 27.2652 17 27 17H5C4.73478 17 4.48043 16.8946 4.29289 16.7071C4.10536 16.5196 4 16.2652 4 16C4 15.7348 4.10536 15.4804 4.29289 15.2929C4.48043 15.1054 4.73478 15 5 15H27C27.2652 15 27.5196 15.1054 27.7071 15.2929C27.8946 15.4804 28 15.7348 28 16ZM15.2875 12.7125C15.4786 12.8973 15.7341 13.0006 16 13.0006C16.2659 13.0006 16.5214 12.8973 16.7125 12.7125L20.7125 8.7125C20.8482 8.56791 20.9401 8.38787 20.9777 8.19321C21.0153 7.99854 20.997 7.79721 20.925 7.6125C20.8485 7.4305 20.7198 7.27521 20.5552 7.16622C20.3906 7.05722 20.1974 6.99938 20 7H17V2C17 1.73478 16.8946 1.48043 16.7071 1.29289C16.5196 1.10536 16.2652 1 16 1C15.7348 1 15.4804 1.10536 15.2929 1.29289C15.1054 1.48043 15 1.73478 15 2V7H12C11.8026 6.99938 11.6094 7.05722 11.4448 7.16622C11.2802 7.27521 11.1515 7.4305 11.075 7.6125C11.003 7.79721 10.9847 7.99854 11.0223 8.19321C11.0599 8.38787 11.1518 8.56791 11.2875 8.7125L15.2875 12.7125ZM16.7125 19.2875C16.5229 19.0997 16.2668 18.9944 16 18.9944C15.7332 18.9944 15.4771 19.0997 15.2875 19.2875L11.2875 23.2875C11.1518 23.4321 11.0599 23.6121 11.0223 23.8068C10.9847 24.0015 11.003 24.2028 11.075 24.3875C11.1515 24.5695 11.2802 24.7248 11.4448 24.8338C11.6094 24.9428 11.8026 25.0006 12 25H15V30C15 30.2652 15.1054 30.5196 15.2929 30.7071C15.4804 30.8946 15.7348 31 16 31C16.2652 31 16.5196 30.8946 16.7071 30.7071C16.8946 30.5196 17 30.2652 17 30V25H20C20.1974 25.0006 20.3906 24.9428 20.5552 24.8338C20.7198 24.7248 20.8485 24.5695 20.925 24.3875C20.997 24.2028 21.0153 24.0015 20.9777 23.8068C20.9401 23.6121 20.8482 23.4321 20.7125 23.2875L16.7125 19.2875Z" fill="#344054"/>
</svg>
