<svg width="32" height="32" viewBox="0 0 32 32" fill="none" xmlns="http://www.w3.org/2000/svg">
<path d="M28.7125 21.7125L22.7125 27.7125C22.5205 27.896 22.2655 27.9989 22 28C21.8673 27.9994 21.7358 27.974 21.6125 27.925C21.4305 27.8485 21.2752 27.7198 21.1662 27.5552C21.0572 27.3906 20.9994 27.1974 21 27V22H11C8.87827 22 6.84344 21.1571 5.34315 19.6569C3.84285 18.1566 3 16.1217 3 14C3 11.8783 3.84285 9.84344 5.34315 8.34315C6.84344 6.84285 8.87827 6 11 6H22C22.2652 6 22.5196 6.10536 22.7071 6.29289C22.8946 6.48043 23 6.73478 23 7C23 7.26522 22.8946 7.51957 22.7071 7.70711C22.5196 7.89464 22.2652 8 22 8H11C9.4087 8 7.88258 8.63214 6.75736 9.75736C5.63214 10.8826 5 12.4087 5 14C5 15.5913 5.63214 17.1174 6.75736 18.2426C7.88258 19.3679 9.4087 20 11 20H21V15C20.9994 14.8026 21.0572 14.6094 21.1662 14.4448C21.2752 14.2802 21.4305 14.1515 21.6125 14.075C21.7972 14.003 21.9985 13.9847 22.1932 14.0223C22.3879 14.0599 22.5679 14.1518 22.7125 14.2875L28.7125 20.2875C28.9003 20.4771 29.0056 20.7332 29.0056 21C29.0056 21.2668 28.9003 21.5229 28.7125 21.7125Z" fill="#344054"/>
</svg>
