<svg width="32" height="32" viewBox="0 0 32 32" fill="none" xmlns="http://www.w3.org/2000/svg">
<path d="M28.7125 19.7125L22.7125 25.7125C22.5205 25.896 22.2655 25.9989 22 26C21.8673 25.9994 21.7358 25.974 21.6125 25.925C21.4305 25.8485 21.2752 25.7198 21.1662 25.5552C21.0572 25.3906 20.9994 25.1974 21 25V20H16C12.5542 19.9934 9.25145 18.6216 6.81491 16.1851C4.37837 13.7485 3.00661 10.4458 3 7C3 6.73478 3.10536 6.48043 3.29289 6.29289C3.48043 6.10536 3.73478 6 4 6C4.26522 6 4.51957 6.10536 4.70711 6.29289C4.89464 6.48043 5 6.73478 5 7C5.00331 9.91637 6.1633 12.7123 8.22548 14.7745C10.2877 16.8367 13.0836 17.9967 16 18H21V13C20.9994 12.8026 21.0572 12.6094 21.1662 12.4448C21.2752 12.2802 21.4305 12.1515 21.6125 12.075C21.7972 12.003 21.9985 11.9847 22.1932 12.0223C22.3879 12.0599 22.5679 12.1518 22.7125 12.2875L28.7125 18.2875C28.9003 18.4771 29.0056 18.7332 29.0056 19C29.0056 19.2668 28.9003 19.5229 28.7125 19.7125Z" fill="#344054"/>
</svg>
