<svg width="32" height="32" viewBox="0 0 32 32" fill="none" xmlns="http://www.w3.org/2000/svg">
<path d="M26.925 11.6125C26.8485 11.4305 26.7198 11.2752 26.5552 11.1662C26.3906 11.0572 26.1974 10.9994 26 11H6.00001C5.80259 10.9994 5.6094 11.0572 5.44479 11.1662C5.28018 11.2752 5.15151 11.4305 5.07501 11.6125C5.00297 11.7972 4.98469 11.9985 5.0223 12.1932C5.0599 12.3879 5.15185 12.5679 5.28751 12.7125L15.2875 22.7125C15.4787 22.8973 15.7341 23.0006 16 23.0006C16.2659 23.0006 16.5214 22.8973 16.7125 22.7125L26.7125 12.7125C26.8482 12.5679 26.9401 12.3879 26.9777 12.1932C27.0153 11.9985 26.9971 11.7972 26.925 11.6125Z" fill="#344054"/>
</svg>
