<svg width="32" height="32" viewBox="0 0 32 32" fill="none" xmlns="http://www.w3.org/2000/svg">
<path d="M28 26V6C28 5.46957 27.7893 4.96086 27.4142 4.58579C27.0391 4.21071 26.5304 4 26 4H6C5.46957 4 4.96086 4.21071 4.58579 4.58579C4.21071 4.96086 4 5.46957 4 6V26C4 26.5304 4.21071 27.0391 4.58579 27.4142C4.96086 27.7893 5.46957 28 6 28H26C26.5304 28 27.0391 27.7893 27.4142 27.4142C27.7893 27.0391 28 26.5304 28 26ZM14.5375 20.95L10.3 16.7125C10.2027 16.6166 10.1262 16.5017 10.075 16.375C10.0252 16.2563 9.99967 16.1288 10 16C10.0006 15.8673 10.026 15.7358 10.075 15.6125C10.1295 15.4913 10.2058 15.3812 10.3 15.2875L14.5375 11.05C14.7277 10.8776 14.9769 10.785 15.2336 10.7914C15.4902 10.7977 15.7345 10.9024 15.9161 11.0839C16.0976 11.2655 16.2023 11.5098 16.2086 11.7664C16.215 12.0231 16.1224 12.2723 15.95 12.4625L13.4125 15H21C21.2652 15 21.5196 15.1054 21.7071 15.2929C21.8946 15.4804 22 15.7348 22 16C22 16.2652 21.8946 16.5196 21.7071 16.7071C21.5196 16.8946 21.2652 17 21 17H13.4125L15.95 19.5375C16.1224 19.7277 16.215 19.9769 16.2086 20.2336C16.2023 20.4902 16.0976 20.7345 15.9161 20.9161C15.7345 21.0976 15.4902 21.2023 15.2336 21.2086C14.9769 21.215 14.7277 21.1224 14.5375 20.95Z" fill="#344054"/>
</svg>
