<svg width="32" height="32" viewBox="0 0 32 32" fill="none" xmlns="http://www.w3.org/2000/svg">
<path d="M25 11V24C25 24.2652 24.8946 24.5196 24.7071 24.7071C24.5196 24.8947 24.2652 25 24 25H11C10.8026 25.0006 10.6094 24.9428 10.4448 24.8338C10.2802 24.7248 10.1515 24.5695 10.075 24.3875C10.0029 24.2028 9.98467 24.0015 10.0223 23.8068C10.0599 23.6122 10.1518 23.4321 10.2875 23.2875L16.0875 17.5L7.28749 8.71252C7.12803 8.51823 7.04654 8.27156 7.05887 8.02051C7.0712 7.76946 7.17647 7.53197 7.3542 7.35423C7.53194 7.1765 7.76943 7.07123 8.02048 7.0589C8.27153 7.04657 8.5182 7.12806 8.71249 7.28752L17.5 16.0875L23.2875 10.2875C23.4321 10.1519 23.6121 10.0599 23.8068 10.0223C24.0014 9.9847 24.2028 10.003 24.3875 10.075C24.5695 10.1515 24.7248 10.2802 24.8338 10.4448C24.9428 10.6094 25.0006 10.8026 25 11Z" fill="#344054"/>
</svg>
