<svg width="32" height="32" viewBox="0 0 32 32" fill="none" xmlns="http://www.w3.org/2000/svg">
<path d="M14.925 21.6125C14.997 21.7972 15.0153 21.9986 14.9777 22.1932C14.9401 22.3879 14.8482 22.5679 14.7125 22.7125L10.7125 26.7125C10.5214 26.8973 10.2659 27.0006 10 27.0006C9.73412 27.0006 9.47864 26.8973 9.2875 26.7125L5.2875 22.7125C5.15184 22.5679 5.05989 22.3879 5.02228 22.1932C4.98468 21.9986 5.00295 21.7972 5.075 21.6125C5.1515 21.4305 5.28016 21.2752 5.44477 21.1662C5.60938 21.0572 5.80257 20.9994 6 21H9V6.00001C9 5.73479 9.10535 5.48044 9.29289 5.2929C9.48043 5.10537 9.73478 5.00001 10 5.00001C10.2652 5.00001 10.5196 5.10537 10.7071 5.2929C10.8946 5.48044 11 5.73479 11 6.00001V21H14C14.1974 20.9994 14.3906 21.0572 14.5552 21.1662C14.7198 21.2752 14.8485 21.4305 14.925 21.6125ZM26.7125 9.28751L22.7125 5.28751C22.5229 5.09973 22.2668 4.99438 22 4.99438C21.7332 4.99438 21.4771 5.09973 21.2875 5.28751L17.2875 9.28751C17.1518 9.4321 17.0599 9.61214 17.0223 9.8068C16.9847 10.0015 17.003 10.2028 17.075 10.3875C17.1515 10.5695 17.2802 10.7248 17.4448 10.8338C17.6094 10.9428 17.8026 11.0006 18 11H21V26C21 26.2652 21.1054 26.5196 21.2929 26.7071C21.4804 26.8947 21.7348 27 22 27C22.2652 27 22.5196 26.8947 22.7071 26.7071C22.8946 26.5196 23 26.2652 23 26V11H26C26.1974 11.0006 26.3906 10.9428 26.5552 10.8338C26.7198 10.7248 26.8485 10.5695 26.925 10.3875C26.997 10.2028 27.0153 10.0015 26.9777 9.8068C26.9401 9.61214 26.8482 9.4321 26.7125 9.28751Z" fill="#344054"/>
</svg>
