<svg width="32" height="32" viewBox="0 0 32 32" fill="none" xmlns="http://www.w3.org/2000/svg">
<path d="M28.7125 20.7125L22.7125 26.7125C22.5214 26.8973 22.2659 27.0006 22 27.0006C21.7341 27.0006 21.4786 26.8973 21.2875 26.7125L15.2875 20.7125C15.1518 20.5679 15.0599 20.3879 15.0223 20.1932C14.9847 19.9985 15.003 19.7972 15.075 19.6125C15.1515 19.4305 15.2802 19.2752 15.4448 19.1662C15.6094 19.0572 15.8026 18.9994 16 19H21V9H4C3.73478 9 3.48043 8.89464 3.29289 8.70711C3.10536 8.51957 3 8.26522 3 8C3 7.73478 3.10536 7.48043 3.29289 7.29289C3.48043 7.10536 3.73478 7 4 7H22C22.2652 7 22.5196 7.10536 22.7071 7.29289C22.8946 7.48043 23 7.73478 23 8V19H28C28.1974 18.9994 28.3906 19.0572 28.5552 19.1662C28.7198 19.2752 28.8485 19.4305 28.925 19.6125C28.997 19.7972 29.0153 19.9985 28.9777 20.1932C28.9401 20.3879 28.8482 20.5679 28.7125 20.7125Z" fill="#344054"/>
</svg>
