<svg width="32" height="32" viewBox="0 0 32 32" fill="none" xmlns="http://www.w3.org/2000/svg">
<path d="M25.925 10.3875C25.8485 10.5695 25.7198 10.7248 25.5552 10.8338C25.3906 10.9428 25.1974 11.0006 25 11H20V16C19.9934 19.4458 18.6216 22.7486 16.1851 25.1851C13.7485 27.6216 10.4458 28.9934 7 29C6.73478 29 6.48043 28.8947 6.29289 28.7071C6.10536 28.5196 6 28.2652 6 28C6 27.7348 6.10536 27.4804 6.29289 27.2929C6.48043 27.1054 6.73478 27 7 27C9.91637 26.9967 12.7123 25.8367 14.7745 23.7745C16.8367 21.7123 17.9967 18.9164 18 16V11H13C12.8026 11.0006 12.6094 10.9428 12.4448 10.8338C12.2802 10.7248 12.1515 10.5695 12.075 10.3875C12.003 10.2028 11.9847 10.0015 12.0223 9.8068C12.0599 9.61214 12.1518 9.4321 12.2875 9.28751L18.2875 3.28751C18.4771 3.09973 18.7332 2.99438 19 2.99438C19.2668 2.99438 19.5229 3.09973 19.7125 3.28751L25.7125 9.28751C25.8482 9.4321 25.9401 9.61214 25.9777 9.8068C26.0153 10.0015 25.997 10.2028 25.925 10.3875Z" fill="#344054"/>
</svg>
