<svg width="32" height="32" viewBox="0 0 32 32" fill="none" xmlns="http://www.w3.org/2000/svg">
<path d="M26.7125 10.7125L20.7125 16.7125C20.5205 16.896 20.2655 16.9989 20 17C19.8673 16.9994 19.7358 16.974 19.6125 16.925C19.4305 16.8485 19.2752 16.7198 19.1662 16.5552C19.0572 16.3906 18.9994 16.1974 19 16V11H9V28C9 28.2652 8.89464 28.5196 8.70711 28.7071C8.51957 28.8947 8.26522 29 8 29C7.73478 29 7.48043 28.8947 7.29289 28.7071C7.10536 28.5196 7 28.2652 7 28V10C7 9.7348 7.10536 9.48044 7.29289 9.29291C7.48043 9.10537 7.73478 9.00001 8 9.00001H19V4.00001C18.9994 3.80259 19.0572 3.6094 19.1662 3.44479C19.2752 3.28018 19.4305 3.15151 19.6125 3.07501C19.7972 3.00297 19.9985 2.98469 20.1932 3.0223C20.3879 3.0599 20.5679 3.15185 20.7125 3.28751L26.7125 9.28751C26.9003 9.47711 27.0056 9.73317 27.0056 10C27.0056 10.2669 26.9003 10.5229 26.7125 10.7125Z" fill="#344054"/>
</svg>
