<svg width="32" height="32" viewBox="0 0 32 32" fill="none" xmlns="http://www.w3.org/2000/svg">
<path d="M27.7125 15.2875L17.7125 5.2875C17.5679 5.15184 17.3879 5.05989 17.1932 5.02228C16.9985 4.98468 16.7972 5.00295 16.6125 5.075C16.4305 5.1515 16.2752 5.28016 16.1662 5.44477C16.0572 5.60938 15.9994 5.80257 16 6V13.5875L7.7125 5.2875C7.56792 5.15184 7.38788 5.05989 7.19321 5.02228C6.99855 4.98468 6.79722 5.00295 6.61251 5.075C6.4305 5.1515 6.27522 5.28016 6.16622 5.44477C6.05722 5.60938 5.99939 5.80257 6 6V26C5.99939 26.1974 6.05722 26.3906 6.16622 26.5552C6.27522 26.7198 6.4305 26.8485 6.61251 26.925C6.73585 26.974 6.86729 26.9994 7 27C7.26555 26.9989 7.52055 26.896 7.7125 26.7125L16 18.4125V26C15.9994 26.1974 16.0572 26.3906 16.1662 26.5552C16.2752 26.7198 16.4305 26.8485 16.6125 26.925C16.7359 26.974 16.8673 26.9994 17 27C17.2655 26.9989 17.5205 26.896 17.7125 26.7125L27.7125 16.7125C27.9003 16.5229 28.0056 16.2668 28.0056 16C28.0056 15.7332 27.9003 15.4771 27.7125 15.2875Z" fill="#344054"/>
</svg>
