<svg width="32" height="32" viewBox="0 0 32 32" fill="none" xmlns="http://www.w3.org/2000/svg">
<path d="M25.3875 5.075C25.2028 5.00295 25.0015 4.98468 24.8068 5.02228C24.6121 5.05989 24.4321 5.15184 24.2875 5.2875L16 13.5875V6C16.0006 5.80257 15.9428 5.60938 15.8338 5.44477C15.7248 5.28016 15.5695 5.1515 15.3875 5.075C15.2028 5.00295 15.0015 4.98468 14.8068 5.02228C14.6121 5.05989 14.4321 5.15184 14.2875 5.2875L4.28751 15.2875C4.09973 15.4771 3.99438 15.7332 3.99438 16C3.99438 16.2668 4.09973 16.5229 4.28751 16.7125L14.2875 26.7125C14.4795 26.896 14.7345 26.9989 15 27C15.1327 26.9994 15.2642 26.974 15.3875 26.925C15.5695 26.8485 15.7248 26.7198 15.8338 26.5552C15.9428 26.3906 16.0006 26.1974 16 26V18.4125L24.2875 26.7125C24.4795 26.896 24.7345 26.9989 25 27C25.1327 26.9994 25.2642 26.974 25.3875 26.925C25.5695 26.8485 25.7248 26.7198 25.8338 26.5552C25.9428 26.3906 26.0006 26.1974 26 26V6C26.0006 5.80257 25.9428 5.60938 25.8338 5.44477C25.7248 5.28016 25.5695 5.1515 25.3875 5.075Z" fill="#344054"/>
</svg>
