<svg width="32" height="32" viewBox="0 0 32 32" fill="none" xmlns="http://www.w3.org/2000/svg">
<path d="M24.4875 24.4875C22.2352 26.7363 19.1826 27.9993 16 27.9993C12.8173 27.9993 9.76472 26.7363 7.51248 24.4875C7.32546 24.3001 7.22044 24.0461 7.22044 23.7813C7.22044 23.5165 7.32546 23.2625 7.51248 23.075C7.60445 22.9809 7.7143 22.9061 7.83559 22.8551C7.95687 22.804 8.08713 22.7777 8.21873 22.7777C8.35032 22.7777 8.48058 22.804 8.60186 22.8551C8.72315 22.9061 8.833 22.9809 8.92498 23.075C10.3239 24.4724 12.1058 25.4237 14.0453 25.8087C15.9848 26.1936 17.9949 25.995 19.8215 25.2378C21.6481 24.4806 23.2093 23.1988 24.3076 21.5546C25.4059 19.9103 25.9921 17.9774 25.9921 16C25.9921 14.0227 25.4059 12.0897 24.3076 10.4455C23.2093 8.80123 21.6481 7.5195 19.8215 6.76229C17.9949 6.00509 15.9848 5.80641 14.0453 6.19136C12.1058 6.57631 10.3239 7.52761 8.92498 8.92502L8.38748 9.46252L10.6875 11.7625C10.8252 11.9031 10.9185 12.0811 10.9555 12.2744C10.9925 12.4677 10.9717 12.6676 10.8956 12.8491C10.8195 13.0306 10.6916 13.1856 10.5278 13.2947C10.3641 13.4038 10.1718 13.4622 9.97498 13.4625H3.97498C3.70976 13.4625 3.45541 13.3572 3.26787 13.1696C3.08033 12.9821 2.97498 12.7277 2.97498 12.4625V6.46252C2.97861 6.26443 3.03958 6.07164 3.1505 5.90747C3.26142 5.74331 3.41754 5.61481 3.59998 5.53752C3.78319 5.46335 3.98427 5.44514 4.17783 5.48519C4.37139 5.52523 4.54874 5.62174 4.68748 5.76252L6.97498 8.05002L7.51248 7.51252C9.7635 5.2615 12.8165 3.99689 16 3.99689C19.1834 3.99689 22.2365 5.2615 24.4875 7.51252C26.7385 9.76355 28.0031 12.8166 28.0031 16C28.0031 19.1835 26.7385 22.2365 24.4875 24.4875Z" fill="#344054"/>
</svg>
