<svg width="32" height="32" viewBox="0 0 32 32" fill="none" xmlns="http://www.w3.org/2000/svg">
<path d="M16.6125 28.925C16.4305 28.8485 16.2752 28.7198 16.1662 28.5552C16.0572 28.3906 15.9994 28.1974 16 28V23H9C8.73478 23 8.48043 22.8947 8.29289 22.7071C8.10536 22.5196 8 22.2652 8 22V10C8 9.7348 8.10536 9.48044 8.29289 9.29291C8.48043 9.10537 8.73478 9.00001 9 9.00001H16V4.00001C15.9994 3.80259 16.0572 3.6094 16.1662 3.44479C16.2752 3.28018 16.4305 3.15151 16.6125 3.07501C16.7972 3.00297 16.9985 2.98469 17.1932 3.0223C17.3879 3.0599 17.5679 3.15185 17.7125 3.28751L29.7125 15.2875C29.9003 15.4771 30.0056 15.7332 30.0056 16C30.0056 16.2669 29.9003 16.5229 29.7125 16.7125L17.7125 28.7125C17.5679 28.8482 17.3879 28.9401 17.1932 28.9777C16.9985 29.0153 16.7972 28.9971 16.6125 28.925ZM6 22V10C6 9.7348 5.89464 9.48044 5.70711 9.29291C5.51957 9.10537 5.26522 9.00001 5 9.00001C4.73478 9.00001 4.48043 9.10537 4.29289 9.29291C4.10536 9.48044 4 9.7348 4 10V22C4 22.2652 4.10536 22.5196 4.29289 22.7071C4.48043 22.8947 4.73478 23 5 23C5.26522 23 5.51957 22.8947 5.70711 22.7071C5.89464 22.5196 6 22.2652 6 22Z" fill="#344054"/>
</svg>
