<svg width="32" height="32" viewBox="0 0 32 32" fill="none" xmlns="http://www.w3.org/2000/svg">
<path d="M25 12.5V25C25 25.2652 24.8946 25.5196 24.7071 25.7071C24.5196 25.8946 24.2652 26 24 26H11.5C11.3026 26.0006 11.1094 25.9428 10.9448 25.8338C10.7802 25.7248 10.6515 25.5695 10.575 25.3875C10.503 25.2028 10.4847 25.0015 10.5223 24.8068C10.5599 24.6121 10.6518 24.4321 10.7875 24.2875L16.3375 18.75L9.2875 11.7125C9.12804 11.5182 9.04655 11.2715 9.05888 11.0205C9.07121 10.7694 9.17648 10.5319 9.35421 10.3542C9.53195 10.1765 9.76944 10.0712 10.0205 10.0589C10.2715 10.0465 10.5182 10.128 10.7125 10.2875L17.75 17.3375L23.2875 11.7875C23.4321 11.6518 23.6121 11.5599 23.8068 11.5223C24.0015 11.4847 24.2028 11.503 24.3875 11.575C24.5695 11.6515 24.7248 11.7802 24.8338 11.9448C24.9428 12.1094 25.0006 12.3026 25 12.5ZM27 4H5C4.73478 4 4.48043 4.10536 4.29289 4.29289C4.10536 4.48043 4 4.73478 4 5C4 5.26522 4.10536 5.51957 4.29289 5.70711C4.48043 5.89464 4.73478 6 5 6H27C27.2652 6 27.5196 5.89464 27.7071 5.70711C27.8946 5.51957 28 5.26522 28 5C28 4.73478 27.8946 4.48043 27.7071 4.29289C27.5196 4.10536 27.2652 4 27 4Z" fill="#344054"/>
</svg>
