<svg width="32" height="32" viewBox="0 0 32 32" fill="none" xmlns="http://www.w3.org/2000/svg">
<path d="M18 13V7.99999C17.9994 7.80257 18.0572 7.60938 18.1662 7.44477C18.2752 7.28016 18.4305 7.15149 18.6125 7.07499C18.7972 7.00295 18.9986 6.98467 19.1932 7.02228C19.3879 7.05988 19.5679 7.15183 19.7125 7.28749L21.5 9.08749L25.2875 5.28749C25.4818 5.12803 25.7285 5.04654 25.9795 5.05887C26.2306 5.0712 26.4681 5.17647 26.6458 5.3542C26.8235 5.53194 26.9288 5.76943 26.9411 6.02048C26.9535 6.27153 26.872 6.5182 26.7125 6.71249L22.9125 10.5L24.7125 12.2875C24.8482 12.4321 24.9401 12.6121 24.9777 12.8068C25.0153 13.0014 24.9971 13.2028 24.925 13.3875C24.8485 13.5695 24.7198 13.7248 24.5552 13.8338C24.3906 13.9428 24.1974 14.0006 24 14H19C18.7348 14 18.4804 13.8946 18.2929 13.7071C18.1054 13.5196 18 13.2652 18 13ZM13 18H8.00001C7.80258 17.9994 7.60939 18.0572 7.44478 18.1662C7.28017 18.2752 7.15151 18.4305 7.07501 18.6125C7.00296 18.7972 6.98469 18.9985 7.02229 19.1932C7.0599 19.3879 7.15185 19.5679 7.28751 19.7125L9.08751 21.5L5.28751 25.2875C5.09973 25.4771 4.99438 25.7331 4.99438 26C4.99438 26.2668 5.09973 26.5229 5.28751 26.7125C5.47865 26.8973 5.73413 27.0006 6.00001 27.0006C6.26589 27.0006 6.52137 26.8973 6.71251 26.7125L10.5 22.9125L12.2875 24.7125C12.4795 24.896 12.7345 24.9989 13 25C13.1327 24.9994 13.2642 24.974 13.3875 24.925C13.5695 24.8485 13.7248 24.7198 13.8338 24.5552C13.9428 24.3906 14.0006 24.1974 14 24V19C14 18.7348 13.8947 18.4804 13.7071 18.2929C13.5196 18.1053 13.2652 18 13 18ZM22.9125 21.5L24.7125 19.7125C24.8482 19.5679 24.9401 19.3879 24.9777 19.1932C25.0153 18.9985 24.9971 18.7972 24.925 18.6125C24.8485 18.4305 24.7198 18.2752 24.5552 18.1662C24.3906 18.0572 24.1974 17.9994 24 18H19C18.7348 18 18.4804 18.1053 18.2929 18.2929C18.1054 18.4804 18 18.7348 18 19V24C17.9994 24.1974 18.0572 24.3906 18.1662 24.5552C18.2752 24.7198 18.4305 24.8485 18.6125 24.925C18.7359 24.974 18.8673 24.9994 19 25C19.2656 24.9989 19.5206 24.896 19.7125 24.7125L21.5 22.9125L25.2875 26.7125C25.4786 26.8973 25.7341 27.0006 26 27.0006C26.2659 27.0006 26.5214 26.8973 26.7125 26.7125C26.9003 26.5229 27.0056 26.2668 27.0056 26C27.0056 25.7331 26.9003 25.4771 26.7125 25.2875L22.9125 21.5ZM13.3875 7.07499C13.2028 7.00295 13.0015 6.98467 12.8068 7.02228C12.6121 7.05988 12.4321 7.15183 12.2875 7.28749L10.5 9.08749L6.71251 5.28749C6.51821 5.12803 6.27155 5.04654 6.0205 5.05887C5.76945 5.0712 5.53196 5.17647 5.35422 5.3542C5.17649 5.53194 5.07122 5.76943 5.05889 6.02048C5.04656 6.27153 5.12805 6.5182 5.28751 6.71249L9.08751 10.5L7.28751 12.2875C7.15185 12.4321 7.0599 12.6121 7.02229 12.8068C6.98469 13.0014 7.00296 13.2028 7.07501 13.3875C7.15151 13.5695 7.28017 13.7248 7.44478 13.8338C7.60939 13.9428 7.80258 14.0006 8.00001 14H13C13.2652 14 13.5196 13.8946 13.7071 13.7071C13.8947 13.5196 14 13.2652 14 13V7.99999C14.0006 7.80257 13.9428 7.60938 13.8338 7.44477C13.7248 7.28016 13.5695 7.15149 13.3875 7.07499Z" fill="#344054"/>
</svg>
