<svg width="32" height="32" viewBox="0 0 32 32" fill="none" xmlns="http://www.w3.org/2000/svg">
<path d="M25.7125 22.7125L19.7125 28.7125C19.5214 28.8973 19.2659 29.0006 19 29.0006C18.7341 29.0006 18.4786 28.8973 18.2875 28.7125L12.2875 22.7125C12.1518 22.5679 12.0599 22.3879 12.0223 22.1932C11.9847 21.9985 12.003 21.7972 12.075 21.6125C12.1515 21.4305 12.2802 21.2752 12.4448 21.1662C12.6094 21.0572 12.8026 20.9994 13 21H18V16C17.9967 13.0836 16.8367 10.2877 14.7745 8.22548C12.7123 6.1633 9.91637 5.00331 7 5C6.73478 5 6.48043 4.89464 6.29289 4.70711C6.10536 4.51957 6 4.26522 6 4C6 3.73478 6.10536 3.48043 6.29289 3.29289C6.48043 3.10536 6.73478 3 7 3C10.4458 3.00661 13.7485 4.37837 16.1851 6.81491C18.6216 9.25145 19.9934 12.5542 20 16V21H25C25.1974 20.9994 25.3906 21.0572 25.5552 21.1662C25.7198 21.2752 25.8485 21.4305 25.925 21.6125C25.997 21.7972 26.0153 21.9985 25.9777 22.1932C25.9401 22.3879 25.8482 22.5679 25.7125 22.7125Z" fill="#344054"/>
</svg>
