<svg width="32" height="32" viewBox="0 0 32 32" fill="none" xmlns="http://www.w3.org/2000/svg">
<path d="M27.925 10.3875C27.8485 10.5695 27.7198 10.7248 27.5552 10.8338C27.3906 10.9428 27.1974 11.0006 27 11H22V21C22 23.1217 21.1571 25.1566 19.6569 26.6569C18.1566 28.1572 16.1217 29 14 29C11.8783 29 9.84344 28.1572 8.34315 26.6569C6.84285 25.1566 6 23.1217 6 21V10C6 9.73479 6.10536 9.48044 6.29289 9.2929C6.48043 9.10537 6.73478 9.00001 7 9.00001C7.26522 9.00001 7.51957 9.10537 7.70711 9.2929C7.89464 9.48044 8 9.73479 8 10V21C8 22.5913 8.63214 24.1174 9.75736 25.2427C10.8826 26.3679 12.4087 27 14 27C15.5913 27 17.1174 26.3679 18.2426 25.2427C19.3679 24.1174 20 22.5913 20 21V11H15C14.8026 11.0006 14.6094 10.9428 14.4448 10.8338C14.2802 10.7248 14.1515 10.5695 14.075 10.3875C14.003 10.2028 13.9847 10.0015 14.0223 9.8068C14.0599 9.61214 14.1518 9.4321 14.2875 9.28751L20.2875 3.28751C20.4771 3.09973 20.7332 2.99438 21 2.99438C21.2668 2.99438 21.5229 3.09973 21.7125 3.28751L27.7125 9.28751C27.8482 9.4321 27.9401 9.61214 27.9777 9.8068C28.0153 10.0015 27.997 10.2028 27.925 10.3875Z" fill="#344054"/>
</svg>
