<svg width="32" height="32" viewBox="0 0 32 32" fill="none" xmlns="http://www.w3.org/2000/svg">
<path d="M16 3C13.4288 3 10.9154 3.76244 8.77759 5.1909C6.63975 6.61935 4.97351 8.64968 3.98957 11.0251C3.00563 13.4006 2.74819 16.0144 3.2498 18.5362C3.75141 21.0579 4.98953 23.3743 6.80762 25.1924C8.6257 27.0105 10.9421 28.2486 13.4638 28.7502C15.9856 29.2518 18.5995 28.9944 20.9749 28.0104C23.3503 27.0265 25.3807 25.3603 26.8091 23.2224C28.2376 21.0846 29 18.5712 29 16C28.9934 12.5542 27.6216 9.25145 25.1851 6.81491C22.7486 4.37837 19.4458 3.00661 16 3ZM21.2375 15.175L16.7375 20.175C16.6438 20.2773 16.5299 20.359 16.4029 20.4149C16.2759 20.4708 16.1387 20.4997 16 20.4997C15.8613 20.4997 15.7241 20.4708 15.5971 20.4149C15.4701 20.359 15.3562 20.2773 15.2625 20.175L10.7625 15.175C10.5902 14.9783 10.5018 14.722 10.5161 14.461C10.5305 14.1999 10.6466 13.9548 10.8395 13.7783C11.0323 13.6018 11.2867 13.5078 11.548 13.5165C11.8093 13.5253 12.0568 13.636 12.2375 13.825L16 18L19.7625 13.825C19.8503 13.7249 19.9571 13.6433 20.0768 13.585C20.1965 13.5267 20.3267 13.4929 20.4596 13.4855C20.5925 13.4782 20.7256 13.4975 20.851 13.5423C20.9764 13.5871 21.0916 13.6565 21.1898 13.7464C21.288 13.8362 21.3673 13.9449 21.423 14.0658C21.4786 14.1867 21.5096 14.3176 21.5141 14.4506C21.5185 14.5837 21.4963 14.7163 21.4488 14.8407C21.4014 14.9651 21.3295 15.0788 21.2375 15.175Z" fill="#344054"/>
</svg>
