<svg width="32" height="32" viewBox="0 0 32 32" fill="none" xmlns="http://www.w3.org/2000/svg">
<path d="M15 18V25.5C15.0006 25.6974 14.9428 25.8906 14.8338 26.0552C14.7248 26.2198 14.5695 26.3485 14.3875 26.425C14.2641 26.474 14.1327 26.4994 14 26.5C13.7344 26.4989 13.4794 26.396 13.2875 26.2125L10.25 23.1625L5.69999 27.7125C5.51333 27.8963 5.26198 27.9996 4.99999 28C4.73445 27.9989 4.47945 27.896 4.28749 27.7125C4.10048 27.525 3.99545 27.271 3.99545 27.0063C3.99545 26.7415 4.10048 26.4875 4.28749 26.3L8.83749 21.75L5.78749 18.7125C5.65183 18.5679 5.55988 18.3879 5.52227 18.1932C5.48467 17.9985 5.50294 17.7972 5.57499 17.6125C5.65149 17.4305 5.78016 17.2752 5.94477 17.1662C6.10938 17.0572 6.30257 16.9994 6.49999 17H14C14.2652 17 14.5196 17.1054 14.7071 17.2929C14.8946 17.4804 15 17.7348 15 18ZM26 4H8.99999C8.46956 4 7.96085 4.21071 7.58578 4.58579C7.2107 4.96086 6.99999 5.46957 6.99999 6V12C6.99999 12.2652 7.10535 12.5196 7.29288 12.7071C7.48042 12.8946 7.73477 13 7.99999 13C8.26521 13 8.51956 12.8946 8.7071 12.7071C8.89463 12.5196 8.99999 12.2652 8.99999 12V6H26V23H20C19.7348 23 19.4804 23.1054 19.2929 23.2929C19.1053 23.4804 19 23.7348 19 24C19 24.2652 19.1053 24.5196 19.2929 24.7071C19.4804 24.8946 19.7348 25 20 25H26C26.5304 25 27.0391 24.7893 27.4142 24.4142C27.7893 24.0391 28 23.5304 28 23V6C28 5.46957 27.7893 4.96086 27.4142 4.58579C27.0391 4.21071 26.5304 4 26 4Z" fill="#344054"/>
</svg>
