<svg width="32" height="32" viewBox="0 0 32 32" fill="none" xmlns="http://www.w3.org/2000/svg">
<path d="M25.1875 6.81251C23.37 4.99304 21.0536 3.75354 18.5315 3.25081C16.0094 2.74808 13.3948 3.00472 11.0185 3.98825C8.6423 4.97178 6.61116 6.63802 5.18209 8.77616C3.75302 10.9143 2.99023 13.4283 2.99023 16C2.99023 18.5718 3.75302 21.0857 5.18209 23.2239C6.61116 25.362 8.6423 27.0282 11.0185 28.0118C13.3948 28.9953 16.0094 29.2519 18.5315 28.7492C21.0536 28.2465 23.37 27.007 25.1875 25.1875C26.3947 23.9814 27.3523 22.5491 28.0057 20.9727C28.6591 19.3962 28.9954 17.7065 28.9954 16C28.9954 14.2935 28.6591 12.6038 28.0057 11.0273C27.3523 9.45088 26.3947 8.01865 25.1875 6.81251ZM14.7125 19.2875C14.9003 19.4771 15.0056 19.7332 15.0056 20C15.0056 20.2669 14.9003 20.5229 14.7125 20.7125C14.5214 20.8973 14.2659 21.0006 14 21.0006C13.7341 21.0006 13.4786 20.8973 13.2875 20.7125L9.28751 16.7125C9.09973 16.5229 8.99438 16.2669 8.99438 16C8.99438 15.7332 9.09973 15.4771 9.28751 15.2875L13.2875 11.2875C13.4818 11.128 13.7285 11.0466 13.9795 11.0589C14.2306 11.0712 14.4681 11.1765 14.6458 11.3542C14.8235 11.532 14.9288 11.7694 14.9411 12.0205C14.9535 12.2715 14.872 12.5182 14.7125 12.7125L11.4125 16L14.7125 19.2875ZM21.7125 19.2875C21.9003 19.4771 22.0056 19.7332 22.0056 20C22.0056 20.2669 21.9003 20.5229 21.7125 20.7125C21.5214 20.8973 21.2659 21.0006 21 21.0006C20.7341 21.0006 20.4786 20.8973 20.2875 20.7125L16.2875 16.7125C16.0997 16.5229 15.9944 16.2669 15.9944 16C15.9944 15.7332 16.0997 15.4771 16.2875 15.2875L20.2875 11.2875C20.4818 11.128 20.7285 11.0466 20.9795 11.0589C21.2306 11.0712 21.4681 11.1765 21.6458 11.3542C21.8235 11.532 21.9288 11.7694 21.9411 12.0205C21.9535 12.2715 21.872 12.5182 21.7125 12.7125L18.4125 16L21.7125 19.2875Z" fill="#344054"/>
</svg>
