<svg width="32" height="32" viewBox="0 0 32 32" fill="none" xmlns="http://www.w3.org/2000/svg">
<path d="M29.6 25.5C29.3375 25.9572 28.9587 26.3368 28.5021 26.6002C28.0454 26.8637 27.5272 27.0016 27 27H20V29C20.0006 29.1974 19.9428 29.3906 19.8338 29.5552C19.7248 29.7198 19.5695 29.8485 19.3875 29.925C19.2642 29.974 19.1327 29.9994 19 30C18.7345 29.9989 18.4795 29.896 18.2875 29.7125L15.2875 26.7C15.1959 26.608 15.1234 26.4987 15.0741 26.3786C15.0247 26.2585 14.9996 26.1298 15 26C14.9985 25.7339 15.1018 25.478 15.2875 25.2875L18.2875 22.2875C18.4321 22.1518 18.6121 22.0599 18.8068 22.0223C19.0015 21.9847 19.2028 22.003 19.3875 22.075C19.5695 22.1515 19.7248 22.2802 19.8338 22.4448C19.9428 22.6094 20.0006 22.8026 20 23V25H27C27.1752 25.0007 27.3474 24.9547 27.499 24.8668C27.6506 24.779 27.776 24.6524 27.8625 24.5C27.9528 24.3488 28.0005 24.1761 28.0005 24C28.0005 23.8239 27.9528 23.6511 27.8625 23.5L24.8625 18.325C24.7299 18.0946 24.6943 17.8209 24.7634 17.5642C24.8326 17.3076 25.0009 17.0889 25.2313 16.9562C25.4617 16.8236 25.7353 16.788 25.992 16.8571C26.2487 16.9263 26.4674 17.0946 26.6 17.325L29.5875 22.5C29.8564 22.9537 29.9994 23.4709 30.0016 23.9983C30.0038 24.5257 29.8652 25.0441 29.6 25.5ZM11 25H5.00002C4.82483 25.0007 4.65261 24.9547 4.50104 24.8668C4.34947 24.779 4.22401 24.6524 4.13752 24.5C4.04723 24.3488 3.99955 24.1761 3.99955 24C3.99955 23.8239 4.04723 23.6511 4.13752 23.5L7.63752 17.4625L9.37502 18.4625C9.5267 18.5515 9.69916 18.5989 9.87502 18.6C10.0932 18.5983 10.3044 18.5235 10.475 18.3875C10.6325 18.2679 10.7509 18.1043 10.8155 17.9175C10.88 17.7306 10.8877 17.5287 10.8375 17.3375L9.73752 13.2375C9.6668 12.9852 9.50102 12.7701 9.27502 12.6375C9.16162 12.5693 9.03539 12.5252 8.90419 12.508C8.773 12.4908 8.63966 12.5009 8.51252 12.5375L4.41252 13.625C4.2226 13.6776 4.05245 13.7852 3.92346 13.9342C3.79448 14.0832 3.71239 14.267 3.68752 14.4625C3.65889 14.6589 3.69009 14.8593 3.77705 15.0377C3.86401 15.2161 4.00269 15.3641 4.17502 15.4625L5.90002 16.4625L2.41252 22.5C2.14561 22.9546 2.00375 23.4718 2.00137 23.999C1.99899 24.5262 2.13616 25.0447 2.39896 25.5017C2.66176 25.9587 3.04082 26.3381 3.49765 26.6012C3.95448 26.8644 4.47282 27.002 5.00002 27H11C11.2652 27 11.5196 26.8946 11.7071 26.7071C11.8947 26.5196 12 26.2652 12 26C12 25.7348 11.8947 25.4804 11.7071 25.2929C11.5196 25.1054 11.2652 25 11 25ZM16 4C16.1755 3.99802 16.3482 4.04342 16.5 4.13142C16.6518 4.21942 16.777 4.34676 16.8625 4.5L20.3625 10.5375L18.6375 11.5375C18.463 11.633 18.3215 11.7789 18.2313 11.9562C18.1412 12.1336 18.1067 12.3339 18.1324 12.5312C18.158 12.7284 18.2427 12.9133 18.3752 13.0617C18.5077 13.21 18.6819 13.3148 18.875 13.3625L22.975 14.4625L23.225 14.5C23.4457 14.5001 23.6604 14.4281 23.8364 14.295C24.0124 14.1619 24.1401 13.9749 24.2 13.7625L25.3 9.6625C25.3512 9.46939 25.344 9.26547 25.2795 9.0764C25.215 8.88734 25.096 8.72158 24.9375 8.6C24.7792 8.48038 24.5889 8.41057 24.3908 8.39944C24.1927 8.38831 23.9957 8.43637 23.825 8.5375L22.0875 9.5375L18.6 3.5C18.337 3.04303 17.9581 2.66347 17.5017 2.39955C17.0452 2.13562 16.5273 1.99666 16 1.99666C15.4728 1.99666 14.9548 2.13562 14.4984 2.39955C14.0419 2.66347 13.6631 3.04303 13.4 3.5L10.4125 8.675C10.3343 8.78854 10.2803 8.91703 10.2541 9.05242C10.2279 9.1878 10.23 9.32715 10.2602 9.4617C10.2904 9.59624 10.3481 9.72309 10.4297 9.83425C10.5113 9.94542 10.615 10.0385 10.7343 10.1077C10.8536 10.1768 10.986 10.2206 11.123 10.2361C11.26 10.2517 11.3988 10.2388 11.5305 10.1981C11.6623 10.1575 11.7843 10.09 11.8887 10C11.9932 9.90999 12.0779 9.79933 12.1375 9.675L15.1375 4.5C15.223 4.34676 15.3482 4.21942 15.5 4.13142C15.6518 4.04342 15.8246 3.99802 16 4Z" fill="#344054"/>
</svg>
