<svg width="32" height="32" viewBox="0 0 32 32" fill="none" xmlns="http://www.w3.org/2000/svg">
<path d="M23.7125 15.2875C23.9003 15.4771 24.0056 15.7332 24.0056 16C24.0056 16.2668 23.9003 16.5229 23.7125 16.7125L14.7125 25.7125C14.5205 25.896 14.2655 25.9989 14 26C13.8673 25.9994 13.7358 25.974 13.6125 25.925C13.4305 25.8485 13.2752 25.7198 13.1662 25.5552C13.0572 25.3906 12.9994 25.1974 13 25V17H4C3.73478 17 3.48043 16.8946 3.29289 16.7071C3.10536 16.5196 3 16.2652 3 16C3 15.7348 3.10536 15.4804 3.29289 15.2929C3.48043 15.1054 3.73478 15 4 15H13V7C12.9994 6.80257 13.0572 6.60938 13.1662 6.44477C13.2752 6.28016 13.4305 6.1515 13.6125 6.075C13.7972 6.00295 13.9985 5.98468 14.1932 6.02228C14.3879 6.05989 14.5679 6.15184 14.7125 6.2875L23.7125 15.2875ZM27 4C26.7348 4 26.4804 4.10536 26.2929 4.29289C26.1054 4.48043 26 4.73478 26 5V27C26 27.2652 26.1054 27.5196 26.2929 27.7071C26.4804 27.8946 26.7348 28 27 28C27.2652 28 27.5196 27.8946 27.7071 27.7071C27.8946 27.5196 28 27.2652 28 27V5C28 4.73478 27.8946 4.48043 27.7071 4.29289C27.5196 4.10536 27.2652 4 27 4Z" fill="#344054"/>
</svg>
