<svg width="32" height="32" viewBox="0 0 32 32" fill="none" xmlns="http://www.w3.org/2000/svg">
<path d="M29 14C28.9967 16.1207 28.1528 18.1536 26.6532 19.6532C25.1536 21.1528 23.1207 21.9967 21 22H11V27C11.0006 27.1974 10.9428 27.3906 10.8338 27.5552C10.7248 27.7198 10.5695 27.8485 10.3875 27.925C10.2642 27.974 10.1327 27.9994 10 28C9.73447 27.9989 9.47947 27.896 9.28751 27.7125L3.28751 21.7125C3.09973 21.5229 2.99438 21.2668 2.99438 21C2.99438 20.7332 3.09973 20.4771 3.28751 20.2875L9.28751 14.2875C9.4321 14.1518 9.61214 14.0599 9.8068 14.0223C10.0015 13.9847 10.2028 14.003 10.3875 14.075C10.5695 14.1515 10.7248 14.2802 10.8338 14.4448C10.9428 14.6094 11.0006 14.8026 11 15V20H21C22.5913 20 24.1174 19.3679 25.2427 18.2426C26.3679 17.1174 27 15.5913 27 14C27 12.4087 26.3679 10.8826 25.2427 9.75736C24.1174 8.63214 22.5913 8 21 8H10C9.73479 8 9.48044 7.89464 9.2929 7.70711C9.10537 7.51957 9.00001 7.26522 9.00001 7C9.00001 6.73478 9.10537 6.48043 9.2929 6.29289C9.48044 6.10536 9.73479 6 10 6H21C23.1207 6.00331 25.1536 6.84722 26.6532 8.3468C28.1528 9.84637 28.9967 11.8793 29 14Z" fill="#344054"/>
</svg>
