<svg width="32" height="32" viewBox="0 0 32 32" fill="none" xmlns="http://www.w3.org/2000/svg">
<path d="M26 4H6C5.46957 4 4.96086 4.21071 4.58579 4.58579C4.21071 4.96086 4 5.46957 4 6V26C4 26.5304 4.21071 27.0391 4.58579 27.4142C4.96086 27.7893 5.46957 28 6 28H26C26.5304 28 27.0391 27.7893 27.4142 27.4142C27.7893 27.0391 28 26.5304 28 26V6C28 5.46957 27.7893 4.96086 27.4142 4.58579C27.0391 4.21071 26.5304 4 26 4ZM20.2125 20.2125C20.0214 20.3973 19.7659 20.5006 19.5 20.5006C19.2341 20.5006 18.9786 20.3973 18.7875 20.2125L13.5 14.9125V18.5C13.5 18.7652 13.3946 19.0196 13.2071 19.2071C13.0196 19.3946 12.7652 19.5 12.5 19.5C12.2348 19.5 11.9804 19.3946 11.7929 19.2071C11.6054 19.0196 11.5 18.7652 11.5 18.5V12.5C11.5 12.2348 11.6054 11.9804 11.7929 11.7929C11.9804 11.6054 12.2348 11.5 12.5 11.5H18.5C18.7652 11.5 19.0196 11.6054 19.2071 11.7929C19.3946 11.9804 19.5 12.2348 19.5 12.5C19.5 12.7652 19.3946 13.0196 19.2071 13.2071C19.0196 13.3946 18.7652 13.5 18.5 13.5H14.9125L20.2125 18.7875C20.4003 18.9771 20.5056 19.2332 20.5056 19.5C20.5056 19.7668 20.4003 20.0229 20.2125 20.2125Z" fill="#344054"/>
</svg>
