<svg width="32" height="32" viewBox="0 0 32 32" fill="none" xmlns="http://www.w3.org/2000/svg">
<path d="M29.7125 12.7125L17.7125 24.7125C17.5214 24.8973 17.2659 25.0006 17 25.0006C16.7341 25.0006 16.4786 24.8973 16.2875 24.7125L7.5 15.9125L3.7125 19.7125C3.52055 19.896 3.26555 19.9989 3 20C2.86729 19.9994 2.73585 19.974 2.6125 19.925C2.4305 19.8485 2.27522 19.7198 2.16622 19.5552C2.05722 19.3906 1.99939 19.1974 2 19V10C2 9.73479 2.10536 9.48043 2.2929 9.2929C2.48043 9.10536 2.73479 9 3 9H12C12.1974 8.99939 12.3906 9.05722 12.5552 9.16622C12.7198 9.27522 12.8485 9.4305 12.925 9.61251C12.9971 9.79722 13.0153 9.99855 12.9777 10.1932C12.9401 10.3879 12.8482 10.5679 12.7125 10.7125L8.91251 14.5L17 22.5875L28.2875 11.2875C28.4818 11.128 28.7285 11.0466 28.9795 11.0589C29.2306 11.0712 29.4681 11.1765 29.6458 11.3542C29.8235 11.532 29.9288 11.7694 29.9411 12.0205C29.9535 12.2715 29.872 12.5182 29.7125 12.7125Z" fill="#344054"/>
</svg>
