<svg width="32" height="32" viewBox="0 0 32 32" fill="none" xmlns="http://www.w3.org/2000/svg">
<path d="M29 18C28.9967 20.1207 28.1528 22.1536 26.6532 23.6532C25.1536 25.1528 23.1207 25.9967 21 26H10C9.73479 26 9.48044 25.8947 9.2929 25.7071C9.10537 25.5196 9.00001 25.2652 9.00001 25C9.00001 24.7348 9.10537 24.4804 9.2929 24.2929C9.48044 24.1054 9.73479 24 10 24H21C22.5913 24 24.1174 23.3679 25.2427 22.2427C26.3679 21.1174 27 19.5913 27 18C27 16.4087 26.3679 14.8826 25.2427 13.7574C24.1174 12.6322 22.5913 12 21 12H11V17C11.0006 17.1974 10.9428 17.3906 10.8338 17.5552C10.7248 17.7198 10.5695 17.8485 10.3875 17.925C10.2642 17.974 10.1327 17.9994 10 18C9.73447 17.9989 9.47947 17.896 9.28751 17.7125L3.28751 11.7125C3.09973 11.5229 2.99438 11.2669 2.99438 11C2.99438 10.7332 3.09973 10.4771 3.28751 10.2875L9.28751 4.28751C9.4321 4.15185 9.61214 4.0599 9.8068 4.0223C10.0015 3.98469 10.2028 4.00297 10.3875 4.07501C10.5695 4.15151 10.7248 4.28018 10.8338 4.44479C10.9428 4.6094 11.0006 4.80259 11 5.00001V10H21C23.1207 10.0033 25.1536 10.8472 26.6532 12.3468C28.1528 13.8464 28.9967 15.8793 29 18Z" fill="#344054"/>
</svg>
