<svg width="32" height="32" viewBox="0 0 32 32" fill="none" xmlns="http://www.w3.org/2000/svg">
<path d="M16 3C13.4288 3 10.9154 3.76244 8.77759 5.1909C6.63975 6.61935 4.97351 8.64968 3.98957 11.0251C3.00563 13.4006 2.74819 16.0144 3.2498 18.5362C3.75141 21.0579 4.98953 23.3743 6.80762 25.1924C8.6257 27.0105 10.9421 28.2486 13.4638 28.7502C15.9856 29.2518 18.5995 28.9944 20.9749 28.0104C23.3503 27.0265 25.3807 25.3603 26.8091 23.2224C28.2376 21.0846 29 18.5712 29 16C28.9934 12.5542 27.6216 9.25145 25.1851 6.81491C22.7486 4.37837 19.4458 3.00661 16 3ZM20.95 17.4625L16.7125 21.7125C16.5214 21.8973 16.2659 22.0006 16 22.0006C15.7341 22.0006 15.4786 21.8973 15.2875 21.7125L11.05 17.4625C10.8776 17.2723 10.785 17.0231 10.7914 16.7664C10.7977 16.5098 10.9024 16.2655 11.0839 16.0839C11.2655 15.9024 11.5098 15.7977 11.7664 15.7914C12.0231 15.785 12.2723 15.8776 12.4625 16.05L15 18.5875V11C15 10.7348 15.1054 10.4804 15.2929 10.2929C15.4804 10.1054 15.7348 10 16 10C16.2652 10 16.5196 10.1054 16.7071 10.2929C16.8946 10.4804 17 10.7348 17 11V18.5875L19.5375 16.05C19.7277 15.8776 19.977 15.785 20.2336 15.7914C20.4902 15.7977 20.7346 15.9024 20.9161 16.0839C21.0976 16.2655 21.2023 16.5098 21.2087 16.7664C21.215 17.0231 21.1224 17.2723 20.95 17.4625Z" fill="#344054"/>
</svg>
