<svg width="32" height="32" viewBox="0 0 32 32" fill="none" xmlns="http://www.w3.org/2000/svg">
<path d="M22.7125 10.2875C22.9003 10.4771 23.0056 10.7332 23.0056 11C23.0056 11.2668 22.9003 11.5229 22.7125 11.7125L15.6625 18.75L21.2125 24.2875C21.3482 24.4321 21.4401 24.6121 21.4777 24.8068C21.5153 25.0015 21.497 25.2028 21.425 25.3875C21.3485 25.5695 21.2198 25.7248 21.0552 25.8338C20.8906 25.9428 20.6974 26.0006 20.5 26H8C7.73478 26 7.48043 25.8946 7.29289 25.7071C7.10536 25.5196 7 25.2652 7 25V12.5C6.99938 12.3026 7.05722 12.1094 7.16622 11.9448C7.27521 11.7802 7.4305 11.6515 7.6125 11.575C7.79721 11.503 7.99854 11.4847 8.19321 11.5223C8.38787 11.5599 8.56791 11.6518 8.7125 11.7875L14.25 17.3375L21.2875 10.2875C21.4771 10.0997 21.7332 9.99437 22 9.99437C22.2668 9.99437 22.5229 10.0997 22.7125 10.2875ZM27 4H5C4.73478 4 4.48043 4.10536 4.29289 4.29289C4.10536 4.48043 4 4.73478 4 5C4 5.26522 4.10536 5.51957 4.29289 5.70711C4.48043 5.89464 4.73478 6 5 6H27C27.2652 6 27.5196 5.89464 27.7071 5.70711C27.8946 5.51957 28 5.26522 28 5C28 4.73478 27.8946 4.48043 27.7071 4.29289C27.5196 4.10536 27.2652 4 27 4Z" fill="#344054"/>
</svg>
