<svg width="32" height="32" viewBox="0 0 32 32" fill="none" xmlns="http://www.w3.org/2000/svg">
<path d="M26 4H6C5.46957 4 4.96086 4.21071 4.58579 4.58579C4.21071 4.96086 4 5.46957 4 6V26C4 26.5304 4.21071 27.0391 4.58579 27.4142C4.96086 27.7893 5.46957 28 6 28H26C26.5304 28 27.0391 27.7893 27.4142 27.4142C27.7893 27.0391 28 26.5304 28 26V6C28 5.46957 27.7893 4.96086 27.4142 4.58579C27.0391 4.21071 26.5304 4 26 4ZM20.5 18.5C20.5 18.7652 20.3946 19.0196 20.2071 19.2071C20.0196 19.3946 19.7652 19.5 19.5 19.5C19.2348 19.5 18.9804 19.3946 18.7929 19.2071C18.6054 19.0196 18.5 18.7652 18.5 18.5V14.9125L13.2125 20.2125C13.0214 20.3973 12.7659 20.5006 12.5 20.5006C12.2341 20.5006 11.9786 20.3973 11.7875 20.2125C11.5997 20.0229 11.4944 19.7668 11.4944 19.5C11.4944 19.2332 11.5997 18.9771 11.7875 18.7875L17.0875 13.5H13.5C13.2348 13.5 12.9804 13.3946 12.7929 13.2071C12.6054 13.0196 12.5 12.7652 12.5 12.5C12.5 12.2348 12.6054 11.9804 12.7929 11.7929C12.9804 11.6054 13.2348 11.5 13.5 11.5H19.5C19.7652 11.5 20.0196 11.6054 20.2071 11.7929C20.3946 11.9804 20.5 12.2348 20.5 12.5V18.5Z" fill="#344054"/>
</svg>
