<svg width="32" height="32" viewBox="0 0 32 32" fill="none" xmlns="http://www.w3.org/2000/svg">
<path d="M29 23C29 23.2652 28.8946 23.5196 28.7071 23.7071C28.5196 23.8946 28.2652 24 28 24C27.7348 24 27.4804 23.8946 27.2929 23.7071C27.1054 23.5196 27 23.2652 27 23C26.9992 20.9101 26.4031 18.8637 25.2814 17.1004C24.1597 15.337 22.559 13.9296 20.6665 13.0431C18.774 12.1565 16.6681 11.8274 14.5953 12.0943C12.5225 12.3611 10.5687 13.2129 8.9625 14.55L12.225 17.8125C12.3637 17.9526 12.4578 18.1306 12.4956 18.3241C12.5335 18.5176 12.5132 18.718 12.4375 18.9C12.3624 19.083 12.2341 19.2392 12.0691 19.3484C11.9042 19.4576 11.7103 19.5148 11.5125 19.5125H3.5125C3.24728 19.5125 2.99293 19.4071 2.80539 19.2196C2.61785 19.0321 2.5125 18.7777 2.5125 18.5125V10.5125C2.51283 10.3142 2.5721 10.1205 2.68279 9.95596C2.79348 9.79144 2.95058 9.66353 3.13413 9.58851C3.31767 9.51348 3.51939 9.49471 3.71363 9.5346C3.90786 9.57448 4.08586 9.67121 4.225 9.81249L7.5375 13.125C10.0252 10.9955 13.225 9.88336 16.4972 10.0108C19.7694 10.1383 22.8729 11.496 25.1875 13.8125C26.4011 15.0141 27.3632 16.4454 28.0178 18.0228C28.6724 19.6002 29.0063 21.2922 29 23Z" fill="#344054"/>
</svg>
