<svg width="32" height="32" viewBox="0 0 32 32" fill="none" xmlns="http://www.w3.org/2000/svg">
<path d="M30 10V19C30.0006 19.1974 29.9428 19.3906 29.8338 19.5552C29.7248 19.7198 29.5695 19.8485 29.3875 19.925C29.2642 19.974 29.1327 19.9994 29 20C28.7345 19.9989 28.4795 19.896 28.2875 19.7125L24.5 15.9125L15.7125 24.7125C15.5214 24.8973 15.2659 25.0006 15 25.0006C14.7341 25.0006 14.4787 24.8973 14.2875 24.7125L2.28752 12.7125C2.12806 12.5182 2.04657 12.2715 2.0589 12.0205C2.07123 11.7694 2.1765 11.532 2.35423 11.3542C2.53197 11.1765 2.76946 11.0712 3.02051 11.0589C3.27156 11.0466 3.51823 11.128 3.71252 11.2875L15 22.5875L23.0875 14.5L19.2875 10.7125C19.1519 10.5679 19.0599 10.3879 19.0223 10.1932C18.9847 9.99855 19.003 9.79722 19.075 9.61251C19.1515 9.4305 19.2802 9.27522 19.4448 9.16622C19.6094 9.05722 19.8026 8.99939 20 9H29C29.2652 9 29.5196 9.10536 29.7071 9.2929C29.8947 9.48043 30 9.73479 30 10Z" fill="#344054"/>
</svg>
