<svg width="32" height="32" viewBox="0 0 32 32" fill="none" xmlns="http://www.w3.org/2000/svg">
<path d="M28.7125 13.7125L22.7125 19.7125C22.5205 19.896 22.2655 19.9989 22 20C21.8673 19.9994 21.7358 19.974 21.6125 19.925C21.4305 19.8485 21.2752 19.7198 21.1662 19.5552C21.0572 19.3906 20.9994 19.1974 21 19V14H16C13.0836 14.0033 10.2877 15.1633 8.22548 17.2255C6.1633 19.2877 5.00331 22.0836 5 25C5 25.2652 4.89464 25.5196 4.70711 25.7071C4.51957 25.8947 4.26522 26 4 26C3.73478 26 3.48043 25.8947 3.29289 25.7071C3.10536 25.5196 3 25.2652 3 25C3.00661 21.5542 4.37837 18.2515 6.81491 15.8149C9.25145 13.3784 12.5542 12.0066 16 12H21V7.00001C20.9994 6.80259 21.0572 6.6094 21.1662 6.44479C21.2752 6.28018 21.4305 6.15151 21.6125 6.07501C21.7972 6.00297 21.9985 5.98469 22.1932 6.0223C22.3879 6.0599 22.5679 6.15185 22.7125 6.28751L28.7125 12.2875C28.9003 12.4771 29.0056 12.7332 29.0056 13C29.0056 13.2669 28.9003 13.5229 28.7125 13.7125Z" fill="#344054"/>
</svg>
