<svg width="32" height="32" viewBox="0 0 32 32" fill="none" xmlns="http://www.w3.org/2000/svg">
<path d="M28 26V6C28 5.46957 27.7893 4.96086 27.4142 4.58579C27.0391 4.21071 26.5304 4 26 4H6C5.46957 4 4.96086 4.21071 4.58579 4.58579C4.21071 4.96086 4 5.46957 4 6V26C4 26.5304 4.21071 27.0391 4.58579 27.4142C4.96086 27.7893 5.46957 28 6 28H26C26.5304 28 27.0391 27.7893 27.4142 27.4142C27.7893 27.0391 28 26.5304 28 26ZM20.95 15.95C20.7625 16.137 20.5085 16.242 20.2437 16.242C19.979 16.242 19.725 16.137 19.5375 15.95L17 13.4125V21C17 21.2652 16.8946 21.5196 16.7071 21.7071C16.5196 21.8946 16.2652 22 16 22C15.7348 22 15.4804 21.8946 15.2929 21.7071C15.1054 21.5196 15 21.2652 15 21V13.4125L12.4625 15.95C12.2723 16.1224 12.0231 16.215 11.7664 16.2086C11.5098 16.2023 11.2655 16.0976 11.0839 15.9161C10.9024 15.7345 10.7977 15.4902 10.7914 15.2336C10.785 14.9769 10.8776 14.7277 11.05 14.5375L15.2875 10.3C15.3812 10.2058 15.4913 10.1295 15.6125 10.075C15.7358 10.026 15.8673 10.0006 16 10C16.1288 9.99967 16.2563 10.0252 16.375 10.075C16.5017 10.1262 16.6166 10.2027 16.7125 10.3L20.95 14.5375C21.137 14.725 21.242 14.979 21.242 15.2437C21.242 15.5085 21.137 15.7625 20.95 15.95Z" fill="#344054"/>
</svg>
