<svg width="32" height="32" viewBox="0 0 32 32" fill="none" xmlns="http://www.w3.org/2000/svg">
<path d="M16 3C13.4288 3 10.9154 3.76244 8.77759 5.1909C6.63975 6.61935 4.97351 8.64968 3.98957 11.0251C3.00563 13.4006 2.74819 16.0144 3.2498 18.5362C3.75141 21.0579 4.98953 23.3743 6.80762 25.1924C8.6257 27.0105 10.9421 28.2486 13.4638 28.7502C15.9856 29.2518 18.5995 28.9944 20.9749 28.0104C23.3503 27.0265 25.3807 25.3603 26.8091 23.2224C28.2376 21.0846 29 18.5712 29 16C28.9934 12.5542 27.6216 9.25145 25.1851 6.81491C22.7486 4.37837 19.4458 3.00661 16 3ZM20.2125 13.2125L14.9125 18.5H18.5C18.7652 18.5 19.0196 18.6054 19.2071 18.7929C19.3946 18.9804 19.5 19.2348 19.5 19.5C19.5 19.7652 19.3946 20.0196 19.2071 20.2071C19.0196 20.3946 18.7652 20.5 18.5 20.5H12.5C12.3673 20.4994 12.2359 20.474 12.1125 20.425C11.8711 20.3213 11.6787 20.1289 11.575 19.8875C11.526 19.7642 11.5006 19.6327 11.5 19.5V13.5C11.5 13.2348 11.6054 12.9804 11.7929 12.7929C11.9804 12.6054 12.2348 12.5 12.5 12.5C12.7652 12.5 13.0196 12.6054 13.2071 12.7929C13.3946 12.9804 13.5 13.2348 13.5 13.5V17.0875L18.7875 11.7875C18.9818 11.628 19.2285 11.5465 19.4795 11.5589C19.7306 11.5712 19.9681 11.6765 20.1458 11.8542C20.3235 12.0319 20.4288 12.2694 20.4411 12.5205C20.4535 12.7715 20.372 13.0182 20.2125 13.2125Z" fill="#344054"/>
</svg>
