<svg width="32" height="32" viewBox="0 0 32 32" fill="none" xmlns="http://www.w3.org/2000/svg">
<path d="M25.925 14.3875C25.8485 14.5695 25.7198 14.7248 25.5552 14.8338C25.3906 14.9428 25.1974 15.0006 25 15H17V27C17 27.2652 16.8947 27.5196 16.7071 27.7071C16.5196 27.8947 16.2652 28 16 28C15.7348 28 15.4804 27.8947 15.2929 27.7071C15.1054 27.5196 15 27.2652 15 27V15H7.00001C6.80259 15.0006 6.6094 14.9428 6.44479 14.8338C6.28018 14.7248 6.15151 14.5695 6.07501 14.3875C6.00297 14.2028 5.98469 14.0015 6.0223 13.8068C6.0599 13.6121 6.15185 13.4321 6.28751 13.2875L15.2875 4.28751C15.4771 4.09973 15.7332 3.99438 16 3.99438C16.2669 3.99438 16.5229 4.09973 16.7125 4.28751L25.7125 13.2875C25.8482 13.4321 25.9401 13.6121 25.9777 13.8068C26.0153 14.0015 25.9971 14.2028 25.925 14.3875Z" fill="#344054"/>
</svg>
