<svg width="32" height="32" viewBox="0 0 32 32" fill="none" xmlns="http://www.w3.org/2000/svg">
<path d="M6.81251 6.81251C4.99304 8.63004 3.75354 10.9464 3.25081 13.4685C2.74808 15.9907 3.00472 18.6052 3.98825 20.9815C4.97178 23.3577 6.63802 25.3889 8.77616 26.8179C10.9143 28.247 13.4283 29.0098 16 29.0098C18.5718 29.0098 21.0857 28.247 23.2239 26.8179C25.362 25.3889 27.0282 23.3577 28.0118 20.9815C28.9953 18.6052 29.2519 15.9907 28.7492 13.4685C28.2465 10.9464 27.007 8.63004 25.1875 6.81251C23.9814 5.60533 22.5491 4.64767 20.9727 3.99429C19.3962 3.34091 17.7065 3.00461 16 3.00461C14.2935 3.00461 12.6038 3.34091 11.0273 3.99429C9.45088 4.64767 8.01865 5.60533 6.81251 6.81251ZM19.2875 17.2875C19.4771 17.0997 19.7332 16.9944 20 16.9944C20.2669 16.9944 20.5229 17.0997 20.7125 17.2875C20.8973 17.4787 21.0006 17.7341 21.0006 18C21.0006 18.2659 20.8973 18.5214 20.7125 18.7125L16.7125 22.7125C16.5229 22.9003 16.2669 23.0056 16 23.0056C15.7332 23.0056 15.4771 22.9003 15.2875 22.7125L11.2875 18.7125C11.128 18.5182 11.0466 18.2716 11.0589 18.0205C11.0712 17.7694 11.1765 17.532 11.3542 17.3542C11.532 17.1765 11.7694 17.0712 12.0205 17.0589C12.2715 17.0466 12.5182 17.128 12.7125 17.2875L16 20.5875L19.2875 17.2875ZM19.2875 10.2875C19.4771 10.0997 19.7332 9.99439 20 9.99439C20.2669 9.99439 20.5229 10.0997 20.7125 10.2875C20.8973 10.4787 21.0006 10.7341 21.0006 11C21.0006 11.2659 20.8973 11.5214 20.7125 11.7125L16.7125 15.7125C16.5229 15.9003 16.2669 16.0056 16 16.0056C15.7332 16.0056 15.4771 15.9003 15.2875 15.7125L11.2875 11.7125C11.128 11.5182 11.0466 11.2716 11.0589 11.0205C11.0712 10.7694 11.1765 10.532 11.3542 10.3542C11.532 10.1765 11.7694 10.0712 12.0205 10.0589C12.2715 10.0466 12.5182 10.128 12.7125 10.2875L16 13.5875L19.2875 10.2875Z" fill="#344054"/>
</svg>
