<svg width="32" height="32" viewBox="0 0 32 32" fill="none" xmlns="http://www.w3.org/2000/svg">
<path d="M20.925 24.6125C20.9971 24.7972 21.0153 24.9986 20.9777 25.1932C20.9401 25.3879 20.8482 25.5679 20.7125 25.7125L16.7125 29.7125C16.5214 29.8973 16.2659 30.0006 16 30.0006C15.7341 30.0006 15.4787 29.8973 15.2875 29.7125L11.2875 25.7125C11.1519 25.5679 11.0599 25.3879 11.0223 25.1932C10.9847 24.9986 11.003 24.7972 11.075 24.6125C11.1515 24.4305 11.2802 24.2752 11.4448 24.1662C11.6094 24.0572 11.8026 23.9994 12 24H15V8.00001H12C11.8026 8.00063 11.6094 7.94279 11.4448 7.83379C11.2802 7.7248 11.1515 7.56951 11.075 7.38751C11.003 7.2028 10.9847 7.00147 11.0223 6.8068C11.0599 6.61214 11.1519 6.4321 11.2875 6.28751L15.2875 2.28751C15.4771 2.09973 15.7332 1.99438 16 1.99438C16.2669 1.99438 16.5229 2.09973 16.7125 2.28751L20.7125 6.28751C20.8482 6.4321 20.9401 6.61214 20.9777 6.8068C21.0153 7.00147 20.9971 7.2028 20.925 7.38751C20.8485 7.56951 20.7198 7.7248 20.5552 7.83379C20.3906 7.94279 20.1974 8.00063 20 8.00001H17V24H20C20.1974 23.9994 20.3906 24.0572 20.5552 24.1662C20.7198 24.2752 20.8485 24.4305 20.925 24.6125Z" fill="#344054"/>
</svg>
