<svg width="32" height="32" viewBox="0 0 32 32" fill="none" xmlns="http://www.w3.org/2000/svg">
<path d="M28 16C28 16.2652 27.8946 16.5196 27.7071 16.7071C27.5196 16.8947 27.2652 17 27 17H5C4.73478 17 4.48043 16.8947 4.29289 16.7071C4.10536 16.5196 4 16.2652 4 16C4 15.7348 4.10536 15.4804 4.29289 15.2929C4.48043 15.1054 4.73478 15 5 15H27C27.2652 15 27.5196 15.1054 27.7071 15.2929C27.8946 15.4804 28 15.7348 28 16ZM12 7.00001H15V12C15 12.2652 15.1054 12.5196 15.2929 12.7071C15.4804 12.8947 15.7348 13 16 13C16.2652 13 16.5196 12.8947 16.7071 12.7071C16.8946 12.5196 17 12.2652 17 12V7.00001H20C20.1974 7.00063 20.3906 6.94279 20.5552 6.83379C20.7198 6.7248 20.8485 6.56951 20.925 6.38751C20.997 6.2028 21.0153 6.00147 20.9777 5.8068C20.9401 5.61214 20.8482 5.4321 20.7125 5.28751L16.7125 1.28751C16.5229 1.09973 16.2668 0.994385 16 0.994385C15.7332 0.994385 15.4771 1.09973 15.2875 1.28751L11.2875 5.28751C11.1518 5.4321 11.0599 5.61214 11.0223 5.8068C10.9847 6.00147 11.003 6.2028 11.075 6.38751C11.1515 6.56951 11.2802 6.7248 11.4448 6.83379C11.6094 6.94279 11.8026 7.00063 12 7.00001ZM20 25H17V20C17 19.7348 16.8946 19.4804 16.7071 19.2929C16.5196 19.1054 16.2652 19 16 19C15.7348 19 15.4804 19.1054 15.2929 19.2929C15.1054 19.4804 15 19.7348 15 20V25H12C11.8026 24.9994 11.6094 25.0572 11.4448 25.1662C11.2802 25.2752 11.1515 25.4305 11.075 25.6125C11.003 25.7972 10.9847 25.9986 11.0223 26.1932C11.0599 26.3879 11.1518 26.5679 11.2875 26.7125L15.2875 30.7125C15.4786 30.8973 15.7341 31.0006 16 31.0006C16.2659 31.0006 16.5214 30.8973 16.7125 30.7125L20.7125 26.7125C20.8482 26.5679 20.9401 26.3879 20.9777 26.1932C21.0153 25.9986 20.997 25.7972 20.925 25.6125C20.8485 25.4305 20.7198 25.2752 20.5552 25.1662C20.3906 25.0572 20.1974 24.9994 20 25Z" fill="#344054"/>
</svg>
