<svg width="32" height="32" viewBox="0 0 32 32" fill="none" xmlns="http://www.w3.org/2000/svg">
<path d="M25.1875 6.81251C23.37 4.99304 21.0536 3.75354 18.5315 3.25081C16.0093 2.74808 13.3948 3.00472 11.0185 3.98825C8.64228 4.97178 6.61114 6.63802 5.18207 8.77616C3.753 10.9143 2.99022 13.4283 2.99022 16C2.99022 18.5718 3.753 21.0857 5.18207 23.2239C6.61114 25.362 8.64228 27.0282 11.0185 28.0118C13.3948 28.9953 16.0093 29.2519 18.5315 28.7492C21.0536 28.2465 23.37 27.007 25.1875 25.1875C26.3947 23.9814 27.3523 22.5491 28.0057 20.9727C28.6591 19.3962 28.9954 17.7065 28.9954 16C28.9954 14.2935 28.6591 12.6038 28.0057 11.0273C27.3523 9.45088 26.3947 8.01865 25.1875 6.81251ZM15.7125 16.7125L11.7125 20.7125C11.5214 20.8973 11.2659 21.0006 11 21.0006C10.7341 21.0006 10.4786 20.8973 10.2875 20.7125C10.0997 20.5229 9.99437 20.2669 9.99437 20C9.99437 19.7332 10.0997 19.4771 10.2875 19.2875L13.5875 16L10.2875 12.7125C10.128 12.5182 10.0465 12.2715 10.0589 12.0205C10.0712 11.7694 10.1765 11.532 10.3542 11.3542C10.5319 11.1765 10.7694 11.0712 11.0205 11.0589C11.2715 11.0466 11.5182 11.128 11.7125 11.2875L15.7125 15.2875C15.9003 15.4771 16.0056 15.7332 16.0056 16C16.0056 16.2669 15.9003 16.5229 15.7125 16.7125ZM22.7125 16.7125L18.7125 20.7125C18.5214 20.8973 18.2659 21.0006 18 21.0006C17.7341 21.0006 17.4786 20.8973 17.2875 20.7125C17.0997 20.5229 16.9944 20.2669 16.9944 20C16.9944 19.7332 17.0997 19.4771 17.2875 19.2875L20.5875 16L17.2875 12.7125C17.128 12.5182 17.0465 12.2715 17.0589 12.0205C17.0712 11.7694 17.1765 11.532 17.3542 11.3542C17.5319 11.1765 17.7694 11.0712 18.0205 11.0589C18.2715 11.0466 18.5182 11.128 18.7125 11.2875L22.7125 15.2875C22.9003 15.4771 23.0056 15.7332 23.0056 16C23.0056 16.2669 22.9003 16.5229 22.7125 16.7125Z" fill="#344054"/>
</svg>
