<svg width="32" height="32" viewBox="0 0 32 32" fill="none" xmlns="http://www.w3.org/2000/svg">
<path d="M20.2375 22.825C20.3788 22.9641 20.4755 23.1421 20.5154 23.3364C20.5553 23.5306 20.5365 23.7323 20.4615 23.9159C20.3865 24.0994 20.2586 24.2565 20.094 24.3672C19.9295 24.4779 19.7358 24.5372 19.5375 24.5375H17V29C17 29.2652 16.8946 29.5196 16.7071 29.7071C16.5196 29.8946 16.2652 30 16 30C15.7348 30 15.4804 29.8946 15.2929 29.7071C15.1054 29.5196 15 29.2652 15 29V24.5375H12.4625C12.2642 24.5372 12.0705 24.4779 11.906 24.3672C11.7414 24.2565 11.6135 24.0994 11.5385 23.9159C11.4635 23.7323 11.4447 23.5306 11.4846 23.3364C11.5245 23.1421 11.6212 22.9641 11.7625 22.825L15.2875 19.2875C15.4771 19.0997 15.7332 18.9944 16 18.9944C16.2668 18.9944 16.5229 19.0997 16.7125 19.2875L20.2375 22.825ZM15.2875 12.7125C15.4786 12.8973 15.7341 13.0006 16 13.0006C16.2659 13.0006 16.5214 12.8973 16.7125 12.7125L20.2375 9.175C20.3788 9.03586 20.4755 8.85787 20.5154 8.66363C20.5553 8.46939 20.5365 8.26768 20.4615 8.08413C20.3865 7.90058 20.2586 7.74348 20.094 7.63279C19.9295 7.52211 19.7358 7.46283 19.5375 7.4625H17V3C17 2.73478 16.8946 2.48043 16.7071 2.29289C16.5196 2.10536 16.2652 2 16 2C15.7348 2 15.4804 2.10536 15.2929 2.29289C15.1054 2.48043 15 2.73478 15 3V7.4625H12.4625C12.2642 7.46283 12.0705 7.52211 11.906 7.63279C11.7414 7.74348 11.6135 7.90058 11.5385 8.08413C11.4635 8.26768 11.4447 8.46939 11.4846 8.66363C11.5245 8.85787 11.6212 9.03586 11.7625 9.175L15.2875 12.7125ZM12.7125 15.2875L9.175 11.7625C9.03586 11.6212 8.85787 11.5245 8.66363 11.4846C8.46939 11.4447 8.26768 11.4635 8.08413 11.5385C7.90058 11.6135 7.74348 11.7414 7.63279 11.906C7.52211 12.0705 7.46283 12.2642 7.4625 12.4625V15H3C2.73478 15 2.48043 15.1054 2.29289 15.2929C2.10536 15.4804 2 15.7348 2 16C2 16.2652 2.10536 16.5196 2.29289 16.7071C2.48043 16.8946 2.73478 17 3 17H7.4625V19.5375C7.46613 19.7356 7.5271 19.9284 7.63802 20.0926C7.74895 20.2567 7.90507 20.3852 8.0875 20.4625C8.20622 20.5123 8.33374 20.5378 8.4625 20.5375C8.59523 20.5373 8.72659 20.5106 8.84891 20.4591C8.97124 20.4076 9.08209 20.3323 9.175 20.2375L12.7125 16.7125C12.9003 16.5229 13.0056 16.2668 13.0056 16C13.0056 15.7332 12.9003 15.4771 12.7125 15.2875ZM29 15H24.5375V12.4625C24.5372 12.2642 24.4779 12.0705 24.3672 11.906C24.2565 11.7414 24.0994 11.6135 23.9159 11.5385C23.7323 11.4635 23.5306 11.4447 23.3364 11.4846C23.1421 11.5245 22.9641 11.6212 22.825 11.7625L19.2875 15.2875C19.0997 15.4771 18.9944 15.7332 18.9944 16C18.9944 16.2668 19.0997 16.5229 19.2875 16.7125L22.825 20.2375C22.9179 20.3323 23.0288 20.4076 23.1511 20.4591C23.2734 20.5106 23.4048 20.5373 23.5375 20.5375C23.6663 20.5378 23.7938 20.5123 23.9125 20.4625C24.0949 20.3852 24.2511 20.2567 24.362 20.0926C24.4729 19.9284 24.5339 19.7356 24.5375 19.5375V17H29C29.2652 17 29.5196 16.8946 29.7071 16.7071C29.8946 16.5196 30 16.2652 30 16C30 15.7348 29.8946 15.4804 29.7071 15.2929C29.5196 15.1054 29.2652 15 29 15Z" fill="#344054"/>
</svg>
