<svg width="32" height="32" viewBox="0 0 32 32" fill="none" xmlns="http://www.w3.org/2000/svg">
<path d="M29 25C29 25.2652 28.8947 25.5196 28.7071 25.7071C28.5196 25.8947 28.2652 26 28 26C27.7348 26 27.4804 25.8947 27.2929 25.7071C27.1054 25.5196 27 25.2652 27 25C26.9967 22.0836 25.8367 19.2877 23.7745 17.2255C21.7123 15.1633 18.9164 14.0033 16 14H11V19C11.0006 19.1974 10.9428 19.3906 10.8338 19.5552C10.7248 19.7198 10.5695 19.8485 10.3875 19.925C10.2642 19.974 10.1327 19.9994 10 20C9.73447 19.9989 9.47947 19.896 9.28751 19.7125L3.28751 13.7125C3.09973 13.5229 2.99438 13.2669 2.99438 13C2.99438 12.7332 3.09973 12.4771 3.28751 12.2875L9.28751 6.28751C9.4321 6.15185 9.61214 6.0599 9.8068 6.0223C10.0015 5.98469 10.2028 6.00297 10.3875 6.07501C10.5695 6.15151 10.7248 6.28018 10.8338 6.44479C10.9428 6.6094 11.0006 6.80259 11 7.00001V12H16C19.4458 12.0066 22.7486 13.3784 25.1851 15.8149C27.6216 18.2515 28.9934 21.5542 29 25Z" fill="#344054"/>
</svg>
