<svg width="32" height="32" viewBox="0 0 32 32" fill="none" xmlns="http://www.w3.org/2000/svg">
<path d="M29 16C29 16.2652 28.8946 16.5196 28.7071 16.7071C28.5196 16.8946 28.2652 17 28 17H19V25C19.0006 25.1974 18.9428 25.3906 18.8338 25.5552C18.7248 25.7198 18.5695 25.8485 18.3875 25.925C18.2642 25.974 18.1327 25.9994 18 26C17.7345 25.9989 17.4795 25.896 17.2875 25.7125L8.2875 16.7125C8.09972 16.5229 7.99437 16.2668 7.99437 16C7.99437 15.7332 8.09972 15.4771 8.2875 15.2875L17.2875 6.2875C17.4321 6.15184 17.6121 6.05989 17.8068 6.02228C18.0015 5.98468 18.2028 6.00295 18.3875 6.075C18.5695 6.1515 18.7248 6.28016 18.8338 6.44477C18.9428 6.60938 19.0006 6.80257 19 7V15H28C28.2652 15 28.5196 15.1054 28.7071 15.2929C28.8946 15.4804 29 15.7348 29 16ZM5 4C4.73478 4 4.48043 4.10536 4.29289 4.29289C4.10536 4.48043 4 4.73478 4 5V27C4 27.2652 4.10536 27.5196 4.29289 27.7071C4.48043 27.8946 4.73478 28 5 28C5.26522 28 5.51957 27.8946 5.70711 27.7071C5.89464 27.5196 6 27.2652 6 27V5C6 4.73478 5.89464 4.48043 5.70711 4.29289C5.51957 4.10536 5.26522 4 5 4Z" fill="#344054"/>
</svg>
