<svg width="32" height="32" viewBox="0 0 32 32" fill="none" xmlns="http://www.w3.org/2000/svg">
<path d="M28.925 12.3875C28.8485 12.5695 28.7198 12.7248 28.5552 12.8338C28.3906 12.9428 28.1974 13.0006 28 13H23V24C23 24.2652 22.8946 24.5196 22.7071 24.7071C22.5196 24.8947 22.2652 25 22 25H4C3.73478 25 3.48043 24.8947 3.29289 24.7071C3.10536 24.5196 3 24.2652 3 24C3 23.7348 3.10536 23.4804 3.29289 23.2929C3.48043 23.1054 3.73478 23 4 23H21V13H16C15.8026 13.0006 15.6094 12.9428 15.4448 12.8338C15.2802 12.7248 15.1515 12.5695 15.075 12.3875C15.003 12.2028 14.9847 12.0015 15.0223 11.8068C15.0599 11.6121 15.1518 11.4321 15.2875 11.2875L21.2875 5.28751C21.4771 5.09973 21.7332 4.99438 22 4.99438C22.2668 4.99438 22.5229 5.09973 22.7125 5.28751L28.7125 11.2875C28.8482 11.4321 28.9401 11.6121 28.9777 11.8068C29.0153 12.0015 28.997 12.2028 28.925 12.3875Z" fill="#344054"/>
</svg>
