<svg width="32" height="32" viewBox="0 0 32 32" fill="none" xmlns="http://www.w3.org/2000/svg">
<path d="M28.7125 13.7125L22.7125 19.7125C22.5214 19.8973 22.2659 20.0006 22 20.0006C21.7341 20.0006 21.4786 19.8973 21.2875 19.7125C21.0997 19.5229 20.9944 19.2669 20.9944 19C20.9944 18.7332 21.0997 18.4771 21.2875 18.2875L26.5875 13L21.2875 7.71251C21.128 7.51822 21.0465 7.27155 21.0589 7.0205C21.0712 6.76945 21.1765 6.53196 21.3542 6.35422C21.5319 6.17649 21.7694 6.07122 22.0205 6.05889C22.2715 6.04656 22.5182 6.12805 22.7125 6.28751L28.7125 12.2875C28.9003 12.4771 29.0056 12.7332 29.0056 13C29.0056 13.2669 28.9003 13.5229 28.7125 13.7125ZM22.7125 12.2875L16.7125 6.28751C16.5679 6.15185 16.3879 6.0599 16.1932 6.0223C15.9985 5.98469 15.7972 6.00297 15.6125 6.07501C15.4305 6.15151 15.2752 6.28018 15.1662 6.44479C15.0572 6.6094 14.9994 6.80259 15 7.00001V12.0375C11.7359 12.2923 8.68776 13.7681 6.46358 16.1707C4.23941 18.5733 3.00265 21.726 3 25C3 25.2652 3.10536 25.5196 3.29289 25.7071C3.48043 25.8947 3.73478 26 4 26C4.26522 26 4.51957 25.8947 4.70711 25.7071C4.89464 25.5196 5 25.2652 5 25C5.00395 22.2573 6.0312 19.6148 7.88072 17.5896C9.73025 15.5644 12.2689 14.3022 15 14.05V19C14.9994 19.1974 15.0572 19.3906 15.1662 19.5552C15.2752 19.7198 15.4305 19.8485 15.6125 19.925C15.7358 19.974 15.8673 19.9994 16 20C16.2655 19.9989 16.5205 19.896 16.7125 19.7125L22.7125 13.7125C22.9003 13.5229 23.0056 13.2669 23.0056 13C23.0056 12.7332 22.9003 12.4771 22.7125 12.2875Z" fill="#344054"/>
</svg>
