<svg width="32" height="32" viewBox="0 0 32 32" fill="none" xmlns="http://www.w3.org/2000/svg">
<path d="M29 7C28.9934 10.4458 27.6216 13.7485 25.1851 16.1851C22.7486 18.6216 19.4458 19.9934 16 20H11V25C11.0006 25.1974 10.9428 25.3906 10.8338 25.5552C10.7248 25.7198 10.5695 25.8485 10.3875 25.925C10.2642 25.974 10.1327 25.9994 10 26C9.73447 25.9989 9.47947 25.896 9.28751 25.7125L3.28751 19.7125C3.09973 19.5229 2.99438 19.2668 2.99438 19C2.99438 18.7332 3.09973 18.4771 3.28751 18.2875L9.28751 12.2875C9.4321 12.1518 9.61214 12.0599 9.8068 12.0223C10.0015 11.9847 10.2028 12.003 10.3875 12.075C10.5695 12.1515 10.7248 12.2802 10.8338 12.4448C10.9428 12.6094 11.0006 12.8026 11 13V18H16C18.9164 17.9967 21.7123 16.8367 23.7745 14.7745C25.8367 12.7123 26.9967 9.91637 27 7C27 6.73478 27.1054 6.48043 27.2929 6.29289C27.4804 6.10536 27.7348 6 28 6C28.2652 6 28.5196 6.10536 28.7071 6.29289C28.8947 6.48043 29 6.73478 29 7Z" fill="#344054"/>
</svg>
