<svg width="32" height="32" viewBox="0 0 32 32" fill="none" xmlns="http://www.w3.org/2000/svg">
<path d="M25.7125 18.7125L16.7125 27.7125C16.5214 27.8973 16.2659 28.0006 16 28.0006C15.7341 28.0006 15.4787 27.8973 15.2875 27.7125L6.28751 18.7125C6.15185 18.5679 6.0599 18.3879 6.0223 18.1932C5.98469 17.9985 6.00297 17.7972 6.07501 17.6125C6.15151 17.4305 6.28018 17.2752 6.44479 17.1662C6.6094 17.0572 6.80259 16.9994 7.00001 17H15V5C15 4.73478 15.1054 4.48043 15.2929 4.29289C15.4804 4.10536 15.7348 4 16 4C16.2652 4 16.5196 4.10536 16.7071 4.29289C16.8947 4.48043 17 4.73478 17 5V17H25C25.1974 16.9994 25.3906 17.0572 25.5552 17.1662C25.7198 17.2752 25.8485 17.4305 25.925 17.6125C25.9971 17.7972 26.0153 17.9985 25.9777 18.1932C25.9401 18.3879 25.8482 18.5679 25.7125 18.7125Z" fill="#344054"/>
</svg>
