<svg width="32" height="32" viewBox="0 0 32 32" fill="none" xmlns="http://www.w3.org/2000/svg">
<path d="M24.7125 8.71252L15.9125 17.5L21.7125 23.2875C21.8482 23.4321 21.9401 23.6122 21.9777 23.8068C22.0153 24.0015 21.997 24.2028 21.925 24.3875C21.8485 24.5695 21.7198 24.7248 21.5552 24.8338C21.3906 24.9428 21.1974 25.0006 21 25H8C7.73479 25 7.48043 24.8947 7.2929 24.7071C7.10536 24.5196 7 24.2652 7 24V11C6.99939 10.8026 7.05722 10.6094 7.16622 10.4448C7.27522 10.2802 7.4305 10.1515 7.61251 10.075C7.79722 10.003 7.99855 9.9847 8.19321 10.0223C8.38788 10.0599 8.56792 10.1519 8.7125 10.2875L14.5 16.0875L23.2875 7.28752C23.4818 7.12806 23.7285 7.04657 23.9795 7.0589C24.2306 7.07123 24.4681 7.1765 24.6458 7.35423C24.8235 7.53197 24.9288 7.76946 24.9411 8.02051C24.9535 8.27156 24.872 8.51823 24.7125 8.71252Z" fill="#344054"/>
</svg>
