<svg width="32" height="32" viewBox="0 0 32 32" fill="none" xmlns="http://www.w3.org/2000/svg">
<path d="M26 4H6C5.46957 4 4.96086 4.21071 4.58579 4.58579C4.21071 4.96086 4 5.46957 4 6V26C4 26.5304 4.21071 27.0391 4.58579 27.4142C4.96086 27.7893 5.46957 28 6 28H26C26.5304 28 27.0391 27.7893 27.4142 27.4142C27.7893 27.0391 28 26.5304 28 26V6C28 5.46957 27.7893 4.96086 27.4142 4.58579C27.0391 4.21071 26.5304 4 26 4ZM20.2125 13.2125L14.9125 18.5H18.5C18.7652 18.5 19.0196 18.6054 19.2071 18.7929C19.3946 18.9804 19.5 19.2348 19.5 19.5C19.5 19.7652 19.3946 20.0196 19.2071 20.2071C19.0196 20.3946 18.7652 20.5 18.5 20.5H12.5C12.2348 20.5 11.9804 20.3946 11.7929 20.2071C11.6054 20.0196 11.5 19.7652 11.5 19.5V13.5C11.5 13.2348 11.6054 12.9804 11.7929 12.7929C11.9804 12.6054 12.2348 12.5 12.5 12.5C12.7652 12.5 13.0196 12.6054 13.2071 12.7929C13.3946 12.9804 13.5 13.2348 13.5 13.5V17.0875L18.7875 11.7875C18.9818 11.628 19.2285 11.5465 19.4795 11.5589C19.7306 11.5712 19.9681 11.6765 20.1458 11.8542C20.3235 12.0319 20.4288 12.2694 20.4411 12.5205C20.4535 12.7715 20.372 13.0182 20.2125 13.2125Z" fill="#344054"/>
</svg>
