<svg width="32" height="32" viewBox="0 0 32 32" fill="none" xmlns="http://www.w3.org/2000/svg">
<path d="M25 4V22C25 22.2652 24.8947 22.5196 24.7071 22.7071C24.5196 22.8946 24.2652 23 24 23H13V28C13.0006 28.1974 12.9428 28.3906 12.8338 28.5552C12.7248 28.7198 12.5695 28.8485 12.3875 28.925C12.2642 28.974 12.1327 28.9994 12 29C11.7345 28.9989 11.4795 28.896 11.2875 28.7125L5.28751 22.7125C5.09973 22.5229 4.99438 22.2668 4.99438 22C4.99438 21.7332 5.09973 21.4771 5.28751 21.2875L11.2875 15.2875C11.4321 15.1518 11.6121 15.0599 11.8068 15.0223C12.0015 14.9847 12.2028 15.003 12.3875 15.075C12.5695 15.1515 12.7248 15.2802 12.8338 15.4448C12.9428 15.6094 13.0006 15.8026 13 16V21H23V4C23 3.73478 23.1054 3.48043 23.2929 3.29289C23.4804 3.10536 23.7348 3 24 3C24.2652 3 24.5196 3.10536 24.7071 3.29289C24.8947 3.48043 25 3.73478 25 4Z" fill="#344054"/>
</svg>
