<svg width="32" height="32" viewBox="0 0 32 32" fill="none" xmlns="http://www.w3.org/2000/svg">
<path d="M24.7125 24.7125C24.5214 24.8973 24.2659 25.0006 24 25.0006C23.7341 25.0006 23.4786 24.8973 23.2875 24.7125L14.5 15.9125L8.7125 21.7125C8.52055 21.896 8.26555 21.9989 8 22C7.86729 21.9994 7.73585 21.974 7.61251 21.925C7.4305 21.8485 7.27522 21.7198 7.16622 21.5552C7.05722 21.3906 6.99939 21.1974 7 21V8C7 7.73479 7.10536 7.48043 7.2929 7.2929C7.48043 7.10536 7.73479 7 8 7H21C21.1974 6.99939 21.3906 7.05722 21.5552 7.16622C21.7198 7.27522 21.8485 7.4305 21.925 7.61251C21.997 7.79722 22.0153 7.99855 21.9777 8.19321C21.9401 8.38788 21.8482 8.56792 21.7125 8.7125L15.9125 14.5L24.7125 23.2875C24.9003 23.4771 25.0056 23.7332 25.0056 24C25.0056 24.2669 24.9003 24.5229 24.7125 24.7125Z" fill="#344054"/>
</svg>
