<svg width="32" height="32" viewBox="0 0 32 32" fill="none" xmlns="http://www.w3.org/2000/svg">
<path d="M26 4H6C5.46957 4 4.96086 4.21071 4.58579 4.58579C4.21071 4.96086 4 5.46957 4 6V26C4 26.5304 4.21071 27.0391 4.58579 27.4142C4.96086 27.7893 5.46957 28 6 28H26C26.5304 28 27.0391 27.7893 27.4142 27.4142C27.7893 27.0391 28 26.5304 28 26V6C28 5.46957 27.7893 4.96086 27.4142 4.58579C27.0391 4.21071 26.5304 4 26 4ZM20.95 17.4625L16.7125 21.7C16.6166 21.7973 16.5017 21.8738 16.375 21.925C16.2563 21.9748 16.1288 22.0003 16 22C15.8673 21.9994 15.7358 21.974 15.6125 21.925C15.4913 21.8705 15.3812 21.7942 15.2875 21.7L11.05 17.4625C10.8776 17.2723 10.785 17.0231 10.7914 16.7664C10.7977 16.5098 10.9024 16.2655 11.0839 16.0839C11.2655 15.9024 11.5098 15.7977 11.7664 15.7914C12.0231 15.785 12.2723 15.8776 12.4625 16.05L15 18.5875V11C15 10.7348 15.1054 10.4804 15.2929 10.2929C15.4804 10.1054 15.7348 10 16 10C16.2652 10 16.5196 10.1054 16.7071 10.2929C16.8946 10.4804 17 10.7348 17 11V18.5875L19.5375 16.05C19.7277 15.8776 19.9769 15.785 20.2336 15.7914C20.4902 15.7977 20.7345 15.9024 20.9161 16.0839C21.0976 16.2655 21.2023 16.5098 21.2086 16.7664C21.215 17.0231 21.1224 17.2723 20.95 17.4625Z" fill="#344054"/>
</svg>
