<svg width="32" height="32" viewBox="0 0 32 32" fill="none" xmlns="http://www.w3.org/2000/svg">
<path d="M26 10V21C26 23.1217 25.1572 25.1566 23.6569 26.6569C22.1566 28.1572 20.1217 29 18 29C15.8783 29 13.8434 28.1572 12.3432 26.6569C10.8429 25.1566 10 23.1217 10 21V11H5.00001C4.80259 11.0006 4.6094 10.9428 4.44479 10.8338C4.28018 10.7248 4.15151 10.5695 4.07501 10.3875C4.00297 10.2028 3.98469 10.0015 4.0223 9.8068C4.0599 9.61214 4.15185 9.4321 4.28751 9.28751L10.2875 3.28751C10.4771 3.09973 10.7332 2.99438 11 2.99438C11.2669 2.99438 11.5229 3.09973 11.7125 3.28751L17.7125 9.28751C17.8482 9.4321 17.9401 9.61214 17.9777 9.8068C18.0153 10.0015 17.9971 10.2028 17.925 10.3875C17.8485 10.5695 17.7198 10.7248 17.5552 10.8338C17.3906 10.9428 17.1974 11.0006 17 11H12V21C12 22.5913 12.6322 24.1174 13.7574 25.2427C14.8826 26.3679 16.4087 27 18 27C19.5913 27 21.1174 26.3679 22.2427 25.2427C23.3679 24.1174 24 22.5913 24 21V10C24 9.73479 24.1054 9.48044 24.2929 9.2929C24.4804 9.10537 24.7348 9.00001 25 9.00001C25.2652 9.00001 25.5196 9.10537 25.7071 9.2929C25.8947 9.48044 26 9.73479 26 10Z" fill="#344054"/>
</svg>
