<svg width="32" height="32" viewBox="0 0 32 32" fill="none" xmlns="http://www.w3.org/2000/svg">
<path d="M6 28H26C26.5304 28 27.0391 27.7893 27.4142 27.4142C27.7893 27.0391 28 26.5304 28 26V6C28 5.46957 27.7893 4.96086 27.4142 4.58579C27.0391 4.21071 26.5304 4 26 4H6C5.46957 4 4.96086 4.21071 4.58579 4.58579C4.21071 4.96086 4 5.46957 4 6V26C4 26.5304 4.21071 27.0391 4.58579 27.4142C4.96086 27.7893 5.46957 28 6 28ZM16.05 20.95C15.863 20.7625 15.758 20.5085 15.758 20.2437C15.758 19.979 15.863 19.725 16.05 19.5375L18.5875 17H11C10.7348 17 10.4804 16.8946 10.2929 16.7071C10.1054 16.5196 10 16.2652 10 16C10 15.7348 10.1054 15.4804 10.2929 15.2929C10.4804 15.1054 10.7348 15 11 15H18.5875L16.05 12.4625C15.8776 12.2723 15.785 12.0231 15.7914 11.7664C15.7977 11.5098 15.9024 11.2655 16.0839 11.0839C16.2655 10.9024 16.5098 10.7977 16.7664 10.7914C17.0231 10.785 17.2723 10.8776 17.4625 11.05L21.7 15.2875C21.7942 15.3812 21.8705 15.4913 21.925 15.6125C21.974 15.7358 21.9994 15.8673 22 16C22.0003 16.1288 21.9748 16.2563 21.925 16.375C21.8738 16.5017 21.7973 16.6166 21.7 16.7125L17.4625 20.95C17.275 21.137 17.021 21.242 16.7563 21.242C16.4915 21.242 16.2375 21.137 16.05 20.95Z" fill="#344054"/>
</svg>
