<svg width="32" height="32" viewBox="0 0 32 32" fill="none" xmlns="http://www.w3.org/2000/svg">
<path d="M26 28C26 28.2652 25.8947 28.5196 25.7071 28.7071C25.5196 28.8947 25.2652 29 25 29C21.5542 28.9934 18.2515 27.6216 15.8149 25.1851C13.3784 22.7486 12.0066 19.4458 12 16V11H7.00001C6.80259 11.0006 6.6094 10.9428 6.44479 10.8338C6.28018 10.7248 6.15151 10.5695 6.07501 10.3875C6.00297 10.2028 5.98469 10.0015 6.0223 9.8068C6.0599 9.61214 6.15185 9.4321 6.28751 9.28751L12.2875 3.28751C12.4771 3.09973 12.7332 2.99438 13 2.99438C13.2669 2.99438 13.5229 3.09973 13.7125 3.28751L19.7125 9.28751C19.8482 9.4321 19.9401 9.61214 19.9777 9.8068C20.0153 10.0015 19.9971 10.2028 19.925 10.3875C19.8485 10.5695 19.7198 10.7248 19.5552 10.8338C19.3906 10.9428 19.1974 11.0006 19 11H14V16C14.0033 18.9164 15.1633 21.7123 17.2255 23.7745C19.2877 25.8367 22.0836 26.9967 25 27C25.2652 27 25.5196 27.1054 25.7071 27.2929C25.8947 27.4804 26 27.7348 26 28Z" fill="#344054"/>
</svg>
