<svg width="32" height="32" viewBox="0 0 32 32" fill="none" xmlns="http://www.w3.org/2000/svg">
<path d="M26 11V22C26 22.2652 25.8947 22.5196 25.7071 22.7071C25.5196 22.8946 25.2652 23 25 23C24.7348 23 24.4804 22.8946 24.2929 22.7071C24.1054 22.5196 24 22.2652 24 22V11C24 9.4087 23.3679 7.88258 22.2427 6.75736C21.1174 5.63214 19.5913 5 18 5C16.4087 5 14.8826 5.63214 13.7574 6.75736C12.6322 7.88258 12 9.4087 12 11V21H17C17.1974 20.9994 17.3906 21.0572 17.5552 21.1662C17.7198 21.2752 17.8485 21.4305 17.925 21.6125C17.9971 21.7972 18.0153 21.9985 17.9777 22.1932C17.9401 22.3879 17.8482 22.5679 17.7125 22.7125L11.7125 28.7125C11.5214 28.8973 11.2659 29.0006 11 29.0006C10.7341 29.0006 10.4787 28.8973 10.2875 28.7125L4.28751 22.7125C4.15185 22.5679 4.0599 22.3879 4.0223 22.1932C3.98469 21.9985 4.00297 21.7972 4.07501 21.6125C4.15151 21.4305 4.28018 21.2752 4.44479 21.1662C4.6094 21.0572 4.80259 20.9994 5.00001 21H10V11C10 8.87827 10.8429 6.84344 12.3432 5.34315C13.8434 3.84285 15.8783 3 18 3C20.1217 3 22.1566 3.84285 23.6569 5.34315C25.1572 6.84344 26 8.87827 26 11Z" fill="#344054"/>
</svg>
