<svg width="32" height="32" viewBox="0 0 32 32" fill="none" xmlns="http://www.w3.org/2000/svg">
<path d="M10.7125 18.2875C10.9003 18.4771 11.0056 18.7332 11.0056 19C11.0056 19.2669 10.9003 19.5229 10.7125 19.7125C10.5214 19.8973 10.2659 20.0006 10 20.0006C9.73413 20.0006 9.47865 19.8973 9.28751 19.7125L3.28751 13.7125C3.09973 13.5229 2.99438 13.2669 2.99438 13C2.99438 12.7332 3.09973 12.4771 3.28751 12.2875L9.28751 6.28751C9.48181 6.12805 9.72847 6.04656 9.97952 6.05889C10.2306 6.07122 10.4681 6.17649 10.6458 6.35422C10.8235 6.53196 10.9288 6.76945 10.9411 7.0205C10.9535 7.27155 10.872 7.51822 10.7125 7.71251L5.41251 13L10.7125 18.2875ZM17 12.0375V7.00001C17.0006 6.80259 16.9428 6.6094 16.8338 6.44479C16.7248 6.28018 16.5695 6.15151 16.3875 6.07501C16.2028 6.00297 16.0015 5.98469 15.8068 6.0223C15.6121 6.0599 15.4321 6.15185 15.2875 6.28751L9.28751 12.2875C9.09973 12.4771 8.99438 12.7332 8.99438 13C8.99438 13.2669 9.09973 13.5229 9.28751 13.7125L15.2875 19.7125C15.4795 19.896 15.7345 19.9989 16 20C16.1327 19.9994 16.2642 19.974 16.3875 19.925C16.5695 19.8485 16.7248 19.7198 16.8338 19.5552C16.9428 19.3906 17.0006 19.1974 17 19V14.05C19.7311 14.3022 22.2698 15.5644 24.1193 17.5896C25.9688 19.6148 26.9961 22.2573 27 25C27 25.2652 27.1054 25.5196 27.2929 25.7071C27.4804 25.8947 27.7348 26 28 26C28.2652 26 28.5196 25.8947 28.7071 25.7071C28.8947 25.5196 29 25.2652 29 25C28.9974 21.726 27.7606 18.5733 25.5364 16.1707C23.3122 13.7681 20.2641 12.2923 17 12.0375Z" fill="#344054"/>
</svg>
