<svg width="32" height="32" viewBox="0 0 32 32" fill="none" xmlns="http://www.w3.org/2000/svg">
<path d="M20.3875 5.075C20.2028 5.00295 20.0015 4.98468 19.8068 5.02228C19.6121 5.05989 19.4321 5.15184 19.2875 5.2875L9.28751 15.2875C9.09973 15.4771 8.99438 15.7332 8.99438 16C8.99438 16.2668 9.09973 16.5229 9.28751 16.7125L19.2875 26.7125C19.4795 26.896 19.7345 26.9989 20 27C20.1327 26.9994 20.2642 26.974 20.3875 26.925C20.5695 26.8485 20.7248 26.7198 20.8338 26.5552C20.9428 26.3906 21.0006 26.1974 21 26V6C21.0006 5.80257 20.9428 5.60938 20.8338 5.44477C20.7248 5.28016 20.5695 5.1515 20.3875 5.075Z" fill="#344054"/>
</svg>
