<svg width="32" height="32" viewBox="0 0 32 32" fill="none" xmlns="http://www.w3.org/2000/svg">
<path d="M29 24C29 24.2652 28.8947 24.5196 28.7071 24.7071C28.5196 24.8947 28.2652 25 28 25H10C9.7348 25 9.48044 24.8947 9.29291 24.7071C9.10537 24.5196 9.00001 24.2652 9.00001 24V13H4.00001C3.80259 13.0006 3.6094 12.9428 3.44479 12.8338C3.28018 12.7248 3.15151 12.5695 3.07501 12.3875C3.00297 12.2028 2.98469 12.0015 3.0223 11.8068C3.0599 11.6121 3.15185 11.4321 3.28751 11.2875L9.28751 5.28751C9.47711 5.09973 9.73317 4.99438 10 4.99438C10.2669 4.99438 10.5229 5.09973 10.7125 5.28751L16.7125 11.2875C16.8482 11.4321 16.9401 11.6121 16.9777 11.8068C17.0153 12.0015 16.9971 12.2028 16.925 12.3875C16.8485 12.5695 16.7198 12.7248 16.5552 12.8338C16.3906 12.9428 16.1974 13.0006 16 13H11V23H28C28.2652 23 28.5196 23.1054 28.7071 23.2929C28.8947 23.4804 29 23.7348 29 24Z" fill="#344054"/>
</svg>
