<svg width="32" height="32" viewBox="0 0 32 32" fill="none" xmlns="http://www.w3.org/2000/svg">
<path d="M25.1875 25.1875C27.007 23.37 28.2465 21.0536 28.7492 18.5315C29.2519 16.0094 28.9953 13.3948 28.0118 11.0185C27.0282 8.6423 25.362 6.61116 23.2239 5.18209C21.0857 3.75302 18.5718 2.99023 16 2.99023C13.4283 2.99023 10.9143 3.75302 8.77616 5.18209C6.63802 6.61116 4.97178 8.6423 3.98825 11.0185C3.00472 13.3948 2.74808 16.0094 3.25081 18.5315C3.75354 21.0536 4.99304 23.37 6.81251 25.1875C8.01865 26.3947 9.45088 27.3523 11.0273 28.0057C12.6038 28.6591 14.2935 28.9954 16 28.9954C17.7065 28.9954 19.3962 28.6591 20.9727 28.0057C22.5491 27.3523 23.9814 26.3947 25.1875 25.1875ZM12.7125 14.7125C12.5229 14.9003 12.2669 15.0056 12 15.0056C11.7332 15.0056 11.4771 14.9003 11.2875 14.7125C11.1027 14.5214 10.9994 14.2659 10.9994 14C10.9994 13.7341 11.1027 13.4786 11.2875 13.2875L15.2875 9.28751C15.4771 9.09973 15.7332 8.99438 16 8.99438C16.2669 8.99438 16.5229 9.09973 16.7125 9.28751L20.7125 13.2875C20.872 13.4818 20.9535 13.7285 20.9411 13.9795C20.9288 14.2306 20.8235 14.4681 20.6458 14.6458C20.4681 14.8235 20.2306 14.9288 19.9795 14.9411C19.7285 14.9535 19.4818 14.872 19.2875 14.7125L16 11.4125L12.7125 14.7125ZM12.7125 21.7125C12.5229 21.9003 12.2669 22.0056 12 22.0056C11.7332 22.0056 11.4771 21.9003 11.2875 21.7125C11.1027 21.5214 10.9994 21.2659 10.9994 21C10.9994 20.7341 11.1027 20.4786 11.2875 20.2875L15.2875 16.2875C15.4771 16.0997 15.7332 15.9944 16 15.9944C16.2669 15.9944 16.5229 16.0997 16.7125 16.2875L20.7125 20.2875C20.872 20.4818 20.9535 20.7285 20.9411 20.9795C20.9288 21.2306 20.8235 21.4681 20.6458 21.6458C20.4681 21.8235 20.2306 21.9288 19.9795 21.9411C19.7285 21.9535 19.4818 21.872 19.2875 21.7125L16 18.4125L12.7125 21.7125Z" fill="#344054"/>
</svg>
