<svg width="32" height="32" viewBox="0 0 32 32" fill="none" xmlns="http://www.w3.org/2000/svg">
<path d="M27.7125 16.7125L18.7125 25.7125C18.5205 25.896 18.2655 25.9989 18 26C17.8673 25.9994 17.7358 25.974 17.6125 25.925C17.4305 25.8485 17.2752 25.7198 17.1662 25.5552C17.0572 25.3906 16.9994 25.1974 17 25V17H5C4.73478 17 4.48043 16.8947 4.29289 16.7071C4.10536 16.5196 4 16.2652 4 16C4 15.7348 4.10536 15.4804 4.29289 15.2929C4.48043 15.1054 4.73478 15 5 15H17V7.00001C16.9994 6.80259 17.0572 6.6094 17.1662 6.44479C17.2752 6.28018 17.4305 6.15151 17.6125 6.07501C17.7972 6.00297 17.9985 5.98469 18.1932 6.0223C18.3879 6.0599 18.5679 6.15185 18.7125 6.28751L27.7125 15.2875C27.9003 15.4771 28.0056 15.7332 28.0056 16C28.0056 16.2669 27.9003 16.5229 27.7125 16.7125Z" fill="#344054"/>
</svg>
