<svg width="32" height="32" viewBox="0 0 32 32" fill="none" xmlns="http://www.w3.org/2000/svg">
<path d="M29 8C29 8.26522 28.8947 8.51957 28.7071 8.70711C28.5196 8.89464 28.2652 9 28 9H11V19H16C16.1974 18.9994 16.3906 19.0572 16.5552 19.1662C16.7198 19.2752 16.8485 19.4305 16.925 19.6125C16.9971 19.7972 17.0153 19.9985 16.9777 20.1932C16.9401 20.3879 16.8482 20.5679 16.7125 20.7125L10.7125 26.7125C10.5214 26.8973 10.2659 27.0006 10 27.0006C9.73413 27.0006 9.47865 26.8973 9.28751 26.7125L3.28751 20.7125C3.15185 20.5679 3.0599 20.3879 3.0223 20.1932C2.98469 19.9985 3.00297 19.7972 3.07501 19.6125C3.15151 19.4305 3.28018 19.2752 3.44479 19.1662C3.6094 19.0572 3.80259 18.9994 4.00001 19H9.00001V8C9.00001 7.73478 9.10537 7.48043 9.29291 7.29289C9.48044 7.10536 9.7348 7 10 7H28C28.2652 7 28.5196 7.10536 28.7071 7.29289C28.8947 7.48043 29 7.73478 29 8Z" fill="#344054"/>
</svg>
