<svg width="32" height="32" viewBox="0 0 32 32" fill="none" xmlns="http://www.w3.org/2000/svg">
<path d="M28 12.5C28.0006 12.6974 27.9428 12.8906 27.8338 13.0552C27.7248 13.2198 27.5695 13.3485 27.3875 13.425C27.2642 13.474 27.1327 13.4994 27 13.5C26.7345 13.4989 26.4795 13.396 26.2875 13.2125L23.25 10.1625L18.7 14.7125C18.5133 14.8963 18.262 14.9996 18 15C17.7345 14.9989 17.4795 14.896 17.2875 14.7125C17.1005 14.525 16.9955 14.2711 16.9955 14.0063C16.9955 13.7415 17.1005 13.4875 17.2875 13.3L21.8375 8.75L18.7875 5.7125C18.6518 5.56792 18.5599 5.38788 18.5223 5.19321C18.4847 4.99855 18.503 4.79722 18.575 4.61251C18.6515 4.4305 18.7802 4.27522 18.9448 4.16622C19.1094 4.05722 19.3026 3.99939 19.5 4H27C27.2652 4 27.5196 4.10536 27.7071 4.2929C27.8946 4.48043 28 4.73479 28 5V12.5ZM23 17C22.7348 17 22.4804 17.1054 22.2929 17.2929C22.1054 17.4804 22 17.7348 22 18V26H6V10H14C14.2652 10 14.5196 9.89465 14.7071 9.70711C14.8946 9.51958 15 9.26522 15 9C15 8.73479 14.8946 8.48043 14.7071 8.2929C14.5196 8.10536 14.2652 8 14 8H6C5.46957 8 4.96086 8.21072 4.58579 8.58579C4.21071 8.96086 4 9.46957 4 10V26C4 26.5304 4.21071 27.0391 4.58579 27.4142C4.96086 27.7893 5.46957 28 6 28H22C22.5304 28 23.0391 27.7893 23.4142 27.4142C23.7893 27.0391 24 26.5304 24 26V18C24 17.7348 23.8946 17.4804 23.7071 17.2929C23.5196 17.1054 23.2652 17 23 17Z" fill="#344054"/>
</svg>
