<svg width="32" height="32" viewBox="0 0 32 32" fill="none" xmlns="http://www.w3.org/2000/svg">
<path d="M28.7125 17.7125L16.7125 29.7125C16.5229 29.9003 16.2669 30.0056 16 30.0056C15.7332 30.0056 15.4771 29.9003 15.2875 29.7125L3.28751 17.7125C3.15185 17.5679 3.0599 17.3879 3.0223 17.1932C2.98469 16.9985 3.00297 16.7972 3.07501 16.6125C3.15151 16.4305 3.28018 16.2752 3.44479 16.1662C3.6094 16.0572 3.80259 15.9994 4.00001 16H9.00001V13C9.00001 12.7348 9.10537 12.4804 9.29291 12.2929C9.48044 12.1054 9.7348 12 10 12H22C22.2652 12 22.5196 12.1054 22.7071 12.2929C22.8947 12.4804 23 12.7348 23 13V16H28C28.1974 15.9994 28.3906 16.0572 28.5552 16.1662C28.7198 16.2752 28.8485 16.4305 28.925 16.6125C28.9971 16.7972 29.0153 16.9985 28.9777 17.1932C28.9401 17.3879 28.8482 17.5679 28.7125 17.7125ZM23 5C23 4.73478 22.8947 4.48043 22.7071 4.29289C22.5196 4.10536 22.2652 4 22 4H10C9.7348 4 9.48044 4.10536 9.29291 4.29289C9.10537 4.48043 9.00001 4.73478 9.00001 5C9.00001 5.26522 9.10537 5.51957 9.29291 5.70711C9.48044 5.89464 9.7348 6 10 6H22C22.2652 6 22.5196 5.89464 22.7071 5.70711C22.8947 5.51957 23 5.26522 23 5ZM23 9C23 8.73478 22.8947 8.48043 22.7071 8.29289C22.5196 8.10536 22.2652 8 22 8H10C9.7348 8 9.48044 8.10536 9.29291 8.29289C9.10537 8.48043 9.00001 8.73478 9.00001 9C9.00001 9.26522 9.10537 9.51957 9.29291 9.70711C9.48044 9.89464 9.7348 10 10 10H22C22.2652 10 22.5196 9.89464 22.7071 9.70711C22.8947 9.51957 23 9.26522 23 9Z" fill="#344054"/>
</svg>
