<svg width="32" height="32" viewBox="0 0 32 32" fill="none" xmlns="http://www.w3.org/2000/svg">
<path d="M25.7125 17.2875C25.8482 17.4321 25.9401 17.6121 25.9777 17.8068C26.0153 18.0015 25.997 18.2028 25.925 18.3875C25.8485 18.5695 25.7198 18.7248 25.5552 18.8338C25.3906 18.9428 25.1974 19.0006 25 19H17V28C17 28.2652 16.8946 28.5196 16.7071 28.7071C16.5196 28.8946 16.2652 29 16 29C15.7348 29 15.4804 28.8946 15.2929 28.7071C15.1054 28.5196 15 28.2652 15 28V19H7C6.80257 19.0006 6.60938 18.9428 6.44477 18.8338C6.28016 18.7248 6.1515 18.5695 6.075 18.3875C6.00295 18.2028 5.98468 18.0015 6.02228 17.8068C6.05989 17.6121 6.15184 17.4321 6.2875 17.2875L15.2875 8.2875C15.4771 8.09972 15.7332 7.99437 16 7.99437C16.2668 7.99437 16.5229 8.09972 16.7125 8.2875L25.7125 17.2875ZM27 4H5C4.73478 4 4.48043 4.10536 4.29289 4.29289C4.10536 4.48043 4 4.73478 4 5C4 5.26522 4.10536 5.51957 4.29289 5.70711C4.48043 5.89464 4.73478 6 5 6H27C27.2652 6 27.5196 5.89464 27.7071 5.70711C27.8946 5.51957 28 5.26522 28 5C28 4.73478 27.8946 4.48043 27.7071 4.29289C27.5196 4.10536 27.2652 4 27 4Z" fill="#344054"/>
</svg>
