<svg width="32" height="32" viewBox="0 0 32 32" fill="none" xmlns="http://www.w3.org/2000/svg">
<path d="M16 3C13.4288 3 10.9154 3.76244 8.77759 5.1909C6.63975 6.61935 4.97351 8.64968 3.98957 11.0251C3.00563 13.4006 2.74819 16.0144 3.2498 18.5362C3.75141 21.0579 4.98953 23.3743 6.80762 25.1924C8.6257 27.0105 10.9421 28.2486 13.4638 28.7502C15.9856 29.2518 18.5995 28.9944 20.9749 28.0104C23.3503 27.0265 25.3807 25.3603 26.8091 23.2224C28.2376 21.0846 29 18.5712 29 16C28.9934 12.5542 27.6216 9.25145 25.1851 6.81491C22.7486 4.37837 19.4458 3.00661 16 3ZM20.2125 20.2125C20.0214 20.3973 19.7659 20.5006 19.5 20.5006C19.2341 20.5006 18.9786 20.3973 18.7875 20.2125L13.5 14.9125V18.5C13.5 18.7652 13.3946 19.0196 13.2071 19.2071C13.0196 19.3946 12.7652 19.5 12.5 19.5C12.2348 19.5 11.9804 19.3946 11.7929 19.2071C11.6054 19.0196 11.5 18.7652 11.5 18.5V12.5C11.5006 12.3673 11.526 12.2358 11.575 12.1125C11.6787 11.8711 11.8711 11.6787 12.1125 11.575C12.2359 11.526 12.3673 11.5006 12.5 11.5H18.5C18.7652 11.5 19.0196 11.6054 19.2071 11.7929C19.3946 11.9804 19.5 12.2348 19.5 12.5C19.5 12.7652 19.3946 13.0196 19.2071 13.2071C19.0196 13.3946 18.7652 13.5 18.5 13.5H14.9125L20.2125 18.7875C20.4003 18.9771 20.5056 19.2332 20.5056 19.5C20.5056 19.7668 20.4003 20.0229 20.2125 20.2125Z" fill="#344054"/>
</svg>
