<svg width="32" height="32" viewBox="0 0 32 32" fill="none" xmlns="http://www.w3.org/2000/svg">
<path d="M14.2875 28.7125L2.28751 16.7125C2.09973 16.5229 1.99438 16.2669 1.99438 16C1.99438 15.7332 2.09973 15.4771 2.28751 15.2875L14.2875 3.28751C14.4321 3.15185 14.6121 3.0599 14.8068 3.0223C15.0015 2.98469 15.2028 3.00297 15.3875 3.07501C15.5695 3.15151 15.7248 3.28018 15.8338 3.44479C15.9428 3.6094 16.0006 3.80259 16 4.00001V9.00001H19C19.2652 9.00001 19.5196 9.10537 19.7071 9.29291C19.8947 9.48044 20 9.7348 20 10V22C20 22.2652 19.8947 22.5196 19.7071 22.7071C19.5196 22.8947 19.2652 23 19 23H16V28C16.0006 28.1974 15.9428 28.3906 15.8338 28.5552C15.7248 28.7198 15.5695 28.8485 15.3875 28.925C15.2028 28.9971 15.0015 29.0153 14.8068 28.9777C14.6121 28.9401 14.4321 28.8482 14.2875 28.7125ZM27 23C27.2652 23 27.5196 22.8947 27.7071 22.7071C27.8947 22.5196 28 22.2652 28 22V10C28 9.7348 27.8947 9.48044 27.7071 9.29291C27.5196 9.10537 27.2652 9.00001 27 9.00001C26.7348 9.00001 26.4804 9.10537 26.2929 9.29291C26.1054 9.48044 26 9.7348 26 10V22C26 22.2652 26.1054 22.5196 26.2929 22.7071C26.4804 22.8947 26.7348 23 27 23ZM23 23C23.2652 23 23.5196 22.8947 23.7071 22.7071C23.8947 22.5196 24 22.2652 24 22V10C24 9.7348 23.8947 9.48044 23.7071 9.29291C23.5196 9.10537 23.2652 9.00001 23 9.00001C22.7348 9.00001 22.4804 9.10537 22.2929 9.29291C22.1054 9.48044 22 9.7348 22 10V22C22 22.2652 22.1054 22.5196 22.2929 22.7071C22.4804 22.8947 22.7348 23 23 23Z" fill="#344054"/>
</svg>
