<svg width="32" height="32" viewBox="0 0 32 32" fill="none" xmlns="http://www.w3.org/2000/svg">
<path d="M7 19.5V7C7 6.73479 7.10536 6.48043 7.29289 6.2929C7.48043 6.10536 7.73478 6 8 6H20.5C20.6974 5.99939 20.8906 6.05722 21.0552 6.16622C21.2198 6.27522 21.3485 6.4305 21.425 6.61251C21.497 6.79722 21.5153 6.99855 21.4777 7.19321C21.4401 7.38788 21.3482 7.56792 21.2125 7.7125L15.6625 13.25L22.7125 20.2875C22.9003 20.4771 23.0056 20.7332 23.0056 21C23.0056 21.2669 22.9003 21.5229 22.7125 21.7125C22.5214 21.8973 22.2659 22.0006 22 22.0006C21.7341 22.0006 21.4786 21.8973 21.2875 21.7125L14.25 14.6625L8.7125 20.2125C8.52054 20.396 8.26554 20.4989 8 20.5C7.86728 20.4994 7.73585 20.474 7.6125 20.425C7.4305 20.3485 7.27521 20.2198 7.16622 20.0552C7.05722 19.8906 6.99938 19.6974 7 19.5ZM27 26H5C4.73478 26 4.48043 26.1054 4.29289 26.2929C4.10536 26.4804 4 26.7348 4 27C4 27.2652 4.10536 27.5196 4.29289 27.7071C4.48043 27.8946 4.73478 28 5 28H27C27.2652 28 27.5196 27.8946 27.7071 27.7071C27.8946 27.5196 28 27.2652 28 27C28 26.7348 27.8946 26.4804 27.7071 26.2929C27.5196 26.1054 27.2652 26 27 26Z" fill="#344054"/>
</svg>
