<svg width="32" height="32" viewBox="0 0 32 32" fill="none" xmlns="http://www.w3.org/2000/svg">
<path d="M6.2875 14.7125C6.15184 14.5679 6.05989 14.3879 6.02228 14.1932C5.98468 13.9985 6.00295 13.7972 6.075 13.6125C6.1515 13.4305 6.28016 13.2752 6.44477 13.1662C6.60938 13.0572 6.80257 12.9994 7 13H15V4C15 3.73478 15.1054 3.48043 15.2929 3.29289C15.4804 3.10536 15.7348 3 16 3C16.2652 3 16.5196 3.10536 16.7071 3.29289C16.8946 3.48043 17 3.73478 17 4V13H25C25.1974 12.9994 25.3906 13.0572 25.5552 13.1662C25.7198 13.2752 25.8485 13.4305 25.925 13.6125C25.997 13.7972 26.0153 13.9985 25.9777 14.1932C25.9401 14.3879 25.8482 14.5679 25.7125 14.7125L16.7125 23.7125C16.5214 23.8973 16.2659 24.0006 16 24.0006C15.7341 24.0006 15.4786 23.8973 15.2875 23.7125L6.2875 14.7125ZM27 26H5C4.73478 26 4.48043 26.1054 4.29289 26.2929C4.10536 26.4804 4 26.7348 4 27C4 27.2652 4.10536 27.5196 4.29289 27.7071C4.48043 27.8946 4.73478 28 5 28H27C27.2652 28 27.5196 27.8946 27.7071 27.7071C27.8946 27.5196 28 27.2652 28 27C28 26.7348 27.8946 26.4804 27.7071 26.2929C27.5196 26.1054 27.2652 26 27 26Z" fill="#344054"/>
</svg>
