<svg width="32" height="32" viewBox="0 0 32 32" fill="none" xmlns="http://www.w3.org/2000/svg">
<path d="M26 4C26 4.26522 25.8947 4.51957 25.7071 4.70711C25.5196 4.89464 25.2652 5 25 5C22.0836 5.00331 19.2877 6.1633 17.2255 8.22548C15.1633 10.2877 14.0033 13.0836 14 16V21H19C19.1974 20.9994 19.3906 21.0572 19.5552 21.1662C19.7198 21.2752 19.8485 21.4305 19.925 21.6125C19.9971 21.7972 20.0153 21.9985 19.9777 22.1932C19.9401 22.3879 19.8482 22.5679 19.7125 22.7125L13.7125 28.7125C13.5214 28.8973 13.2659 29.0006 13 29.0006C12.7341 29.0006 12.4787 28.8973 12.2875 28.7125L6.28751 22.7125C6.15185 22.5679 6.0599 22.3879 6.0223 22.1932C5.98469 21.9985 6.00297 21.7972 6.07501 21.6125C6.15151 21.4305 6.28018 21.2752 6.44479 21.1662C6.6094 21.0572 6.80259 20.9994 7.00001 21H12V16C12.0066 12.5542 13.3784 9.25145 15.8149 6.81491C18.2515 4.37837 21.5542 3.00661 25 3C25.2652 3 25.5196 3.10536 25.7071 3.29289C25.8947 3.48043 26 3.73478 26 4Z" fill="#344054"/>
</svg>
