<svg width="32" height="32" viewBox="0 0 32 32" fill="none" xmlns="http://www.w3.org/2000/svg">
<path d="M29.7125 16.7125L25.7125 20.7125C25.5206 20.896 25.2656 20.9989 25 21C24.8673 20.9994 24.7359 20.974 24.6125 20.925C24.4305 20.8485 24.2752 20.7198 24.1662 20.5552C24.0572 20.3906 23.9994 20.1974 24 20V17H8.00001V20C8.00063 20.1974 7.94279 20.3906 7.83379 20.5552C7.7248 20.7198 7.56951 20.8485 7.38751 20.925C7.26416 20.974 7.13273 20.9994 7.00001 21C6.73447 20.9989 6.47947 20.896 6.28751 20.7125L2.28751 16.7125C2.09973 16.5229 1.99438 16.2669 1.99438 16C1.99438 15.7332 2.09973 15.4771 2.28751 15.2875L6.28751 11.2875C6.4321 11.1519 6.61214 11.0599 6.8068 11.0223C7.00147 10.9847 7.2028 11.003 7.38751 11.075C7.56951 11.1515 7.7248 11.2802 7.83379 11.4448C7.94279 11.6094 8.00063 11.8026 8.00001 12V15H24V12C23.9994 11.8026 24.0572 11.6094 24.1662 11.4448C24.2752 11.2802 24.4305 11.1515 24.6125 11.075C24.7972 11.003 24.9986 10.9847 25.1932 11.0223C25.3879 11.0599 25.5679 11.1519 25.7125 11.2875L29.7125 15.2875C29.9003 15.4771 30.0056 15.7332 30.0056 16C30.0056 16.2669 29.9003 16.5229 29.7125 16.7125Z" fill="#344054"/>
</svg>
