<svg width="32" height="32" viewBox="0 0 32 32" fill="none" xmlns="http://www.w3.org/2000/svg">
<path d="M26 15H18.4125L26.7125 6.7125C26.8482 6.56792 26.9401 6.38788 26.9777 6.19321C27.0153 5.99855 26.9971 5.79722 26.925 5.61251C26.8485 5.4305 26.7198 5.27522 26.5552 5.16622C26.3906 5.05722 26.1974 4.99939 26 5H6.00001C5.80259 4.99939 5.6094 5.05722 5.44479 5.16622C5.28018 5.27522 5.15151 5.4305 5.07501 5.61251C5.00297 5.79722 4.98469 5.99855 5.0223 6.19321C5.0599 6.38788 5.15185 6.56792 5.28751 6.7125L13.5875 15H6.00001C5.80259 14.9994 5.6094 15.0572 5.44479 15.1662C5.28018 15.2752 5.15151 15.4305 5.07501 15.6125C5.00297 15.7972 4.98469 15.9985 5.0223 16.1932C5.0599 16.3879 5.15185 16.5679 5.28751 16.7125L15.2875 26.7125C15.4787 26.8973 15.7341 27.0006 16 27.0006C16.2659 27.0006 16.5214 26.8973 16.7125 26.7125L26.7125 16.7125C26.8482 16.5679 26.9401 16.3879 26.9777 16.1932C27.0153 15.9985 26.9971 15.7972 26.925 15.6125C26.8485 15.4305 26.7198 15.2752 26.5552 15.1662C26.3906 15.0572 26.1974 14.9994 26 15Z" fill="#344054"/>
</svg>
