<svg width="32" height="32" viewBox="0 0 32 32" fill="none" xmlns="http://www.w3.org/2000/svg">
<path d="M27 6V12C27.0006 12.1974 26.9428 12.3906 26.8338 12.5552C26.7248 12.7198 26.5695 12.8485 26.3875 12.925C26.2642 12.974 26.1327 12.9994 26 13C25.7345 12.9989 25.4795 12.896 25.2875 12.7125L23 10.4125L19.7125 13.7125C19.5214 13.8973 19.2659 14.0006 19 14.0006C18.7341 14.0006 18.4786 13.8973 18.2875 13.7125C18.0997 13.5229 17.9944 13.2669 17.9944 13C17.9944 12.7332 18.0997 12.4771 18.2875 12.2875L21.5875 9L19.2875 6.7125C19.1518 6.56792 19.0599 6.38788 19.0223 6.19321C18.9847 5.99855 19.003 5.79722 19.075 5.61251C19.1515 5.4305 19.2802 5.27522 19.4448 5.16622C19.6094 5.05722 19.8026 4.99939 20 5H26C26.2652 5 26.5196 5.10536 26.7071 5.2929C26.8946 5.48043 27 5.73479 27 6ZM12.2875 18.2875L9 21.5875L6.7125 19.2875C6.56792 19.1518 6.38788 19.0599 6.19321 19.0223C5.99855 18.9847 5.79722 19.003 5.61251 19.075C5.4305 19.1515 5.27522 19.2802 5.16622 19.4448C5.05722 19.6094 4.99939 19.8026 5 20V26C5 26.2652 5.10536 26.5196 5.2929 26.7071C5.48043 26.8946 5.73479 27 6 27H12C12.1974 27.0006 12.3906 26.9428 12.5552 26.8338C12.7198 26.7248 12.8485 26.5695 12.925 26.3875C12.9971 26.2028 13.0153 26.0015 12.9777 25.8068C12.9401 25.6121 12.8482 25.4321 12.7125 25.2875L10.4125 23L13.7125 19.7125C13.872 19.5182 13.9535 19.2715 13.9411 19.0205C13.9288 18.7694 13.8235 18.5319 13.6458 18.3542C13.4681 18.1765 13.2306 18.0712 12.9795 18.0589C12.7285 18.0465 12.4818 18.128 12.2875 18.2875Z" fill="#344054"/>
</svg>
