<svg width="32" height="32" viewBox="0 0 32 32" fill="none" xmlns="http://www.w3.org/2000/svg">
<path d="M27.7125 22.7125L21.7125 28.7125C21.5214 28.8973 21.2659 29.0006 21 29.0006C20.7341 29.0006 20.4786 28.8973 20.2875 28.7125L14.2875 22.7125C14.1518 22.5679 14.0599 22.3879 14.0223 22.1932C13.9847 21.9985 14.003 21.7972 14.075 21.6125C14.1515 21.4305 14.2802 21.2752 14.4448 21.1662C14.6094 21.0572 14.8026 20.9994 15 21H20V11C20 9.4087 19.3679 7.88258 18.2426 6.75736C17.1174 5.63214 15.5913 5 14 5C12.4087 5 10.8826 5.63214 9.75736 6.75736C8.63214 7.88258 8 9.4087 8 11V22C8 22.2652 7.89464 22.5196 7.70711 22.7071C7.51957 22.8946 7.26522 23 7 23C6.73478 23 6.48043 22.8946 6.29289 22.7071C6.10536 22.5196 6 22.2652 6 22V11C6 8.87827 6.84285 6.84344 8.34315 5.34315C9.84344 3.84285 11.8783 3 14 3C16.1217 3 18.1566 3.84285 19.6569 5.34315C21.1571 6.84344 22 8.87827 22 11V21H27C27.1974 20.9994 27.3906 21.0572 27.5552 21.1662C27.7198 21.2752 27.8485 21.4305 27.925 21.6125C27.997 21.7972 28.0153 21.9985 27.9777 22.1932C27.9401 22.3879 27.8482 22.5679 27.7125 22.7125Z" fill="#344054"/>
</svg>
