<svg width="32" height="32" viewBox="0 0 32 32" fill="none" xmlns="http://www.w3.org/2000/svg">
<path d="M28.925 15.3875C28.8485 15.5695 28.7198 15.7248 28.5552 15.8338C28.3906 15.9428 28.1974 16.0006 28 16H23V23C23 23.2652 22.8946 23.5196 22.7071 23.7071C22.5196 23.8947 22.2652 24 22 24H10C9.73478 24 9.48043 23.8947 9.29289 23.7071C9.10535 23.5196 9 23.2652 9 23V16H4C3.80257 16.0006 3.60938 15.9428 3.44477 15.8338C3.28016 15.7248 3.1515 15.5695 3.075 15.3875C3.00295 15.2028 2.98467 15.0015 3.02228 14.8068C3.05989 14.6121 3.15184 14.4321 3.2875 14.2875L15.2875 2.28751C15.4771 2.09973 15.7331 1.99438 16 1.99438C16.2668 1.99438 16.5229 2.09973 16.7125 2.28751L28.7125 14.2875C28.8482 14.4321 28.9401 14.6121 28.9777 14.8068C29.0153 15.0015 28.997 15.2028 28.925 15.3875ZM22 26H10C9.73478 26 9.48043 26.1054 9.29289 26.2929C9.10535 26.4804 9 26.7348 9 27C9 27.2652 9.10535 27.5196 9.29289 27.7071C9.48043 27.8947 9.73478 28 10 28H22C22.2652 28 22.5196 27.8947 22.7071 27.7071C22.8946 27.5196 23 27.2652 23 27C23 26.7348 22.8946 26.4804 22.7071 26.2929C22.5196 26.1054 22.2652 26 22 26Z" fill="#344054"/>
</svg>
