<svg width="32" height="32" viewBox="0 0 32 32" fill="none" xmlns="http://www.w3.org/2000/svg">
<path d="M18.4125 17H26C26.1974 17.0006 26.3906 16.9428 26.5552 16.8338C26.7198 16.7248 26.8485 16.5695 26.925 16.3875C26.9971 16.2028 27.0153 16.0015 26.9777 15.8068C26.9401 15.6121 26.8482 15.4321 26.7125 15.2875L16.7125 5.28749C16.5229 5.09971 16.2669 4.99437 16 4.99437C15.7332 4.99437 15.4771 5.09971 15.2875 5.28749L5.28751 15.2875C5.15185 15.4321 5.0599 15.6121 5.0223 15.8068C4.98469 16.0015 5.00297 16.2028 5.07501 16.3875C5.15151 16.5695 5.28018 16.7248 5.44479 16.8338C5.6094 16.9428 5.80259 17.0006 6.00001 17H13.5875L5.28751 25.2875C5.15185 25.4321 5.0599 25.6121 5.0223 25.8068C4.98469 26.0014 5.00297 26.2028 5.07501 26.3875C5.15151 26.5695 5.28018 26.7248 5.44479 26.8338C5.6094 26.9428 5.80259 27.0006 6.00001 27H26C26.1974 27.0006 26.3906 26.9428 26.5552 26.8338C26.7198 26.7248 26.8485 26.5695 26.925 26.3875C26.9971 26.2028 27.0153 26.0014 26.9777 25.8068C26.9401 25.6121 26.8482 25.4321 26.7125 25.2875L18.4125 17Z" fill="#344054"/>
</svg>
