<svg width="32" height="32" viewBox="0 0 32 32" fill="none" xmlns="http://www.w3.org/2000/svg">
<path d="M20.4625 25.0875C20.535 25.271 20.5524 25.4716 20.5124 25.6648C20.4724 25.858 20.3769 26.0354 20.2375 26.175L16.7125 29.7125C16.5214 29.8973 16.2659 30.0006 16 30.0006C15.7341 30.0006 15.4787 29.8973 15.2875 29.7125L11.7625 26.175C11.6212 26.0359 11.5245 25.8579 11.4846 25.6636C11.4447 25.4694 11.4635 25.2677 11.5385 25.0841C11.6136 24.9006 11.7415 24.7435 11.906 24.6328C12.0705 24.5221 12.2642 24.4628 12.4625 24.4625H15V20C15 19.7348 15.1054 19.4804 15.2929 19.2929C15.4804 19.1054 15.7348 19 16 19C16.2652 19 16.5196 19.1054 16.7071 19.2929C16.8947 19.4804 17 19.7348 17 20V24.4625H19.5375C19.7356 24.4661 19.9284 24.5271 20.0926 24.638C20.2567 24.7489 20.3852 24.9051 20.4625 25.0875ZM12.4625 7.53749H15V12C15 12.2652 15.1054 12.5196 15.2929 12.7071C15.4804 12.8946 15.7348 13 16 13C16.2652 13 16.5196 12.8946 16.7071 12.7071C16.8947 12.5196 17 12.2652 17 12V7.53749H19.5375C19.7358 7.53716 19.9295 7.47789 20.094 7.3672C20.2586 7.25652 20.3865 7.09942 20.4615 6.91587C20.5365 6.73232 20.5553 6.53061 20.5154 6.33637C20.4755 6.14213 20.3788 5.96413 20.2375 5.82499L16.7125 2.28749C16.5214 2.10267 16.2659 1.99936 16 1.99936C15.7341 1.99936 15.4787 2.10267 15.2875 2.28749L11.7625 5.82499C11.6212 5.96413 11.5245 6.14213 11.4846 6.33637C11.4447 6.53061 11.4635 6.73232 11.5385 6.91587C11.6136 7.09942 11.7415 7.25652 11.906 7.3672C12.0705 7.47789 12.2642 7.53716 12.4625 7.53749ZM12 17C12.2652 17 12.5196 16.8946 12.7071 16.7071C12.8947 16.5196 13 16.2652 13 16C13 15.7348 12.8947 15.4804 12.7071 15.2929C12.5196 15.1054 12.2652 15 12 15H7.53751V12.4625C7.53718 12.2642 7.4779 12.0705 7.36722 11.906C7.25653 11.7414 7.09943 11.6135 6.91588 11.5385C6.73233 11.4635 6.53062 11.4447 6.33638 11.4846C6.14214 11.5245 5.96414 11.6212 5.82501 11.7625L2.28751 15.2875C2.09973 15.4771 1.99438 15.7331 1.99438 16C1.99438 16.2668 2.09973 16.5229 2.28751 16.7125L5.82501 20.2375C5.91792 20.3323 6.02877 20.4076 6.1511 20.4591C6.27342 20.5106 6.40478 20.5373 6.53751 20.5375C6.66627 20.5378 6.79378 20.5123 6.91251 20.4625C7.09494 20.3852 7.25106 20.2567 7.36199 20.0925C7.47291 19.9284 7.53388 19.7356 7.53751 19.5375V17H12ZM29.7125 15.2875L26.175 11.7625C26.0359 11.6212 25.8579 11.5245 25.6636 11.4846C25.4694 11.4447 25.2677 11.4635 25.0841 11.5385C24.9006 11.6135 24.7435 11.7414 24.6328 11.906C24.5221 12.0705 24.4628 12.2642 24.4625 12.4625V15H20C19.7348 15 19.4804 15.1054 19.2929 15.2929C19.1054 15.4804 19 15.7348 19 16C19 16.2652 19.1054 16.5196 19.2929 16.7071C19.4804 16.8946 19.7348 17 20 17H24.4625V19.5375C24.4661 19.7356 24.5271 19.9284 24.638 20.0925C24.749 20.2567 24.9051 20.3852 25.0875 20.4625C25.2062 20.5123 25.3338 20.5378 25.4625 20.5375C25.5952 20.5373 25.7266 20.5106 25.8489 20.4591C25.9713 20.4076 26.0821 20.3323 26.175 20.2375L29.7125 16.7125C29.9003 16.5229 30.0056 16.2668 30.0056 16C30.0056 15.7331 29.9003 15.4771 29.7125 15.2875Z" fill="#344054"/>
</svg>
