<svg width="32" height="32" viewBox="0 0 32 32" fill="none" xmlns="http://www.w3.org/2000/svg">
<path d="M29.4875 10.5125V18.5125C29.4875 18.7777 29.3821 19.0321 29.1946 19.2196C29.0071 19.4071 28.7527 19.5125 28.4875 19.5125H20.4875C20.2897 19.5148 20.0958 19.4576 19.9309 19.3484C19.7659 19.2392 19.6376 19.083 19.5625 18.9C19.4868 18.718 19.4665 18.5176 19.5044 18.3241C19.5422 18.1306 19.6363 17.9526 19.775 17.8125L23.0375 14.55C21.4313 13.2129 19.4774 12.3611 17.4047 12.0943C15.3319 11.8274 13.226 12.1565 11.3335 13.0431C9.44103 13.9296 7.84025 15.337 6.71858 17.1004C5.59692 18.8637 5.0008 20.9101 5 23C5 23.2652 4.89464 23.5196 4.70711 23.7071C4.51957 23.8946 4.26522 24 4 24C3.73478 24 3.48043 23.8946 3.29289 23.7071C3.10536 23.5196 3 23.2652 3 23C3.00331 19.5532 4.37401 16.2485 6.81127 13.8113C9.24852 11.374 12.5532 10.0033 16 9.99999C19.1048 9.99037 22.1091 11.0998 24.4625 13.125L27.775 9.81249C27.9141 9.67121 28.0921 9.57448 28.2864 9.5346C28.4806 9.49471 28.6823 9.51348 28.8659 9.58851C29.0494 9.66353 29.2065 9.79144 29.3172 9.95596C29.4279 10.1205 29.4872 10.3142 29.4875 10.5125Z" fill="#344054"/>
</svg>
