<svg width="32" height="32" viewBox="0 0 32 32" fill="none" xmlns="http://www.w3.org/2000/svg">
<path d="M28.925 15.3875C28.8485 15.5695 28.7198 15.7248 28.5552 15.8338C28.3906 15.9428 28.1974 16.0006 28 16H23V19C23 19.2652 22.8947 19.5196 22.7071 19.7071C22.5196 19.8947 22.2652 20 22 20H10C9.7348 20 9.48044 19.8947 9.29291 19.7071C9.10537 19.5196 9.00001 19.2652 9.00001 19V16H4.00001C3.80259 16.0006 3.6094 15.9428 3.44479 15.8338C3.28018 15.7248 3.15151 15.5695 3.07501 15.3875C3.00297 15.2028 2.98469 15.0015 3.0223 14.8068C3.0599 14.6121 3.15185 14.4321 3.28751 14.2875L15.2875 2.28751C15.4771 2.09973 15.7332 1.99438 16 1.99438C16.2669 1.99438 16.5229 2.09973 16.7125 2.28751L28.7125 14.2875C28.8482 14.4321 28.9401 14.6121 28.9777 14.8068C29.0153 15.0015 28.9971 15.2028 28.925 15.3875ZM22 26H10C9.7348 26 9.48044 26.1054 9.29291 26.2929C9.10537 26.4804 9.00001 26.7348 9.00001 27C9.00001 27.2652 9.10537 27.5196 9.29291 27.7071C9.48044 27.8947 9.7348 28 10 28H22C22.2652 28 22.5196 27.8947 22.7071 27.7071C22.8947 27.5196 23 27.2652 23 27C23 26.7348 22.8947 26.4804 22.7071 26.2929C22.5196 26.1054 22.2652 26 22 26ZM22 22H10C9.7348 22 9.48044 22.1054 9.29291 22.2929C9.10537 22.4804 9.00001 22.7348 9.00001 23C9.00001 23.2652 9.10537 23.5196 9.29291 23.7071C9.48044 23.8947 9.7348 24 10 24H22C22.2652 24 22.5196 23.8947 22.7071 23.7071C22.8947 23.5196 23 23.2652 23 23C23 22.7348 22.8947 22.4804 22.7071 22.2929C22.5196 22.1054 22.2652 22 22 22Z" fill="#344054"/>
</svg>
