<svg width="32" height="32" viewBox="0 0 32 32" fill="none" xmlns="http://www.w3.org/2000/svg">
<path d="M17 5V27C17 27.2652 16.8947 27.5196 16.7071 27.7071C16.5196 27.8946 16.2652 28 16 28C15.7348 28 15.4804 27.8946 15.2929 27.7071C15.1054 27.5196 15 27.2652 15 27V5C15 4.73478 15.1054 4.48043 15.2929 4.29289C15.4804 4.10536 15.7348 4 16 4C16.2652 4 16.5196 4.10536 16.7071 4.29289C16.8947 4.48043 17 4.73478 17 5ZM12 15H7.00001V12C7.00063 11.8026 6.94279 11.6094 6.83379 11.4448C6.7248 11.2802 6.56951 11.1515 6.38751 11.075C6.2028 11.003 6.00147 10.9847 5.8068 11.0223C5.61214 11.0599 5.4321 11.1518 5.28751 11.2875L1.28751 15.2875C1.09973 15.4771 0.994385 15.7332 0.994385 16C0.994385 16.2668 1.09973 16.5229 1.28751 16.7125L5.28751 20.7125C5.47947 20.896 5.73447 20.9989 6.00001 21C6.13273 20.9994 6.26416 20.974 6.38751 20.925C6.56951 20.8485 6.7248 20.7198 6.83379 20.5552C6.94279 20.3906 7.00063 20.1974 7.00001 20V17H12C12.2652 17 12.5196 16.8946 12.7071 16.7071C12.8947 16.5196 13 16.2652 13 16C13 15.7348 12.8947 15.4804 12.7071 15.2929C12.5196 15.1054 12.2652 15 12 15ZM30.7125 15.2875L26.7125 11.2875C26.5679 11.1518 26.3879 11.0599 26.1932 11.0223C25.9986 10.9847 25.7972 11.003 25.6125 11.075C25.4305 11.1515 25.2752 11.2802 25.1662 11.4448C25.0572 11.6094 24.9994 11.8026 25 12V15H20C19.7348 15 19.4804 15.1054 19.2929 15.2929C19.1054 15.4804 19 15.7348 19 16C19 16.2652 19.1054 16.5196 19.2929 16.7071C19.4804 16.8946 19.7348 17 20 17H25V20C24.9994 20.1974 25.0572 20.3906 25.1662 20.5552C25.2752 20.7198 25.4305 20.8485 25.6125 20.925C25.7359 20.974 25.8673 20.9994 26 21C26.2656 20.9989 26.5206 20.896 26.7125 20.7125L30.7125 16.7125C30.9003 16.5229 31.0056 16.2668 31.0056 16C31.0056 15.7332 30.9003 15.4771 30.7125 15.2875Z" fill="#344054"/>
</svg>
