<svg width="32" height="32" viewBox="0 0 32 32" fill="none" xmlns="http://www.w3.org/2000/svg">
<path d="M22.7125 15.2875L12.7125 5.2875C12.5679 5.15184 12.3879 5.05989 12.1932 5.02228C11.9985 4.98468 11.7972 5.00295 11.6125 5.075C11.4305 5.1515 11.2752 5.28016 11.1662 5.44477C11.0572 5.60938 10.9994 5.80257 11 6V26C10.9994 26.1974 11.0572 26.3906 11.1662 26.5552C11.2752 26.7198 11.4305 26.8485 11.6125 26.925C11.7359 26.974 11.8673 26.9994 12 27C12.2655 26.9989 12.5205 26.896 12.7125 26.7125L22.7125 16.7125C22.9003 16.5229 23.0056 16.2668 23.0056 16C23.0056 15.7332 22.9003 15.4771 22.7125 15.2875Z" fill="#344054"/>
</svg>
