<svg width="32" height="32" viewBox="0 0 32 32" fill="none" xmlns="http://www.w3.org/2000/svg">
<path d="M25 8V21C25.0006 21.1974 24.9428 21.3906 24.8338 21.5552C24.7248 21.7198 24.5695 21.8485 24.3875 21.925C24.2642 21.974 24.1327 21.9994 24 22C23.7345 21.9989 23.4795 21.896 23.2875 21.7125L17.5 15.9125L8.71251 24.7125C8.52137 24.8973 8.26589 25.0006 8.00001 25.0006C7.73413 25.0006 7.47865 24.8973 7.28751 24.7125C7.09973 24.5229 6.99438 24.2669 6.99438 24C6.99438 23.7332 7.09973 23.4771 7.28751 23.2875L16.0875 14.5L10.2875 8.7125C10.1519 8.56792 10.0599 8.38788 10.0223 8.19321C9.98469 7.99855 10.003 7.79722 10.075 7.61251C10.1515 7.4305 10.2802 7.27522 10.4448 7.16622C10.6094 7.05722 10.8026 6.99939 11 7H24C24.2652 7 24.5196 7.10536 24.7071 7.2929C24.8947 7.48043 25 7.73479 25 8Z" fill="#344054"/>
</svg>
