<svg width="32" height="32" viewBox="0 0 32 32" fill="none" xmlns="http://www.w3.org/2000/svg">
<path d="M16 3C13.4288 3 10.9154 3.76244 8.77759 5.1909C6.63975 6.61935 4.97351 8.64968 3.98957 11.0251C3.00563 13.4006 2.74819 16.0144 3.2498 18.5362C3.75141 21.0579 4.98953 23.3743 6.80762 25.1924C8.6257 27.0105 10.9421 28.2486 13.4638 28.7502C15.9856 29.2518 18.5995 28.9944 20.9749 28.0104C23.3503 27.0265 25.3807 25.3603 26.8091 23.2224C28.2376 21.0846 29 18.5712 29 16C28.9934 12.5542 27.6216 9.25145 25.1851 6.81491C22.7486 4.37837 19.4458 3.00661 16 3ZM21.925 16.3875C21.8705 16.5087 21.7942 16.6188 21.7 16.7125L17.4625 20.95C17.3717 21.0433 17.2628 21.117 17.1424 21.1665C17.022 21.2159 16.8927 21.2401 16.7625 21.2375C16.6305 21.2403 16.4992 21.2163 16.3767 21.1669C16.2543 21.1175 16.1431 21.0437 16.05 20.95C15.863 20.7625 15.758 20.5085 15.758 20.2437C15.758 19.979 15.863 19.725 16.05 19.5375L18.5875 17H11C10.7348 17 10.4804 16.8946 10.2929 16.7071C10.1054 16.5196 10 16.2652 10 16C10 15.7348 10.1054 15.4804 10.2929 15.2929C10.4804 15.1054 10.7348 15 11 15H18.5875L16.05 12.4625C15.8776 12.2723 15.785 12.0231 15.7914 11.7664C15.7977 11.5098 15.9024 11.2655 16.0839 11.0839C16.2655 10.9024 16.5098 10.7977 16.7664 10.7914C17.0231 10.785 17.2723 10.8776 17.4625 11.05L21.7 15.2875C21.7942 15.3812 21.8705 15.4913 21.925 15.6125C22.0251 15.8611 22.0251 16.1389 21.925 16.3875Z" fill="#344054"/>
</svg>
