<svg width="32" height="32" viewBox="0 0 32 32" fill="none" xmlns="http://www.w3.org/2000/svg">
<path d="M21 17V12H11C9.4087 12 7.88258 12.6322 6.75736 13.7574C5.63214 14.8826 5 16.4087 5 18C5 19.5913 5.63214 21.1174 6.75736 22.2427C7.88258 23.3679 9.4087 24 11 24H22C22.2652 24 22.5196 24.1054 22.7071 24.2929C22.8946 24.4804 23 24.7348 23 25C23 25.2652 22.8946 25.5196 22.7071 25.7071C22.5196 25.8947 22.2652 26 22 26H11C8.87827 26 6.84344 25.1572 5.34315 23.6569C3.84285 22.1566 3 20.1217 3 18C3 15.8783 3.84285 13.8434 5.34315 12.3432C6.84344 10.8429 8.87827 10 11 10H21V5.00001C20.9994 4.80259 21.0572 4.6094 21.1662 4.44479C21.2752 4.28018 21.4305 4.15151 21.6125 4.07501C21.7972 4.00297 21.9985 3.98469 22.1932 4.0223C22.3879 4.0599 22.5679 4.15185 22.7125 4.28751L28.7125 10.2875C28.9003 10.4771 29.0056 10.7332 29.0056 11C29.0056 11.2669 28.9003 11.5229 28.7125 11.7125L22.7125 17.7125C22.5205 17.896 22.2655 17.9989 22 18C21.8673 17.9994 21.7358 17.974 21.6125 17.925C21.4305 17.8485 21.2752 17.7198 21.1662 17.5552C21.0572 17.3906 20.9994 17.1974 21 17Z" fill="#344054"/>
</svg>
