<svg width="32" height="32" viewBox="0 0 32 32" fill="none" xmlns="http://www.w3.org/2000/svg">
<path d="M9.97498 13.4625H3.97498C3.70976 13.4625 3.45541 13.3571 3.26787 13.1696C3.08033 12.9821 2.97498 12.7277 2.97498 12.4625V6.4625C2.97861 6.26441 3.03958 6.07161 3.1505 5.90745C3.26142 5.74328 3.41754 5.61478 3.59998 5.5375C3.78319 5.46333 3.98427 5.44512 4.17783 5.48516C4.37139 5.52521 4.54874 5.62172 4.68748 5.7625L6.97498 8.05L7.51248 7.5125C9.76633 5.26682 12.8183 4.00589 16 4.00589C19.1816 4.00589 22.2336 5.26682 24.4875 7.5125C24.6745 7.69997 24.7795 7.95395 24.7795 8.21875C24.7795 8.48355 24.6745 8.73753 24.4875 8.925C24.3955 9.01911 24.2856 9.09389 24.1644 9.14495C24.0431 9.19601 23.9128 9.22231 23.7812 9.22231C23.6496 9.22231 23.5194 9.19601 23.3981 9.14495C23.2768 9.09389 23.1669 9.01911 23.075 8.925C21.1961 7.05334 18.652 6.00246 16 6.00246C13.3479 6.00246 10.8039 7.05334 8.92498 8.925L8.38748 9.4625L10.6875 11.7625C10.8252 11.903 10.9185 12.0811 10.9555 12.2744C10.9925 12.4676 10.9717 12.6675 10.8956 12.849C10.8195 13.0305 10.6916 13.1856 10.5278 13.2947C10.3641 13.4038 10.1718 13.4622 9.97498 13.4625ZM28.025 18.5375H22.025C21.8282 18.5378 21.6359 18.5962 21.4721 18.7053C21.3083 18.8144 21.1804 18.9695 21.1043 19.151C21.0283 19.3325 21.0075 19.5324 21.0445 19.7256C21.0815 19.9189 21.1747 20.097 21.3125 20.2375L23.6125 22.5375L23.075 23.075C21.1961 24.9467 18.652 25.9975 16 25.9975C13.3479 25.9975 10.8039 24.9467 8.92498 23.075C8.833 22.9809 8.72315 22.9061 8.60186 22.855C8.48058 22.804 8.35032 22.7777 8.21873 22.7777C8.08713 22.7777 7.95687 22.804 7.83559 22.855C7.7143 22.9061 7.60445 22.9809 7.51248 23.075C7.32546 23.2625 7.22044 23.5165 7.22044 23.7812C7.22044 24.046 7.32546 24.3 7.51248 24.4875C9.76472 26.7362 12.8173 27.9993 16 27.9993C19.1826 27.9993 22.2352 26.7362 24.4875 24.4875L25.025 23.95L27.3125 26.2375C27.4045 26.3334 27.5152 26.4095 27.6377 26.4611C27.7602 26.5127 27.892 26.5387 28.025 26.5375C28.1536 26.5369 28.281 26.5114 28.4 26.4625C28.5824 26.3852 28.7385 26.2567 28.8495 26.0926C28.9604 25.9284 29.0213 25.7356 29.025 25.5375V19.5375C29.025 19.4062 28.9991 19.2761 28.9489 19.1548C28.8986 19.0335 28.8249 18.9233 28.7321 18.8304C28.6392 18.7375 28.529 18.6639 28.4077 18.6136C28.2863 18.5634 28.1563 18.5375 28.025 18.5375Z" fill="#344054"/>
</svg>
