<svg width="32" height="32" viewBox="0 0 32 32" fill="none" xmlns="http://www.w3.org/2000/svg">
<path d="M25 10V28C25 28.2652 24.8947 28.5196 24.7071 28.7071C24.5196 28.8947 24.2652 29 24 29C23.7348 29 23.4804 28.8947 23.2929 28.7071C23.1054 28.5196 23 28.2652 23 28V11H13V16C13.0006 16.1974 12.9428 16.3906 12.8338 16.5552C12.7248 16.7198 12.5695 16.8485 12.3875 16.925C12.2642 16.974 12.1327 16.9994 12 17C11.7345 16.9989 11.4795 16.896 11.2875 16.7125L5.28751 10.7125C5.09973 10.5229 4.99438 10.2669 4.99438 10C4.99438 9.73317 5.09973 9.47711 5.28751 9.28751L11.2875 3.28751C11.4321 3.15185 11.6121 3.0599 11.8068 3.0223C12.0015 2.98469 12.2028 3.00297 12.3875 3.07501C12.5695 3.15151 12.7248 3.28018 12.8338 3.44479C12.9428 3.6094 13.0006 3.80259 13 4.00001V9.00001H24C24.2652 9.00001 24.5196 9.10537 24.7071 9.29291C24.8947 9.48044 25 9.7348 25 10Z" fill="#344054"/>
</svg>
