<svg width="32" height="32" viewBox="0 0 32 32" fill="none" xmlns="http://www.w3.org/2000/svg">
<path d="M9.2875 21.7125C9.09972 21.5229 8.99437 21.2669 8.99437 21C8.99437 20.7332 9.09972 20.4771 9.2875 20.2875L16.3375 13.25L10.7875 7.7125C10.6518 7.56792 10.5599 7.38788 10.5223 7.19321C10.4847 6.99855 10.503 6.79722 10.575 6.61251C10.6515 6.4305 10.7802 6.27522 10.9448 6.16622C11.1094 6.05722 11.3026 5.99939 11.5 6H24C24.2652 6 24.5196 6.10536 24.7071 6.2929C24.8946 6.48043 25 6.73479 25 7V19.5C25.0006 19.6974 24.9428 19.8906 24.8338 20.0552C24.7248 20.2198 24.5695 20.3485 24.3875 20.425C24.2642 20.474 24.1327 20.4994 24 20.5C23.7345 20.4989 23.4795 20.396 23.2875 20.2125L17.75 14.6625L10.7125 21.7125C10.5214 21.8973 10.2659 22.0006 10 22.0006C9.73412 22.0006 9.47864 21.8973 9.2875 21.7125ZM27 26H5C4.73478 26 4.48043 26.1054 4.29289 26.2929C4.10536 26.4804 4 26.7348 4 27C4 27.2652 4.10536 27.5196 4.29289 27.7071C4.48043 27.8946 4.73478 28 5 28H27C27.2652 28 27.5196 27.8946 27.7071 27.7071C27.8946 27.5196 28 27.2652 28 27C28 26.7348 27.8946 26.4804 27.7071 26.2929C27.5196 26.1054 27.2652 26 27 26Z" fill="#344054"/>
</svg>
