<svg width="32" height="32" viewBox="0 0 32 32" fill="none" xmlns="http://www.w3.org/2000/svg">
<path d="M16 3C13.4288 3 10.9154 3.76244 8.77759 5.1909C6.63975 6.61935 4.97351 8.64968 3.98957 11.0251C3.00563 13.4006 2.74819 16.0144 3.2498 18.5362C3.75141 21.0579 4.98953 23.3743 6.80762 25.1924C8.6257 27.0105 10.9421 28.2486 13.4638 28.7502C15.9856 29.2518 18.5995 28.9944 20.9749 28.0104C23.3503 27.0265 25.3807 25.3603 26.8091 23.2224C28.2376 21.0846 29 18.5712 29 16C28.9934 12.5542 27.6216 9.25145 25.1851 6.81491C22.7486 4.37837 19.4458 3.00661 16 3ZM21.175 18.7375C20.9894 18.9042 20.7495 18.9976 20.5 19C20.3611 19.0007 20.2237 18.9722 20.0966 18.9162C19.9695 18.8602 19.8557 18.778 19.7625 18.675L16 14.5L12.2375 18.675C12.0568 18.864 11.8093 18.9747 11.548 18.9835C11.2867 18.9922 11.0323 18.8982 10.8395 18.7217C10.6466 18.5452 10.5305 18.3001 10.5161 18.039C10.5018 17.778 10.5902 17.5217 10.7625 17.325L15.2625 12.325C15.359 12.2275 15.4738 12.1501 15.6004 12.0973C15.727 12.0444 15.8628 12.0172 16 12.0172C16.1372 12.0172 16.273 12.0444 16.3996 12.0973C16.5262 12.1501 16.641 12.2275 16.7375 12.325L21.2375 17.325C21.4165 17.5206 21.5104 17.7793 21.4987 18.0442C21.487 18.3091 21.3705 18.5584 21.175 18.7375Z" fill="#344054"/>
</svg>
