<svg width="32" height="32" viewBox="0 0 32 32" fill="none" xmlns="http://www.w3.org/2000/svg">
<path d="M27 6V11C27.0006 11.1974 26.9428 11.3906 26.8338 11.5552C26.7248 11.7198 26.5695 11.8485 26.3875 11.925C26.2642 11.974 26.1327 11.9994 26 12C25.7345 11.9989 25.4795 11.896 25.2875 11.7125L23.5 9.91251L19.7125 13.7125C19.5214 13.8973 19.2659 14.0006 19 14.0006C18.7341 14.0006 18.4786 13.8973 18.2875 13.7125C18.0997 13.5229 17.9944 13.2669 17.9944 13C17.9944 12.7332 18.0997 12.4771 18.2875 12.2875L22.0875 8.50001L20.2875 6.7125C20.1518 6.56792 20.0599 6.38788 20.0223 6.19321C19.9847 5.99855 20.003 5.79722 20.075 5.61251C20.1515 5.4305 20.2802 5.27522 20.4448 5.16622C20.6094 5.05722 20.8026 4.99939 21 5H26C26.2652 5 26.5196 5.10536 26.7071 5.2929C26.8946 5.48043 27 5.73479 27 6ZM12.2875 18.2875L8.50001 22.0875L6.7125 20.2875C6.56792 20.1518 6.38788 20.0599 6.19321 20.0223C5.99855 19.9847 5.79722 20.003 5.61251 20.075C5.4305 20.1515 5.27522 20.2802 5.16622 20.4448C5.05722 20.6094 4.99939 20.8026 5 21V26C5 26.2652 5.10536 26.5196 5.2929 26.7071C5.48043 26.8946 5.73479 27 6 27H11C11.1974 27.0006 11.3906 26.9428 11.5552 26.8338C11.7198 26.7248 11.8485 26.5695 11.925 26.3875C11.9971 26.2028 12.0153 26.0015 11.9777 25.8068C11.9401 25.6121 11.8482 25.4321 11.7125 25.2875L9.91251 23.5L13.7125 19.7125C13.872 19.5182 13.9535 19.2715 13.9411 19.0205C13.9288 18.7694 13.8235 18.5319 13.6458 18.3542C13.4681 18.1765 13.2306 18.0712 12.9795 18.0589C12.7285 18.0465 12.4818 18.128 12.2875 18.2875ZM26.3875 20.075C26.2028 20.003 26.0015 19.9847 25.8068 20.0223C25.6121 20.0599 25.4321 20.1518 25.2875 20.2875L23.5 22.0875L19.7125 18.2875C19.5182 18.128 19.2715 18.0465 19.0205 18.0589C18.7694 18.0712 18.5319 18.1765 18.3542 18.3542C18.1765 18.5319 18.0712 18.7694 18.0589 19.0205C18.0465 19.2715 18.128 19.5182 18.2875 19.7125L22.0875 23.5L20.2875 25.2875C20.1518 25.4321 20.0599 25.6121 20.0223 25.8068C19.9847 26.0015 20.003 26.2028 20.075 26.3875C20.1515 26.5695 20.2802 26.7248 20.4448 26.8338C20.6094 26.9428 20.8026 27.0006 21 27H26C26.2652 27 26.5196 26.8946 26.7071 26.7071C26.8946 26.5196 27 26.2652 27 26V21C27.0006 20.8026 26.9428 20.6094 26.8338 20.4448C26.7248 20.2802 26.5695 20.1515 26.3875 20.075ZM9.91251 8.50001L11.7125 6.7125C11.8482 6.56792 11.9401 6.38788 11.9777 6.19321C12.0153 5.99855 11.9971 5.79722 11.925 5.61251C11.8485 5.4305 11.7198 5.27522 11.5552 5.16622C11.3906 5.05722 11.1974 4.99939 11 5H6C5.73479 5 5.48043 5.10536 5.2929 5.2929C5.10536 5.48043 5 5.73479 5 6V11C4.99939 11.1974 5.05722 11.3906 5.16622 11.5552C5.27522 11.7198 5.4305 11.8485 5.61251 11.925C5.73585 11.974 5.86729 11.9994 6 12C6.26555 11.9989 6.52055 11.896 6.7125 11.7125L8.50001 9.91251L12.2875 13.7125C12.4786 13.8973 12.7341 14.0006 13 14.0006C13.2659 14.0006 13.5214 13.8973 13.7125 13.7125C13.9003 13.5229 14.0056 13.2669 14.0056 13C14.0056 12.7332 13.9003 12.4771 13.7125 12.2875L9.91251 8.50001Z" fill="#344054"/>
</svg>
