<svg width="32" height="32" viewBox="0 0 32 32" fill="none" xmlns="http://www.w3.org/2000/svg">
<path d="M26.7125 22.7125L20.7125 28.7125C20.5205 28.896 20.2655 28.9989 20 29C19.8673 28.9994 19.7358 28.974 19.6125 28.925C19.4305 28.8485 19.2752 28.7198 19.1662 28.5552C19.0572 28.3906 18.9994 28.1974 19 28V23H8C7.73478 23 7.48043 22.8946 7.29289 22.7071C7.10536 22.5196 7 22.2652 7 22V4C7 3.73478 7.10536 3.48043 7.29289 3.29289C7.48043 3.10536 7.73478 3 8 3C8.26522 3 8.51957 3.10536 8.70711 3.29289C8.89464 3.48043 9 3.73478 9 4V21H19V16C18.9994 15.8026 19.0572 15.6094 19.1662 15.4448C19.2752 15.2802 19.4305 15.1515 19.6125 15.075C19.7972 15.003 19.9985 14.9847 20.1932 15.0223C20.3879 15.0599 20.5679 15.1518 20.7125 15.2875L26.7125 21.2875C26.9003 21.4771 27.0056 21.7332 27.0056 22C27.0056 22.2668 26.9003 22.5229 26.7125 22.7125Z" fill="#344054"/>
</svg>
