<svg width="32" height="32" viewBox="0 0 32 32" fill="none" xmlns="http://www.w3.org/2000/svg">
<path d="M16 3C13.4288 3 10.9154 3.76244 8.77759 5.1909C6.63975 6.61935 4.97351 8.64968 3.98957 11.0251C3.00563 13.4006 2.74819 16.0144 3.2498 18.5362C3.75141 21.0579 4.98953 23.3743 6.80762 25.1924C8.6257 27.0105 10.9421 28.2486 13.4638 28.7502C15.9856 29.2518 18.5995 28.9944 20.9749 28.0104C23.3503 27.0265 25.3807 25.3603 26.8091 23.2224C28.2376 21.0846 29 18.5712 29 16C28.9934 12.5542 27.6216 9.25145 25.1851 6.81491C22.7486 4.37837 19.4458 3.00661 16 3ZM20.5 19.5C20.4994 19.6327 20.474 19.7642 20.425 19.8875C20.3214 20.1289 20.1289 20.3213 19.8875 20.425C19.7642 20.474 19.6327 20.4994 19.5 20.5H13.5C13.2348 20.5 12.9804 20.3946 12.7929 20.2071C12.6054 20.0196 12.5 19.7652 12.5 19.5C12.5 19.2348 12.6054 18.9804 12.7929 18.7929C12.9804 18.6054 13.2348 18.5 13.5 18.5H17.0875L11.7875 13.2125C11.628 13.0182 11.5466 12.7715 11.5589 12.5205C11.5712 12.2694 11.6765 12.0319 11.8542 11.8542C12.032 11.6765 12.2694 11.5712 12.5205 11.5589C12.7715 11.5465 13.0182 11.628 13.2125 11.7875L18.5 17.0875V13.5C18.5 13.2348 18.6054 12.9804 18.7929 12.7929C18.9804 12.6054 19.2348 12.5 19.5 12.5C19.7652 12.5 20.0196 12.6054 20.2071 12.7929C20.3946 12.9804 20.5 13.2348 20.5 13.5V19.5Z" fill="#344054"/>
</svg>
