<svg width="32" height="32" viewBox="0 0 32 32" fill="none" xmlns="http://www.w3.org/2000/svg">
<path d="M30.0875 15.225L27 16.7625L23 9.11247L26.125 7.54997C26.3572 7.43159 26.6269 7.40983 26.8751 7.48945C27.1233 7.56906 27.3299 7.74359 27.45 7.97497L30.525 13.8625C30.5874 13.9803 30.6255 14.1095 30.6372 14.2423C30.6489 14.3751 30.634 14.5089 30.5932 14.6359C30.5525 14.7628 30.4867 14.8803 30.3999 14.9815C30.313 15.0827 30.2068 15.1654 30.0875 15.225V15.225Z" stroke="#344054" stroke-width="1.5" stroke-linecap="round" stroke-linejoin="round"/>
<path d="M4.99997 16.6375L1.91247 15.0875C1.79359 15.0292 1.68764 14.9477 1.60092 14.8476C1.51419 14.7476 1.44847 14.6311 1.40766 14.5052C1.36684 14.3793 1.35177 14.2464 1.36333 14.1145C1.3749 13.9826 1.41286 13.8544 1.47497 13.7375L4.54997 7.84999C4.67026 7.61878 4.87607 7.44367 5.12355 7.36195C5.37104 7.28023 5.64065 7.29837 5.87497 7.41249L8.99997 8.97499L4.99997 16.6375Z" stroke="#344054" stroke-width="1.5" stroke-linecap="round" stroke-linejoin="round"/>
<path d="M27 16.7625L25 19.1124L20.4 23.7125C20.2746 23.8297 20.1227 23.9148 19.9573 23.9605C19.7918 24.0062 19.6178 24.0112 19.45 23.975L12.2 22.1625C12.0676 22.1255 11.9442 22.0617 11.8375 21.975L5 16.6375" stroke="#344054" stroke-width="1.5" stroke-linecap="round" stroke-linejoin="round"/>
<path d="M25 19.1126L19.5 15.1126L17.9 16.3126C17.2068 16.8299 16.365 17.1094 15.5 17.1094C14.635 17.1094 13.7932 16.8299 13.1 16.3126L12.425 15.8001C12.3108 15.7133 12.2164 15.6032 12.148 15.4772C12.0796 15.3512 12.0387 15.2121 12.0281 15.0691C12.0174 14.9262 12.0373 14.7825 12.0863 14.6478C12.1353 14.5131 12.2124 14.3903 12.3125 14.2876L17.2125 9.40005C17.3045 9.30846 17.4137 9.23592 17.5339 9.18659C17.654 9.13726 17.7826 9.1121 17.9125 9.11255H23" stroke="#344054" stroke-width="1.5" stroke-linecap="round" stroke-linejoin="round"/>
<path d="M9.07501 8.97502L15.4875 7.10002C15.7154 7.03468 15.959 7.0524 16.175 7.15002L20.5 9.11252" stroke="#344054" stroke-width="1.5" stroke-linecap="round" stroke-linejoin="round"/>
<path d="M14 26.6125L10.2375 25.6625C10.0842 25.6279 9.94221 25.5547 9.825 25.45L7 23" stroke="#344054" stroke-width="1.5" stroke-linecap="round" stroke-linejoin="round"/>
</svg>
