<svg width="32" height="32" viewBox="0 0 32 32" fill="none" xmlns="http://www.w3.org/2000/svg">
<path d="M6.47499 15.2375C6.32726 14.9814 6.13053 14.757 5.89604 14.5769C5.66155 14.3969 5.3939 14.2648 5.10836 14.1882C4.82282 14.1116 4.52498 14.0919 4.23186 14.1304C3.93874 14.1689 3.65607 14.2648 3.39999 14.4125C3.14391 14.5603 2.91944 14.757 2.7394 14.9915C2.55935 15.226 2.42725 15.4936 2.35064 15.7792C2.27403 16.0647 2.25441 16.3625 2.29291 16.6557C2.3314 16.9488 2.42726 17.2314 2.57499 17.4875L7.19999 25.5C8.4057 27.5427 10.3691 29.0268 12.6632 29.6297C14.9573 30.2325 17.3966 29.9054 19.4508 28.7193C21.5049 27.5333 23.0078 25.5843 23.6327 23.2961C24.2575 21.0078 23.9538 18.5655 22.7875 16.5L20.6625 12.8125C20.3458 12.3349 19.8588 11.9961 19.3009 11.8653C18.743 11.7345 18.1562 11.8215 17.6602 12.1086C17.1642 12.3956 16.7964 12.8611 16.632 13.4101C16.4675 13.959 16.5186 14.55 16.775 15.0625" stroke="#344054" stroke-width="1.5" stroke-linecap="round" stroke-linejoin="round"/>
<path d="M13.375 18.1876L8.62502 9.96255C8.47728 9.70648 8.28055 9.482 8.04606 9.30196C7.81158 9.12191 7.54392 8.98981 7.25838 8.9132C6.97284 8.83659 6.67501 8.81697 6.38189 8.85547C6.08876 8.89396 5.80609 8.98982 5.55002 9.13755C5.29394 9.28529 5.06947 9.48202 4.88942 9.71651C4.70937 9.95099 4.57727 10.2187 4.50066 10.5042C4.42406 10.7897 4.40444 11.0876 4.44293 11.3807C4.48143 11.6738 4.57728 11.9565 4.72502 12.2126L9.47502 20.4376" stroke="#344054" stroke-width="1.5" stroke-linecap="round" stroke-linejoin="round"/>
<path d="M18.775 18.5375L13.525 9.43753C13.2266 8.92036 12.735 8.5429 12.1583 8.38818C11.5817 8.23346 10.9672 8.31417 10.45 8.61253C9.93281 8.9109 9.55535 9.4025 9.40063 9.97917C9.24591 10.5558 9.32662 11.1704 9.62499 11.6875" stroke="#344054" stroke-width="1.5" stroke-linecap="round" stroke-linejoin="round"/>
<path d="M12.375 8.46251L11.0875 6.22501C10.7891 5.70784 10.2975 5.33037 9.72085 5.17566C9.14417 5.02094 8.52966 5.10164 8.01249 5.40001C7.49531 5.69838 7.11785 6.18997 6.96313 6.76665C6.80841 7.34332 6.88912 7.95784 7.18749 8.47501L7.48749 8.98751" stroke="#344054" stroke-width="1.5" stroke-linecap="round" stroke-linejoin="round"/>
<path d="M23.5 23.9376C25.0256 22.5561 26.0325 20.6941 26.3531 18.661C26.6738 16.628 26.2889 14.5465 25.2625 12.7626L23.1375 9.08755C22.9898 8.83148 22.7931 8.607 22.5586 8.42696C22.3241 8.24691 22.0564 8.11481 21.7709 8.0382C21.4854 7.96159 21.1875 7.94197 20.8944 7.98047C20.6013 8.01896 20.3186 8.11482 20.0625 8.26255C19.8065 8.41029 19.582 8.60702 19.4019 8.84151C19.2219 9.076 19.0898 9.34365 19.0132 9.62919C18.9366 9.91473 18.917 10.2126 18.9554 10.5057C18.9939 10.7988 19.0898 11.0815 19.2375 11.3376" stroke="#344054" stroke-width="1.5" stroke-linecap="round" stroke-linejoin="round"/>
<path d="M19.525 11.8375L15.9875 5.7125C15.6891 5.19533 15.1975 4.81786 14.6209 4.66314C14.0442 4.50843 13.4297 4.58913 12.9125 4.8875C12.3953 5.18587 12.0179 5.67746 11.8632 6.25414C11.7084 6.83081 11.7891 7.44533 12.0875 7.9625" stroke="#344054" stroke-width="1.5" stroke-linecap="round" stroke-linejoin="round"/>
<path d="M22.1 1.41248L21.5875 3.33748" stroke="#344054" stroke-width="1.5" stroke-linecap="round" stroke-linejoin="round"/>
<path d="M25.8875 3.17499L24.7375 4.81249" stroke="#344054" stroke-width="1.5" stroke-linecap="round" stroke-linejoin="round"/>
<path d="M28.825 6.11249L27.1875 7.26249" stroke="#344054" stroke-width="1.5" stroke-linecap="round" stroke-linejoin="round"/>
</svg>
