<svg width="32" height="32" viewBox="0 0 32 32" fill="none" xmlns="http://www.w3.org/2000/svg">
<path d="M21 15V8.5C21 7.83696 21.2634 7.20107 21.7323 6.73223C22.2011 6.26339 22.837 6 23.5 6C24.1631 6 24.799 6.26339 25.2678 6.73223C25.7366 7.20107 26 7.83696 26 8.5V19C26 20.3132 25.7414 21.6136 25.2388 22.8268C24.7363 24.0401 23.9997 25.1425 23.0711 26.0711C22.1425 26.9997 21.0401 27.7362 19.8269 28.2388C18.6136 28.7413 17.3132 29 16 29C10.475 29 8.00003 26 3.92503 17.4125C3.59351 16.8373 3.50406 16.154 3.67635 15.5128C3.84865 14.8717 4.26859 14.3253 4.84378 13.9937C5.41896 13.6622 6.10229 13.5728 6.74343 13.7451C7.38457 13.9174 7.931 14.3373 8.26253 14.9125L11 19.6625V6.5C11 5.83696 11.2634 5.20107 11.7323 4.73223C12.2011 4.26339 12.837 4 13.5 4C14.1631 4 14.799 4.26339 15.2678 4.73223C15.7366 5.20107 16 5.83696 16 6.5V15" stroke="#344054" stroke-width="1.5" stroke-linecap="round" stroke-linejoin="round"/>
<path d="M21 8.5V4.5C21 3.83696 20.7366 3.20107 20.2678 2.73223C19.7989 2.26339 19.163 2 18.5 2C17.837 2 17.2011 2.26339 16.7322 2.73223C16.2634 3.20107 16 3.83696 16 4.5V6.5" stroke="#344054" stroke-width="1.5" stroke-linecap="round" stroke-linejoin="round"/>
</svg>
