<svg width="32" height="32" viewBox="0 0 32 32" fill="none" xmlns="http://www.w3.org/2000/svg">
<path d="M16 20C18.7614 20 21 17.7614 21 15C21 12.2386 18.7614 10 16 10C13.2386 10 11 12.2386 11 15C11 17.7614 13.2386 20 16 20Z" stroke="#344054" stroke-width="1.5" stroke-linecap="round" stroke-linejoin="round"/>
<path d="M7.97498 24.925C8.72736 23.4431 9.87542 22.1984 11.2919 21.3289C12.7084 20.4595 14.3379 19.9993 16 19.9993C17.662 19.9993 19.2916 20.4595 20.708 21.3289C22.1245 22.1984 23.2726 23.4431 24.025 24.925" stroke="#344054" stroke-width="1.5" stroke-linecap="round" stroke-linejoin="round"/>
<path d="M22 7H28" stroke="#344054" stroke-width="1.5" stroke-linecap="round" stroke-linejoin="round"/>
<path d="M27.3125 12C27.771 13.2836 28.0036 14.637 28 16C28 18.3734 27.2962 20.6935 25.9776 22.6669C24.6591 24.6403 22.7849 26.1783 20.5922 27.0866C18.3995 27.9948 15.9867 28.2325 13.6589 27.7694C11.3312 27.3064 9.19295 26.1635 7.51472 24.4853C5.83649 22.8071 4.6936 20.6689 4.23058 18.3411C3.76756 16.0133 4.0052 13.6005 4.91345 11.4078C5.8217 9.21511 7.35977 7.34096 9.33316 6.02239C11.3066 4.70381 13.6266 4.00002 16 4.00002C16.6322 3.99878 17.2634 4.04895 17.8875 4.15002" stroke="#344054" stroke-width="1.5" stroke-linecap="round" stroke-linejoin="round"/>
</svg>
