<svg width="32" height="32" viewBox="0 0 32 32" fill="none" xmlns="http://www.w3.org/2000/svg">
<path d="M21 14V12.5C21 11.837 20.7366 11.2011 20.2678 10.7322C19.799 10.2634 19.1631 10 18.5 10C17.837 10 17.2011 10.2634 16.7323 10.7322C16.2634 11.2011 16 11.837 16 12.5V4.5C16 3.83696 15.7366 3.20107 15.2678 2.73223C14.799 2.26339 14.1631 2 13.5 2C12.837 2 12.2011 2.26339 11.7323 2.73223C11.2634 3.20107 11 3.83696 11 4.5V19.6625L8.26253 14.9125C7.931 14.3373 7.38457 13.9174 6.74343 13.7451C6.10229 13.5728 5.41896 13.6622 4.84378 13.9937C4.26859 14.3253 3.84865 14.8717 3.67635 15.5128C3.50406 16.154 3.59351 16.8373 3.92503 17.4125C8.00003 26 10.475 29 16 29C17.3132 29 18.6136 28.7413 19.8269 28.2388C21.0401 27.7362 22.1425 26.9997 23.0711 26.0711C23.9997 25.1425 24.7363 24.0401 25.2388 22.8268C25.7414 21.6136 26 20.3132 26 19V14C26 13.337 25.7366 12.7011 25.2678 12.2322C24.799 11.7634 24.1631 11.5 23.5 11.5C22.837 11.5 22.2011 11.7634 21.7323 12.2322C21.2634 12.7011 21 13.337 21 14V14Z" stroke="#344054" stroke-width="1.5" stroke-linecap="round" stroke-linejoin="round"/>
</svg>
