<svg width="32" height="32" viewBox="0 0 32 32" fill="none" xmlns="http://www.w3.org/2000/svg">
<path d="M16 20C18.7614 20 21 17.7614 21 15C21 12.2386 18.7614 10 16 10C13.2386 10 11 12.2386 11 15C11 17.7614 13.2386 20 16 20Z" stroke="#344054" stroke-width="1.5" stroke-linecap="round" stroke-linejoin="round"/>
<path d="M7.97498 24.925C8.72736 23.4431 9.87542 22.1984 11.2919 21.3289C12.7084 20.4595 14.3379 19.9993 16 19.9993C17.662 19.9993 19.2916 20.4595 20.708 21.3289C22.1245 22.1984 23.2726 23.4431 24.025 24.925" stroke="#344054" stroke-width="1.5" stroke-linecap="round" stroke-linejoin="round"/>
<path d="M25 16L28 19L31 16" stroke="#344054" stroke-width="1.5" stroke-linecap="round" stroke-linejoin="round"/>
<path d="M1 16L4 13L7 16" stroke="#344054" stroke-width="1.5" stroke-linecap="round" stroke-linejoin="round"/>
<path d="M28 19V16C28.0028 13.4074 27.1659 10.8835 25.6144 8.80626C24.063 6.72901 21.8806 5.21008 19.3937 4.47684C16.9069 3.7436 14.2495 3.83549 11.8193 4.73876C9.38904 5.64202 7.31671 7.30808 5.91248 9.48754" stroke="#344054" stroke-width="1.5" stroke-linecap="round" stroke-linejoin="round"/>
<path d="M4.00001 13V16C3.99718 18.5927 4.83411 21.1165 6.38554 23.1938C7.93696 25.271 10.1194 26.79 12.6062 27.5232C15.0931 28.2564 17.7505 28.1646 20.1807 27.2613C22.6109 26.358 24.6833 24.692 26.0875 22.5125" stroke="#344054" stroke-width="1.5" stroke-linecap="round" stroke-linejoin="round"/>
</svg>
