<svg width="32" height="32" viewBox="0 0 32 32" fill="none" xmlns="http://www.w3.org/2000/svg">
<path d="M11.9875 7.5C13.3682 7.5 14.4875 6.38071 14.4875 5C14.4875 3.61929 13.3682 2.5 11.9875 2.5C10.6068 2.5 9.48749 3.61929 9.48749 5C9.48749 6.38071 10.6068 7.5 11.9875 7.5Z" stroke="#344054" stroke-width="1.5" stroke-linecap="round" stroke-linejoin="round"/>
<path d="M11.9875 7.5V16.5H22.9875L26.9875 24.5L29.9875 23.5" stroke="#344054" stroke-width="1.5" stroke-linecap="round" stroke-linejoin="round"/>
<path d="M20.975 20.5C20.8775 22.0578 20.3264 23.553 19.3896 24.8014C18.4528 26.0499 17.1713 26.997 15.703 27.5262C14.2346 28.0554 12.6435 28.1434 11.1257 27.7796C9.60785 27.4157 8.22963 26.6158 7.16079 25.4784C6.09195 24.3409 5.37917 22.9157 5.11028 21.3782C4.84138 19.8407 5.02811 18.2582 5.64746 16.8255C6.26681 15.3928 7.29173 14.1726 8.59594 13.3152C9.90016 12.4578 11.4267 12.0006 12.9875 12H19.9875" stroke="#344054" stroke-width="1.5" stroke-linecap="round" stroke-linejoin="round"/>
</svg>
