<svg width="32" height="32" viewBox="0 0 32 32" fill="none" xmlns="http://www.w3.org/2000/svg">
<path d="M11.75 7.67499C11.4511 7.10364 11.3846 6.4389 11.5642 5.81963C11.7439 5.20036 12.1558 4.67445 12.7141 4.35176C13.2724 4.02907 13.9337 3.93456 14.56 4.08796C15.1863 4.24137 15.7291 4.63083 16.075 5.17499L19.825 11.6625" stroke="#344054" stroke-width="1.5" stroke-linecap="round" stroke-linejoin="round"/>
<path d="M8.42499 11.9L6.42499 8.4375C6.12611 7.86615 6.05954 7.20141 6.2392 6.58214C6.41885 5.96287 6.83084 5.43696 7.38909 5.11427C7.94734 4.79158 8.60869 4.69707 9.23498 4.85048C9.86127 5.00388 10.4041 5.39334 10.75 5.9375L15 13.3" stroke="#344054" stroke-width="1.5" stroke-linecap="round" stroke-linejoin="round"/>
<path d="M19.25 20.6625C18.9206 20.0948 18.7065 19.4677 18.62 18.8171C18.5335 18.1665 18.5762 17.5052 18.7458 16.8712C18.9153 16.2371 19.2083 15.6428 19.608 15.1222C20.0077 14.6016 20.5062 14.165 21.075 13.8375L19.825 11.6625C19.4935 11.0873 19.404 10.404 19.5763 9.76285C19.7486 9.12171 20.1686 8.57527 20.7437 8.24375C21.3189 7.91223 22.0023 7.82278 22.6434 7.99508C23.2845 8.16738 23.831 8.58731 24.1625 9.1625L26.6625 13.5C27.9886 15.7974 28.3477 18.5276 27.6608 21.0898C26.974 23.652 25.2974 25.8364 23 27.1625C20.7026 28.4886 17.9724 28.8477 15.4102 28.1608C12.848 27.474 10.6636 25.7974 9.33749 23.5L4.0875 14.4C3.92334 14.1152 3.81689 13.8008 3.77423 13.4749C3.73156 13.149 3.75351 12.8178 3.83882 12.5003C4.01112 11.8592 4.43106 11.3128 5.00625 10.9813C5.58143 10.6497 6.26476 10.5603 6.9059 10.7326C7.54704 10.9049 8.09347 11.3248 8.425 11.9L11.175 16.6625" stroke="#344054" stroke-width="1.5" stroke-linecap="round" stroke-linejoin="round"/>
<path d="M10.1375 30C8.43899 28.8285 7.02507 27.2907 6 25.5" stroke="#344054" stroke-width="1.5" stroke-linecap="round" stroke-linejoin="round"/>
<path d="M22 3.87502C23.141 3.87193 24.2626 4.17101 25.2506 4.74185C26.2386 5.31269 27.0578 6.13494 27.625 7.12502" stroke="#344054" stroke-width="1.5" stroke-linecap="round" stroke-linejoin="round"/>
</svg>
