<svg width="32" height="32" viewBox="0 0 32 32" fill="none" xmlns="http://www.w3.org/2000/svg">
<path d="M28.3125 7.04999L16.3125 3.04999C16.1089 2.98733 15.8911 2.98733 15.6875 3.04999L3.70003 7.04999H3.67503L3.55003 7.11249H3.53753L3.41253 7.18749C3.41253 7.19999 3.40003 7.19999 3.38753 7.21249L3.28753 7.29999L3.20003 7.39999C3.20003 7.41249 3.18753 7.41249 3.18753 7.42499L3.11253 7.53749C3.11253 7.54999 3.11253 7.54999 3.10003 7.56249L3.05003 7.67499L3.01253 7.81249V7.84999C3.0002 7.89897 2.99597 7.94964 3.00003 7.99999V18C3.00003 18.2652 3.10538 18.5196 3.29292 18.7071C3.48046 18.8946 3.73481 19 4.00003 19C4.26524 19 4.5196 18.8946 4.70713 18.7071C4.89467 18.5196 5.00003 18.2652 5.00003 18V9.38749L9.20003 10.7875C8.41098 12.0505 7.99499 13.5108 8.00003 15C8.00049 16.3544 8.34479 17.6865 9.00068 18.8714C9.65657 20.0564 10.6026 21.0555 11.75 21.775C9.36553 22.677 7.32985 24.3143 5.93753 26.45C5.79561 26.6744 5.74753 26.9456 5.80364 27.2051C5.85976 27.4646 6.01557 27.6917 6.23753 27.8375C6.34645 27.9097 6.4686 27.9595 6.59692 27.9841C6.72524 28.0087 6.85717 28.0076 6.98507 27.9809C7.11296 27.9541 7.23427 27.9023 7.34198 27.8283C7.44969 27.7544 7.54165 27.6597 7.61253 27.55C8.52019 26.1519 9.76295 25.0028 11.2278 24.2073C12.6926 23.4118 14.3331 22.9952 16 22.9952C17.6669 22.9952 19.3074 23.4118 20.7723 24.2073C22.2371 25.0028 23.4799 26.1519 24.3875 27.55C24.4788 27.6886 24.6032 27.8023 24.7494 27.8809C24.8956 27.9594 25.059 28.0004 25.225 28C25.4166 28.002 25.6042 27.9453 25.7625 27.8375C25.9845 27.6917 26.1403 27.4646 26.1964 27.2051C26.2525 26.9456 26.2044 26.6744 26.0625 26.45C24.6702 24.3143 22.6345 22.677 20.25 21.775C21.3975 21.0555 22.3435 20.0564 22.9994 18.8714C23.6553 17.6865 23.9996 16.3544 24 15C24.0051 13.5108 23.5891 12.0505 22.8 10.7875L28.3125 8.94999C28.5126 8.88423 28.6868 8.75698 28.8103 8.58639C28.9338 8.41581 29.0003 8.21058 29.0003 7.99999C29.0003 7.78939 28.9338 7.58417 28.8103 7.41358C28.6868 7.24299 28.5126 7.11575 28.3125 7.04999ZM16 21C14.4087 21 12.8826 20.3678 11.7574 19.2426C10.6322 18.1174 10 16.5913 10 15C10.0024 13.7197 10.4093 12.4728 11.1625 11.4375L15.6875 12.95C15.8905 13.0168 16.1095 13.0168 16.3125 12.95L20.8375 11.4375C21.5908 12.4728 21.9976 13.7197 22 15C22 16.5913 21.3679 18.1174 20.2427 19.2426C19.1175 20.3678 17.5913 21 16 21Z" fill="#344054"/>
</svg>
