<svg width="32" height="32" viewBox="0 0 32 32" fill="none" xmlns="http://www.w3.org/2000/svg">
<path d="M27 5H5C4.46957 5 3.96086 5.21071 3.58579 5.58579C3.21071 5.96086 3 6.46957 3 7V25C3 25.5304 3.21071 26.0391 3.58579 26.4142C3.96086 26.7893 4.46957 27 5 27H6.675C6.86436 27.0005 7.04987 26.9466 7.20944 26.8447C7.36901 26.7427 7.4959 26.597 7.575 26.425C8.06429 25.401 8.83339 24.5364 9.7934 23.9312C10.7534 23.3259 11.8651 23.0047 13 23.0047C14.1349 23.0047 15.2466 23.3259 16.2066 23.9312C17.1666 24.5364 17.9357 25.401 18.425 26.425C18.5041 26.597 18.631 26.7427 18.7906 26.8447C18.9501 26.9466 19.1356 27.0005 19.325 27H27C27.5304 27 28.0391 26.7893 28.4142 26.4142C28.7893 26.0391 29 25.5304 29 25V7C29 6.46957 28.7893 5.96086 28.4142 5.58579C28.0391 5.21071 27.5304 5 27 5ZM13 21C12.2089 21 11.4355 20.7654 10.7777 20.3259C10.1199 19.8864 9.60723 19.2616 9.30448 18.5307C9.00173 17.7998 8.92252 16.9956 9.07686 16.2196C9.2312 15.4437 9.61216 14.731 10.1716 14.1716C10.731 13.6122 11.4437 13.2312 12.2196 13.0769C12.9956 12.9225 13.7998 13.0017 14.5307 13.3045C15.2616 13.6072 15.8864 14.1199 16.3259 14.7777C16.7654 15.4355 17 16.2089 17 17C16.9967 18.0599 16.5742 19.0754 15.8248 19.8248C15.0754 20.5742 14.0599 20.9967 13 21ZM27 25H19.925C19.4917 24.2486 18.9386 23.573 18.2875 23H24C24.2652 23 24.5196 22.8946 24.7071 22.7071C24.8946 22.5196 25 22.2652 25 22V10C25 9.73478 24.8946 9.48043 24.7071 9.29289C24.5196 9.10536 24.2652 9 24 9H8C7.73478 9 7.48043 9.10536 7.29289 9.29289C7.10536 9.48043 7 9.73478 7 10V22C7.00127 22.2207 7.07552 22.4348 7.21118 22.6089C7.34684 22.783 7.53629 22.9073 7.75 22.9625C7.08311 23.5446 6.51714 24.2331 6.075 25H5V7H27V25Z" fill="#344054"/>
</svg>
