<svg width="32" height="32" viewBox="0 0 32 32" fill="none" xmlns="http://www.w3.org/2000/svg">
<path d="M29.2 24.45L24.025 5.125C23.8874 4.61284 23.5519 4.17633 23.0925 3.91144C22.633 3.64656 22.0872 3.575 21.575 3.7125L17.7125 4.75L17.5875 4.7875C17.4012 4.54309 17.161 4.3449 16.8857 4.20833C16.6104 4.07176 16.3073 4.00047 16 4H12C11.6481 4.00095 11.3029 4.09589 11 4.275C10.6971 4.09589 10.3519 4.00095 10 4H6C5.46957 4 4.96086 4.21071 4.58579 4.58579C4.21071 4.96086 4 5.46957 4 6V26C4 26.5304 4.21071 27.0391 4.58579 27.4142C4.96086 27.7893 5.46957 28 6 28H10C10.3519 27.9991 10.6971 27.9041 11 27.725C11.3029 27.9041 11.6481 27.9991 12 28H16C16.5304 28 17.0391 27.7893 17.4142 27.4142C17.7893 27.0391 18 26.5304 18 26V13.55L21.475 26.5125C21.5882 26.9397 21.8398 27.3173 22.1903 27.5864C22.5408 27.8555 22.9706 28.0009 23.4125 28C23.585 27.997 23.7568 27.9761 23.925 27.9375L27.7875 26.9C28.2997 26.7624 28.7362 26.4269 29.0011 25.9675C29.2659 25.508 29.3375 24.9622 29.2 24.45ZM22.0875 5.65L22.875 8.5375L19.0125 9.575L18.225 6.6875L22.0875 5.65ZM16 6V21H12V6H16ZM10 6V9H6V6H10ZM16 26H12V23H16V26ZM27.275 24.9625L23.4125 26L22.625 23.1L26.5 22.0625L27.275 24.9625Z" fill="#344054"/>
</svg>
