<svg width="32" height="32" viewBox="0 0 32 32" fill="none" xmlns="http://www.w3.org/2000/svg">
<path d="M24 3H12C11.4696 3 10.9609 3.21071 10.5858 3.58579C10.2107 3.96086 10 4.46957 10 5V7H8C7.46957 7 6.96086 7.21071 6.58579 7.58579C6.21071 7.96086 6 8.46957 6 9V28C6 28.2652 6.10536 28.5196 6.29289 28.7071C6.48043 28.8946 6.73478 29 7 29C7.21044 28.9993 7.41556 28.9338 7.5875 28.8125L14 24.225L20.425 28.8125C20.5732 28.9217 20.7493 28.9866 20.9329 28.9999C21.1165 29.0132 21.3001 28.9742 21.4625 28.8875C21.6238 28.8018 21.7589 28.6741 21.8536 28.5178C21.9482 28.3616 21.9988 28.1827 22 28V23.0875L24.425 24.8125C24.5915 24.9352 24.7932 25.0009 25 25C25.2652 25 25.5196 24.8946 25.7071 24.7071C25.8946 24.5196 26 24.2652 26 24V5C26 4.46957 25.7893 3.96086 25.4142 3.58579C25.0391 3.21071 24.5304 3 24 3ZM24 22.0625L22 20.625V9C22 8.46957 21.7893 7.96086 21.4142 7.58579C21.0391 7.21071 20.5304 7 20 7H12V5H24V22.0625Z" fill="#344054"/>
</svg>
