<svg width="32" height="32" viewBox="0 0 32 32" fill="none" xmlns="http://www.w3.org/2000/svg">
<path d="M22.5 26.2C23.1927 25.897 23.8612 25.5418 24.5 25.1375V30C24.5 30.2652 24.3947 30.5196 24.2071 30.7071C24.0196 30.8947 23.7653 31 23.5 31C23.2348 31 22.9805 30.8947 22.7929 30.7071C22.6054 30.5196 22.5 30.2652 22.5 30V26.2ZM15.1125 11.525C14.9914 11.7613 14.9667 12.0354 15.0437 12.2896C15.1206 12.5437 15.2932 12.7581 15.525 12.8875L21.375 16L23.5 14.8625L16.475 11.1125C16.2387 10.9914 15.9646 10.9667 15.7105 11.0437C15.4564 11.1206 15.242 11.2932 15.1125 11.525ZM31.475 11.1125L16.475 3.11252C16.3275 3.0388 16.1649 3.00043 16 3.00043C15.8352 3.00043 15.6725 3.0388 15.525 3.11252L0.525038 11.1125C0.366023 11.1998 0.233388 11.3283 0.141003 11.4844C0.0486186 11.6405 -0.00012207 11.8186 -0.00012207 12C-0.00012207 12.1814 0.0486186 12.3595 0.141003 12.5156C0.233388 12.6718 0.366023 12.8002 0.525038 12.8875L3.50004 14.4625V20.6875C3.49816 21.1167 3.63885 21.5344 3.90004 21.875C4.88754 23.2 8.68754 27.5 16 27.5C18.2343 27.5187 20.448 27.0717 22.5 26.1875V16.6L21.375 16L16 18.8625L4.97504 12.9875L3.12504 12L16 5.13752L28.875 12L27.025 12.9875L23.5 14.8625L23.975 15.1125C24.1441 15.2101 24.2827 15.353 24.375 15.525C24.4582 15.6694 24.5013 15.8334 24.5 16V25.1375C25.8813 24.2685 27.0997 23.1644 28.1 21.875C28.3612 21.5344 28.5019 21.1167 28.5 20.6875V14.4625L31.475 12.8875C31.6341 12.8002 31.7667 12.6718 31.8591 12.5156C31.9515 12.3595 32.0002 12.1814 32.0002 12C32.0002 11.8186 31.9515 11.6405 31.8591 11.4844C31.7667 11.3283 31.6341 11.1998 31.475 11.1125Z" fill="#344054"/>
</svg>
