<svg width="32" height="32" viewBox="0 0 32 32" fill="none" xmlns="http://www.w3.org/2000/svg">
<path d="M20 7H8C7.46957 7 6.96086 7.21071 6.58579 7.58579C6.21071 7.96086 6 8.46957 6 9V28C6.0012 28.1827 6.0518 28.3616 6.14643 28.5178C6.24105 28.6741 6.37618 28.8018 6.5375 28.8875C6.68102 28.9599 6.83925 28.9984 7 29C7.21044 28.9993 7.41556 28.9338 7.5875 28.8125L14 24.225L20.425 28.8125C20.5732 28.9217 20.7493 28.9866 20.9329 28.9999C21.1165 29.0132 21.3001 28.9742 21.4625 28.8875C21.6238 28.8018 21.7589 28.6741 21.8536 28.5178C21.9482 28.3616 21.9988 28.1827 22 28V9C22 8.46957 21.7893 7.96086 21.4142 7.58579C21.0391 7.21071 20.5304 7 20 7Z" fill="#344054"/>
<path d="M24 3H11C10.7348 3 10.4804 3.10536 10.2929 3.29289C10.1054 3.48043 10 3.73478 10 4C10 4.26522 10.1054 4.51957 10.2929 4.70711C10.4804 4.89464 10.7348 5 11 5H24V24C24 24.2652 24.1054 24.5196 24.2929 24.7071C24.4804 24.8946 24.7348 25 25 25C25.2652 25 25.5196 24.8946 25.7071 24.7071C25.8946 24.5196 26 24.2652 26 24V5C26 4.46957 25.7893 3.96086 25.4142 3.58579C25.0391 3.21071 24.5304 3 24 3Z" fill="#344054"/>
</svg>
