<svg width="32" height="32" viewBox="0 0 32 32" fill="none" xmlns="http://www.w3.org/2000/svg">
<path d="M16 13V18" stroke="#344054" stroke-width="1.5" stroke-linecap="round" stroke-linejoin="round"/>
<path d="M14.275 5.00001L3.27498 24C3.09973 24.3035 3.00733 24.6478 3.00702 24.9983C3.00671 25.3487 3.0985 25.6931 3.27321 25.997C3.44791 26.3008 3.69939 26.5534 4.00244 26.7294C4.3055 26.9055 4.6495 26.9988 4.99998 27H27C27.3505 26.9988 27.6944 26.9055 27.9975 26.7294C28.3006 26.5534 28.552 26.3008 28.7267 25.997C28.9014 25.6931 28.9932 25.3487 28.9929 24.9983C28.9926 24.6478 28.9002 24.3035 28.725 24L17.725 5.00001C17.5511 4.6961 17.2999 4.44353 16.997 4.26787C16.6941 4.09221 16.3501 3.99969 16 3.99969C15.6498 3.99969 15.3059 4.09221 15.0029 4.26787C14.7 4.44353 14.4489 4.6961 14.275 5.00001V5.00001Z" stroke="#344054" stroke-width="1.5" stroke-linecap="round" stroke-linejoin="round"/>
<path d="M16 23.75C16.6904 23.75 17.25 23.1904 17.25 22.5C17.25 21.8096 16.6904 21.25 16 21.25C15.3096 21.25 14.75 21.8096 14.75 22.5C14.75 23.1904 15.3096 23.75 16 23.75Z" fill="#344054"/>
</svg>
