<svg width="32" height="32" viewBox="0 0 32 32" fill="none" xmlns="http://www.w3.org/2000/svg">
<path d="M22 16C22.0031 19.9094 21.2431 23.7818 19.7625 27.4" stroke="#344054" stroke-width="1.5" stroke-linecap="round" stroke-linejoin="round"/>
<path d="M20.475 12C19.6651 11.0932 18.5989 10.4538 17.4175 10.1666C16.2361 9.87938 14.9954 9.95782 13.8596 10.3915C12.7238 10.8253 11.7465 11.5938 11.0573 12.5953C10.3681 13.5969 9.99935 14.7842 10 16C10.0074 19.0488 9.23276 22.0485 7.75 24.7125" stroke="#344054" stroke-width="1.5" stroke-linecap="round" stroke-linejoin="round"/>
<path d="M12 4.68754C13.2836 4.22907 14.637 3.99646 16 4.00004C19.1826 4.00004 22.2348 5.26432 24.4853 7.51476C26.7357 9.7652 28 12.8174 28 16C27.9987 18.6912 27.7011 21.374 27.1125 24" stroke="#344054" stroke-width="1.5" stroke-linecap="round" stroke-linejoin="round"/>
<path d="M2.91251 21C3.63214 19.4315 4.00317 17.7257 4.00001 16C3.99859 14.3124 4.35427 12.6436 5.04366 11.1032C5.73306 9.56287 6.74057 8.1858 8.00001 7.0625" stroke="#344054" stroke-width="1.5" stroke-linecap="round" stroke-linejoin="round"/>
<path d="M13.825 26C13.5625 26.55 13.3 27.1 13 27.625" stroke="#344054" stroke-width="1.5" stroke-linecap="round" stroke-linejoin="round"/>
<path d="M16 16C16.0031 18.0244 15.7469 20.0408 15.2375 22" stroke="#344054" stroke-width="1.5" stroke-linecap="round" stroke-linejoin="round"/>
</svg>
