<svg width="32" height="32" viewBox="0 0 32 32" fill="none" xmlns="http://www.w3.org/2000/svg">
<path d="M31 26C31 26.2652 30.8946 26.5196 30.7071 26.7071C30.5196 26.8946 30.2652 27 30 27H2C1.73478 27 1.48043 26.8946 1.29289 26.7071C1.10536 26.5196 1 26.2652 1 26C1 25.7348 1.10536 25.4804 1.29289 25.2929C1.48043 25.1053 1.73478 25 2 25H30C30.2652 25 30.5196 25.1053 30.7071 25.2929C30.8946 25.4804 31 25.7348 31 26ZM2.0375 12.275C1.97791 12.0654 1.98839 11.8421 2.06736 11.639C2.14634 11.436 2.28947 11.2642 2.475 11.15L15.475 3.14999C15.6323 3.05125 15.8143 2.99887 16 2.99887C16.1857 2.99887 16.3677 3.05125 16.525 3.14999L29.525 11.15C29.7097 11.2645 29.8521 11.436 29.9306 11.6386C30.0092 11.8412 30.0196 12.0639 29.9602 12.273C29.9009 12.4821 29.7751 12.6661 29.6018 12.7973C29.4286 12.9284 29.2173 12.9996 29 13H26V21H28C28.2652 21 28.5196 21.1053 28.7071 21.2929C28.8946 21.4804 29 21.7348 29 22C29 22.2652 28.8946 22.5196 28.7071 22.7071C28.5196 22.8946 28.2652 23 28 23H4C3.73478 23 3.48043 22.8946 3.29289 22.7071C3.10536 22.5196 3 22.2652 3 22C3 21.7348 3.10536 21.4804 3.29289 21.2929C3.48043 21.1053 3.73478 21 4 21H6V13H3C2.78256 13.0002 2.57097 12.9296 2.39729 12.7987C2.2236 12.6679 2.0973 12.484 2.0375 12.275ZM18 20C18 20.2652 18.1054 20.5196 18.2929 20.7071C18.4804 20.8946 18.7348 21 19 21C19.2652 21 19.5196 20.8946 19.7071 20.7071C19.8946 20.5196 20 20.2652 20 20V14C20 13.7348 19.8946 13.4804 19.7071 13.2929C19.5196 13.1053 19.2652 13 19 13C18.7348 13 18.4804 13.1053 18.2929 13.2929C18.1054 13.4804 18 13.7348 18 14V20ZM12 20C12 20.2652 12.1054 20.5196 12.2929 20.7071C12.4804 20.8946 12.7348 21 13 21C13.2652 21 13.5196 20.8946 13.7071 20.7071C13.8946 20.5196 14 20.2652 14 20V14C14 13.7348 13.8946 13.4804 13.7071 13.2929C13.5196 13.1053 13.2652 13 13 13C12.7348 13 12.4804 13.1053 12.2929 13.2929C12.1054 13.4804 12 13.7348 12 14V20Z" fill="#344054"/>
</svg>
