<svg width="32" height="32" viewBox="0 0 32 32" fill="none" xmlns="http://www.w3.org/2000/svg">
<path d="M8.99997 26C8.79648 25.9984 8.59819 25.9355 8.43096 25.8196C8.26373 25.7036 8.13532 25.54 8.06247 25.35L2.06247 9.34997C2.01651 9.22686 1.99524 9.09589 1.99989 8.96456C2.00454 8.83323 2.03502 8.7041 2.08957 8.58455C2.19975 8.34309 2.40133 8.1553 2.64997 8.06247C2.89861 7.96965 3.17394 7.97939 3.4154 8.08957C3.65685 8.19975 3.84464 8.40133 3.93747 8.64997L8.99997 22.15L14.0625 8.64997C14.1353 8.45996 14.2637 8.29632 14.431 8.18037C14.5982 8.06442 14.7965 8.00156 15 7.99997H29C29.2652 7.99997 29.5195 8.10533 29.7071 8.29286C29.8946 8.4804 30 8.73475 30 8.99997V12C30 12.2652 29.8946 12.5195 29.7071 12.7071C29.5195 12.8946 29.2652 13 29 13C28.7348 13 28.4804 12.8946 28.2929 12.7071C28.1053 12.5195 28 12.2652 28 12V9.99997H15.6875L9.93747 25.35C9.86462 25.54 9.73621 25.7036 9.56898 25.8196C9.40175 25.9355 9.20346 25.9984 8.99997 26Z" fill="#344054"/>
</svg>
