<svg width="32" height="32" viewBox="0 0 32 32" fill="none" xmlns="http://www.w3.org/2000/svg">
<path d="M25.7125 7.7125L7.7125 25.7125C7.52136 25.8973 7.26588 26.0006 7 26.0006C6.73412 26.0006 6.47864 25.8973 6.2875 25.7125C6.09972 25.5229 5.99437 25.2668 5.99437 25C5.99437 24.7331 6.09972 24.4771 6.2875 24.2875L24.2875 6.2875C24.4818 6.12803 24.7285 6.04654 24.9795 6.05887C25.2306 6.0712 25.4681 6.17647 25.6458 6.35421C25.8235 6.53194 25.9288 6.76943 25.9411 7.02049C25.9535 7.27154 25.872 7.5182 25.7125 7.7125ZM6.3125 12.6875C5.47131 11.8399 4.99927 10.6942 4.99927 9.5C4.99927 8.30584 5.47131 7.16009 6.3125 6.3125C7.16009 5.47131 8.30584 4.99927 9.5 4.99927C10.6942 4.99927 11.8399 5.47131 12.6875 6.3125C13.4703 7.17015 13.8923 8.29654 13.8658 9.45741C13.8393 10.6183 13.3664 11.7242 12.5453 12.5453C11.7242 13.3664 10.6183 13.8393 9.45741 13.8658C8.29654 13.8923 7.17015 13.4703 6.3125 12.6875ZM7 9.5C6.99931 9.82809 7.0642 10.153 7.19085 10.4557C7.3175 10.7584 7.50335 11.0327 7.7375 11.2625C7.96861 11.4946 8.24328 11.6787 8.54574 11.8043C8.84819 11.93 9.17248 11.9946 9.5 11.9946C9.82751 11.9946 10.1518 11.93 10.4543 11.8043C10.7567 11.6787 11.0314 11.4946 11.2625 11.2625C11.4961 11.0322 11.6815 10.7578 11.8081 10.4553C11.9347 10.1527 11.9999 9.82798 11.9999 9.5C11.9999 9.17201 11.9347 8.8473 11.8081 8.54473C11.6815 8.24215 11.4961 7.96776 11.2625 7.7375C11.0322 7.50393 10.7578 7.31846 10.4553 7.19187C10.1527 7.06528 9.82798 7.00009 9.5 7.00009C9.17201 7.00009 8.8473 7.06528 8.54473 7.19187C8.24215 7.31846 7.96776 7.50393 7.7375 7.7375C7.50335 7.96733 7.3175 8.24164 7.19085 8.54431C7.0642 8.84697 6.99931 9.1719 7 9.5ZM27 22.5C26.9982 23.2392 26.8143 23.9666 26.4645 24.6179C26.1148 25.2692 25.61 25.8242 24.9948 26.2341C24.3796 26.6439 23.6729 26.8958 22.9371 26.9677C22.2014 27.0395 21.4593 26.9289 20.7764 26.6458C20.0936 26.3626 19.491 25.9156 19.0219 25.3443C18.5529 24.7729 18.2318 24.0948 18.0871 23.3699C17.9424 22.645 17.9785 21.8955 18.1922 21.1879C18.4059 20.4802 18.7907 19.8361 19.3125 19.3125C20.1601 18.4713 21.3058 17.9993 22.5 17.9993C23.6942 17.9993 24.8399 18.4713 25.6875 19.3125C26.1056 19.7311 26.4368 20.2282 26.662 20.7752C26.8873 21.3222 27.0021 21.9084 27 22.5ZM25 22.5C25.0007 22.1719 24.9358 21.847 24.8091 21.5443C24.6825 21.2416 24.4966 20.9673 24.2625 20.7375C24.0322 20.5039 23.7578 20.3185 23.4553 20.1919C23.1527 20.0653 22.828 20.0001 22.5 20.0001C22.172 20.0001 21.8473 20.0653 21.5447 20.1919C21.2422 20.3185 20.9678 20.5039 20.7375 20.7375C20.4522 21.0281 20.2426 21.3843 20.1271 21.7749C20.0117 22.1654 19.9939 22.5784 20.0753 22.9774C20.1567 23.3765 20.3349 23.7494 20.5941 24.0635C20.8533 24.3776 21.1857 24.6232 21.5621 24.7789C21.9384 24.9345 22.3472 24.9953 22.7526 24.956C23.158 24.9167 23.5475 24.7785 23.8869 24.5535C24.2264 24.3285 24.5054 24.0236 24.6995 23.6655C24.8935 23.3075 24.9967 22.9072 25 22.5Z" fill="#344054"/>
</svg>
