<svg width="32" height="32" viewBox="0 0 32 32" fill="none" xmlns="http://www.w3.org/2000/svg">
<path d="M24 11C24 9.41775 23.5308 7.87103 22.6518 6.55544C21.7727 5.23985 20.5233 4.21447 19.0615 3.60897C17.5997 3.00347 15.9911 2.84504 14.4393 3.15372C12.8874 3.4624 11.462 4.22433 10.3431 5.34315C9.22433 6.46197 8.4624 7.88743 8.15372 9.43928C7.84504 10.9911 8.00347 12.5997 8.60897 14.0615C9.21447 15.5233 10.2398 16.7727 11.5554 17.6518C12.871 18.5308 14.4178 19 16 19C16.8226 18.9983 17.6403 18.8719 18.425 18.625L13.1125 27.4875C13.0442 27.5999 12.9988 27.7247 12.9788 27.8547C12.9588 27.9846 12.9647 28.1173 12.996 28.245C13.0274 28.3727 13.0836 28.493 13.1615 28.599C13.2394 28.7049 13.3374 28.7945 13.45 28.8625C13.6069 28.9499 13.7829 28.9972 13.9625 29C14.1362 29.0007 14.3071 28.9561 14.4584 28.8706C14.6096 28.7851 14.736 28.6617 14.825 28.5125L22.9125 15.0125C23.625 13.7954 24.0004 12.4104 24 11ZM10 11C10 9.81332 10.3519 8.65328 11.0112 7.66658C11.6705 6.67989 12.6075 5.91085 13.7039 5.45673C14.8003 5.0026 16.0067 4.88378 17.1705 5.11529C18.3344 5.3468 19.4035 5.91825 20.2426 6.75736C21.0818 7.59648 21.6532 8.66558 21.8847 9.82946C22.1162 10.9933 21.9974 12.1997 21.5433 13.2961C21.0892 14.3925 20.3201 15.3295 19.3334 15.9888C18.3467 16.6481 17.1867 17 16 17C14.4087 17 12.8826 16.3679 11.7574 15.2426C10.6321 14.1174 10 12.5913 10 11Z" fill="#344054"/>
</svg>
