<svg width="32" height="32" viewBox="0 0 32 32" fill="none" xmlns="http://www.w3.org/2000/svg">
<path d="M26 5C26 5.26522 25.8946 5.51957 25.7071 5.70711C25.5196 5.89465 25.2652 6 25 6H21.3375C20.6353 6.00034 19.9555 6.24697 19.4165 6.69694C18.8774 7.1469 18.5133 7.7717 18.3875 8.4625L17.2 15H23C23.2652 15 23.5196 15.1054 23.7071 15.2929C23.8946 15.4804 24 15.7348 24 16C24 16.2652 23.8946 16.5196 23.7071 16.7071C23.5196 16.8946 23.2652 17 23 17H16.8375L15.575 23.9C15.3669 25.051 14.7609 26.0922 13.8629 26.8416C12.9649 27.5911 11.8321 28.0011 10.6625 28H7C6.73478 28 6.48043 27.8946 6.29289 27.7071C6.10536 27.5196 6 27.2652 6 27C6 26.7348 6.10536 26.4804 6.29289 26.2929C6.48043 26.1054 6.73478 26 7 26H10.6625C11.3647 25.9997 12.0445 25.753 12.5835 25.3031C13.1226 24.8531 13.4867 24.2283 13.6125 23.5375L14.8 17H9C8.73478 17 8.48043 16.8946 8.29289 16.7071C8.10536 16.5196 8 16.2652 8 16C8 15.7348 8.10536 15.4804 8.29289 15.2929C8.48043 15.1054 8.73478 15 9 15H15.1625L16.425 8.1C16.6331 6.94904 17.2391 5.90784 18.1371 5.15839C19.0351 4.40894 20.1679 3.99892 21.3375 4H25C25.2652 4 25.5196 4.10536 25.7071 4.2929C25.8946 4.48043 26 4.73479 26 5Z" fill="#344054"/>
</svg>
