<svg width="32" height="32" viewBox="0 0 32 32" fill="none" xmlns="http://www.w3.org/2000/svg">
<path d="M16 3C13.4288 3 10.9154 3.76244 8.77759 5.1909C6.63975 6.61935 4.97351 8.64968 3.98957 11.0251C3.00563 13.4006 2.74819 16.0144 3.2498 18.5362C3.75141 21.0579 4.98953 23.3743 6.80762 25.1924C8.6257 27.0105 10.9421 28.2486 13.4638 28.7502C15.9856 29.2518 18.5995 28.9944 20.9749 28.0104C23.3503 27.0265 25.3807 25.3603 26.8091 23.2224C28.2376 21.0846 29 18.5712 29 16C28.9934 12.5542 27.6216 9.25145 25.1851 6.81491C22.7486 4.37837 19.4458 3.00661 16 3ZM19.5 22C19.5 22.2652 19.3946 22.5196 19.2071 22.7071C19.0196 22.8946 18.7652 23 18.5 23C18.2348 23 17.9804 22.8946 17.7929 22.7071C17.6054 22.5196 17.5 22.2652 17.5 22V19H12.5C12.3405 18.9991 12.1835 18.96 12.0422 18.8861C11.9008 18.8122 11.7792 18.7055 11.6875 18.575C11.5941 18.4445 11.5339 18.2932 11.5121 18.1342C11.4903 17.9752 11.5076 17.8133 11.5625 17.6625L14.5625 9.1625C14.667 8.93481 14.8532 8.75466 15.0843 8.6577C15.3153 8.56073 15.5743 8.55402 15.81 8.63888C16.0457 8.72374 16.241 8.894 16.3572 9.11596C16.4734 9.33793 16.5021 9.59542 16.4375 9.8375L13.9125 17H17.5V14C17.5 13.7348 17.6054 13.4804 17.7929 13.2929C17.9804 13.1054 18.2348 13 18.5 13C18.7652 13 19.0196 13.1054 19.2071 13.2929C19.3946 13.4804 19.5 13.7348 19.5 14V22Z" fill="#344054"/>
</svg>
