<svg width="32" height="32" viewBox="0 0 32 32" fill="none" xmlns="http://www.w3.org/2000/svg">
<path d="M23 21C22.9998 22.5813 22.5309 24.1271 21.6526 25.4421C20.7743 26.7571 19.526 27.7823 18.0654 28.3882C16.6048 28.9941 14.9973 29.1536 13.4461 28.8464C11.8949 28.5393 10.4695 27.7793 9.35 26.6625C9.16103 26.4752 9.05421 26.2205 9.05304 25.9544C9.05187 25.6884 9.15644 25.4327 9.34375 25.2437C9.53106 25.0548 9.78576 24.948 10.0518 24.9468C10.3179 24.9456 10.5735 25.0502 10.7625 25.2375C11.4601 25.9298 12.3175 26.4397 13.2588 26.7222C14.2001 27.0048 15.1966 27.0512 16.1601 26.8575C17.1237 26.6638 18.0247 26.2359 18.7838 25.6115C19.5428 24.9871 20.1364 24.1855 20.5123 23.2774C20.8882 22.3693 21.0348 21.3826 20.9391 20.4044C20.8434 19.4263 20.5083 18.4867 19.9636 17.6687C19.4188 16.8506 18.681 16.1793 17.8154 15.7139C16.9497 15.2485 15.9828 15.0033 15 15C14.8173 14.9988 14.6384 14.9482 14.4822 14.8536C14.3259 14.7589 14.1982 14.6238 14.1125 14.4625C14.0258 14.3001 13.9868 14.1165 14.0001 13.9329C14.0134 13.7493 14.0783 13.5732 14.1875 13.425L20.075 5H10C9.73478 5 9.48043 4.89464 9.29289 4.70711C9.10536 4.51957 9 4.26522 9 4C9 3.73478 9.10536 3.48043 9.29289 3.29289C9.48043 3.10536 9.73478 3 10 3H22C22.1827 3.0012 22.3616 3.0518 22.5178 3.14643C22.6741 3.24105 22.8018 3.37618 22.8875 3.5375C22.9742 3.69988 23.0132 3.88349 22.9999 4.06709C22.9866 4.25069 22.9217 4.42678 22.8125 4.575L16.7875 13.2C18.5521 13.6068 20.1268 14.5993 21.255 16.0158C22.3832 17.4323 22.9983 19.1891 23 21Z" fill="#344054"/>
</svg>
