<svg width="32" height="32" viewBox="0 0 32 32" fill="none" xmlns="http://www.w3.org/2000/svg">
<path d="M20.65 15.3375C21.3945 16.0806 21.9853 16.9632 22.3883 17.9348C22.7913 18.9065 22.9988 19.9481 22.9988 21C22.9988 22.0519 22.7913 23.0935 22.3883 24.0652C21.9853 25.0368 21.3945 25.9194 20.65 26.6625C19.1401 28.1586 17.1006 28.998 14.975 28.998C12.8494 28.998 10.8098 28.1586 9.29999 26.6625C9.19892 26.5724 9.11721 26.4627 9.0598 26.3401C9.00239 26.2175 8.97048 26.0845 8.966 25.9491C8.96152 25.8138 8.98458 25.679 9.03376 25.5528C9.08294 25.4267 9.15723 25.3118 9.25212 25.2153C9.34701 25.1187 9.46052 25.0424 9.58578 24.991C9.71104 24.9395 9.84544 24.9141 9.98082 24.9162C10.1162 24.9183 10.2498 24.9478 10.3734 25.0031C10.497 25.0583 10.6081 25.1381 10.7 25.2375C11.8338 26.3665 13.3687 27.0003 14.9687 27.0003C16.5688 27.0003 18.1037 26.3665 19.2375 25.2375C20.076 24.3969 20.6463 23.3265 20.8762 22.1616C21.1061 20.9967 20.9852 19.7898 20.5288 18.6937C20.0724 17.5976 19.3011 16.6616 18.3124 16.004C17.3238 15.3465 16.1623 14.9971 14.975 15C14.1816 14.9985 13.3956 15.1533 12.6621 15.4558C11.9285 15.7582 11.2618 16.2022 10.7 16.7625C10.5496 16.9102 10.3563 17.0066 10.1478 17.0379C9.93927 17.0692 9.72622 17.0338 9.53905 16.9367C9.35188 16.8397 9.20017 16.686 9.10561 16.4975C9.01104 16.3091 8.97845 16.0956 9.01249 15.8875L10.975 3.83751C11.0111 3.60238 11.1309 3.38819 11.3123 3.23432C11.4937 3.08045 11.7246 2.99725 11.9625 3.00001H22C22.2652 3.00001 22.5196 3.10536 22.7071 3.2929C22.8946 3.48043 23 3.73479 23 4.00001C23 4.26522 22.8946 4.51958 22.7071 4.70711C22.5196 4.89465 22.2652 5.00001 22 5.00001H12.8125L11.375 13.85C12.4905 13.2849 13.7245 12.9935 14.975 13C17.1011 12.9992 19.1412 13.8395 20.65 15.3375Z" fill="#344054"/>
</svg>
