<svg width="32" height="32" viewBox="0 0 32 32" fill="none" xmlns="http://www.w3.org/2000/svg">
<path d="M18.5 18C18.5 18.4945 18.3534 18.9778 18.0787 19.3889C17.804 19.8 17.4135 20.1205 16.9567 20.3097C16.4999 20.4989 15.9972 20.5484 15.5123 20.452C15.0273 20.3555 14.5819 20.1174 14.2322 19.7678C13.8826 19.4181 13.6445 18.9727 13.548 18.4877C13.4516 18.0028 13.5011 17.5001 13.6903 17.0433C13.8795 16.5865 14.2 16.196 14.6111 15.9213C15.0222 15.6466 15.5056 15.5 16 15.5C16.662 15.5033 17.296 15.7677 17.7641 16.2359C18.2323 16.704 18.4967 17.338 18.5 18ZM29 16C29 18.5712 28.2376 21.0846 26.8091 23.2224C25.3807 25.3603 23.3503 27.0265 20.9749 28.0104C18.5995 28.9944 15.9856 29.2518 13.4638 28.7502C10.9421 28.2486 8.6257 27.0105 6.80762 25.1924C4.98953 23.3743 3.75141 21.0579 3.2498 18.5362C2.74819 16.0144 3.00563 13.4006 3.98957 11.0251C4.97351 8.64968 6.63975 6.61935 8.77759 5.1909C10.9154 3.76244 13.4288 3 16 3C19.4458 3.00661 22.7486 4.37837 25.1851 6.81491C27.6216 9.25145 28.9934 12.5542 29 16ZM20.5 18C20.5 16.8065 20.0259 15.6619 19.182 14.818C18.3381 13.9741 17.1935 13.5 16 13.5H15.775L17.8625 10.0125C17.9298 9.89923 17.9741 9.77382 17.993 9.64342C18.0118 9.51303 18.0048 9.38019 17.9723 9.25251C17.9398 9.12483 17.8824 9.0048 17.8036 8.89928C17.7247 8.79376 17.6258 8.7048 17.5125 8.6375C17.3992 8.5702 17.2738 8.52586 17.1434 8.50703C17.013 8.48819 16.8802 8.49523 16.7525 8.52773C16.6248 8.56023 16.5048 8.61756 16.3993 8.69645C16.2938 8.77534 16.2048 8.87424 16.1375 8.9875L12.1125 15.7375L12.075 15.8125C11.7383 16.413 11.5438 17.0827 11.5066 17.7701C11.4694 18.4575 11.5904 19.1443 11.8603 19.7777C12.1302 20.411 12.5418 20.9739 13.0634 21.4232C13.585 21.8724 14.2028 22.196 14.8691 22.369C15.5355 22.542 16.2326 22.5599 16.9069 22.4211C17.5812 22.2824 18.2147 21.9908 18.7586 21.5688C19.3025 21.1467 19.7423 20.6056 20.0442 19.9869C20.3461 19.3681 20.5021 18.6884 20.5 18Z" fill="#344054"/>
</svg>
