<svg width="32" height="32" viewBox="0 0 32 32" fill="none" xmlns="http://www.w3.org/2000/svg">
<path d="M26 4H6C5.46957 4 4.96086 4.21071 4.58579 4.58579C4.21071 4.96086 4 5.46957 4 6V26C4 26.5304 4.21071 27.0391 4.58579 27.4142C4.96086 27.7893 5.46957 28 6 28H26C26.5304 28 27.0391 27.7893 27.4142 27.4142C27.7893 27.0391 28 26.5304 28 26V6C28 5.46957 27.7893 4.96086 27.4142 4.58579C27.0391 4.21071 26.5304 4 26 4ZM19 21C19.2652 21 19.5196 21.1054 19.7071 21.2929C19.8946 21.4804 20 21.7348 20 22C20 22.2652 19.8946 22.5196 19.7071 22.7071C19.5196 22.8946 19.2652 23 19 23H13C12.8937 23.0017 12.788 22.9847 12.6875 22.95C12.4875 22.8842 12.3133 22.7569 12.1899 22.5864C12.0664 22.4158 12 22.2106 12 22C11.9957 21.7771 12.0711 21.5599 12.2125 21.3875L17.675 14.1C17.8738 13.7981 17.9871 13.448 18.0028 13.087C18.0185 12.7259 17.9361 12.3672 17.7642 12.0493C17.5924 11.7313 17.3377 11.4658 17.027 11.281C16.7164 11.0963 16.3614 10.9992 16 11C15.6069 10.9996 15.2225 11.1158 14.8954 11.3338C14.5684 11.5518 14.3133 11.862 14.1625 12.225C14.0554 12.4664 13.8582 12.6564 13.613 12.7545C13.3678 12.8525 13.094 12.8509 12.85 12.75C12.7283 12.6994 12.6178 12.6253 12.5248 12.5318C12.4318 12.4384 12.3583 12.3275 12.3083 12.2055C12.2584 12.0835 12.233 11.9529 12.2337 11.8211C12.2345 11.6893 12.2612 11.5589 12.3125 11.4375C12.5312 10.9254 12.8544 10.4646 13.2615 10.0847C13.6685 9.7047 14.1504 9.4139 14.6763 9.23088C15.2022 9.04787 15.7606 8.97667 16.3155 9.02185C16.8705 9.06703 17.41 9.22759 17.8994 9.49325C18.3888 9.75891 18.8173 10.1238 19.1575 10.5646C19.4977 11.0054 19.7422 11.5124 19.8752 12.0531C20.0082 12.5938 20.0269 13.1564 19.93 13.7047C19.8331 14.2531 19.6228 14.7751 19.3125 15.2375L19.2875 15.275L15 21H19Z" fill="#344054"/>
</svg>
