<svg width="32" height="32" viewBox="0 0 32 32" fill="none" xmlns="http://www.w3.org/2000/svg">
<path d="M18.5 14C18.5 14.4945 18.3534 14.9778 18.0787 15.3889C17.804 15.8 17.4135 16.1205 16.9567 16.3097C16.4999 16.4989 15.9972 16.5484 15.5123 16.452C15.0273 16.3555 14.5819 16.1174 14.2322 15.7678C13.8826 15.4181 13.6445 14.9727 13.548 14.4877C13.4516 14.0028 13.5011 13.5001 13.6903 13.0433C13.8795 12.5865 14.2 12.196 14.6111 11.9213C15.0222 11.6466 15.5056 11.5 16 11.5C16.662 11.5033 17.296 11.7677 17.7641 12.2359C18.2323 12.704 18.4967 13.338 18.5 14ZM29 16C29 18.5712 28.2376 21.0846 26.8091 23.2224C25.3807 25.3603 23.3503 27.0265 20.9749 28.0104C18.5995 28.9944 15.9856 29.2518 13.4638 28.7502C10.9421 28.2486 8.6257 27.0105 6.80762 25.1924C4.98953 23.3743 3.75141 21.0579 3.2498 18.5362C2.74819 16.0144 3.00563 13.4006 3.98957 11.0251C4.97351 8.64968 6.63975 6.61935 8.77759 5.1909C10.9154 3.76244 13.4288 3 16 3C19.4458 3.00661 22.7486 4.37837 25.1851 6.81491C27.6216 9.25145 28.9934 12.5542 29 16ZM20.5 14C20.5 13.11 20.2361 12.24 19.7416 11.4999C19.2472 10.7599 18.5443 10.1831 17.7221 9.84254C16.8998 9.50195 15.995 9.41283 15.1221 9.58647C14.2492 9.7601 13.4474 10.1887 12.818 10.818C12.1887 11.4474 11.7601 12.2492 11.5865 13.1221C11.4128 13.995 11.502 14.8998 11.8425 15.7221C12.1831 16.5443 12.7599 17.2471 13.4999 17.7416C14.24 18.2361 15.11 18.5 16 18.5H16.225L14.1375 21.9875C14.004 22.2168 13.9659 22.4894 14.0314 22.7466C14.0968 23.0037 14.2606 23.2249 14.4875 23.3625C14.6444 23.4499 14.8204 23.4972 15 23.5C15.1735 23.4994 15.3439 23.4543 15.495 23.3689C15.646 23.2836 15.7726 23.1608 15.8625 23.0125L19.8875 16.2625L19.925 16.2C20.3018 15.528 20.4998 14.7705 20.5 14Z" fill="#344054"/>
</svg>
