<svg width="32" height="32" viewBox="0 0 32 32" fill="none" xmlns="http://www.w3.org/2000/svg">
<path d="M26 4H6C5.46957 4 4.96086 4.21071 4.58579 4.58579C4.21071 4.96086 4 5.46957 4 6V26C4 26.5304 4.21071 27.0391 4.58579 27.4142C4.96086 27.7893 5.46957 28 6 28H26C26.5304 28 27.0391 27.7893 27.4142 27.4142C27.7893 27.0391 28 26.5304 28 26V6C28 5.46957 27.7893 4.96086 27.4142 4.58579C27.0391 4.21071 26.5304 4 26 4ZM19.5 22C19.5 22.2652 19.3946 22.5196 19.2071 22.7071C19.0196 22.8946 18.7652 23 18.5 23C18.2348 23 17.9804 22.8946 17.7929 22.7071C17.6054 22.5196 17.5 22.2652 17.5 22V19H12.5C12.3405 18.9991 12.1835 18.96 12.0422 18.8861C11.9008 18.8122 11.7792 18.7055 11.6875 18.575C11.5941 18.4445 11.5339 18.2932 11.5121 18.1342C11.4903 17.9752 11.5076 17.8133 11.5625 17.6625L14.5625 9.1625C14.667 8.93481 14.8532 8.75466 15.0843 8.6577C15.3153 8.56073 15.5743 8.55402 15.81 8.63888C16.0457 8.72374 16.241 8.894 16.3572 9.11596C16.4734 9.33793 16.5021 9.59542 16.4375 9.8375L13.9125 17H17.5V14C17.5 13.7348 17.6054 13.4804 17.7929 13.2929C17.9804 13.1054 18.2348 13 18.5 13C18.7652 13 19.0196 13.1054 19.2071 13.2929C19.3946 13.4804 19.5 13.7348 19.5 14V22Z" fill="#344054"/>
</svg>
