<svg width="32" height="32" viewBox="0 0 32 32" fill="none" xmlns="http://www.w3.org/2000/svg">
<path d="M27.2875 9.55C27.2746 9.53604 27.2659 9.5187 27.2625 9.5L27.2125 9.4375C25.4416 6.54521 22.6105 4.45947 19.3233 3.62528C16.0361 2.79108 12.5531 3.27447 9.61734 4.97233C6.68157 6.67018 4.52551 9.44806 3.60917 12.7133C2.69283 15.9785 3.08875 19.4726 4.71248 22.45L4.73748 22.5L4.77498 22.55C6.52931 25.4745 9.36258 27.5925 12.664 28.4475C15.9654 29.3024 19.4706 28.8258 22.4239 27.1204C25.3772 25.415 27.5421 22.6174 28.4519 19.3306C29.3617 16.0439 28.9435 12.5313 27.2875 9.55ZM24.9875 9.6625L17 14.2625V5.05C18.5855 5.19644 20.1204 5.68457 21.4993 6.48081C22.8781 7.27704 24.0681 8.36249 24.9875 9.6625ZM16 27C14.238 26.9995 12.5019 26.5757 10.9379 25.7643C9.37386 24.9529 8.02762 23.7777 7.01248 22.3375L25.9875 11.3875C26.7617 13.0636 27.1015 14.9077 26.9757 16.7497C26.8498 18.5917 26.2624 20.3724 25.2674 21.9277C24.2725 23.483 22.9021 24.7628 21.2825 25.6493C19.6629 26.5357 17.8463 27.0002 16 27Z" fill="#344054"/>
</svg>
