<svg width="32" height="32" viewBox="0 0 32 32" fill="none" xmlns="http://www.w3.org/2000/svg">
<path d="M18.5 18.5C18.5 18.9945 18.3534 19.4778 18.0787 19.8889C17.804 20.3 17.4135 20.6205 16.9567 20.8097C16.4999 20.9989 15.9972 21.0484 15.5123 20.952C15.0273 20.8555 14.5819 20.6174 14.2322 20.2678C13.8826 19.9181 13.6445 19.4727 13.548 18.9877C13.4516 18.5028 13.5011 18.0001 13.6903 17.5433C13.8795 17.0865 14.2 16.696 14.6111 16.4213C15.0222 16.1466 15.5055 16 16 16C16.662 16.0033 17.296 16.2677 17.7641 16.7359C18.2323 17.204 18.4967 17.838 18.5 18.5ZM28 6V26C28 26.5304 27.7893 27.0391 27.4142 27.4142C27.0391 27.7893 26.5304 28 26 28H6C5.46957 28 4.96086 27.7893 4.58579 27.4142C4.21071 27.0391 4 26.5304 4 26V6C4 5.46957 4.21071 4.96086 4.58579 4.58579C4.96086 4.21071 5.46957 4 6 4H26C26.5304 4 27.0391 4.21071 27.4142 4.58579C27.7893 4.96086 28 5.46957 28 6ZM20.5 18.5C20.5 17.3065 20.0259 16.1619 19.182 15.318C18.3381 14.4741 17.1935 14 16 14H15.775L17.8625 10.5125C17.9298 10.3992 17.9741 10.2738 17.993 10.1434C18.0118 10.013 18.0048 9.88019 17.9723 9.75251C17.9398 9.62483 17.8824 9.5048 17.8036 9.39928C17.7247 9.29376 17.6258 9.2048 17.5125 9.1375C17.3992 9.0702 17.2738 9.02586 17.1434 9.00703C17.013 8.98819 16.8802 8.99523 16.7525 9.02773C16.6248 9.06023 16.5048 9.11756 16.3993 9.19645C16.2938 9.27534 16.2048 9.37424 16.1375 9.4875L12.1125 16.2375L12.0875 16.275C11.7472 16.8739 11.5489 17.543 11.508 18.2306C11.467 18.9183 11.5845 19.6061 11.8513 20.2412C12.1181 20.8763 12.5272 21.4416 13.047 21.8937C13.5668 22.3457 14.1834 22.6724 14.8494 22.8485C15.5153 23.0247 16.2128 23.0456 16.8881 22.9096C17.5635 22.7737 18.1985 22.4845 18.7445 22.0644C19.2904 21.6442 19.7326 21.1044 20.0369 20.4864C20.3413 19.8685 20.4997 19.1889 20.5 18.5Z" fill="#344054"/>
</svg>
