<svg width="32" height="32" viewBox="0 0 32 32" fill="none" xmlns="http://www.w3.org/2000/svg">
<path d="M17.4125 16L25.7125 7.71252C25.872 7.51823 25.9535 7.27156 25.9411 7.02051C25.9288 6.76946 25.8235 6.53197 25.6458 6.35423C25.4681 6.1765 25.2306 6.07123 24.9795 6.0589C24.7285 6.04657 24.4818 6.12806 24.2875 6.28752L16 14.5875L7.71251 6.28752C7.51821 6.12806 7.27155 6.04657 7.0205 6.0589C6.76945 6.07123 6.53196 6.1765 6.35422 6.35423C6.17649 6.53197 6.07122 6.76946 6.05889 7.02051C6.04656 7.27156 6.12805 7.51823 6.28751 7.71252L14.5875 16L6.28751 24.2875C6.09973 24.4771 5.99438 24.7332 5.99438 25C5.99438 25.2669 6.09973 25.5229 6.28751 25.7125C6.47865 25.8973 6.73413 26.0007 7.00001 26.0007C7.26589 26.0007 7.52137 25.8973 7.71251 25.7125L16 17.4125L24.2875 25.7125C24.4786 25.8973 24.7341 26.0007 25 26.0007C25.2659 26.0007 25.5214 25.8973 25.7125 25.7125C25.9003 25.5229 26.0056 25.2669 26.0056 25C26.0056 24.7332 25.9003 24.4771 25.7125 24.2875L17.4125 16Z" fill="#344054"/>
</svg>
