<svg width="32" height="32" viewBox="0 0 32 32" fill="none" xmlns="http://www.w3.org/2000/svg">
<path d="M12.5 14.5625C12.6525 14.473 12.7789 14.3451 12.8666 14.1916C12.9543 14.0381 13.0003 13.8643 13 13.6875V4.68749C13.0014 4.5264 12.9639 4.36736 12.8906 4.2239C12.8173 4.08044 12.7104 3.95681 12.5791 3.86353C12.4478 3.77024 12.2958 3.71007 12.1363 3.68812C11.9767 3.66618 11.8141 3.68312 11.6625 3.73749C9.13078 4.63935 6.93964 6.30159 5.38898 8.49668C3.83832 10.6918 3.00392 13.3124 3 16C3.00135 16.7963 3.07246 17.591 3.2125 18.375C3.24255 18.5316 3.30915 18.6789 3.4069 18.8049C3.50465 18.9309 3.63077 19.032 3.775 19.1C3.9081 19.1627 4.05289 19.1968 4.2 19.2C4.37586 19.1989 4.54832 19.1515 4.7 19.0625L12.5 14.5625ZM11 6.19999V13.1125L5.0125 16.575C5 16.375 5 16.1875 5 16C5.00384 13.973 5.56576 11.9863 6.62413 10.2576C7.68251 8.52894 9.19647 7.12508 11 6.19999Z" fill="#344054"/>
<path d="M27.2875 9.55C27.2746 9.53605 27.266 9.5187 27.2625 9.5L27.2125 9.4375C26.0685 7.47875 24.4315 5.85378 22.4643 4.72435C20.4971 3.59492 18.2684 3.00041 16 3C15.7348 3 15.4805 3.10536 15.2929 3.29289C15.1054 3.48043 15 3.73478 15 4V15.425L5.11254 21.1375C4.99729 21.2012 4.89595 21.2873 4.81446 21.3907C4.73298 21.4941 4.673 21.6128 4.63806 21.7398C4.60312 21.8667 4.59392 21.9994 4.61101 22.1299C4.62809 22.2605 4.67111 22.3863 4.73754 22.5V22.525L4.77504 22.5875C6.21697 25.0558 8.4323 26.9801 11.0781 28.0624C13.724 29.1447 16.6528 29.3247 19.4113 28.5746C22.1698 27.8245 24.6041 26.1861 26.3375 23.9129C28.0709 21.6398 29.0067 18.8586 29 16C29.0031 13.7372 28.4126 11.5132 27.2875 9.55Z" fill="#344054"/>
</svg>
