<svg width="32" height="32" viewBox="0 0 32 32" fill="none" xmlns="http://www.w3.org/2000/svg">
<path d="M14 30C13.8937 30.0016 13.788 29.9847 13.6875 29.95C13.5627 29.909 13.4473 29.8438 13.3477 29.7581C13.2482 29.6724 13.1664 29.568 13.1072 29.4508C13.0481 29.3335 13.0125 29.2058 13.0027 29.0748C12.9929 28.9439 13.009 28.8122 13.05 28.6875L20.6125 5.99999H10C9.73478 5.99999 9.48043 5.89463 9.29289 5.70709C9.10536 5.51956 9 5.2652 9 4.99999C9 4.73477 9.10536 4.48042 9.29289 4.29288C9.48043 4.10534 9.73478 3.99999 10 3.99999H22C22.1586 3.99844 22.3152 4.03512 22.4567 4.10692C22.5981 4.17872 22.7202 4.28353 22.8125 4.41249C22.9041 4.54135 22.9642 4.68987 22.9881 4.84616C23.012 5.00245 22.9989 5.16215 22.95 5.31249L14.95 29.3125C14.8859 29.5136 14.7591 29.6888 14.5881 29.8125C14.4171 29.9362 14.211 30.0019 14 30Z" fill="#344054"/>
</svg>
