<svg width="32" height="32" viewBox="0 0 32 32" fill="none" xmlns="http://www.w3.org/2000/svg">
<path d="M22.5 12V28C22.5 28.2652 22.3946 28.5196 22.2071 28.7071C22.0195 28.8946 21.7652 29 21.5 29C21.2347 29 20.9804 28.8946 20.7929 28.7071C20.6053 28.5196 20.5 28.2652 20.5 28V21H9.49996C9.34045 20.9991 9.18348 20.9601 9.04213 20.8861C8.90079 20.8122 8.77918 20.7055 8.68746 20.575C8.59405 20.4445 8.53385 20.2932 8.51207 20.1342C8.49029 19.9752 8.50758 19.8133 8.56246 19.6625L14.5625 2.66251C14.667 2.43482 14.8532 2.25467 15.0842 2.1577C15.3152 2.06074 15.5742 2.05402 15.81 2.13889C16.0457 2.22375 16.241 2.39401 16.3572 2.61597C16.4734 2.83793 16.502 3.09543 16.4375 3.33751L10.9125 19H20.5V12C20.5 11.7348 20.6053 11.4804 20.7929 11.2929C20.9804 11.1054 21.2347 11 21.5 11C21.7652 11 22.0195 11.1054 22.2071 11.2929C22.3946 11.4804 22.5 11.7348 22.5 12Z" fill="#344054"/>
</svg>
