<svg width="32" height="32" viewBox="0 0 32 32" fill="none" xmlns="http://www.w3.org/2000/svg">
<path d="M13 22H10V19C10 18.7348 9.89464 18.4804 9.70711 18.2929C9.51957 18.1054 9.26522 18 9 18C8.73478 18 8.48043 18.1054 8.29289 18.2929C8.10536 18.4804 8 18.7348 8 19V22H5C4.73478 22 4.48043 22.1054 4.29289 22.2929C4.10536 22.4804 4 22.7348 4 23C4 23.2652 4.10536 23.5196 4.29289 23.7071C4.48043 23.8946 4.73478 24 5 24H8V27C8 27.2652 8.10536 27.5196 8.29289 27.7071C8.48043 27.8946 8.73478 28 9 28C9.26522 28 9.51957 27.8946 9.70711 27.7071C9.89464 27.5196 10 27.2652 10 27V24H13C13.2652 24 13.5196 23.8946 13.7071 23.7071C13.8946 23.5196 14 23.2652 14 23C14 22.7348 13.8946 22.4804 13.7071 22.2929C13.5196 22.1054 13.2652 22 13 22Z" fill="#344054"/>
<path d="M13 8H5C4.73478 8 4.48043 8.10536 4.29289 8.29289C4.10536 8.48043 4 8.73478 4 9C4 9.26522 4.10536 9.51957 4.29289 9.70711C4.48043 9.89464 4.73478 10 5 10H13C13.2652 10 13.5196 9.89464 13.7071 9.70711C13.8946 9.51957 14 9.26522 14 9C14 8.73478 13.8946 8.48043 13.7071 8.29289C13.5196 8.10536 13.2652 8 13 8Z" fill="#344054"/>
<path d="M19 22.0125H27C27.2652 22.0125 27.5196 21.9072 27.7071 21.7196C27.8946 21.5321 28 21.2777 28 21.0125C28 20.7473 27.8946 20.4929 27.7071 20.3054C27.5196 20.1179 27.2652 20.0125 27 20.0125H19C18.7348 20.0125 18.4804 20.1179 18.2929 20.3054C18.1054 20.4929 18 20.7473 18 21.0125C18 21.2777 18.1054 21.5321 18.2929 21.7196C18.4804 21.9072 18.7348 22.0125 19 22.0125Z" fill="#344054"/>
<path d="M27 23.9875H19C18.7348 23.9875 18.4804 24.0928 18.2929 24.2804C18.1054 24.4679 18 24.7223 18 24.9875C18 25.2527 18.1054 25.5071 18.2929 25.6946C18.4804 25.8821 18.7348 25.9875 19 25.9875H27C27.2652 25.9875 27.5196 25.8821 27.7071 25.6946C27.8946 25.5071 28 25.2527 28 24.9875C28 24.7223 27.8946 24.4679 27.7071 24.2804C27.5196 24.0928 27.2652 23.9875 27 23.9875Z" fill="#344054"/>
<path d="M19.2875 12.7125C19.4787 12.8973 19.7341 13.0007 20 13.0007C20.2659 13.0007 20.5214 12.8973 20.7125 12.7125L23 10.4125L25.2875 12.7125C25.4787 12.8973 25.7341 13.0007 26 13.0007C26.2659 13.0007 26.5214 12.8973 26.7125 12.7125C26.9003 12.5229 27.0056 12.2669 27.0056 12C27.0056 11.7332 26.9003 11.4771 26.7125 11.2875L24.4125 9.00002L26.7125 6.71252C26.872 6.51823 26.9535 6.27156 26.9411 6.02051C26.9288 5.76946 26.8235 5.53197 26.6458 5.35423C26.4681 5.1765 26.2306 5.07123 25.9795 5.0589C25.7285 5.04657 25.4818 5.12806 25.2875 5.28752L23 7.58752L20.7125 5.28752C20.5182 5.12806 20.2716 5.04657 20.0205 5.0589C19.7694 5.07123 19.532 5.1765 19.3542 5.35423C19.1765 5.53197 19.0712 5.76946 19.0589 6.02051C19.0466 6.27156 19.128 6.51823 19.2875 6.71252L21.5875 9.00002L19.2875 11.2875C19.0997 11.4771 18.9944 11.7332 18.9944 12C18.9944 12.2669 19.0997 12.5229 19.2875 12.7125Z" fill="#344054"/>
</svg>
