<svg width="32" height="32" viewBox="0 0 32 32" fill="none" xmlns="http://www.w3.org/2000/svg">
<path d="M16 21C17.6569 21 19 18.7614 19 16C19 13.2386 17.6569 11 16 11C14.3431 11 13 13.2386 13 16C13 18.7614 14.3431 21 16 21Z" fill="#344054"/>
<path d="M26 4H6C5.46957 4 4.96086 4.21071 4.58579 4.58579C4.21071 4.96086 4 5.46957 4 6V26C4 26.5304 4.21071 27.0391 4.58579 27.4142C4.96086 27.7893 5.46957 28 6 28H26C26.5304 28 27.0391 27.7893 27.4142 27.4142C27.7893 27.0391 28 26.5304 28 26V6C28 5.46957 27.7893 4.96086 27.4142 4.58579C27.0391 4.21071 26.5304 4 26 4ZM16 23C12.55 23 11 19.4875 11 16C11 12.5125 12.55 9 16 9C19.45 9 21 12.5125 21 16C21 19.4875 19.45 23 16 23Z" fill="#344054"/>
</svg>
