<svg width="32" height="32" viewBox="0 0 32 32" fill="none" xmlns="http://www.w3.org/2000/svg">
<path d="M23 28C23 28.2652 22.8947 28.5196 22.7071 28.7071C22.5196 28.8946 22.2653 29 22 29H10C9.89375 29.0016 9.788 28.9847 9.68754 28.95C9.48752 28.8842 9.31337 28.7569 9.18992 28.5863C9.06647 28.4157 9.00002 28.2105 9.00004 28C8.99808 27.7736 9.073 27.5533 9.21254 27.375L20.1625 12.775C20.5391 12.1953 20.7914 11.5439 20.9034 10.8619C21.0155 10.1798 20.985 9.48196 20.8137 8.81231C20.6425 8.14267 20.3342 7.5158 19.9085 6.97129C19.4827 6.42678 18.9487 5.97646 18.3401 5.64877C17.7315 5.32107 17.0616 5.12311 16.3727 5.0674C15.6837 5.01168 14.9907 5.09941 14.3374 5.32505C13.684 5.55069 13.0846 5.90934 12.5769 6.37835C12.0691 6.84737 11.6642 7.41655 11.3875 8.04998C11.3438 8.18055 11.2735 8.30068 11.1812 8.40284C11.0889 8.505 10.9764 8.58699 10.8509 8.64367C10.7254 8.70035 10.5896 8.7305 10.4519 8.73222C10.3142 8.73395 10.1776 8.70721 10.0507 8.6537C9.92384 8.60018 9.80938 8.52104 9.71451 8.42122C9.61964 8.32141 9.5464 8.20308 9.4994 8.07364C9.45239 7.9442 9.43263 7.80645 9.44134 7.66902C9.45006 7.53159 9.48706 7.39744 9.55004 7.27498C9.92912 6.37443 10.4925 5.56322 11.204 4.89354C11.9155 4.22385 12.7593 3.71054 13.6812 3.38663C14.603 3.06271 15.5824 2.93537 16.5564 3.0128C17.5304 3.09022 18.4774 3.3707 19.3365 3.83618C20.1956 4.30166 20.9477 4.94183 21.5445 5.71551C22.1412 6.48918 22.5694 7.37922 22.8015 8.32835C23.0335 9.27748 23.0643 10.2647 22.8918 11.2264C22.7193 12.1882 22.3474 13.1031 21.8 13.9125C21.8 13.925 21.7875 13.9375 21.775 13.95L12 27H22C22.2653 27 22.5196 27.1053 22.7071 27.2929C22.8947 27.4804 23 27.7348 23 28Z" fill="#344054"/>
</svg>
