<svg width="32" height="32" viewBox="0 0 32 32" fill="none" xmlns="http://www.w3.org/2000/svg">
<path d="M16 3C13.4288 3 10.9154 3.76244 8.77759 5.1909C6.63975 6.61935 4.97351 8.64968 3.98957 11.0251C3.00563 13.4006 2.74819 16.0144 3.2498 18.5362C3.75141 21.0579 4.98953 23.3743 6.80762 25.1924C8.6257 27.0105 10.9421 28.2486 13.4638 28.7502C15.9856 29.2518 18.5995 28.9944 20.9749 28.0104C23.3503 27.0265 25.3807 25.3603 26.8091 23.2224C28.2376 21.0846 29 18.5712 29 16C28.9934 12.5542 27.6216 9.25145 25.1851 6.81491C22.7486 4.37837 19.4458 3.00661 16 3ZM19.95 10.8125L15.95 22.8125C15.8859 23.0136 15.7591 23.1888 15.5881 23.3125C15.4171 23.4363 15.211 23.502 15 23.5C14.8937 23.5017 14.788 23.4847 14.6875 23.45C14.5627 23.409 14.4473 23.3438 14.3477 23.2581C14.2482 23.1725 14.1665 23.068 14.1073 22.9508C14.0481 22.8336 14.0125 22.7058 14.0027 22.5748C13.9929 22.4439 14.009 22.3123 14.05 22.1875L17.6125 11.5H13C12.7348 11.5 12.4804 11.3946 12.2929 11.2071C12.1054 11.0196 12 10.7652 12 10.5C12 10.2348 12.1054 9.98043 12.2929 9.79289C12.4804 9.60536 12.7348 9.5 13 9.5H19C19.1586 9.49845 19.3153 9.53513 19.4567 9.60693C19.5981 9.67873 19.7202 9.78355 19.8125 9.9125C19.9041 10.0414 19.9642 10.1899 19.9881 10.3462C20.012 10.5025 19.9989 10.6622 19.95 10.8125Z" fill="#344054"/>
</svg>
