<svg width="32" height="32" viewBox="0 0 32 32" fill="none" xmlns="http://www.w3.org/2000/svg">
<path d="M30 7V15C30.0006 15.1974 29.9428 15.3906 29.8338 15.5552C29.7248 15.7198 29.5695 15.8485 29.3875 15.925C29.2642 15.974 29.1327 15.9994 29 16C28.7345 15.9989 28.4795 15.896 28.2875 15.7125L25 12.4125L17.7125 19.7125C17.5229 19.9003 17.2669 20.0056 17 20.0056C16.7332 20.0056 16.4771 19.9003 16.2875 19.7125L12 15.4125L3.71251 23.7125C3.52055 23.896 3.26555 23.9989 3.00001 24C2.73496 23.9964 2.48083 23.8939 2.28751 23.7125C2.09973 23.5229 1.99438 23.2668 1.99438 23C1.99438 22.7332 2.09973 22.4771 2.28751 22.2875L11.2875 13.2875C11.4771 13.0997 11.7332 12.9944 12 12.9944C12.2669 12.9944 12.5229 13.0997 12.7125 13.2875L17 17.5875L23.5875 11L20.2875 7.7125C20.1518 7.56791 20.0599 7.38787 20.0223 7.19321C19.9847 6.99854 20.003 6.79721 20.075 6.6125C20.1529 6.43147 20.2818 6.27708 20.4462 6.16828C20.6105 6.05949 20.8029 6.001 21 6H29C29.2652 6 29.5196 6.10536 29.7071 6.29289C29.8947 6.48043 30 6.73478 30 7Z" fill="#344054"/>
</svg>
