<svg width="32" height="32" viewBox="0 0 32 32" fill="none" xmlns="http://www.w3.org/2000/svg">
<path d="M26 4H6C5.46957 4 4.96086 4.21071 4.58579 4.58579C4.21071 4.96086 4 5.46957 4 6V26C4 26.5304 4.21071 27.0391 4.58579 27.4142C4.96086 27.7893 5.46957 28 6 28H26C26.5304 28 27.0391 27.7893 27.4142 27.4142C27.7893 27.0391 28 26.5304 28 26V6C28 5.46957 27.7893 4.96086 27.4142 4.58579C27.0391 4.21071 26.5304 4 26 4ZM15.4875 14C16.2267 14.0018 16.9541 14.1857 17.6054 14.5354C18.2567 14.8852 18.8117 15.39 19.2216 16.0052C19.6314 16.6204 19.8833 17.3271 19.9552 18.0629C20.027 18.7986 19.9164 19.5407 19.6333 20.2236C19.3501 20.9064 18.9031 21.509 18.3318 21.9781C17.7604 22.4471 17.0823 22.7682 16.3574 22.9129C15.6325 23.0576 14.8831 23.0215 14.1754 22.8078C13.4677 22.5941 12.8236 22.2093 12.3 21.6875C12.1989 21.5974 12.1172 21.4877 12.0598 21.3651C12.0024 21.2425 11.9705 21.1095 11.966 20.9741C11.9615 20.8388 11.9846 20.704 12.0338 20.5778C12.083 20.4517 12.1572 20.3368 12.2521 20.2402C12.347 20.1437 12.4605 20.0674 12.5858 20.0159C12.7111 19.9645 12.8454 19.9391 12.9808 19.9412C13.1162 19.9433 13.2498 19.9728 13.3734 20.0281C13.497 20.0833 13.6081 20.163 13.7 20.2625C13.9345 20.4974 14.2132 20.6835 14.52 20.8101C14.8268 20.9367 15.1556 21.0012 15.4875 21C15.8175 21.001 16.1444 20.9362 16.4491 20.8096C16.7538 20.683 17.0303 20.497 17.2625 20.2625C17.4961 20.0322 17.6815 19.7578 17.8081 19.4553C17.9347 19.1527 17.9999 18.828 17.9999 18.5C17.9999 18.172 17.9347 17.8473 17.8081 17.5447C17.6815 17.2422 17.4961 16.9678 17.2625 16.7375C17.0303 16.503 16.7538 16.317 16.4491 16.1904C16.1444 16.0638 15.8175 15.999 15.4875 16C15.1556 15.9988 14.8268 16.0633 14.52 16.1899C14.2132 16.3165 13.9345 16.5026 13.7 16.7375C13.5496 16.8852 13.3563 16.9816 13.1478 17.0129C12.9393 17.0442 12.7262 17.0088 12.5391 16.9117C12.3519 16.8147 12.2002 16.6609 12.1056 16.4725C12.011 16.2841 11.9785 16.0706 12.0125 15.8625L12.9875 9.8375C13.026 9.60347 13.1465 9.39076 13.3274 9.23735C13.5083 9.08394 13.7378 8.99981 13.975 9H19C19.2652 9 19.5196 9.10536 19.7071 9.29289C19.8946 9.48043 20 9.73478 20 10C20 10.2652 19.8946 10.5196 19.7071 10.7071C19.5196 10.8946 19.2652 11 19 11H14.825L14.3125 14.15C14.6962 14.0502 15.091 13.9998 15.4875 14Z" fill="#344054"/>
</svg>
