<svg width="32" height="32" viewBox="0 0 32 32" fill="none" xmlns="http://www.w3.org/2000/svg">
<path d="M26 4H6C5.46957 4 4.96086 4.21071 4.58579 4.58579C4.21071 4.96086 4 5.46957 4 6V26C4 26.5304 4.21071 27.0391 4.58579 27.4142C4.96086 27.7893 5.46957 28 6 28H26C26.5304 28 27.0391 27.7893 27.4142 27.4142C27.7893 27.0391 28 26.5304 28 26V6C28 5.46957 27.7893 4.96086 27.4142 4.58579C27.0391 4.21071 26.5304 4 26 4ZM20.7125 19.2875C20.9003 19.4771 21.0056 19.7332 21.0056 20C21.0056 20.2668 20.9003 20.5229 20.7125 20.7125C20.5214 20.8973 20.2659 21.0006 20 21.0006C19.7341 21.0006 19.4786 20.8973 19.2875 20.7125L16 17.4125L12.7125 20.7125C12.5214 20.8973 12.2659 21.0006 12 21.0006C11.7341 21.0006 11.4786 20.8973 11.2875 20.7125C11.0997 20.5229 10.9944 20.2668 10.9944 20C10.9944 19.7332 11.0997 19.4771 11.2875 19.2875L14.5875 16L11.2875 12.7125C11.128 12.5182 11.0465 12.2715 11.0589 12.0205C11.0712 11.7694 11.1765 11.5319 11.3542 11.3542C11.5319 11.1765 11.7694 11.0712 12.0205 11.0589C12.2715 11.0465 12.5182 11.128 12.7125 11.2875L16 14.5875L19.2875 11.2875C19.4818 11.128 19.7285 11.0465 19.9795 11.0589C20.2306 11.0712 20.4681 11.1765 20.6458 11.3542C20.8235 11.5319 20.9288 11.7694 20.9411 12.0205C20.9535 12.2715 20.872 12.5182 20.7125 12.7125L17.4125 16L20.7125 19.2875Z" fill="#344054"/>
</svg>
