<svg width="32" height="32" viewBox="0 0 32 32" fill="none" xmlns="http://www.w3.org/2000/svg">
<path d="M26 4H6C5.46957 4 4.96086 4.21071 4.58579 4.58579C4.21071 4.96086 4 5.46957 4 6V26C4 26.5304 4.21071 27.0391 4.58579 27.4142C4.96086 27.7893 5.46957 28 6 28H26C26.5304 28 27.0391 27.7893 27.4142 27.4142C27.7893 27.0391 28 26.5304 28 26V6C28 5.46957 27.7893 4.96086 27.4142 4.58579C27.0391 4.21071 26.5304 4 26 4ZM18.6875 22.1875C17.8399 23.0287 16.6942 23.5007 15.5 23.5007C14.3058 23.5007 13.1601 23.0287 12.3125 22.1875C12.153 21.9932 12.0715 21.7465 12.0839 21.4955C12.0962 21.2444 12.2015 21.0069 12.3792 20.8292C12.5569 20.6515 12.7944 20.5462 13.0455 20.5339C13.2965 20.5215 13.5432 20.603 13.7375 20.7625C14.0281 21.0478 14.3843 21.2574 14.7749 21.3729C15.1655 21.4883 15.5784 21.5061 15.9774 21.4247C16.3765 21.3433 16.7494 21.1651 17.0635 20.9059C17.3776 20.6467 17.6232 20.3143 17.7789 19.9379C17.9345 19.5616 17.9953 19.1528 17.956 18.7474C17.9167 18.342 17.7785 17.9525 17.5535 17.6131C17.3285 17.2736 17.0236 16.9946 16.6655 16.8005C16.3075 16.6064 15.9072 16.5033 15.5 16.5C15.3173 16.4988 15.1384 16.4482 14.9822 16.3536C14.8259 16.2589 14.6982 16.1238 14.6125 15.9625C14.5268 15.8004 14.4873 15.618 14.4984 15.435C14.5094 15.252 14.5705 15.0756 14.675 14.925L17.075 11.5H13C12.7348 11.5 12.4804 11.3946 12.2929 11.2071C12.1054 11.0196 12 10.7652 12 10.5C12 10.2348 12.1054 9.98043 12.2929 9.79289C12.4804 9.60536 12.7348 9.5 13 9.5H19C19.1827 9.5012 19.3616 9.5518 19.5178 9.64643C19.6741 9.74105 19.8018 9.87618 19.8875 10.0375C19.9742 10.1999 20.0132 10.3835 19.9999 10.5671C19.9866 10.7507 19.9217 10.9268 19.8125 11.075L17.1875 14.825C17.7459 15.0555 18.255 15.3907 18.6875 15.8125C19.5287 16.6601 20.0007 17.8058 20.0007 19C20.0007 20.1942 19.5287 21.3399 18.6875 22.1875Z" fill="#344054"/>
</svg>
