<svg width="32" height="32" viewBox="0 0 32 32" fill="none" xmlns="http://www.w3.org/2000/svg">
<path d="M16 3C13.4288 3 10.9154 3.76244 8.77759 5.1909C6.63975 6.61935 4.97351 8.64968 3.98957 11.0251C3.00563 13.4006 2.74819 16.0144 3.2498 18.5362C3.75141 21.0579 4.98953 23.3743 6.80762 25.1924C8.6257 27.0105 10.9421 28.2486 13.4638 28.7502C15.9856 29.2518 18.5995 28.9944 20.9749 28.0104C23.3503 27.0265 25.3807 25.3603 26.8091 23.2224C28.2376 21.0846 29 18.5712 29 16C28.9934 12.5542 27.6216 9.25145 25.1851 6.81491C22.7486 4.37837 19.4458 3.00661 16 3ZM17.5 22C17.5 22.2652 17.3946 22.5196 17.2071 22.7071C17.0196 22.8946 16.7652 23 16.5 23C16.2348 23 15.9804 22.8946 15.7929 22.7071C15.6054 22.5196 15.5 22.2652 15.5 22V12.3625L14.05 13.3375C13.8279 13.4834 13.5569 13.535 13.2967 13.4811C13.0365 13.4272 12.8084 13.2721 12.6625 13.05C12.5166 12.8279 12.465 12.5569 12.5189 12.2967C12.5728 12.0365 12.7279 11.8084 12.95 11.6625L15.95 9.6625C16.1019 9.56601 16.2762 9.51066 16.4559 9.5019C16.6356 9.49313 16.8145 9.53125 16.975 9.6125C17.1349 9.69879 17.2682 9.827 17.3607 9.98336C17.4532 10.1397 17.5014 10.3183 17.5 10.5V22Z" fill="#344054"/>
</svg>
