<svg width="32" height="32" viewBox="0 0 32 32" fill="none" xmlns="http://www.w3.org/2000/svg">
<path d="M31 16C31.0001 17.3846 30.5896 18.738 29.8205 19.8893C29.0513 21.0405 27.958 21.9378 26.6789 22.4677C25.3997 22.9975 23.9922 23.1361 22.6342 22.866C21.2763 22.5959 20.029 21.9291 19.05 20.95L19.0125 20.9L11.5125 12.45C11.0518 11.9883 10.5042 11.6225 9.90135 11.3736C9.29847 11.1247 8.65225 10.9977 8.00002 11C6.67394 11 5.40217 11.5268 4.46449 12.4645C3.5268 13.4022 3.00002 14.6739 3.00002 16C3.00002 17.3261 3.5268 18.5979 4.46449 19.5356C5.40217 20.4732 6.67394 21 8.00002 21C8.65225 21.0023 9.29847 20.8753 9.90135 20.6265C10.5042 20.3776 11.0518 20.0117 11.5125 19.55L12.575 18.35C12.7507 18.1511 12.9983 18.0301 13.2631 18.0137C13.528 17.9973 13.7886 18.0868 13.9875 18.2625C14.1864 18.4382 14.3074 18.6858 14.3238 18.9506C14.3402 19.2155 14.2507 19.4761 14.075 19.675L12.9875 20.9L12.95 20.95C12.3 21.6001 11.5283 22.1158 10.679 22.4676C9.82964 22.8194 8.91933 23.0005 8.00002 23.0005C7.08071 23.0005 6.1704 22.8194 5.32107 22.4676C4.47175 22.1158 3.70004 21.6001 3.05002 20.95C2.07095 19.9711 1.40418 18.7237 1.13405 17.3658C0.863907 16.0079 1.00253 14.6003 1.53239 13.3212C2.06224 12.042 2.95953 10.9487 4.11076 10.1796C5.262 9.41041 6.61548 8.99992 8.00002 9.00002C8.9198 8.99652 9.8311 9.17596 10.6809 9.52789C11.5307 9.87983 12.302 10.3972 12.95 11.05L12.9875 11.1L20.4875 19.55C20.9482 20.0117 21.4958 20.3776 22.0987 20.6265C22.7016 20.8753 23.3478 21.0023 24 21C25.3261 21 26.5979 20.4732 27.5356 19.5356C28.4732 18.5979 29 17.3261 29 16C29 14.6739 28.4732 13.4022 27.5356 12.4645C26.5979 11.5268 25.3261 11 24 11C23.3478 10.9977 22.7016 11.1247 22.0987 11.3736C21.4958 11.6225 20.9482 11.9883 20.4875 12.45L19.425 13.65C19.2493 13.8489 19.0018 13.9699 18.7369 13.9863C18.472 14.0027 18.2114 13.9132 18.0125 13.7375C17.8136 13.5618 17.6926 13.3143 17.6762 13.0494C17.6598 12.7845 17.7493 12.5239 17.925 12.325L19.0125 11.1L19.05 11.05C20.029 10.071 21.2763 9.40418 22.6342 9.13405C23.9922 8.86391 25.3997 9.00253 26.6789 9.53239C27.958 10.0622 29.0513 10.9595 29.8205 12.1108C30.5896 13.262 31.0001 14.6155 31 16Z" fill="#344054"/>
</svg>
