<svg width="32" height="32" viewBox="0 0 32 32" fill="none" xmlns="http://www.w3.org/2000/svg">
<path d="M16 3C13.4288 3 10.9154 3.76244 8.77759 5.1909C6.63975 6.61935 4.97351 8.64968 3.98957 11.0251C3.00563 13.4006 2.74819 16.0144 3.2498 18.5362C3.75141 21.0579 4.98953 23.3743 6.80762 25.1924C8.6257 27.0105 10.9421 28.2486 13.4638 28.7502C15.9856 29.2518 18.5995 28.9944 20.9749 28.0104C23.3503 27.0265 25.3807 25.3603 26.8091 23.2224C28.2376 21.0846 29 18.5712 29 16C28.9934 12.5542 27.6216 9.25145 25.1851 6.81491C22.7486 4.37837 19.4458 3.00661 16 3ZM19 21C19.2652 21 19.5196 21.1054 19.7071 21.2929C19.8946 21.4804 20 21.7348 20 22C20 22.2652 19.8946 22.5196 19.7071 22.7071C19.5196 22.8946 19.2652 23 19 23H13C12.8937 23.0017 12.788 22.9847 12.6875 22.95C12.4875 22.8842 12.3133 22.7569 12.1899 22.5864C12.0664 22.4158 12 22.2106 12 22C11.9957 21.7771 12.0711 21.5599 12.2125 21.3875L17.675 14.1C17.8738 13.7981 17.9871 13.448 18.0028 13.087C18.0185 12.7259 17.9361 12.3672 17.7643 12.0493C17.5924 11.7313 17.3377 11.4658 17.027 11.281C16.7164 11.0963 16.3614 10.9992 16 11C15.6069 10.9996 15.2225 11.1158 14.8955 11.3338C14.5684 11.5518 14.3133 11.862 14.1625 12.225C14.0581 12.4703 13.8605 12.6641 13.6132 12.7637C13.3658 12.8634 13.0891 12.8607 12.8438 12.7563C12.5984 12.6518 12.4046 12.4542 12.305 12.2069C12.2054 11.9596 12.2081 11.6828 12.3125 11.4375C12.5312 10.9254 12.8545 10.4646 13.2615 10.0847C13.6685 9.7047 14.1504 9.4139 14.6763 9.23088C15.2022 9.04787 15.7606 8.97667 16.3156 9.02185C16.8706 9.06703 17.41 9.22759 17.8994 9.49325C18.3888 9.75891 18.8173 10.1238 19.1575 10.5646C19.4977 11.0054 19.7422 11.5124 19.8752 12.0531C20.0082 12.5938 20.0269 13.1564 19.93 13.7047C19.8331 14.2531 19.6228 14.7751 19.3125 15.2375L19.2875 15.275L15 21H19Z" fill="#344054"/>
</svg>
