<svg width="32" height="32" viewBox="0 0 32 32" fill="none" xmlns="http://www.w3.org/2000/svg">
<path d="M26 4H6C5.46957 4 4.96086 4.21071 4.58579 4.58579C4.21071 4.96086 4 5.46957 4 6V26C4 26.5304 4.21071 27.0391 4.58579 27.4142C4.96086 27.7893 5.46957 28 6 28H26C26.5304 28 27.0391 27.7893 27.4142 27.4142C27.7893 27.0391 28 26.5304 28 26V6C28 5.46957 27.7893 4.96086 27.4142 4.58579C27.0391 4.21071 26.5304 4 26 4ZM19.95 10.8125L15.95 22.8125C15.8859 23.0136 15.7591 23.1888 15.5881 23.3125C15.4171 23.4363 15.211 23.502 15 23.5C14.8937 23.5017 14.788 23.4847 14.6875 23.45C14.5627 23.409 14.4473 23.3438 14.3477 23.2581C14.2482 23.1725 14.1664 23.068 14.1072 22.9508C14.0481 22.8336 14.0125 22.7058 14.0027 22.5748C13.9929 22.4439 14.009 22.3123 14.05 22.1875L17.6125 11.5H13C12.7348 11.5 12.4804 11.3946 12.2929 11.2071C12.1054 11.0196 12 10.7652 12 10.5C12 10.2348 12.1054 9.98043 12.2929 9.79289C12.4804 9.60536 12.7348 9.5 13 9.5H19C19.1586 9.49845 19.3152 9.53513 19.4567 9.60693C19.5981 9.67873 19.7202 9.78355 19.8125 9.9125C19.9041 10.0414 19.9642 10.1899 19.9881 10.3462C20.012 10.5025 19.9989 10.6622 19.95 10.8125Z" fill="#344054"/>
</svg>
