<svg width="32" height="32" viewBox="0 0 32 32" fill="none" xmlns="http://www.w3.org/2000/svg">
<path d="M16 3C13.4288 3 10.9154 3.76244 8.77759 5.1909C6.63975 6.61935 4.97351 8.64968 3.98957 11.0251C3.00563 13.4006 2.74819 16.0144 3.2498 18.5362C3.75141 21.0579 4.98953 23.3743 6.80762 25.1924C8.6257 27.0105 10.9421 28.2486 13.4638 28.7502C15.9856 29.2518 18.5995 28.9944 20.9749 28.0104C23.3503 27.0265 25.3807 25.3603 26.8091 23.2224C28.2376 21.0846 29 18.5712 29 16C28.9934 12.5542 27.6216 9.25145 25.1851 6.81491C22.7486 4.37837 19.4458 3.00661 16 3ZM18.6875 22.1875C17.8399 23.0287 16.6942 23.5007 15.5 23.5007C14.3058 23.5007 13.1601 23.0287 12.3125 22.1875C12.153 21.9932 12.0716 21.7465 12.0839 21.4955C12.0962 21.2444 12.2015 21.0069 12.3792 20.8292C12.557 20.6515 12.7944 20.5462 13.0455 20.5339C13.2965 20.5215 13.5432 20.603 13.7375 20.7625C14.0281 21.0478 14.3844 21.2574 14.7749 21.3729C15.1655 21.4883 15.5784 21.5061 15.9774 21.4247C16.3765 21.3433 16.7494 21.1651 17.0635 20.9059C17.3776 20.6467 17.6233 20.3143 17.7789 19.9379C17.9345 19.5616 17.9953 19.1528 17.956 18.7474C17.9167 18.342 17.7785 17.9525 17.5535 17.6131C17.3285 17.2736 17.0236 16.9946 16.6655 16.8005C16.3075 16.6064 15.9073 16.5033 15.5 16.5C15.3173 16.4988 15.1384 16.4482 14.9822 16.3536C14.8259 16.2589 14.6982 16.1238 14.6125 15.9625C14.5268 15.8004 14.4874 15.618 14.4984 15.435C14.5094 15.252 14.5705 15.0756 14.675 14.925L17.075 11.5H13C12.7348 11.5 12.4804 11.3946 12.2929 11.2071C12.1054 11.0196 12 10.7652 12 10.5C12 10.2348 12.1054 9.98043 12.2929 9.79289C12.4804 9.60536 12.7348 9.5 13 9.5H19C19.1827 9.5012 19.3616 9.5518 19.5178 9.64643C19.6741 9.74105 19.8018 9.87618 19.8875 10.0375C19.9732 10.1996 20.0127 10.382 20.0016 10.565C19.9906 10.748 19.9295 10.9244 19.825 11.075L17.1875 14.825C17.7459 15.0555 18.255 15.3907 18.6875 15.8125C19.5287 16.6601 20.0007 17.8058 20.0007 19C20.0007 20.1942 19.5287 21.3399 18.6875 22.1875Z" fill="#344054"/>
</svg>
