<svg width="32" height="32" viewBox="0 0 32 32" fill="none" xmlns="http://www.w3.org/2000/svg">
<path d="M25.7125 6.28751C25.5229 6.09973 25.2669 5.99438 25 5.99438C24.7332 5.99438 24.4771 6.09973 24.2875 6.28751L6.28751 24.2875C6.09973 24.4771 5.99438 24.7332 5.99438 25C5.99438 25.2669 6.09973 25.5229 6.28751 25.7125C6.47865 25.8973 6.73413 26.0006 7.00001 26.0006C7.26589 26.0006 7.52137 25.8973 7.71251 25.7125L25.7125 7.71251C25.9003 7.52292 26.0056 7.26686 26.0056 7.00001C26.0056 6.73316 25.9003 6.4771 25.7125 6.28751Z" fill="#344054"/>
<path d="M8 14C8 14.2652 8.10536 14.5196 8.29289 14.7071C8.48043 14.8946 8.73478 15 9 15C9.26522 15 9.51957 14.8946 9.70711 14.7071C9.89464 14.5196 10 14.2652 10 14V10H14C14.2652 10 14.5196 9.89464 14.7071 9.70711C14.8946 9.51957 15 9.26522 15 9C15 8.73478 14.8946 8.48043 14.7071 8.29289C14.5196 8.10536 14.2652 8 14 8H10V4C10 3.73478 9.89464 3.48043 9.70711 3.29289C9.51957 3.10536 9.26522 3 9 3C8.73478 3 8.48043 3.10536 8.29289 3.29289C8.10536 3.48043 8 3.73478 8 4V8H4C3.73478 8 3.48043 8.10536 3.29289 8.29289C3.10536 8.48043 3 8.73478 3 9C3 9.26522 3.10536 9.51957 3.29289 9.70711C3.48043 9.89464 3.73478 10 4 10H8V14Z" fill="#344054"/>
<path d="M28 22H18C17.7348 22 17.4804 22.1054 17.2929 22.2929C17.1054 22.4804 17 22.7348 17 23C17 23.2652 17.1054 23.5196 17.2929 23.7071C17.4804 23.8946 17.7348 24 18 24H28C28.2652 24 28.5196 23.8946 28.7071 23.7071C28.8946 23.5196 29 23.2652 29 23C29 22.7348 28.8946 22.4804 28.7071 22.2929C28.5196 22.1054 28.2652 22 28 22Z" fill="#344054"/>
</svg>
