<svg width="32" height="32" viewBox="0 0 32 32" fill="none" xmlns="http://www.w3.org/2000/svg">
<path d="M16 3C13.4288 3 10.9154 3.76244 8.77759 5.1909C6.63975 6.61935 4.97351 8.64968 3.98957 11.0251C3.00563 13.4006 2.74819 16.0144 3.2498 18.5362C3.75141 21.0579 4.98953 23.3743 6.80762 25.1924C8.6257 27.0105 10.9421 28.2486 13.4638 28.7502C15.9856 29.2518 18.5995 28.9944 20.9749 28.0104C23.3503 27.0265 25.3807 25.3603 26.8091 23.2224C28.2376 21.0846 29 18.5712 29 16C28.9934 12.5542 27.6216 9.25145 25.1851 6.81491C22.7486 4.37837 19.4458 3.00661 16 3ZM19 21.75C18.2044 22.5456 17.1252 22.9926 16 22.9926C14.8748 22.9926 13.7957 22.5456 13 21.75C12.2044 20.9544 11.7574 19.8752 11.7574 18.75C11.7574 17.6248 12.2044 16.5456 13 15.75C13.1207 15.632 13.2503 15.5233 13.3875 15.425L13.35 15.4C13.0008 15.0527 12.7237 14.6398 12.5346 14.185C12.3455 13.7302 12.2481 13.2425 12.2481 12.75C12.2481 12.2575 12.3455 11.7698 12.5346 11.315C12.7237 10.8602 13.0008 10.4473 13.35 10.1C14.7625 8.6875 17.2375 8.6875 18.65 10.1C18.9992 10.4473 19.2763 10.8602 19.4655 11.315C19.6546 11.7698 19.7519 12.2575 19.7519 12.75C19.7519 13.2425 19.6546 13.7302 19.4655 14.185C19.2763 14.6398 18.9992 15.0527 18.65 15.4L18.6125 15.425C18.7497 15.5233 18.8793 15.632 19 15.75C19.3961 16.1428 19.7105 16.6101 19.925 17.125C20.1395 17.6399 20.25 18.1922 20.25 18.75C20.25 19.3078 20.1395 19.8601 19.925 20.375C19.7105 20.8899 19.3961 21.3572 19 21.75Z" fill="#344054"/>
<path d="M17.2375 13.9875C17.4822 13.7427 17.6489 13.4309 17.7164 13.0915C17.7839 12.752 17.7492 12.4001 17.6168 12.0804C17.4843 11.7606 17.26 11.4873 16.9722 11.295C16.6844 11.1028 16.3461 11.0001 16 11.0001C15.6539 11.0001 15.3156 11.1028 15.0278 11.295C14.74 11.4873 14.5157 11.7606 14.3832 12.0804C14.2508 12.4001 14.2161 12.752 14.2836 13.0915C14.3511 13.4309 14.5178 13.7427 14.7625 13.9875C15.0953 14.3068 15.5387 14.4851 16 14.4851C16.4613 14.4851 16.9047 14.3068 17.2375 13.9875Z" fill="#344054"/>
<path d="M16 16.5C15.556 16.5014 15.1223 16.6341 14.7536 16.8814C14.3849 17.1287 14.0976 17.4796 13.9278 17.8899C13.7581 18.3002 13.7136 18.7515 13.7998 19.187C13.8861 19.6226 14.0992 20.0229 14.4125 20.3375C14.8403 20.7456 15.4088 20.9732 16 20.9732C16.5912 20.9732 17.1597 20.7456 17.5875 20.3375C17.9008 20.0229 18.1139 19.6226 18.2002 19.187C18.2864 18.7515 18.2419 18.3002 18.0722 17.8899C17.9024 17.4796 17.6151 17.1287 17.2464 16.8814C16.8777 16.6341 16.444 16.5014 16 16.5Z" fill="#344054"/>
</svg>
