<svg width="32" height="32" viewBox="0 0 32 32" fill="none" xmlns="http://www.w3.org/2000/svg">
<path d="M16 3C13.4288 3 10.9154 3.76244 8.77759 5.1909C6.63975 6.61935 4.97351 8.64968 3.98957 11.0251C3.00563 13.4006 2.74819 16.0144 3.2498 18.5362C3.75141 21.0579 4.98953 23.3743 6.80762 25.1924C8.6257 27.0105 10.9421 28.2486 13.4638 28.7502C15.9856 29.2518 18.5995 28.9944 20.9749 28.0104C23.3503 27.0265 25.3807 25.3603 26.8091 23.2224C28.2376 21.0846 29 18.5712 29 16C28.9934 12.5542 27.6216 9.25145 25.1851 6.81491C22.7486 4.37837 19.4458 3.00661 16 3ZM15.4875 14.5C16.2267 14.5018 16.9541 14.6857 17.6054 15.0354C18.2567 15.3852 18.8117 15.89 19.2216 16.5052C19.6314 17.1204 19.8834 17.8271 19.9552 18.5629C20.027 19.2986 19.9164 20.0407 19.6333 20.7236C19.3501 21.4064 18.9031 22.009 18.3318 22.4781C17.7604 22.9471 17.0823 23.2682 16.3574 23.4129C15.6325 23.5576 14.8831 23.5215 14.1754 23.3078C13.4677 23.0941 12.8236 22.7093 12.3 22.1875C12.1989 22.0974 12.1172 21.9877 12.0598 21.8651C12.0024 21.7425 11.9705 21.6095 11.966 21.4741C11.9615 21.3388 11.9846 21.204 12.0338 21.0778C12.083 20.9517 12.1572 20.8368 12.2521 20.7402C12.347 20.6437 12.4605 20.5674 12.5858 20.5159C12.7111 20.4645 12.8455 20.4391 12.9808 20.4412C13.1162 20.4433 13.2498 20.4728 13.3734 20.5281C13.497 20.5833 13.6081 20.663 13.7 20.7625C13.9345 20.9974 14.2132 21.1835 14.52 21.3101C14.8268 21.4367 15.1556 21.5012 15.4875 21.5C15.8175 21.501 16.1444 21.4362 16.4491 21.3096C16.7539 21.183 17.0304 20.997 17.2625 20.7625C17.4961 20.5322 17.6815 20.2578 17.8081 19.9553C17.9347 19.6527 17.9999 19.328 17.9999 19C17.9999 18.672 17.9347 18.3473 17.8081 18.0447C17.6815 17.7422 17.4961 17.4678 17.2625 17.2375C17.0304 17.003 16.7539 16.817 16.4491 16.6904C16.1444 16.5638 15.8175 16.499 15.4875 16.5C15.1556 16.4988 14.8268 16.5633 14.52 16.6899C14.2132 16.8165 13.9345 17.0026 13.7 17.2375C13.5496 17.3852 13.3563 17.4816 13.1478 17.5129C12.9393 17.5442 12.7262 17.5088 12.5391 17.4117C12.3519 17.3147 12.2002 17.1609 12.1056 16.9725C12.0111 16.7841 11.9785 16.5706 12.0125 16.3625L12.9875 10.3375C13.026 10.1035 13.1465 9.89076 13.3274 9.73735C13.5083 9.58394 13.7378 9.49981 13.975 9.5H19C19.2652 9.5 19.5196 9.60536 19.7071 9.79289C19.8946 9.98043 20 10.2348 20 10.5C20 10.7652 19.8946 11.0196 19.7071 11.2071C19.5196 11.3946 19.2652 11.5 19 11.5H14.825L14.3125 14.65C14.6962 14.5502 15.0911 14.4998 15.4875 14.5Z" fill="#344054"/>
</svg>
