<svg width="32" height="32" viewBox="0 0 32 32" fill="none" xmlns="http://www.w3.org/2000/svg">
<path d="M29 26C29 26.2652 28.8946 26.5196 28.7071 26.7071C28.5196 26.8946 28.2652 27 28 27H4C3.73478 27 3.48043 26.8946 3.29289 26.7071C3.10536 26.5196 3 26.2652 3 26V6C3 5.73478 3.10536 5.48043 3.29289 5.29289C3.48043 5.10536 3.73478 5 4 5C4.26522 5 4.51957 5.10536 4.70711 5.29289C4.89464 5.48043 5 5.73478 5 6V19.5875L11.2875 13.2875C11.4771 13.0997 11.7332 12.9944 12 12.9944C12.2668 12.9944 12.5229 13.0997 12.7125 13.2875L16 16.5875L22.0875 10.5L20.2875 8.7125C20.1518 8.56791 20.0599 8.38787 20.0223 8.19321C19.9847 7.99854 20.003 7.79721 20.075 7.6125C20.1529 7.43147 20.2818 7.27708 20.4461 7.16828C20.6105 7.05949 20.8029 7.001 21 7H26C26.2652 7 26.5196 7.10536 26.7071 7.29289C26.8946 7.48043 27 7.73478 27 8V13C27.0006 13.1974 26.9428 13.3906 26.8338 13.5552C26.7248 13.7198 26.5695 13.8485 26.3875 13.925C26.2642 13.974 26.1327 13.9994 26 14C25.7345 13.9989 25.4795 13.896 25.2875 13.7125L23.5 11.9125L16.7125 18.7125C16.5229 18.9003 16.2668 19.0056 16 19.0056C15.7332 19.0056 15.4771 18.9003 15.2875 18.7125L12 15.4125L5 22.4125V25H28C28.2652 25 28.5196 25.1054 28.7071 25.2929C28.8946 25.4804 29 25.7348 29 26Z" fill="#344054"/>
</svg>
