<svg width="32" height="32" viewBox="0 0 32 32" fill="none" xmlns="http://www.w3.org/2000/svg">
<path d="M21.9874 16.25C21.3771 15.6778 20.6865 15.1978 19.9374 14.825C20.381 14.5606 20.7957 14.2506 21.1749 13.9C21.8612 13.2723 22.4093 12.5085 22.7842 11.6574C23.1592 10.8062 23.3528 9.88635 23.3528 8.95627C23.3528 8.0262 23.1592 7.10631 22.7842 6.25517C22.4093 5.40402 21.8612 4.64027 21.1749 4.01252C19.7621 2.71865 17.9158 2.00098 15.9999 2.00098C14.0841 2.00098 12.2378 2.71865 10.8249 4.01252C10.1387 4.64027 9.5906 5.40402 9.21564 6.25517C8.84068 7.10631 8.64704 8.0262 8.64704 8.95627C8.64704 9.88635 8.84068 10.8062 9.21564 11.6574C9.5906 12.5085 10.1387 13.2723 10.8249 13.9C11.2042 14.2506 11.6189 14.5606 12.0624 14.825C11.3134 15.1978 10.6228 15.6778 10.0124 16.25C9.22088 16.9749 8.58879 17.8566 8.15636 18.839C7.72392 19.8213 7.50061 20.8829 7.50061 21.9563C7.50061 23.0296 7.72392 24.0912 8.15636 25.0736C8.58879 26.056 9.22088 26.9376 10.0124 27.6625C11.6442 29.1656 13.7815 29.9999 15.9999 29.9999C18.2184 29.9999 20.3557 29.1656 21.9874 27.6625C22.779 26.9376 23.4111 26.056 23.8435 25.0736C24.276 24.0912 24.4993 23.0296 24.4993 21.9563C24.4993 20.8829 24.276 19.8213 23.8435 18.839C23.4111 17.8566 22.779 16.9749 21.9874 16.25ZM12.1999 12.4375C11.7125 11.998 11.3228 11.461 11.0561 10.8613C10.7893 10.2616 10.6515 9.61261 10.6515 8.95627C10.6515 8.29994 10.7893 7.65091 11.0561 7.05122C11.3228 6.45153 11.7125 5.91455 12.1999 5.47502C13.2386 4.52726 14.5939 4.00182 15.9999 4.00182C17.406 4.00182 18.7613 4.52726 19.7999 5.47502C20.2874 5.91455 20.6771 6.45153 20.9438 7.05122C21.2106 7.65091 21.3484 8.29994 21.3484 8.95627C21.3484 9.61261 21.2106 10.2616 20.9438 10.8613C20.6771 11.461 20.2874 11.998 19.7999 12.4375C18.7613 13.3853 17.406 13.9107 15.9999 13.9107C14.5939 13.9107 13.2386 13.3853 12.1999 12.4375ZM20.6249 26.2125C19.3594 27.3632 17.7104 28.0008 15.9999 28.0008C14.2895 28.0008 12.6405 27.3632 11.3749 26.2125C10.7836 25.6737 10.3113 25.0174 9.98807 24.2855C9.66486 23.5537 9.49792 22.7625 9.49792 21.9625C9.49792 21.1625 9.66486 20.3713 9.98807 19.6395C10.3113 18.9077 10.7836 18.2514 11.3749 17.7125C12.6365 16.5539 14.287 15.911 15.9999 15.911C17.7128 15.911 19.3634 16.5539 20.6249 17.7125C21.2162 18.2514 21.6886 18.9077 22.0118 19.6395C22.335 20.3713 22.502 21.1625 22.502 21.9625C22.502 22.7625 22.335 23.5537 22.0118 24.2855C21.6886 25.0174 21.2162 25.6737 20.6249 26.2125Z" fill="#344054"/>
</svg>
