<svg width="32" height="32" viewBox="0 0 32 32" fill="none" xmlns="http://www.w3.org/2000/svg">
<path d="M26 4H6C5.46957 4 4.96086 4.21071 4.58579 4.58579C4.21071 4.96086 4 5.46957 4 6V26C4 26.5304 4.21071 27.0391 4.58579 27.4142C4.96086 27.7893 5.46957 28 6 28H26C26.5304 28 27.0391 27.7893 27.4142 27.4142C27.7893 27.0391 28 26.5304 28 26V6C28 5.46957 27.7893 4.96086 27.4142 4.58579C27.0391 4.21071 26.5304 4 26 4ZM17.5 22C17.5 22.2652 17.3946 22.5196 17.2071 22.7071C17.0196 22.8946 16.7652 23 16.5 23C16.2348 23 15.9804 22.8946 15.7929 22.7071C15.6054 22.5196 15.5 22.2652 15.5 22V12.375L14.05 13.325C13.9424 13.3994 13.8209 13.4514 13.6928 13.4779C13.5646 13.5044 13.4325 13.5048 13.3042 13.4792C13.1759 13.4535 13.054 13.4023 12.9459 13.3286C12.8379 13.2548 12.7457 13.1601 12.675 13.05C12.6019 12.9408 12.5511 12.8184 12.5253 12.6896C12.4996 12.5607 12.4995 12.4281 12.5251 12.2993C12.5506 12.1704 12.6013 12.0479 12.6742 11.9386C12.7471 11.8294 12.8408 11.7355 12.95 11.6625L15.95 9.6625C16.1009 9.5631 16.276 9.50647 16.4565 9.49861C16.6371 9.49075 16.8164 9.53197 16.9754 9.61788C17.1344 9.70378 17.2671 9.83117 17.3595 9.9865C17.4519 10.1418 17.5004 10.3193 17.5 10.5V22Z" fill="#344054"/>
</svg>
