<svg width="32" height="32" viewBox="0 0 32 32" fill="none" xmlns="http://www.w3.org/2000/svg">
<path d="M18.75 12.75C18.7463 13.3828 18.5235 13.9947 18.1195 14.4817C17.7155 14.9687 17.1553 15.3007 16.5342 15.4213C15.913 15.5419 15.2693 15.4435 14.7124 15.143C14.1556 14.8425 13.72 14.3584 13.4799 13.773C13.2397 13.1876 13.2098 12.5371 13.3951 11.9321C13.5805 11.3271 13.9697 10.805 14.4965 10.4546C15.0234 10.1042 15.6554 9.94708 16.285 10.0101C16.9146 10.073 17.503 10.3522 17.95 10.8C18.4616 11.3203 18.7488 12.0204 18.75 12.75Z" stroke="#344054" stroke-width="1.5" stroke-linecap="round" stroke-linejoin="round"/>
<path d="M19.25 18.75C19.2479 19.4985 18.9866 20.2232 18.5104 20.8007C18.0342 21.3782 17.3726 21.7729 16.6381 21.9175C15.9037 22.0622 15.1419 21.9479 14.4823 21.5941C13.8226 21.2403 13.306 20.6688 13.0202 19.977C12.7345 19.2852 12.6973 18.5157 12.915 17.7995C13.1326 17.0834 13.5918 16.4647 14.2142 16.049C14.8366 15.6332 15.5839 15.4459 16.3288 15.519C17.0737 15.5922 17.7703 15.9211 18.3 16.45C18.6022 16.7518 18.8418 17.1104 19.0048 17.5051C19.1679 17.8998 19.2512 18.3229 19.25 18.75Z" stroke="#344054" stroke-width="1.5" stroke-linecap="round" stroke-linejoin="round"/>
<path d="M26 5H6C5.44772 5 5 5.44772 5 6V26C5 26.5523 5.44772 27 6 27H26C26.5523 27 27 26.5523 27 26V6C27 5.44772 26.5523 5 26 5Z" stroke="#344054" stroke-width="1.5" stroke-linecap="round" stroke-linejoin="round"/>
</svg>
