<svg width="32" height="32" viewBox="0 0 32 32" fill="none" xmlns="http://www.w3.org/2000/svg">
<path d="M22.3499 8.96252C22.3444 9.75476 22.1762 10.5374 21.8558 11.262C21.5354 11.9866 21.0697 12.6377 20.4874 13.175C19.2604 14.2932 17.6601 14.913 15.9999 14.913C14.3398 14.913 12.7395 14.2932 11.5124 13.175C10.9265 12.6409 10.4584 11.9903 10.1381 11.265C9.81777 10.5396 9.65234 9.75543 9.65234 8.96252C9.65234 8.1696 9.81777 7.38541 10.1381 6.66007C10.4584 5.93472 10.9265 5.28418 11.5124 4.75002C12.7355 3.62385 14.3373 2.99872 15.9999 2.99872C17.6625 2.99872 19.2643 3.62385 20.4874 4.75002C21.0715 5.28589 21.5384 5.93671 21.8589 6.66163C22.1794 7.38655 22.3466 8.16991 22.3499 8.96252V8.96252Z" stroke="#344054" stroke-width="1.5" stroke-linecap="round" stroke-linejoin="round"/>
<path d="M23.5 21.9625C23.4955 22.8985 23.2977 23.8235 22.9192 24.6796C22.5406 25.5356 21.9894 26.3043 21.3 26.9375C19.8541 28.2648 17.9628 29.0012 16 29.0012C14.0373 29.0012 12.1459 28.2648 10.7 26.9375C10.0067 26.3061 9.45285 25.5369 9.07387 24.6791C8.6949 23.8214 8.49915 22.894 8.49915 21.9562C8.49915 21.0185 8.6949 20.0911 9.07387 19.2333C9.45285 18.3756 10.0067 17.6064 10.7 16.975C12.1459 15.6477 14.0373 14.9113 16 14.9113C17.9628 14.9113 19.8541 15.6477 21.3 16.975C21.9909 17.6096 22.543 18.3803 22.9217 19.2386C23.3003 20.097 23.4972 21.0244 23.5 21.9625Z" stroke="#344054" stroke-width="1.5" stroke-linecap="round" stroke-linejoin="round"/>
</svg>
