<svg width="32" height="32" viewBox="0 0 32 32" fill="none" xmlns="http://www.w3.org/2000/svg">
<path d="M19.5 10.75C20.1904 10.75 20.75 10.1904 20.75 9.5C20.75 8.80964 20.1904 8.25 19.5 8.25C18.8096 8.25 18.25 8.80964 18.25 9.5C18.25 10.1904 18.8096 10.75 19.5 10.75Z" fill="#344054"/>
<path d="M2 23C30.975 29.3375 27.975 9.43754 27.15 5.62504C27.1074 5.43576 27.012 5.26245 26.8748 5.12526C26.7376 4.98807 26.5643 4.89263 26.375 4.85004C22.5625 4.02504 2.6625 1.02504 9 30" stroke="#344054" stroke-width="1.5" stroke-linecap="round" stroke-linejoin="round"/>
<path d="M25.1625 19C23.5582 19.0219 21.9658 18.7218 20.4794 18.1175C18.9931 17.5133 17.643 16.6171 16.5091 15.482C15.3751 14.3469 14.4803 12.9959 13.8776 11.5089C13.2749 10.022 12.9765 8.42925 13 6.82495" stroke="#344054" stroke-width="1.5" stroke-linecap="round" stroke-linejoin="round"/>
</svg>
