<svg width="32" height="32" viewBox="0 0 32 32" fill="none" xmlns="http://www.w3.org/2000/svg">
<path d="M16 29V11" stroke="#344054" stroke-width="1.5" stroke-linecap="round" stroke-linejoin="round"/>
<path d="M16 19L10 16" stroke="#344054" stroke-width="1.5" stroke-linecap="round" stroke-linejoin="round"/>
<path d="M16 16L22 13" stroke="#344054" stroke-width="1.5" stroke-linecap="round" stroke-linejoin="round"/>
<path d="M16.5625 22.65C17.48 23.2749 18.5174 23.702 19.6089 23.9042C20.7004 24.1064 21.822 24.0792 22.9025 23.8244C23.9829 23.5695 24.9984 23.0927 25.8845 22.424C26.7707 21.7554 27.5079 20.9097 28.0494 19.9407C28.591 18.9717 28.9249 17.9006 29.03 16.7955C29.1351 15.6905 29.0091 14.5756 28.66 13.5219C28.3109 12.4682 27.7463 11.4986 27.0021 10.6749C26.2579 9.85126 25.3505 9.19147 24.3375 8.73752C24.1151 8.62569 23.9383 8.44014 23.8375 8.21252C23.1895 6.66872 22.0999 5.35069 20.7056 4.4238C19.3113 3.49691 17.6743 3.00244 16 3.00244C14.3257 3.00244 12.6887 3.49691 11.2944 4.4238C9.90006 5.35069 8.81053 6.66872 8.1625 8.21252C8.06165 8.44014 7.88493 8.62569 7.6625 8.73752C6.6495 9.19147 5.74206 9.85126 4.9979 10.6749C4.25373 11.4986 3.68913 12.4682 3.34 13.5219C2.99087 14.5756 2.86486 15.6905 2.96997 16.7955C3.07508 17.9006 3.40902 18.9717 3.95055 19.9407C4.49208 20.9097 5.22935 21.7554 6.11546 22.424C7.00157 23.0927 8.01713 23.5695 9.09754 23.8244C10.178 24.0792 11.2996 24.1064 12.3911 23.9042C13.4826 23.702 14.52 23.2749 15.4375 22.65C15.6046 22.5403 15.8001 22.4819 16 22.4819C16.1999 22.4819 16.3954 22.5403 16.5625 22.65Z" stroke="#344054" stroke-width="1.5" stroke-linecap="round" stroke-linejoin="round"/>
</svg>
