<svg width="32" height="32" viewBox="0 0 32 32" fill="none" xmlns="http://www.w3.org/2000/svg">
<path d="M19.8375 20.4374L16.9375 28.4124C16.8665 28.6038 16.7386 28.7689 16.571 28.8854C16.4034 29.002 16.2041 29.0645 16 29.0645C15.7959 29.0645 15.5966 29.002 15.429 28.8854C15.2614 28.7689 15.1335 28.6038 15.0625 28.4124L12.1625 20.4374C12.1119 20.3 12.032 20.1751 11.9284 20.0716C11.8248 19.968 11.7 19.8881 11.5625 19.8374L3.5875 16.9374C3.39612 16.8664 3.23107 16.7385 3.11452 16.5709C2.99796 16.4033 2.93549 16.2041 2.93549 15.9999C2.93549 15.7958 2.99796 15.5966 3.11452 15.429C3.23107 15.2614 3.39612 15.1335 3.5875 15.0624L11.5625 12.1624C11.7 12.1118 11.8248 12.0319 11.9284 11.9283C12.032 11.8247 12.1119 11.6999 12.1625 11.5624L15.0625 3.58744C15.1335 3.39606 15.2614 3.23101 15.429 3.11445C15.5966 2.9979 15.7959 2.93542 16 2.93542C16.2041 2.93542 16.4034 2.9979 16.571 3.11445C16.7386 3.23101 16.8665 3.39606 16.9375 3.58744L19.8375 11.5624C19.8881 11.6999 19.968 11.8247 20.0716 11.9283C20.1752 12.0319 20.3 12.1118 20.4375 12.1624L28.4125 15.0624C28.6039 15.1335 28.7689 15.2614 28.8855 15.429C29.002 15.5966 29.0645 15.7958 29.0645 15.9999C29.0645 16.2041 29.002 16.4033 28.8855 16.5709C28.7689 16.7385 28.6039 16.8664 28.4125 16.9374L20.4375 19.8374C20.3 19.8881 20.1752 19.968 20.0716 20.0716C19.968 20.1751 19.8881 20.3 19.8375 20.4374V20.4374Z" stroke="#344054" stroke-width="1.5" stroke-linecap="round" stroke-linejoin="round"/>
</svg>
