<svg width="32" height="32" viewBox="0 0 32 32" fill="none" xmlns="http://www.w3.org/2000/svg">
<path d="M16 7V22.5" stroke="#344054" stroke-width="1.5" stroke-linecap="round" stroke-linejoin="round"/>
<path d="M23.3875 19.05C24.375 19.1 27.025 18.8875 28 15C28.975 11.1125 29.8625 6 26 6C22.1375 6 16 12 16 16C16 12 9.86249 6 5.99999 6C2.13749 6 2.99999 11 3.99999 15C4.99999 19 7.62499 19.1 8.61249 19.05" stroke="#344054" stroke-width="1.5" stroke-linecap="round" stroke-linejoin="round"/>
<path d="M11 18.025C10.1368 18.1215 9.31999 18.4658 8.64812 19.0162C7.97625 19.5667 7.47804 20.2998 7.21361 21.1272C6.94918 21.9545 6.92984 22.8407 7.15791 23.6788C7.38598 24.5169 7.85172 25.2711 8.49893 25.8503C9.14614 26.4296 9.94716 26.8091 10.8053 26.9432C11.6635 27.0773 12.5421 26.9602 13.3352 26.606C14.1282 26.2517 14.8018 25.6756 15.2747 24.947C15.7475 24.2184 15.9994 23.3686 16 22.5C16.0006 23.3686 16.2525 24.2184 16.7253 24.947C17.1982 25.6756 17.8718 26.2517 18.6648 26.606C19.4579 26.9602 20.3365 27.0773 21.1947 26.9432C22.0528 26.8091 22.8539 26.4296 23.5011 25.8503C24.1483 25.2711 24.614 24.5169 24.8421 23.6788C25.0702 22.8407 25.0508 21.9545 24.7864 21.1272C24.522 20.2998 24.0237 19.5667 23.3519 19.0162C22.68 18.4658 21.8632 18.1215 21 18.025" stroke="#344054" stroke-width="1.5" stroke-linecap="round" stroke-linejoin="round"/>
</svg>
