<svg width="32" height="32" viewBox="0 0 32 32" fill="none" xmlns="http://www.w3.org/2000/svg">
<path d="M11.6 7.375L10.6375 5.0625" stroke="#344054" stroke-width="1.5" stroke-linecap="round" stroke-linejoin="round"/>
<path d="M5.375 13.6L3.0625 12.6375" stroke="#344054" stroke-width="1.5" stroke-linecap="round" stroke-linejoin="round"/>
<path d="M26.625 13.6L28.9375 12.6375" stroke="#344054" stroke-width="1.5" stroke-linecap="round" stroke-linejoin="round"/>
<path d="M20.4 7.375L21.3625 5.0625" stroke="#344054" stroke-width="1.5" stroke-linecap="round" stroke-linejoin="round"/>
<path d="M30 20H2" stroke="#344054" stroke-width="1.5" stroke-linecap="round" stroke-linejoin="round"/>
<path d="M26 25H6" stroke="#344054" stroke-width="1.5" stroke-linecap="round" stroke-linejoin="round"/>
<path d="M8.775 20C8.46467 18.8858 8.41624 17.7148 8.63352 16.5788C8.85079 15.4428 9.32787 14.3724 10.0275 13.4513C10.7271 12.5302 11.6302 11.7834 12.6663 11.2693C13.7024 10.7552 14.8434 10.4877 16 10.4877C17.1566 10.4877 18.2976 10.7552 19.3337 11.2693C20.3698 11.7834 21.2729 12.5302 21.9725 13.4513C22.6721 14.3724 23.1492 15.4428 23.3665 16.5788C23.5838 17.7148 23.5353 18.8858 23.225 20" stroke="#344054" stroke-width="1.5" stroke-linecap="round" stroke-linejoin="round"/>
</svg>
