<svg width="32" height="32" viewBox="0 0 32 32" fill="none" xmlns="http://www.w3.org/2000/svg">
<path d="M20.5 9C21.8807 9 23 7.88071 23 6.5C23 5.11929 21.8807 4 20.5 4C19.1193 4 18 5.11929 18 6.5C18 7.88071 19.1193 9 20.5 9Z" stroke="#344054" stroke-width="1.5" stroke-linecap="round" stroke-linejoin="round"/>
<path d="M1 25L10.1375 9.46252C10.2281 9.31516 10.3549 9.19348 10.5059 9.10907C10.6569 9.02466 10.827 8.98035 11 8.98035C11.173 8.98035 11.3431 9.02466 11.4941 9.10907C11.6451 9.19348 11.7719 9.31516 11.8625 9.46252L21 25H1Z" stroke="#344054" stroke-width="1.5" stroke-linecap="round" stroke-linejoin="round"/>
<path d="M6.29999 16H15.7" stroke="#344054" stroke-width="1.5" stroke-linecap="round" stroke-linejoin="round"/>
<path d="M18.0125 19.9249L22.1375 12.9499C22.2281 12.8026 22.355 12.6809 22.5059 12.5965C22.6569 12.5121 22.827 12.4678 23 12.4678C23.173 12.4678 23.3431 12.5121 23.4941 12.5965C23.6451 12.6809 23.7719 12.8026 23.8625 12.9499L31 24.9999H21" stroke="#344054" stroke-width="1.5" stroke-linecap="round" stroke-linejoin="round"/>
</svg>
