<svg width="32" height="32" viewBox="0 0 32 32" fill="none" xmlns="http://www.w3.org/2000/svg">
<path d="M15 26C16.3807 26 17.5 24.8807 17.5 23.5C17.5 22.1193 16.3807 21 15 21C13.6193 21 12.5 22.1193 12.5 23.5C12.5 24.8807 13.6193 26 15 26Z" stroke="#344054" stroke-width="1.5" stroke-linecap="round" stroke-linejoin="round"/>
<path d="M15 21V6" stroke="#344054" stroke-width="1.5" stroke-linecap="round" stroke-linejoin="round"/>
<path d="M30.0375 9.99994C29.8053 10.2324 29.5296 10.4168 29.2261 10.5426C28.9226 10.6684 28.5973 10.7332 28.2687 10.7332C27.9402 10.7332 27.6149 10.6684 27.3114 10.5426C27.0079 10.4168 26.7322 10.2324 26.5 9.99994C26.2678 9.7675 25.9921 9.5831 25.6886 9.45729C25.3851 9.33148 25.0598 9.26672 24.7312 9.26672C24.4027 9.26672 24.0774 9.33148 23.7739 9.45729C23.4704 9.5831 23.1947 9.7675 22.9625 9.99994" stroke="#344054" stroke-width="1.5" stroke-linecap="round" stroke-linejoin="round"/>
<path d="M30.0375 14.9999C29.8053 15.2324 29.5296 15.4168 29.2261 15.5426C28.9226 15.6684 28.5973 15.7332 28.2687 15.7332C27.9402 15.7332 27.6149 15.6684 27.3114 15.5426C27.0079 15.4168 26.7322 15.2324 26.5 14.9999C26.2678 14.7675 25.9921 14.5831 25.6886 14.4573C25.3851 14.3315 25.0598 14.2667 24.7312 14.2667C24.4027 14.2667 24.0774 14.3315 23.7739 14.4573C23.4704 14.5831 23.1947 14.7675 22.9625 14.9999" stroke="#344054" stroke-width="1.5" stroke-linecap="round" stroke-linejoin="round"/>
<path d="M11 18.375V6C11 4.93913 11.4214 3.92172 12.1716 3.17157C12.9217 2.42143 13.9391 2 15 2C16.0609 2 17.0783 2.42143 17.8284 3.17157C18.5786 3.92172 19 4.93913 19 6V18.375C20.0669 19.2079 20.8471 20.3531 21.2318 21.6507C21.6166 22.9484 21.5867 24.3338 21.1462 25.6136C20.7058 26.8934 19.8769 28.0038 18.775 28.7899C17.6732 29.576 16.3535 29.9985 15 29.9985C13.6465 29.9985 12.3268 29.576 11.225 28.7899C10.1231 28.0038 9.29418 26.8934 8.85376 25.6136C8.41333 24.3338 8.38341 22.9484 8.76816 21.6507C9.15291 20.3531 9.93315 19.2079 11 18.375V18.375Z" stroke="#344054" stroke-width="1.5" stroke-linecap="round" stroke-linejoin="round"/>
</svg>
