<svg width="32" height="32" viewBox="0 0 32 32" fill="none" xmlns="http://www.w3.org/2000/svg">
<path d="M11 18.5C11 16.8189 11.4985 15.1755 12.4325 13.7777C13.3665 12.3798 14.694 11.2904 16.2472 10.647C17.8004 10.0037 19.5094 9.83535 21.1583 10.1633C22.8071 10.4913 24.3217 11.3008 25.5104 12.4896C26.6992 13.6783 27.5087 15.1929 27.8367 16.8417C28.1647 18.4906 27.9963 20.1996 27.353 21.7528C26.7096 23.306 25.6202 24.6335 24.2223 25.5675C22.8245 26.5015 21.1811 27 19.5 27H9.5C8.04131 27 6.64236 26.4205 5.61091 25.3891C4.57946 24.3576 4 22.9587 4 21.5C4 20.0413 4.57946 18.6424 5.61091 17.6109C6.64236 16.5795 8.04131 16 9.5 16C10.1086 15.9969 10.7133 16.0983 11.2875 16.3" stroke="#344054" stroke-width="1.5" stroke-linecap="round" stroke-linejoin="round"/>
<path d="M5.87501 17.3625C4.71257 16.8693 3.68316 16.1083 2.87072 15.1417C2.05828 14.175 1.48582 13.03 1.20001 11.8V11.8C1.79122 11.9303 2.39462 11.9974 3.00001 12C5.12073 11.9967 7.15364 11.1528 8.65322 9.65322C10.1528 8.15364 10.9967 6.12073 11 4.00001C10.9974 3.39462 10.9303 2.79122 10.8 2.20001C12.5633 2.6072 14.1365 3.60023 15.2626 5.01693C16.3887 6.43363 17.0012 8.19028 17 10C17 10.125 17 10.25 16.9875 10.375" stroke="#344054" stroke-width="1.5" stroke-linecap="round" stroke-linejoin="round"/>
</svg>
