<svg width="32" height="32" viewBox="0 0 32 32" fill="none" xmlns="http://www.w3.org/2000/svg">
<path d="M27.0875 19.075C25.1242 19.6255 23.0497 19.6436 21.077 19.1272C19.1044 18.6109 17.3048 17.5789 15.863 16.137C14.4211 14.6952 13.389 12.8955 12.8727 10.9229C12.3564 8.95031 12.3744 6.87581 12.925 4.91248C10.9893 5.45124 9.2286 6.48775 7.81818 7.91877C6.40776 9.34978 5.39688 11.1254 4.88624 13.0686C4.37559 15.0119 4.38299 17.0551 4.90771 18.9946C5.43243 20.9341 6.45615 22.7023 7.87691 24.1231C9.29766 25.5438 11.0659 26.5675 13.0054 27.0923C14.9449 27.617 16.9881 27.6244 18.9313 27.1137C20.8746 26.6031 22.6502 25.5922 24.0812 24.1818C25.5122 22.7714 26.5487 21.0106 27.0875 19.075V19.075Z" stroke="#344054" stroke-width="1.5" stroke-linecap="round" stroke-linejoin="round"/>
</svg>
