<svg width="32" height="32" viewBox="0 0 32 32" fill="none" xmlns="http://www.w3.org/2000/svg">
<path d="M20.5 9.75C21.1904 9.75 21.75 9.19036 21.75 8.5C21.75 7.80964 21.1904 7.25 20.5 7.25C19.8096 7.25 19.25 7.80964 19.25 8.5C19.25 9.19036 19.8096 9.75 20.5 9.75Z" fill="#344054"/>
<path d="M15 17L10 23" stroke="#344054" stroke-width="1.5" stroke-linecap="round" stroke-linejoin="round"/>
<path d="M26 12V15C26 18.1826 24.7357 21.2348 22.4853 23.4853C20.2348 25.7357 17.1826 27 14 27H1L13 12V9.49998C13.0026 7.92094 13.58 6.39687 14.6242 5.2124C15.6684 4.02794 17.1081 3.26409 18.6744 3.06353C20.2406 2.86296 21.8263 3.23939 23.1353 4.12252C24.4443 5.00564 25.3871 6.33506 25.7875 7.86248L29 9.99998L26 12Z" stroke="#344054" stroke-width="1.5" stroke-linecap="round" stroke-linejoin="round"/>
</svg>
