<svg width="32" height="32" viewBox="0 0 32 32" fill="none" xmlns="http://www.w3.org/2000/svg">
<path d="M26.2555 26.2531C28.4034 24.1052 25.5541 17.7735 19.8915 12.1109C14.2289 6.44832 7.89726 3.59908 5.74938 5.74696C3.60149 7.89484 6.45074 14.2265 12.1133 19.8891C17.7759 25.5517 24.1076 28.4009 26.2555 26.2531Z" stroke="#344054" stroke-width="1.5" stroke-linecap="round" stroke-linejoin="round"/>
<path d="M19.8915 19.8891C25.5541 14.2265 28.4034 7.89483 26.2555 5.74694C24.1076 3.59906 17.7759 6.4483 12.1133 12.1109C6.45074 17.7735 3.60149 24.1052 5.74938 26.253C7.89726 28.4009 14.2289 25.5517 19.8915 19.8891Z" stroke="#344054" stroke-width="1.5" stroke-linecap="round" stroke-linejoin="round"/>
<path d="M16 17.25C16.6904 17.25 17.25 16.6904 17.25 16C17.25 15.3096 16.6904 14.75 16 14.75C15.3096 14.75 14.75 15.3096 14.75 16C14.75 16.6904 15.3096 17.25 16 17.25Z" fill="#344054"/>
</svg>
