<svg width="32" height="32" viewBox="0 0 32 32" fill="none" xmlns="http://www.w3.org/2000/svg">
<path d="M16 24V27" stroke="#344054" stroke-width="1.5" stroke-linecap="round" stroke-linejoin="round"/>
<path d="M11.5 18.75C12.1904 18.75 12.75 18.1904 12.75 17.5C12.75 16.8096 12.1904 16.25 11.5 16.25C10.8096 16.25 10.25 16.8096 10.25 17.5C10.25 18.1904 10.8096 18.75 11.5 18.75Z" fill="#344054"/>
<path d="M20.5 18.75C21.1904 18.75 21.75 18.1904 21.75 17.5C21.75 16.8096 21.1904 16.25 20.5 16.25C19.8096 16.25 19.25 16.8096 19.25 17.5C19.25 18.1904 19.8096 18.75 20.5 18.75Z" fill="#344054"/>
<path d="M18 22L16 24L14 22" stroke="#344054" stroke-width="1.5" stroke-linecap="round" stroke-linejoin="round"/>
<path d="M19 6L25.975 4.2625C26.1065 4.2294 26.2433 4.22338 26.3772 4.24481C26.5111 4.26624 26.6392 4.31467 26.7538 4.38716C26.8684 4.45965 26.967 4.55468 27.0437 4.66648C27.1204 4.77828 27.1736 4.90451 27.2 5.0375L29.25 15.9875C29.4375 17.0125 28.125 17.6125 27.475 16.7875L19 6Z" stroke="#344054" stroke-width="1.5" stroke-linecap="round" stroke-linejoin="round"/>
<path d="M13 6L6.02499 4.2625C5.89351 4.2294 5.75667 4.22338 5.62279 4.24481C5.4889 4.26624 5.36078 4.31467 5.2462 4.38716C5.13162 4.45965 5.03298 4.55468 4.95627 4.66648C4.87956 4.77828 4.82639 4.90451 4.79999 5.0375L2.74999 15.9875C2.56249 17.0125 3.87499 17.6125 4.52499 16.7875L13 6Z" stroke="#344054" stroke-width="1.5" stroke-linecap="round" stroke-linejoin="round"/>
<path d="M13 6H19" stroke="#344054" stroke-width="1.5" stroke-linecap="round" stroke-linejoin="round"/>
<path d="M26 14.9125V23C26 24.0608 25.5786 25.0783 24.8284 25.8284C24.0783 26.5785 23.0609 27 22 27H10C8.93913 27 7.92172 26.5785 7.17157 25.8284C6.42143 25.0783 6 24.0608 6 23V14.9125" stroke="#344054" stroke-width="1.5" stroke-linecap="round" stroke-linejoin="round"/>
</svg>
